<svg xmlns="http://www.w3.org/2000/svg" width="1000" height="780">
 <pattern id="knurled-large" patternUnits="userSpaceOnUse" width="12" height="12">
<path stroke="dimgray" stroke-linecap="round" stroke-width="1" d="M 6,6 L 12,12"/>
<path stroke="dimgray" stroke-linecap="round" stroke-width="1" d="M 6,6 L 0,12"/>
<path stroke="gray" stroke-linecap="round" stroke-width="1" d="M 6,6 L 12,0" />
<path stroke="gray" stroke-linecap="round" stroke-width="1" d="M 6,6 L 0,0" />
</pattern><pattern id="knurled-small" patternUnits="userSpaceOnUse" width="4" height="4">
<path stroke="dimgray" stroke-linecap="round" stroke-width="1" d="M 2,2 L 4,4"/>
<path stroke="dimgray" stroke-linecap="round" stroke-width="1" d="M 2,2 L 0,4"/>
<path stroke="gray" stroke-linecap="round" stroke-width="1" d="M 2,2 L 4,0" />
<path stroke="gray" stroke-linecap="round" stroke-width="1" d="M 2,2 L 0,0" />
</pattern><pattern id="knurled" patternUnits="userSpaceOnUse" width="8" height="8">
<path stroke="dimgray" stroke-linecap="round" stroke-width="1" d="M 4,4 L 8,8"/>
<path stroke="dimgray" stroke-linecap="round" stroke-width="1" d="M 4,4 L 0,8"/>
<path stroke="gray" stroke-linecap="round" stroke-width="1" d="M 4,4 L 8,0" />
<path stroke="gray" stroke-linecap="round" stroke-width="1" d="M 4,4 L 0,0" />
</pattern><pattern id="lined" patternUnits="userSpaceOnUse" width="3" height="3">
<path stroke="dimgray" stroke-linecap="round" stroke-width="1" d="M 0,0 L 3,0"/>
</pattern><pattern id="ridged" patternUnits="userSpaceOnUse" width="3" height="3">
<path stroke="dimgray" stroke-linecap="round" stroke-width="1" d="M 0,0 L 0,3"/>
</pattern><pattern id="spring" patternUnits="userSpaceOnUse" width="8" height="60">
<path stroke="dimgray" stroke-linecap="round" stroke-width="2" d="M 1,1 L 8,60"/>
<path stroke="white" stroke-linecap="round" stroke-width="1" d="M 1,1 L 8,60"/>
</pattern><rect x="0" y="0" width="1000" height="780" fill="white" stroke="black" stroke-width="4" />
<rect x="2" y="2" width="996" height="776" fill="white" stroke="dimgray" stroke-width="1" />
<g transform="rotate(0 0 0)">
<text x="30" y="50" font-size="2.0em" font-weight="bold"> Unbranded // Plastic Black (manomano.co.uk) (Model #: unknown)</text>
<line x1="360" y1="124" x2="360" y2="162" stroke="black" stroke-linecap="round"  stroke-width="2" />
<line x1="240" y1="140" x2="360" y2="140" stroke-linecap="round" stroke="black"  stroke-width="2" />
<line x1="246" y1="144" x2="360" y2="144" stroke-linecap="round" stroke="black"  stroke-width="2" />
<text x="500" y="140" font-size="2.4em" font-weight="bold" text-anchor="middle" dominant-baseline="central">Measurements</text>
<line x1="640" y1="140" x2="760" y2="140" stroke-linecap="round" stroke="black"  stroke-width="2" />
<line x1="640" y1="144" x2="754" y2="144" stroke-linecap="round" stroke="black"  stroke-width="2" />
<line x1="640" y1="124" x2="640" y2="162" stroke="black" stroke-linecap="round"  stroke-width="2" />
<line x1="40" y1="300" x2="960" y2="300" stroke-linecap="round" stroke="#5f5f5f" stroke-dasharray="2" stroke-width="1" />
<line x1="20" y1="300" x2="60" y2="300" stroke-linecap="round" stroke="#000000"  stroke-width="1" />
<line x1="40" y1="280" x2="40" y2="320" stroke="#000000" stroke-linecap="round"  stroke-width="1" />
<circle r="10" cx="40" cy="300" fill="white" fill-opacity="0" stroke="#000000" stroke-width="1"  />
<line x1="940" y1="300" x2="980" y2="300" stroke-linecap="round" stroke="#000000"  stroke-width="1" />
<line x1="960" y1="280" x2="960" y2="320" stroke="#000000" stroke-linecap="round"  stroke-width="1" />
<circle r="10" cx="960" cy="300" fill="white" fill-opacity="0" stroke="#000000" stroke-width="1"  />


<!-- renderSideComponent: jaws -->


<!-- renderPart: cone -->
<path d="M141.825 289.375 L146.925 286.875 L146.925 313.125 L141.825 310.625 L141.825 289.375" stroke-width="0" stroke="none" stroke-linejoin="round" fill="white" fill-opacity="1"/>
<path d="M141.825 289.375 L146.925 286.875 M146.925 313.125 L141.825 310.625" stroke-width="0.5" stroke="black" stroke-linejoin="round" fill="white" fill-opacity="1"/>
<!-- !right !both --><path d="M146.925 286.875 L146.925 313.125" stroke-width="0.5" stroke="black" stroke-linejoin="round" fill="white" fill-opacity="1"/>
<!-- !left !both --><path d="M141.825 289.375 L141.825 310.625" stroke-width="0.5" stroke="black" stroke-linejoin="round" fill="white" fill-opacity="1"/>


<!-- renderPart: cylinder -->
<path d="M146.825 286.875 L156.925 289.375 L156.925 310.625 L146.825 313.125 L146.825 286.875" stroke-width="0" stroke="none" stroke-linejoin="round" fill="white" fill-opacity="1"/>
<path d="M146.825 286.875 L156.925 289.375 M156.925 310.625 L146.825 313.125" stroke-width="0.5" stroke="black" stroke-linejoin="round" fill="white" fill-opacity="1"/>
<!-- !right !both --><path d="M156.925 289.375 L156.925 310.625" stroke-width="0.5" stroke="black" stroke-linejoin="round" fill="white" fill-opacity="1"/>
<!-- !left !both --><path d="M146.825 286.875 L146.825 313.125" stroke-width="0.5" stroke="black" stroke-linejoin="round" fill="white" fill-opacity="1"/>


<!-- renderSideComponent: tip -->


<!-- renderPart: cone -->
<path d="M156.825 286.875 L216.925 281.875 L216.925 318.125 L156.825 313.125 L156.825 286.875" stroke-width="0" stroke="none" stroke-linejoin="round" fill="white" fill-opacity="1"/>
<path d="M156.825 286.875 L216.925 281.875 M216.925 318.125 L156.825 313.125" stroke-width="0.5" stroke="black" stroke-linejoin="round" fill="white" fill-opacity="1"/>
<!-- !right !both --><path d="M216.925 281.875 L216.925 318.125" stroke-width="0.5" stroke="black" stroke-linejoin="round" fill="white" fill-opacity="1"/>
<!-- !left !both --><path d="M156.825 286.875 L156.825 313.125" stroke-width="0.5" stroke="black" stroke-linejoin="round" fill="white" fill-opacity="1"/>


<!-- renderSideComponent: grip -->


<!-- renderPart: cylinder -->
<path d="M216.825 279.375 L348.175 279.375 L348.175 320.625 L216.825 320.625 L216.825 279.375" stroke-width="0" stroke="none" stroke-linejoin="round" fill="white" fill-opacity="1"/>
<path d="M216.825 279.375 L348.175 279.375 M348.175 320.625 L216.825 320.625" stroke-width="0.5" stroke="black" stroke-linejoin="round" fill="white" fill-opacity="1"/>
<!-- !right !both --><path d="M348.175 279.375 L348.175 320.625" stroke-width="0.5" stroke="black" stroke-linejoin="round" fill="white" fill-opacity="1"/>
<!-- !left !both --><path d="M216.825 279.375 L216.825 320.625" stroke-width="0.5" stroke="black" stroke-linejoin="round" fill="white" fill-opacity="1"/>
<!-- DEFAULT FINISH: knurled --><path d="M216.875 279.375 L348.125 279.375 L348.125 320.625 L216.875 320.625 Z" stroke-width="0.5" stroke="black" fill="url(#knurled)"/>


<!-- renderSideComponent: body -->


<!-- renderPart: hexagonal -->
<path d="M348.075 279.375 L679.425 279.375 L679.425 320.625 L348.075 320.625 L348.075 279.375" stroke-width="0" stroke="none" stroke-linejoin="round" fill="white" fill-opacity="1"/>
<path d="M348.075 279.375 L679.425 279.375 M679.425 320.625 L348.075 320.625" stroke-width="0.5" stroke="black" stroke-linejoin="round" fill="white" fill-opacity="1"/>
<!-- !right !both --><path d="M679.425 279.375 L679.425 320.625" stroke-width="0.5" stroke="black" stroke-linejoin="round" fill="white" fill-opacity="1"/>
<!-- !left !both --><path d="M348.075 279.375 L348.075 320.625" stroke-width="0.5" stroke="black" stroke-linejoin="round" fill="white" fill-opacity="1"/>
<line x1="348.125" y1="300" x2="679.375" y2="300" stroke-width="1.5" stroke="gray" fill="gray" stroke-opacity="1.0"/>
<line x1="348.125" y1="300" x2="679.375" y2="300" stroke-width="0.5" stroke="black" fill="none" stroke-opacity="0.5"/>


<!-- renderSideComponent: clip -->
<path d="M521.5 266.5 Q544.375 289.75 554.375 264.25 Z" stroke-width="4" stroke="black" fill="dimgray" stroke-linecap="round" />
<line x1="519.375" y1="264.75" x2="686.875" y2="259.75" stroke-width="5" stroke="black" fill="dimgray" stroke-linecap="round" />
<line x1="686.875" y1="261" x2="709.375" y2="264.75" stroke-width="4" stroke="black" fill="dimgray" stroke-linecap="round" />
<path d="M709.375 264.75 Q741.875 269.75 709.375 277.25" stroke-width="4" stroke="black" fill="none" stroke-linecap="round" />


<!-- renderPart: cylinder -->
<path d="M679.325 276.25 L711.925 276.25 L711.925 323.75 L679.325 323.75 L679.325 276.25" stroke-width="0" stroke="none" stroke-linejoin="round" fill="white" fill-opacity="1"/>
<path d="M679.325 276.25 L711.925 276.25 M711.925 323.75 L679.325 323.75" stroke-width="0.5" stroke="black" stroke-linejoin="round" fill="white" fill-opacity="1"/>
<!-- !right !both --><path d="M711.925 276.25 L711.925 323.75" stroke-width="0.5" stroke="black" stroke-linejoin="round" fill="white" fill-opacity="1"/>
<!-- !left !both --><path d="M679.325 276.25 L679.325 323.75" stroke-width="0.5" stroke="black" stroke-linejoin="round" fill="white" fill-opacity="1"/>
<path d="M521.5 266.5 Q544.375 288.75 554.375 264.25 Z" stroke-width="3" stroke="white" fill="white" stroke-linecap="round" />
<rect x="521.5" y="266.5" width="35" height="-14.5" stroke-width="3" stroke="white" fill="white" stroke-linecap="round" />
<line x1="519.375" y1="264.75" x2="686.875" y2="259.75" stroke-width="4" stroke="white" fill="white" stroke-linecap="round" />
<line x1="686.875" y1="261" x2="709.375" y2="264.75" stroke-width="3" stroke="white" fill="white" stroke-linecap="round" />
<path d="M709.375 264.75 Q741.875 269.75 709.375 277.25" stroke-width="3" stroke="white" fill="none" stroke-linecap="round" />


<!-- renderSideComponent: tail -->


<!-- renderPart: cylinder -->
<path d="M711.825 279.375 L734.425 279.375 L734.425 320.625 L711.825 320.625 L711.825 279.375" stroke-width="0" stroke="none" stroke-linejoin="round" fill="white" fill-opacity="1"/>
<path d="M711.825 279.375 L734.425 279.375 M734.425 320.625 L711.825 320.625" stroke-width="0.5" stroke="black" stroke-linejoin="round" fill="white" fill-opacity="1"/>
<!-- !right !both --><path d="M734.425 279.375 L734.425 320.625" stroke-width="0.5" stroke="black" stroke-linejoin="round" fill="white" fill-opacity="1"/>
<!-- !left !both --><path d="M711.825 279.375 L711.825 320.625" stroke-width="0.5" stroke="black" stroke-linejoin="round" fill="white" fill-opacity="1"/>


<!-- renderPart: cylinder -->
<path d="M734.325 279.375 L738.175 279.375 L738.175 320.625 L734.325 320.625 L734.325 279.375" stroke-width="0" stroke="none" stroke-linejoin="round" fill="white" fill-opacity="1"/>
<path d="M734.325 279.375 L738.175 279.375 M738.175 320.625 L734.325 320.625" stroke-width="0.5" stroke="black" stroke-linejoin="round" fill="white" fill-opacity="1"/>
<!-- !right !both --><path d="M738.175 279.375 L738.175 320.625" stroke-width="0.5" stroke="black" stroke-linejoin="round" fill="white" fill-opacity="1"/>
<!-- !left !both --><path d="M734.325 279.375 L734.325 320.625" stroke-width="0.5" stroke="black" stroke-linejoin="round" fill="white" fill-opacity="1"/>


<!-- renderSideComponent: indicator -->


<!-- renderPart: cylinder -->
<path d="M738.075 279.375 L785.675 279.375 L785.675 320.625 L738.075 320.625 L738.075 279.375" stroke-width="0" stroke="none" stroke-linejoin="round" fill="white" fill-opacity="1"/>
<path d="M738.075 279.375 L785.675 279.375 M785.675 320.625 L738.075 320.625" stroke-width="0.5" stroke="black" stroke-linejoin="round" fill="white" fill-opacity="1"/>
<!-- !right !both --><path d="M785.675 279.375 L785.675 320.625" stroke-width="0.5" stroke="black" stroke-linejoin="round" fill="white" fill-opacity="1"/>
<!-- !left !both --><path d="M738.075 279.375 L738.075 320.625" stroke-width="0.5" stroke="black" stroke-linejoin="round" fill="white" fill-opacity="1"/>
<!-- DEFAULT FINISH: knurled --><path d="M738.125 279.375 L785.625 279.375 L785.625 320.625 L738.125 320.625 Z" stroke-width="0.5" stroke="black" fill="url(#knurled)"/>
<rect x="748.125" y="289.6875" width="27.5" height="20.625" rx="3" ry="3" stroke-width="1" stroke="black" fill="white"/>
<text x="761.875" y="300" text-anchor="middle" dominant-baseline="central"><tspan stroke="dimgray" stroke-width="0.5" font-family="sans-serif" fill="black" textLength="{this.width * 5 - 24}" > HB</tspan></text>

<!-- renderSideComponent: foot -->


<!-- renderPart: cylinder -->
<path d="M785.575 280.625 L796.925 280.625 L796.925 319.375 L785.575 319.375 L785.575 280.625" stroke-width="0" stroke="none" stroke-linejoin="round" fill="white" fill-opacity="1"/>
<path d="M785.575 280.625 L796.925 280.625 M796.925 319.375 L785.575 319.375" stroke-width="0.5" stroke="black" stroke-linejoin="round" fill="white" fill-opacity="1"/>
<!-- !right !both --><path d="M796.925 280.625 L796.925 319.375" stroke-width="0.5" stroke="black" stroke-linejoin="round" fill="white" fill-opacity="1"/>
<!-- !left !both --><path d="M785.575 280.625 L785.575 319.375" stroke-width="0.5" stroke="black" stroke-linejoin="round" fill="white" fill-opacity="1"/>


<!-- renderSideComponent: cap -->


<!-- renderPart: cylinder -->
<path d="M796.825 286.25 L849.425 286.25 L849.425 313.75 L796.825 313.75 L796.825 286.25" stroke-width="0" stroke="none" stroke-linejoin="round" fill="white" fill-opacity="1"/>
<path d="M796.825 286.25 L849.425 286.25 M849.425 313.75 L796.825 313.75" stroke-width="0.5" stroke="black" stroke-linejoin="round" fill="white" fill-opacity="1"/>
<!-- !right !both --><path d="M849.425 286.25 L849.425 313.75" stroke-width="0.5" stroke="black" stroke-linejoin="round" fill="white" fill-opacity="1"/>
<!-- !left !both --><path d="M796.825 286.25 L796.825 313.75" stroke-width="0.5" stroke="black" stroke-linejoin="round" fill="white" fill-opacity="1"/>


<!-- renderPart: convex -->
<path d="M849.375 286.25 Q860.625 300 849.375 313.75" stroke-width="0.5" stroke="black" stroke-linejoin="round" fill="white" fill-opacity="1"/>
<line x1="141.875" y1="205.25" x2="141.875" y2="227.25" stroke="black" stroke-width="1" />
<line x1="141.875" y1="216.25" x2="216.875" y2="216.25" stroke="black" stroke-width="1" />
<line x1="216.875" y1="205.25" x2="216.875" y2="227.25" stroke="black" stroke-width="1" />
<text x="179.375" y="197.25" font-size="1.2em" font-weight="bold" text-anchor="middle" dominant-baseline="central" fill="black"><tspan x="179.375" dy="0">15.00 mm</tspan></text>
<line x1="141.875" y1="205.25" x2="141.875" y2="227.25" stroke="black" stroke-width="1" />
<line x1="141.875" y1="216.25" x2="216.875" y2="216.25" stroke="black" stroke-width="1" />
<line x1="216.875" y1="205.25" x2="216.875" y2="227.25" stroke="black" stroke-width="1" />
<text x="179.375" y="235.25" font-size="1.2em" font-weight="bold" text-anchor="middle" dominant-baseline="central" fill="black"><tspan x="179.375" dy="0">tip</tspan></text>
<line x1="216.875" y1="205.25" x2="216.875" y2="227.25" stroke="black" stroke-width="1" />
<line x1="216.875" y1="216.25" x2="796.875" y2="216.25" stroke="black" stroke-width="1" />
<line x1="796.875" y1="205.25" x2="796.875" y2="227.25" stroke="black" stroke-width="1" />
<text x="506.875" y="197.25" font-size="1.2em" font-weight="bold" text-anchor="middle" dominant-baseline="central" fill="black"><tspan x="506.875" dy="0">116.00 mm</tspan></text>
<line x1="216.875" y1="205.25" x2="216.875" y2="227.25" stroke="black" stroke-width="1" />
<line x1="216.875" y1="216.25" x2="796.875" y2="216.25" stroke="black" stroke-width="1" />
<line x1="796.875" y1="205.25" x2="796.875" y2="227.25" stroke="black" stroke-width="1" />
<text x="506.875" y="235.25" font-size="1.2em" font-weight="bold" text-anchor="middle" dominant-baseline="central" fill="black"><tspan x="506.875" dy="0">body</tspan></text>
<line x1="796.875" y1="205.25" x2="796.875" y2="227.25" stroke="black" stroke-width="1" />
<line x1="796.875" y1="216.25" x2="858.125" y2="216.25" stroke="black" stroke-width="1" />
<line x1="858.125" y1="205.25" x2="858.125" y2="227.25" stroke="black" stroke-width="1" />
<text x="827.5" y="197.25" font-size="1.2em" font-weight="bold" text-anchor="middle" dominant-baseline="central" fill="black"><tspan x="827.5" dy="0">12.25 mm</tspan></text>
<line x1="796.875" y1="205.25" x2="796.875" y2="227.25" stroke="black" stroke-width="1" />
<line x1="796.875" y1="216.25" x2="858.125" y2="216.25" stroke="black" stroke-width="1" />
<line x1="858.125" y1="205.25" x2="858.125" y2="227.25" stroke="black" stroke-width="1" />
<text x="827.5" y="235.25" font-size="1.2em" font-weight="bold" text-anchor="middle" dominant-baseline="central" fill="black"><tspan x="827.5" dy="0">cap</tspan></text>
<line x1="141.875" y1="402.75" x2="141.875" y2="424.75" stroke="black" stroke-width="1" />
<line x1="141.875" y1="413.75" x2="858.125" y2="413.75" stroke="black" stroke-width="1" />
<line x1="858.125" y1="402.75" x2="858.125" y2="424.75" stroke="black" stroke-width="1" />
<text x="500" y="432.75" font-size="1.2em" font-weight="bold" text-anchor="middle" dominant-baseline="central" fill="black"><tspan x="500" dy="0">143.25 mm</tspan></text>
<line x1="141.875" y1="402.75" x2="141.875" y2="424.75" stroke="black" stroke-width="1" />
<line x1="141.875" y1="413.75" x2="858.125" y2="413.75" stroke="black" stroke-width="1" />
<line x1="858.125" y1="402.75" x2="858.125" y2="424.75" stroke="black" stroke-width="1" />
<text x="500" y="394.75" font-size="1.2em" font-weight="bold" text-anchor="middle" dominant-baseline="central" fill="black"><tspan x="500" dy="0">Total Length</tspan></text>
<line x1="519.375" y1="342.75" x2="519.375" y2="364.75" stroke="black" stroke-width="1" />
<line x1="519.375" y1="353.75" x2="726.875" y2="353.75" stroke="black" stroke-width="1" />
<line x1="726.875" y1="342.75" x2="726.875" y2="364.75" stroke="black" stroke-width="1" />
<text x="623.125" y="334.75" font-size="1.2em" font-weight="bold" text-anchor="middle" dominant-baseline="central" fill="black"><tspan x="623.125" dy="0">41.50 mm</tspan></text>
<line x1="519.375" y1="342.75" x2="519.375" y2="364.75" stroke="black" stroke-width="1" />
<line x1="519.375" y1="353.75" x2="726.875" y2="353.75" stroke="black" stroke-width="1" />
<line x1="726.875" y1="342.75" x2="726.875" y2="364.75" stroke="black" stroke-width="1" />
<text x="623.125" y="372.75" font-size="1.2em" font-weight="bold" text-anchor="middle" dominant-baseline="central" fill="black"><tspan x="623.125" dy="0">clip</tspan></text>
<line x1="216.875" y1="342.75" x2="216.875" y2="364.75" stroke="black" stroke-width="1" />
<line x1="216.875" y1="353.75" x2="348.125" y2="353.75" stroke="black" stroke-width="1" />
<line x1="348.125" y1="342.75" x2="348.125" y2="364.75" stroke="black" stroke-width="1" />
<text x="282.5" y="334.75" font-size="1.2em" font-weight="bold" text-anchor="middle" dominant-baseline="central" fill="black"><tspan x="282.5" dy="0">26.25 mm</tspan></text>
<line x1="216.875" y1="342.75" x2="216.875" y2="364.75" stroke="black" stroke-width="1" />
<line x1="216.875" y1="353.75" x2="348.125" y2="353.75" stroke="black" stroke-width="1" />
<line x1="348.125" y1="342.75" x2="348.125" y2="364.75" stroke="black" stroke-width="1" />
<text x="282.5" y="372.75" font-size="1.2em" font-weight="bold" text-anchor="middle" dominant-baseline="central" fill="black"><tspan x="282.5" dy="0">grip</tspan></text>
<line x1="414" y1="524" x2="414" y2="562" stroke="black" stroke-linecap="round"  stroke-width="2" />
<line x1="240" y1="540" x2="414" y2="540" stroke-linecap="round" stroke="black"  stroke-width="2" />
<line x1="246" y1="544" x2="414" y2="544" stroke-linecap="round" stroke="black"  stroke-width="2" />
<text x="500" y="540" font-size="2.4em" font-weight="bold" text-anchor="middle" dominant-baseline="central">Variants</text>
<line x1="586" y1="540" x2="760" y2="540" stroke-linecap="round" stroke="black"  stroke-width="2" />
<line x1="586" y1="544" x2="754" y2="544" stroke-linecap="round" stroke="black"  stroke-width="2" />
<line x1="586" y1="524" x2="586" y2="562" stroke="black" stroke-linecap="round"  stroke-width="2" />


<!-- renderSideComponent: jaws -->


<!-- renderPart: cone -->
<path d="M141.825 629.375 L146.925 626.875 L146.925 653.125 L141.825 650.625 L141.825 629.375" stroke-width="0" stroke="none" stroke-linejoin="round" fill="silver" fill-opacity="1"/>
<path d="M141.825 629.375 L146.925 626.875 M146.925 653.125 L141.825 650.625" stroke-width="0.5" stroke="black" stroke-linejoin="round" fill="silver" fill-opacity="1"/>
<!-- !right !both --><path d="M146.925 626.875 L146.925 653.125" stroke-width="0.5" stroke="black" stroke-linejoin="round" fill="silver" fill-opacity="1"/>
<!-- !left !both --><path d="M141.825 629.375 L141.825 650.625" stroke-width="0.5" stroke="black" stroke-linejoin="round" fill="silver" fill-opacity="1"/>


<!-- renderPart: cylinder -->
<path d="M146.825 626.875 L156.925 629.375 L156.925 650.625 L146.825 653.125 L146.825 626.875" stroke-width="0" stroke="none" stroke-linejoin="round" fill="silver" fill-opacity="1"/>
<path d="M146.825 626.875 L156.925 629.375 M156.925 650.625 L146.825 653.125" stroke-width="0.5" stroke="black" stroke-linejoin="round" fill="silver" fill-opacity="1"/>
<!-- !right !both --><path d="M156.925 629.375 L156.925 650.625" stroke-width="0.5" stroke="black" stroke-linejoin="round" fill="silver" fill-opacity="1"/>
<!-- !left !both --><path d="M146.825 626.875 L146.825 653.125" stroke-width="0.5" stroke="black" stroke-linejoin="round" fill="silver" fill-opacity="1"/>


<!-- renderSideComponent: tip -->


<!-- renderPart: cone -->
<path d="M156.825 626.875 L216.925 621.875 L216.925 658.125 L156.825 653.125 L156.825 626.875" stroke-width="0" stroke="none" stroke-linejoin="round" fill="silver" fill-opacity="1"/>
<path d="M156.825 626.875 L216.925 621.875 M216.925 658.125 L156.825 653.125" stroke-width="0.5" stroke="black" stroke-linejoin="round" fill="silver" fill-opacity="1"/>
<!-- !right !both --><path d="M216.925 621.875 L216.925 658.125" stroke-width="0.5" stroke="black" stroke-linejoin="round" fill="silver" fill-opacity="1"/>
<!-- !left !both --><path d="M156.825 626.875 L156.825 653.125" stroke-width="0.5" stroke="black" stroke-linejoin="round" fill="silver" fill-opacity="1"/>


<!-- renderSideComponent: grip -->


<!-- renderPart: cylinder -->
<path d="M216.825 619.375 L348.175 619.375 L348.175 660.625 L216.825 660.625 L216.825 619.375" stroke-width="0" stroke="none" stroke-linejoin="round" fill="silver" fill-opacity="1"/>
<path d="M216.825 619.375 L348.175 619.375 M348.175 660.625 L216.825 660.625" stroke-width="0.5" stroke="black" stroke-linejoin="round" fill="silver" fill-opacity="1"/>
<!-- !right !both --><path d="M348.175 619.375 L348.175 660.625" stroke-width="0.5" stroke="black" stroke-linejoin="round" fill="silver" fill-opacity="1"/>
<!-- !left !both --><path d="M216.825 619.375 L216.825 660.625" stroke-width="0.5" stroke="black" stroke-linejoin="round" fill="silver" fill-opacity="1"/>
<!-- DEFAULT FINISH: knurled --><path d="M216.875 619.375 L348.125 619.375 L348.125 660.625 L216.875 660.625 Z" stroke-width="0.5" stroke="black" fill="url(#knurled)"/>


<!-- renderSideComponent: body -->


<!-- renderPart: hexagonal -->
<path d="M348.075 619.375 L679.425 619.375 L679.425 660.625 L348.075 660.625 L348.075 619.375" stroke-width="0" stroke="none" stroke-linejoin="round" fill="black" fill-opacity="1"/>
<path d="M348.075 619.375 L679.425 619.375 M679.425 660.625 L348.075 660.625" stroke-width="0.5" stroke="dimgray" stroke-linejoin="round" fill="black" fill-opacity="1"/>
<!-- !right !both --><path d="M679.425 619.375 L679.425 660.625" stroke-width="0.5" stroke="dimgray" stroke-linejoin="round" fill="black" fill-opacity="1"/>
<!-- !left !both --><path d="M348.075 619.375 L348.075 660.625" stroke-width="0.5" stroke="dimgray" stroke-linejoin="round" fill="black" fill-opacity="1"/>
<line x1="348.125" y1="640" x2="679.375" y2="640" stroke-width="1.5" stroke="gray" fill="gray" stroke-opacity="1.0"/>
<line x1="348.125" y1="640" x2="679.375" y2="640" stroke-width="0.5" stroke="black" fill="none" stroke-opacity="0.5"/>


<!-- renderSideComponent: clip -->
<path d="M521.5 606.5 Q544.375 629.75 554.375 604.25 Z" stroke-width="4" stroke="black" fill="dimgray" stroke-linecap="round" />
<line x1="519.375" y1="604.75" x2="686.875" y2="599.75" stroke-width="5" stroke="black" fill="dimgray" stroke-linecap="round" />
<line x1="686.875" y1="601" x2="709.375" y2="604.75" stroke-width="4" stroke="black" fill="dimgray" stroke-linecap="round" />
<path d="M709.375 604.75 Q741.875 609.75 709.375 617.25" stroke-width="4" stroke="black" fill="none" stroke-linecap="round" />


<!-- renderPart: cylinder -->
<path d="M679.325 616.25 L711.925 616.25 L711.925 663.75 L679.325 663.75 L679.325 616.25" stroke-width="0" stroke="none" stroke-linejoin="round" fill="silver" fill-opacity="1"/>
<path d="M679.325 616.25 L711.925 616.25 M711.925 663.75 L679.325 663.75" stroke-width="0.5" stroke="black" stroke-linejoin="round" fill="silver" fill-opacity="1"/>
<!-- !right !both --><path d="M711.925 616.25 L711.925 663.75" stroke-width="0.5" stroke="black" stroke-linejoin="round" fill="silver" fill-opacity="1"/>
<!-- !left !both --><path d="M679.325 616.25 L679.325 663.75" stroke-width="0.5" stroke="black" stroke-linejoin="round" fill="silver" fill-opacity="1"/>
<path d="M521.5 606.5 Q544.375 628.75 554.375 604.25 Z" stroke-width="3" stroke="silver" fill="silver" stroke-linecap="round" />
<rect x="521.5" y="606.5" width="35" height="-14.5" stroke-width="3" stroke="silver" fill="silver" stroke-linecap="round" />
<line x1="519.375" y1="604.75" x2="686.875" y2="599.75" stroke-width="4" stroke="silver" fill="silver" stroke-linecap="round" />
<line x1="686.875" y1="601" x2="709.375" y2="604.75" stroke-width="3" stroke="silver" fill="silver" stroke-linecap="round" />
<path d="M709.375 604.75 Q741.875 609.75 709.375 617.25" stroke-width="3" stroke="silver" fill="none" stroke-linecap="round" />


<!-- renderSideComponent: tail -->


<!-- renderPart: cylinder -->
<path d="M711.825 619.375 L734.425 619.375 L734.425 660.625 L711.825 660.625 L711.825 619.375" stroke-width="0" stroke="none" stroke-linejoin="round" fill="black" fill-opacity="1"/>
<path d="M711.825 619.375 L734.425 619.375 M734.425 660.625 L711.825 660.625" stroke-width="0.5" stroke="dimgray" stroke-linejoin="round" fill="black" fill-opacity="1"/>
<!-- !right !both --><path d="M734.425 619.375 L734.425 660.625" stroke-width="0.5" stroke="dimgray" stroke-linejoin="round" fill="black" fill-opacity="1"/>
<!-- !left !both --><path d="M711.825 619.375 L711.825 660.625" stroke-width="0.5" stroke="dimgray" stroke-linejoin="round" fill="black" fill-opacity="1"/>


<!-- renderPart: cylinder -->
<path d="M734.325 619.375 L738.175 619.375 L738.175 660.625 L734.325 660.625 L734.325 619.375" stroke-width="0" stroke="none" stroke-linejoin="round" fill="red" fill-opacity="1"/>
<path d="M734.325 619.375 L738.175 619.375 M738.175 660.625 L734.325 660.625" stroke-width="0.5" stroke="black" stroke-linejoin="round" fill="red" fill-opacity="1"/>
<!-- !right !both --><path d="M738.175 619.375 L738.175 660.625" stroke-width="0.5" stroke="black" stroke-linejoin="round" fill="red" fill-opacity="1"/>
<!-- !left !both --><path d="M734.325 619.375 L734.325 660.625" stroke-width="0.5" stroke="black" stroke-linejoin="round" fill="red" fill-opacity="1"/>


<!-- renderSideComponent: indicator -->


<!-- renderPart: cylinder -->
<path d="M738.075 619.375 L785.675 619.375 L785.675 660.625 L738.075 660.625 L738.075 619.375" stroke-width="0" stroke="none" stroke-linejoin="round" fill="silver" fill-opacity="1"/>
<path d="M738.075 619.375 L785.675 619.375 M785.675 660.625 L738.075 660.625" stroke-width="0.5" stroke="black" stroke-linejoin="round" fill="silver" fill-opacity="1"/>
<!-- !right !both --><path d="M785.675 619.375 L785.675 660.625" stroke-width="0.5" stroke="black" stroke-linejoin="round" fill="silver" fill-opacity="1"/>
<!-- !left !both --><path d="M738.075 619.375 L738.075 660.625" stroke-width="0.5" stroke="black" stroke-linejoin="round" fill="silver" fill-opacity="1"/>
<!-- DEFAULT FINISH: knurled --><path d="M738.125 619.375 L785.625 619.375 L785.625 660.625 L738.125 660.625 Z" stroke-width="0.5" stroke="black" fill="url(#knurled)"/>
<rect x="748.125" y="629.6875" width="27.5" height="20.625" rx="3" ry="3" stroke-width="1" stroke="black" fill="silver"/>
<text x="761.875" y="640" text-anchor="middle" dominant-baseline="central"><tspan stroke="dimgray" stroke-width="0.5" font-family="sans-serif" fill="black" textLength="{this.width * 5 - 24}" > HB</tspan></text>

<!-- renderSideComponent: foot -->


<!-- renderPart: cylinder -->
<path d="M785.575 620.625 L796.925 620.625 L796.925 659.375 L785.575 659.375 L785.575 620.625" stroke-width="0" stroke="none" stroke-linejoin="round" fill="silver" fill-opacity="1"/>
<path d="M785.575 620.625 L796.925 620.625 M796.925 659.375 L785.575 659.375" stroke-width="0.5" stroke="black" stroke-linejoin="round" fill="silver" fill-opacity="1"/>
<!-- !right !both --><path d="M796.925 620.625 L796.925 659.375" stroke-width="0.5" stroke="black" stroke-linejoin="round" fill="silver" fill-opacity="1"/>
<!-- !left !both --><path d="M785.575 620.625 L785.575 659.375" stroke-width="0.5" stroke="black" stroke-linejoin="round" fill="silver" fill-opacity="1"/>


<!-- renderSideComponent: cap -->


<!-- renderPart: cylinder -->
<path d="M796.825 626.25 L849.425 626.25 L849.425 653.75 L796.825 653.75 L796.825 626.25" stroke-width="0" stroke="none" stroke-linejoin="round" fill="silver" fill-opacity="1"/>
<path d="M796.825 626.25 L849.425 626.25 M849.425 653.75 L796.825 653.75" stroke-width="0.5" stroke="black" stroke-linejoin="round" fill="silver" fill-opacity="1"/>
<!-- !right !both --><path d="M849.425 626.25 L849.425 653.75" stroke-width="0.5" stroke="black" stroke-linejoin="round" fill="silver" fill-opacity="1"/>
<!-- !left !both --><path d="M796.825 626.25 L796.825 653.75" stroke-width="0.5" stroke="black" stroke-linejoin="round" fill="silver" fill-opacity="1"/>


<!-- renderPart: convex -->
<path d="M849.375 626.25 Q860.625 640 849.375 653.75" stroke-width="0.5" stroke="black" stroke-linejoin="round" fill="silver" fill-opacity="1"/>
<text x="500" y="690" font-size="1.2em" font-weight="bold" text-anchor="middle" dominant-baseline="central">black</text>
</g><text x="50%" y="740" font-size="1.1em" font-weight="bold" text-anchor="middle" dominant-baseline="middle">Copyright (c) // Synapticloop // The Mechanical Pencil Database (tmpdb)</text>
<text x="50%" y="760" font-size="1.1em" font-weight="bold" text-anchor="middle" dominant-baseline="middle">Licensed under Creative Commons Attribution-NonCommercial-ShareAlike 4.0 International</text>
<text x="990" y="770" font-size="0.5em" font-weight="bold" text-anchor="end" dominant-baseline="middle">SVGTechnicalGroupedRenderer</text>
</svg>