<svg xmlns="http://www.w3.org/2000/svg" width="1500" height="800">
 <pattern id="knurled-large" patternUnits="userSpaceOnUse" width="12" height="12">
<path stroke="dimgray" stroke-linecap="round" stroke-width="1" d="M 6,6 L 12,12"/>
<path stroke="dimgray" stroke-linecap="round" stroke-width="1" d="M 6,6 L 0,12"/>
<path stroke="gray" stroke-linecap="round" stroke-width="1" d="M 6,6 L 12,0" />
<path stroke="gray" stroke-linecap="round" stroke-width="1" d="M 6,6 L 0,0" />
</pattern><pattern id="knurled-small" patternUnits="userSpaceOnUse" width="4" height="4">
<path stroke="dimgray" stroke-linecap="round" stroke-width="1" d="M 2,2 L 4,4"/>
<path stroke="dimgray" stroke-linecap="round" stroke-width="1" d="M 2,2 L 0,4"/>
<path stroke="gray" stroke-linecap="round" stroke-width="1" d="M 2,2 L 4,0" />
<path stroke="gray" stroke-linecap="round" stroke-width="1" d="M 2,2 L 0,0" />
</pattern><pattern id="knurled" patternUnits="userSpaceOnUse" width="8" height="8">
<path stroke="dimgray" stroke-linecap="round" stroke-width="1" d="M 4,4 L 8,8"/>
<path stroke="dimgray" stroke-linecap="round" stroke-width="1" d="M 4,4 L 0,8"/>
<path stroke="gray" stroke-linecap="round" stroke-width="1" d="M 4,4 L 8,0" />
<path stroke="gray" stroke-linecap="round" stroke-width="1" d="M 4,4 L 0,0" />
</pattern><pattern id="lined" patternUnits="userSpaceOnUse" width="3" height="3">
<path stroke="dimgray" stroke-linecap="round" stroke-width="1" d="M 0,0 L 3,0"/>
</pattern><pattern id="ridged" patternUnits="userSpaceOnUse" width="3" height="3">
<path stroke="dimgray" stroke-linecap="round" stroke-width="1" d="M 0,0 L 0,3"/>
</pattern><pattern id="spring" patternUnits="userSpaceOnUse" width="8" height="60">
<path stroke="dimgray" stroke-linecap="round" stroke-width="2" d="M 1,1 L 8,60"/>
<path stroke="white" stroke-linecap="round" stroke-width="1" d="M 1,1 L 8,60"/>
</pattern><rect x="0" y="0" width="1500" height="800" fill="white" stroke="black" stroke-width="4" />
<rect x="2" y="2" width="1496" height="796" fill="white" stroke="dimgray" stroke-width="1" />
<g transform="rotate(0 0 0)">
<line x1="40" y1="500" x2="1460" y2="500" stroke-linecap="round" stroke="#5f5f5f" stroke-dasharray="2" stroke-width="1" />
<line x1="20" y1="500" x2="60" y2="500" stroke-linecap="round" stroke="#000000"  stroke-width="1" />
<line x1="40" y1="480" x2="40" y2="520" stroke="#000000" stroke-linecap="round"  stroke-width="1" />
<circle r="10" cx="40" cy="500" fill="white" fill-opacity="0" stroke="#000000" stroke-width="1"  />
<line x1="1440" y1="500" x2="1480" y2="500" stroke-linecap="round" stroke="#000000"  stroke-width="1" />
<line x1="1460" y1="480" x2="1460" y2="520" stroke="#000000" stroke-linecap="round"  stroke-width="1" />
<circle r="10" cx="1460" cy="500" fill="white" fill-opacity="0" stroke="#000000" stroke-width="1"  />
<line x1="750" y1="90" x2="750" y2="710" stroke="#5f5f5f" stroke-linecap="round" stroke-dasharray="2" stroke-width="1" />
<line x1="730" y1="90" x2="770" y2="90" stroke-linecap="round" stroke="#000000"  stroke-width="1" />
<line x1="750" y1="70" x2="750" y2="110" stroke="#000000" stroke-linecap="round"  stroke-width="1" />
<circle r="10" cx="750" cy="90" fill="white" fill-opacity="0" stroke="#000000" stroke-width="1"  />
<line x1="730" y1="710" x2="770" y2="710" stroke-linecap="round" stroke="#000000"  stroke-width="1" />
<line x1="750" y1="690" x2="750" y2="730" stroke="#000000" stroke-linecap="round"  stroke-width="1" />
<circle r="10" cx="750" cy="710" fill="white" fill-opacity="0" stroke="#000000" stroke-width="1"  />
<line x1="160" y1="150" x2="160" y2="710" stroke="#5f5f5f" stroke-linecap="round" stroke-dasharray="2" stroke-width="1" />
<line x1="140" y1="150" x2="180" y2="150" stroke-linecap="round" stroke="#000000"  stroke-width="1" />
<line x1="160" y1="130" x2="160" y2="170" stroke="#000000" stroke-linecap="round"  stroke-width="1" />
<circle r="10" cx="160" cy="150" fill="white" fill-opacity="0" stroke="#000000" stroke-width="1"  />
<line x1="140" y1="710" x2="180" y2="710" stroke-linecap="round" stroke="#000000"  stroke-width="1" />
<line x1="160" y1="690" x2="160" y2="730" stroke="#000000" stroke-linecap="round"  stroke-width="1" />
<circle r="10" cx="160" cy="710" fill="white" fill-opacity="0" stroke="#000000" stroke-width="1"  />
<line x1="1400" y1="150" x2="1400" y2="710" stroke="#5f5f5f" stroke-linecap="round" stroke-dasharray="2" stroke-width="1" />
<line x1="1380" y1="150" x2="1420" y2="150" stroke-linecap="round" stroke="#000000"  stroke-width="1" />
<line x1="1400" y1="130" x2="1400" y2="170" stroke="#000000" stroke-linecap="round"  stroke-width="1" />
<circle r="10" cx="1400" cy="150" fill="white" fill-opacity="0" stroke="#000000" stroke-width="1"  />
<line x1="1380" y1="710" x2="1420" y2="710" stroke-linecap="round" stroke="#000000"  stroke-width="1" />
<line x1="1400" y1="690" x2="1400" y2="730" stroke="#000000" stroke-linecap="round"  stroke-width="1" />
<circle r="10" cx="1400" cy="710" fill="white" fill-opacity="0" stroke="#000000" stroke-width="1"  />
<text x="30" y="50" font-size="2.0em" font-weight="bold"> Unbranded // Plastic Black (manomano.co.uk) (Model #: unknown)</text>
<text x="30" y="80" font-size="1.1em"> </text>
<text x="30" y="100" font-size="1.1em"> Lead size: 2 mm</text>
<text x="1480" y="30" font-size="1.6em" font-weight="bold" text-anchor="end" dominant-baseline="central">Colour variants of the body</text>
<rect x="1440" y="55" width="40" rx="50%" ry="50%" height="40" stroke="black" stroke-width="2" fill="black" fill-opacity="1"/>
<text x="1460" y="100" transform="rotate(-90, 1460, 100)" font-size="1.2em" font-weight="bold" text-anchor="end" dominant-baseline="central">black</text>
<text x="30" y="136" font-size="1.2em" font-weight="bold" text-anchor="start" dominant-baseline="central">Materials:</text>
<text x="50" y="156" font-size="1.2em" text-anchor="start" dominant-baseline="central"> - metal</text>
<text x="50" y="176" font-size="1.2em" text-anchor="start" dominant-baseline="central"> - plastic</text>
<text x="50" y="196" font-size="1.2em" text-anchor="start" dominant-baseline="central"> - rubber</text>
<line x1="100" y1="458.75" x2="1400" y2="458.75" stroke-linecap="round" stroke="#cfcfcf"  stroke-width="1" />
<line x1="160" y1="478.75" x2="1400" y2="478.75" stroke-linecap="round" stroke="#cfcfcf"  stroke-width="1" />
<line x1="150" y1="430" x2="150" y2="500" stroke="#cfcfcf" stroke-linecap="round"  stroke-width="1" />
<line x1="170" y1="430" x2="170" y2="500" stroke="#cfcfcf" stroke-linecap="round"  stroke-width="1" />
<line x1="160" y1="476.25" x2="1400" y2="476.25" stroke-linecap="round" stroke="#cfcfcf"  stroke-width="1" />
<line x1="100" y1="523.75" x2="1400" y2="523.75" stroke-linecap="round" stroke="#cfcfcf"  stroke-width="1" />
<line x1="136.18430139592795" y1="500" x2="136.18430139592795" y2="543.75" stroke="#cfcfcf" stroke-linecap="round"  stroke-width="1" />
<line x1="183.81569860407205" y1="500" x2="183.81569860407205" y2="543.75" stroke="#cfcfcf" stroke-linecap="round"  stroke-width="1" />
<line x1="395.625" y1="380" x2="395.625" y2="620" stroke="#cfcfcf" stroke-linecap="round"  stroke-width="1" />
<line x1="409.375" y1="380" x2="409.375" y2="620" stroke="#cfcfcf" stroke-linecap="round"  stroke-width="1" />
<line x1="470.625" y1="380" x2="470.625" y2="620" stroke="#cfcfcf" stroke-linecap="round"  stroke-width="1" />
<line x1="599.375" y1="380" x2="599.375" y2="620" stroke="#cfcfcf" stroke-linecap="round"  stroke-width="1" />
<line x1="929.375" y1="380" x2="929.375" y2="620" stroke="#cfcfcf" stroke-linecap="round"  stroke-width="1" />
<line x1="769.375" y1="420" x2="769.375" y2="580" stroke="#cfcfcf" stroke-linecap="round"  stroke-width="1" />
<line x1="976.875" y1="420" x2="976.875" y2="580" stroke="#cfcfcf" stroke-linecap="round"  stroke-width="1" />
<line x1="959.375" y1="380" x2="959.375" y2="620" stroke="#cfcfcf" stroke-linecap="round"  stroke-width="1" />
<line x1="985.625" y1="380" x2="985.625" y2="620" stroke="#cfcfcf" stroke-linecap="round"  stroke-width="1" />
<line x1="1033.125" y1="380" x2="1033.125" y2="620" stroke="#cfcfcf" stroke-linecap="round"  stroke-width="1" />
<line x1="1045.625" y1="380" x2="1045.625" y2="620" stroke="#cfcfcf" stroke-linecap="round"  stroke-width="1" />
<line x1="1104.375" y1="388.25" x2="1104.375" y2="596.25" stroke="#cfcfcf" stroke-linecap="round"  stroke-width="1" />
<text x="160" y="740" font-size="1.8em" font-weight="bold" text-anchor="middle" dominant-baseline="central">Front</text>
<text x="750" y="740" font-size="1.8em" font-weight="bold" text-anchor="middle" dominant-baseline="central">Side view</text>
<text x="1400" y="740" font-size="1.8em" font-weight="bold" text-anchor="middle" dominant-baseline="central">Back</text>
<line x1="150" y1="429" x2="150" y2="451" stroke="black" stroke-width="1" />
<line x1="150" y1="440" x2="170" y2="440" stroke="black" stroke-width="1" />
<line x1="170" y1="429" x2="170" y2="451" stroke="black" stroke-width="1" />
<text x="160" y="421" font-size="1.2em" font-weight="bold" text-anchor="middle" dominant-baseline="central" fill="black"><tspan x="160" dy="0">4.00 mm</tspan></text>
<line x1="211" y1="458.75" x2="233" y2="458.75" stroke="black" stroke-width="1" />
<line x1="222" y1="458.75" x2="222" y2="478.75" stroke="black" stroke-width="1" />
<line x1="211" y1="478.75" x2="233" y2="478.75" stroke="black" stroke-width="1" />
<text x="235" y="468.75" font-size="1.2em" font-weight="bold" text-anchor="start" dominant-baseline="central" fill="black">4.00 mm</text>
<line x1="199" y1="476.25" x2="221" y2="476.25" stroke="black" stroke-width="1" />
<line x1="210" y1="476.25" x2="210" y2="523.75" stroke="black" stroke-width="1" />
<line x1="199" y1="523.75" x2="221" y2="523.75" stroke="black" stroke-width="1" />
<text x="223" y="500" font-size="1.2em" font-weight="bold" text-anchor="start" dominant-baseline="central" fill="black">9.50 mm</text>
<line x1="99" y1="458.75" x2="121" y2="458.75" stroke="black" stroke-width="1" />
<line x1="110" y1="458.75" x2="110" y2="523.75" stroke="black" stroke-width="1" />
<line x1="99" y1="523.75" x2="121" y2="523.75" stroke="black" stroke-width="1" />
<text x="91" y="491.25" transform="rotate(-90, 91, 491.25)" font-size="1.2em" font-weight="bold" text-anchor="middle" dominant-baseline="central" fill="black">13 mm</text>
<line x1="136.18430139592795" y1="542.75" x2="136.18430139592795" y2="564.75" stroke="black" stroke-width="1" />
<line x1="136.18430139592795" y1="553.75" x2="183.81569860407205" y2="553.75" stroke="black" stroke-width="1" />
<line x1="183.81569860407205" y1="542.75" x2="183.81569860407205" y2="564.75" stroke="black" stroke-width="1" />
<text x="160" y="572.75" font-size="1.2em" font-weight="bold" text-anchor="middle" dominant-baseline="central" fill="black"><tspan x="160" dy="0">9.53 mm</tspan></text>
<line x1="395.625" y1="369" x2="395.625" y2="391" stroke="black" stroke-width="1" />
<line x1="395.625" y1="380" x2="409.375" y2="380" stroke="black" stroke-width="1" />
<line x1="409.375" y1="369" x2="409.375" y2="391" stroke="black" stroke-width="1" />
<text x="402.5" y="361" font-size="1.2em" transform="rotate(-90, 402.5, 361)" font-weight="bold" text-anchor="start" dominant-baseline="central" fill="black"><tspan x="402.5" dy="0">2.75 mm jaws</tspan></text>
<line x1="409.375" y1="369" x2="409.375" y2="391" stroke="black" stroke-width="1" />
<line x1="409.375" y1="380" x2="470.625" y2="380" stroke="black" stroke-width="1" />
<line x1="470.625" y1="369" x2="470.625" y2="391" stroke="black" stroke-width="1" />
<text x="440" y="361" font-size="1.2em" transform="rotate(-90, 428, 361)" font-weight="bold" text-anchor="start" dominant-baseline="central" fill="black"><tspan x="432" dy="0">12.25 mm</tspan><tspan x="432" dy="1em">tip</tspan></text>
<line x1="470.625" y1="369" x2="470.625" y2="391" stroke="black" stroke-width="1" />
<line x1="470.625" y1="380" x2="599.375" y2="380" stroke="black" stroke-width="1" />
<line x1="599.375" y1="369" x2="599.375" y2="391" stroke="black" stroke-width="1" />
<text x="535" y="361" font-size="1.2em" transform="rotate(-90, 523, 361)" font-weight="bold" text-anchor="start" dominant-baseline="central" fill="black"><tspan x="527" dy="0">25.75 mm</tspan><tspan x="527" dy="1em">grip</tspan></text>
<line x1="599.375" y1="369" x2="599.375" y2="391" stroke="black" stroke-width="1" />
<line x1="599.375" y1="380" x2="929.375" y2="380" stroke="black" stroke-width="1" />
<line x1="929.375" y1="369" x2="929.375" y2="391" stroke="black" stroke-width="1" />
<text x="764.375" y="361" font-size="1.2em" transform="rotate(-90, 752.375, 361)" font-weight="bold" text-anchor="start" dominant-baseline="central" fill="black"><tspan x="756.375" dy="0">66.00 mm</tspan><tspan x="756.375" dy="1em">body</tspan></text>
<line x1="929.375" y1="369" x2="929.375" y2="391" stroke="black" stroke-width="1" />
<line x1="929.375" y1="380" x2="959.375" y2="380" stroke="black" stroke-width="1" />
<line x1="959.375" y1="369" x2="959.375" y2="391" stroke="black" stroke-width="1" />
<text x="944.375" y="361" font-size="1.2em" transform="rotate(-90, 944.375, 361)" font-weight="bold" text-anchor="start" dominant-baseline="central" fill="black"><tspan x="944.375" dy="0">6.00 mm clip</tspan></text>
<line x1="769.375" y1="409" x2="769.375" y2="431" stroke="black" stroke-width="1" />
<line x1="769.375" y1="420" x2="976.875" y2="420" stroke="black" stroke-width="1" />
<line x1="976.875" y1="409" x2="976.875" y2="431" stroke="black" stroke-width="1" />
<text x="873.125" y="412" font-weight="bold" font-size="1.2em" stroke="white" stroke-width="0.25" text-anchor="middle" dominant-baseline="middle" fill="black"><tspan x="865.125" dy="0">41.50 mm</tspan><tspan x="865.125" dy="1em">clip (extra)</tspan></text>
<line x1="959.375" y1="369" x2="959.375" y2="391" stroke="black" stroke-width="1" />
<line x1="959.375" y1="380" x2="985.625" y2="380" stroke="black" stroke-width="1" />
<line x1="985.625" y1="369" x2="985.625" y2="391" stroke="black" stroke-width="1" />
<text x="972.5" y="361" font-size="1.2em" transform="rotate(-90, 972.5, 361)" font-weight="bold" text-anchor="start" dominant-baseline="central" fill="black"><tspan x="972.5" dy="0">5.25 mm tail</tspan></text>
<line x1="985.625" y1="369" x2="985.625" y2="391" stroke="black" stroke-width="1" />
<line x1="985.625" y1="380" x2="1033.125" y2="380" stroke="black" stroke-width="1" />
<line x1="1033.125" y1="369" x2="1033.125" y2="391" stroke="black" stroke-width="1" />
<text x="1009.375" y="361" font-size="1.2em" transform="rotate(-90, 997.375, 361)" font-weight="bold" text-anchor="start" dominant-baseline="central" fill="black"><tspan x="1001.375" dy="0">9.50 mm</tspan><tspan x="1001.375" dy="1em">indicator</tspan></text>
<line x1="1033.125" y1="369" x2="1033.125" y2="391" stroke="black" stroke-width="1" />
<line x1="1033.125" y1="380" x2="1045.625" y2="380" stroke="black" stroke-width="1" />
<line x1="1045.625" y1="369" x2="1045.625" y2="391" stroke="black" stroke-width="1" />
<text x="1039.375" y="361" font-size="1.2em" transform="rotate(-90, 1039.375, 361)" font-weight="bold" text-anchor="start" dominant-baseline="central" fill="black"><tspan x="1039.375" dy="0">2.50 mm foot</tspan></text>
<line x1="1045.625" y1="369" x2="1045.625" y2="391" stroke="black" stroke-width="1" />
<line x1="1045.625" y1="380" x2="1104.375" y2="380" stroke="black" stroke-width="1" />
<line x1="1104.375" y1="369" x2="1104.375" y2="391" stroke="black" stroke-width="1" />
<text x="1075" y="361" font-size="1.2em" transform="rotate(-90, 1063, 361)" font-weight="bold" text-anchor="start" dominant-baseline="central" fill="black"><tspan x="1067" dy="0">11.75 mm</tspan><tspan x="1067" dy="1em">cap</tspan></text>
<line x1="1299" y1="479.375" x2="1321" y2="479.375" stroke="black" stroke-width="1" />
<line x1="1310" y1="479.375" x2="1310" y2="520.625" stroke="black" stroke-width="1" />
<line x1="1299" y1="520.625" x2="1321" y2="520.625" stroke="black" stroke-width="1" />
<text x="1291" y="500" transform="rotate(-90, 1291, 500)" font-size="1.2em" font-weight="bold" text-anchor="middle" dominant-baseline="central" fill="black">8.25 mm</text>
<line x1="1299" y1="479.375" x2="1321" y2="479.375" stroke="black" stroke-width="1" />
<line x1="1310" y1="479.375" x2="1310" y2="520.625" stroke="black" stroke-width="1" />
<line x1="1299" y1="520.625" x2="1321" y2="520.625" stroke="black" stroke-width="1" />
<text x="1310" y="528.625" transform="rotate(-90, 1310, 528.625)" font-weight="bold" font-size="1.2em" text-anchor="end" dominant-baseline="middle" fill="black">grip</text>
<line x1="1339" y1="479.375" x2="1361" y2="479.375" stroke="black" stroke-width="1" />
<line x1="1350" y1="479.375" x2="1350" y2="520.625" stroke="black" stroke-width="1" />
<line x1="1339" y1="520.625" x2="1361" y2="520.625" stroke="black" stroke-width="1" />
<text x="1331" y="500" transform="rotate(-90, 1331, 500)" font-size="1.2em" font-weight="bold" text-anchor="middle" dominant-baseline="central" fill="black">8.25 mm</text>
<line x1="1339" y1="479.375" x2="1361" y2="479.375" stroke="black" stroke-width="1" />
<line x1="1350" y1="479.375" x2="1350" y2="520.625" stroke="black" stroke-width="1" />
<line x1="1339" y1="520.625" x2="1361" y2="520.625" stroke="black" stroke-width="1" />
<text x="1350" y="528.625" transform="rotate(-90, 1350, 528.625)" font-weight="bold" font-size="1.2em" text-anchor="end" dominant-baseline="middle" fill="black">body</text>
<line x1="395.625" y1="542.75" x2="395.625" y2="564.75" stroke="black" stroke-width="1" />
<line x1="395.625" y1="553.75" x2="1104.375" y2="553.75" stroke="black" stroke-width="1" />
<line x1="1104.375" y1="542.75" x2="1104.375" y2="564.75" stroke="black" stroke-width="1" />
<text x="750" y="553.75" font-weight="bold" font-size="1.2em" stroke="white" stroke-width="0.25" text-anchor="middle" dominant-baseline="middle" fill="black"><tspan x="750" dy="0">141.75 mm</tspan></text>
<line x1="395.625" y1="609" x2="395.625" y2="631" stroke="black" stroke-width="1" />
<line x1="395.625" y1="620" x2="409.375" y2="620" stroke="black" stroke-width="1" />
<line x1="409.375" y1="609" x2="409.375" y2="631" stroke="black" stroke-width="1" />
<text x="402.5" y="639" font-size="1.2em" transform="rotate(-90, 402.5, 639)"  text-anchor="end" dominant-baseline="middle" fill="black"><tspan x="402.5" dy="0">metal</tspan></text>
<line x1="409.375" y1="609" x2="409.375" y2="631" stroke="black" stroke-width="1" />
<line x1="409.375" y1="620" x2="470.625" y2="620" stroke="black" stroke-width="1" />
<line x1="470.625" y1="609" x2="470.625" y2="631" stroke="black" stroke-width="1" />
<text x="440" y="639" font-size="1.2em" transform="rotate(-90, 440, 639)"  text-anchor="end" dominant-baseline="middle" fill="black"><tspan x="440" dy="0">metal</tspan></text>
<line x1="470.625" y1="609" x2="470.625" y2="631" stroke="black" stroke-width="1" />
<line x1="470.625" y1="620" x2="599.375" y2="620" stroke="black" stroke-width="1" />
<line x1="599.375" y1="609" x2="599.375" y2="631" stroke="black" stroke-width="1" />
<text x="535" y="639" font-size="1.2em" transform="rotate(-90, 535, 639)"  text-anchor="end" dominant-baseline="middle" fill="black"><tspan x="535" dy="0">metal</tspan></text>
<line x1="599.375" y1="609" x2="599.375" y2="631" stroke="black" stroke-width="1" />
<line x1="599.375" y1="620" x2="929.375" y2="620" stroke="black" stroke-width="1" />
<line x1="929.375" y1="609" x2="929.375" y2="631" stroke="black" stroke-width="1" />
<text x="764.375" y="639" font-size="1.2em" transform="rotate(-90, 764.375, 639)"  text-anchor="end" dominant-baseline="middle" fill="black"><tspan x="764.375" dy="0">plastic</tspan></text>
<line x1="769.375" y1="569" x2="769.375" y2="591" stroke="black" stroke-width="1" />
<line x1="769.375" y1="580" x2="976.875" y2="580" stroke="black" stroke-width="1" />
<line x1="976.875" y1="569" x2="976.875" y2="591" stroke="black" stroke-width="1" />
<text x="873.125" y="599" font-size="1.2em"  text-anchor="middle" dominant-baseline="central" fill="black"><tspan x="873.125" dy="0">plastic</tspan></text>
<line x1="929.375" y1="609" x2="929.375" y2="631" stroke="black" stroke-width="1" />
<line x1="929.375" y1="620" x2="959.375" y2="620" stroke="black" stroke-width="1" />
<line x1="959.375" y1="609" x2="959.375" y2="631" stroke="black" stroke-width="1" />
<text x="944.375" y="639" font-size="1.2em" transform="rotate(-90, 944.375, 639)"  text-anchor="end" dominant-baseline="middle" fill="black"><tspan x="944.375" dy="0">plastic</tspan></text>
<line x1="959.375" y1="609" x2="959.375" y2="631" stroke="black" stroke-width="1" />
<line x1="959.375" y1="620" x2="985.625" y2="620" stroke="black" stroke-width="1" />
<line x1="985.625" y1="609" x2="985.625" y2="631" stroke="black" stroke-width="1" />
<text x="972.5" y="639" font-size="1.2em" transform="rotate(-90, 960.5, 639)"  text-anchor="end" dominant-baseline="middle" fill="black"><tspan x="964.5" dy="0">plastic</tspan><tspan x="964.5" dy="1em">rubber</tspan></text>
<line x1="985.625" y1="609" x2="985.625" y2="631" stroke="black" stroke-width="1" />
<line x1="985.625" y1="620" x2="1033.125" y2="620" stroke="black" stroke-width="1" />
<line x1="1033.125" y1="609" x2="1033.125" y2="631" stroke="black" stroke-width="1" />
<text x="1009.375" y="639" font-size="1.2em" transform="rotate(-90, 1009.375, 639)"  text-anchor="end" dominant-baseline="middle" fill="black"><tspan x="1009.375" dy="0">plastic</tspan></text>
<line x1="1033.125" y1="609" x2="1033.125" y2="631" stroke="black" stroke-width="1" />
<line x1="1033.125" y1="620" x2="1045.625" y2="620" stroke="black" stroke-width="1" />
<line x1="1045.625" y1="609" x2="1045.625" y2="631" stroke="black" stroke-width="1" />
<text x="1039.375" y="639" font-size="1.2em" transform="rotate(-90, 1039.375, 639)"  text-anchor="end" dominant-baseline="middle" fill="black"><tspan x="1039.375" dy="0">plastic</tspan></text>
<line x1="1045.625" y1="609" x2="1045.625" y2="631" stroke="black" stroke-width="1" />
<line x1="1045.625" y1="620" x2="1104.375" y2="620" stroke="black" stroke-width="1" />
<line x1="1104.375" y1="609" x2="1104.375" y2="631" stroke="black" stroke-width="1" />
<text x="1075" y="639" font-size="1.2em" transform="rotate(-90, 1075, 639)"  text-anchor="end" dominant-baseline="middle" fill="black"><tspan x="1075" dy="0">plastic</tspan></text>


<!-- renderSideComponent: jaws -->


<!-- renderPart: cone -->
<path d="M395.575 489.375 L400.675 486.875 L400.675 513.125 L395.575 510.625 L395.575 489.375" stroke-width="0" stroke="none" stroke-linejoin="round" fill="silver" fill-opacity="1"/>
<path d="M395.575 489.375 L400.675 486.875 M400.675 513.125 L395.575 510.625" stroke-width="0.5" stroke="black" stroke-linejoin="round" fill="silver" fill-opacity="1"/>
<!-- !right !both --><path d="M400.675 486.875 L400.675 513.125" stroke-width="0.5" stroke="black" stroke-linejoin="round" fill="silver" fill-opacity="1"/>
<!-- !left !both --><path d="M395.575 489.375 L395.575 510.625" stroke-width="0.5" stroke="black" stroke-linejoin="round" fill="silver" fill-opacity="1"/>


<!-- renderPart: cylinder -->
<path d="M400.575 486.875 L409.425 486.875 L409.425 513.125 L400.575 513.125 L400.575 486.875" stroke-width="0" stroke="none" stroke-linejoin="round" fill="silver" fill-opacity="1"/>
<path d="M400.575 486.875 L409.425 486.875 M409.425 513.125 L400.575 513.125" stroke-width="0.5" stroke="black" stroke-linejoin="round" fill="silver" fill-opacity="1"/>
<!-- !right !both --><path d="M409.425 486.875 L409.425 513.125" stroke-width="0.5" stroke="black" stroke-linejoin="round" fill="silver" fill-opacity="1"/>
<!-- !left !both --><path d="M400.575 486.875 L400.575 513.125" stroke-width="0.5" stroke="black" stroke-linejoin="round" fill="silver" fill-opacity="1"/>


<!-- renderSideComponent: tip -->


<!-- renderPart: cone -->
<path d="M409.325 486.875 L470.675 481.875 L470.675 518.125 L409.325 513.125 L409.325 486.875" stroke-width="0" stroke="none" stroke-linejoin="round" fill="silver" fill-opacity="1"/>
<path d="M409.325 486.875 L470.675 481.875 M470.675 518.125 L409.325 513.125" stroke-width="0.5" stroke="black" stroke-linejoin="round" fill="silver" fill-opacity="1"/>
<!-- !right !both --><path d="M470.675 481.875 L470.675 518.125" stroke-width="0.5" stroke="black" stroke-linejoin="round" fill="silver" fill-opacity="1"/>
<!-- !left !both --><path d="M409.325 486.875 L409.325 513.125" stroke-width="0.5" stroke="black" stroke-linejoin="round" fill="silver" fill-opacity="1"/>


<!-- renderSideComponent: grip -->


<!-- renderPart: cylinder -->
<path d="M470.575 479.375 L599.425 479.375 L599.425 520.625 L470.575 520.625 L470.575 479.375" stroke-width="0" stroke="none" stroke-linejoin="round" fill="silver" fill-opacity="1"/>
<path d="M470.575 479.375 L599.425 479.375 M599.425 520.625 L470.575 520.625" stroke-width="0.5" stroke="black" stroke-linejoin="round" fill="silver" fill-opacity="1"/>
<!-- !right !both --><path d="M599.425 479.375 L599.425 520.625" stroke-width="0.5" stroke="black" stroke-linejoin="round" fill="silver" fill-opacity="1"/>
<!-- !left !both --><path d="M470.575 479.375 L470.575 520.625" stroke-width="0.5" stroke="black" stroke-linejoin="round" fill="silver" fill-opacity="1"/>
<!-- DEFAULT FINISH: knurled --><path d="M470.625 479.375 L599.375 479.375 L599.375 520.625 L470.625 520.625 Z" stroke-width="0.5" stroke="black" fill="url(#knurled)"/>


<!-- renderSideComponent: body -->


<!-- renderPart: hexagonal -->
<path d="M599.325 479.375 L929.425 479.375 L929.425 520.625 L599.325 520.625 L599.325 479.375" stroke-width="0" stroke="none" stroke-linejoin="round" fill="black" fill-opacity="1"/>
<path d="M599.325 479.375 L929.425 479.375 M929.425 520.625 L599.325 520.625" stroke-width="0.5" stroke="dimgray" stroke-linejoin="round" fill="black" fill-opacity="1"/>
<!-- !right !both --><path d="M929.425 479.375 L929.425 520.625" stroke-width="0.5" stroke="dimgray" stroke-linejoin="round" fill="black" fill-opacity="1"/>
<!-- !left !both --><path d="M599.325 479.375 L599.325 520.625" stroke-width="0.5" stroke="dimgray" stroke-linejoin="round" fill="black" fill-opacity="1"/>
<line x1="599.375" y1="500" x2="929.375" y2="500" stroke-width="1.5" stroke="gray" fill="gray" stroke-opacity="1.0"/>
<line x1="599.375" y1="500" x2="929.375" y2="500" stroke-width="0.5" stroke="black" fill="none" stroke-opacity="0.5"/>


<!-- renderSideComponent: clip -->
<path d="M771.5 466.5 Q794.375 489.75 804.375 464.25 Z" stroke-width="4" stroke="black" fill="dimgray" stroke-linecap="round" />
<line x1="769.375" y1="464.75" x2="936.875" y2="459.75" stroke-width="5" stroke="black" fill="dimgray" stroke-linecap="round" />
<line x1="936.875" y1="461" x2="959.375" y2="464.75" stroke-width="4" stroke="black" fill="dimgray" stroke-linecap="round" />
<path d="M959.375 464.75 Q991.875 469.75 959.375 477.25" stroke-width="4" stroke="black" fill="none" stroke-linecap="round" />


<!-- renderPart: cylinder -->
<path d="M929.325 476.25 L959.425 476.25 L959.425 523.75 L929.325 523.75 L929.325 476.25" stroke-width="0" stroke="none" stroke-linejoin="round" fill="silver" fill-opacity="1"/>
<path d="M929.325 476.25 L959.425 476.25 M959.425 523.75 L929.325 523.75" stroke-width="0.5" stroke="black" stroke-linejoin="round" fill="silver" fill-opacity="1"/>
<!-- !right !both --><path d="M959.425 476.25 L959.425 523.75" stroke-width="0.5" stroke="black" stroke-linejoin="round" fill="silver" fill-opacity="1"/>
<!-- !left !both --><path d="M929.325 476.25 L929.325 523.75" stroke-width="0.5" stroke="black" stroke-linejoin="round" fill="silver" fill-opacity="1"/>
<path d="M771.5 466.5 Q794.375 488.75 804.375 464.25 Z" stroke-width="3" stroke="silver" fill="silver" stroke-linecap="round" />
<rect x="771.5" y="466.5" width="35" height="-14.5" stroke-width="3" stroke="silver" fill="silver" stroke-linecap="round" />
<line x1="769.375" y1="464.75" x2="936.875" y2="459.75" stroke-width="4" stroke="silver" fill="silver" stroke-linecap="round" />
<line x1="936.875" y1="461" x2="959.375" y2="464.75" stroke-width="3" stroke="silver" fill="silver" stroke-linecap="round" />
<path d="M959.375 464.75 Q991.875 469.75 959.375 477.25" stroke-width="3" stroke="silver" fill="none" stroke-linecap="round" />


<!-- renderSideComponent: tail -->


<!-- renderPart: cylinder -->
<path d="M959.325 479.375 L981.925 479.375 L981.925 520.625 L959.325 520.625 L959.325 479.375" stroke-width="0" stroke="none" stroke-linejoin="round" fill="black" fill-opacity="1"/>
<path d="M959.325 479.375 L981.925 479.375 M981.925 520.625 L959.325 520.625" stroke-width="0.5" stroke="dimgray" stroke-linejoin="round" fill="black" fill-opacity="1"/>
<!-- !right !both --><path d="M981.925 479.375 L981.925 520.625" stroke-width="0.5" stroke="dimgray" stroke-linejoin="round" fill="black" fill-opacity="1"/>
<!-- !left !both --><path d="M959.325 479.375 L959.325 520.625" stroke-width="0.5" stroke="dimgray" stroke-linejoin="round" fill="black" fill-opacity="1"/>


<!-- renderPart: cylinder -->
<path d="M981.825 479.375 L985.675 479.375 L985.675 520.625 L981.825 520.625 L981.825 479.375" stroke-width="0" stroke="none" stroke-linejoin="round" fill="red" fill-opacity="1"/>
<path d="M981.825 479.375 L985.675 479.375 M985.675 520.625 L981.825 520.625" stroke-width="0.5" stroke="black" stroke-linejoin="round" fill="red" fill-opacity="1"/>
<!-- !right !both --><path d="M985.675 479.375 L985.675 520.625" stroke-width="0.5" stroke="black" stroke-linejoin="round" fill="red" fill-opacity="1"/>
<!-- !left !both --><path d="M981.825 479.375 L981.825 520.625" stroke-width="0.5" stroke="black" stroke-linejoin="round" fill="red" fill-opacity="1"/>


<!-- renderSideComponent: indicator -->


<!-- renderPart: cylinder -->
<path d="M985.575 479.375 L1033.175 479.375 L1033.175 520.625 L985.575 520.625 L985.575 479.375" stroke-width="0" stroke="none" stroke-linejoin="round" fill="silver" fill-opacity="1"/>
<path d="M985.575 479.375 L1033.175 479.375 M1033.175 520.625 L985.575 520.625" stroke-width="0.5" stroke="black" stroke-linejoin="round" fill="silver" fill-opacity="1"/>
<!-- !right !both --><path d="M1033.175 479.375 L1033.175 520.625" stroke-width="0.5" stroke="black" stroke-linejoin="round" fill="silver" fill-opacity="1"/>
<!-- !left !both --><path d="M985.575 479.375 L985.575 520.625" stroke-width="0.5" stroke="black" stroke-linejoin="round" fill="silver" fill-opacity="1"/>
<!-- DEFAULT FINISH: knurled --><path d="M985.625 479.375 L1033.125 479.375 L1033.125 520.625 L985.625 520.625 Z" stroke-width="0.5" stroke="black" fill="url(#knurled)"/>
<rect x="995.625" y="489.6875" width="27.5" height="20.625" rx="3" ry="3" stroke-width="1" stroke="black" fill="silver"/>
<text x="1009.375" y="500" text-anchor="middle" dominant-baseline="central"><tspan stroke="dimgray" stroke-width="0.5" font-family="sans-serif" fill="black" textLength="{this.width * 5 - 24}" > HB</tspan></text>

<!-- renderSideComponent: foot -->


<!-- renderPart: cylinder -->
<path d="M1033.075 479.375 L1045.675 479.375 L1045.675 520.625 L1033.075 520.625 L1033.075 479.375" stroke-width="0" stroke="none" stroke-linejoin="round" fill="silver" fill-opacity="1"/>
<path d="M1033.075 479.375 L1045.675 479.375 M1045.675 520.625 L1033.075 520.625" stroke-width="0.5" stroke="black" stroke-linejoin="round" fill="silver" fill-opacity="1"/>
<!-- !right !both --><path d="M1045.675 479.375 L1045.675 520.625" stroke-width="0.5" stroke="black" stroke-linejoin="round" fill="silver" fill-opacity="1"/>
<!-- !left !both --><path d="M1033.075 479.375 L1033.075 520.625" stroke-width="0.5" stroke="black" stroke-linejoin="round" fill="silver" fill-opacity="1"/>


<!-- renderSideComponent: cap -->


<!-- renderPart: cylinder -->
<path d="M1045.575 486.25 L1098.175 486.25 L1098.175 513.75 L1045.575 513.75 L1045.575 486.25" stroke-width="0" stroke="none" stroke-linejoin="round" fill="silver" fill-opacity="1"/>
<path d="M1045.575 486.25 L1098.175 486.25 M1098.175 513.75 L1045.575 513.75" stroke-width="0.5" stroke="black" stroke-linejoin="round" fill="silver" fill-opacity="1"/>
<!-- !right !both --><path d="M1098.175 486.25 L1098.175 513.75" stroke-width="0.5" stroke="black" stroke-linejoin="round" fill="silver" fill-opacity="1"/>
<!-- !left !both --><path d="M1045.575 486.25 L1045.575 513.75" stroke-width="0.5" stroke="black" stroke-linejoin="round" fill="silver" fill-opacity="1"/>


<!-- renderPart: convex -->
<path d="M1098.125 486.25 Q1109.375 500 1098.125 513.75" stroke-width="0.5" stroke="black" stroke-linejoin="round" fill="silver" fill-opacity="1"/>

<!-- FRONT COMPONENT: cap -->
<circle r="13.75" cx="160" cy="500" stroke="black" stroke-width="0.5" fill="silver" fill-opacity="1"/>
<circle r="13.75" cx="160" cy="500" stroke="black" stroke-width="0.5" fill="silver" fill-opacity="1"/>
<circle r="13.75" cx="160" cy="500" fill="silver" fill-opacity="1" stroke="black" stroke-width="0.5"  />

<!-- FRONT COMPONENT: foot -->
<circle r="20.625" cx="160" cy="500" fill="silver" fill-opacity="1" stroke="black" stroke-width="0.5"  />

<!-- FRONT COMPONENT: indicator -->
<circle r="20.625" cx="160" cy="500" fill="silver" fill-opacity="1" stroke="black" stroke-width="0.5"  />

<!-- FRONT COMPONENT: tail -->
<circle r="20.625" cx="160" cy="500" fill="red" fill-opacity="1" stroke="black" stroke-width="0.5"  />
<circle r="20.625" cx="160" cy="500" fill="black" fill-opacity="1" stroke="black" stroke-width="0.5"  />

<!-- FRONT COMPONENT: clip -->
<circle r="23.75" cx="160" cy="500" fill="silver" fill-opacity="1" stroke="black" stroke-width="0.5"  />
<!-- WxH 4 2.5 --><rect x="150" y="466.25" width="20" height="12.5" rx="0" ry="0" stroke-width="1.0" stroke="dimgray" fill="silver"/>
<rect x="150" y="466.25" width="20" height="12.5" rx="0" ry="0" stroke-width="1.0" stroke="dimgray" fill="none"/>
<!-- WxH 4 0.75 --><rect x="150" y="475" width="20" height="3.75" rx="0" ry="0" stroke-width="1.0" stroke="dimgray" fill="silver"/>
<rect x="150" y="475" width="20" height="3.75" rx="0" ry="0" stroke-width="1.0" stroke="dimgray" fill="none"/>
<!-- WxH 4 1 --><rect x="150" y="473.75" width="20" height="5" rx="0" ry="0" stroke-width="1.0" stroke="dimgray" fill="silver"/>
<rect x="150" y="473.75" width="20" height="5" rx="0" ry="0" stroke-width="1.0" stroke="dimgray" fill="none"/>
<!-- WxH 4 0.44999999999999973 --><rect x="150" y="476.5" width="20" height="2.2499999999999987" rx="0" ry="0" stroke-width="1.0" stroke="dimgray" fill="silver"/>
<rect x="150" y="476.5" width="20" height="2.2499999999999987" rx="0" ry="0" stroke-width="1.0" stroke="dimgray" fill="none"/>

<!-- FRONT COMPONENT: body -->
<polygon points="148.09215069796397,479.375 171.90784930203603,479.375 183.81569860407205,500 171.90784930203603,520.625 148.09215069796397,520.625 136.18430139592795,500 " stroke="dimgray" stroke-width="0.5" fill="black" fill-opacity="1"/>

<!-- FRONT COMPONENT: grip -->
<circle r="20.625" cx="160" cy="500" fill="silver" fill-opacity="1" stroke="black" stroke-width="0.5"  />

<!-- FRONT COMPONENT: tip -->
<circle r="18.125" cx="160" cy="500" stroke="black" stroke-width="0.5" fill="silver" fill-opacity="1"/>
<circle r="13.125" cx="160" cy="500" stroke="black" stroke-width="0.5" fill="silver" fill-opacity="1"/>

<!-- FRONT COMPONENT: jaws -->
<circle r="13.125" cx="160" cy="500" fill="silver" fill-opacity="1" stroke="black" stroke-width="0.5"  />
<circle r="13.125" cx="160" cy="500" stroke="black" stroke-width="0.5" fill="silver" fill-opacity="1"/>
<circle r="10.625" cx="160" cy="500" stroke="black" stroke-width="0.5" fill="silver" fill-opacity="1"/>
<circle r="5" cx="160" cy="500" fill="b" fill-opacity="1" stroke="dimgray" stroke-width="0.5"  />
<circle r="10.625" cx="1400" cy="500" stroke="black" stroke-width="0.5" fill="silver" fill-opacity="1"/>
<circle r="13.125" cx="1400" cy="500" stroke="black" stroke-width="0.5" fill="silver" fill-opacity="1"/>
<circle r="13.125" cx="1400" cy="500" fill="silver" fill-opacity="1" stroke="black" stroke-width="0.5"  />
<circle r="13.125" cx="1400" cy="500" stroke="black" stroke-width="0.5" fill="silver" fill-opacity="1"/>
<circle r="18.125" cx="1400" cy="500" stroke="black" stroke-width="0.5" fill="silver" fill-opacity="1"/>
<circle r="20.625" cx="1400" cy="500" fill="silver" fill-opacity="1" stroke="black" stroke-width="0.5"  />
<polygon points="1388.092150697964,479.375 1411.907849302036,479.375 1423.8156986040722,500 1411.907849302036,520.625 1388.092150697964,520.625 1376.1843013959278,500 " stroke="dimgray" stroke-width="0.5" fill="black" fill-opacity="1"/>
<circle r="23.75" cx="1400" cy="500" fill="silver" fill-opacity="1" stroke="black" stroke-width="0.5"  />
<!-- WxH 4 0.44999999999999973 --><rect x="1390" y="476.5" width="20" height="2.2499999999999987" rx="0" ry="0" stroke-width="1.0" stroke="dimgray" fill="silver"/>
<rect x="1390" y="476.5" width="20" height="2.2499999999999987" rx="0" ry="0" stroke-width="1.0" stroke="dimgray" fill="none"/>
<!-- WxH 4 1 --><rect x="1390" y="473.75" width="20" height="5" rx="0" ry="0" stroke-width="1.0" stroke="dimgray" fill="silver"/>
<rect x="1390" y="473.75" width="20" height="5" rx="0" ry="0" stroke-width="1.0" stroke="dimgray" fill="none"/>
<!-- WxH 4 0.75 --><rect x="1390" y="475" width="20" height="3.75" rx="0" ry="0" stroke-width="1.0" stroke="dimgray" fill="silver"/>
<rect x="1390" y="475" width="20" height="3.75" rx="0" ry="0" stroke-width="1.0" stroke="dimgray" fill="none"/>
<!-- WxH 4 2.5 --><rect x="1390" y="466.25" width="20" height="12.5" rx="0" ry="0" stroke-width="1.0" stroke="dimgray" fill="silver"/>
<rect x="1390" y="466.25" width="20" height="12.5" rx="0" ry="0" stroke-width="1.0" stroke="dimgray" fill="none"/>
<circle r="20.625" cx="1400" cy="500" fill="black" fill-opacity="1" stroke="black" stroke-width="0.5"  />
<circle r="20.625" cx="1400" cy="500" fill="black" fill-opacity="1" stroke="black" stroke-width="0.5"  />
<circle r="20.625" cx="1400" cy="500" fill="silver" fill-opacity="1" stroke="black" stroke-width="0.5"  />
<circle r="20.625" cx="1400" cy="500" fill="silver" fill-opacity="1" stroke="black" stroke-width="0.5"  />
<circle r="13.75" cx="1400" cy="500" fill="silver" fill-opacity="1" stroke="black" stroke-width="0.5"  />
<circle r="5" cx="1400" cy="500" fill="b" fill-opacity="1" stroke="dimgray" stroke-width="1"  />
</g><text x="50%" y="780" font-size="1.1em" font-weight="bold" text-anchor="middle" dominant-baseline="middle">Copyright (c) // Synapticloop // The Mechanical Pencil Database (tmpdb) // Licensed under Creative Commons Attribution-NonCommercial-ShareAlike 4.0 International</text>
<text x="1490" y="790" font-size="0.5em" font-weight="bold" text-anchor="end" dominant-baseline="middle">SVGTechnicalRenderer</text>
</svg>