<svg xmlns="http://www.w3.org/2000/svg" width="1200" height="360">
 <pattern id="knurled-large" patternUnits="userSpaceOnUse" width="12" height="12">
<path stroke="dimgray" stroke-linecap="round" stroke-width="1" d="M 6,6 L 12,12"/>
<path stroke="dimgray" stroke-linecap="round" stroke-width="1" d="M 6,6 L 0,12"/>
<path stroke="gray" stroke-linecap="round" stroke-width="1" d="M 6,6 L 12,0" />
<path stroke="gray" stroke-linecap="round" stroke-width="1" d="M 6,6 L 0,0" />
</pattern><pattern id="knurled-small" patternUnits="userSpaceOnUse" width="4" height="4">
<path stroke="dimgray" stroke-linecap="round" stroke-width="1" d="M 2,2 L 4,4"/>
<path stroke="dimgray" stroke-linecap="round" stroke-width="1" d="M 2,2 L 0,4"/>
<path stroke="gray" stroke-linecap="round" stroke-width="1" d="M 2,2 L 4,0" />
<path stroke="gray" stroke-linecap="round" stroke-width="1" d="M 2,2 L 0,0" />
</pattern><pattern id="knurled" patternUnits="userSpaceOnUse" width="8" height="8">
<path stroke="dimgray" stroke-linecap="round" stroke-width="1" d="M 4,4 L 8,8"/>
<path stroke="dimgray" stroke-linecap="round" stroke-width="1" d="M 4,4 L 0,8"/>
<path stroke="gray" stroke-linecap="round" stroke-width="1" d="M 4,4 L 8,0" />
<path stroke="gray" stroke-linecap="round" stroke-width="1" d="M 4,4 L 0,0" />
</pattern><pattern id="lined" patternUnits="userSpaceOnUse" width="3" height="3">
<path stroke="dimgray" stroke-linecap="round" stroke-width="1" d="M 0,0 L 3,0"/>
</pattern><pattern id="ridged" patternUnits="userSpaceOnUse" width="3" height="3">
<path stroke="dimgray" stroke-linecap="round" stroke-width="1" d="M 0,0 L 0,3"/>
</pattern><pattern id="spring" patternUnits="userSpaceOnUse" width="8" height="60">
<path stroke="dimgray" stroke-linecap="round" stroke-width="2" d="M 1,1 L 8,60"/>
<path stroke="white" stroke-linecap="round" stroke-width="1" d="M 1,1 L 8,60"/>
</pattern><rect x="0" y="0" width="1200" height="360" fill="white" stroke="black" stroke-width="4" />
<rect x="2" y="2" width="1196" height="356" fill="white" stroke="dimgray" stroke-width="1" />
<g transform="rotate(0 0 0)">
<text x="30" y="50" font-size="2.0em" font-weight="bold"> Unbranded // Plastic Black (manomano.co.uk) (Model #: unknown)</text>


<!-- renderExplodedSideComponents -->


<!-- renderSideComponent: jaws -->


<!-- renderPart: cone -->
<path d="M245.575 109.375 L250.675 106.875 L250.675 133.125 L245.575 130.625 L245.575 109.375" stroke-width="0" stroke="none" stroke-linejoin="round" fill="silver" fill-opacity="1"/>
<path d="M245.575 109.375 L250.675 106.875 M250.675 133.125 L245.575 130.625" stroke-width="0.5" stroke="black" stroke-linejoin="round" fill="silver" fill-opacity="1"/>
<!-- !right !both --><path d="M250.675 106.875 L250.675 133.125" stroke-width="0.5" stroke="black" stroke-linejoin="round" fill="silver" fill-opacity="1"/>
<!-- !left !both --><path d="M245.575 109.375 L245.575 130.625" stroke-width="0.5" stroke="black" stroke-linejoin="round" fill="silver" fill-opacity="1"/>


<!-- renderPart: cylinder -->
<path d="M250.575 106.875 L259.425 106.875 L259.425 133.125 L250.575 133.125 L250.575 106.875" stroke-width="0" stroke="none" stroke-linejoin="round" fill="silver" fill-opacity="1"/>
<path d="M250.575 106.875 L259.425 106.875 M259.425 133.125 L250.575 133.125" stroke-width="0.5" stroke="black" stroke-linejoin="round" fill="silver" fill-opacity="1"/>
<!-- !right !both --><path d="M259.425 106.875 L259.425 133.125" stroke-width="0.5" stroke="black" stroke-linejoin="round" fill="silver" fill-opacity="1"/>
<!-- !left !both --><path d="M250.575 106.875 L250.575 133.125" stroke-width="0.5" stroke="black" stroke-linejoin="round" fill="silver" fill-opacity="1"/>


<!-- renderSideComponent: tip -->


<!-- renderPart: cone -->
<path d="M259.325 106.875 L320.675 101.875 L320.675 138.125 L259.325 133.125 L259.325 106.875" stroke-width="0" stroke="none" stroke-linejoin="round" fill="silver" fill-opacity="1"/>
<path d="M259.325 106.875 L320.675 101.875 M320.675 138.125 L259.325 133.125" stroke-width="0.5" stroke="black" stroke-linejoin="round" fill="silver" fill-opacity="1"/>
<!-- !right !both --><path d="M320.675 101.875 L320.675 138.125" stroke-width="0.5" stroke="black" stroke-linejoin="round" fill="silver" fill-opacity="1"/>
<!-- !left !both --><path d="M259.325 106.875 L259.325 133.125" stroke-width="0.5" stroke="black" stroke-linejoin="round" fill="silver" fill-opacity="1"/>


<!-- renderSideComponent: grip -->


<!-- renderPart: cylinder -->
<path d="M320.575 99.375 L449.425 99.375 L449.425 140.625 L320.575 140.625 L320.575 99.375" stroke-width="0" stroke="none" stroke-linejoin="round" fill="silver" fill-opacity="1"/>
<path d="M320.575 99.375 L449.425 99.375 M449.425 140.625 L320.575 140.625" stroke-width="0.5" stroke="black" stroke-linejoin="round" fill="silver" fill-opacity="1"/>
<!-- !right !both --><path d="M449.425 99.375 L449.425 140.625" stroke-width="0.5" stroke="black" stroke-linejoin="round" fill="silver" fill-opacity="1"/>
<!-- !left !both --><path d="M320.575 99.375 L320.575 140.625" stroke-width="0.5" stroke="black" stroke-linejoin="round" fill="silver" fill-opacity="1"/>
<!-- DEFAULT FINISH: knurled --><path d="M320.625 99.375 L449.375 99.375 L449.375 140.625 L320.625 140.625 Z" stroke-width="0.5" stroke="black" fill="url(#knurled)"/>


<!-- renderSideComponent: body -->


<!-- renderPart: hexagonal -->
<path d="M449.325 99.375 L779.425 99.375 L779.425 140.625 L449.325 140.625 L449.325 99.375" stroke-width="0" stroke="none" stroke-linejoin="round" fill="black" fill-opacity="1"/>
<path d="M449.325 99.375 L779.425 99.375 M779.425 140.625 L449.325 140.625" stroke-width="0.5" stroke="dimgray" stroke-linejoin="round" fill="black" fill-opacity="1"/>
<!-- !right !both --><path d="M779.425 99.375 L779.425 140.625" stroke-width="0.5" stroke="dimgray" stroke-linejoin="round" fill="black" fill-opacity="1"/>
<!-- !left !both --><path d="M449.325 99.375 L449.325 140.625" stroke-width="0.5" stroke="dimgray" stroke-linejoin="round" fill="black" fill-opacity="1"/>
<line x1="449.375" y1="120" x2="779.375" y2="120" stroke-width="1.5" stroke="gray" fill="gray" stroke-opacity="1.0"/>
<line x1="449.375" y1="120" x2="779.375" y2="120" stroke-width="0.5" stroke="black" fill="none" stroke-opacity="0.5"/>


<!-- renderSideComponent: clip -->
<path d="M621.5 86.5 Q644.375 109.75 654.375 84.25 Z" stroke-width="4" stroke="black" fill="dimgray" stroke-linecap="round" />
<line x1="619.375" y1="84.75" x2="786.875" y2="79.75" stroke-width="5" stroke="black" fill="dimgray" stroke-linecap="round" />
<line x1="786.875" y1="81" x2="809.375" y2="84.75" stroke-width="4" stroke="black" fill="dimgray" stroke-linecap="round" />
<path d="M809.375 84.75 Q841.875 89.75 809.375 97.25" stroke-width="4" stroke="black" fill="none" stroke-linecap="round" />


<!-- renderPart: cylinder -->
<path d="M779.325 96.25 L809.425 96.25 L809.425 143.75 L779.325 143.75 L779.325 96.25" stroke-width="0" stroke="none" stroke-linejoin="round" fill="silver" fill-opacity="1"/>
<path d="M779.325 96.25 L809.425 96.25 M809.425 143.75 L779.325 143.75" stroke-width="0.5" stroke="black" stroke-linejoin="round" fill="silver" fill-opacity="1"/>
<!-- !right !both --><path d="M809.425 96.25 L809.425 143.75" stroke-width="0.5" stroke="black" stroke-linejoin="round" fill="silver" fill-opacity="1"/>
<!-- !left !both --><path d="M779.325 96.25 L779.325 143.75" stroke-width="0.5" stroke="black" stroke-linejoin="round" fill="silver" fill-opacity="1"/>
<path d="M621.5 86.5 Q644.375 108.75 654.375 84.25 Z" stroke-width="3" stroke="silver" fill="silver" stroke-linecap="round" />
<rect x="621.5" y="86.5" width="35" height="-14.5" stroke-width="3" stroke="silver" fill="silver" stroke-linecap="round" />
<line x1="619.375" y1="84.75" x2="786.875" y2="79.75" stroke-width="4" stroke="silver" fill="silver" stroke-linecap="round" />
<line x1="786.875" y1="81" x2="809.375" y2="84.75" stroke-width="3" stroke="silver" fill="silver" stroke-linecap="round" />
<path d="M809.375 84.75 Q841.875 89.75 809.375 97.25" stroke-width="3" stroke="silver" fill="none" stroke-linecap="round" />


<!-- renderSideComponent: tail -->


<!-- renderPart: cylinder -->
<path d="M809.325 99.375 L831.925 99.375 L831.925 140.625 L809.325 140.625 L809.325 99.375" stroke-width="0" stroke="none" stroke-linejoin="round" fill="black" fill-opacity="1"/>
<path d="M809.325 99.375 L831.925 99.375 M831.925 140.625 L809.325 140.625" stroke-width="0.5" stroke="dimgray" stroke-linejoin="round" fill="black" fill-opacity="1"/>
<!-- !right !both --><path d="M831.925 99.375 L831.925 140.625" stroke-width="0.5" stroke="dimgray" stroke-linejoin="round" fill="black" fill-opacity="1"/>
<!-- !left !both --><path d="M809.325 99.375 L809.325 140.625" stroke-width="0.5" stroke="dimgray" stroke-linejoin="round" fill="black" fill-opacity="1"/>


<!-- renderPart: cylinder -->
<path d="M831.825 99.375 L835.675 99.375 L835.675 140.625 L831.825 140.625 L831.825 99.375" stroke-width="0" stroke="none" stroke-linejoin="round" fill="red" fill-opacity="1"/>
<path d="M831.825 99.375 L835.675 99.375 M835.675 140.625 L831.825 140.625" stroke-width="0.5" stroke="black" stroke-linejoin="round" fill="red" fill-opacity="1"/>
<!-- !right !both --><path d="M835.675 99.375 L835.675 140.625" stroke-width="0.5" stroke="black" stroke-linejoin="round" fill="red" fill-opacity="1"/>
<!-- !left !both --><path d="M831.825 99.375 L831.825 140.625" stroke-width="0.5" stroke="black" stroke-linejoin="round" fill="red" fill-opacity="1"/>


<!-- renderSideComponent: indicator -->


<!-- renderPart: cylinder -->
<path d="M835.575 99.375 L883.175 99.375 L883.175 140.625 L835.575 140.625 L835.575 99.375" stroke-width="0" stroke="none" stroke-linejoin="round" fill="silver" fill-opacity="1"/>
<path d="M835.575 99.375 L883.175 99.375 M883.175 140.625 L835.575 140.625" stroke-width="0.5" stroke="black" stroke-linejoin="round" fill="silver" fill-opacity="1"/>
<!-- !right !both --><path d="M883.175 99.375 L883.175 140.625" stroke-width="0.5" stroke="black" stroke-linejoin="round" fill="silver" fill-opacity="1"/>
<!-- !left !both --><path d="M835.575 99.375 L835.575 140.625" stroke-width="0.5" stroke="black" stroke-linejoin="round" fill="silver" fill-opacity="1"/>
<!-- DEFAULT FINISH: knurled --><path d="M835.625 99.375 L883.125 99.375 L883.125 140.625 L835.625 140.625 Z" stroke-width="0.5" stroke="black" fill="url(#knurled)"/>
<rect x="845.625" y="109.6875" width="27.5" height="20.625" rx="3" ry="3" stroke-width="1" stroke="black" fill="silver"/>
<text x="859.375" y="120" text-anchor="middle" dominant-baseline="central"><tspan stroke="dimgray" stroke-width="0.5" font-family="sans-serif" fill="black" textLength="{this.width * 5 - 24}" > HB</tspan></text>

<!-- renderSideComponent: foot -->


<!-- renderPart: cylinder -->
<path d="M883.075 99.375 L895.675 99.375 L895.675 140.625 L883.075 140.625 L883.075 99.375" stroke-width="0" stroke="none" stroke-linejoin="round" fill="silver" fill-opacity="1"/>
<path d="M883.075 99.375 L895.675 99.375 M895.675 140.625 L883.075 140.625" stroke-width="0.5" stroke="black" stroke-linejoin="round" fill="silver" fill-opacity="1"/>
<!-- !right !both --><path d="M895.675 99.375 L895.675 140.625" stroke-width="0.5" stroke="black" stroke-linejoin="round" fill="silver" fill-opacity="1"/>
<!-- !left !both --><path d="M883.075 99.375 L883.075 140.625" stroke-width="0.5" stroke="black" stroke-linejoin="round" fill="silver" fill-opacity="1"/>
<line x1="895.625" y1="120" x2="935.625" y2="120" stroke-linecap="round" stroke="orange"  stroke-width="5" />
<line x1="935.625" y1="120" x2="935.625" y2="180" stroke="orange" stroke-linecap="round"  stroke-width="5" />


<!-- renderPart: cylinder -->
<path d="M840.575 226.25 L860.675 226.25 L860.675 253.75 L840.575 253.75 L840.575 226.25" stroke-width="0" stroke="none" stroke-linejoin="round" fill="black" fill-opacity="1"/>
<path d="M840.575 226.25 L860.675 226.25 M860.675 253.75 L840.575 253.75" stroke-width="0.5" stroke="dimgray" stroke-linejoin="round" fill="black" fill-opacity="1"/>
<!-- !right !both --><path d="M860.675 226.25 L860.675 253.75" stroke-width="0.5" stroke="dimgray" stroke-linejoin="round" fill="black" fill-opacity="1"/>
<!-- !left !both --><path d="M840.575 226.25 L840.575 253.75" stroke-width="0.5" stroke="dimgray" stroke-linejoin="round" fill="black" fill-opacity="1"/>


<!-- renderPart: cylinder -->
<path d="M860.575 227.5 L861.925 227.5 L861.925 252.5 L860.575 252.5 L860.575 227.5" stroke-width="0" stroke="none" stroke-linejoin="round" fill="black" fill-opacity="1"/>
<path d="M860.575 227.5 L861.925 227.5 M861.925 252.5 L860.575 252.5" stroke-width="0.5" stroke="dimgray" stroke-linejoin="round" fill="black" fill-opacity="1"/>
<!-- !right !both --><path d="M861.925 227.5 L861.925 252.5" stroke-width="0.5" stroke="dimgray" stroke-linejoin="round" fill="black" fill-opacity="1"/>
<!-- !left !both --><path d="M860.575 227.5 L860.575 252.5" stroke-width="0.5" stroke="dimgray" stroke-linejoin="round" fill="black" fill-opacity="1"/>


<!-- renderPart: cylinder -->
<path d="M861.825 226.25 L895.675 226.25 L895.675 253.75 L861.825 253.75 L861.825 226.25" stroke-width="0" stroke="none" stroke-linejoin="round" fill="silver" fill-opacity="1"/>
<path d="M861.825 226.25 L895.675 226.25 M895.675 253.75 L861.825 253.75" stroke-width="0.5" stroke="black" stroke-linejoin="round" fill="silver" fill-opacity="1"/>
<!-- !right !both --><path d="M895.675 226.25 L895.675 253.75" stroke-width="0.5" stroke="black" stroke-linejoin="round" fill="silver" fill-opacity="1"/>
<!-- !left !both --><path d="M861.825 226.25 L861.825 253.75" stroke-width="0.5" stroke="black" stroke-linejoin="round" fill="silver" fill-opacity="1"/>
<line x1="895.625" y1="240" x2="800.625" y2="240" stroke-linecap="round" stroke="green"  stroke-width="2" />
<line x1="800.625" y1="240" x2="800.625" y2="180" stroke="green" stroke-linecap="round"  stroke-width="2" />


<!-- renderSideComponent: cap -->


<!-- renderPart: cylinder -->
<path d="M895.575 226.25 L948.175 226.25 L948.175 253.75 L895.575 253.75 L895.575 226.25" stroke-width="0" stroke="none" stroke-linejoin="round" fill="silver" fill-opacity="1"/>
<path d="M895.575 226.25 L948.175 226.25 M948.175 253.75 L895.575 253.75" stroke-width="0.5" stroke="black" stroke-linejoin="round" fill="silver" fill-opacity="1"/>
<!-- !right !both --><path d="M948.175 226.25 L948.175 253.75" stroke-width="0.5" stroke="black" stroke-linejoin="round" fill="silver" fill-opacity="1"/>
<!-- !left !both --><path d="M895.575 226.25 L895.575 253.75" stroke-width="0.5" stroke="black" stroke-linejoin="round" fill="silver" fill-opacity="1"/>


<!-- renderPart: convex -->
<path d="M948.125 226.25 Q959.375 240 948.125 253.75" stroke-width="0.5" stroke="black" stroke-linejoin="round" fill="silver" fill-opacity="1"/>


<!-- DASHED JOIN -->
<path d="M 895.625 120 L 935.625 120 L 935.625 180 L 800.625 180 L 800.625 240 L 895.625 240 " fill="none" stroke="white" stroke-width="1" stroke-linecap="round"  />
<path d="M 895.625 120 L 935.625 120 L 935.625 180 L 800.625 180 L 800.625 240 L 895.625 240 " fill="none" stroke="black" stroke-width="1" stroke-dasharray="8,4" stroke-linecap="round"  />


<!-- ARROW START -->
<line x1="900.625" y1="120" x2="907.625" y2="120" stroke-linecap="round" stroke="#ffffff" stroke-width="2.0" />
<line x1="900.625" y1="120" x2="914.625" y2="112" stroke-linecap="round" stroke="#ffffff" stroke-width="2.0" />
<line x1="914.625" y1="112" x2="907.625" y2="120" stroke-linecap="round" stroke="#ffffff" stroke-width="2.0" />
<line x1="900.625" y1="120" x2="914.625" y2="128" stroke-linecap="round" stroke="#ffffff" stroke-width="2.0" />
<line x1="914.625" y1="128" x2="907.625" y2="120" stroke-linecap="round" stroke="#ffffff" stroke-width="2.0" />
<line x1="900.625" y1="120" x2="914.625" y2="112" stroke-linecap="round" stroke="#0f0f0f" stroke-width="1.0" />
<line x1="914.625" y1="112" x2="907.625" y2="120" stroke-linecap="round" stroke="#0f0f0f" stroke-width="1.0" />
<line x1="900.625" y1="120" x2="914.625" y2="128" stroke-linecap="round" stroke="#0f0f0f" stroke-width="1.0" />
<line x1="914.625" y1="128" x2="907.625" y2="120" stroke-linecap="round" stroke="#0f0f0f" stroke-width="1.0" />


<!-- ARROW START -->
<line x1="820.625" y1="240" x2="827.625" y2="240" stroke-linecap="round" stroke="#ffffff" stroke-width="2.0" />
<line x1="820.625" y1="240" x2="834.625" y2="232" stroke-linecap="round" stroke="#ffffff" stroke-width="2.0" />
<line x1="834.625" y1="232" x2="827.625" y2="240" stroke-linecap="round" stroke="#ffffff" stroke-width="2.0" />
<line x1="820.625" y1="240" x2="834.625" y2="248" stroke-linecap="round" stroke="#ffffff" stroke-width="2.0" />
<line x1="834.625" y1="248" x2="827.625" y2="240" stroke-linecap="round" stroke="#ffffff" stroke-width="2.0" />
<line x1="820.625" y1="240" x2="834.625" y2="232" stroke-linecap="round" stroke="#0f0f0f" stroke-width="1.0" />
<line x1="834.625" y1="232" x2="827.625" y2="240" stroke-linecap="round" stroke="#0f0f0f" stroke-width="1.0" />
<line x1="820.625" y1="240" x2="834.625" y2="248" stroke-linecap="round" stroke="#0f0f0f" stroke-width="1.0" />
<line x1="834.625" y1="248" x2="827.625" y2="240" stroke-linecap="round" stroke="#0f0f0f" stroke-width="1.0" />
<line x1="895.625" y1="200" x2="895.625" y2="280" stroke="white" stroke-linecap="round"  stroke-width="1" />
<line x1="895.625" y1="200" x2="895.625" y2="280" stroke="dimgray" stroke-linecap="round" stroke-dasharray="3,3" stroke-width="1" />
</g><text x="50%" y="320" font-size="1.1em" font-weight="bold" text-anchor="middle" dominant-baseline="middle">Copyright (c) // Synapticloop // The Mechanical Pencil Database (tmpdb)</text>
<text x="50%" y="340" font-size="1.1em" font-weight="bold" text-anchor="middle" dominant-baseline="middle">Licensed under Creative Commons Attribution-NonCommercial-ShareAlike 4.0 International</text>
<text x="1190" y="350" font-size="0.5em" font-weight="bold" text-anchor="end" dominant-baseline="middle">SVGTechnicalExplodedRenderer</text>
</svg>