<svg xmlns="http://www.w3.org/2000/svg" width="600" height="420">
<pattern id="diagonalHatch" patternUnits="userSpaceOnUse" width="8" height="8">
<rect width="6" height="6" fill='none'/>
<path stroke="dimgray" stroke-linecap="round" stroke-width="1" d="M 4,4 L 8,8"/>
<path stroke="dimgray" stroke-linecap="round" stroke-width="1" d="M 4,4 L 0,8"/>
<path stroke="gray" stroke-linecap="round" stroke-width="1" d="M 4,4 L 8,0" />
<path stroke="gray" stroke-linecap="round" stroke-width="1" d="M 4,4 L 0,0" />
</pattern>
<rect x="0" y="0" width="600" height="420" fill="white" stroke="black" stroke-width="4" />
<rect x="2" y="2" width="596" height="416" fill="white" stroke="dingray" stroke-width="1" />
<line x1="10" y1="210" x2="590" y2="210" stroke="#000000" stroke-dasharray="2" stroke-width="1" />
<line x1="10" y1="210" x2="50" y2="210" stroke="#000000"  stroke-width="1" />
<line x1="30" y1="190" x2="30" y2="230" stroke="#000000"  stroke-width="1" />
<circle r="10" cx="30" cy="210" fill="none" stroke="#000000" stroke-width="1"  />
<line x1="550" y1="210" x2="590" y2="210" stroke="#000000"  stroke-width="1" />
<line x1="570" y1="190" x2="570" y2="230" stroke="#000000"  stroke-width="1" />
<circle r="10" cx="570" cy="210" fill="none" stroke="#000000" stroke-width="1"  />
<line x1="160" y1="50" x2="160" y2="340" stroke="#000000" stroke-dasharray="2" stroke-width="1" />
<line x1="140" y1="30" x2="180" y2="30" stroke="#000000"  stroke-width="1" />
<line x1="160" y1="10" x2="160" y2="50" stroke="#000000"  stroke-width="1" />
<circle r="10" cx="160" cy="30" fill="none" stroke="#000000" stroke-width="1"  />
<line x1="140" y1="320" x2="180" y2="320" stroke="#000000"  stroke-width="1" />
<line x1="160" y1="300" x2="160" y2="340" stroke="#000000"  stroke-width="1" />
<circle r="10" cx="160" cy="320" fill="none" stroke="#000000" stroke-width="1"  />
<text x="30" y="50" font-size="2.0em" font-weight="bold"> grip</text>
<line x1="100" y1="187.5" x2="500" y2="187.5" stroke="#cfcfcf"  stroke-width="1" />
<line x1="100" y1="232.5" x2="500" y2="232.5" stroke="#cfcfcf"  stroke-width="1" />
<line x1="137.5" y1="210" x2="137.5" y2="252.5" stroke="#cfcfcf"  stroke-width="1" />
<line x1="182.5" y1="210" x2="182.5" y2="252.5" stroke="#cfcfcf"  stroke-width="1" />
<line x1="-58.75" y1="90" x2="-58.75" y2="330" stroke="#cfcfcf"  stroke-width="1" />
<line x1="126.25" y1="99.5" x2="126.25" y2="307.5" stroke="#cfcfcf"  stroke-width="1" />
<line x1="99" y1="187.5" x2="121" y2="187.5" stroke="black" stroke-width="1" />
<line x1="110" y1="187.5" x2="110" y2="232.5" stroke="black" stroke-width="1" />
<line x1="99" y1="232.5" x2="121" y2="232.5" stroke="black" stroke-width="1" />
<text x="91" y="210" transform="rotate(-90, 91, 210)" font-size="1.2em" font-weight="bold" text-anchor="middle" dominant-baseline="central" fill="black">9.00 mm</text>
<line x1="137.5" y1="251.5" x2="137.5" y2="273.5" stroke="black" stroke-width="1" />
<line x1="137.5" y1="262.5" x2="182.5" y2="262.5" stroke="black" stroke-width="1" />
<line x1="182.5" y1="251.5" x2="182.5" y2="273.5" stroke="black" stroke-width="1" />
<text x="160" y="281.5" font-size="1.2em" font-weight="bold" text-anchor="middle" dominant-baseline="central" fill="black"><tspan x="160" dy="0">9.00 mm</tspan></text>
<circle r="22.5" cx="160" cy="210" fill="white" stroke="dimgray" stroke-width="1"  />
<circle r="21.25" cx="160" cy="210" fill="white" stroke="dimgray" stroke-width="1"  />
<circle r="22.5" cx="160" cy="210" fill="white" stroke="dimgray" stroke-width="1"  />
<circle r="21.25" cx="160" cy="210" fill="white" stroke="dimgray" stroke-width="1"  />
<circle r="22.5" cx="160" cy="210" fill="white" stroke="dimgray" stroke-width="1"  />
<circle r="21.25" cx="160" cy="210" fill="white" stroke="dimgray" stroke-width="1"  />
<circle r="22.5" cx="160" cy="210" fill="white" stroke="dimgray" stroke-width="1"  />
<circle r="21.25" cx="160" cy="210" fill="white" stroke="dimgray" stroke-width="1"  />
<circle r="22.5" cx="160" cy="210" fill="white" stroke="dimgray" stroke-width="1"  />
<circle r="21.25" cx="160" cy="210" fill="white" stroke="dimgray" stroke-width="1"  />
<circle r="22.5" cx="160" cy="210" fill="white" stroke="dimgray" stroke-width="1"  />
<rect x="240" y="187.5" width="12.5" height="45" rx="1" ry="1" stroke-width="0.5" stroke="dimgray" fill="white"/>
<rect x="240" y="187.5" width="12.5" height="45" rx="1" ry="1" stroke-width="0.5" stroke="black" fill="url(#diagonalHatch)"/>
<rect x="252.5" y="188.75" width="5" height="42.5" rx="1" ry="1" stroke-width="0.5" stroke="dimgray" fill="white"/>
<rect x="257.5" y="187.5" width="12.5" height="45" rx="1" ry="1" stroke-width="0.5" stroke="dimgray" fill="white"/>
<rect x="257.5" y="187.5" width="12.5" height="45" rx="1" ry="1" stroke-width="0.5" stroke="black" fill="url(#diagonalHatch)"/>
<rect x="270" y="188.75" width="5" height="42.5" rx="1" ry="1" stroke-width="0.5" stroke="dimgray" fill="white"/>
<rect x="275" y="187.5" width="12.5" height="45" rx="1" ry="1" stroke-width="0.5" stroke="dimgray" fill="white"/>
<rect x="275" y="187.5" width="12.5" height="45" rx="1" ry="1" stroke-width="0.5" stroke="black" fill="url(#diagonalHatch)"/>
<rect x="287.5" y="188.75" width="5" height="42.5" rx="1" ry="1" stroke-width="0.5" stroke="dimgray" fill="white"/>
<rect x="292.5" y="187.5" width="12.5" height="45" rx="1" ry="1" stroke-width="0.5" stroke="dimgray" fill="white"/>
<rect x="292.5" y="187.5" width="12.5" height="45" rx="1" ry="1" stroke-width="0.5" stroke="black" fill="url(#diagonalHatch)"/>
<rect x="305" y="188.75" width="5" height="42.5" rx="1" ry="1" stroke-width="0.5" stroke="dimgray" fill="white"/>
<rect x="310" y="187.5" width="12.5" height="45" rx="1" ry="1" stroke-width="0.5" stroke="dimgray" fill="white"/>
<rect x="310" y="187.5" width="12.5" height="45" rx="1" ry="1" stroke-width="0.5" stroke="black" fill="url(#diagonalHatch)"/>
<rect x="322.5" y="188.75" width="5" height="42.5" rx="1" ry="1" stroke-width="0.5" stroke="dimgray" fill="white"/>
<rect x="327.5" y="187.5" width="97.5" height="45" rx="1" ry="1" stroke-width="0.5" stroke="dimgray" fill="white"/>
<rect x="327.5" y="187.5" width="97.5" height="45" rx="1" ry="1" stroke-width="0.5" stroke="black" fill="url(#diagonalHatch)"/>
<text x="50%" y="360" font-size="1.0em" font-weight="bold" text-anchor="middle" dominant-baseline="middle">Copyright (c)</text>
<text x="50%" y="380" font-size="1.0em" font-weight="bold" text-anchor="middle" dominant-baseline="middle">The Mechanical Pencil Database (tmpdb)</text>
<text x="50%" y="400" font-size="1.0em" font-weight="bold" text-anchor="middle" dominant-baseline="middle">Licensed under CC-BY-NC-SA-4.0</text>
</svg>
