<svg xmlns="http://www.w3.org/2000/svg" width="1500" height="600">
 <pattern id="diagonalHatch" patternUnits="userSpaceOnUse" width="8" height="8">
<path stroke="dimgray" stroke-linecap="round" stroke-width="1" d="M 4,4 L 8,8"/>
<path stroke="dimgray" stroke-linecap="round" stroke-width="1" d="M 4,4 L 0,8"/>
<path stroke="gray" stroke-linecap="round" stroke-width="1" d="M 4,4 L 8,0" />
<path stroke="gray" stroke-linecap="round" stroke-width="1" d="M 4,4 L 0,0" />
</pattern>
<pattern id="spring" patternUnits="userSpaceOnUse" width="8" height="100">
<path stroke="dimgray" stroke-linecap="round" stroke-width="2" d="M 0,0 L 8,100"/>
<path stroke="white" stroke-linecap="round" stroke-width="1" d="M 0,0 L 8,100"/>
</pattern>
<rect x="0" y="0" width="1500" height="600" fill="white" stroke="black" stroke-width="4" />
<rect x="2" y="2" width="1496" height="596" fill="white" stroke="dimgray" stroke-width="1" />
<g transform="rotate(0 0 0)">
<line x1="10" y1="300" x2="1490" y2="300" stroke-linecap="round" stroke="#000000" stroke-dasharray="2" stroke-width="1" />
<line x1="10" y1="300" x2="50" y2="300" stroke-linecap="round" stroke="#000000"  stroke-width="1" />
<line x1="30" y1="280" x2="30" y2="320" stroke="#000000" stroke-linecap="round"  stroke-width="1" />
<circle r="10" cx="30" cy="300" fill="none" stroke="#000000" stroke-width="1"  />
<line x1="1450" y1="300" x2="1490" y2="300" stroke-linecap="round" stroke="#000000"  stroke-width="1" />
<line x1="1470" y1="280" x2="1470" y2="320" stroke="#000000" stroke-linecap="round"  stroke-width="1" />
<circle r="10" cx="1470" cy="300" fill="none" stroke="#000000" stroke-width="1"  />
<line x1="160" y1="140" x2="160" y2="520" stroke="#000000" stroke-linecap="round" stroke-dasharray="2" stroke-width="1" />
<line x1="140" y1="150" x2="180" y2="150" stroke-linecap="round" stroke="#000000"  stroke-width="1" />
<line x1="160" y1="130" x2="160" y2="170" stroke="#000000" stroke-linecap="round"  stroke-width="1" />
<circle r="10" cx="160" cy="150" fill="none" stroke="#000000" stroke-width="1"  />
<line x1="140" y1="500" x2="180" y2="500" stroke-linecap="round" stroke="#000000"  stroke-width="1" />
<line x1="160" y1="480" x2="160" y2="520" stroke="#000000" stroke-linecap="round"  stroke-width="1" />
<circle r="10" cx="160" cy="500" fill="none" stroke="#000000" stroke-width="1"  />
<line x1="750" y1="140" x2="750" y2="520" stroke="#000000" stroke-linecap="round" stroke-dasharray="2" stroke-width="1" />
<line x1="730" y1="150" x2="770" y2="150" stroke-linecap="round" stroke="#000000"  stroke-width="1" />
<line x1="750" y1="130" x2="750" y2="170" stroke="#000000" stroke-linecap="round"  stroke-width="1" />
<circle r="10" cx="750" cy="150" fill="none" stroke="#000000" stroke-width="1"  />
<line x1="730" y1="500" x2="770" y2="500" stroke-linecap="round" stroke="#000000"  stroke-width="1" />
<line x1="750" y1="480" x2="750" y2="520" stroke="#000000" stroke-linecap="round"  stroke-width="1" />
<circle r="10" cx="750" cy="500" fill="none" stroke="#000000" stroke-width="1"  />
<line x1="1400" y1="140" x2="1400" y2="520" stroke="#000000" stroke-linecap="round" stroke-dasharray="2" stroke-width="1" />
<line x1="1380" y1="150" x2="1420" y2="150" stroke-linecap="round" stroke="#000000"  stroke-width="1" />
<line x1="1400" y1="130" x2="1400" y2="170" stroke="#000000" stroke-linecap="round"  stroke-width="1" />
<circle r="10" cx="1400" cy="150" fill="none" stroke="#000000" stroke-width="1"  />
<line x1="1380" y1="500" x2="1420" y2="500" stroke-linecap="round" stroke="#000000"  stroke-width="1" />
<line x1="1400" y1="480" x2="1400" y2="520" stroke="#000000" stroke-linecap="round"  stroke-width="1" />
<circle r="10" cx="1400" cy="500" fill="none" stroke="#000000" stroke-width="1"  />
<text x="30" y="50" font-size="2.0em" font-weight="bold"> unbranded // Metal Black </text>
<text x="30" y="80" font-size="1.1em"> </text>
<text x="30" y="100" font-size="1.1em"> Lead size: 2 mm</text>
<text x="1480" y="30" font-size="1.6em" font-weight="bold" text-anchor="end" dominant-baseline="central">Colour variants of the body</text>
<rect x="1440" y="55" width="40" rx="50%" ry="50%" height="40" stroke="black" stroke-width="2" fill="black" />
<text x="1460" y="100" transform="rotate(-90, 1460, 100)" font-size="1.2em" font-weight="bold" text-anchor="end" dominant-baseline="central">black</text>
<text x="30" y="136" font-size="1.2em" font-weight="bold" text-anchor="start" dominant-baseline="central">Materials:</text>
<text x="50" y="156" font-size="1.2em" text-anchor="start" dominant-baseline="central"> - metal</text>
<text x="50" y="176" font-size="1.2em" text-anchor="start" dominant-baseline="central"> - plastic</text>
<line x1="100" y1="277.5" x2="1400" y2="277.5" stroke-linecap="round" stroke="#cfcfcf"  stroke-width="1" />
<line x1="100" y1="322.5" x2="1400" y2="322.5" stroke-linecap="round" stroke="#cfcfcf"  stroke-width="1" />
<line x1="137.5" y1="300" x2="137.5" y2="342.5" stroke="#cfcfcf" stroke-linecap="round"  stroke-width="1" />
<line x1="182.5" y1="300" x2="182.5" y2="342.5" stroke="#cfcfcf" stroke-linecap="round"  stroke-width="1" />
<line x1="312.5" y1="180" x2="312.5" y2="420" stroke="#cfcfcf" stroke-linecap="round"  stroke-width="1" />
<line x1="397.5" y1="180" x2="397.5" y2="420" stroke="#cfcfcf" stroke-linecap="round"  stroke-width="1" />
<line x1="405" y1="180" x2="405" y2="420" stroke="#cfcfcf" stroke-linecap="round"  stroke-width="1" />
<line x1="590" y1="180" x2="590" y2="420" stroke="#cfcfcf" stroke-linecap="round"  stroke-width="1" />
<line x1="920" y1="180" x2="920" y2="420" stroke="#cfcfcf" stroke-linecap="round"  stroke-width="1" />
<line x1="1115" y1="180" x2="1115" y2="420" stroke="#cfcfcf" stroke-linecap="round"  stroke-width="1" />
<line x1="1126.25" y1="180" x2="1126.25" y2="420" stroke="#cfcfcf" stroke-linecap="round"  stroke-width="1" />
<line x1="1187.5" y1="189.5" x2="1187.5" y2="397.5" stroke="#cfcfcf" stroke-linecap="round"  stroke-width="1" />
<text x="160" y="540" font-size="1.8em" font-weight="bold" text-anchor="middle" dominant-baseline="central">Front</text>
<text x="750" y="540" font-size="1.8em" font-weight="bold" text-anchor="middle" dominant-baseline="central">Side view</text>
<text x="1400" y="540" font-size="1.8em" font-weight="bold" text-anchor="middle" dominant-baseline="central">Back</text>
<line x1="99" y1="277.5" x2="121" y2="277.5" stroke="black" stroke-width="1" />
<line x1="110" y1="277.5" x2="110" y2="322.5" stroke="black" stroke-width="1" />
<line x1="99" y1="322.5" x2="121" y2="322.5" stroke="black" stroke-width="1" />
<text x="91" y="300" transform="rotate(-90, 91, 300)" font-size="1.2em" font-weight="bold" text-anchor="middle" dominant-baseline="central" fill="black">9.00 mm</text>
<line x1="137.5" y1="341.5" x2="137.5" y2="363.5" stroke="black" stroke-width="1" />
<line x1="137.5" y1="352.5" x2="182.5" y2="352.5" stroke="black" stroke-width="1" />
<line x1="182.5" y1="341.5" x2="182.5" y2="363.5" stroke="black" stroke-width="1" />
<text x="160" y="371.5" font-size="1.2em" font-weight="bold" text-anchor="middle" dominant-baseline="central" fill="black"><tspan x="160" dy="0">9.00 mm</tspan></text>
<line x1="312.5" y1="169" x2="312.5" y2="191" stroke="black" stroke-width="1" />
<line x1="312.5" y1="180" x2="397.5" y2="180" stroke="black" stroke-width="1" />
<line x1="397.5" y1="169" x2="397.5" y2="191" stroke="black" stroke-width="1" />
<text x="355" y="161" font-size="1.2em" transform="rotate(-90, 343, 161)" font-weight="bold" text-anchor="start" dominant-baseline="central" fill="black"><tspan x="347" dy="0">17.00 mm</tspan><tspan x="347" dy="1em">tip</tspan></text>
<line x1="397.5" y1="169" x2="397.5" y2="191" stroke="black" stroke-width="1" />
<line x1="397.5" y1="180" x2="405" y2="180" stroke="black" stroke-width="1" />
<line x1="405" y1="169" x2="405" y2="191" stroke="black" stroke-width="1" />
<text x="401.25" y="161" font-size="1.2em" transform="rotate(-90, 401.25, 161)" font-weight="bold" text-anchor="start" dominant-baseline="central" fill="black"><tspan x="401.25" dy="0">1.50 mm head</tspan></text>
<line x1="405" y1="169" x2="405" y2="191" stroke="black" stroke-width="1" />
<line x1="405" y1="180" x2="590" y2="180" stroke="black" stroke-width="1" />
<line x1="590" y1="169" x2="590" y2="191" stroke="black" stroke-width="1" />
<text x="497.5" y="161" font-size="1.2em" transform="rotate(-90, 485.5, 161)" font-weight="bold" text-anchor="start" dominant-baseline="central" fill="black"><tspan x="489.5" dy="0">37.00 mm</tspan><tspan x="489.5" dy="1em">grip</tspan></text>
<line x1="590" y1="169" x2="590" y2="191" stroke="black" stroke-width="1" />
<line x1="590" y1="180" x2="920" y2="180" stroke="black" stroke-width="1" />
<line x1="920" y1="169" x2="920" y2="191" stroke="black" stroke-width="1" />
<text x="755" y="161" font-size="1.2em" transform="rotate(-90, 743, 161)" font-weight="bold" text-anchor="start" dominant-baseline="central" fill="black"><tspan x="747" dy="0">66.00 mm</tspan><tspan x="747" dy="1em">body</tspan></text>
<line x1="920" y1="169" x2="920" y2="191" stroke="black" stroke-width="1" />
<line x1="920" y1="180" x2="1115" y2="180" stroke="black" stroke-width="1" />
<line x1="1115" y1="169" x2="1115" y2="191" stroke="black" stroke-width="1" />
<text x="1017.5" y="161" font-size="1.2em" transform="rotate(-90, 1005.5, 161)" font-weight="bold" text-anchor="start" dominant-baseline="central" fill="black"><tspan x="1009.5" dy="0">39.00 mm</tspan><tspan x="1009.5" dy="1em">clip</tspan></text>
<line x1="1115" y1="169" x2="1115" y2="191" stroke="black" stroke-width="1" />
<line x1="1115" y1="180" x2="1126.25" y2="180" stroke="black" stroke-width="1" />
<line x1="1126.25" y1="169" x2="1126.25" y2="191" stroke="black" stroke-width="1" />
<text x="1120.625" y="161" font-size="1.2em" transform="rotate(-90, 1120.625, 161)" font-weight="bold" text-anchor="start" dominant-baseline="central" fill="black"><tspan x="1120.625" dy="0">2.25 mm tail</tspan></text>
<line x1="1126.25" y1="169" x2="1126.25" y2="191" stroke="black" stroke-width="1" />
<line x1="1126.25" y1="180" x2="1187.5" y2="180" stroke="black" stroke-width="1" />
<line x1="1187.5" y1="169" x2="1187.5" y2="191" stroke="black" stroke-width="1" />
<text x="1156.875" y="161" font-size="1.2em" transform="rotate(-90, 1144.875, 161)" font-weight="bold" text-anchor="start" dominant-baseline="central" fill="black"><tspan x="1148.875" dy="0">12.25 mm</tspan><tspan x="1148.875" dy="1em">cap</tspan></text>
<line x1="312.5" y1="341.5" x2="312.5" y2="363.5" stroke="black" stroke-width="1" />
<line x1="312.5" y1="352.5" x2="1187.5" y2="352.5" stroke="black" stroke-width="1" />
<line x1="1187.5" y1="341.5" x2="1187.5" y2="363.5" stroke="black" stroke-width="1" />
<text x="750" y="352.5" font-weight="bold" font-size="1.2em" text-anchor="middle" dominant-baseline="middle" fill="black"><tspan x="750" dy="0">175.00 mm</tspan></text>
<line x1="312.5" y1="409" x2="312.5" y2="431" stroke="black" stroke-width="1" />
<line x1="312.5" y1="420" x2="397.5" y2="420" stroke="black" stroke-width="1" />
<line x1="397.5" y1="409" x2="397.5" y2="431" stroke="black" stroke-width="1" />
<text x="355" y="439" font-size="1.2em" transform="rotate(-90, 355, 439)"  text-anchor="end" dominant-baseline="middle" fill="black"><tspan x="355" dy="0">metal</tspan></text>
<line x1="397.5" y1="409" x2="397.5" y2="431" stroke="black" stroke-width="1" />
<line x1="397.5" y1="420" x2="405" y2="420" stroke="black" stroke-width="1" />
<line x1="405" y1="409" x2="405" y2="431" stroke="black" stroke-width="1" />
<text x="401.25" y="439" font-size="1.2em" transform="rotate(-90, 401.25, 439)"  text-anchor="end" dominant-baseline="middle" fill="black"><tspan x="401.25" dy="0">metal</tspan></text>
<line x1="405" y1="409" x2="405" y2="431" stroke="black" stroke-width="1" />
<line x1="405" y1="420" x2="590" y2="420" stroke="black" stroke-width="1" />
<line x1="590" y1="409" x2="590" y2="431" stroke="black" stroke-width="1" />
<text x="497.5" y="439" font-size="1.2em" transform="rotate(-90, 497.5, 439)"  text-anchor="end" dominant-baseline="middle" fill="black"><tspan x="497.5" dy="0">metal</tspan></text>
<line x1="590" y1="409" x2="590" y2="431" stroke="black" stroke-width="1" />
<line x1="590" y1="420" x2="920" y2="420" stroke="black" stroke-width="1" />
<line x1="920" y1="409" x2="920" y2="431" stroke="black" stroke-width="1" />
<text x="755" y="439" font-size="1.2em" transform="rotate(-90, 755, 439)"  text-anchor="end" dominant-baseline="middle" fill="black"><tspan x="755" dy="0">metal</tspan></text>
<line x1="920" y1="409" x2="920" y2="431" stroke="black" stroke-width="1" />
<line x1="920" y1="420" x2="1115" y2="420" stroke="black" stroke-width="1" />
<line x1="1115" y1="409" x2="1115" y2="431" stroke="black" stroke-width="1" />
<text x="1017.5" y="439" font-size="1.2em" transform="rotate(-90, 1017.5, 439)"  text-anchor="end" dominant-baseline="middle" fill="black"><tspan x="1017.5" dy="0">metal</tspan></text>
<line x1="1115" y1="409" x2="1115" y2="431" stroke="black" stroke-width="1" />
<line x1="1115" y1="420" x2="1126.25" y2="420" stroke="black" stroke-width="1" />
<line x1="1126.25" y1="409" x2="1126.25" y2="431" stroke="black" stroke-width="1" />
<text x="1120.625" y="439" font-size="1.2em" transform="rotate(-90, 1120.625, 439)"  text-anchor="end" dominant-baseline="middle" fill="black"><tspan x="1120.625" dy="0">metal</tspan></text>
<line x1="1126.25" y1="409" x2="1126.25" y2="431" stroke="black" stroke-width="1" />
<line x1="1126.25" y1="420" x2="1187.5" y2="420" stroke="black" stroke-width="1" />
<line x1="1187.5" y1="409" x2="1187.5" y2="431" stroke="black" stroke-width="1" />
<text x="1156.875" y="439" font-size="1.2em" transform="rotate(-90, 1156.875, 439)"  text-anchor="end" dominant-baseline="middle" fill="black"><tspan x="1156.875" dy="0">plastic</tspan></text>
<line x1="1299" y1="277.5" x2="1321" y2="277.5" stroke="black" stroke-width="1" />
<line x1="1310" y1="277.5" x2="1310" y2="322.5" stroke="black" stroke-width="1" />
<line x1="1299" y1="322.5" x2="1321" y2="322.5" stroke="black" stroke-width="1" />
<text x="1291" y="300" transform="rotate(-90, 1291, 300)" font-size="1.2em" font-weight="bold" text-anchor="middle" dominant-baseline="central" fill="black">9 mm</text>
<line x1="1299" y1="277.5" x2="1321" y2="277.5" stroke="black" stroke-width="1" />
<line x1="1310" y1="277.5" x2="1310" y2="322.5" stroke="black" stroke-width="1" />
<line x1="1299" y1="322.5" x2="1321" y2="322.5" stroke="black" stroke-width="1" />
<text x="1310" y="330.5" transform="rotate(-90, 1310, 330.5)" font-weight="bold" font-size="1.2em" text-anchor="end" dominant-baseline="middle" fill="black">grip</text>
<line x1="1339" y1="280" x2="1361" y2="280" stroke="black" stroke-width="1" />
<line x1="1350" y1="280" x2="1350" y2="320" stroke="black" stroke-width="1" />
<line x1="1339" y1="320" x2="1361" y2="320" stroke="black" stroke-width="1" />
<text x="1331" y="300" transform="rotate(-90, 1331, 300)" font-size="1.2em" font-weight="bold" text-anchor="middle" dominant-baseline="central" fill="black">8 mm</text>
<line x1="1339" y1="280" x2="1361" y2="280" stroke="black" stroke-width="1" />
<line x1="1350" y1="280" x2="1350" y2="320" stroke="black" stroke-width="1" />
<line x1="1339" y1="320" x2="1361" y2="320" stroke="black" stroke-width="1" />
<text x="1350" y="328" transform="rotate(-90, 1350, 328)" font-weight="bold" font-size="1.2em" text-anchor="end" dominant-baseline="middle" fill="black">body</text>
<rect x="405" y="277.5" width="12.5" height="45" rx="1" ry="1" stroke-width="0.5" stroke="black" fill="url(#diagonalHatch)"/>
<rect x="422.5" y="277.5" width="12.5" height="45" rx="1" ry="1" stroke-width="0.5" stroke="black" fill="url(#diagonalHatch)"/>
<rect x="440" y="277.5" width="12.5" height="45" rx="1" ry="1" stroke-width="0.5" stroke="black" fill="url(#diagonalHatch)"/>
<rect x="457.5" y="277.5" width="12.5" height="45" rx="1" ry="1" stroke-width="0.5" stroke="black" fill="url(#diagonalHatch)"/>
<rect x="475" y="277.5" width="12.5" height="45" rx="1" ry="1" stroke-width="0.5" stroke="black" fill="url(#diagonalHatch)"/>
<rect x="492.5" y="277.5" width="97.5" height="45" rx="1" ry="1" stroke-width="0.5" stroke="black" fill="url(#diagonalHatch)"/>
<circle r="5" cx="160" cy="300" fill="black" stroke="dimgray" stroke-width="0.5"  />
</g><text x="50%" y="580" font-size="1.1em" font-weight="bold" text-anchor="middle" dominant-baseline="middle">Copyright (c) // The Mechanical Pencil Database (tmpdb) // Licensed under Creative Commons Attribution-NonCommercial-ShareAlike 4.0 International</text>
<text x="1490" y="590" font-size="0.5em" font-weight="bold" text-anchor="end" dominant-baseline="middle">SVGTechnicalRenderer</text>
</svg>