<svg xmlns="http://www.w3.org/2000/svg" width="1500" height="800">
 <pattern id="knurled-large" patternUnits="userSpaceOnUse" width="12" height="12">
<path stroke="dimgray" stroke-linecap="round" stroke-width="1" d="M 6,6 L 12,12"/>
<path stroke="dimgray" stroke-linecap="round" stroke-width="1" d="M 6,6 L 0,12"/>
<path stroke="gray" stroke-linecap="round" stroke-width="1" d="M 6,6 L 12,0" />
<path stroke="gray" stroke-linecap="round" stroke-width="1" d="M 6,6 L 0,0" />
</pattern><pattern id="knurled-small" patternUnits="userSpaceOnUse" width="4" height="4">
<path stroke="dimgray" stroke-linecap="round" stroke-width="1" d="M 2,2 L 4,4"/>
<path stroke="dimgray" stroke-linecap="round" stroke-width="1" d="M 2,2 L 0,4"/>
<path stroke="gray" stroke-linecap="round" stroke-width="1" d="M 2,2 L 4,0" />
<path stroke="gray" stroke-linecap="round" stroke-width="1" d="M 2,2 L 0,0" />
</pattern><pattern id="knurled" patternUnits="userSpaceOnUse" width="8" height="8">
<path stroke="dimgray" stroke-linecap="round" stroke-width="1" d="M 4,4 L 8,8"/>
<path stroke="dimgray" stroke-linecap="round" stroke-width="1" d="M 4,4 L 0,8"/>
<path stroke="gray" stroke-linecap="round" stroke-width="1" d="M 4,4 L 8,0" />
<path stroke="gray" stroke-linecap="round" stroke-width="1" d="M 4,4 L 0,0" />
</pattern><pattern id="lined" patternUnits="userSpaceOnUse" width="3" height="3">
<path stroke="dimgray" stroke-linecap="round" stroke-width="1" d="M 0,0 L 3,0"/>
</pattern><pattern id="ridged" patternUnits="userSpaceOnUse" width="3" height="3">
<path stroke="dimgray" stroke-linecap="round" stroke-width="1" d="M 0,0 L 0,3"/>
</pattern><pattern id="spring" patternUnits="userSpaceOnUse" width="8" height="60">
<path stroke="dimgray" stroke-linecap="round" stroke-width="2" d="M 1,1 L 8,60"/>
<path stroke="white" stroke-linecap="round" stroke-width="1" d="M 1,1 L 8,60"/>
</pattern><rect x="0" y="0" width="1500" height="800" fill="white" stroke="black" stroke-width="4" />
<rect x="2" y="2" width="1496" height="796" fill="white" stroke="dimgray" stroke-width="1" />
<g transform="rotate(0 0 0)">
<line x1="40" y1="500" x2="1460" y2="500" stroke-linecap="round" stroke="#5f5f5f" stroke-dasharray="2" stroke-width="1" />
<line x1="20" y1="500" x2="60" y2="500" stroke-linecap="round" stroke="#000000"  stroke-width="1" />
<line x1="40" y1="480" x2="40" y2="520" stroke="#000000" stroke-linecap="round"  stroke-width="1" />
<circle r="10" cx="40" cy="500" fill="white" fill-opacity="0" stroke="#000000" stroke-width="1"  />
<line x1="1440" y1="500" x2="1480" y2="500" stroke-linecap="round" stroke="#000000"  stroke-width="1" />
<line x1="1460" y1="480" x2="1460" y2="520" stroke="#000000" stroke-linecap="round"  stroke-width="1" />
<circle r="10" cx="1460" cy="500" fill="white" fill-opacity="0" stroke="#000000" stroke-width="1"  />
<line x1="750" y1="90" x2="750" y2="710" stroke="#5f5f5f" stroke-linecap="round" stroke-dasharray="2" stroke-width="1" />
<line x1="730" y1="90" x2="770" y2="90" stroke-linecap="round" stroke="#000000"  stroke-width="1" />
<line x1="750" y1="70" x2="750" y2="110" stroke="#000000" stroke-linecap="round"  stroke-width="1" />
<circle r="10" cx="750" cy="90" fill="white" fill-opacity="0" stroke="#000000" stroke-width="1"  />
<line x1="730" y1="710" x2="770" y2="710" stroke-linecap="round" stroke="#000000"  stroke-width="1" />
<line x1="750" y1="690" x2="750" y2="730" stroke="#000000" stroke-linecap="round"  stroke-width="1" />
<circle r="10" cx="750" cy="710" fill="white" fill-opacity="0" stroke="#000000" stroke-width="1"  />
<line x1="160" y1="150" x2="160" y2="710" stroke="#5f5f5f" stroke-linecap="round" stroke-dasharray="2" stroke-width="1" />
<line x1="140" y1="150" x2="180" y2="150" stroke-linecap="round" stroke="#000000"  stroke-width="1" />
<line x1="160" y1="130" x2="160" y2="170" stroke="#000000" stroke-linecap="round"  stroke-width="1" />
<circle r="10" cx="160" cy="150" fill="white" fill-opacity="0" stroke="#000000" stroke-width="1"  />
<line x1="140" y1="710" x2="180" y2="710" stroke-linecap="round" stroke="#000000"  stroke-width="1" />
<line x1="160" y1="690" x2="160" y2="730" stroke="#000000" stroke-linecap="round"  stroke-width="1" />
<circle r="10" cx="160" cy="710" fill="white" fill-opacity="0" stroke="#000000" stroke-width="1"  />
<line x1="1400" y1="150" x2="1400" y2="710" stroke="#5f5f5f" stroke-linecap="round" stroke-dasharray="2" stroke-width="1" />
<line x1="1380" y1="150" x2="1420" y2="150" stroke-linecap="round" stroke="#000000"  stroke-width="1" />
<line x1="1400" y1="130" x2="1400" y2="170" stroke="#000000" stroke-linecap="round"  stroke-width="1" />
<circle r="10" cx="1400" cy="150" fill="white" fill-opacity="0" stroke="#000000" stroke-width="1"  />
<line x1="1380" y1="710" x2="1420" y2="710" stroke-linecap="round" stroke="#000000"  stroke-width="1" />
<line x1="1400" y1="690" x2="1400" y2="730" stroke="#000000" stroke-linecap="round"  stroke-width="1" />
<circle r="10" cx="1400" cy="710" fill="white" fill-opacity="0" stroke="#000000" stroke-width="1"  />
<text x="30" y="50" font-size="2.0em" font-weight="bold"> Unbranded // Metal Black (Model #: unknown)</text>
<text x="30" y="80" font-size="1.1em"> </text>
<text x="30" y="100" font-size="1.1em"> Lead size: 2 mm</text>
<text x="1480" y="30" font-size="1.6em" font-weight="bold" text-anchor="end" dominant-baseline="central">Colour variants of the body</text>
<rect x="1440" y="55" width="40" rx="50%" ry="50%" height="40" stroke="black" stroke-width="2" fill="black" fill-opacity="1"/>
<text x="1460" y="100" transform="rotate(-90, 1460, 100)" font-size="1.2em" font-weight="bold" text-anchor="end" dominant-baseline="central">black</text>
<text x="30" y="136" font-size="1.2em" font-weight="bold" text-anchor="start" dominant-baseline="central">Materials:</text>
<text x="50" y="156" font-size="1.2em" text-anchor="start" dominant-baseline="central"> - metal</text>
<text x="50" y="176" font-size="1.2em" text-anchor="start" dominant-baseline="central"> - plastic</text>
<line x1="100" y1="463.375" x2="1400" y2="463.375" stroke-linecap="round" stroke="#cfcfcf"  stroke-width="1" />
<line x1="160" y1="478.375" x2="1400" y2="478.375" stroke-linecap="round" stroke="#cfcfcf"  stroke-width="1" />
<line x1="148.75" y1="430" x2="148.75" y2="500" stroke="#cfcfcf" stroke-linecap="round"  stroke-width="1" />
<line x1="171.25" y1="430" x2="171.25" y2="500" stroke="#cfcfcf" stroke-linecap="round"  stroke-width="1" />
<line x1="160" y1="477.5" x2="1400" y2="477.5" stroke-linecap="round" stroke="#cfcfcf"  stroke-width="1" />
<line x1="100" y1="522.5" x2="1400" y2="522.5" stroke-linecap="round" stroke="#cfcfcf"  stroke-width="1" />
<line x1="136.90598923241498" y1="500" x2="136.90598923241498" y2="542.5" stroke="#cfcfcf" stroke-linecap="round"  stroke-width="1" />
<line x1="183.09401076758502" y1="500" x2="183.09401076758502" y2="542.5" stroke="#cfcfcf" stroke-linecap="round"  stroke-width="1" />
<line x1="391.25" y1="380" x2="391.25" y2="620" stroke="#cfcfcf" stroke-linecap="round"  stroke-width="1" />
<line x1="476.25" y1="380" x2="476.25" y2="620" stroke="#cfcfcf" stroke-linecap="round"  stroke-width="1" />
<line x1="476.25" y1="380" x2="476.25" y2="620" stroke="#cfcfcf" stroke-linecap="round"  stroke-width="1" />
<line x1="483.75" y1="380" x2="483.75" y2="620" stroke="#cfcfcf" stroke-linecap="round"  stroke-width="1" />
<line x1="668.75" y1="380" x2="668.75" y2="620" stroke="#cfcfcf" stroke-linecap="round"  stroke-width="1" />
<line x1="998.75" y1="380" x2="998.75" y2="620" stroke="#cfcfcf" stroke-linecap="round"  stroke-width="1" />
<line x1="843.75" y1="420" x2="843.75" y2="580" stroke="#cfcfcf" stroke-linecap="round"  stroke-width="1" />
<line x1="1001.25" y1="420" x2="1001.25" y2="580" stroke="#cfcfcf" stroke-linecap="round"  stroke-width="1" />
<line x1="1036.25" y1="380" x2="1036.25" y2="620" stroke="#cfcfcf" stroke-linecap="round"  stroke-width="1" />
<line x1="1047.5" y1="380" x2="1047.5" y2="620" stroke="#cfcfcf" stroke-linecap="round"  stroke-width="1" />
<line x1="1108.75" y1="389.5" x2="1108.75" y2="597.5" stroke="#cfcfcf" stroke-linecap="round"  stroke-width="1" />
<text x="160" y="740" font-size="1.8em" font-weight="bold" text-anchor="middle" dominant-baseline="central">Front</text>
<text x="750" y="740" font-size="1.8em" font-weight="bold" text-anchor="middle" dominant-baseline="central">Side view</text>
<text x="1400" y="740" font-size="1.8em" font-weight="bold" text-anchor="middle" dominant-baseline="central">Back</text>
<line x1="148.75" y1="429" x2="148.75" y2="451" stroke="black" stroke-width="1" />
<line x1="148.75" y1="440" x2="171.25" y2="440" stroke="black" stroke-width="1" />
<line x1="171.25" y1="429" x2="171.25" y2="451" stroke="black" stroke-width="1" />
<text x="160" y="421" font-size="1.2em" font-weight="bold" text-anchor="middle" dominant-baseline="central" fill="black"><tspan x="160" dy="0">4.50 mm</tspan></text>
<line x1="211" y1="463.375" x2="233" y2="463.375" stroke="black" stroke-width="1" />
<line x1="222" y1="463.375" x2="222" y2="478.375" stroke="black" stroke-width="1" />
<line x1="211" y1="478.375" x2="233" y2="478.375" stroke="black" stroke-width="1" />
<text x="235" y="470.875" font-size="1.2em" font-weight="bold" text-anchor="start" dominant-baseline="central" fill="black">3.00 mm</text>
<line x1="199" y1="477.5" x2="221" y2="477.5" stroke="black" stroke-width="1" />
<line x1="210" y1="477.5" x2="210" y2="522.5" stroke="black" stroke-width="1" />
<line x1="199" y1="522.5" x2="221" y2="522.5" stroke="black" stroke-width="1" />
<text x="223" y="500" font-size="1.2em" font-weight="bold" text-anchor="start" dominant-baseline="central" fill="black">9.00 mm</text>
<line x1="99" y1="463.375" x2="121" y2="463.375" stroke="black" stroke-width="1" />
<line x1="110" y1="463.375" x2="110" y2="522.5" stroke="black" stroke-width="1" />
<line x1="99" y1="522.5" x2="121" y2="522.5" stroke="black" stroke-width="1" />
<text x="91" y="492.9375" transform="rotate(-90, 91, 492.9375)" font-size="1.2em" font-weight="bold" text-anchor="middle" dominant-baseline="central" fill="black">11.825 mm</text>
<line x1="136.90598923241498" y1="541.5" x2="136.90598923241498" y2="563.5" stroke="black" stroke-width="1" />
<line x1="136.90598923241498" y1="552.5" x2="183.09401076758505" y2="552.5" stroke="black" stroke-width="1" />
<line x1="183.09401076758505" y1="541.5" x2="183.09401076758505" y2="563.5" stroke="black" stroke-width="1" />
<text x="160" y="571.5" font-size="1.2em" font-weight="bold" text-anchor="middle" dominant-baseline="central" fill="black"><tspan x="160" dy="0">9.24 mm</tspan></text>
<line x1="391.25" y1="369" x2="391.25" y2="391" stroke="black" stroke-width="1" />
<line x1="391.25" y1="380" x2="476.25" y2="380" stroke="black" stroke-width="1" />
<line x1="476.25" y1="369" x2="476.25" y2="391" stroke="black" stroke-width="1" />
<text x="433.75" y="361" font-size="1.2em" transform="rotate(-90, 421.75, 361)" font-weight="bold" text-anchor="start" dominant-baseline="central" fill="black"><tspan x="425.75" dy="0">17.00 mm</tspan><tspan x="425.75" dy="1em">tip</tspan></text>
<line x1="476.25" y1="369" x2="476.25" y2="391" stroke="black" stroke-width="1" />
<line x1="476.25" y1="380" x2="483.75" y2="380" stroke="black" stroke-width="1" />
<line x1="483.75" y1="369" x2="483.75" y2="391" stroke="black" stroke-width="1" />
<text x="480" y="361" font-size="1.2em" transform="rotate(-90, 480, 361)" font-weight="bold" text-anchor="start" dominant-baseline="central" fill="black"><tspan x="480" dy="0">1.50 mm head</tspan></text>
<line x1="483.75" y1="369" x2="483.75" y2="391" stroke="black" stroke-width="1" />
<line x1="483.75" y1="380" x2="668.75" y2="380" stroke="black" stroke-width="1" />
<line x1="668.75" y1="369" x2="668.75" y2="391" stroke="black" stroke-width="1" />
<text x="576.25" y="361" font-size="1.2em" transform="rotate(-90, 564.25, 361)" font-weight="bold" text-anchor="start" dominant-baseline="central" fill="black"><tspan x="568.25" dy="0">37.00 mm</tspan><tspan x="568.25" dy="1em">grip</tspan></text>
<line x1="668.75" y1="369" x2="668.75" y2="391" stroke="black" stroke-width="1" />
<line x1="668.75" y1="380" x2="998.75" y2="380" stroke="black" stroke-width="1" />
<line x1="998.75" y1="369" x2="998.75" y2="391" stroke="black" stroke-width="1" />
<text x="833.75" y="361" font-size="1.2em" transform="rotate(-90, 821.75, 361)" font-weight="bold" text-anchor="start" dominant-baseline="central" fill="black"><tspan x="825.75" dy="0">66.00 mm</tspan><tspan x="825.75" dy="1em">body</tspan></text>
<line x1="998.75" y1="369" x2="998.75" y2="391" stroke="black" stroke-width="1" />
<line x1="998.75" y1="380" x2="1036.25" y2="380" stroke="black" stroke-width="1" />
<line x1="1036.25" y1="369" x2="1036.25" y2="391" stroke="black" stroke-width="1" />
<text x="1017.5" y="361" font-size="1.2em" transform="rotate(-90, 1005.5, 361)" font-weight="bold" text-anchor="start" dominant-baseline="central" fill="black"><tspan x="1009.5" dy="0">7.50 mm</tspan><tspan x="1009.5" dy="1em">clip</tspan></text>
<line x1="843.75" y1="409" x2="843.75" y2="431" stroke="black" stroke-width="1" />
<line x1="843.75" y1="420" x2="1001.25" y2="420" stroke="black" stroke-width="1" />
<line x1="1001.25" y1="409" x2="1001.25" y2="431" stroke="black" stroke-width="1" />
<text x="922.5" y="412" font-weight="bold" font-size="1.2em" stroke="white" stroke-width="0.25" text-anchor="middle" dominant-baseline="middle" fill="black"><tspan x="914.5" dy="0">31.50 mm</tspan><tspan x="914.5" dy="1em">clip (extra)</tspan></text>
<line x1="1036.25" y1="369" x2="1036.25" y2="391" stroke="black" stroke-width="1" />
<line x1="1036.25" y1="380" x2="1047.5" y2="380" stroke="black" stroke-width="1" />
<line x1="1047.5" y1="369" x2="1047.5" y2="391" stroke="black" stroke-width="1" />
<text x="1041.875" y="361" font-size="1.2em" transform="rotate(-90, 1041.875, 361)" font-weight="bold" text-anchor="start" dominant-baseline="central" fill="black"><tspan x="1041.875" dy="0">2.25 mm tail</tspan></text>
<line x1="1047.5" y1="369" x2="1047.5" y2="391" stroke="black" stroke-width="1" />
<line x1="1047.5" y1="380" x2="1108.75" y2="380" stroke="black" stroke-width="1" />
<line x1="1108.75" y1="369" x2="1108.75" y2="391" stroke="black" stroke-width="1" />
<text x="1078.125" y="361" font-size="1.2em" transform="rotate(-90, 1066.125, 361)" font-weight="bold" text-anchor="start" dominant-baseline="central" fill="black"><tspan x="1070.125" dy="0">12.25 mm</tspan><tspan x="1070.125" dy="1em">cap</tspan></text>
<line x1="1299" y1="477.5" x2="1321" y2="477.5" stroke="black" stroke-width="1" />
<line x1="1310" y1="477.5" x2="1310" y2="522.5" stroke="black" stroke-width="1" />
<line x1="1299" y1="522.5" x2="1321" y2="522.5" stroke="black" stroke-width="1" />
<text x="1291" y="500" transform="rotate(-90, 1291, 500)" font-size="1.2em" font-weight="bold" text-anchor="middle" dominant-baseline="central" fill="black">9 mm</text>
<line x1="1299" y1="477.5" x2="1321" y2="477.5" stroke="black" stroke-width="1" />
<line x1="1310" y1="477.5" x2="1310" y2="522.5" stroke="black" stroke-width="1" />
<line x1="1299" y1="522.5" x2="1321" y2="522.5" stroke="black" stroke-width="1" />
<text x="1310" y="530.5" transform="rotate(-90, 1310, 530.5)" font-weight="bold" font-size="1.2em" text-anchor="end" dominant-baseline="middle" fill="black">grip</text>
<line x1="1339" y1="480" x2="1361" y2="480" stroke="black" stroke-width="1" />
<line x1="1350" y1="480" x2="1350" y2="520" stroke="black" stroke-width="1" />
<line x1="1339" y1="520" x2="1361" y2="520" stroke="black" stroke-width="1" />
<text x="1331" y="500" transform="rotate(-90, 1331, 500)" font-size="1.2em" font-weight="bold" text-anchor="middle" dominant-baseline="central" fill="black">8 mm</text>
<line x1="1339" y1="480" x2="1361" y2="480" stroke="black" stroke-width="1" />
<line x1="1350" y1="480" x2="1350" y2="520" stroke="black" stroke-width="1" />
<line x1="1339" y1="520" x2="1361" y2="520" stroke="black" stroke-width="1" />
<text x="1350" y="528" transform="rotate(-90, 1350, 528)" font-weight="bold" font-size="1.2em" text-anchor="end" dominant-baseline="middle" fill="black">body</text>
<line x1="391.25" y1="541.5" x2="391.25" y2="563.5" stroke="black" stroke-width="1" />
<line x1="391.25" y1="552.5" x2="1108.75" y2="552.5" stroke="black" stroke-width="1" />
<line x1="1108.75" y1="541.5" x2="1108.75" y2="563.5" stroke="black" stroke-width="1" />
<text x="750" y="552.5" font-weight="bold" font-size="1.2em" stroke="white" stroke-width="0.25" text-anchor="middle" dominant-baseline="middle" fill="black"><tspan x="750" dy="0">143.50 mm</tspan></text>
<line x1="391.25" y1="609" x2="391.25" y2="631" stroke="black" stroke-width="1" />
<line x1="391.25" y1="620" x2="476.25" y2="620" stroke="black" stroke-width="1" />
<line x1="476.25" y1="609" x2="476.25" y2="631" stroke="black" stroke-width="1" />
<text x="433.75" y="639" font-size="1.2em" transform="rotate(-90, 433.75, 639)"  text-anchor="end" dominant-baseline="middle" fill="black"><tspan x="433.75" dy="0">metal</tspan></text>
<line x1="476.25" y1="609" x2="476.25" y2="631" stroke="black" stroke-width="1" />
<line x1="476.25" y1="620" x2="483.75" y2="620" stroke="black" stroke-width="1" />
<line x1="483.75" y1="609" x2="483.75" y2="631" stroke="black" stroke-width="1" />
<text x="480" y="639" font-size="1.2em" transform="rotate(-90, 480, 639)"  text-anchor="end" dominant-baseline="middle" fill="black"><tspan x="480" dy="0">metal</tspan></text>
<line x1="483.75" y1="609" x2="483.75" y2="631" stroke="black" stroke-width="1" />
<line x1="483.75" y1="620" x2="668.75" y2="620" stroke="black" stroke-width="1" />
<line x1="668.75" y1="609" x2="668.75" y2="631" stroke="black" stroke-width="1" />
<text x="576.25" y="639" font-size="1.2em" transform="rotate(-90, 576.25, 639)"  text-anchor="end" dominant-baseline="middle" fill="black"><tspan x="576.25" dy="0">metal</tspan></text>
<line x1="668.75" y1="609" x2="668.75" y2="631" stroke="black" stroke-width="1" />
<line x1="668.75" y1="620" x2="998.75" y2="620" stroke="black" stroke-width="1" />
<line x1="998.75" y1="609" x2="998.75" y2="631" stroke="black" stroke-width="1" />
<text x="833.75" y="639" font-size="1.2em" transform="rotate(-90, 833.75, 639)"  text-anchor="end" dominant-baseline="middle" fill="black"><tspan x="833.75" dy="0">metal</tspan></text>
<line x1="843.75" y1="569" x2="843.75" y2="591" stroke="black" stroke-width="1" />
<line x1="843.75" y1="580" x2="1001.25" y2="580" stroke="black" stroke-width="1" />
<line x1="1001.25" y1="569" x2="1001.25" y2="591" stroke="black" stroke-width="1" />
<text x="922.5" y="599" font-size="1.2em"  text-anchor="middle" dominant-baseline="central" fill="black"><tspan x="922.5" dy="0">metal</tspan></text>
<line x1="998.75" y1="609" x2="998.75" y2="631" stroke="black" stroke-width="1" />
<line x1="998.75" y1="620" x2="1036.25" y2="620" stroke="black" stroke-width="1" />
<line x1="1036.25" y1="609" x2="1036.25" y2="631" stroke="black" stroke-width="1" />
<text x="1017.5" y="639" font-size="1.2em" transform="rotate(-90, 1017.5, 639)"  text-anchor="end" dominant-baseline="middle" fill="black"><tspan x="1017.5" dy="0">metal</tspan></text>
<line x1="1036.25" y1="609" x2="1036.25" y2="631" stroke="black" stroke-width="1" />
<line x1="1036.25" y1="620" x2="1047.5" y2="620" stroke="black" stroke-width="1" />
<line x1="1047.5" y1="609" x2="1047.5" y2="631" stroke="black" stroke-width="1" />
<text x="1041.875" y="639" font-size="1.2em" transform="rotate(-90, 1041.875, 639)"  text-anchor="end" dominant-baseline="middle" fill="black"><tspan x="1041.875" dy="0">metal</tspan></text>
<line x1="1047.5" y1="609" x2="1047.5" y2="631" stroke="black" stroke-width="1" />
<line x1="1047.5" y1="620" x2="1108.75" y2="620" stroke="black" stroke-width="1" />
<line x1="1108.75" y1="609" x2="1108.75" y2="631" stroke="black" stroke-width="1" />
<text x="1078.125" y="639" font-size="1.2em" transform="rotate(-90, 1078.125, 639)"  text-anchor="end" dominant-baseline="middle" fill="black"><tspan x="1078.125" dy="0">plastic</tspan></text>


<!-- renderSideComponent: tip -->


<!-- renderPart: cylinder -->
<path d="M391.2 493.125 L408.8 493.125 L408.8 506.875 L391.2 506.875 L391.2 493.125" stroke-width="0" stroke="none" stroke-linejoin="round" fill="black" fill-opacity="1"/>
<path d="M391.2 493.125 L408.8 493.125 M408.8 506.875 L391.2 506.875" stroke-width="0.5" stroke="dimgray" stroke-linejoin="round" fill="black" fill-opacity="1"/>
<!-- !right !both --><path d="M408.8 493.125 L408.8 506.875" stroke-width="0.5" stroke="dimgray" stroke-linejoin="round" fill="black" fill-opacity="1"/>
<!-- !left !both --><path d="M391.2 493.125 L391.2 506.875" stroke-width="0.5" stroke="dimgray" stroke-linejoin="round" fill="black" fill-opacity="1"/>


<!-- renderPart: cone -->
<path d="M408.7 488.75 L452.55 481.25 L452.55 518.75 L408.7 511.25 L408.7 488.75" stroke-width="0" stroke="none" stroke-linejoin="round" fill="black" fill-opacity="1"/>
<path d="M408.7 488.75 L452.55 481.25 M452.55 518.75 L408.7 511.25" stroke-width="0.5" stroke="dimgray" stroke-linejoin="round" fill="black" fill-opacity="1"/>
<!-- !right !both --><path d="M452.55 481.25 L452.55 518.75" stroke-width="0.5" stroke="dimgray" stroke-linejoin="round" fill="black" fill-opacity="1"/>
<!-- !left !both --><path d="M408.7 488.75 L408.7 511.25" stroke-width="0.5" stroke="dimgray" stroke-linejoin="round" fill="black" fill-opacity="1"/>


<!-- renderPart: cylinder -->
<path d="M452.45 481.25 L476.3 481.25 L476.3 518.75 L452.45 518.75 L452.45 481.25" stroke-width="0" stroke="none" stroke-linejoin="round" fill="black" fill-opacity="1"/>
<path d="M452.45 481.25 L476.3 481.25 M476.3 518.75 L452.45 518.75" stroke-width="0.5" stroke="dimgray" stroke-linejoin="round" fill="black" fill-opacity="1"/>
<!-- !right !both --><path d="M476.3 481.25 L476.3 518.75" stroke-width="0.5" stroke="dimgray" stroke-linejoin="round" fill="black" fill-opacity="1"/>
<!-- !left !both --><path d="M452.45 481.25 L452.45 518.75" stroke-width="0.5" stroke="dimgray" stroke-linejoin="round" fill="black" fill-opacity="1"/>


<!-- renderSideComponent: shaft -->


<!-- renderSideComponent: head -->


<!-- renderPart: cylinder -->
<path d="M476.2 478.75 L483.8 478.75 L483.8 521.25 L476.2 521.25 L476.2 478.75" stroke-width="0" stroke="none" stroke-linejoin="round" fill="black" fill-opacity="1"/>
<path d="M476.2 478.75 L483.8 478.75 M483.8 521.25 L476.2 521.25" stroke-width="0.5" stroke="dimgray" stroke-linejoin="round" fill="black" fill-opacity="1"/>
<!-- !right !both --><path d="M483.8 478.75 L483.8 521.25" stroke-width="0.5" stroke="dimgray" stroke-linejoin="round" fill="black" fill-opacity="1"/>
<!-- !left !both --><path d="M476.2 478.75 L476.2 521.25" stroke-width="0.5" stroke="dimgray" stroke-linejoin="round" fill="black" fill-opacity="1"/>


<!-- renderSideComponent: grip -->


<!-- renderPart: cylinder -->
<path d="M483.7 477.5 L496.3 477.5 L496.3 522.5 L483.7 522.5 L483.7 477.5" stroke-width="0" stroke="none" stroke-linejoin="round" fill="black" fill-opacity="1"/>
<path d="M483.7 477.5 L496.3 477.5 M496.3 522.5 L483.7 522.5" stroke-width="0.5" stroke="dimgray" stroke-linejoin="round" fill="black" fill-opacity="1"/>
<!-- !right !both --><path d="M496.3 477.5 L496.3 522.5" stroke-width="0.5" stroke="dimgray" stroke-linejoin="round" fill="black" fill-opacity="1"/>
<!-- !left !both --><path d="M483.7 477.5 L483.7 522.5" stroke-width="0.5" stroke="dimgray" stroke-linejoin="round" fill="black" fill-opacity="1"/>
<path d="M483.75 477.5 L496.25 477.5 L496.25 522.5 L483.75 522.5 Z" stroke-width="1.0" stroke="black" fill="url(#knurled)"/>


<!-- renderPart: cylinder -->
<path d="M496.2 478.75 L501.3 478.75 L501.3 521.25 L496.2 521.25 L496.2 478.75" stroke-width="0" stroke="none" stroke-linejoin="round" fill="black" fill-opacity="1"/>
<path d="M496.2 478.75 L501.3 478.75 M501.3 521.25 L496.2 521.25" stroke-width="0.5" stroke="dimgray" stroke-linejoin="round" fill="black" fill-opacity="1"/>
<!-- !right !both --><path d="M501.3 478.75 L501.3 521.25" stroke-width="0.5" stroke="dimgray" stroke-linejoin="round" fill="black" fill-opacity="1"/>
<!-- !left !both --><path d="M496.2 478.75 L496.2 521.25" stroke-width="0.5" stroke="dimgray" stroke-linejoin="round" fill="black" fill-opacity="1"/>


<!-- renderPart: cylinder -->
<path d="M501.2 477.5 L513.8 477.5 L513.8 522.5 L501.2 522.5 L501.2 477.5" stroke-width="0" stroke="none" stroke-linejoin="round" fill="black" fill-opacity="1"/>
<path d="M501.2 477.5 L513.8 477.5 M513.8 522.5 L501.2 522.5" stroke-width="0.5" stroke="dimgray" stroke-linejoin="round" fill="black" fill-opacity="1"/>
<!-- !right !both --><path d="M513.8 477.5 L513.8 522.5" stroke-width="0.5" stroke="dimgray" stroke-linejoin="round" fill="black" fill-opacity="1"/>
<!-- !left !both --><path d="M501.2 477.5 L501.2 522.5" stroke-width="0.5" stroke="dimgray" stroke-linejoin="round" fill="black" fill-opacity="1"/>
<path d="M501.25 477.5 L513.75 477.5 L513.75 522.5 L501.25 522.5 Z" stroke-width="1.0" stroke="black" fill="url(#knurled)"/>


<!-- renderPart: cylinder -->
<path d="M513.7 478.75 L518.8 478.75 L518.8 521.25 L513.7 521.25 L513.7 478.75" stroke-width="0" stroke="none" stroke-linejoin="round" fill="black" fill-opacity="1"/>
<path d="M513.7 478.75 L518.8 478.75 M518.8 521.25 L513.7 521.25" stroke-width="0.5" stroke="dimgray" stroke-linejoin="round" fill="black" fill-opacity="1"/>
<!-- !right !both --><path d="M518.8 478.75 L518.8 521.25" stroke-width="0.5" stroke="dimgray" stroke-linejoin="round" fill="black" fill-opacity="1"/>
<!-- !left !both --><path d="M513.7 478.75 L513.7 521.25" stroke-width="0.5" stroke="dimgray" stroke-linejoin="round" fill="black" fill-opacity="1"/>


<!-- renderPart: cylinder -->
<path d="M518.7 477.5 L531.3 477.5 L531.3 522.5 L518.7 522.5 L518.7 477.5" stroke-width="0" stroke="none" stroke-linejoin="round" fill="black" fill-opacity="1"/>
<path d="M518.7 477.5 L531.3 477.5 M531.3 522.5 L518.7 522.5" stroke-width="0.5" stroke="dimgray" stroke-linejoin="round" fill="black" fill-opacity="1"/>
<!-- !right !both --><path d="M531.3 477.5 L531.3 522.5" stroke-width="0.5" stroke="dimgray" stroke-linejoin="round" fill="black" fill-opacity="1"/>
<!-- !left !both --><path d="M518.7 477.5 L518.7 522.5" stroke-width="0.5" stroke="dimgray" stroke-linejoin="round" fill="black" fill-opacity="1"/>
<path d="M518.75 477.5 L531.25 477.5 L531.25 522.5 L518.75 522.5 Z" stroke-width="1.0" stroke="black" fill="url(#knurled)"/>


<!-- renderPart: cylinder -->
<path d="M531.2 478.75 L536.3 478.75 L536.3 521.25 L531.2 521.25 L531.2 478.75" stroke-width="0" stroke="none" stroke-linejoin="round" fill="black" fill-opacity="1"/>
<path d="M531.2 478.75 L536.3 478.75 M536.3 521.25 L531.2 521.25" stroke-width="0.5" stroke="dimgray" stroke-linejoin="round" fill="black" fill-opacity="1"/>
<!-- !right !both --><path d="M536.3 478.75 L536.3 521.25" stroke-width="0.5" stroke="dimgray" stroke-linejoin="round" fill="black" fill-opacity="1"/>
<!-- !left !both --><path d="M531.2 478.75 L531.2 521.25" stroke-width="0.5" stroke="dimgray" stroke-linejoin="round" fill="black" fill-opacity="1"/>


<!-- renderPart: cylinder -->
<path d="M536.2 477.5 L548.8 477.5 L548.8 522.5 L536.2 522.5 L536.2 477.5" stroke-width="0" stroke="none" stroke-linejoin="round" fill="black" fill-opacity="1"/>
<path d="M536.2 477.5 L548.8 477.5 M548.8 522.5 L536.2 522.5" stroke-width="0.5" stroke="dimgray" stroke-linejoin="round" fill="black" fill-opacity="1"/>
<!-- !right !both --><path d="M548.8 477.5 L548.8 522.5" stroke-width="0.5" stroke="dimgray" stroke-linejoin="round" fill="black" fill-opacity="1"/>
<!-- !left !both --><path d="M536.2 477.5 L536.2 522.5" stroke-width="0.5" stroke="dimgray" stroke-linejoin="round" fill="black" fill-opacity="1"/>
<path d="M536.25 477.5 L548.75 477.5 L548.75 522.5 L536.25 522.5 Z" stroke-width="1.0" stroke="black" fill="url(#knurled)"/>


<!-- renderPart: cylinder -->
<path d="M548.7 478.75 L553.8 478.75 L553.8 521.25 L548.7 521.25 L548.7 478.75" stroke-width="0" stroke="none" stroke-linejoin="round" fill="black" fill-opacity="1"/>
<path d="M548.7 478.75 L553.8 478.75 M553.8 521.25 L548.7 521.25" stroke-width="0.5" stroke="dimgray" stroke-linejoin="round" fill="black" fill-opacity="1"/>
<!-- !right !both --><path d="M553.8 478.75 L553.8 521.25" stroke-width="0.5" stroke="dimgray" stroke-linejoin="round" fill="black" fill-opacity="1"/>
<!-- !left !both --><path d="M548.7 478.75 L548.7 521.25" stroke-width="0.5" stroke="dimgray" stroke-linejoin="round" fill="black" fill-opacity="1"/>


<!-- renderPart: cylinder -->
<path d="M553.7 477.5 L566.3 477.5 L566.3 522.5 L553.7 522.5 L553.7 477.5" stroke-width="0" stroke="none" stroke-linejoin="round" fill="black" fill-opacity="1"/>
<path d="M553.7 477.5 L566.3 477.5 M566.3 522.5 L553.7 522.5" stroke-width="0.5" stroke="dimgray" stroke-linejoin="round" fill="black" fill-opacity="1"/>
<!-- !right !both --><path d="M566.3 477.5 L566.3 522.5" stroke-width="0.5" stroke="dimgray" stroke-linejoin="round" fill="black" fill-opacity="1"/>
<!-- !left !both --><path d="M553.7 477.5 L553.7 522.5" stroke-width="0.5" stroke="dimgray" stroke-linejoin="round" fill="black" fill-opacity="1"/>
<path d="M553.75 477.5 L566.25 477.5 L566.25 522.5 L553.75 522.5 Z" stroke-width="1.0" stroke="black" fill="url(#knurled)"/>


<!-- renderPart: cylinder -->
<path d="M566.2 478.75 L571.3 478.75 L571.3 521.25 L566.2 521.25 L566.2 478.75" stroke-width="0" stroke="none" stroke-linejoin="round" fill="black" fill-opacity="1"/>
<path d="M566.2 478.75 L571.3 478.75 M571.3 521.25 L566.2 521.25" stroke-width="0.5" stroke="dimgray" stroke-linejoin="round" fill="black" fill-opacity="1"/>
<!-- !right !both --><path d="M571.3 478.75 L571.3 521.25" stroke-width="0.5" stroke="dimgray" stroke-linejoin="round" fill="black" fill-opacity="1"/>
<!-- !left !both --><path d="M566.2 478.75 L566.2 521.25" stroke-width="0.5" stroke="dimgray" stroke-linejoin="round" fill="black" fill-opacity="1"/>


<!-- renderPart: cylinder -->
<path d="M571.2 477.5 L668.8 477.5 L668.8 522.5 L571.2 522.5 L571.2 477.5" stroke-width="0" stroke="none" stroke-linejoin="round" fill="black" fill-opacity="1"/>
<path d="M571.2 477.5 L668.8 477.5 M668.8 522.5 L571.2 522.5" stroke-width="0.5" stroke="dimgray" stroke-linejoin="round" fill="black" fill-opacity="1"/>
<!-- !right !both --><path d="M668.8 477.5 L668.8 522.5" stroke-width="0.5" stroke="dimgray" stroke-linejoin="round" fill="black" fill-opacity="1"/>
<!-- !left !both --><path d="M571.2 477.5 L571.2 522.5" stroke-width="0.5" stroke="dimgray" stroke-linejoin="round" fill="black" fill-opacity="1"/>
<path d="M571.25 477.5 L668.75 477.5 L668.75 522.5 L571.25 522.5 Z" stroke-width="1.0" stroke="black" fill="url(#knurled)"/>


<!-- renderSideComponent: body -->


<!-- renderPart: hexagonal -->
<path d="M668.7 480 L998.8 480 L998.8 520 L668.7 520 L668.7 480" stroke-width="0" stroke="none" stroke-linejoin="round" fill="black" fill-opacity="1"/>
<path d="M668.7 480 L998.8 480 M998.8 520 L668.7 520" stroke-width="0.5" stroke="dimgray" stroke-linejoin="round" fill="black" fill-opacity="1"/>
<!-- !right !both --><path d="M998.8 480 L998.8 520" stroke-width="0.5" stroke="dimgray" stroke-linejoin="round" fill="black" fill-opacity="1"/>
<!-- !left !both --><path d="M668.7 480 L668.7 520" stroke-width="0.5" stroke="dimgray" stroke-linejoin="round" fill="black" fill-opacity="1"/>
<line x1="668.75" y1="500" x2="998.75" y2="500" stroke-width="1.5" stroke="gray" fill="gray" stroke-opacity="1.0"/>
<line x1="668.75" y1="500" x2="998.75" y2="500" stroke-width="0.5" stroke="black" fill="none" stroke-opacity="0.5"/>


<!-- renderSideComponent: clip -->
<line x1="842.5" y1="469.375" x2="852.5" y2="478.125" stroke-width="4" stroke="dimgray" fill="dimgray" stroke-linecap="round" />
<line x1="852.5" y1="478.125" x2="975" y2="464.375" stroke-width="4" stroke="dimgray" fill="dimgray" stroke-linecap="round" />
<path d="M975 464.375 Q980.625 464.375 986.25 468.125" stroke-width="4" stroke="dimgray" fill="none" stroke-linecap="round" />
<line x1="986.25" y1="468.125" x2="1001.25" y2="479.375" stroke-width="4" stroke="dimgray" fill="dimgray" stroke-linecap="round" />


<!-- renderPart: cylinder -->
<path d="M998.7 477.5 L1036.3 477.5 L1036.3 522.5 L998.7 522.5 L998.7 477.5" stroke-width="0" stroke="none" stroke-linejoin="round" fill="black" fill-opacity="1"/>
<path d="M998.7 477.5 L1036.3 477.5 M1036.3 522.5 L998.7 522.5" stroke-width="0.5" stroke="dimgray" stroke-linejoin="round" fill="black" fill-opacity="1"/>
<!-- !right !both --><path d="M1036.3 477.5 L1036.3 522.5" stroke-width="0.5" stroke="dimgray" stroke-linejoin="round" fill="black" fill-opacity="1"/>
<!-- !left !both --><path d="M998.7 477.5 L998.7 522.5" stroke-width="0.5" stroke="dimgray" stroke-linejoin="round" fill="black" fill-opacity="1"/>
<line x1="842.5" y1="469.375" x2="852.5" y2="478.125" stroke-width="3" stroke="black" fill="black" stroke-linecap="round" />
<line x1="852.5" y1="478.125" x2="975" y2="464.375" stroke-width="3" stroke="black" fill="black" stroke-linecap="round" />
<path d="M975 464.375 Q980.625 464.375 986.25 468.125" stroke-width="3" stroke="black" fill="none" stroke-linecap="round" />
<line x1="986.25" y1="468.125" x2="1001.25" y2="479.375" stroke-width="3" stroke="black" fill="black" stroke-linecap="round" />


<!-- renderSideComponent: tail -->


<!-- renderPart: cylinder -->
<path d="M1036.2 481.25 L1047.55 481.25 L1047.55 518.75 L1036.2 518.75 L1036.2 481.25" stroke-width="0" stroke="none" stroke-linejoin="round" fill="black" fill-opacity="1"/>
<path d="M1036.2 481.25 L1047.55 481.25 M1047.55 518.75 L1036.2 518.75" stroke-width="0.5" stroke="dimgray" stroke-linejoin="round" fill="black" fill-opacity="1"/>
<!-- !right !both --><path d="M1047.55 481.25 L1047.55 518.75" stroke-width="0.5" stroke="dimgray" stroke-linejoin="round" fill="black" fill-opacity="1"/>
<!-- !left !both --><path d="M1036.2 481.25 L1036.2 518.75" stroke-width="0.5" stroke="dimgray" stroke-linejoin="round" fill="black" fill-opacity="1"/>


<!-- renderSideComponent: cap -->


<!-- renderPart: cylinder -->
<path d="M1047.45 484.375 L1058.8 484.375 L1058.8 515.625 L1047.45 515.625 L1047.45 484.375" stroke-width="0" stroke="none" stroke-linejoin="round" fill="black" fill-opacity="1"/>
<path d="M1047.45 484.375 L1058.8 484.375 M1058.8 515.625 L1047.45 515.625" stroke-width="0.5" stroke="dimgray" stroke-linejoin="round" fill="black" fill-opacity="1"/>
<!-- !right !both --><path d="M1058.8 484.375 L1058.8 515.625" stroke-width="0.5" stroke="dimgray" stroke-linejoin="round" fill="black" fill-opacity="1"/>
<!-- !left !both --><path d="M1047.45 484.375 L1047.45 515.625" stroke-width="0.5" stroke="dimgray" stroke-linejoin="round" fill="black" fill-opacity="1"/>


<!-- renderPart: cone -->
<path d="M1058.7 484.375 L1072.55 485.625 L1072.55 514.375 L1058.7 515.625 L1058.7 484.375" stroke-width="0" stroke="none" stroke-linejoin="round" fill="black" fill-opacity="1"/>
<path d="M1058.7 484.375 L1072.55 485.625 M1072.55 514.375 L1058.7 515.625" stroke-width="0.5" stroke="dimgray" stroke-linejoin="round" fill="black" fill-opacity="1"/>
<!-- !right !both --><path d="M1072.55 485.625 L1072.55 514.375" stroke-width="0.5" stroke="dimgray" stroke-linejoin="round" fill="black" fill-opacity="1"/>
<!-- !left !both --><path d="M1058.7 484.375 L1058.7 515.625" stroke-width="0.5" stroke="dimgray" stroke-linejoin="round" fill="black" fill-opacity="1"/>


<!-- renderPart: cylinder -->
<path d="M1072.45 485.625 L1108.8 485.625 L1108.8 514.375 L1072.45 514.375 L1072.45 485.625" stroke-width="0" stroke="none" stroke-linejoin="round" fill="black" fill-opacity="1"/>
<path d="M1072.45 485.625 L1108.8 485.625 M1108.8 514.375 L1072.45 514.375" stroke-width="0.5" stroke="dimgray" stroke-linejoin="round" fill="black" fill-opacity="1"/>
<!-- !right !both --><path d="M1108.8 485.625 L1108.8 514.375" stroke-width="0.5" stroke="dimgray" stroke-linejoin="round" fill="black" fill-opacity="1"/>
<!-- !left !both --><path d="M1072.45 485.625 L1072.45 514.375" stroke-width="0.5" stroke="dimgray" stroke-linejoin="round" fill="black" fill-opacity="1"/>

<!-- FRONT COMPONENTS: cap -->
<circle r="14.375" cx="160" cy="500" fill="black" fill-opacity="1" stroke="black" stroke-width="0.5"  />
<circle r="14.375" cx="160" cy="500" stroke="dimgray" stroke-width="0.5" fill="black" fill-opacity="1"/>
<circle r="15.625" cx="160" cy="500" stroke="dimgray" stroke-width="0.5" fill="black" fill-opacity="1"/>
<circle r="15.625" cx="160" cy="500" fill="black" fill-opacity="1" stroke="black" stroke-width="0.5"  />

<!-- FRONT COMPONENTS: tail -->
<circle r="18.75" cx="160" cy="500" fill="black" fill-opacity="1" stroke="black" stroke-width="0.5"  />

<!-- FRONT COMPONENTS: clip -->
<circle r="22.5" cx="160" cy="500" fill="black" fill-opacity="1" stroke="black" stroke-width="0.5"  />
<!-- WxH 4.5 2.25 --><rect x="148.75" y="467.125" width="22.5" height="11.25" rx="0" ry="0" stroke-width="1.0" stroke="dimgray" fill="black"/>
<rect x="148.75" y="467.125" width="22.5" height="11.25" rx="0" ry="0" stroke-width="1.0" stroke="dimgray" fill="none"/>
<!-- WxH 4.5 0.75 --><rect x="148.75" y="474.625" width="22.5" height="3.75" rx="0" ry="0" stroke-width="1.0" stroke="dimgray" fill="black"/>
<rect x="148.75" y="474.625" width="22.5" height="3.75" rx="0" ry="0" stroke-width="1.0" stroke="dimgray" fill="none"/>
<!-- WxH 4.5 2.75 --><rect x="148.75" y="464.625" width="22.5" height="13.75" rx="0" ry="0" stroke-width="1.0" stroke="dimgray" fill="black"/>
<rect x="148.75" y="464.625" width="22.5" height="13.75" rx="0" ry="0" stroke-width="1.0" stroke="dimgray" fill="none"/>
<!-- WxH 4.5 1.75 --><rect x="148.75" y="469.625" width="22.5" height="8.75" rx="0" ry="0" stroke-width="1.0" stroke="dimgray" fill="black"/>
<rect x="148.75" y="469.625" width="22.5" height="8.75" rx="0" ry="0" stroke-width="1.0" stroke="dimgray" fill="none"/>

<!-- FRONT COMPONENTS: body -->
<polygon points="148.4529946162075,480 171.5470053837925,480 183.09401076758502,500 171.5470053837925,520 148.4529946162075,520 136.90598923241498,500 " stroke="dimgray" stroke-width="0.5" fill="black" fill-opacity="1"/>

<!-- FRONT COMPONENTS: grip -->
<circle r="22.5" cx="160" cy="500" fill="black" fill-opacity="1" stroke="black" stroke-width="0.5"  />
<circle r="21.25" cx="160" cy="500" fill="black" fill-opacity="1" stroke="black" stroke-width="0.5"  />
<circle r="22.5" cx="160" cy="500" fill="black" fill-opacity="1" stroke="black" stroke-width="0.5"  />
<circle r="21.25" cx="160" cy="500" fill="black" fill-opacity="1" stroke="black" stroke-width="0.5"  />
<circle r="22.5" cx="160" cy="500" fill="black" fill-opacity="1" stroke="black" stroke-width="0.5"  />
<circle r="21.25" cx="160" cy="500" fill="black" fill-opacity="1" stroke="black" stroke-width="0.5"  />
<circle r="22.5" cx="160" cy="500" fill="black" fill-opacity="1" stroke="black" stroke-width="0.5"  />
<circle r="21.25" cx="160" cy="500" fill="black" fill-opacity="1" stroke="black" stroke-width="0.5"  />
<circle r="22.5" cx="160" cy="500" fill="black" fill-opacity="1" stroke="black" stroke-width="0.5"  />
<circle r="21.25" cx="160" cy="500" fill="black" fill-opacity="1" stroke="black" stroke-width="0.5"  />
<circle r="22.5" cx="160" cy="500" fill="black" fill-opacity="1" stroke="black" stroke-width="0.5"  />

<!-- FRONT COMPONENTS: head -->
<circle r="21.25" cx="160" cy="500" fill="black" fill-opacity="1" stroke="black" stroke-width="0.5"  />

<!-- FRONT COMPONENTS: shaft -->

<!-- FRONT COMPONENTS: tip -->
<circle r="18.75" cx="160" cy="500" fill="black" fill-opacity="1" stroke="black" stroke-width="0.5"  />
<circle r="18.75" cx="160" cy="500" stroke="dimgray" stroke-width="0.5" fill="black" fill-opacity="1"/>
<circle r="11.25" cx="160" cy="500" stroke="dimgray" stroke-width="0.5" fill="black" fill-opacity="1"/>
<circle r="6.875" cx="160" cy="500" fill="black" fill-opacity="1" stroke="black" stroke-width="0.5"  />
<circle r="5" cx="160" cy="500" fill="b" fill-opacity="1" stroke="dimgray" stroke-width="0.5"  />
<circle r="6.875" cx="1400" cy="500" fill="black" fill-opacity="1" stroke="black" stroke-width="0.5"  />
<circle r="11.25" cx="1400" cy="500" stroke="dimgray" stroke-width="0.5" fill="black" fill-opacity="1"/>
<circle r="18.75" cx="1400" cy="500" stroke="dimgray" stroke-width="0.5" fill="black" fill-opacity="1"/>
<circle r="18.75" cx="1400" cy="500" fill="black" fill-opacity="1" stroke="black" stroke-width="0.5"  />
<circle r="21.25" cx="1400" cy="500" fill="black" fill-opacity="1" stroke="black" stroke-width="0.5"  />
<circle r="22.5" cx="1400" cy="500" fill="black" fill-opacity="1" stroke="black" stroke-width="0.5"  />
<circle r="21.25" cx="1400" cy="500" fill="black" fill-opacity="1" stroke="black" stroke-width="0.5"  />
<circle r="22.5" cx="1400" cy="500" fill="black" fill-opacity="1" stroke="black" stroke-width="0.5"  />
<circle r="21.25" cx="1400" cy="500" fill="black" fill-opacity="1" stroke="black" stroke-width="0.5"  />
<circle r="22.5" cx="1400" cy="500" fill="black" fill-opacity="1" stroke="black" stroke-width="0.5"  />
<circle r="21.25" cx="1400" cy="500" fill="black" fill-opacity="1" stroke="black" stroke-width="0.5"  />
<circle r="22.5" cx="1400" cy="500" fill="black" fill-opacity="1" stroke="black" stroke-width="0.5"  />
<circle r="21.25" cx="1400" cy="500" fill="black" fill-opacity="1" stroke="black" stroke-width="0.5"  />
<circle r="22.5" cx="1400" cy="500" fill="black" fill-opacity="1" stroke="black" stroke-width="0.5"  />
<circle r="21.25" cx="1400" cy="500" fill="black" fill-opacity="1" stroke="black" stroke-width="0.5"  />
<circle r="22.5" cx="1400" cy="500" fill="black" fill-opacity="1" stroke="black" stroke-width="0.5"  />
<polygon points="1388.4529946162074,480 1411.5470053837926,480 1423.0940107675851,500 1411.5470053837926,520 1388.4529946162074,520 1376.9059892324149,500 " stroke="dimgray" stroke-width="0.5" fill="black" fill-opacity="1"/>
<circle r="22.5" cx="1400" cy="500" fill="black" fill-opacity="1" stroke="black" stroke-width="0.5"  />
<!-- WxH 4.5 1.75 --><rect x="1388.75" y="469.625" width="22.5" height="8.75" rx="0" ry="0" stroke-width="1.0" stroke="dimgray" fill="black"/>
<rect x="1388.75" y="469.625" width="22.5" height="8.75" rx="0" ry="0" stroke-width="1.0" stroke="dimgray" fill="none"/>
<!-- WxH 4.5 2.75 --><rect x="1388.75" y="464.625" width="22.5" height="13.75" rx="0" ry="0" stroke-width="1.0" stroke="dimgray" fill="black"/>
<rect x="1388.75" y="464.625" width="22.5" height="13.75" rx="0" ry="0" stroke-width="1.0" stroke="dimgray" fill="none"/>
<!-- WxH 4.5 0.75 --><rect x="1388.75" y="474.625" width="22.5" height="3.75" rx="0" ry="0" stroke-width="1.0" stroke="dimgray" fill="black"/>
<rect x="1388.75" y="474.625" width="22.5" height="3.75" rx="0" ry="0" stroke-width="1.0" stroke="dimgray" fill="none"/>
<!-- WxH 4.5 2.25 --><rect x="1388.75" y="467.125" width="22.5" height="11.25" rx="0" ry="0" stroke-width="1.0" stroke="dimgray" fill="black"/>
<rect x="1388.75" y="467.125" width="22.5" height="11.25" rx="0" ry="0" stroke-width="1.0" stroke="dimgray" fill="none"/>
<circle r="18.75" cx="1400" cy="500" fill="black" fill-opacity="1" stroke="black" stroke-width="0.5"  />
<circle r="15.625" cx="1400" cy="500" fill="black" fill-opacity="1" stroke="black" stroke-width="0.5"  />
<circle r="15.625" cx="1400" cy="500" stroke="dimgray" stroke-width="0.5" fill="black" fill-opacity="1"/>
<circle r="14.375" cx="1400" cy="500" stroke="dimgray" stroke-width="0.5" fill="black" fill-opacity="1"/>
<circle r="14.375" cx="1400" cy="500" fill="black" fill-opacity="1" stroke="black" stroke-width="0.5"  />
</g><text x="50%" y="780" font-size="1.1em" font-weight="bold" text-anchor="middle" dominant-baseline="middle">Copyright (c) // Synapticloop // The Mechanical Pencil Database (tmpdb) // Licensed under Creative Commons Attribution-NonCommercial-ShareAlike 4.0 International</text>
<text x="1490" y="790" font-size="0.5em" font-weight="bold" text-anchor="end" dominant-baseline="middle">SVGTechnicalRenderer</text>
</svg>