<svg xmlns="http://www.w3.org/2000/svg" width="1200" height="500">
 <pattern id="diagonalHatch" patternUnits="userSpaceOnUse" width="8" height="8">
<path stroke="dimgray" stroke-linecap="round" stroke-width="1" d="M 4,4 L 8,8"/>
<path stroke="dimgray" stroke-linecap="round" stroke-width="1" d="M 4,4 L 0,8"/>
<path stroke="gray" stroke-linecap="round" stroke-width="1" d="M 4,4 L 8,0" />
<path stroke="gray" stroke-linecap="round" stroke-width="1" d="M 4,4 L 0,0" />
</pattern>
<pattern id="spring" patternUnits="userSpaceOnUse" width="8" height="100">
<path stroke="dimgray" stroke-linecap="round" stroke-width="2" d="M 0,0 L 8,100"/>
<path stroke="white" stroke-linecap="round" stroke-width="1" d="M 0,0 L 8,100"/>
</pattern>
<rect x="0" y="0" width="1200" height="500" fill="white" stroke="black" stroke-width="4" />
<rect x="2" y="2" width="1196" height="496" fill="white" stroke="dimgray" stroke-width="1" />
<g transform="rotate(0 0 0)">
<line x1="10" y1="250" x2="1190" y2="250" stroke-linecap="round" stroke="#000000" stroke-dasharray="2" stroke-width="1" />
<line x1="10" y1="250" x2="50" y2="250" stroke-linecap="round" stroke="#000000"  stroke-width="1" />
<line x1="30" y1="230" x2="30" y2="270" stroke="#000000" stroke-linecap="round"  stroke-width="1" />
<circle r="10" cx="30" cy="250" fill="none" stroke="#000000" stroke-width="1"  />
<line x1="1150" y1="250" x2="1190" y2="250" stroke-linecap="round" stroke="#000000"  stroke-width="1" />
<line x1="1170" y1="230" x2="1170" y2="270" stroke="#000000" stroke-linecap="round"  stroke-width="1" />
<circle r="10" cx="1170" cy="250" fill="none" stroke="#000000" stroke-width="1"  />
<line x1="600" y1="140" x2="600" y2="420" stroke="#000000" stroke-linecap="round" stroke-dasharray="2" stroke-width="1" />
<line x1="580" y1="150" x2="620" y2="150" stroke-linecap="round" stroke="#000000"  stroke-width="1" />
<line x1="600" y1="130" x2="600" y2="170" stroke="#000000" stroke-linecap="round"  stroke-width="1" />
<circle r="10" cx="600" cy="150" fill="none" stroke="#000000" stroke-width="1"  />
<line x1="580" y1="400" x2="620" y2="400" stroke-linecap="round" stroke="#000000"  stroke-width="1" />
<line x1="600" y1="380" x2="600" y2="420" stroke="#000000" stroke-linecap="round"  stroke-width="1" />
<circle r="10" cx="600" cy="400" fill="none" stroke="#000000" stroke-width="1"  />
<text x="30" y="50" font-size="2.0em" font-weight="bold"> unbranded // Metal Black </text>
<line x1="162.5" y1="139.5" x2="162.5" y2="250" stroke="#cfcfcf" stroke-linecap="round"  stroke-width="1" />
<line x1="162.5" y1="130" x2="162.5" y2="250" stroke="#cfcfcf" stroke-linecap="round"  stroke-width="1" />
<line x1="247.5" y1="130" x2="247.5" y2="250" stroke="#cfcfcf" stroke-linecap="round"  stroke-width="1" />
<line x1="255" y1="130" x2="255" y2="250" stroke="#cfcfcf" stroke-linecap="round"  stroke-width="1" />
<line x1="440" y1="130" x2="440" y2="250" stroke="#cfcfcf" stroke-linecap="round"  stroke-width="1" />
<line x1="770" y1="130" x2="770" y2="250" stroke="#cfcfcf" stroke-linecap="round"  stroke-width="1" />
<line x1="965" y1="130" x2="965" y2="250" stroke="#cfcfcf" stroke-linecap="round"  stroke-width="1" />
<line x1="976.25" y1="130" x2="976.25" y2="250" stroke="#cfcfcf" stroke-linecap="round"  stroke-width="1" />
<line x1="1037.5" y1="139.5" x2="1037.5" y2="250" stroke="#cfcfcf" stroke-linecap="round"  stroke-width="1" />
<line x1="162.5" y1="119" x2="162.5" y2="141" stroke="black" stroke-width="1" />
<line x1="162.5" y1="130" x2="247.5" y2="130" stroke="black" stroke-width="1" />
<line x1="247.5" y1="119" x2="247.5" y2="141" stroke="black" stroke-width="1" />
<text x="205" y="111" font-size="1.2em" transform="rotate(-90, 193, 111)" font-weight="bold" text-anchor="start" dominant-baseline="central" fill="black"><tspan x="197" dy="0">17.00 mm</tspan><tspan x="197" dy="1em">tip</tspan></text>
<line x1="247.5" y1="119" x2="247.5" y2="141" stroke="black" stroke-width="1" />
<line x1="247.5" y1="130" x2="255" y2="130" stroke="black" stroke-width="1" />
<line x1="255" y1="119" x2="255" y2="141" stroke="black" stroke-width="1" />
<text x="251.25" y="111" font-size="1.2em" transform="rotate(-90, 251.25, 111)" font-weight="bold" text-anchor="start" dominant-baseline="central" fill="black"><tspan x="251.25" dy="0">1.50 mm head</tspan></text>
<line x1="255" y1="119" x2="255" y2="141" stroke="black" stroke-width="1" />
<line x1="255" y1="130" x2="440" y2="130" stroke="black" stroke-width="1" />
<line x1="440" y1="119" x2="440" y2="141" stroke="black" stroke-width="1" />
<text x="347.5" y="111" font-size="1.2em" transform="rotate(-90, 335.5, 111)" font-weight="bold" text-anchor="start" dominant-baseline="central" fill="black"><tspan x="339.5" dy="0">37.00 mm</tspan><tspan x="339.5" dy="1em">grip</tspan></text>
<line x1="440" y1="119" x2="440" y2="141" stroke="black" stroke-width="1" />
<line x1="440" y1="130" x2="770" y2="130" stroke="black" stroke-width="1" />
<line x1="770" y1="119" x2="770" y2="141" stroke="black" stroke-width="1" />
<text x="605" y="111" font-size="1.2em" transform="rotate(-90, 593, 111)" font-weight="bold" text-anchor="start" dominant-baseline="central" fill="black"><tspan x="597" dy="0">66.00 mm</tspan><tspan x="597" dy="1em">body</tspan></text>
<line x1="770" y1="119" x2="770" y2="141" stroke="black" stroke-width="1" />
<line x1="770" y1="130" x2="965" y2="130" stroke="black" stroke-width="1" />
<line x1="965" y1="119" x2="965" y2="141" stroke="black" stroke-width="1" />
<text x="867.5" y="111" font-size="1.2em" transform="rotate(-90, 855.5, 111)" font-weight="bold" text-anchor="start" dominant-baseline="central" fill="black"><tspan x="859.5" dy="0">39.00 mm</tspan><tspan x="859.5" dy="1em">clip</tspan></text>
<line x1="965" y1="119" x2="965" y2="141" stroke="black" stroke-width="1" />
<line x1="965" y1="130" x2="976.25" y2="130" stroke="black" stroke-width="1" />
<line x1="976.25" y1="119" x2="976.25" y2="141" stroke="black" stroke-width="1" />
<text x="970.625" y="111" font-size="1.2em" transform="rotate(-90, 970.625, 111)" font-weight="bold" text-anchor="start" dominant-baseline="central" fill="black"><tspan x="970.625" dy="0">2.25 mm tail</tspan></text>
<line x1="976.25" y1="119" x2="976.25" y2="141" stroke="black" stroke-width="1" />
<line x1="976.25" y1="130" x2="1037.5" y2="130" stroke="black" stroke-width="1" />
<line x1="1037.5" y1="119" x2="1037.5" y2="141" stroke="black" stroke-width="1" />
<text x="1006.875" y="111" font-size="1.2em" transform="rotate(-90, 994.875, 111)" font-weight="bold" text-anchor="start" dominant-baseline="central" fill="black"><tspan x="998.875" dy="0">12.25 mm</tspan><tspan x="998.875" dy="1em">cap</tspan></text>
<rect x="255" y="227.5" width="12.5" height="45" rx="1" ry="1" stroke-width="0.5" stroke="black" fill="url(#diagonalHatch)"/>
<rect x="272.5" y="227.5" width="12.5" height="45" rx="1" ry="1" stroke-width="0.5" stroke="black" fill="url(#diagonalHatch)"/>
<rect x="290" y="227.5" width="12.5" height="45" rx="1" ry="1" stroke-width="0.5" stroke="black" fill="url(#diagonalHatch)"/>
<rect x="307.5" y="227.5" width="12.5" height="45" rx="1" ry="1" stroke-width="0.5" stroke="black" fill="url(#diagonalHatch)"/>
<rect x="325" y="227.5" width="12.5" height="45" rx="1" ry="1" stroke-width="0.5" stroke="black" fill="url(#diagonalHatch)"/>
<rect x="342.5" y="227.5" width="97.5" height="45" rx="1" ry="1" stroke-width="0.5" stroke="black" fill="url(#diagonalHatch)"/>
</g><text x="50%" y="480" font-size="1.1em" font-weight="bold" text-anchor="middle" dominant-baseline="middle">Copyright (c) // The Mechanical Pencil Database (tmpdb) // Licensed under Creative Commons Attribution-NonCommercial-ShareAlike 4.0 International</text>
<text x="1190" y="490" font-size="0.5em" font-weight="bold" text-anchor="end" dominant-baseline="middle">SVGTechnicalComponentRenderer</text>
</svg>