<svg xmlns="http://www.w3.org/2000/svg" width="1200" height="740">
 <pattern id="knurled-large" patternUnits="userSpaceOnUse" width="12" height="12">
<path stroke="dimgray" stroke-linecap="round" stroke-width="1" d="M 6,6 L 12,12"/>
<path stroke="dimgray" stroke-linecap="round" stroke-width="1" d="M 6,6 L 0,12"/>
<path stroke="gray" stroke-linecap="round" stroke-width="1" d="M 6,6 L 12,0" />
<path stroke="gray" stroke-linecap="round" stroke-width="1" d="M 6,6 L 0,0" />
</pattern><pattern id="knurled-small" patternUnits="userSpaceOnUse" width="4" height="4">
<path stroke="dimgray" stroke-linecap="round" stroke-width="1" d="M 2,2 L 4,4"/>
<path stroke="dimgray" stroke-linecap="round" stroke-width="1" d="M 2,2 L 0,4"/>
<path stroke="gray" stroke-linecap="round" stroke-width="1" d="M 2,2 L 4,0" />
<path stroke="gray" stroke-linecap="round" stroke-width="1" d="M 2,2 L 0,0" />
</pattern><pattern id="knurled" patternUnits="userSpaceOnUse" width="8" height="8">
<path stroke="dimgray" stroke-linecap="round" stroke-width="1" d="M 4,4 L 8,8"/>
<path stroke="dimgray" stroke-linecap="round" stroke-width="1" d="M 4,4 L 0,8"/>
<path stroke="gray" stroke-linecap="round" stroke-width="1" d="M 4,4 L 8,0" />
<path stroke="gray" stroke-linecap="round" stroke-width="1" d="M 4,4 L 0,0" />
</pattern><pattern id="lined" patternUnits="userSpaceOnUse" width="3" height="3">
<path stroke="dimgray" stroke-linecap="round" stroke-width="1" d="M 0,0 L 3,0"/>
</pattern><pattern id="ridged" patternUnits="userSpaceOnUse" width="3" height="3">
<path stroke="dimgray" stroke-linecap="round" stroke-width="1" d="M 0,0 L 0,3"/>
</pattern><pattern id="spring" patternUnits="userSpaceOnUse" width="8" height="100">
<path stroke="dimgray" stroke-linecap="round" stroke-width="2" d="M 1,1 L 9,99"/>
<path stroke="white" stroke-linecap="round" stroke-width="1" d="M 1,1 L 9,99"/>
</pattern><pattern id="knurled" patternUnits="userSpaceOnUse" width="8" height="8">
<path stroke="dimgray" stroke-linecap="round" stroke-width="1" d="M 4,4 L 8,8"/>
<path stroke="dimgray" stroke-linecap="round" stroke-width="1" d="M 4,4 L 0,8"/>
<path stroke="gray" stroke-linecap="round" stroke-width="1" d="M 4,4 L 8,0" />
<path stroke="gray" stroke-linecap="round" stroke-width="1" d="M 4,4 L 0,0" />
</pattern><rect x="0" y="0" width="1200" height="740" fill="white" stroke="black" stroke-width="4" />
<rect x="2" y="2" width="1196" height="736" fill="white" stroke="dimgray" stroke-width="1" />
<g transform="rotate(0 0 0)">
<line x1="40" y1="300" x2="1160" y2="300" stroke-linecap="round" stroke="#5f5f5f" stroke-dasharray="2" stroke-width="1" />
<line x1="20" y1="300" x2="60" y2="300" stroke-linecap="round" stroke="#000000"  stroke-width="1" />
<line x1="40" y1="280" x2="40" y2="320" stroke="#000000" stroke-linecap="round"  stroke-width="1" />
<circle r="10" cx="40" cy="300" fill="white" fill-opacity="0" stroke="#000000" stroke-width="1"  />
<line x1="1140" y1="300" x2="1180" y2="300" stroke-linecap="round" stroke="#000000"  stroke-width="1" />
<line x1="1160" y1="280" x2="1160" y2="320" stroke="#000000" stroke-linecap="round"  stroke-width="1" />
<circle r="10" cx="1160" cy="300" fill="white" fill-opacity="0" stroke="#000000" stroke-width="1"  />
<line x1="40" y1="500" x2="1160" y2="500" stroke-linecap="round" stroke="#5f5f5f" stroke-dasharray="2" stroke-width="1" />
<line x1="20" y1="500" x2="60" y2="500" stroke-linecap="round" stroke="#000000"  stroke-width="1" />
<line x1="40" y1="480" x2="40" y2="520" stroke="#000000" stroke-linecap="round"  stroke-width="1" />
<circle r="10" cx="40" cy="500" fill="white" fill-opacity="0" stroke="#000000" stroke-width="1"  />
<line x1="1140" y1="500" x2="1180" y2="500" stroke-linecap="round" stroke="#000000"  stroke-width="1" />
<line x1="1160" y1="480" x2="1160" y2="520" stroke="#000000" stroke-linecap="round"  stroke-width="1" />
<circle r="10" cx="1160" cy="500" fill="white" fill-opacity="0" stroke="#000000" stroke-width="1"  />
<line x1="600" y1="90" x2="600" y2="650" stroke="#5f5f5f" stroke-linecap="round" stroke-dasharray="2" stroke-width="1" />
<line x1="580" y1="90" x2="620" y2="90" stroke-linecap="round" stroke="#000000"  stroke-width="1" />
<line x1="600" y1="70" x2="600" y2="110" stroke="#000000" stroke-linecap="round"  stroke-width="1" />
<circle r="10" cx="600" cy="90" fill="white" fill-opacity="0" stroke="#000000" stroke-width="1"  />
<line x1="580" y1="650" x2="620" y2="650" stroke-linecap="round" stroke="#000000"  stroke-width="1" />
<line x1="600" y1="630" x2="600" y2="670" stroke="#000000" stroke-linecap="round"  stroke-width="1" />
<circle r="10" cx="600" cy="650" fill="white" fill-opacity="0" stroke="#000000" stroke-width="1"  />
<text x="30" y="50" font-size="2.0em" font-weight="bold"> Unbranded // Metal Black (Model #: unknown)</text>
<line x1="241.25" y1="189.5" x2="241.25" y2="300" stroke="#cfcfcf" stroke-linecap="round"  stroke-width="1" />
<line x1="241.25" y1="180" x2="241.25" y2="300" stroke="#cfcfcf" stroke-linecap="round"  stroke-width="1" />
<line x1="326.25" y1="180" x2="326.25" y2="300" stroke="#cfcfcf" stroke-linecap="round"  stroke-width="1" />
<line x1="326.25" y1="180" x2="326.25" y2="300" stroke="#cfcfcf" stroke-linecap="round"  stroke-width="1" />
<line x1="333.75" y1="180" x2="333.75" y2="300" stroke="#cfcfcf" stroke-linecap="round"  stroke-width="1" />
<line x1="518.75" y1="180" x2="518.75" y2="300" stroke="#cfcfcf" stroke-linecap="round"  stroke-width="1" />
<line x1="848.75" y1="180" x2="848.75" y2="300" stroke="#cfcfcf" stroke-linecap="round"  stroke-width="1" />
<line x1="693.75" y1="220" x2="693.75" y2="300" stroke="#cfcfcf" stroke-linecap="round"  stroke-width="1" />
<line x1="851.25" y1="220" x2="851.25" y2="300" stroke="#cfcfcf" stroke-linecap="round"  stroke-width="1" />
<line x1="886.25" y1="180" x2="886.25" y2="300" stroke="#cfcfcf" stroke-linecap="round"  stroke-width="1" />
<line x1="897.5" y1="180" x2="897.5" y2="300" stroke="#cfcfcf" stroke-linecap="round"  stroke-width="1" />
<line x1="958.75" y1="189.5" x2="958.75" y2="300" stroke="#cfcfcf" stroke-linecap="round"  stroke-width="1" />
<line x1="241.25" y1="169" x2="241.25" y2="191" stroke="black" stroke-width="1" />
<line x1="241.25" y1="180" x2="326.25" y2="180" stroke="black" stroke-width="1" />
<line x1="326.25" y1="169" x2="326.25" y2="191" stroke="black" stroke-width="1" />
<text x="283.75" y="161" font-size="1.2em" transform="rotate(-90, 271.75, 161)" font-weight="bold" text-anchor="start" dominant-baseline="central" fill="black"><tspan x="275.75" dy="0">17.00 mm</tspan><tspan x="275.75" dy="1em">tip</tspan></text>
<line x1="326.25" y1="169" x2="326.25" y2="191" stroke="black" stroke-width="1" />
<line x1="326.25" y1="180" x2="333.75" y2="180" stroke="black" stroke-width="1" />
<line x1="333.75" y1="169" x2="333.75" y2="191" stroke="black" stroke-width="1" />
<text x="330" y="161" font-size="1.2em" transform="rotate(-90, 330, 161)" font-weight="bold" text-anchor="start" dominant-baseline="central" fill="black"><tspan x="330" dy="0">1.50 mm head</tspan></text>
<line x1="333.75" y1="169" x2="333.75" y2="191" stroke="black" stroke-width="1" />
<line x1="333.75" y1="180" x2="518.75" y2="180" stroke="black" stroke-width="1" />
<line x1="518.75" y1="169" x2="518.75" y2="191" stroke="black" stroke-width="1" />
<text x="426.25" y="161" font-size="1.2em" transform="rotate(-90, 414.25, 161)" font-weight="bold" text-anchor="start" dominant-baseline="central" fill="black"><tspan x="418.25" dy="0">37.00 mm</tspan><tspan x="418.25" dy="1em">grip</tspan></text>
<line x1="518.75" y1="169" x2="518.75" y2="191" stroke="black" stroke-width="1" />
<line x1="518.75" y1="180" x2="848.75" y2="180" stroke="black" stroke-width="1" />
<line x1="848.75" y1="169" x2="848.75" y2="191" stroke="black" stroke-width="1" />
<text x="683.75" y="161" font-size="1.2em" transform="rotate(-90, 671.75, 161)" font-weight="bold" text-anchor="start" dominant-baseline="central" fill="black"><tspan x="675.75" dy="0">66.00 mm</tspan><tspan x="675.75" dy="1em">body</tspan></text>
<line x1="848.75" y1="169" x2="848.75" y2="191" stroke="black" stroke-width="1" />
<line x1="848.75" y1="180" x2="886.25" y2="180" stroke="black" stroke-width="1" />
<line x1="886.25" y1="169" x2="886.25" y2="191" stroke="black" stroke-width="1" />
<text x="867.5" y="161" font-size="1.2em" transform="rotate(-90, 855.5, 161)" font-weight="bold" text-anchor="start" dominant-baseline="central" fill="black"><tspan x="859.5" dy="0">7.50 mm</tspan><tspan x="859.5" dy="1em">clip</tspan></text>
<line x1="693.75" y1="209" x2="693.75" y2="231" stroke="black" stroke-width="1" />
<line x1="693.75" y1="220" x2="851.25" y2="220" stroke="black" stroke-width="1" />
<line x1="851.25" y1="209" x2="851.25" y2="231" stroke="black" stroke-width="1" />
<text x="772.5" y="212" font-weight="bold" font-size="1.2em" stroke="white" stroke-width="0.25" text-anchor="middle" dominant-baseline="middle" fill="black"><tspan x="764.5" dy="0">31.50 mm</tspan><tspan x="764.5" dy="1em">clip (extra)</tspan></text>
<line x1="886.25" y1="169" x2="886.25" y2="191" stroke="black" stroke-width="1" />
<line x1="886.25" y1="180" x2="897.5" y2="180" stroke="black" stroke-width="1" />
<line x1="897.5" y1="169" x2="897.5" y2="191" stroke="black" stroke-width="1" />
<text x="891.875" y="161" font-size="1.2em" transform="rotate(-90, 891.875, 161)" font-weight="bold" text-anchor="start" dominant-baseline="central" fill="black"><tspan x="891.875" dy="0">2.25 mm tail</tspan></text>
<line x1="897.5" y1="169" x2="897.5" y2="191" stroke="black" stroke-width="1" />
<line x1="897.5" y1="180" x2="958.75" y2="180" stroke="black" stroke-width="1" />
<line x1="958.75" y1="169" x2="958.75" y2="191" stroke="black" stroke-width="1" />
<text x="928.125" y="161" font-size="1.2em" transform="rotate(-90, 916.125, 161)" font-weight="bold" text-anchor="start" dominant-baseline="central" fill="black"><tspan x="920.125" dy="0">12.25 mm</tspan><tspan x="920.125" dy="1em">cap</tspan></text>
<path d="M241.25 293.125 L258.75 293.125 L258.75 306.875 L241.25 306.875 Z" stroke-width="0.5" stroke="black" stroke-linejoin="round" fill="white" fill-opacity="1" />
<path d="M258.75 288.75 L302.5 281.25 L302.5 318.75 L258.75 311.25 Z" stroke-width="0.5" stroke="black" stroke-linejoin="round" fill="white" fill-opacity="1" />
<path d="M302.5 281.25 L326.25 281.25 L326.25 318.75 L302.5 318.75 Z" stroke-width="0.5" stroke="black" stroke-linejoin="round" fill="white" fill-opacity="1" />
<path d="M326.25 278.75 L333.75 278.75 L333.75 321.25 L326.25 321.25 Z" stroke-width="0.5" stroke="black" stroke-linejoin="round" fill="white" fill-opacity="1" />
<path d="M333.75 277.5 L346.25 277.5 L346.25 322.5 L333.75 322.5 Z" stroke-width="0.5" stroke="black" stroke-linejoin="round" fill="white" fill-opacity="1" />
<path d="M333.75 277.5 L346.25 277.5 L346.25 322.5 L333.75 322.5 Z" stroke-width="1.0" stroke="black" fill="url(#knurled)"/>
<path d="M346.25 278.75 L351.25 278.75 L351.25 321.25 L346.25 321.25 Z" stroke-width="0.5" stroke="black" stroke-linejoin="round" fill="white" fill-opacity="1" />
<path d="M351.25 277.5 L363.75 277.5 L363.75 322.5 L351.25 322.5 Z" stroke-width="0.5" stroke="black" stroke-linejoin="round" fill="white" fill-opacity="1" />
<path d="M351.25 277.5 L363.75 277.5 L363.75 322.5 L351.25 322.5 Z" stroke-width="1.0" stroke="black" fill="url(#knurled)"/>
<path d="M363.75 278.75 L368.75 278.75 L368.75 321.25 L363.75 321.25 Z" stroke-width="0.5" stroke="black" stroke-linejoin="round" fill="white" fill-opacity="1" />
<path d="M368.75 277.5 L381.25 277.5 L381.25 322.5 L368.75 322.5 Z" stroke-width="0.5" stroke="black" stroke-linejoin="round" fill="white" fill-opacity="1" />
<path d="M368.75 277.5 L381.25 277.5 L381.25 322.5 L368.75 322.5 Z" stroke-width="1.0" stroke="black" fill="url(#knurled)"/>
<path d="M381.25 278.75 L386.25 278.75 L386.25 321.25 L381.25 321.25 Z" stroke-width="0.5" stroke="black" stroke-linejoin="round" fill="white" fill-opacity="1" />
<path d="M386.25 277.5 L398.75 277.5 L398.75 322.5 L386.25 322.5 Z" stroke-width="0.5" stroke="black" stroke-linejoin="round" fill="white" fill-opacity="1" />
<path d="M386.25 277.5 L398.75 277.5 L398.75 322.5 L386.25 322.5 Z" stroke-width="1.0" stroke="black" fill="url(#knurled)"/>
<path d="M398.75 278.75 L403.75 278.75 L403.75 321.25 L398.75 321.25 Z" stroke-width="0.5" stroke="black" stroke-linejoin="round" fill="white" fill-opacity="1" />
<path d="M403.75 277.5 L416.25 277.5 L416.25 322.5 L403.75 322.5 Z" stroke-width="0.5" stroke="black" stroke-linejoin="round" fill="white" fill-opacity="1" />
<path d="M403.75 277.5 L416.25 277.5 L416.25 322.5 L403.75 322.5 Z" stroke-width="1.0" stroke="black" fill="url(#knurled)"/>
<path d="M416.25 278.75 L421.25 278.75 L421.25 321.25 L416.25 321.25 Z" stroke-width="0.5" stroke="black" stroke-linejoin="round" fill="white" fill-opacity="1" />
<path d="M421.25 277.5 L518.75 277.5 L518.75 322.5 L421.25 322.5 Z" stroke-width="0.5" stroke="black" stroke-linejoin="round" fill="white" fill-opacity="1" />
<path d="M421.25 277.5 L518.75 277.5 L518.75 322.5 L421.25 322.5 Z" stroke-width="1.0" stroke="black" fill="url(#knurled)"/>
<path d="M518.75 280 L848.75 280 L848.75 320 L518.75 320 Z" stroke-width="0.5" stroke="black" stroke-linejoin="round" fill="white" fill-opacity="1" />
<line x1="518.75" y1="300" x2="848.75" y2="300" stroke-width="1.5" stroke="black" fill="none" stroke-opacity="0.5"/>
<line x1="518.75" y1="300" x2="848.75" y2="300" stroke-width="0.5" stroke="gray" fill="none" stroke-opacity="0.5"/>
<line x1="692.5" y1="269.375" x2="702.5" y2="278.125" stroke-width="4" stroke="black" fill="dimgray" stroke-linecap="round" />
<line x1="702.5" y1="278.125" x2="825" y2="264.375" stroke-width="4" stroke="black" fill="dimgray" stroke-linecap="round" />
<path d="M825 264.375 Q830.625 264.375 836.25 268.125" stroke-width="4" stroke="black" fill="none" stroke-linecap="round" />
<line x1="836.25" y1="268.125" x2="851.25" y2="279.375" stroke-width="4" stroke="black" fill="dimgray" stroke-linecap="round" />
<path d="M848.75 277.5 L886.25 277.5 L886.25 322.5 L848.75 322.5 Z" stroke-width="0.5" stroke="black" stroke-linejoin="round" fill="white" fill-opacity="1" />
<line x1="692.5" y1="269.375" x2="702.5" y2="278.125" stroke-width="3" stroke="white" fill="white" stroke-linecap="round" />
<line x1="702.5" y1="278.125" x2="825" y2="264.375" stroke-width="3" stroke="white" fill="white" stroke-linecap="round" />
<path d="M825 264.375 Q830.625 264.375 836.25 268.125" stroke-width="3" stroke="white" fill="none" stroke-linecap="round" />
<line x1="836.25" y1="268.125" x2="851.25" y2="279.375" stroke-width="3" stroke="white" fill="white" stroke-linecap="round" />
<path d="M886.25 281.25 L897.5 281.25 L897.5 318.75 L886.25 318.75 Z" stroke-width="0.5" stroke="black" stroke-linejoin="round" fill="white" fill-opacity="1" />
<path d="M897.5 284.375 L908.75 284.375 L908.75 315.625 L897.5 315.625 Z" stroke-width="0.5" stroke="black" stroke-linejoin="round" fill="white" fill-opacity="1" />
<path d="M908.75 284.375 L922.5 285.625 L922.5 314.375 L908.75 315.625 Z" stroke-width="0.5" stroke="black" stroke-linejoin="round" fill="white" fill-opacity="1" />
<path d="M922.5 285.625 L958.75 285.625 L958.75 314.375 L922.5 314.375 Z" stroke-width="0.5" stroke="black" stroke-linejoin="round" fill="white" fill-opacity="1" />
<path d="M305 488.125 L326.25 488.125 L326.25 511.875 L305 511.875 Z" stroke-width="0.5" stroke="black" stroke-linejoin="round" fill="white" fill-opacity="1" />
<path d="M305 488.125 L326.25 488.125 L326.25 511.875 L305 511.875 Z" stroke-width="1.0" stroke="black" fill="url(#threaded)"/>
<line x1="305" y1="486.125" x2="310" y2="513.875" stroke="dimgray" stroke-linecap="round" stroke-width="2" />
<line x1="305" y1="486.125" x2="310" y2="513.875" stroke="[object Object]" stroke-linecap="round" stroke-width="1" />
<line x1="310" y1="486.125" x2="315" y2="513.875" stroke="dimgray" stroke-linecap="round" stroke-width="2" />
<line x1="310" y1="486.125" x2="315" y2="513.875" stroke="[object Object]" stroke-linecap="round" stroke-width="1" />
<line x1="315" y1="486.125" x2="320" y2="513.875" stroke="dimgray" stroke-linecap="round" stroke-width="2" />
<line x1="315" y1="486.125" x2="320" y2="513.875" stroke="[object Object]" stroke-linecap="round" stroke-width="1" />
<line x1="320" y1="486.125" x2="325" y2="513.875" stroke="dimgray" stroke-linecap="round" stroke-width="2" />
<line x1="320" y1="486.125" x2="325" y2="513.875" stroke="[object Object]" stroke-linecap="round" stroke-width="1" />
<path d="M326.25 488.125 L332.5 488.125 L332.5 511.875 L326.25 511.875 Z" stroke-width="0.5" stroke="black" stroke-linejoin="round" fill="white" fill-opacity="1" />
<path d="M326.25 488.125 L332.5 488.125 L332.5 511.875 L326.25 511.875 Z" stroke-width="1.0" stroke="black" fill="url(#threaded)"/>
<line x1="326.25" y1="486.125" x2="331.25" y2="513.875" stroke="dimgray" stroke-linecap="round" stroke-width="2" />
<line x1="326.25" y1="486.125" x2="331.25" y2="513.875" stroke="[object Object]" stroke-linecap="round" stroke-width="1" />
<path d="M332.5 487.5 L341.25 487.5 L341.25 512.5 L332.5 512.5 Z" stroke-width="0.5" stroke="black" stroke-linejoin="round" fill="white" fill-opacity="1" />
<path d="M341.25 488.125 L356.25 488.125 L356.25 511.875 L341.25 511.875 Z" stroke-width="0.5" stroke="black" stroke-linejoin="round" fill="white" fill-opacity="1" />
<line x1="341.25" y1="500" x2="356.25" y2="500" stroke-width="1.5" stroke="black" fill="none" stroke-opacity="0.5"/>
<line x1="341.25" y1="500" x2="356.25" y2="500" stroke-width="0.5" stroke="gray" fill="none" stroke-opacity="0.5"/>
<path d="M356.25 493.125 L383.75 493.125 L383.75 506.875 L356.25 506.875 Z" stroke-width="0.5" stroke="black" stroke-linejoin="round" fill="white" fill-opacity="1" />
<path d="M356.25 493.125 L383.75 493.125 L383.75 506.875 L356.25 506.875 Z" stroke-width="1.0" stroke="black" fill="url(#spring)"/>
<rect x="361.25" y="488.125" width="17.5" height="23.75" stroke-width="0.0" stroke="black" fill="url(#spring)"/>
<line x1="356.75" y1="488.125" x2="356.75" y2="511.875" stroke="dimgray" stroke-linecap="round" stroke-width="2" />
<line x1="356.75" y1="488.125" x2="356.75" y2="511.875" stroke="white" stroke-linecap="round" stroke-width="1" />
<line x1="383.25" y1="488.125" x2="383.25" y2="511.875" stroke="dimgray" stroke-linecap="round" stroke-width="2" />
<line x1="383.25" y1="488.125" x2="383.25" y2="511.875" stroke="white" stroke-linecap="round" stroke-width="1" />
<line x1="358.75" y1="488.125" x2="358.75" y2="511.875" stroke="dimgray" stroke-linecap="round" stroke-width="2" />
<line x1="358.75" y1="488.125" x2="358.75" y2="511.875" stroke="white" stroke-linecap="round" stroke-width="1" />
<line x1="381.25" y1="488.125" x2="381.25" y2="511.875" stroke="dimgray" stroke-linecap="round" stroke-width="2" />
<line x1="381.25" y1="488.125" x2="381.25" y2="511.875" stroke="white" stroke-linecap="round" stroke-width="1" />
<line x1="360.75" y1="488.125" x2="360.75" y2="511.875" stroke="dimgray" stroke-linecap="round" stroke-width="2" />
<line x1="360.75" y1="488.125" x2="360.75" y2="511.875" stroke="white" stroke-linecap="round" stroke-width="1" />
<line x1="379.25" y1="488.125" x2="379.25" y2="511.875" stroke="dimgray" stroke-linecap="round" stroke-width="2" />
<line x1="379.25" y1="488.125" x2="379.25" y2="511.875" stroke="white" stroke-linecap="round" stroke-width="1" />
<line x1="362.75" y1="488.125" x2="362.75" y2="511.875" stroke="dimgray" stroke-linecap="round" stroke-width="2" />
<line x1="362.75" y1="488.125" x2="362.75" y2="511.875" stroke="white" stroke-linecap="round" stroke-width="1" />
<line x1="377.25" y1="488.125" x2="377.25" y2="511.875" stroke="dimgray" stroke-linecap="round" stroke-width="2" />
<line x1="377.25" y1="488.125" x2="377.25" y2="511.875" stroke="white" stroke-linecap="round" stroke-width="1" />
<path d="M383.75 493.125 L402.5 493.125 L402.5 506.875 L383.75 506.875 Z" stroke-width="0.5" stroke="black" stroke-linejoin="round" fill="white" fill-opacity="1" />
<path d="M383.75 490 L918.75 490 L918.75 510 L383.75 510 Z" stroke-width="0.5" stroke="black" stroke-linejoin="round" fill="white" fill-opacity="1" />
</g><text x="50%" y="720" font-size="1.1em" font-weight="bold" text-anchor="middle" dominant-baseline="middle">Copyright (c) // The Mechanical Pencil Database (tmpdb) // Licensed under Creative Commons Attribution-NonCommercial-ShareAlike 4.0 International</text>
<text x="1190" y="730" font-size="0.5em" font-weight="bold" text-anchor="end" dominant-baseline="middle">SVGTechnicalComponentRenderer</text>
</svg>