<svg xmlns="http://www.w3.org/2000/svg" width="1200" height="449">
 <pattern id="knurled-large" patternUnits="userSpaceOnUse" width="12" height="12">
<path stroke="dimgray" stroke-linecap="round" stroke-width="1" d="M 6,6 L 12,12"/>
<path stroke="dimgray" stroke-linecap="round" stroke-width="1" d="M 6,6 L 0,12"/>
<path stroke="gray" stroke-linecap="round" stroke-width="1" d="M 6,6 L 12,0" />
<path stroke="gray" stroke-linecap="round" stroke-width="1" d="M 6,6 L 0,0" />
</pattern><pattern id="knurled-small" patternUnits="userSpaceOnUse" width="4" height="4">
<path stroke="dimgray" stroke-linecap="round" stroke-width="1" d="M 2,2 L 4,4"/>
<path stroke="dimgray" stroke-linecap="round" stroke-width="1" d="M 2,2 L 0,4"/>
<path stroke="gray" stroke-linecap="round" stroke-width="1" d="M 2,2 L 4,0" />
<path stroke="gray" stroke-linecap="round" stroke-width="1" d="M 2,2 L 0,0" />
</pattern><pattern id="knurled" patternUnits="userSpaceOnUse" width="8" height="8">
<path stroke="dimgray" stroke-linecap="round" stroke-width="1" d="M 4,4 L 8,8"/>
<path stroke="dimgray" stroke-linecap="round" stroke-width="1" d="M 4,4 L 0,8"/>
<path stroke="gray" stroke-linecap="round" stroke-width="1" d="M 4,4 L 8,0" />
<path stroke="gray" stroke-linecap="round" stroke-width="1" d="M 4,4 L 0,0" />
</pattern><pattern id="lined" patternUnits="userSpaceOnUse" width="3" height="3">
<path stroke="dimgray" stroke-linecap="round" stroke-width="1" d="M 0,0 L 3,0"/>
</pattern><pattern id="ridged" patternUnits="userSpaceOnUse" width="3" height="3">
<path stroke="dimgray" stroke-linecap="round" stroke-width="1" d="M 0,0 L 0,3"/>
</pattern><pattern id="spring" patternUnits="userSpaceOnUse" width="8" height="100">
<path stroke="dimgray" stroke-linecap="round" stroke-width="2" d="M 1,1 L 9,99"/>
<path stroke="white" stroke-linecap="round" stroke-width="1" d="M 1,1 L 9,99"/>
</pattern><pattern id="knurled" patternUnits="userSpaceOnUse" width="8" height="8">
<path stroke="dimgray" stroke-linecap="round" stroke-width="1" d="M 4,4 L 8,8"/>
<path stroke="dimgray" stroke-linecap="round" stroke-width="1" d="M 4,4 L 0,8"/>
<path stroke="gray" stroke-linecap="round" stroke-width="1" d="M 4,4 L 8,0" />
<path stroke="gray" stroke-linecap="round" stroke-width="1" d="M 4,4 L 0,0" />
</pattern><rect x="0" y="0" width="1200" height="449" fill="white" stroke="black" stroke-width="4" />
<rect x="2" y="2" width="1196" height="445" fill="white" stroke="dimgray" stroke-width="1" />
<g transform="rotate(0 0 0)">
<text x="30" y="50" font-size="2.0em" font-weight="bold"> Unbranded // Metal Black (Model #: unknown)</text>


<!-- renderExplodedSideComponents -->


<!-- renderSideComponent: tip -->


<!-- renderPart: cylinder -->
<path d="M241.25 153.125 L258.75 153.125 L258.75 166.875 L241.25 166.875 Z" stroke-width="0.5" stroke="black" stroke-linejoin="round" fill="white" fill-opacity="1"/>


<!-- renderPart: cone -->
<path d="M258.75 148.75 L302.5 141.25 L302.5 178.75 L258.75 171.25 Z" stroke-width="0.5" stroke="black" stroke-linejoin="round" fill="white" fill-opacity="1"/>


<!-- renderPart: cylinder -->
<path d="M302.5 141.25 L326.25 141.25 L326.25 178.75 L302.5 178.75 Z" stroke-width="0.5" stroke="black" stroke-linejoin="round" fill="white" fill-opacity="1"/>


<!-- DASHED JOIN -->
<path d="M 341.25 160 L 361.25 160 L 361.25 220 L 260 220 L 260 280 L 305 280 " fill="none" stroke="white" stroke-width="2" stroke-dasharray="8,4" stroke-linecap="round"  />
<path d="M 341.25 160 L 361.25 160 L 361.25 220 L 260 220 L 260 280 L 305 280 " fill="none" stroke="black" stroke-width="1" stroke-dasharray="8,4" stroke-linecap="round"  />


<!-- ARROW START -->
<line x1="331.25" y1="160" x2="338.25" y2="160" stroke-linecap="round" stroke="#ffffff" stroke-width="2.0" />
<line x1="331.25" y1="160" x2="345.25" y2="152" stroke-linecap="round" stroke="#ffffff" stroke-width="2.0" />
<line x1="345.25" y1="152" x2="338.25" y2="160" stroke-linecap="round" stroke="#ffffff" stroke-width="2.0" />
<line x1="331.25" y1="160" x2="345.25" y2="168" stroke-linecap="round" stroke="#ffffff" stroke-width="2.0" />
<line x1="345.25" y1="168" x2="338.25" y2="160" stroke-linecap="round" stroke="#ffffff" stroke-width="2.0" />
<line x1="331.25" y1="160" x2="345.25" y2="152" stroke-linecap="round" stroke="#0f0f0f" stroke-width="1.0" />
<line x1="345.25" y1="152" x2="338.25" y2="160" stroke-linecap="round" stroke="#0f0f0f" stroke-width="1.0" />
<line x1="331.25" y1="160" x2="345.25" y2="168" stroke-linecap="round" stroke="#0f0f0f" stroke-width="1.0" />
<line x1="345.25" y1="168" x2="338.25" y2="160" stroke-linecap="round" stroke="#0f0f0f" stroke-width="1.0" />


<!-- ARROW START -->
<line x1="275" y1="280" x2="282" y2="280" stroke-linecap="round" stroke="#ffffff" stroke-width="2.0" />
<line x1="275" y1="280" x2="289" y2="272" stroke-linecap="round" stroke="#ffffff" stroke-width="2.0" />
<line x1="289" y1="272" x2="282" y2="280" stroke-linecap="round" stroke="#ffffff" stroke-width="2.0" />
<line x1="275" y1="280" x2="289" y2="288" stroke-linecap="round" stroke="#ffffff" stroke-width="2.0" />
<line x1="289" y1="288" x2="282" y2="280" stroke-linecap="round" stroke="#ffffff" stroke-width="2.0" />
<line x1="275" y1="280" x2="289" y2="272" stroke-linecap="round" stroke="#0f0f0f" stroke-width="1.0" />
<line x1="289" y1="272" x2="282" y2="280" stroke-linecap="round" stroke="#0f0f0f" stroke-width="1.0" />
<line x1="275" y1="280" x2="289" y2="288" stroke-linecap="round" stroke="#0f0f0f" stroke-width="1.0" />
<line x1="289" y1="288" x2="282" y2="280" stroke-linecap="round" stroke="#0f0f0f" stroke-width="1.0" />


<!-- renderPart: cylinder -->
<path d="M305 268.125 L326.25 268.125 L326.25 291.875 L305 291.875 Z" stroke-width="0.5" stroke="black" stroke-linejoin="round" fill="white" fill-opacity="1"/>
<path d="M305 268.125 L326.25 268.125 L326.25 291.875 L305 291.875 Z" stroke-width="1.0" stroke="black" fill="url(#threaded)"/>
<line x1="305" y1="266.125" x2="310" y2="293.875" stroke="dimgray" stroke-linecap="round" stroke-width="2" />
<line x1="305" y1="266.125" x2="310" y2="293.875" stroke="[object Object]" stroke-linecap="round" stroke-width="1" />
<line x1="310" y1="266.125" x2="315" y2="293.875" stroke="dimgray" stroke-linecap="round" stroke-width="2" />
<line x1="310" y1="266.125" x2="315" y2="293.875" stroke="[object Object]" stroke-linecap="round" stroke-width="1" />
<line x1="315" y1="266.125" x2="320" y2="293.875" stroke="dimgray" stroke-linecap="round" stroke-width="2" />
<line x1="315" y1="266.125" x2="320" y2="293.875" stroke="[object Object]" stroke-linecap="round" stroke-width="1" />
<line x1="320" y1="266.125" x2="325" y2="293.875" stroke="dimgray" stroke-linecap="round" stroke-width="2" />
<line x1="320" y1="266.125" x2="325" y2="293.875" stroke="[object Object]" stroke-linecap="round" stroke-width="1" />
<line x1="326.25" y1="240" x2="326.25" y2="320" stroke="white" stroke-linecap="round"  stroke-width="1" />
<line x1="326.25" y1="240" x2="326.25" y2="320" stroke="black" stroke-linecap="round" stroke-dasharray="4,2" stroke-width="1" />


<!-- renderSideComponent: shaft -->


<!-- renderPart: cylinder -->
<path d="M326.25 268.125 L332.5 268.125 L332.5 291.875 L326.25 291.875 Z" stroke-width="0.5" stroke="black" stroke-linejoin="round" fill="white" fill-opacity="1"/>
<path d="M326.25 268.125 L332.5 268.125 L332.5 291.875 L326.25 291.875 Z" stroke-width="1.0" stroke="black" fill="url(#threaded)"/>
<line x1="326.25" y1="266.125" x2="331.25" y2="293.875" stroke="dimgray" stroke-linecap="round" stroke-width="2" />
<line x1="326.25" y1="266.125" x2="331.25" y2="293.875" stroke="[object Object]" stroke-linecap="round" stroke-width="1" />


<!-- renderPart: cylinder -->
<path d="M332.5 267.5 L341.25 267.5 L341.25 292.5 L332.5 292.5 Z" stroke-width="0.5" stroke="black" stroke-linejoin="round" fill="white" fill-opacity="1"/>


<!-- renderPart: hexagonal -->
<path d="M341.25 268.125 L356.25 268.125 L356.25 291.875 L341.25 291.875 Z" stroke-width="0.5" stroke="black" stroke-linejoin="round" fill="white" fill-opacity="1"/>


<!-- renderPart: cylinder -->
<path d="M356.25 273.125 L383.75 273.125 L383.75 286.875 L356.25 286.875 Z" stroke-width="0.5" stroke="black" stroke-linejoin="round" fill="white" fill-opacity="1"/>
<path d="M356.25 273.125 L383.75 273.125 L383.75 286.875 L356.25 286.875 Z" stroke-width="1.0" stroke="black" fill="url(#spring)"/>
<rect x="361.25" y="268.125" width="17.5" height="23.75" stroke-width="0.0" stroke="black" fill="url(#spring)"/>
<line x1="356.75" y1="268.125" x2="356.75" y2="291.875" stroke="dimgray" stroke-linecap="round" stroke-width="2" />
<line x1="356.75" y1="268.125" x2="356.75" y2="291.875" stroke="white" stroke-linecap="round" stroke-width="1" />
<line x1="383.25" y1="268.125" x2="383.25" y2="291.875" stroke="dimgray" stroke-linecap="round" stroke-width="2" />
<line x1="383.25" y1="268.125" x2="383.25" y2="291.875" stroke="white" stroke-linecap="round" stroke-width="1" />
<line x1="358.75" y1="268.125" x2="358.75" y2="291.875" stroke="dimgray" stroke-linecap="round" stroke-width="2" />
<line x1="358.75" y1="268.125" x2="358.75" y2="291.875" stroke="white" stroke-linecap="round" stroke-width="1" />
<line x1="381.25" y1="268.125" x2="381.25" y2="291.875" stroke="dimgray" stroke-linecap="round" stroke-width="2" />
<line x1="381.25" y1="268.125" x2="381.25" y2="291.875" stroke="white" stroke-linecap="round" stroke-width="1" />
<line x1="360.75" y1="268.125" x2="360.75" y2="291.875" stroke="dimgray" stroke-linecap="round" stroke-width="2" />
<line x1="360.75" y1="268.125" x2="360.75" y2="291.875" stroke="white" stroke-linecap="round" stroke-width="1" />
<line x1="379.25" y1="268.125" x2="379.25" y2="291.875" stroke="dimgray" stroke-linecap="round" stroke-width="2" />
<line x1="379.25" y1="268.125" x2="379.25" y2="291.875" stroke="white" stroke-linecap="round" stroke-width="1" />
<line x1="362.75" y1="268.125" x2="362.75" y2="291.875" stroke="dimgray" stroke-linecap="round" stroke-width="2" />
<line x1="362.75" y1="268.125" x2="362.75" y2="291.875" stroke="white" stroke-linecap="round" stroke-width="1" />
<line x1="377.25" y1="268.125" x2="377.25" y2="291.875" stroke="dimgray" stroke-linecap="round" stroke-width="2" />
<line x1="377.25" y1="268.125" x2="377.25" y2="291.875" stroke="white" stroke-linecap="round" stroke-width="1" />


<!-- renderPart: cylinder -->
<path d="M383.75 273.125 L402.5 273.125 L402.5 286.875 L383.75 286.875 Z" stroke-width="0.5" stroke="black" stroke-linejoin="round" fill="white" fill-opacity="1"/>


<!-- renderPart: cylinder -->
<path d="M383.75 270 L918.75 270 L918.75 290 L383.75 290 Z" stroke-width="0.5" stroke="black" stroke-linejoin="round" fill="white" fill-opacity="1"/>


<!-- Previous part white -->


<!-- renderPart: cylinder -->
<path d="M383.75 273.125 L402.5 273.125 L402.5 286.875 L383.75 286.875 Z" stroke-width="0.5" stroke="black" stroke-linejoin="round" fill="white" fill-opacity="1"/>


<!-- renderSideComponent: head -->


<!-- renderPart: cylinder -->
<path d="M326.25 258.75 L333.75 258.75 L333.75 301.25 L326.25 301.25 Z" stroke-width="0.5" stroke="black" stroke-linejoin="round" fill="white" fill-opacity="1"/>


<!-- renderSideComponent: grip -->


<!-- renderPart: cylinder -->
<path d="M333.75 257.5 L346.25 257.5 L346.25 302.5 L333.75 302.5 Z" stroke-width="0.5" stroke="black" stroke-linejoin="round" fill="white" fill-opacity="1"/>
<path d="M333.75 257.5 L346.25 257.5 L346.25 302.5 L333.75 302.5 Z" stroke-width="1.0" stroke="black" fill="url(#knurled)"/>


<!-- renderPart: cylinder -->
<path d="M346.25 258.75 L351.25 258.75 L351.25 301.25 L346.25 301.25 Z" stroke-width="0.5" stroke="black" stroke-linejoin="round" fill="white" fill-opacity="1"/>


<!-- renderPart: cylinder -->
<path d="M351.25 257.5 L363.75 257.5 L363.75 302.5 L351.25 302.5 Z" stroke-width="0.5" stroke="black" stroke-linejoin="round" fill="white" fill-opacity="1"/>
<path d="M351.25 257.5 L363.75 257.5 L363.75 302.5 L351.25 302.5 Z" stroke-width="1.0" stroke="black" fill="url(#knurled)"/>


<!-- renderPart: cylinder -->
<path d="M363.75 258.75 L368.75 258.75 L368.75 301.25 L363.75 301.25 Z" stroke-width="0.5" stroke="black" stroke-linejoin="round" fill="white" fill-opacity="1"/>


<!-- renderPart: cylinder -->
<path d="M368.75 257.5 L381.25 257.5 L381.25 302.5 L368.75 302.5 Z" stroke-width="0.5" stroke="black" stroke-linejoin="round" fill="white" fill-opacity="1"/>
<path d="M368.75 257.5 L381.25 257.5 L381.25 302.5 L368.75 302.5 Z" stroke-width="1.0" stroke="black" fill="url(#knurled)"/>


<!-- renderPart: cylinder -->
<path d="M381.25 258.75 L386.25 258.75 L386.25 301.25 L381.25 301.25 Z" stroke-width="0.5" stroke="black" stroke-linejoin="round" fill="white" fill-opacity="1"/>


<!-- renderPart: cylinder -->
<path d="M386.25 257.5 L398.75 257.5 L398.75 302.5 L386.25 302.5 Z" stroke-width="0.5" stroke="black" stroke-linejoin="round" fill="white" fill-opacity="1"/>
<path d="M386.25 257.5 L398.75 257.5 L398.75 302.5 L386.25 302.5 Z" stroke-width="1.0" stroke="black" fill="url(#knurled)"/>


<!-- renderPart: cylinder -->
<path d="M398.75 258.75 L403.75 258.75 L403.75 301.25 L398.75 301.25 Z" stroke-width="0.5" stroke="black" stroke-linejoin="round" fill="white" fill-opacity="1"/>


<!-- renderPart: cylinder -->
<path d="M403.75 257.5 L416.25 257.5 L416.25 302.5 L403.75 302.5 Z" stroke-width="0.5" stroke="black" stroke-linejoin="round" fill="white" fill-opacity="1"/>
<path d="M403.75 257.5 L416.25 257.5 L416.25 302.5 L403.75 302.5 Z" stroke-width="1.0" stroke="black" fill="url(#knurled)"/>


<!-- renderPart: cylinder -->
<path d="M416.25 258.75 L421.25 258.75 L421.25 301.25 L416.25 301.25 Z" stroke-width="0.5" stroke="black" stroke-linejoin="round" fill="white" fill-opacity="1"/>


<!-- renderPart: cylinder -->
<path d="M421.25 257.5 L518.75 257.5 L518.75 302.5 L421.25 302.5 Z" stroke-width="0.5" stroke="black" stroke-linejoin="round" fill="white" fill-opacity="1"/>
<path d="M421.25 257.5 L518.75 257.5 L518.75 302.5 L421.25 302.5 Z" stroke-width="1.0" stroke="black" fill="url(#knurled)"/>


<!-- renderSideComponent: body -->


<!-- renderPart: hexagonal -->
<path d="M518.75 260 L848.75 260 L848.75 300 L518.75 300 Z" stroke-width="0.5" stroke="black" stroke-linejoin="round" fill="white" fill-opacity="1"/>
<line x1="518.75" y1="280" x2="848.75" y2="280" stroke-width="1.5" stroke="gray" fill="gray" stroke-opacity="1.0"/>
<line x1="518.75" y1="280" x2="848.75" y2="280" stroke-width="0.5" stroke="black" fill="none" stroke-opacity="0.5"/>


<!-- renderSideComponent: clip -->
<line x1="692.5" y1="249.375" x2="702.5" y2="258.125" stroke-width="4" stroke="black" fill="dimgray" stroke-linecap="round" />
<line x1="702.5" y1="258.125" x2="825" y2="244.375" stroke-width="4" stroke="black" fill="dimgray" stroke-linecap="round" />
<path d="M825 244.375 Q830.625 244.375 836.25 248.125" stroke-width="4" stroke="black" fill="none" stroke-linecap="round" />
<line x1="836.25" y1="248.125" x2="851.25" y2="259.375" stroke-width="4" stroke="black" fill="dimgray" stroke-linecap="round" />


<!-- renderPart: cylinder -->
<path d="M848.75 257.5 L886.25 257.5 L886.25 302.5 L848.75 302.5 Z" stroke-width="0.5" stroke="black" stroke-linejoin="round" fill="white" fill-opacity="1"/>
<line x1="692.5" y1="249.375" x2="702.5" y2="258.125" stroke-width="3" stroke="white" fill="white" stroke-linecap="round" />
<line x1="702.5" y1="258.125" x2="825" y2="244.375" stroke-width="3" stroke="white" fill="white" stroke-linecap="round" />
<path d="M825 244.375 Q830.625 244.375 836.25 248.125" stroke-width="3" stroke="white" fill="none" stroke-linecap="round" />
<line x1="836.25" y1="248.125" x2="851.25" y2="259.375" stroke-width="3" stroke="white" fill="white" stroke-linecap="round" />


<!-- renderSideComponent: tail -->


<!-- renderPart: cylinder -->
<path d="M886.25 261.25 L897.5 261.25 L897.5 298.75 L886.25 298.75 Z" stroke-width="0.5" stroke="black" stroke-linejoin="round" fill="white" fill-opacity="1"/>


<!-- renderSideComponent: cap -->


<!-- renderPart: cylinder -->
<path d="M897.5 264.375 L908.75 264.375 L908.75 295.625 L897.5 295.625 Z" stroke-width="0.5" stroke="black" stroke-linejoin="round" fill="white" fill-opacity="1"/>


<!-- renderPart: cone -->
<path d="M908.75 264.375 L922.5 265.625 L922.5 294.375 L908.75 295.625 Z" stroke-width="0.5" stroke="black" stroke-linejoin="round" fill="white" fill-opacity="1"/>


<!-- renderPart: cylinder -->
<path d="M922.5 265.625 L958.75 265.625 L958.75 294.375 L922.5 294.375 Z" stroke-width="0.5" stroke="black" stroke-linejoin="round" fill="white" fill-opacity="1"/>
</g><text x="50%" y="409" font-size="1.1em" font-weight="bold" text-anchor="middle" dominant-baseline="middle">Copyright (c) // Synapticloop and The Mechanical Pencil Database (tmpdb)</text>
<text x="50%" y="429" font-size="1.1em" font-weight="bold" text-anchor="middle" dominant-baseline="middle">Licensed under Creative Commons Attribution-NonCommercial-ShareAlike 4.0 International</text>
<text x="1190" y="439" font-size="0.5em" font-weight="bold" text-anchor="end" dominant-baseline="middle">SVGTechnicalExplodedRenderer</text>
</svg>