<svg xmlns="http://www.w3.org/2000/svg" width="1000" height="1000">
 <pattern id="diagonalHatch" patternUnits="userSpaceOnUse" width="8" height="8">
<path stroke="dimgray" stroke-linecap="round" stroke-width="1" d="M 4,4 L 8,8"/>
<path stroke="dimgray" stroke-linecap="round" stroke-width="1" d="M 4,4 L 0,8"/>
<path stroke="gray" stroke-linecap="round" stroke-width="1" d="M 4,4 L 8,0" />
<path stroke="gray" stroke-linecap="round" stroke-width="1" d="M 4,4 L 0,0" />
</pattern>
<pattern id="spring" patternUnits="userSpaceOnUse" width="8" height="100">
<path stroke="dimgray" stroke-linecap="round" stroke-width="2" d="M 0,0 L 8,100"/>
<path stroke="white" stroke-linecap="round" stroke-width="1" d="M 0,0 L 8,100"/>
</pattern>
<rect x="0" y="0" width="1000" height="1000" fill="white" stroke="black" stroke-width="4" />
<rect x="2" y="2" width="996" height="996" fill="white" stroke="dimgray" stroke-width="1" />
<g transform="rotate(-45 500 500)">
<path d="M135.625 491.875 L209.375 480 L209.375 520 L135.625 508.125 Z" stroke-width="0.5" stroke="black" stroke-linejoin="round" fill="silver" />
<rect x="209.375" y="479.375" width="21.25" height="41.25" rx="1" ry="1" stroke-width="0.5" stroke="black" fill="silver"/>
<rect x="230.625" y="479.375" width="128.75" height="41.25" rx="1" ry="1" stroke-width="0.5" stroke="black" fill="silver"/>
<rect x="230.625" y="479.375" width="128.75" height="41.25" rx="1" ry="1" stroke-width="0.5" stroke="black" fill="url(#diagonalHatch)"/>
<rect x="359.375" y="479.375" width="330" height="41.25" rx="1" ry="1" stroke-width="0.5" stroke="black" fill="royalblue"/>
<line x1="359.375" y1="500" x2="689.375" y2="500" stroke-width="1.5" stroke="black" fill="none" stroke-opacity="0.5"/>
<line x1="359.375" y1="500" x2="689.375" y2="500" stroke-width="0.5" stroke="gray" fill="none" stroke-opacity="0.5"/>
<rect x="689.375" y="476.25" width="30" height="47.5" rx="1" ry="1" stroke-width="0.5" stroke="black" fill="silver"/>
<path d="M531.5 466.5 Q554.375 489.75 564.375 464.25 Z" stroke-width="3" stroke="black" fill="dimgray" stroke-linecap="round" />
<line x1="529.375" y1="464.75" x2="696.875" y2="459.75" stroke-width="3" stroke="black" fill="dimgray" stroke-linecap="round" />
/><line x1="529.375" y1="466" x2="696.875" y2="461" stroke-width="3" stroke="black" fill="dimgray" stroke-linecap="round" />
/><line x1="696.875" y1="461" x2="719.375" y2="464.75" stroke-width="3" stroke="black" fill="dimgray" stroke-linecap="round" />
/><path d="M719.375 464.75 Q731.875 469.75 719.375 477.25" stroke-width="3" stroke="black" fill="none" stroke-linecap="round" />
<path d="M531.5 466.5 Q554.375 488.75 564.375 464.25 Z" stroke-width="2" stroke="silver" fill="silver" stroke-linecap="round" />
<line x1="529.375" y1="464.75" x2="696.875" y2="459.75" stroke-width="2" stroke="silver" fill="silver" stroke-linecap="round" />
/><line x1="529.375" y1="466" x2="696.875" y2="461" stroke-width="2" stroke="silver" fill="silver" stroke-linecap="round" />
/><line x1="696.875" y1="461" x2="719.375" y2="464.75" stroke-width="2" stroke="silver" fill="silver" stroke-linecap="round" />
/><path d="M719.375 464.75 Q731.875 469.75 719.375 477.25" stroke-width="2" stroke="silver" fill="none" stroke-linecap="round" />
<rect x="719.375" y="479.375" width="22.5" height="41.25" rx="1" ry="1" stroke-width="0.5" stroke="black" fill="royalblue"/>
<rect x="741.875" y="479.375" width="3.75" height="41.25" rx="1" ry="1" stroke-width="0.5" stroke="black" fill="red"/>
<rect x="745.625" y="479.375" width="47.5" height="41.25" rx="1" ry="1" stroke-width="0.5" stroke="black" fill="silver"/>
<rect x="745.625" y="479.375" width="47.5" height="41.25" rx="1" ry="1" stroke-width="0.5" stroke="black" fill="url(#diagonalHatch)"/>
<rect x="755.625" y="489.6875" width="27.5" height="20.625" rx="1" ry="1" stroke-width="2" stroke="black" fill="silver"/>
<text x="769.375" y="500" text-anchor="middle" dominant-baseline="central"><tspan stroke="dimgray" stroke-width="0.5" font-family="sans-serif" fill="black" textLength="{this.width * 5 - 24}" > HB</tspan></text><rect x="793.125" y="479.375" width="12.5" height="41.25" rx="1" ry="1" stroke-width="0.5" stroke="black" fill="silver"/>
<rect x="805.625" y="486.25" width="52.5" height="27.5" rx="1" ry="1" stroke-width="0.5" stroke="black" fill="silver"/>
<path d="M858.125 486.25 Q869.375 500 858.125 513.75" stroke-width="0.5" stroke="black" stroke-linejoin="round" fill="silver"/>
</g><text x="50%" y="980" font-size="1.1em" font-weight="bold" text-anchor="middle" dominant-baseline="middle">Copyright (c) // The Mechanical Pencil Database (tmpdb) // Licensed under Creative Commons Attribution-NonCommercial-ShareAlike 4.0 International</text>
</svg>