<svg xmlns="http://www.w3.org/2000/svg" width="1000" height="240">
 <pattern id="diagonalHatch" patternUnits="userSpaceOnUse" width="8" height="8">
<path stroke="dimgray" stroke-linecap="round" stroke-width="1" d="M 4,4 L 8,8"/>
<path stroke="dimgray" stroke-linecap="round" stroke-width="1" d="M 4,4 L 0,8"/>
<path stroke="gray" stroke-linecap="round" stroke-width="1" d="M 4,4 L 8,0" />
<path stroke="gray" stroke-linecap="round" stroke-width="1" d="M 4,4 L 0,0" />
</pattern>
<pattern id="ridged" patternUnits="userSpaceOnUse" width="3" height="3">
<path stroke="dimgray" stroke-linecap="round" stroke-width="1" d="M 0,0 L 0,3"/>
</pattern>
<pattern id="lined" patternUnits="userSpaceOnUse" width="3" height="3">
<path stroke="dimgray" stroke-linecap="round" stroke-width="1" d="M 0,0 L 3,0"/>
</pattern>
<pattern id="spring" patternUnits="userSpaceOnUse" width="8" height="100">
<path stroke="dimgray" stroke-linecap="round" stroke-width="2" d="M 0,0 L 8,100"/>
<path stroke="white" stroke-linecap="round" stroke-width="1" d="M 0,0 L 8,100"/>
</pattern>
<rect x="0" y="0" width="1000" height="240" fill="white" stroke="black" stroke-width="4" />
<rect x="2" y="2" width="996" height="236" fill="white" stroke="dimgray" stroke-width="1" />
<g transform="rotate(0 0 0)">
<text x="30" y="50" font-size="2.0em" font-weight="bold"> STUDMARK // 3750 </text>
<path d="M135.625 111.875 L209.375 100 L209.375 140 L135.625 128.125 Z" stroke-width="0.5" stroke="black" stroke-linejoin="round" fill="silver" fill-opacity="1" />
<path d="M209.375 99.375 L230.625 99.375 L230.625 140.625 L209.375 140.625 Z" stroke-width="0.5" stroke="black" stroke-linejoin="round" fill="silver" fill-opacity="1" />
<path d="M230.625 99.375 L359.375 99.375 L359.375 140.625 L230.625 140.625 Z" stroke-width="0.5" stroke="black" stroke-linejoin="round" fill="silver" fill-opacity="1" />
<path d="M230.625 99.375 L359.375 99.375 L359.375 140.625 L230.625 140.625 Z" stroke-width="1.0" stroke="black" fill="url(#diagonalHatch)"/>
<path d="M359.375 99.375 L689.375 99.375 L689.375 140.625 L359.375 140.625 Z" stroke-width="0.5" stroke="black" stroke-linejoin="round" fill="royalblue" fill-opacity="1" />
<line x1="359.375" y1="120" x2="689.375" y2="120" stroke-width="1.5" stroke="black" fill="none" stroke-opacity="0.5"/>
<line x1="359.375" y1="120" x2="689.375" y2="120" stroke-width="0.5" stroke="gray" fill="none" stroke-opacity="0.5"/>
<path d="M531.5 86.5 Q554.375 109.75 564.375 84.25 Z" stroke-width="4" stroke="black" fill="dimgray" stroke-linecap="round" />
<line x1="529.375" y1="84.75" x2="696.875" y2="79.75" stroke-width="5" stroke="black" fill="dimgray" stroke-linecap="round" />
<line x1="696.875" y1="81" x2="719.375" y2="84.75" stroke-width="4" stroke="black" fill="dimgray" stroke-linecap="round" />
<path d="M719.375 84.75 Q751.875 89.75 719.375 97.25" stroke-width="4" stroke="black" fill="none" stroke-linecap="round" />
<path d="M689.375 96.25 L719.375 96.25 L719.375 143.75 L689.375 143.75 Z" stroke-width="0.5" stroke="black" stroke-linejoin="round" fill="silver" fill-opacity="1" />
<path d="M531.5 86.5 Q554.375 108.75 564.375 84.25 Z" stroke-width="3" stroke="silver" fill="silver" stroke-linecap="round" />
<line x1="529.375" y1="84.75" x2="696.875" y2="79.75" stroke-width="4" stroke="silver" fill="silver" stroke-linecap="round" />
<line x1="696.875" y1="81" x2="719.375" y2="84.75" stroke-width="3" stroke="silver" fill="silver" stroke-linecap="round" />
<path d="M719.375 84.75 Q751.875 89.75 719.375 97.25" stroke-width="3" stroke="silver" fill="none" stroke-linecap="round" />
<path d="M719.375 99.375 L741.875 99.375 L741.875 140.625 L719.375 140.625 Z" stroke-width="0.5" stroke="black" stroke-linejoin="round" fill="royalblue" fill-opacity="1" />
<path d="M741.875 99.375 L745.625 99.375 L745.625 140.625 L741.875 140.625 Z" stroke-width="0.5" stroke="black" stroke-linejoin="round" fill="red" fill-opacity="1" />
<path d="M745.625 99.375 L793.125 99.375 L793.125 140.625 L745.625 140.625 Z" stroke-width="0.5" stroke="black" stroke-linejoin="round" fill="silver" fill-opacity="1" />
<path d="M745.625 99.375 L793.125 99.375 L793.125 140.625 L745.625 140.625 Z" stroke-width="1.0" stroke="black" fill="url(#diagonalHatch)"/>
<rect x="755.625" y="109.6875" width="27.5" height="20.625" rx="3" ry="3" stroke-width="1" stroke="black" fill="silver"/>
<text x="769.375" y="120" text-anchor="middle" dominant-baseline="central"><tspan stroke="dimgray" stroke-width="0.5" font-family="sans-serif" fill="black" textLength="{this.width * 5 - 24}" > HB</tspan></text><path d="M793.125 99.375 L805.625 99.375 L805.625 140.625 L793.125 140.625 Z" stroke-width="0.5" stroke="black" stroke-linejoin="round" fill="silver" fill-opacity="1" />
<path d="M805.625 106.25 L858.125 106.25 L858.125 133.75 L805.625 133.75 Z" stroke-width="0.5" stroke="black" stroke-linejoin="round" fill="silver" fill-opacity="1" />
<path d="M858.125 106.25 Q869.375 120 858.125 133.75" stroke-width="0.5" stroke="black" stroke-linejoin="round" fill="silver" fill-opacity="1"/>
</g><text x="50%" y="200" font-size="1.1em" font-weight="bold" text-anchor="middle" dominant-baseline="middle">Copyright (c) // The Mechanical Pencil Database (tmpdb)</text>
<text x="50%" y="220" font-size="1.1em" font-weight="bold" text-anchor="middle" dominant-baseline="middle">Licensed under Creative Commons Attribution-NonCommercial-ShareAlike 4.0 International</text>
<text x="990" y="230" font-size="0.5em" font-weight="bold" text-anchor="end" dominant-baseline="middle">SVGPencilAllRenderer</text>
</svg>