<svg xmlns="http://www.w3.org/2000/svg" width="1000" height="200">
 <pattern id="diagonalHatch" patternUnits="userSpaceOnUse" width="8" height="8">
<path stroke="dimgray" stroke-linecap="round" stroke-width="1" d="M 4,4 L 8,8"/>
<path stroke="dimgray" stroke-linecap="round" stroke-width="1" d="M 4,4 L 0,8"/>
<path stroke="gray" stroke-linecap="round" stroke-width="1" d="M 4,4 L 8,0" />
<path stroke="gray" stroke-linecap="round" stroke-width="1" d="M 4,4 L 0,0" />
</pattern>
<pattern id="spring" patternUnits="userSpaceOnUse" width="8" height="100">
<path stroke="dimgray" stroke-linecap="round" stroke-width="2" d="M 0,0 L 8,100"/>
<path stroke="white" stroke-linecap="round" stroke-width="1" d="M 0,0 L 8,100"/>
</pattern>
<g transform="rotate(0 0 0)">
<path d="M135.625 91.875 L209.375 80 L209.375 120 L135.625 108.125 Z" stroke-width="0.5" stroke="black" stroke-linejoin="round" fill="silver" />
<rect x="209.375" y="79.375" width="21.25" height="41.25" rx="1" ry="1" stroke-width="0.5" stroke="black" fill="silver"/>
<rect x="230.625" y="79.375" width="128.75" height="41.25" rx="1" ry="1" stroke-width="0.5" stroke="black" fill="silver"/>
<rect x="230.625" y="79.375" width="128.75" height="41.25" rx="1" ry="1" stroke-width="0.5" stroke="black" fill="url(#diagonalHatch)"/>
<rect x="359.375" y="79.375" width="330" height="41.25" rx="1" ry="1" stroke-width="0.5" stroke="black" fill="royalblue"/>
<line x1="359.375" y1="100" x2="689.375" y2="100" stroke-width="1.5" stroke="black" fill="none" stroke-opacity="0.5"/>
<line x1="359.375" y1="100" x2="689.375" y2="100" stroke-width="0.5" stroke="gray" fill="none" stroke-opacity="0.5"/>
<path d="M531.5 66.5 Q554.375 89.75 564.375 64.25 Z" stroke-width="4" stroke="black" fill="dimgray" stroke-linecap="round" />
<line x1="529.375" y1="64.75" x2="696.875" y2="59.75" stroke-width="5" stroke="black" fill="dimgray" stroke-linecap="round" />
<line x1="696.875" y1="61" x2="719.375" y2="64.75" stroke-width="4" stroke="black" fill="dimgray" stroke-linecap="round" />
<path d="M719.375 64.75 Q751.875 69.75 719.375 77.25" stroke-width="4" stroke="black" fill="none" stroke-linecap="round" />
<rect x="689.375" y="76.25" width="30" height="47.5" rx="1" ry="1" stroke-width="0.5" stroke="black" fill="silver"/>
<path d="M531.5 66.5 Q554.375 88.75 564.375 64.25 Z" stroke-width="3" stroke="silver" fill="silver" stroke-linecap="round" />
<line x1="529.375" y1="64.75" x2="696.875" y2="59.75" stroke-width="4" stroke="silver" fill="silver" stroke-linecap="round" />
<line x1="696.875" y1="61" x2="719.375" y2="64.75" stroke-width="3" stroke="silver" fill="silver" stroke-linecap="round" />
<path d="M719.375 64.75 Q751.875 69.75 719.375 77.25" stroke-width="3" stroke="silver" fill="none" stroke-linecap="round" />
<rect x="719.375" y="79.375" width="22.5" height="41.25" rx="1" ry="1" stroke-width="0.5" stroke="black" fill="royalblue"/>
<rect x="741.875" y="79.375" width="3.75" height="41.25" rx="1" ry="1" stroke-width="0.5" stroke="black" fill="royalblue"/>
<rect x="745.625" y="79.375" width="47.5" height="41.25" rx="1" ry="1" stroke-width="0.5" stroke="black" fill="silver"/>
<rect x="745.625" y="79.375" width="47.5" height="41.25" rx="1" ry="1" stroke-width="0.5" stroke="black" fill="url(#diagonalHatch)"/>
<rect x="755.625" y="89.6875" width="27.5" height="20.625" rx="1" ry="1" stroke-width="2" stroke="black" fill="silver"/>
<text x="769.375" y="100" text-anchor="middle" dominant-baseline="central"><tspan stroke="dimgray" stroke-width="0.5" font-family="sans-serif" fill="black" textLength="{this.width * 5 - 24}" > HB</tspan></text><rect x="793.125" y="79.375" width="12.5" height="41.25" rx="1" ry="1" stroke-width="0.5" stroke="black" fill="silver"/>
<rect x="805.625" y="86.25" width="52.5" height="27.5" rx="1" ry="1" stroke-width="0.5" stroke="black" fill="silver"/>
<path d="M858.125 86.25 Q869.375 100 858.125 113.75" stroke-width="0.5" stroke="black" stroke-linejoin="round" fill="silver"/>
</g><text x="50%" y="160" font-size="1.1em" font-weight="bold" text-anchor="middle" dominant-baseline="middle">Copyright (c) // The Mechanical Pencil Database (tmpdb)</text>
<text x="50%" y="180" font-size="1.1em" font-weight="bold" text-anchor="middle" dominant-baseline="middle">Licensed under Creative Commons Attribution-NonCommercial-ShareAlike 4.0 International</text>
<text x="990" y="190" font-size="0.5em" font-weight="bold" text-anchor="end" dominant-baseline="middle">SVGPencilRenderer</text>
</svg>