<svg xmlns="http://www.w3.org/2000/svg" width="1400" height="320">
 <pattern id="knurled-large" patternUnits="userSpaceOnUse" width="12" height="12">
<path stroke="dimgray" stroke-linecap="round" stroke-width="1" d="M 6,6 L 12,12"/>
<path stroke="dimgray" stroke-linecap="round" stroke-width="1" d="M 6,6 L 0,12"/>
<path stroke="gray" stroke-linecap="round" stroke-width="1" d="M 6,6 L 12,0" />
<path stroke="gray" stroke-linecap="round" stroke-width="1" d="M 6,6 L 0,0" />
</pattern><pattern id="knurled-small" patternUnits="userSpaceOnUse" width="4" height="4">
<path stroke="dimgray" stroke-linecap="round" stroke-width="1" d="M 2,2 L 4,4"/>
<path stroke="dimgray" stroke-linecap="round" stroke-width="1" d="M 2,2 L 0,4"/>
<path stroke="gray" stroke-linecap="round" stroke-width="1" d="M 2,2 L 4,0" />
<path stroke="gray" stroke-linecap="round" stroke-width="1" d="M 2,2 L 0,0" />
</pattern><pattern id="knurled" patternUnits="userSpaceOnUse" width="8" height="8">
<path stroke="dimgray" stroke-linecap="round" stroke-width="1" d="M 4,4 L 8,8"/>
<path stroke="dimgray" stroke-linecap="round" stroke-width="1" d="M 4,4 L 0,8"/>
<path stroke="gray" stroke-linecap="round" stroke-width="1" d="M 4,4 L 8,0" />
<path stroke="gray" stroke-linecap="round" stroke-width="1" d="M 4,4 L 0,0" />
</pattern><pattern id="lined" patternUnits="userSpaceOnUse" width="3" height="3">
<path stroke="dimgray" stroke-linecap="round" stroke-width="1" d="M 0,0 L 3,0"/>
</pattern><pattern id="ridged" patternUnits="userSpaceOnUse" width="3" height="3">
<path stroke="dimgray" stroke-linecap="round" stroke-width="1" d="M 0,0 L 0,3"/>
</pattern><pattern id="spring" patternUnits="userSpaceOnUse" width="8" height="60">
<path stroke="dimgray" stroke-linecap="round" stroke-width="2" d="M 1,1 L 8,60"/>
<path stroke="white" stroke-linecap="round" stroke-width="1" d="M 1,1 L 8,60"/>
</pattern><rect x="0" y="0" width="1400" height="320" fill="white" stroke="black" stroke-width="4" />
<rect x="2" y="2" width="1396" height="316" fill="white" stroke="dimgray" stroke-width="1" />
<g transform="rotate(0 0 0)">
<text x="700" y="60" font-size="2.4em" font-weight="bold" text-anchor="middle" dominant-baseline="central">Takumi Pencils</text>
<line x1="40" y1="160" x2="1360" y2="160" stroke-linecap="round" stroke="#5f5f5f" stroke-dasharray="2" stroke-width="1" />
<line x1="20" y1="160" x2="60" y2="160" stroke-linecap="round" stroke="#000000"  stroke-width="1" />
<line x1="40" y1="140" x2="40" y2="180" stroke="#000000" stroke-linecap="round"  stroke-width="1" />
<circle r="10" cx="40" cy="160" fill="white" fill-opacity="0" stroke="#000000" stroke-width="1"  />
<line x1="1340" y1="160" x2="1380" y2="160" stroke-linecap="round" stroke="#000000"  stroke-width="1" />
<line x1="1360" y1="140" x2="1360" y2="180" stroke="#000000" stroke-linecap="round"  stroke-width="1" />
<circle r="10" cx="1360" cy="160" fill="white" fill-opacity="0" stroke="#000000" stroke-width="1"  />


<!-- renderSideComponent: tip -->


<!-- renderPart: cone -->
<path d="M323.7 151.875 L388.8 143.125 L388.8 176.875 L323.7 168.125 L323.7 151.875" stroke-width="0" stroke="none" stroke-linejoin="round" fill="white" fill-opacity="1"/>
<path d="M323.7 151.875 L388.8 143.125 M388.8 176.875 L323.7 168.125" stroke-width="0.5" stroke="black" stroke-linejoin="round" fill="white" fill-opacity="1"/>
<!-- !right !both --><path d="M388.8 143.125 L388.8 176.875" stroke-width="0.5" stroke="black" stroke-linejoin="round" fill="white" fill-opacity="1"/>
<!-- !left !both --><path d="M323.7 151.875 L323.7 168.125" stroke-width="0.5" stroke="black" stroke-linejoin="round" fill="white" fill-opacity="1"/>


<!-- renderPart: cone -->
<path d="M388.7 143.125 L398.8 135 L398.8 185 L388.7 176.875 L388.7 143.125" stroke-width="0" stroke="none" stroke-linejoin="round" fill="white" fill-opacity="1"/>
<path d="M388.7 143.125 L398.8 135 M398.8 185 L388.7 176.875" stroke-width="0.5" stroke="black" stroke-linejoin="round" fill="white" fill-opacity="1"/>
<!-- !right !both --><path d="M398.8 135 L398.8 185" stroke-width="0.5" stroke="black" stroke-linejoin="round" fill="white" fill-opacity="1"/>
<!-- !left !both --><path d="M388.7 143.125 L388.7 176.875" stroke-width="0.5" stroke="black" stroke-linejoin="round" fill="white" fill-opacity="1"/>


<!-- renderPart: cone -->
<path d="M398.7 135 L406.3 134.375 L406.3 185.625 L398.7 185 L398.7 135" stroke-width="0" stroke="none" stroke-linejoin="round" fill="white" fill-opacity="1"/>
<path d="M398.7 135 L406.3 134.375 M406.3 185.625 L398.7 185" stroke-width="0.5" stroke="black" stroke-linejoin="round" fill="white" fill-opacity="1"/>
<!-- !right !both --><path d="M406.3 134.375 L406.3 185.625" stroke-width="0.5" stroke="black" stroke-linejoin="round" fill="white" fill-opacity="1"/>
<!-- !left !both --><path d="M398.7 135 L398.7 185" stroke-width="0.5" stroke="black" stroke-linejoin="round" fill="white" fill-opacity="1"/>


<!-- renderPart: cone -->
<path d="M406.2 134.375 L413.8 133.125 L413.8 186.875 L406.2 185.625 L406.2 134.375" stroke-width="0" stroke="none" stroke-linejoin="round" fill="white" fill-opacity="1"/>
<path d="M406.2 134.375 L413.8 133.125 M413.8 186.875 L406.2 185.625" stroke-width="0.5" stroke="black" stroke-linejoin="round" fill="white" fill-opacity="1"/>
<!-- !right !both --><path d="M413.8 133.125 L413.8 186.875" stroke-width="0.5" stroke="black" stroke-linejoin="round" fill="white" fill-opacity="1"/>
<!-- !left !both --><path d="M406.2 134.375 L406.2 185.625" stroke-width="0.5" stroke="black" stroke-linejoin="round" fill="white" fill-opacity="1"/>


<!-- renderPart: cone -->
<path d="M413.7 133.125 L423.8 129.375 L423.8 190.625 L413.7 186.875 L413.7 133.125" stroke-width="0" stroke="none" stroke-linejoin="round" fill="white" fill-opacity="1"/>
<path d="M413.7 133.125 L423.8 129.375 M423.8 190.625 L413.7 186.875" stroke-width="0.5" stroke="black" stroke-linejoin="round" fill="white" fill-opacity="1"/>
<!-- !right !both --><path d="M423.8 129.375 L423.8 190.625" stroke-width="0.5" stroke="black" stroke-linejoin="round" fill="white" fill-opacity="1"/>
<!-- !left !both --><path d="M413.7 133.125 L413.7 186.875" stroke-width="0.5" stroke="black" stroke-linejoin="round" fill="white" fill-opacity="1"/>


<!-- renderSideComponent: grip -->


<!-- renderPart: cylinder -->
<path d="M423.7 127.5 L648.8 127.5 L648.8 192.5 L423.7 192.5 L423.7 127.5" stroke-width="0" stroke="none" stroke-linejoin="round" fill="white" fill-opacity="1"/>
<path d="M423.7 127.5 L648.8 127.5 M648.8 192.5 L423.7 192.5" stroke-width="0.5" stroke="black" stroke-linejoin="round" fill="white" fill-opacity="1"/>
<!-- !right !both --><path d="M648.8 127.5 L648.8 192.5" stroke-width="0.5" stroke="black" stroke-linejoin="round" fill="white" fill-opacity="1"/>
<!-- !left !both --><path d="M423.7 127.5 L423.7 192.5" stroke-width="0.5" stroke="black" stroke-linejoin="round" fill="white" fill-opacity="1"/>


<!-- renderSideComponent: body -->


<!-- renderPart: cylinder -->
<path d="M648.7 128.75 L661.3 128.75 L661.3 191.25 L648.7 191.25 L648.7 128.75" stroke-width="0" stroke="none" stroke-linejoin="round" fill="white" fill-opacity="1"/>
<path d="M648.7 128.75 L661.3 128.75 M661.3 191.25 L648.7 191.25" stroke-width="0.5" stroke="black" stroke-linejoin="round" fill="white" fill-opacity="1"/>
<!-- !right !both --><path d="M661.3 128.75 L661.3 191.25" stroke-width="0.5" stroke="black" stroke-linejoin="round" fill="white" fill-opacity="1"/>
<!-- !left !both --><path d="M648.7 128.75 L648.7 191.25" stroke-width="0.5" stroke="black" stroke-linejoin="round" fill="white" fill-opacity="1"/>


<!-- renderPart: cylinder -->
<path d="M661.2 128.75 L977.55 128.75 L977.55 191.25 L661.2 191.25 L661.2 128.75" stroke-width="0" stroke="none" stroke-linejoin="round" fill="white" fill-opacity="1"/>
<path d="M661.2 128.75 L977.55 128.75 M977.55 191.25 L661.2 191.25" stroke-width="0.5" stroke="black" stroke-linejoin="round" fill="white" fill-opacity="1"/>
<!-- !right !both --><path d="M977.55 128.75 L977.55 191.25" stroke-width="0.5" stroke="black" stroke-linejoin="round" fill="white" fill-opacity="1"/>
<!-- !left !both --><path d="M661.2 128.75 L661.2 191.25" stroke-width="0.5" stroke="black" stroke-linejoin="round" fill="white" fill-opacity="1"/>


<!-- renderSideComponent: clip -->
<path d="M779.625 119.75 Q792.5 149.75 811.25 123.5" stroke-width="6" stroke="black" fill="none" stroke-linecap="round" />
<line x1="779.625" y1="118.5" x2="980" y2="118.5" stroke-width="5" stroke="black" fill="dimgray" stroke-linecap="round" />
<line x1="980" y1="118.5" x2="980" y2="137.25" stroke-width="6" stroke="black" fill="dimgray" stroke-linecap="round" />


<!-- renderPart: cylinder -->
<path d="M977.45 125 L1022.55 125 L1022.55 195 L977.45 195 L977.45 125" stroke-width="0" stroke="none" stroke-linejoin="round" fill="white" fill-opacity="1"/>
<path d="M977.45 125 L1022.55 125 M1022.55 195 L977.45 195" stroke-width="0.5" stroke="black" stroke-linejoin="round" fill="white" fill-opacity="1"/>
<!-- !right !both --><path d="M1022.55 125 L1022.55 195" stroke-width="0.5" stroke="black" stroke-linejoin="round" fill="white" fill-opacity="1"/>
<!-- !left !both --><path d="M977.45 125 L977.45 195" stroke-width="0.5" stroke="black" stroke-linejoin="round" fill="white" fill-opacity="1"/>
<path d="M779.625 119.75 Q792.5 149.75 811.25 123.5" stroke-width="5" stroke="white" fill="none" stroke-linecap="round" />
<line x1="779.625" y1="118.5" x2="980" y2="118.5" stroke-width="4" stroke="white" fill="white" stroke-linecap="round" />
<line x1="980" y1="118.5" x2="980" y2="137.25" stroke-width="5" stroke="white" fill="white" stroke-linecap="round" />


<!-- renderSideComponent: shaft -->


<!-- renderSideComponent: cap -->


<!-- renderPart: cylinder -->
<path d="M1022.45 138.75 L1043.8 138.75 L1043.8 181.25 L1022.45 181.25 L1022.45 138.75" stroke-width="0" stroke="none" stroke-linejoin="round" fill="white" fill-opacity="1"/>
<path d="M1022.45 138.75 L1043.8 138.75 M1043.8 181.25 L1022.45 181.25" stroke-width="0.5" stroke="black" stroke-linejoin="round" fill="white" fill-opacity="1"/>
<!-- !right !both --><path d="M1043.8 138.75 L1043.8 181.25" stroke-width="0.5" stroke="black" stroke-linejoin="round" fill="white" fill-opacity="1"/>


<!-- renderPart: cylinder -->
<path d="M1043.7 141.25 L1047.55 141.25 L1047.55 178.75 L1043.7 178.75 L1043.7 141.25" stroke-width="0" stroke="none" stroke-linejoin="round" fill="white" fill-opacity="1"/>
<path d="M1043.7 141.25 L1047.55 141.25 M1047.55 178.75 L1043.7 178.75" stroke-width="0.5" stroke="black" stroke-linejoin="round" fill="white" fill-opacity="1"/>
<!-- !right !both --><path d="M1047.55 141.25 L1047.55 178.75" stroke-width="0.5" stroke="black" stroke-linejoin="round" fill="white" fill-opacity="1"/>
<!-- !left !both --><path d="M1043.7 141.25 L1043.7 178.75" stroke-width="0.5" stroke="black" stroke-linejoin="round" fill="white" fill-opacity="1"/>


<!-- renderPart: cylinder -->
<path d="M1047.45 138.75 L1053.8 138.75 L1053.8 181.25 L1047.45 181.25 L1047.45 138.75" stroke-width="0" stroke="none" stroke-linejoin="round" fill="white" fill-opacity="1"/>
<path d="M1047.45 138.75 L1053.8 138.75 M1053.8 181.25 L1047.45 181.25" stroke-width="0.5" stroke="black" stroke-linejoin="round" fill="white" fill-opacity="1"/>
<!-- !right !both --><path d="M1053.8 138.75 L1053.8 181.25" stroke-width="0.5" stroke="black" stroke-linejoin="round" fill="white" fill-opacity="1"/>
<!-- !left !both --><path d="M1047.45 138.75 L1047.45 181.25" stroke-width="0.5" stroke="black" stroke-linejoin="round" fill="white" fill-opacity="1"/>


<!-- renderPart: cylinder -->
<path d="M1053.7 141.25 L1057.55 141.25 L1057.55 178.75 L1053.7 178.75 L1053.7 141.25" stroke-width="0" stroke="none" stroke-linejoin="round" fill="white" fill-opacity="1"/>
<path d="M1053.7 141.25 L1057.55 141.25 M1057.55 178.75 L1053.7 178.75" stroke-width="0.5" stroke="black" stroke-linejoin="round" fill="white" fill-opacity="1"/>
<!-- !right !both --><path d="M1057.55 141.25 L1057.55 178.75" stroke-width="0.5" stroke="black" stroke-linejoin="round" fill="white" fill-opacity="1"/>
<!-- !left !both --><path d="M1053.7 141.25 L1053.7 178.75" stroke-width="0.5" stroke="black" stroke-linejoin="round" fill="white" fill-opacity="1"/>


<!-- renderPart: cylinder -->
<path d="M1057.45 138.75 L1063.8 138.75 L1063.8 181.25 L1057.45 181.25 L1057.45 138.75" stroke-width="0" stroke="none" stroke-linejoin="round" fill="white" fill-opacity="1"/>
<path d="M1057.45 138.75 L1063.8 138.75 M1063.8 181.25 L1057.45 181.25" stroke-width="0.5" stroke="black" stroke-linejoin="round" fill="white" fill-opacity="1"/>
<!-- !right !both --><path d="M1063.8 138.75 L1063.8 181.25" stroke-width="0.5" stroke="black" stroke-linejoin="round" fill="white" fill-opacity="1"/>
<!-- !left !both --><path d="M1057.45 138.75 L1057.45 181.25" stroke-width="0.5" stroke="black" stroke-linejoin="round" fill="white" fill-opacity="1"/>


<!-- renderPart: cylinder -->
<path d="M1063.7 141.25 L1067.55 141.25 L1067.55 178.75 L1063.7 178.75 L1063.7 141.25" stroke-width="0" stroke="none" stroke-linejoin="round" fill="white" fill-opacity="1"/>
<path d="M1063.7 141.25 L1067.55 141.25 M1067.55 178.75 L1063.7 178.75" stroke-width="0.5" stroke="black" stroke-linejoin="round" fill="white" fill-opacity="1"/>
<!-- !right !both --><path d="M1067.55 141.25 L1067.55 178.75" stroke-width="0.5" stroke="black" stroke-linejoin="round" fill="white" fill-opacity="1"/>
<!-- !left !both --><path d="M1063.7 141.25 L1063.7 178.75" stroke-width="0.5" stroke="black" stroke-linejoin="round" fill="white" fill-opacity="1"/>


<!-- renderPart: cylinder -->
<path d="M1067.45 138.75 L1076.3 138.75 L1076.3 181.25 L1067.45 181.25 L1067.45 138.75" stroke-width="0" stroke="none" stroke-linejoin="round" fill="white" fill-opacity="1"/>
<path d="M1067.45 138.75 L1076.3 138.75 M1076.3 181.25 L1067.45 181.25" stroke-width="0.5" stroke="black" stroke-linejoin="round" fill="white" fill-opacity="1"/>
<!-- !right !both --><path d="M1076.3 138.75 L1076.3 181.25" stroke-width="0.5" stroke="black" stroke-linejoin="round" fill="white" fill-opacity="1"/>
<!-- !left !both --><path d="M1067.45 138.75 L1067.45 181.25" stroke-width="0.5" stroke="black" stroke-linejoin="round" fill="white" fill-opacity="1"/>
<text x="700" y="200" font-size="1.2em" font-weight="bold" text-anchor="middle" dominant-baseline="central">Marking Pencil - 7808 (2.0 mm)</text>
</g><text x="50%" y="280" font-size="1.1em" font-weight="bold" text-anchor="middle" dominant-baseline="middle">Copyright (c) // Synapticloop // The Mechanical Pencil Database (tmpdb)</text>
<text x="50%" y="300" font-size="1.1em" font-weight="bold" text-anchor="middle" dominant-baseline="middle">Licensed under Creative Commons Attribution-NonCommercial-ShareAlike 4.0 International</text>
<text x="1390" y="310" font-size="0.5em" font-weight="bold" text-anchor="end" dominant-baseline="middle">SVGBrandExampleRenderer</text>
</svg>