<svg xmlns="http://www.w3.org/2000/svg" width="1000" height="200">
 <pattern id="diagonalHatch" patternUnits="userSpaceOnUse" width="8" height="8">
<path stroke="dimgray" stroke-linecap="round" stroke-width="1" d="M 4,4 L 8,8"/>
<path stroke="dimgray" stroke-linecap="round" stroke-width="1" d="M 4,4 L 0,8"/>
<path stroke="gray" stroke-linecap="round" stroke-width="1" d="M 4,4 L 8,0" />
<path stroke="gray" stroke-linecap="round" stroke-width="1" d="M 4,4 L 0,0" />
</pattern>
<pattern id="ridged" patternUnits="userSpaceOnUse" width="3" height="3">
<path stroke="dimgray" stroke-linecap="round" stroke-width="1" d="M 0,0 L 0,3"/>
</pattern>
<pattern id="lined" patternUnits="userSpaceOnUse" width="3" height="3">
<path stroke="dimgray" stroke-linecap="round" stroke-width="1" d="M 0,0 L 3,0"/>
</pattern>
<pattern id="spring" patternUnits="userSpaceOnUse" width="8" height="100">
<path stroke="dimgray" stroke-linecap="round" stroke-width="2" d="M 0,0 L 8,100"/>
<path stroke="white" stroke-linecap="round" stroke-width="1" d="M 0,0 L 8,100"/>
</pattern>
<g transform="rotate(0 0 0)">
<path d="M141.875 90.625 L154.375 90.625 L154.375 109.375 L141.875 109.375 Z" stroke-width="0.5" stroke="black" stroke-linejoin="round" fill="silver" fill-opacity="1" />
<path d="M154.375 90 L195.625 81.25 L195.625 118.75 L154.375 110 Z" stroke-width="0.5" stroke="black" stroke-linejoin="round" fill="silver" fill-opacity="1" />
<path d="M195.625 81.25 L210.625 81.25 L210.625 118.75 L195.625 118.75 Z" stroke-width="0.5" stroke="black" stroke-linejoin="round" fill="silver" fill-opacity="1" />
<path d="M210.625 79.375 L240.625 79.375 L240.625 120.625 L210.625 120.625 Z" stroke-width="0.5" stroke="black" stroke-linejoin="round" fill="silver" fill-opacity="1" />
<path d="M240.625 80 L739.375 80 L739.375 120 L240.625 120 Z" stroke-width="0.5" stroke="black" stroke-linejoin="round" fill="#FFA07A" fill-opacity="1" />
<line x1="240.625" y1="100" x2="739.375" y2="100" stroke-width="1.5" stroke="black" fill="none" stroke-opacity="0.5"/>
<line x1="240.625" y1="100" x2="739.375" y2="100" stroke-width="0.5" stroke="gray" fill="none" stroke-opacity="0.5"/>
<line x1="560.625" y1="69.375" x2="575.625" y2="69.375" stroke-width="4" stroke="black" fill="dimgray" stroke-linecap="round" />
<line x1="575.625" y1="69.375" x2="595.625" y2="78.125" stroke-width="4" stroke="black" fill="dimgray" stroke-linecap="round" />
<line x1="595.625" y1="78.125" x2="615.625" y2="69.375" stroke-width="4" stroke="black" fill="dimgray" stroke-linecap="round" />
<line x1="615.625" y1="69.375" x2="755.625" y2="69.375" stroke-width="4" stroke="black" fill="dimgray" stroke-linecap="round" />
<path d="M755.625 69.375 Q775.625 74.375 755.625 79.375" stroke-width="4" stroke="black" fill="none" stroke-linecap="round" />
<path d="M739.375 76.875 L763.125 76.875 L763.125 123.125 L739.375 123.125 Z" stroke-width="0.5" stroke="black" stroke-linejoin="round" fill="silver" fill-opacity="1" />
<line x1="560.625" y1="69.375" x2="575.625" y2="69.375" stroke-width="3" stroke="silver" fill="silver" stroke-linecap="round" />
<line x1="575.625" y1="69.375" x2="595.625" y2="78.125" stroke-width="3" stroke="silver" fill="silver" stroke-linecap="round" />
<line x1="595.625" y1="78.125" x2="615.625" y2="69.375" stroke-width="3" stroke="silver" fill="silver" stroke-linecap="round" />
<line x1="615.625" y1="69.375" x2="755.625" y2="69.375" stroke-width="3" stroke="silver" fill="silver" stroke-linecap="round" />
<path d="M755.625 69.375 Q775.625 74.375 755.625 79.375" stroke-width="3" stroke="silver" fill="none" stroke-linecap="round" />
<path d="M763.125 80 L771.875 80.625 L771.875 119.375 L763.125 120 Z" stroke-width="0.5" stroke="black" stroke-linejoin="round" fill="#FFA07A" fill-opacity="1" />
<path d="M771.875 80.625 L780.625 80.625 L780.625 119.375 L771.875 119.375 Z" stroke-width="0.5" stroke="black" stroke-linejoin="round" fill="#FFA07A" fill-opacity="1" />
<path d="M780.625 85 L801.875 85 L801.875 115 L780.625 115 Z" stroke-width="0.5" stroke="black" stroke-linejoin="round" fill="#FFA07A" fill-opacity="1" />
<path d="M801.875 80 L848.125 80 L848.125 120 L801.875 120 Z" stroke-width="0.5" stroke="black" stroke-linejoin="round" fill="#FFA07A" fill-opacity="1" />
<line x1="801.875" y1="88.57142857142857" x2="848.125" y2="88.57142857142857" stroke-width="1.5" stroke="black" fill="none" stroke-opacity="0.5"/>
<line x1="801.875" y1="88.57142857142857" x2="848.125" y2="88.57142857142857" stroke-width="0.5" stroke="gray" fill="none" stroke-opacity="0.5"/>
<line x1="801.875" y1="111.42857142857143" x2="848.125" y2="111.42857142857143" stroke-width="1.5" stroke="black" fill="none" stroke-opacity="0.5"/>
<line x1="801.875" y1="111.42857142857143" x2="848.125" y2="111.42857142857143" stroke-width="0.5" stroke="gray" fill="none" stroke-opacity="0.5"/>
<path d="M848.125 78.75 L854.375 78.75 L854.375 121.25 L848.125 121.25 Z" stroke-width="0.5" stroke="black" stroke-linejoin="round" fill="#FFA07A" fill-opacity="1" />
<path d="M854.375 78.75 Q861.875 100 854.375 121.25" stroke-width="0.5" stroke="black" stroke-linejoin="round" fill="#FFA07A" fill-opacity="1"/>
<rect x="240.625" y="80.25" width="4.5" height="39.5" rx="0" ry="0" stroke-width="0.5" stroke="none" fill="#FFA07A" fill-opacity="1"/>
<path d="M 245.625 80 C 239.375 85, 239.375 95, 245.625 100" stroke-width="0.5" stroke="black" stroke-linecap="round" fill="#FFA07A" /><path d="M 245.625 120 C 239.375 115, 239.375 105, 245.625 100" stroke-width="0.5" stroke="black" stroke-linecap="round" fill="#FFA07A" /></g><text x="50%" y="160" font-size="1.1em" font-weight="bold" text-anchor="middle" dominant-baseline="middle">Copyright (c) // The Mechanical Pencil Database (tmpdb)</text>
<text x="50%" y="180" font-size="1.1em" font-weight="bold" text-anchor="middle" dominant-baseline="middle">Licensed under Creative Commons Attribution-NonCommercial-ShareAlike 4.0 International</text>
<text x="990" y="190" font-size="0.5em" font-weight="bold" text-anchor="end" dominant-baseline="middle">SVGPencilRenderer</text>
</svg>