<svg xmlns="http://www.w3.org/2000/svg" width="1000" height="1000">
 <pattern id="diagonalHatch" patternUnits="userSpaceOnUse" width="8" height="8">
<path stroke="dimgray" stroke-linecap="round" stroke-width="1" d="M 4,4 L 8,8"/>
<path stroke="dimgray" stroke-linecap="round" stroke-width="1" d="M 4,4 L 0,8"/>
<path stroke="gray" stroke-linecap="round" stroke-width="1" d="M 4,4 L 8,0" />
<path stroke="gray" stroke-linecap="round" stroke-width="1" d="M 4,4 L 0,0" />
</pattern>
<pattern id="spring" patternUnits="userSpaceOnUse" width="8" height="100">
<path stroke="dimgray" stroke-linecap="round" stroke-width="2" d="M 0,0 L 8,100"/>
<path stroke="white" stroke-linecap="round" stroke-width="1" d="M 0,0 L 8,100"/>
</pattern>
<rect x="0" y="0" width="1000" height="1000" fill="white" stroke="black" stroke-width="4" />
<rect x="2" y="2" width="996" height="996" fill="white" stroke="dimgray" stroke-width="1" />
<g transform="rotate(-45 500 500)">
<!-- julian --><rect x="141.875" y="490.625" width="12.5" height="18.75" rx="1" ry="1" stroke-width="0.5" stroke="black" fill="silver" fill-opacity="1"/>
<path d="M154.375 490 L195.625 481.25 L195.625 518.75 L154.375 510 Z" stroke-width="0.5" stroke="black" stroke-linejoin="round" fill="silver" fill-opacity="1" />
<!-- julian --><rect x="195.625" y="481.25" width="15" height="37.5" rx="1" ry="1" stroke-width="0.5" stroke="black" fill="silver" fill-opacity="1"/>
<!-- julian --><rect x="210.625" y="479.375" width="30" height="41.25" rx="1" ry="1" stroke-width="0.5" stroke="black" fill="silver" fill-opacity="1"/>
<!-- julian --><rect x="240.625" y="480" width="498.75" height="40" rx="1" ry="1" stroke-width="0.5" stroke="black" fill="#FFA07A" fill-opacity="1"/>
<line x1="240.625" y1="500" x2="739.375" y2="500" stroke-width="1.5" stroke="black" fill="none" stroke-opacity="0.5"/>
<line x1="240.625" y1="500" x2="739.375" y2="500" stroke-width="0.5" stroke="gray" fill="none" stroke-opacity="0.5"/>
<line x1="560.625" y1="469.375" x2="575.625" y2="469.375" stroke-width="4" stroke="black" fill="dimgray" stroke-linecap="round" />
<line x1="575.625" y1="469.375" x2="595.625" y2="478.125" stroke-width="4" stroke="black" fill="dimgray" stroke-linecap="round" />
<line x1="595.625" y1="478.125" x2="615.625" y2="469.375" stroke-width="4" stroke="black" fill="dimgray" stroke-linecap="round" />
<line x1="615.625" y1="469.375" x2="755.625" y2="469.375" stroke-width="4" stroke="black" fill="dimgray" stroke-linecap="round" />
<path d="M755.625 469.375 Q775.625 474.375 755.625 479.375" stroke-width="4" stroke="black" fill="none" stroke-linecap="round" />
<!-- julian --><rect x="739.375" y="476.875" width="23.75" height="46.25" rx="1" ry="1" stroke-width="0.5" stroke="black" fill="silver" fill-opacity="1"/>
<line x1="560.625" y1="469.375" x2="575.625" y2="469.375" stroke-width="3" stroke="silver" fill="silver" stroke-linecap="round" />
<line x1="575.625" y1="469.375" x2="595.625" y2="478.125" stroke-width="3" stroke="silver" fill="silver" stroke-linecap="round" />
<line x1="595.625" y1="478.125" x2="615.625" y2="469.375" stroke-width="3" stroke="silver" fill="silver" stroke-linecap="round" />
<line x1="615.625" y1="469.375" x2="755.625" y2="469.375" stroke-width="3" stroke="silver" fill="silver" stroke-linecap="round" />
<path d="M755.625 469.375 Q775.625 474.375 755.625 479.375" stroke-width="3" stroke="silver" fill="none" stroke-linecap="round" />
<path d="M763.125 480 L771.875 480.625 L771.875 519.375 L763.125 520 Z" stroke-width="0.5" stroke="black" stroke-linejoin="round" fill="#FFA07A" fill-opacity="1" />
<!-- julian --><rect x="771.875" y="480.625" width="8.75" height="38.75" rx="1" ry="1" stroke-width="0.5" stroke="black" fill="#FFA07A" fill-opacity="1"/>
<!-- julian --><rect x="780.625" y="485" width="21.25" height="30" rx="1" ry="1" stroke-width="0.5" stroke="black" fill="#FFA07A" fill-opacity="1"/>
<!-- julian --><rect x="801.875" y="480" width="46.25" height="40" rx="1" ry="1" stroke-width="0.5" stroke="black" fill="#FFA07A" fill-opacity="1"/>
<line x1="801.875" y1="488.57142857142856" x2="848.125" y2="488.57142857142856" stroke-width="1.5" stroke="black" fill="none" stroke-opacity="0.5"/>
<line x1="801.875" y1="488.57142857142856" x2="848.125" y2="488.57142857142856" stroke-width="0.5" stroke="gray" fill="none" stroke-opacity="0.5"/>
<line x1="801.875" y1="511.42857142857144" x2="848.125" y2="511.42857142857144" stroke-width="1.5" stroke="black" fill="none" stroke-opacity="0.5"/>
<line x1="801.875" y1="511.42857142857144" x2="848.125" y2="511.42857142857144" stroke-width="0.5" stroke="gray" fill="none" stroke-opacity="0.5"/>
<!-- julian --><rect x="848.125" y="478.75" width="6.25" height="42.5" rx="1" ry="1" stroke-width="0.5" stroke="black" fill="#FFA07A" fill-opacity="1"/>
<path d="M854.375 478.75 Q861.875 500 854.375 521.25" stroke-width="0.5" stroke="black" stroke-linejoin="round" fill="#FFA07A" fill-opacity="1"/>
<path d="M 245.625 480 C 239.375 485, 239.375 495, 245.625 500" stroke-width="0.5" stroke="black" stroke-linecap="round" fill="#FFA07A" /><path d="M 245.625 520 C 239.375 515, 239.375 505, 245.625 500" stroke-width="0.5" stroke="black" stroke-linecap="round" fill="#FFA07A" /></g><text x="50%" y="960" font-size="1.1em" font-weight="bold" text-anchor="middle" dominant-baseline="middle">Copyright (c) // The Mechanical Pencil Database (tmpdb)</text>
<text x="50%" y="980" font-size="1.1em" font-weight="bold" text-anchor="middle" dominant-baseline="middle">Licensed under Creative Commons Attribution-NonCommercial-ShareAlike 4.0 International</text>
<text x="990" y="990" font-size="0.5em" font-weight="bold" text-anchor="end" dominant-baseline="middle">SVGPencil45Renderer</text>
</svg>