<svg xmlns="http://www.w3.org/2000/svg" width="1000" height="1020">
 <pattern id="knurled-large" patternUnits="userSpaceOnUse" width="12" height="12">
<path stroke="dimgray" stroke-linecap="round" stroke-width="1" d="M 6,6 L 12,12"/>
<path stroke="dimgray" stroke-linecap="round" stroke-width="1" d="M 6,6 L 0,12"/>
<path stroke="gray" stroke-linecap="round" stroke-width="1" d="M 6,6 L 12,0" />
<path stroke="gray" stroke-linecap="round" stroke-width="1" d="M 6,6 L 0,0" />
</pattern><pattern id="knurled-small" patternUnits="userSpaceOnUse" width="4" height="4">
<path stroke="dimgray" stroke-linecap="round" stroke-width="1" d="M 2,2 L 4,4"/>
<path stroke="dimgray" stroke-linecap="round" stroke-width="1" d="M 2,2 L 0,4"/>
<path stroke="gray" stroke-linecap="round" stroke-width="1" d="M 2,2 L 4,0" />
<path stroke="gray" stroke-linecap="round" stroke-width="1" d="M 2,2 L 0,0" />
</pattern><pattern id="knurled" patternUnits="userSpaceOnUse" width="8" height="8">
<path stroke="dimgray" stroke-linecap="round" stroke-width="1" d="M 4,4 L 8,8"/>
<path stroke="dimgray" stroke-linecap="round" stroke-width="1" d="M 4,4 L 0,8"/>
<path stroke="gray" stroke-linecap="round" stroke-width="1" d="M 4,4 L 8,0" />
<path stroke="gray" stroke-linecap="round" stroke-width="1" d="M 4,4 L 0,0" />
</pattern><pattern id="lined" patternUnits="userSpaceOnUse" width="3" height="3">
<path stroke="dimgray" stroke-linecap="round" stroke-width="1" d="M 0,0 L 3,0"/>
</pattern><pattern id="ridged" patternUnits="userSpaceOnUse" width="3" height="3">
<path stroke="dimgray" stroke-linecap="round" stroke-width="1" d="M 0,0 L 0,3"/>
</pattern><pattern id="spring" patternUnits="userSpaceOnUse" width="8" height="60">
<path stroke="dimgray" stroke-linecap="round" stroke-width="2" d="M 1,1 L 8,60"/>
<path stroke="white" stroke-linecap="round" stroke-width="1" d="M 1,1 L 8,60"/>
</pattern><rect x="0" y="0" width="1000" height="1020" fill="white" stroke="black" stroke-width="4" />
<rect x="2" y="2" width="996" height="1016" fill="white" stroke="dimgray" stroke-width="1" />
<g transform="rotate(0 0 0)">
<text x="30" y="50" font-size="2.0em" font-weight="bold"> Redcircle // 600 (Model #: 600)</text>
<line x1="360" y1="124" x2="360" y2="162" stroke="black" stroke-linecap="round"  stroke-width="2" />
<line x1="240" y1="140" x2="360" y2="140" stroke-linecap="round" stroke="black"  stroke-width="2" />
<line x1="246" y1="144" x2="360" y2="144" stroke-linecap="round" stroke="black"  stroke-width="2" />
<text x="500" y="140" font-size="2.4em" font-weight="bold" text-anchor="middle" dominant-baseline="central">Measurements</text>
<line x1="640" y1="140" x2="760" y2="140" stroke-linecap="round" stroke="black"  stroke-width="2" />
<line x1="640" y1="144" x2="754" y2="144" stroke-linecap="round" stroke="black"  stroke-width="2" />
<line x1="640" y1="124" x2="640" y2="162" stroke="black" stroke-linecap="round"  stroke-width="2" />
<line x1="40" y1="300" x2="960" y2="300" stroke-linecap="round" stroke="#5f5f5f" stroke-dasharray="2" stroke-width="1" />
<line x1="20" y1="300" x2="60" y2="300" stroke-linecap="round" stroke="#000000"  stroke-width="1" />
<line x1="40" y1="280" x2="40" y2="320" stroke="#000000" stroke-linecap="round"  stroke-width="1" />
<circle r="10" cx="40" cy="300" fill="white" fill-opacity="0" stroke="#000000" stroke-width="1"  />
<line x1="940" y1="300" x2="980" y2="300" stroke-linecap="round" stroke="#000000"  stroke-width="1" />
<line x1="960" y1="280" x2="960" y2="320" stroke="#000000" stroke-linecap="round"  stroke-width="1" />
<circle r="10" cx="960" cy="300" fill="white" fill-opacity="0" stroke="#000000" stroke-width="1"  />


<!-- renderSideComponent: tip -->


<!-- renderPart: cone -->
<path d="M136.2 291.875 L141.3 290 L141.3 310 L136.2 308.125 L136.2 291.875" stroke-width="0" stroke="none" stroke-linejoin="round" fill="white" fill-opacity="1"/>
<path d="M136.2 291.875 L141.3 290 M141.3 310 L136.2 308.125" stroke-width="0.5" stroke="black" stroke-linejoin="round" fill="white" fill-opacity="1"/>
<!-- !right !both --><path d="M141.3 290 L141.3 310" stroke-width="0.5" stroke="black" stroke-linejoin="round" fill="white" fill-opacity="1"/>
<!-- !left !both --><path d="M136.2 291.875 L136.2 308.125" stroke-width="0.5" stroke="black" stroke-linejoin="round" fill="white" fill-opacity="1"/>


<!-- renderPart: cone -->
<path d="M141.2 287.5 L203.8 281.25 L203.8 318.75 L141.2 312.5 L141.2 287.5" stroke-width="0" stroke="none" stroke-linejoin="round" fill="white" fill-opacity="1"/>
<path d="M141.2 287.5 L203.8 281.25 M203.8 318.75 L141.2 312.5" stroke-width="0.5" stroke="black" stroke-linejoin="round" fill="white" fill-opacity="1"/>
<!-- !right !both --><path d="M203.8 281.25 L203.8 318.75" stroke-width="0.5" stroke="black" stroke-linejoin="round" fill="white" fill-opacity="1"/>
<!-- !left !both --><path d="M141.2 287.5 L141.2 312.5" stroke-width="0.5" stroke="black" stroke-linejoin="round" fill="white" fill-opacity="1"/>


<!-- renderSideComponent: grip -->


<!-- renderPart: cylinder -->
<path d="M203.7 279.375 L353.8 279.375 L353.8 320.625 L203.7 320.625 L203.7 279.375" stroke-width="0" stroke="none" stroke-linejoin="round" fill="white" fill-opacity="1"/>
<path d="M203.7 279.375 L353.8 279.375 M353.8 320.625 L203.7 320.625" stroke-width="0.5" stroke="black" stroke-linejoin="round" fill="white" fill-opacity="1"/>
<!-- !right !both --><path d="M353.8 279.375 L353.8 320.625" stroke-width="0.5" stroke="black" stroke-linejoin="round" fill="white" fill-opacity="1"/>
<!-- !left !both --><path d="M203.7 279.375 L203.7 320.625" stroke-width="0.5" stroke="black" stroke-linejoin="round" fill="white" fill-opacity="1"/>
<path d="M203.75 279.375 L353.75 279.375 L353.75 320.625 L203.75 320.625 Z" stroke-width="1.0" stroke="black" fill="url(#knurled-small)"/>


<!-- renderSideComponent: shaft -->


<!-- renderSideComponent: body -->


<!-- renderPart: hexagonal -->
<path d="M353.7 280 L687.55 280 L687.55 320 L353.7 320 L353.7 280" stroke-width="0" stroke="none" stroke-linejoin="round" fill="white" fill-opacity="1"/>
<path d="M353.7 280 L687.55 280 M687.55 320 L353.7 320" stroke-width="0.5" stroke="black" stroke-linejoin="round" fill="white" fill-opacity="1"/>
<!-- !right !both --><path d="M687.55 280 L687.55 320" stroke-width="0.5" stroke="black" stroke-linejoin="round" fill="white" fill-opacity="1"/>
<!-- !left !both --><path d="M353.7 280 L353.7 320" stroke-width="0.5" stroke="black" stroke-linejoin="round" fill="white" fill-opacity="1"/>
<line x1="353.75" y1="300" x2="687.5" y2="300" stroke-width="1.5" stroke="gray" fill="gray" stroke-opacity="1.0"/>
<line x1="353.75" y1="300" x2="687.5" y2="300" stroke-width="0.5" stroke="black" fill="none" stroke-opacity="0.5"/>


<!-- renderSideComponent: clip -->
<path d="M536.25 266.875 Q561.25 289.375 573.75 266.875" stroke-width="4" stroke="black" fill="none" stroke-linecap="round" />
<line x1="536.25" y1="265.625" x2="715" y2="265.625" stroke-width="4" stroke="black" fill="dimgray" stroke-linecap="round" />
<path d="M715 265.625 Q728.75 272.5 715 278.125" stroke-width="4" stroke="black" fill="none" stroke-linecap="round" />


<!-- renderPart: cylinder -->
<path d="M687.45 276.875 L715.05 276.875 L715.05 323.125 L687.45 323.125 L687.45 276.875" stroke-width="0" stroke="none" stroke-linejoin="round" fill="white" fill-opacity="1"/>
<path d="M687.45 276.875 L715.05 276.875 M715.05 323.125 L687.45 323.125" stroke-width="0.5" stroke="black" stroke-linejoin="round" fill="white" fill-opacity="1"/>
<!-- !right !both --><path d="M715.05 276.875 L715.05 323.125" stroke-width="0.5" stroke="black" stroke-linejoin="round" fill="white" fill-opacity="1"/>
<!-- !left !both --><path d="M687.45 276.875 L687.45 323.125" stroke-width="0.5" stroke="black" stroke-linejoin="round" fill="white" fill-opacity="1"/>
<path d="M536.25 266.875 Q561.25 289.375 573.75 266.875" stroke-width="3" stroke="white" fill="none" stroke-linecap="round" />
<line x1="536.25" y1="265.625" x2="715" y2="265.625" stroke-width="3" stroke="white" fill="white" stroke-linecap="round" />
<path d="M715 265.625 Q728.75 272.5 715 278.125" stroke-width="3" stroke="white" fill="none" stroke-linecap="round" />


<!-- renderSideComponent: tail -->


<!-- renderPart: cylinder -->
<path d="M714.95 280 L740.05 280 L740.05 320 L714.95 320 L714.95 280" stroke-width="0" stroke="none" stroke-linejoin="round" fill="white" fill-opacity="1"/>
<path d="M714.95 280 L740.05 280 M740.05 320 L714.95 320" stroke-width="0.5" stroke="black" stroke-linejoin="round" fill="white" fill-opacity="1"/>
<!-- !right !both --><path d="M740.05 280 L740.05 320" stroke-width="0.5" stroke="black" stroke-linejoin="round" fill="white" fill-opacity="1"/>
<!-- !left !both --><path d="M714.95 280 L714.95 320" stroke-width="0.5" stroke="black" stroke-linejoin="round" fill="white" fill-opacity="1"/>


<!-- renderSideComponent: indicator -->


<!-- renderPart: cylinder -->
<path d="M739.95 280 L787.55 280 L787.55 320 L739.95 320 L739.95 280" stroke-width="0" stroke="none" stroke-linejoin="round" fill="white" fill-opacity="1"/>
<path d="M739.95 280 L787.55 280 M787.55 320 L739.95 320" stroke-width="0.5" stroke="black" stroke-linejoin="round" fill="white" fill-opacity="1"/>
<!-- !right !both --><path d="M787.55 280 L787.55 320" stroke-width="0.5" stroke="black" stroke-linejoin="round" fill="white" fill-opacity="1"/>
<!-- !left !both --><path d="M739.95 280 L739.95 320" stroke-width="0.5" stroke="black" stroke-linejoin="round" fill="white" fill-opacity="1"/>
<path d="M740 280 L787.5 280 L787.5 320 L740 320 Z" stroke-width="1.0" stroke="black" fill="url(#knurled-small)"/>
<rect x="750" y="290" width="27.5" height="20" rx="3" ry="3" stroke-width="1" stroke="black" fill="white"/>
<text x="763.75" y="300" text-anchor="middle" dominant-baseline="central"><tspan stroke="dimgray" stroke-width="0.5" font-family="sans-serif" fill="black" textLength="{this.width * 5 - 24}" > HB</tspan></text>

<!-- renderSideComponent: foot -->


<!-- renderPart: cylinder -->
<path d="M787.45 280 L791.3 280 L791.3 320 L787.45 320 L787.45 280" stroke-width="0" stroke="none" stroke-linejoin="round" fill="white" fill-opacity="1"/>
<path d="M787.45 280 L791.3 280 M791.3 320 L787.45 320" stroke-width="0.5" stroke="black" stroke-linejoin="round" fill="white" fill-opacity="1"/>
<!-- !right !both --><path d="M791.3 280 L791.3 320" stroke-width="0.5" stroke="black" stroke-linejoin="round" fill="white" fill-opacity="1"/>
<!-- !left !both --><path d="M787.45 280 L787.45 320" stroke-width="0.5" stroke="black" stroke-linejoin="round" fill="white" fill-opacity="1"/>


<!-- renderPart: cylinder -->
<path d="M791.2 279.375 L800.05 279.375 L800.05 320.625 L791.2 320.625 L791.2 279.375" stroke-width="0" stroke="none" stroke-linejoin="round" fill="white" fill-opacity="1"/>
<path d="M791.2 279.375 L800.05 279.375 M800.05 320.625 L791.2 320.625" stroke-width="0.5" stroke="black" stroke-linejoin="round" fill="white" fill-opacity="1"/>
<!-- !right !both --><path d="M800.05 279.375 L800.05 320.625" stroke-width="0.5" stroke="black" stroke-linejoin="round" fill="white" fill-opacity="1"/>
<!-- !left !both --><path d="M791.2 279.375 L791.2 320.625" stroke-width="0.5" stroke="black" stroke-linejoin="round" fill="white" fill-opacity="1"/>


<!-- renderPart: cylinder -->
<path d="M799.95 280 L803.8 280 L803.8 320 L799.95 320 L799.95 280" stroke-width="0" stroke="none" stroke-linejoin="round" fill="white" fill-opacity="1"/>
<path d="M799.95 280 L803.8 280 M803.8 320 L799.95 320" stroke-width="0.5" stroke="black" stroke-linejoin="round" fill="white" fill-opacity="1"/>
<!-- !right !both --><path d="M803.8 280 L803.8 320" stroke-width="0.5" stroke="black" stroke-linejoin="round" fill="white" fill-opacity="1"/>
<!-- !left !both --><path d="M799.95 280 L799.95 320" stroke-width="0.5" stroke="black" stroke-linejoin="round" fill="white" fill-opacity="1"/>


<!-- renderSideComponent: cap -->


<!-- renderPart: cylinder -->
<path d="M803.7 286.25 L863.8 286.25 L863.8 313.75 L803.7 313.75 L803.7 286.25" stroke-width="0" stroke="none" stroke-linejoin="round" fill="white" fill-opacity="1"/>
<path d="M803.7 286.25 L863.8 286.25 M863.8 313.75 L803.7 313.75" stroke-width="0.5" stroke="black" stroke-linejoin="round" fill="white" fill-opacity="1"/>
<!-- !right !both --><path d="M863.8 286.25 L863.8 313.75" stroke-width="0.5" stroke="black" stroke-linejoin="round" fill="white" fill-opacity="1"/>
<!-- !left !both --><path d="M803.7 286.25 L803.7 313.75" stroke-width="0.5" stroke="black" stroke-linejoin="round" fill="white" fill-opacity="1"/>
<line x1="136.25" y1="205.875" x2="136.25" y2="227.875" stroke="black" stroke-width="1" />
<line x1="136.25" y1="216.875" x2="203.75" y2="216.875" stroke="black" stroke-width="1" />
<line x1="203.75" y1="205.875" x2="203.75" y2="227.875" stroke="black" stroke-width="1" />
<text x="170" y="197.875" font-size="1.2em" font-weight="bold" text-anchor="middle" dominant-baseline="central" fill="black"><tspan x="170" dy="0">13.50 mm</tspan></text>
<line x1="136.25" y1="205.875" x2="136.25" y2="227.875" stroke="black" stroke-width="1" />
<line x1="136.25" y1="216.875" x2="203.75" y2="216.875" stroke="black" stroke-width="1" />
<line x1="203.75" y1="205.875" x2="203.75" y2="227.875" stroke="black" stroke-width="1" />
<text x="170" y="235.875" font-size="1.2em" font-weight="bold" text-anchor="middle" dominant-baseline="central" fill="black"><tspan x="170" dy="0">tip</tspan></text>
<line x1="203.75" y1="205.875" x2="203.75" y2="227.875" stroke="black" stroke-width="1" />
<line x1="203.75" y1="216.875" x2="803.75" y2="216.875" stroke="black" stroke-width="1" />
<line x1="803.75" y1="205.875" x2="803.75" y2="227.875" stroke="black" stroke-width="1" />
<text x="503.75" y="197.875" font-size="1.2em" font-weight="bold" text-anchor="middle" dominant-baseline="central" fill="black"><tspan x="503.75" dy="0">120.00 mm</tspan></text>
<line x1="203.75" y1="205.875" x2="203.75" y2="227.875" stroke="black" stroke-width="1" />
<line x1="203.75" y1="216.875" x2="803.75" y2="216.875" stroke="black" stroke-width="1" />
<line x1="803.75" y1="205.875" x2="803.75" y2="227.875" stroke="black" stroke-width="1" />
<text x="503.75" y="235.875" font-size="1.2em" font-weight="bold" text-anchor="middle" dominant-baseline="central" fill="black"><tspan x="503.75" dy="0">body</tspan></text>
<line x1="803.75" y1="205.875" x2="803.75" y2="227.875" stroke="black" stroke-width="1" />
<line x1="803.75" y1="216.875" x2="863.75" y2="216.875" stroke="black" stroke-width="1" />
<line x1="863.75" y1="205.875" x2="863.75" y2="227.875" stroke="black" stroke-width="1" />
<text x="833.75" y="197.875" font-size="1.2em" font-weight="bold" text-anchor="middle" dominant-baseline="central" fill="black"><tspan x="833.75" dy="0">12.00 mm</tspan></text>
<line x1="803.75" y1="205.875" x2="803.75" y2="227.875" stroke="black" stroke-width="1" />
<line x1="803.75" y1="216.875" x2="863.75" y2="216.875" stroke="black" stroke-width="1" />
<line x1="863.75" y1="205.875" x2="863.75" y2="227.875" stroke="black" stroke-width="1" />
<text x="833.75" y="235.875" font-size="1.2em" font-weight="bold" text-anchor="middle" dominant-baseline="central" fill="black"><tspan x="833.75" dy="0">cap</tspan></text>
<line x1="136.25" y1="402.125" x2="136.25" y2="424.125" stroke="black" stroke-width="1" />
<line x1="136.25" y1="413.125" x2="863.75" y2="413.125" stroke="black" stroke-width="1" />
<line x1="863.75" y1="402.125" x2="863.75" y2="424.125" stroke="black" stroke-width="1" />
<text x="500" y="432.125" font-size="1.2em" font-weight="bold" text-anchor="middle" dominant-baseline="central" fill="black"><tspan x="500" dy="0">145.50 mm</tspan></text>
<line x1="136.25" y1="402.125" x2="136.25" y2="424.125" stroke="black" stroke-width="1" />
<line x1="136.25" y1="413.125" x2="863.75" y2="413.125" stroke="black" stroke-width="1" />
<line x1="863.75" y1="402.125" x2="863.75" y2="424.125" stroke="black" stroke-width="1" />
<text x="500" y="394.125" font-size="1.2em" font-weight="bold" text-anchor="middle" dominant-baseline="central" fill="black"><tspan x="500" dy="0">Total Length</tspan></text>
<line x1="536.25" y1="342.125" x2="536.25" y2="364.125" stroke="black" stroke-width="1" />
<line x1="536.25" y1="353.125" x2="715" y2="353.125" stroke="black" stroke-width="1" />
<line x1="715" y1="342.125" x2="715" y2="364.125" stroke="black" stroke-width="1" />
<text x="625.625" y="334.125" font-size="1.2em" font-weight="bold" text-anchor="middle" dominant-baseline="central" fill="black"><tspan x="625.625" dy="0">35.75 mm</tspan></text>
<line x1="536.25" y1="342.125" x2="536.25" y2="364.125" stroke="black" stroke-width="1" />
<line x1="536.25" y1="353.125" x2="715" y2="353.125" stroke="black" stroke-width="1" />
<line x1="715" y1="342.125" x2="715" y2="364.125" stroke="black" stroke-width="1" />
<text x="625.625" y="372.125" font-size="1.2em" font-weight="bold" text-anchor="middle" dominant-baseline="central" fill="black"><tspan x="625.625" dy="0">clip</tspan></text>
<line x1="203.75" y1="342.125" x2="203.75" y2="364.125" stroke="black" stroke-width="1" />
<line x1="203.75" y1="353.125" x2="353.75" y2="353.125" stroke="black" stroke-width="1" />
<line x1="353.75" y1="342.125" x2="353.75" y2="364.125" stroke="black" stroke-width="1" />
<text x="278.75" y="334.125" font-size="1.2em" font-weight="bold" text-anchor="middle" dominant-baseline="central" fill="black"><tspan x="278.75" dy="0">30.00 mm</tspan></text>
<line x1="203.75" y1="342.125" x2="203.75" y2="364.125" stroke="black" stroke-width="1" />
<line x1="203.75" y1="353.125" x2="353.75" y2="353.125" stroke="black" stroke-width="1" />
<line x1="353.75" y1="342.125" x2="353.75" y2="364.125" stroke="black" stroke-width="1" />
<text x="278.75" y="372.125" font-size="1.2em" font-weight="bold" text-anchor="middle" dominant-baseline="central" fill="black"><tspan x="278.75" dy="0">grip</tspan></text>
<line x1="414" y1="524" x2="414" y2="562" stroke="black" stroke-linecap="round"  stroke-width="2" />
<line x1="240" y1="540" x2="414" y2="540" stroke-linecap="round" stroke="black"  stroke-width="2" />
<line x1="246" y1="544" x2="414" y2="544" stroke-linecap="round" stroke="black"  stroke-width="2" />
<text x="500" y="540" font-size="2.4em" font-weight="bold" text-anchor="middle" dominant-baseline="central">Variants</text>
<line x1="586" y1="540" x2="760" y2="540" stroke-linecap="round" stroke="black"  stroke-width="2" />
<line x1="586" y1="544" x2="754" y2="544" stroke-linecap="round" stroke="black"  stroke-width="2" />
<line x1="586" y1="524" x2="586" y2="562" stroke="black" stroke-linecap="round"  stroke-width="2" />


<!-- renderSideComponent: tip -->


<!-- renderPart: cone -->
<path d="M136.2 631.875 L141.3 630 L141.3 650 L136.2 648.125 L136.2 631.875" stroke-width="0" stroke="none" stroke-linejoin="round" fill="black" fill-opacity="1"/>
<path d="M136.2 631.875 L141.3 630 M141.3 650 L136.2 648.125" stroke-width="0.5" stroke="dimgray" stroke-linejoin="round" fill="black" fill-opacity="1"/>
<!-- !right !both --><path d="M141.3 630 L141.3 650" stroke-width="0.5" stroke="dimgray" stroke-linejoin="round" fill="black" fill-opacity="1"/>
<!-- !left !both --><path d="M136.2 631.875 L136.2 648.125" stroke-width="0.5" stroke="dimgray" stroke-linejoin="round" fill="black" fill-opacity="1"/>


<!-- renderPart: cone -->
<path d="M141.2 627.5 L203.8 621.25 L203.8 658.75 L141.2 652.5 L141.2 627.5" stroke-width="0" stroke="none" stroke-linejoin="round" fill="black" fill-opacity="1"/>
<path d="M141.2 627.5 L203.8 621.25 M203.8 658.75 L141.2 652.5" stroke-width="0.5" stroke="dimgray" stroke-linejoin="round" fill="black" fill-opacity="1"/>
<!-- !right !both --><path d="M203.8 621.25 L203.8 658.75" stroke-width="0.5" stroke="dimgray" stroke-linejoin="round" fill="black" fill-opacity="1"/>
<!-- !left !both --><path d="M141.2 627.5 L141.2 652.5" stroke-width="0.5" stroke="dimgray" stroke-linejoin="round" fill="black" fill-opacity="1"/>


<!-- renderSideComponent: grip -->


<!-- renderPart: cylinder -->
<path d="M203.7 619.375 L353.8 619.375 L353.8 660.625 L203.7 660.625 L203.7 619.375" stroke-width="0" stroke="none" stroke-linejoin="round" fill="black" fill-opacity="1"/>
<path d="M203.7 619.375 L353.8 619.375 M353.8 660.625 L203.7 660.625" stroke-width="0.5" stroke="dimgray" stroke-linejoin="round" fill="black" fill-opacity="1"/>
<!-- !right !both --><path d="M353.8 619.375 L353.8 660.625" stroke-width="0.5" stroke="dimgray" stroke-linejoin="round" fill="black" fill-opacity="1"/>
<!-- !left !both --><path d="M203.7 619.375 L203.7 660.625" stroke-width="0.5" stroke="dimgray" stroke-linejoin="round" fill="black" fill-opacity="1"/>
<path d="M203.75 619.375 L353.75 619.375 L353.75 660.625 L203.75 660.625 Z" stroke-width="1.0" stroke="black" fill="url(#knurled-small)"/>


<!-- renderSideComponent: shaft -->


<!-- renderSideComponent: body -->


<!-- renderPart: hexagonal -->
<path d="M353.7 620 L687.55 620 L687.55 660 L353.7 660 L353.7 620" stroke-width="0" stroke="none" stroke-linejoin="round" fill="black" fill-opacity="1"/>
<path d="M353.7 620 L687.55 620 M687.55 660 L353.7 660" stroke-width="0.5" stroke="dimgray" stroke-linejoin="round" fill="black" fill-opacity="1"/>
<!-- !right !both --><path d="M687.55 620 L687.55 660" stroke-width="0.5" stroke="dimgray" stroke-linejoin="round" fill="black" fill-opacity="1"/>
<!-- !left !both --><path d="M353.7 620 L353.7 660" stroke-width="0.5" stroke="dimgray" stroke-linejoin="round" fill="black" fill-opacity="1"/>
<line x1="353.75" y1="640" x2="687.5" y2="640" stroke-width="1.5" stroke="gray" fill="gray" stroke-opacity="1.0"/>
<line x1="353.75" y1="640" x2="687.5" y2="640" stroke-width="0.5" stroke="black" fill="none" stroke-opacity="0.5"/>


<!-- renderSideComponent: clip -->
<path d="M536.25 606.875 Q561.25 629.375 573.75 606.875" stroke-width="4" stroke="dimgray" fill="none" stroke-linecap="round" />
<line x1="536.25" y1="605.625" x2="715" y2="605.625" stroke-width="4" stroke="dimgray" fill="dimgray" stroke-linecap="round" />
<path d="M715 605.625 Q728.75 612.5 715 618.125" stroke-width="4" stroke="dimgray" fill="none" stroke-linecap="round" />


<!-- renderPart: cylinder -->
<path d="M687.45 616.875 L715.05 616.875 L715.05 663.125 L687.45 663.125 L687.45 616.875" stroke-width="0" stroke="none" stroke-linejoin="round" fill="black" fill-opacity="1"/>
<path d="M687.45 616.875 L715.05 616.875 M715.05 663.125 L687.45 663.125" stroke-width="0.5" stroke="dimgray" stroke-linejoin="round" fill="black" fill-opacity="1"/>
<!-- !right !both --><path d="M715.05 616.875 L715.05 663.125" stroke-width="0.5" stroke="dimgray" stroke-linejoin="round" fill="black" fill-opacity="1"/>
<!-- !left !both --><path d="M687.45 616.875 L687.45 663.125" stroke-width="0.5" stroke="dimgray" stroke-linejoin="round" fill="black" fill-opacity="1"/>
<path d="M536.25 606.875 Q561.25 629.375 573.75 606.875" stroke-width="3" stroke="black" fill="none" stroke-linecap="round" />
<line x1="536.25" y1="605.625" x2="715" y2="605.625" stroke-width="3" stroke="black" fill="black" stroke-linecap="round" />
<path d="M715 605.625 Q728.75 612.5 715 618.125" stroke-width="3" stroke="black" fill="none" stroke-linecap="round" />


<!-- renderSideComponent: tail -->


<!-- renderPart: cylinder -->
<path d="M714.95 620 L740.05 620 L740.05 660 L714.95 660 L714.95 620" stroke-width="0" stroke="none" stroke-linejoin="round" fill="black" fill-opacity="1"/>
<path d="M714.95 620 L740.05 620 M740.05 660 L714.95 660" stroke-width="0.5" stroke="dimgray" stroke-linejoin="round" fill="black" fill-opacity="1"/>
<!-- !right !both --><path d="M740.05 620 L740.05 660" stroke-width="0.5" stroke="dimgray" stroke-linejoin="round" fill="black" fill-opacity="1"/>
<!-- !left !both --><path d="M714.95 620 L714.95 660" stroke-width="0.5" stroke="dimgray" stroke-linejoin="round" fill="black" fill-opacity="1"/>


<!-- renderSideComponent: indicator -->


<!-- renderPart: cylinder -->
<path d="M739.95 620 L787.55 620 L787.55 660 L739.95 660 L739.95 620" stroke-width="0" stroke="none" stroke-linejoin="round" fill="black" fill-opacity="1"/>
<path d="M739.95 620 L787.55 620 M787.55 660 L739.95 660" stroke-width="0.5" stroke="dimgray" stroke-linejoin="round" fill="black" fill-opacity="1"/>
<!-- !right !both --><path d="M787.55 620 L787.55 660" stroke-width="0.5" stroke="dimgray" stroke-linejoin="round" fill="black" fill-opacity="1"/>
<!-- !left !both --><path d="M739.95 620 L739.95 660" stroke-width="0.5" stroke="dimgray" stroke-linejoin="round" fill="black" fill-opacity="1"/>
<path d="M740 620 L787.5 620 L787.5 660 L740 660 Z" stroke-width="1.0" stroke="black" fill="url(#knurled-small)"/>
<rect x="750" y="630" width="27.5" height="20" rx="3" ry="3" stroke-width="1" stroke="black" fill="black"/>
<text x="763.75" y="640" text-anchor="middle" dominant-baseline="central"><tspan stroke="dimgray" stroke-width="0.5" font-family="sans-serif" fill="black" textLength="{this.width * 5 - 24}" > HB</tspan></text>

<!-- renderSideComponent: foot -->


<!-- renderPart: cylinder -->
<path d="M787.45 620 L791.3 620 L791.3 660 L787.45 660 L787.45 620" stroke-width="0" stroke="none" stroke-linejoin="round" fill="black" fill-opacity="1"/>
<path d="M787.45 620 L791.3 620 M791.3 660 L787.45 660" stroke-width="0.5" stroke="dimgray" stroke-linejoin="round" fill="black" fill-opacity="1"/>
<!-- !right !both --><path d="M791.3 620 L791.3 660" stroke-width="0.5" stroke="dimgray" stroke-linejoin="round" fill="black" fill-opacity="1"/>
<!-- !left !both --><path d="M787.45 620 L787.45 660" stroke-width="0.5" stroke="dimgray" stroke-linejoin="round" fill="black" fill-opacity="1"/>


<!-- renderPart: cylinder -->
<path d="M791.2 619.375 L800.05 619.375 L800.05 660.625 L791.2 660.625 L791.2 619.375" stroke-width="0" stroke="none" stroke-linejoin="round" fill="#680000" fill-opacity="1"/>
<path d="M791.2 619.375 L800.05 619.375 M800.05 660.625 L791.2 660.625" stroke-width="0.5" stroke="black" stroke-linejoin="round" fill="#680000" fill-opacity="1"/>
<!-- !right !both --><path d="M800.05 619.375 L800.05 660.625" stroke-width="0.5" stroke="black" stroke-linejoin="round" fill="#680000" fill-opacity="1"/>
<!-- !left !both --><path d="M791.2 619.375 L791.2 660.625" stroke-width="0.5" stroke="black" stroke-linejoin="round" fill="#680000" fill-opacity="1"/>


<!-- renderPart: cylinder -->
<path d="M799.95 620 L803.8 620 L803.8 660 L799.95 660 L799.95 620" stroke-width="0" stroke="none" stroke-linejoin="round" fill="black" fill-opacity="1"/>
<path d="M799.95 620 L803.8 620 M803.8 660 L799.95 660" stroke-width="0.5" stroke="dimgray" stroke-linejoin="round" fill="black" fill-opacity="1"/>
<!-- !right !both --><path d="M803.8 620 L803.8 660" stroke-width="0.5" stroke="dimgray" stroke-linejoin="round" fill="black" fill-opacity="1"/>
<!-- !left !both --><path d="M799.95 620 L799.95 660" stroke-width="0.5" stroke="dimgray" stroke-linejoin="round" fill="black" fill-opacity="1"/>


<!-- renderSideComponent: cap -->


<!-- renderPart: cylinder -->
<path d="M803.7 626.25 L863.8 626.25 L863.8 653.75 L803.7 653.75 L803.7 626.25" stroke-width="0" stroke="none" stroke-linejoin="round" fill="black" fill-opacity="1"/>
<path d="M803.7 626.25 L863.8 626.25 M863.8 653.75 L803.7 653.75" stroke-width="0.5" stroke="dimgray" stroke-linejoin="round" fill="black" fill-opacity="1"/>
<!-- !right !both --><path d="M863.8 626.25 L863.8 653.75" stroke-width="0.5" stroke="dimgray" stroke-linejoin="round" fill="black" fill-opacity="1"/>
<!-- !left !both --><path d="M803.7 626.25 L803.7 653.75" stroke-width="0.5" stroke="dimgray" stroke-linejoin="round" fill="black" fill-opacity="1"/>
<text x="500" y="690" font-size="1.2em" font-weight="bold" text-anchor="middle" dominant-baseline="central">black</text>


<!-- renderSideComponent: tip -->


<!-- renderPart: cone -->
<path d="M136.2 751.875 L141.3 750 L141.3 770 L136.2 768.125 L136.2 751.875" stroke-width="0" stroke="none" stroke-linejoin="round" fill="#b4b8b9" fill-opacity="1"/>
<path d="M136.2 751.875 L141.3 750 M141.3 770 L136.2 768.125" stroke-width="0.5" stroke="black" stroke-linejoin="round" fill="#b4b8b9" fill-opacity="1"/>
<!-- !right !both --><path d="M141.3 750 L141.3 770" stroke-width="0.5" stroke="black" stroke-linejoin="round" fill="#b4b8b9" fill-opacity="1"/>
<!-- !left !both --><path d="M136.2 751.875 L136.2 768.125" stroke-width="0.5" stroke="black" stroke-linejoin="round" fill="#b4b8b9" fill-opacity="1"/>


<!-- renderPart: cone -->
<path d="M141.2 747.5 L203.8 741.25 L203.8 778.75 L141.2 772.5 L141.2 747.5" stroke-width="0" stroke="none" stroke-linejoin="round" fill="#b4b8b9" fill-opacity="1"/>
<path d="M141.2 747.5 L203.8 741.25 M203.8 778.75 L141.2 772.5" stroke-width="0.5" stroke="black" stroke-linejoin="round" fill="#b4b8b9" fill-opacity="1"/>
<!-- !right !both --><path d="M203.8 741.25 L203.8 778.75" stroke-width="0.5" stroke="black" stroke-linejoin="round" fill="#b4b8b9" fill-opacity="1"/>
<!-- !left !both --><path d="M141.2 747.5 L141.2 772.5" stroke-width="0.5" stroke="black" stroke-linejoin="round" fill="#b4b8b9" fill-opacity="1"/>


<!-- renderSideComponent: grip -->


<!-- renderPart: cylinder -->
<path d="M203.7 739.375 L353.8 739.375 L353.8 780.625 L203.7 780.625 L203.7 739.375" stroke-width="0" stroke="none" stroke-linejoin="round" fill="#b4b8b9" fill-opacity="1"/>
<path d="M203.7 739.375 L353.8 739.375 M353.8 780.625 L203.7 780.625" stroke-width="0.5" stroke="black" stroke-linejoin="round" fill="#b4b8b9" fill-opacity="1"/>
<!-- !right !both --><path d="M353.8 739.375 L353.8 780.625" stroke-width="0.5" stroke="black" stroke-linejoin="round" fill="#b4b8b9" fill-opacity="1"/>
<!-- !left !both --><path d="M203.7 739.375 L203.7 780.625" stroke-width="0.5" stroke="black" stroke-linejoin="round" fill="#b4b8b9" fill-opacity="1"/>
<path d="M203.75 739.375 L353.75 739.375 L353.75 780.625 L203.75 780.625 Z" stroke-width="1.0" stroke="black" fill="url(#knurled-small)"/>


<!-- renderSideComponent: shaft -->


<!-- renderSideComponent: body -->


<!-- renderPart: hexagonal -->
<path d="M353.7 740 L687.55 740 L687.55 780 L353.7 780 L353.7 740" stroke-width="0" stroke="none" stroke-linejoin="round" fill="#b4b8b9" fill-opacity="1"/>
<path d="M353.7 740 L687.55 740 M687.55 780 L353.7 780" stroke-width="0.5" stroke="black" stroke-linejoin="round" fill="#b4b8b9" fill-opacity="1"/>
<!-- !right !both --><path d="M687.55 740 L687.55 780" stroke-width="0.5" stroke="black" stroke-linejoin="round" fill="#b4b8b9" fill-opacity="1"/>
<!-- !left !both --><path d="M353.7 740 L353.7 780" stroke-width="0.5" stroke="black" stroke-linejoin="round" fill="#b4b8b9" fill-opacity="1"/>
<line x1="353.75" y1="760" x2="687.5" y2="760" stroke-width="1.5" stroke="gray" fill="gray" stroke-opacity="1.0"/>
<line x1="353.75" y1="760" x2="687.5" y2="760" stroke-width="0.5" stroke="black" fill="none" stroke-opacity="0.5"/>


<!-- renderSideComponent: clip -->
<path d="M536.25 726.875 Q561.25 749.375 573.75 726.875" stroke-width="4" stroke="black" fill="none" stroke-linecap="round" />
<line x1="536.25" y1="725.625" x2="715" y2="725.625" stroke-width="4" stroke="black" fill="dimgray" stroke-linecap="round" />
<path d="M715 725.625 Q728.75 732.5 715 738.125" stroke-width="4" stroke="black" fill="none" stroke-linecap="round" />


<!-- renderPart: cylinder -->
<path d="M687.45 736.875 L715.05 736.875 L715.05 783.125 L687.45 783.125 L687.45 736.875" stroke-width="0" stroke="none" stroke-linejoin="round" fill="#b4b8b9" fill-opacity="1"/>
<path d="M687.45 736.875 L715.05 736.875 M715.05 783.125 L687.45 783.125" stroke-width="0.5" stroke="black" stroke-linejoin="round" fill="#b4b8b9" fill-opacity="1"/>
<!-- !right !both --><path d="M715.05 736.875 L715.05 783.125" stroke-width="0.5" stroke="black" stroke-linejoin="round" fill="#b4b8b9" fill-opacity="1"/>
<!-- !left !both --><path d="M687.45 736.875 L687.45 783.125" stroke-width="0.5" stroke="black" stroke-linejoin="round" fill="#b4b8b9" fill-opacity="1"/>
<path d="M536.25 726.875 Q561.25 749.375 573.75 726.875" stroke-width="3" stroke="#b4b8b9" fill="none" stroke-linecap="round" />
<line x1="536.25" y1="725.625" x2="715" y2="725.625" stroke-width="3" stroke="#b4b8b9" fill="#b4b8b9" stroke-linecap="round" />
<path d="M715 725.625 Q728.75 732.5 715 738.125" stroke-width="3" stroke="#b4b8b9" fill="none" stroke-linecap="round" />


<!-- renderSideComponent: tail -->


<!-- renderPart: cylinder -->
<path d="M714.95 740 L740.05 740 L740.05 780 L714.95 780 L714.95 740" stroke-width="0" stroke="none" stroke-linejoin="round" fill="#b4b8b9" fill-opacity="1"/>
<path d="M714.95 740 L740.05 740 M740.05 780 L714.95 780" stroke-width="0.5" stroke="black" stroke-linejoin="round" fill="#b4b8b9" fill-opacity="1"/>
<!-- !right !both --><path d="M740.05 740 L740.05 780" stroke-width="0.5" stroke="black" stroke-linejoin="round" fill="#b4b8b9" fill-opacity="1"/>
<!-- !left !both --><path d="M714.95 740 L714.95 780" stroke-width="0.5" stroke="black" stroke-linejoin="round" fill="#b4b8b9" fill-opacity="1"/>


<!-- renderSideComponent: indicator -->


<!-- renderPart: cylinder -->
<path d="M739.95 740 L787.55 740 L787.55 780 L739.95 780 L739.95 740" stroke-width="0" stroke="none" stroke-linejoin="round" fill="#b4b8b9" fill-opacity="1"/>
<path d="M739.95 740 L787.55 740 M787.55 780 L739.95 780" stroke-width="0.5" stroke="black" stroke-linejoin="round" fill="#b4b8b9" fill-opacity="1"/>
<!-- !right !both --><path d="M787.55 740 L787.55 780" stroke-width="0.5" stroke="black" stroke-linejoin="round" fill="#b4b8b9" fill-opacity="1"/>
<!-- !left !both --><path d="M739.95 740 L739.95 780" stroke-width="0.5" stroke="black" stroke-linejoin="round" fill="#b4b8b9" fill-opacity="1"/>
<path d="M740 740 L787.5 740 L787.5 780 L740 780 Z" stroke-width="1.0" stroke="black" fill="url(#knurled-small)"/>
<rect x="750" y="750" width="27.5" height="20" rx="3" ry="3" stroke-width="1" stroke="black" fill="#b4b8b9"/>
<text x="763.75" y="760" text-anchor="middle" dominant-baseline="central"><tspan stroke="dimgray" stroke-width="0.5" font-family="sans-serif" fill="black" textLength="{this.width * 5 - 24}" > HB</tspan></text>

<!-- renderSideComponent: foot -->


<!-- renderPart: cylinder -->
<path d="M787.45 740 L791.3 740 L791.3 780 L787.45 780 L787.45 740" stroke-width="0" stroke="none" stroke-linejoin="round" fill="#b4b8b9" fill-opacity="1"/>
<path d="M787.45 740 L791.3 740 M791.3 780 L787.45 780" stroke-width="0.5" stroke="black" stroke-linejoin="round" fill="#b4b8b9" fill-opacity="1"/>
<!-- !right !both --><path d="M791.3 740 L791.3 780" stroke-width="0.5" stroke="black" stroke-linejoin="round" fill="#b4b8b9" fill-opacity="1"/>
<!-- !left !both --><path d="M787.45 740 L787.45 780" stroke-width="0.5" stroke="black" stroke-linejoin="round" fill="#b4b8b9" fill-opacity="1"/>


<!-- renderPart: cylinder -->
<path d="M791.2 739.375 L800.05 739.375 L800.05 780.625 L791.2 780.625 L791.2 739.375" stroke-width="0" stroke="none" stroke-linejoin="round" fill="#680000" fill-opacity="1"/>
<path d="M791.2 739.375 L800.05 739.375 M800.05 780.625 L791.2 780.625" stroke-width="0.5" stroke="black" stroke-linejoin="round" fill="#680000" fill-opacity="1"/>
<!-- !right !both --><path d="M800.05 739.375 L800.05 780.625" stroke-width="0.5" stroke="black" stroke-linejoin="round" fill="#680000" fill-opacity="1"/>
<!-- !left !both --><path d="M791.2 739.375 L791.2 780.625" stroke-width="0.5" stroke="black" stroke-linejoin="round" fill="#680000" fill-opacity="1"/>


<!-- renderPart: cylinder -->
<path d="M799.95 740 L803.8 740 L803.8 780 L799.95 780 L799.95 740" stroke-width="0" stroke="none" stroke-linejoin="round" fill="#b4b8b9" fill-opacity="1"/>
<path d="M799.95 740 L803.8 740 M803.8 780 L799.95 780" stroke-width="0.5" stroke="black" stroke-linejoin="round" fill="#b4b8b9" fill-opacity="1"/>
<!-- !right !both --><path d="M803.8 740 L803.8 780" stroke-width="0.5" stroke="black" stroke-linejoin="round" fill="#b4b8b9" fill-opacity="1"/>
<!-- !left !both --><path d="M799.95 740 L799.95 780" stroke-width="0.5" stroke="black" stroke-linejoin="round" fill="#b4b8b9" fill-opacity="1"/>


<!-- renderSideComponent: cap -->


<!-- renderPart: cylinder -->
<path d="M803.7 746.25 L863.8 746.25 L863.8 773.75 L803.7 773.75 L803.7 746.25" stroke-width="0" stroke="none" stroke-linejoin="round" fill="#b4b8b9" fill-opacity="1"/>
<path d="M803.7 746.25 L863.8 746.25 M863.8 773.75 L803.7 773.75" stroke-width="0.5" stroke="black" stroke-linejoin="round" fill="#b4b8b9" fill-opacity="1"/>
<!-- !right !both --><path d="M863.8 746.25 L863.8 773.75" stroke-width="0.5" stroke="black" stroke-linejoin="round" fill="#b4b8b9" fill-opacity="1"/>
<!-- !left !both --><path d="M803.7 746.25 L803.7 773.75" stroke-width="0.5" stroke="black" stroke-linejoin="round" fill="#b4b8b9" fill-opacity="1"/>
<text x="500" y="810" font-size="1.2em" font-weight="bold" text-anchor="middle" dominant-baseline="central">silver</text>


<!-- renderSideComponent: tip -->


<!-- renderPart: cone -->
<path d="M136.2 871.875 L141.3 870 L141.3 890 L136.2 888.125 L136.2 871.875" stroke-width="0" stroke="none" stroke-linejoin="round" fill="gold" fill-opacity="1"/>
<path d="M136.2 871.875 L141.3 870 M141.3 890 L136.2 888.125" stroke-width="0.5" stroke="black" stroke-linejoin="round" fill="gold" fill-opacity="1"/>
<!-- !right !both --><path d="M141.3 870 L141.3 890" stroke-width="0.5" stroke="black" stroke-linejoin="round" fill="gold" fill-opacity="1"/>
<!-- !left !both --><path d="M136.2 871.875 L136.2 888.125" stroke-width="0.5" stroke="black" stroke-linejoin="round" fill="gold" fill-opacity="1"/>


<!-- renderPart: cone -->
<path d="M141.2 867.5 L203.8 861.25 L203.8 898.75 L141.2 892.5 L141.2 867.5" stroke-width="0" stroke="none" stroke-linejoin="round" fill="gold" fill-opacity="1"/>
<path d="M141.2 867.5 L203.8 861.25 M203.8 898.75 L141.2 892.5" stroke-width="0.5" stroke="black" stroke-linejoin="round" fill="gold" fill-opacity="1"/>
<!-- !right !both --><path d="M203.8 861.25 L203.8 898.75" stroke-width="0.5" stroke="black" stroke-linejoin="round" fill="gold" fill-opacity="1"/>
<!-- !left !both --><path d="M141.2 867.5 L141.2 892.5" stroke-width="0.5" stroke="black" stroke-linejoin="round" fill="gold" fill-opacity="1"/>


<!-- renderSideComponent: grip -->


<!-- renderPart: cylinder -->
<path d="M203.7 859.375 L353.8 859.375 L353.8 900.625 L203.7 900.625 L203.7 859.375" stroke-width="0" stroke="none" stroke-linejoin="round" fill="gold" fill-opacity="1"/>
<path d="M203.7 859.375 L353.8 859.375 M353.8 900.625 L203.7 900.625" stroke-width="0.5" stroke="black" stroke-linejoin="round" fill="gold" fill-opacity="1"/>
<!-- !right !both --><path d="M353.8 859.375 L353.8 900.625" stroke-width="0.5" stroke="black" stroke-linejoin="round" fill="gold" fill-opacity="1"/>
<!-- !left !both --><path d="M203.7 859.375 L203.7 900.625" stroke-width="0.5" stroke="black" stroke-linejoin="round" fill="gold" fill-opacity="1"/>
<path d="M203.75 859.375 L353.75 859.375 L353.75 900.625 L203.75 900.625 Z" stroke-width="1.0" stroke="black" fill="url(#knurled-small)"/>


<!-- renderSideComponent: shaft -->


<!-- renderSideComponent: body -->


<!-- renderPart: hexagonal -->
<path d="M353.7 860 L687.55 860 L687.55 900 L353.7 900 L353.7 860" stroke-width="0" stroke="none" stroke-linejoin="round" fill="gold" fill-opacity="1"/>
<path d="M353.7 860 L687.55 860 M687.55 900 L353.7 900" stroke-width="0.5" stroke="black" stroke-linejoin="round" fill="gold" fill-opacity="1"/>
<!-- !right !both --><path d="M687.55 860 L687.55 900" stroke-width="0.5" stroke="black" stroke-linejoin="round" fill="gold" fill-opacity="1"/>
<!-- !left !both --><path d="M353.7 860 L353.7 900" stroke-width="0.5" stroke="black" stroke-linejoin="round" fill="gold" fill-opacity="1"/>
<line x1="353.75" y1="880" x2="687.5" y2="880" stroke-width="1.5" stroke="gray" fill="gray" stroke-opacity="1.0"/>
<line x1="353.75" y1="880" x2="687.5" y2="880" stroke-width="0.5" stroke="black" fill="none" stroke-opacity="0.5"/>


<!-- renderSideComponent: clip -->
<path d="M536.25 846.875 Q561.25 869.375 573.75 846.875" stroke-width="4" stroke="black" fill="none" stroke-linecap="round" />
<line x1="536.25" y1="845.625" x2="715" y2="845.625" stroke-width="4" stroke="black" fill="dimgray" stroke-linecap="round" />
<path d="M715 845.625 Q728.75 852.5 715 858.125" stroke-width="4" stroke="black" fill="none" stroke-linecap="round" />


<!-- renderPart: cylinder -->
<path d="M687.45 856.875 L715.05 856.875 L715.05 903.125 L687.45 903.125 L687.45 856.875" stroke-width="0" stroke="none" stroke-linejoin="round" fill="gold" fill-opacity="1"/>
<path d="M687.45 856.875 L715.05 856.875 M715.05 903.125 L687.45 903.125" stroke-width="0.5" stroke="black" stroke-linejoin="round" fill="gold" fill-opacity="1"/>
<!-- !right !both --><path d="M715.05 856.875 L715.05 903.125" stroke-width="0.5" stroke="black" stroke-linejoin="round" fill="gold" fill-opacity="1"/>
<!-- !left !both --><path d="M687.45 856.875 L687.45 903.125" stroke-width="0.5" stroke="black" stroke-linejoin="round" fill="gold" fill-opacity="1"/>
<path d="M536.25 846.875 Q561.25 869.375 573.75 846.875" stroke-width="3" stroke="gold" fill="none" stroke-linecap="round" />
<line x1="536.25" y1="845.625" x2="715" y2="845.625" stroke-width="3" stroke="gold" fill="gold" stroke-linecap="round" />
<path d="M715 845.625 Q728.75 852.5 715 858.125" stroke-width="3" stroke="gold" fill="none" stroke-linecap="round" />


<!-- renderSideComponent: tail -->


<!-- renderPart: cylinder -->
<path d="M714.95 860 L740.05 860 L740.05 900 L714.95 900 L714.95 860" stroke-width="0" stroke="none" stroke-linejoin="round" fill="gold" fill-opacity="1"/>
<path d="M714.95 860 L740.05 860 M740.05 900 L714.95 900" stroke-width="0.5" stroke="black" stroke-linejoin="round" fill="gold" fill-opacity="1"/>
<!-- !right !both --><path d="M740.05 860 L740.05 900" stroke-width="0.5" stroke="black" stroke-linejoin="round" fill="gold" fill-opacity="1"/>
<!-- !left !both --><path d="M714.95 860 L714.95 900" stroke-width="0.5" stroke="black" stroke-linejoin="round" fill="gold" fill-opacity="1"/>


<!-- renderSideComponent: indicator -->


<!-- renderPart: cylinder -->
<path d="M739.95 860 L787.55 860 L787.55 900 L739.95 900 L739.95 860" stroke-width="0" stroke="none" stroke-linejoin="round" fill="gold" fill-opacity="1"/>
<path d="M739.95 860 L787.55 860 M787.55 900 L739.95 900" stroke-width="0.5" stroke="black" stroke-linejoin="round" fill="gold" fill-opacity="1"/>
<!-- !right !both --><path d="M787.55 860 L787.55 900" stroke-width="0.5" stroke="black" stroke-linejoin="round" fill="gold" fill-opacity="1"/>
<!-- !left !both --><path d="M739.95 860 L739.95 900" stroke-width="0.5" stroke="black" stroke-linejoin="round" fill="gold" fill-opacity="1"/>
<path d="M740 860 L787.5 860 L787.5 900 L740 900 Z" stroke-width="1.0" stroke="black" fill="url(#knurled-small)"/>
<rect x="750" y="870" width="27.5" height="20" rx="3" ry="3" stroke-width="1" stroke="black" fill="gold"/>
<text x="763.75" y="880" text-anchor="middle" dominant-baseline="central"><tspan stroke="dimgray" stroke-width="0.5" font-family="sans-serif" fill="black" textLength="{this.width * 5 - 24}" > HB</tspan></text>

<!-- renderSideComponent: foot -->


<!-- renderPart: cylinder -->
<path d="M787.45 860 L791.3 860 L791.3 900 L787.45 900 L787.45 860" stroke-width="0" stroke="none" stroke-linejoin="round" fill="gold" fill-opacity="1"/>
<path d="M787.45 860 L791.3 860 M791.3 900 L787.45 900" stroke-width="0.5" stroke="black" stroke-linejoin="round" fill="gold" fill-opacity="1"/>
<!-- !right !both --><path d="M791.3 860 L791.3 900" stroke-width="0.5" stroke="black" stroke-linejoin="round" fill="gold" fill-opacity="1"/>
<!-- !left !both --><path d="M787.45 860 L787.45 900" stroke-width="0.5" stroke="black" stroke-linejoin="round" fill="gold" fill-opacity="1"/>


<!-- renderPart: cylinder -->
<path d="M791.2 859.375 L800.05 859.375 L800.05 900.625 L791.2 900.625 L791.2 859.375" stroke-width="0" stroke="none" stroke-linejoin="round" fill="#680000" fill-opacity="1"/>
<path d="M791.2 859.375 L800.05 859.375 M800.05 900.625 L791.2 900.625" stroke-width="0.5" stroke="black" stroke-linejoin="round" fill="#680000" fill-opacity="1"/>
<!-- !right !both --><path d="M800.05 859.375 L800.05 900.625" stroke-width="0.5" stroke="black" stroke-linejoin="round" fill="#680000" fill-opacity="1"/>
<!-- !left !both --><path d="M791.2 859.375 L791.2 900.625" stroke-width="0.5" stroke="black" stroke-linejoin="round" fill="#680000" fill-opacity="1"/>


<!-- renderPart: cylinder -->
<path d="M799.95 860 L803.8 860 L803.8 900 L799.95 900 L799.95 860" stroke-width="0" stroke="none" stroke-linejoin="round" fill="gold" fill-opacity="1"/>
<path d="M799.95 860 L803.8 860 M803.8 900 L799.95 900" stroke-width="0.5" stroke="black" stroke-linejoin="round" fill="gold" fill-opacity="1"/>
<!-- !right !both --><path d="M803.8 860 L803.8 900" stroke-width="0.5" stroke="black" stroke-linejoin="round" fill="gold" fill-opacity="1"/>
<!-- !left !both --><path d="M799.95 860 L799.95 900" stroke-width="0.5" stroke="black" stroke-linejoin="round" fill="gold" fill-opacity="1"/>


<!-- renderSideComponent: cap -->


<!-- renderPart: cylinder -->
<path d="M803.7 866.25 L863.8 866.25 L863.8 893.75 L803.7 893.75 L803.7 866.25" stroke-width="0" stroke="none" stroke-linejoin="round" fill="gold" fill-opacity="1"/>
<path d="M803.7 866.25 L863.8 866.25 M863.8 893.75 L803.7 893.75" stroke-width="0.5" stroke="black" stroke-linejoin="round" fill="gold" fill-opacity="1"/>
<!-- !right !both --><path d="M863.8 866.25 L863.8 893.75" stroke-width="0.5" stroke="black" stroke-linejoin="round" fill="gold" fill-opacity="1"/>
<!-- !left !both --><path d="M803.7 866.25 L803.7 893.75" stroke-width="0.5" stroke="black" stroke-linejoin="round" fill="gold" fill-opacity="1"/>
<text x="500" y="930" font-size="1.2em" font-weight="bold" text-anchor="middle" dominant-baseline="central">gold</text>
</g><text x="50%" y="980" font-size="1.1em" font-weight="bold" text-anchor="middle" dominant-baseline="middle">Copyright (c) // Synapticloop // The Mechanical Pencil Database (tmpdb)</text>
<text x="50%" y="1000" font-size="1.1em" font-weight="bold" text-anchor="middle" dominant-baseline="middle">Licensed under Creative Commons Attribution-NonCommercial-ShareAlike 4.0 International</text>
<text x="990" y="1010" font-size="0.5em" font-weight="bold" text-anchor="end" dominant-baseline="middle">SVGTechnicalGroupedRenderer</text>
</svg>