<svg xmlns="http://www.w3.org/2000/svg" width="1500" height="800">
 <pattern id="knurled-large" patternUnits="userSpaceOnUse" width="12" height="12">
<path stroke="dimgray" stroke-linecap="round" stroke-width="1" d="M 6,6 L 12,12"/>
<path stroke="dimgray" stroke-linecap="round" stroke-width="1" d="M 6,6 L 0,12"/>
<path stroke="gray" stroke-linecap="round" stroke-width="1" d="M 6,6 L 12,0" />
<path stroke="gray" stroke-linecap="round" stroke-width="1" d="M 6,6 L 0,0" />
</pattern><pattern id="knurled-small" patternUnits="userSpaceOnUse" width="4" height="4">
<path stroke="dimgray" stroke-linecap="round" stroke-width="1" d="M 2,2 L 4,4"/>
<path stroke="dimgray" stroke-linecap="round" stroke-width="1" d="M 2,2 L 0,4"/>
<path stroke="gray" stroke-linecap="round" stroke-width="1" d="M 2,2 L 4,0" />
<path stroke="gray" stroke-linecap="round" stroke-width="1" d="M 2,2 L 0,0" />
</pattern><pattern id="knurled" patternUnits="userSpaceOnUse" width="8" height="8">
<path stroke="dimgray" stroke-linecap="round" stroke-width="1" d="M 4,4 L 8,8"/>
<path stroke="dimgray" stroke-linecap="round" stroke-width="1" d="M 4,4 L 0,8"/>
<path stroke="gray" stroke-linecap="round" stroke-width="1" d="M 4,4 L 8,0" />
<path stroke="gray" stroke-linecap="round" stroke-width="1" d="M 4,4 L 0,0" />
</pattern><pattern id="lined" patternUnits="userSpaceOnUse" width="3" height="3">
<path stroke="dimgray" stroke-linecap="round" stroke-width="1" d="M 0,0 L 3,0"/>
</pattern><pattern id="ridged" patternUnits="userSpaceOnUse" width="3" height="3">
<path stroke="dimgray" stroke-linecap="round" stroke-width="1" d="M 0,0 L 0,3"/>
</pattern><pattern id="spring" patternUnits="userSpaceOnUse" width="8" height="60">
<path stroke="dimgray" stroke-linecap="round" stroke-width="2" d="M 1,1 L 8,60"/>
<path stroke="white" stroke-linecap="round" stroke-width="1" d="M 1,1 L 8,60"/>
</pattern><rect x="0" y="0" width="1500" height="800" fill="white" stroke="black" stroke-width="4" />
<rect x="2" y="2" width="1496" height="796" fill="white" stroke="dimgray" stroke-width="1" />
<g transform="rotate(0 0 0)">
<line x1="40" y1="500" x2="1460" y2="500" stroke-linecap="round" stroke="#5f5f5f" stroke-dasharray="2" stroke-width="1" />
<line x1="20" y1="500" x2="60" y2="500" stroke-linecap="round" stroke="#000000"  stroke-width="1" />
<line x1="40" y1="480" x2="40" y2="520" stroke="#000000" stroke-linecap="round"  stroke-width="1" />
<circle r="10" cx="40" cy="500" fill="white" fill-opacity="0" stroke="#000000" stroke-width="1"  />
<line x1="1440" y1="500" x2="1480" y2="500" stroke-linecap="round" stroke="#000000"  stroke-width="1" />
<line x1="1460" y1="480" x2="1460" y2="520" stroke="#000000" stroke-linecap="round"  stroke-width="1" />
<circle r="10" cx="1460" cy="500" fill="white" fill-opacity="0" stroke="#000000" stroke-width="1"  />
<line x1="750" y1="90" x2="750" y2="710" stroke="#5f5f5f" stroke-linecap="round" stroke-dasharray="2" stroke-width="1" />
<line x1="730" y1="90" x2="770" y2="90" stroke-linecap="round" stroke="#000000"  stroke-width="1" />
<line x1="750" y1="70" x2="750" y2="110" stroke="#000000" stroke-linecap="round"  stroke-width="1" />
<circle r="10" cx="750" cy="90" fill="white" fill-opacity="0" stroke="#000000" stroke-width="1"  />
<line x1="730" y1="710" x2="770" y2="710" stroke-linecap="round" stroke="#000000"  stroke-width="1" />
<line x1="750" y1="690" x2="750" y2="730" stroke="#000000" stroke-linecap="round"  stroke-width="1" />
<circle r="10" cx="750" cy="710" fill="white" fill-opacity="0" stroke="#000000" stroke-width="1"  />
<line x1="160" y1="150" x2="160" y2="710" stroke="#5f5f5f" stroke-linecap="round" stroke-dasharray="2" stroke-width="1" />
<line x1="140" y1="150" x2="180" y2="150" stroke-linecap="round" stroke="#000000"  stroke-width="1" />
<line x1="160" y1="130" x2="160" y2="170" stroke="#000000" stroke-linecap="round"  stroke-width="1" />
<circle r="10" cx="160" cy="150" fill="white" fill-opacity="0" stroke="#000000" stroke-width="1"  />
<line x1="140" y1="710" x2="180" y2="710" stroke-linecap="round" stroke="#000000"  stroke-width="1" />
<line x1="160" y1="690" x2="160" y2="730" stroke="#000000" stroke-linecap="round"  stroke-width="1" />
<circle r="10" cx="160" cy="710" fill="white" fill-opacity="0" stroke="#000000" stroke-width="1"  />
<line x1="1400" y1="150" x2="1400" y2="710" stroke="#5f5f5f" stroke-linecap="round" stroke-dasharray="2" stroke-width="1" />
<line x1="1380" y1="150" x2="1420" y2="150" stroke-linecap="round" stroke="#000000"  stroke-width="1" />
<line x1="1400" y1="130" x2="1400" y2="170" stroke="#000000" stroke-linecap="round"  stroke-width="1" />
<circle r="10" cx="1400" cy="150" fill="white" fill-opacity="0" stroke="#000000" stroke-width="1"  />
<line x1="1380" y1="710" x2="1420" y2="710" stroke-linecap="round" stroke="#000000"  stroke-width="1" />
<line x1="1400" y1="690" x2="1400" y2="730" stroke="#000000" stroke-linecap="round"  stroke-width="1" />
<circle r="10" cx="1400" cy="710" fill="white" fill-opacity="0" stroke="#000000" stroke-width="1"  />
<text x="30" y="50" font-size="2.0em" font-weight="bold"> Redcircle // 600 (Model #: 600)</text>
<text x="30" y="80" font-size="1.1em"> Redcircle (R) 600 2.0mm</text>
<text x="30" y="100" font-size="1.1em"> Lead size: 2 mm</text>
<text x="1480" y="30" font-size="1.6em" font-weight="bold" text-anchor="end" dominant-baseline="central">Colour variants of the body</text>
<rect x="1440" y="55" width="40" rx="50%" ry="50%" height="40" stroke="black" stroke-width="2" fill="black" fill-opacity="1"/>
<text x="1460" y="100" transform="rotate(-90, 1460, 100)" font-size="1.2em" font-weight="bold" text-anchor="end" dominant-baseline="central">black</text>
<rect x="1380" y="55" width="40" rx="50%" ry="50%" height="40" stroke="black" stroke-width="2" fill="#b4b8b9" fill-opacity="1"/>
<text x="1400" y="100" transform="rotate(-90, 1400, 100)" font-size="1.2em" font-weight="bold" text-anchor="end" dominant-baseline="central">silver</text>
<rect x="1320" y="55" width="40" rx="50%" ry="50%" height="40" stroke="black" stroke-width="2" fill="gold" fill-opacity="1"/>
<text x="1340" y="100" transform="rotate(-90, 1340, 100)" font-size="1.2em" font-weight="bold" text-anchor="end" dominant-baseline="central">gold</text>
<text x="30" y="136" font-size="1.2em" font-weight="bold" text-anchor="start" dominant-baseline="central">Materials:</text>
<text x="50" y="156" font-size="1.2em" text-anchor="start" dominant-baseline="central"> - metal</text>
<text x="50" y="176" font-size="1.2em" text-anchor="start" dominant-baseline="central"> - plastic</text>
<text x="50" y="196" font-size="1.2em" text-anchor="start" dominant-baseline="central"> - rubber</text>
<line x1="100" y1="464.625" x2="1400" y2="464.625" stroke-linecap="round" stroke="#cfcfcf"  stroke-width="1" />
<line x1="160" y1="478.375" x2="1400" y2="478.375" stroke-linecap="round" stroke="#cfcfcf"  stroke-width="1" />
<line x1="150.625" y1="430" x2="150.625" y2="500" stroke="#cfcfcf" stroke-linecap="round"  stroke-width="1" />
<line x1="169.375" y1="430" x2="169.375" y2="500" stroke="#cfcfcf" stroke-linecap="round"  stroke-width="1" />
<line x1="160" y1="476.875" x2="1400" y2="476.875" stroke-linecap="round" stroke="#cfcfcf"  stroke-width="1" />
<line x1="100" y1="523.125" x2="1400" y2="523.125" stroke-linecap="round" stroke="#cfcfcf"  stroke-width="1" />
<line x1="136.875" y1="500" x2="136.875" y2="543.125" stroke="#cfcfcf" stroke-linecap="round"  stroke-width="1" />
<line x1="183.125" y1="500" x2="183.125" y2="543.125" stroke="#cfcfcf" stroke-linecap="round"  stroke-width="1" />
<line x1="386.25" y1="380" x2="386.25" y2="620" stroke="#cfcfcf" stroke-linecap="round"  stroke-width="1" />
<line x1="453.75" y1="380" x2="453.75" y2="620" stroke="#cfcfcf" stroke-linecap="round"  stroke-width="1" />
<line x1="603.75" y1="380" x2="603.75" y2="620" stroke="#cfcfcf" stroke-linecap="round"  stroke-width="1" />
<line x1="603.75" y1="380" x2="603.75" y2="620" stroke="#cfcfcf" stroke-linecap="round"  stroke-width="1" />
<line x1="937.5" y1="380" x2="937.5" y2="620" stroke="#cfcfcf" stroke-linecap="round"  stroke-width="1" />
<line x1="786.25" y1="420" x2="786.25" y2="580" stroke="#cfcfcf" stroke-linecap="round"  stroke-width="1" />
<line x1="965" y1="420" x2="965" y2="580" stroke="#cfcfcf" stroke-linecap="round"  stroke-width="1" />
<line x1="965" y1="380" x2="965" y2="620" stroke="#cfcfcf" stroke-linecap="round"  stroke-width="1" />
<line x1="990" y1="380" x2="990" y2="620" stroke="#cfcfcf" stroke-linecap="round"  stroke-width="1" />
<line x1="1037.5" y1="380" x2="1037.5" y2="620" stroke="#cfcfcf" stroke-linecap="round"  stroke-width="1" />
<line x1="1053.75" y1="380" x2="1053.75" y2="620" stroke="#cfcfcf" stroke-linecap="round"  stroke-width="1" />
<line x1="1113.75" y1="388.875" x2="1113.75" y2="596.875" stroke="#cfcfcf" stroke-linecap="round"  stroke-width="1" />
<text x="160" y="740" font-size="1.8em" font-weight="bold" text-anchor="middle" dominant-baseline="central">Front</text>
<text x="750" y="740" font-size="1.8em" font-weight="bold" text-anchor="middle" dominant-baseline="central">Side view</text>
<text x="1400" y="740" font-size="1.8em" font-weight="bold" text-anchor="middle" dominant-baseline="central">Back</text>
<line x1="150.625" y1="429" x2="150.625" y2="451" stroke="black" stroke-width="1" />
<line x1="150.625" y1="440" x2="169.375" y2="440" stroke="black" stroke-width="1" />
<line x1="169.375" y1="429" x2="169.375" y2="451" stroke="black" stroke-width="1" />
<text x="160" y="421" font-size="1.2em" font-weight="bold" text-anchor="middle" dominant-baseline="central" fill="black"><tspan x="160" dy="0">3.75 mm</tspan></text>
<line x1="211" y1="464.625" x2="233" y2="464.625" stroke="black" stroke-width="1" />
<line x1="222" y1="464.625" x2="222" y2="478.375" stroke="black" stroke-width="1" />
<line x1="211" y1="478.375" x2="233" y2="478.375" stroke="black" stroke-width="1" />
<text x="235" y="471.5" font-size="1.2em" font-weight="bold" text-anchor="start" dominant-baseline="central" fill="black">2.75 mm</text>
<line x1="199" y1="476.875" x2="221" y2="476.875" stroke="black" stroke-width="1" />
<line x1="210" y1="476.875" x2="210" y2="523.125" stroke="black" stroke-width="1" />
<line x1="199" y1="523.125" x2="221" y2="523.125" stroke="black" stroke-width="1" />
<text x="223" y="500" font-size="1.2em" font-weight="bold" text-anchor="start" dominant-baseline="central" fill="black">9.25 mm</text>
<line x1="99" y1="464.625" x2="121" y2="464.625" stroke="black" stroke-width="1" />
<line x1="110" y1="464.625" x2="110" y2="523.125" stroke="black" stroke-width="1" />
<line x1="99" y1="523.125" x2="121" y2="523.125" stroke="black" stroke-width="1" />
<text x="91" y="493.875" transform="rotate(-90, 91, 493.875)" font-size="1.2em" font-weight="bold" text-anchor="middle" dominant-baseline="central" fill="black">11.7 mm</text>
<line x1="136.875" y1="542.125" x2="136.875" y2="564.125" stroke="black" stroke-width="1" />
<line x1="136.875" y1="553.125" x2="183.125" y2="553.125" stroke="black" stroke-width="1" />
<line x1="183.125" y1="542.125" x2="183.125" y2="564.125" stroke="black" stroke-width="1" />
<text x="160" y="572.125" font-size="1.2em" font-weight="bold" text-anchor="middle" dominant-baseline="central" fill="black"><tspan x="160" dy="0">9.25 mm</tspan></text>
<line x1="386.25" y1="369" x2="386.25" y2="391" stroke="black" stroke-width="1" />
<line x1="386.25" y1="380" x2="453.75" y2="380" stroke="black" stroke-width="1" />
<line x1="453.75" y1="369" x2="453.75" y2="391" stroke="black" stroke-width="1" />
<text x="420" y="361" font-size="1.2em" transform="rotate(-90, 408, 361)" font-weight="bold" text-anchor="start" dominant-baseline="central" fill="black"><tspan x="412" dy="0">13.50 mm</tspan><tspan x="412" dy="1em">tip</tspan></text>
<line x1="453.75" y1="369" x2="453.75" y2="391" stroke="black" stroke-width="1" />
<line x1="453.75" y1="380" x2="603.75" y2="380" stroke="black" stroke-width="1" />
<line x1="603.75" y1="369" x2="603.75" y2="391" stroke="black" stroke-width="1" />
<text x="528.75" y="361" font-size="1.2em" transform="rotate(-90, 516.75, 361)" font-weight="bold" text-anchor="start" dominant-baseline="central" fill="black"><tspan x="520.75" dy="0">30.00 mm</tspan><tspan x="520.75" dy="1em">grip</tspan></text>
<line x1="603.75" y1="369" x2="603.75" y2="391" stroke="black" stroke-width="1" />
<line x1="603.75" y1="380" x2="937.5" y2="380" stroke="black" stroke-width="1" />
<line x1="937.5" y1="369" x2="937.5" y2="391" stroke="black" stroke-width="1" />
<text x="770.625" y="361" font-size="1.2em" transform="rotate(-90, 758.625, 361)" font-weight="bold" text-anchor="start" dominant-baseline="central" fill="black"><tspan x="762.625" dy="0">66.75 mm</tspan><tspan x="762.625" dy="1em">body</tspan></text>
<line x1="937.5" y1="369" x2="937.5" y2="391" stroke="black" stroke-width="1" />
<line x1="937.5" y1="380" x2="965" y2="380" stroke="black" stroke-width="1" />
<line x1="965" y1="369" x2="965" y2="391" stroke="black" stroke-width="1" />
<text x="951.25" y="361" font-size="1.2em" transform="rotate(-90, 951.25, 361)" font-weight="bold" text-anchor="start" dominant-baseline="central" fill="black"><tspan x="951.25" dy="0">5.50 mm clip</tspan></text>
<line x1="786.25" y1="409" x2="786.25" y2="431" stroke="black" stroke-width="1" />
<line x1="786.25" y1="420" x2="965" y2="420" stroke="black" stroke-width="1" />
<line x1="965" y1="409" x2="965" y2="431" stroke="black" stroke-width="1" />
<text x="875.625" y="412" font-weight="bold" font-size="1.2em" stroke="white" stroke-width="0.25" text-anchor="middle" dominant-baseline="middle" fill="black"><tspan x="867.625" dy="0">35.75 mm</tspan><tspan x="867.625" dy="1em">clip (extra)</tspan></text>
<line x1="965" y1="369" x2="965" y2="391" stroke="black" stroke-width="1" />
<line x1="965" y1="380" x2="990" y2="380" stroke="black" stroke-width="1" />
<line x1="990" y1="369" x2="990" y2="391" stroke="black" stroke-width="1" />
<text x="977.5" y="361" font-size="1.2em" transform="rotate(-90, 977.5, 361)" font-weight="bold" text-anchor="start" dominant-baseline="central" fill="black"><tspan x="977.5" dy="0">5.00 mm tail</tspan></text>
<line x1="990" y1="369" x2="990" y2="391" stroke="black" stroke-width="1" />
<line x1="990" y1="380" x2="1037.5" y2="380" stroke="black" stroke-width="1" />
<line x1="1037.5" y1="369" x2="1037.5" y2="391" stroke="black" stroke-width="1" />
<text x="1013.75" y="361" font-size="1.2em" transform="rotate(-90, 1001.75, 361)" font-weight="bold" text-anchor="start" dominant-baseline="central" fill="black"><tspan x="1005.75" dy="0">9.50 mm</tspan><tspan x="1005.75" dy="1em">indicator</tspan></text>
<line x1="1037.5" y1="369" x2="1037.5" y2="391" stroke="black" stroke-width="1" />
<line x1="1037.5" y1="380" x2="1053.75" y2="380" stroke="black" stroke-width="1" />
<line x1="1053.75" y1="369" x2="1053.75" y2="391" stroke="black" stroke-width="1" />
<text x="1045.625" y="361" font-size="1.2em" transform="rotate(-90, 1045.625, 361)" font-weight="bold" text-anchor="start" dominant-baseline="central" fill="black"><tspan x="1045.625" dy="0">3.25 mm foot</tspan></text>
<line x1="1053.75" y1="369" x2="1053.75" y2="391" stroke="black" stroke-width="1" />
<line x1="1053.75" y1="380" x2="1113.75" y2="380" stroke="black" stroke-width="1" />
<line x1="1113.75" y1="369" x2="1113.75" y2="391" stroke="black" stroke-width="1" />
<text x="1083.75" y="361" font-size="1.2em" transform="rotate(-90, 1071.75, 361)" font-weight="bold" text-anchor="start" dominant-baseline="central" fill="black"><tspan x="1075.75" dy="0">12.00 mm</tspan><tspan x="1075.75" dy="1em">cap</tspan></text>
<line x1="1299" y1="479.375" x2="1321" y2="479.375" stroke="black" stroke-width="1" />
<line x1="1310" y1="479.375" x2="1310" y2="520.625" stroke="black" stroke-width="1" />
<line x1="1299" y1="520.625" x2="1321" y2="520.625" stroke="black" stroke-width="1" />
<text x="1291" y="500" transform="rotate(-90, 1291, 500)" font-size="1.2em" font-weight="bold" text-anchor="middle" dominant-baseline="central" fill="black">8.25 mm</text>
<line x1="1299" y1="479.375" x2="1321" y2="479.375" stroke="black" stroke-width="1" />
<line x1="1310" y1="479.375" x2="1310" y2="520.625" stroke="black" stroke-width="1" />
<line x1="1299" y1="520.625" x2="1321" y2="520.625" stroke="black" stroke-width="1" />
<text x="1310" y="528.625" transform="rotate(-90, 1310, 528.625)" font-weight="bold" font-size="1.2em" text-anchor="end" dominant-baseline="middle" fill="black">grip</text>
<line x1="1339" y1="480" x2="1361" y2="480" stroke="black" stroke-width="1" />
<line x1="1350" y1="480" x2="1350" y2="520" stroke="black" stroke-width="1" />
<line x1="1339" y1="520" x2="1361" y2="520" stroke="black" stroke-width="1" />
<text x="1331" y="500" transform="rotate(-90, 1331, 500)" font-size="1.2em" font-weight="bold" text-anchor="middle" dominant-baseline="central" fill="black">8 mm</text>
<line x1="1339" y1="480" x2="1361" y2="480" stroke="black" stroke-width="1" />
<line x1="1350" y1="480" x2="1350" y2="520" stroke="black" stroke-width="1" />
<line x1="1339" y1="520" x2="1361" y2="520" stroke="black" stroke-width="1" />
<text x="1350" y="528" transform="rotate(-90, 1350, 528)" font-weight="bold" font-size="1.2em" text-anchor="end" dominant-baseline="middle" fill="black">body</text>
<line x1="386.25" y1="542.125" x2="386.25" y2="564.125" stroke="black" stroke-width="1" />
<line x1="386.25" y1="553.125" x2="1113.75" y2="553.125" stroke="black" stroke-width="1" />
<line x1="1113.75" y1="542.125" x2="1113.75" y2="564.125" stroke="black" stroke-width="1" />
<text x="750" y="553.125" font-weight="bold" font-size="1.2em" stroke="white" stroke-width="0.25" text-anchor="middle" dominant-baseline="middle" fill="black"><tspan x="750" dy="0">145.50 mm</tspan></text>
<line x1="386.25" y1="609" x2="386.25" y2="631" stroke="black" stroke-width="1" />
<line x1="386.25" y1="620" x2="453.75" y2="620" stroke="black" stroke-width="1" />
<line x1="453.75" y1="609" x2="453.75" y2="631" stroke="black" stroke-width="1" />
<text x="420" y="639" font-size="1.2em" transform="rotate(-90, 420, 639)"  text-anchor="end" dominant-baseline="middle" fill="black"><tspan x="420" dy="0">metal</tspan></text>
<line x1="453.75" y1="609" x2="453.75" y2="631" stroke="black" stroke-width="1" />
<line x1="453.75" y1="620" x2="603.75" y2="620" stroke="black" stroke-width="1" />
<line x1="603.75" y1="609" x2="603.75" y2="631" stroke="black" stroke-width="1" />
<text x="528.75" y="639" font-size="1.2em" transform="rotate(-90, 528.75, 639)"  text-anchor="end" dominant-baseline="middle" fill="black"><tspan x="528.75" dy="0">metal</tspan></text>
<line x1="603.75" y1="609" x2="603.75" y2="631" stroke="black" stroke-width="1" />
<line x1="603.75" y1="620" x2="937.5" y2="620" stroke="black" stroke-width="1" />
<line x1="937.5" y1="609" x2="937.5" y2="631" stroke="black" stroke-width="1" />
<text x="770.625" y="639" font-size="1.2em" transform="rotate(-90, 770.625, 639)"  text-anchor="end" dominant-baseline="middle" fill="black"><tspan x="770.625" dy="0">metal</tspan></text>
<line x1="786.25" y1="569" x2="786.25" y2="591" stroke="black" stroke-width="1" />
<line x1="786.25" y1="580" x2="965" y2="580" stroke="black" stroke-width="1" />
<line x1="965" y1="569" x2="965" y2="591" stroke="black" stroke-width="1" />
<text x="875.625" y="599" font-size="1.2em"  text-anchor="middle" dominant-baseline="central" fill="black"><tspan x="875.625" dy="0">metal</tspan></text>
<line x1="937.5" y1="609" x2="937.5" y2="631" stroke="black" stroke-width="1" />
<line x1="937.5" y1="620" x2="965" y2="620" stroke="black" stroke-width="1" />
<line x1="965" y1="609" x2="965" y2="631" stroke="black" stroke-width="1" />
<text x="951.25" y="639" font-size="1.2em" transform="rotate(-90, 951.25, 639)"  text-anchor="end" dominant-baseline="middle" fill="black"><tspan x="951.25" dy="0">metal</tspan></text>
<line x1="965" y1="609" x2="965" y2="631" stroke="black" stroke-width="1" />
<line x1="965" y1="620" x2="990" y2="620" stroke="black" stroke-width="1" />
<line x1="990" y1="609" x2="990" y2="631" stroke="black" stroke-width="1" />
<text x="977.5" y="639" font-size="1.2em" transform="rotate(-90, 977.5, 639)"  text-anchor="end" dominant-baseline="middle" fill="black"><tspan x="977.5" dy="0">metal</tspan></text>
<line x1="990" y1="609" x2="990" y2="631" stroke="black" stroke-width="1" />
<line x1="990" y1="620" x2="1037.5" y2="620" stroke="black" stroke-width="1" />
<line x1="1037.5" y1="609" x2="1037.5" y2="631" stroke="black" stroke-width="1" />
<text x="1013.75" y="639" font-size="1.2em" transform="rotate(-90, 1013.75, 639)"  text-anchor="end" dominant-baseline="middle" fill="black"><tspan x="1013.75" dy="0">plastic</tspan></text>
<line x1="1037.5" y1="609" x2="1037.5" y2="631" stroke="black" stroke-width="1" />
<line x1="1037.5" y1="620" x2="1053.75" y2="620" stroke="black" stroke-width="1" />
<line x1="1053.75" y1="609" x2="1053.75" y2="631" stroke="black" stroke-width="1" />
<text x="1045.625" y="639" font-size="1.2em" transform="rotate(-90, 1033.625, 639)"  text-anchor="end" dominant-baseline="middle" fill="black"><tspan x="1037.625" dy="0">metal</tspan><tspan x="1037.625" dy="1em">rubber</tspan></text>
<line x1="1053.75" y1="609" x2="1053.75" y2="631" stroke="black" stroke-width="1" />
<line x1="1053.75" y1="620" x2="1113.75" y2="620" stroke="black" stroke-width="1" />
<line x1="1113.75" y1="609" x2="1113.75" y2="631" stroke="black" stroke-width="1" />
<text x="1083.75" y="639" font-size="1.2em" transform="rotate(-90, 1083.75, 639)"  text-anchor="end" dominant-baseline="middle" fill="black"><tspan x="1083.75" dy="0">metal</tspan></text>


<!-- renderSideComponent: tip -->


<!-- renderPart: cone -->
<path d="M386.2 491.875 L391.3 490 L391.3 510 L386.2 508.125 L386.2 491.875" stroke-width="0" stroke="none" stroke-linejoin="round" fill="#b4b8b9" fill-opacity="1"/>
<path d="M386.2 491.875 L391.3 490 M391.3 510 L386.2 508.125" stroke-width="0.5" stroke="black" stroke-linejoin="round" fill="#b4b8b9" fill-opacity="1"/>
<!-- !right !both --><path d="M391.3 490 L391.3 510" stroke-width="0.5" stroke="black" stroke-linejoin="round" fill="#b4b8b9" fill-opacity="1"/>
<!-- !left !both --><path d="M386.2 491.875 L386.2 508.125" stroke-width="0.5" stroke="black" stroke-linejoin="round" fill="#b4b8b9" fill-opacity="1"/>


<!-- renderPart: cone -->
<path d="M391.2 487.5 L453.8 481.25 L453.8 518.75 L391.2 512.5 L391.2 487.5" stroke-width="0" stroke="none" stroke-linejoin="round" fill="#b4b8b9" fill-opacity="1"/>
<path d="M391.2 487.5 L453.8 481.25 M453.8 518.75 L391.2 512.5" stroke-width="0.5" stroke="black" stroke-linejoin="round" fill="#b4b8b9" fill-opacity="1"/>
<!-- !right !both --><path d="M453.8 481.25 L453.8 518.75" stroke-width="0.5" stroke="black" stroke-linejoin="round" fill="#b4b8b9" fill-opacity="1"/>
<!-- !left !both --><path d="M391.2 487.5 L391.2 512.5" stroke-width="0.5" stroke="black" stroke-linejoin="round" fill="#b4b8b9" fill-opacity="1"/>


<!-- renderSideComponent: grip -->


<!-- renderPart: cylinder -->
<path d="M453.7 479.375 L603.8 479.375 L603.8 520.625 L453.7 520.625 L453.7 479.375" stroke-width="0" stroke="none" stroke-linejoin="round" fill="#b4b8b9" fill-opacity="1"/>
<path d="M453.7 479.375 L603.8 479.375 M603.8 520.625 L453.7 520.625" stroke-width="0.5" stroke="black" stroke-linejoin="round" fill="#b4b8b9" fill-opacity="1"/>
<!-- !right !both --><path d="M603.8 479.375 L603.8 520.625" stroke-width="0.5" stroke="black" stroke-linejoin="round" fill="#b4b8b9" fill-opacity="1"/>
<!-- !left !both --><path d="M453.7 479.375 L453.7 520.625" stroke-width="0.5" stroke="black" stroke-linejoin="round" fill="#b4b8b9" fill-opacity="1"/>
<!-- DEFAULT FINISH: knurled-small --><path d="M453.75 479.375 L603.75 479.375 L603.75 520.625 L453.75 520.625 Z" stroke-width="0.5" stroke="black" fill="url(#knurled-small)"/>


<!-- renderSideComponent: shaft -->


<!-- renderSideComponent: body -->


<!-- renderPart: hexagonal -->
<path d="M603.7 480 L937.55 480 L937.55 520 L603.7 520 L603.7 480" stroke-width="0" stroke="none" stroke-linejoin="round" fill="#b4b8b9" fill-opacity="1"/>
<path d="M603.7 480 L937.55 480 M937.55 520 L603.7 520" stroke-width="0.5" stroke="black" stroke-linejoin="round" fill="#b4b8b9" fill-opacity="1"/>
<!-- !right !both --><path d="M937.55 480 L937.55 520" stroke-width="0.5" stroke="black" stroke-linejoin="round" fill="#b4b8b9" fill-opacity="1"/>
<!-- !left !both --><path d="M603.7 480 L603.7 520" stroke-width="0.5" stroke="black" stroke-linejoin="round" fill="#b4b8b9" fill-opacity="1"/>
<line x1="603.75" y1="500" x2="937.5" y2="500" stroke-width="1.5" stroke="gray" fill="gray" stroke-opacity="1.0"/>
<line x1="603.75" y1="500" x2="937.5" y2="500" stroke-width="0.5" stroke="black" fill="none" stroke-opacity="0.5"/>


<!-- renderSideComponent: clip -->
<path d="M786.25 466.875 Q811.25 489.375 823.75 466.875" stroke-width="4" stroke="black" fill="none" stroke-linecap="round" />
<line x1="786.25" y1="465.625" x2="965" y2="465.625" stroke-width="4" stroke="black" fill="dimgray" stroke-linecap="round" />
<path d="M965 465.625 Q978.75 472.5 965 478.125" stroke-width="4" stroke="black" fill="none" stroke-linecap="round" />


<!-- renderPart: cylinder -->
<path d="M937.45 476.875 L965.05 476.875 L965.05 523.125 L937.45 523.125 L937.45 476.875" stroke-width="0" stroke="none" stroke-linejoin="round" fill="#b4b8b9" fill-opacity="1"/>
<path d="M937.45 476.875 L965.05 476.875 M965.05 523.125 L937.45 523.125" stroke-width="0.5" stroke="black" stroke-linejoin="round" fill="#b4b8b9" fill-opacity="1"/>
<!-- !right !both --><path d="M965.05 476.875 L965.05 523.125" stroke-width="0.5" stroke="black" stroke-linejoin="round" fill="#b4b8b9" fill-opacity="1"/>
<!-- !left !both --><path d="M937.45 476.875 L937.45 523.125" stroke-width="0.5" stroke="black" stroke-linejoin="round" fill="#b4b8b9" fill-opacity="1"/>
<path d="M786.25 466.875 Q811.25 489.375 823.75 466.875" stroke-width="3" stroke="#b4b8b9" fill="none" stroke-linecap="round" />
<line x1="786.25" y1="465.625" x2="965" y2="465.625" stroke-width="3" stroke="#b4b8b9" fill="#b4b8b9" stroke-linecap="round" />
<path d="M965 465.625 Q978.75 472.5 965 478.125" stroke-width="3" stroke="#b4b8b9" fill="none" stroke-linecap="round" />


<!-- renderSideComponent: tail -->


<!-- renderPart: cylinder -->
<path d="M964.95 480 L990.05 480 L990.05 520 L964.95 520 L964.95 480" stroke-width="0" stroke="none" stroke-linejoin="round" fill="#b4b8b9" fill-opacity="1"/>
<path d="M964.95 480 L990.05 480 M990.05 520 L964.95 520" stroke-width="0.5" stroke="black" stroke-linejoin="round" fill="#b4b8b9" fill-opacity="1"/>
<!-- !right !both --><path d="M990.05 480 L990.05 520" stroke-width="0.5" stroke="black" stroke-linejoin="round" fill="#b4b8b9" fill-opacity="1"/>
<!-- !left !both --><path d="M964.95 480 L964.95 520" stroke-width="0.5" stroke="black" stroke-linejoin="round" fill="#b4b8b9" fill-opacity="1"/>


<!-- renderSideComponent: indicator -->


<!-- renderPart: cylinder -->
<path d="M989.95 480 L1037.55 480 L1037.55 520 L989.95 520 L989.95 480" stroke-width="0" stroke="none" stroke-linejoin="round" fill="#b4b8b9" fill-opacity="1"/>
<path d="M989.95 480 L1037.55 480 M1037.55 520 L989.95 520" stroke-width="0.5" stroke="black" stroke-linejoin="round" fill="#b4b8b9" fill-opacity="1"/>
<!-- !right !both --><path d="M1037.55 480 L1037.55 520" stroke-width="0.5" stroke="black" stroke-linejoin="round" fill="#b4b8b9" fill-opacity="1"/>
<!-- !left !both --><path d="M989.95 480 L989.95 520" stroke-width="0.5" stroke="black" stroke-linejoin="round" fill="#b4b8b9" fill-opacity="1"/>
<!-- DEFAULT FINISH: knurled-small --><path d="M990 480 L1037.5 480 L1037.5 520 L990 520 Z" stroke-width="0.5" stroke="black" fill="url(#knurled-small)"/>
<rect x="1000" y="490" width="27.5" height="20" rx="3" ry="3" stroke-width="1" stroke="black" fill="#b4b8b9"/>
<text x="1013.75" y="500" text-anchor="middle" dominant-baseline="central"><tspan stroke="dimgray" stroke-width="0.5" font-family="sans-serif" fill="black" textLength="{this.width * 5 - 24}" > HB</tspan></text>

<!-- renderSideComponent: foot -->


<!-- renderPart: cylinder -->
<path d="M1037.45 480 L1041.3 480 L1041.3 520 L1037.45 520 L1037.45 480" stroke-width="0" stroke="none" stroke-linejoin="round" fill="#b4b8b9" fill-opacity="1"/>
<path d="M1037.45 480 L1041.3 480 M1041.3 520 L1037.45 520" stroke-width="0.5" stroke="black" stroke-linejoin="round" fill="#b4b8b9" fill-opacity="1"/>
<!-- !right !both --><path d="M1041.3 480 L1041.3 520" stroke-width="0.5" stroke="black" stroke-linejoin="round" fill="#b4b8b9" fill-opacity="1"/>
<!-- !left !both --><path d="M1037.45 480 L1037.45 520" stroke-width="0.5" stroke="black" stroke-linejoin="round" fill="#b4b8b9" fill-opacity="1"/>


<!-- renderPart: cylinder -->
<path d="M1041.2 479.375 L1050.05 479.375 L1050.05 520.625 L1041.2 520.625 L1041.2 479.375" stroke-width="0" stroke="none" stroke-linejoin="round" fill="#680000" fill-opacity="1"/>
<path d="M1041.2 479.375 L1050.05 479.375 M1050.05 520.625 L1041.2 520.625" stroke-width="0.5" stroke="black" stroke-linejoin="round" fill="#680000" fill-opacity="1"/>
<!-- !right !both --><path d="M1050.05 479.375 L1050.05 520.625" stroke-width="0.5" stroke="black" stroke-linejoin="round" fill="#680000" fill-opacity="1"/>
<!-- !left !both --><path d="M1041.2 479.375 L1041.2 520.625" stroke-width="0.5" stroke="black" stroke-linejoin="round" fill="#680000" fill-opacity="1"/>


<!-- renderPart: cylinder -->
<path d="M1049.95 480 L1053.8 480 L1053.8 520 L1049.95 520 L1049.95 480" stroke-width="0" stroke="none" stroke-linejoin="round" fill="#b4b8b9" fill-opacity="1"/>
<path d="M1049.95 480 L1053.8 480 M1053.8 520 L1049.95 520" stroke-width="0.5" stroke="black" stroke-linejoin="round" fill="#b4b8b9" fill-opacity="1"/>
<!-- !right !both --><path d="M1053.8 480 L1053.8 520" stroke-width="0.5" stroke="black" stroke-linejoin="round" fill="#b4b8b9" fill-opacity="1"/>
<!-- !left !both --><path d="M1049.95 480 L1049.95 520" stroke-width="0.5" stroke="black" stroke-linejoin="round" fill="#b4b8b9" fill-opacity="1"/>


<!-- renderSideComponent: cap -->


<!-- renderPart: cylinder -->
<path d="M1053.7 486.25 L1113.8 486.25 L1113.8 513.75 L1053.7 513.75 L1053.7 486.25" stroke-width="0" stroke="none" stroke-linejoin="round" fill="#b4b8b9" fill-opacity="1"/>
<path d="M1053.7 486.25 L1113.8 486.25 M1113.8 513.75 L1053.7 513.75" stroke-width="0.5" stroke="black" stroke-linejoin="round" fill="#b4b8b9" fill-opacity="1"/>
<!-- !right !both --><path d="M1113.8 486.25 L1113.8 513.75" stroke-width="0.5" stroke="black" stroke-linejoin="round" fill="#b4b8b9" fill-opacity="1"/>
<!-- !left !both --><path d="M1053.7 486.25 L1053.7 513.75" stroke-width="0.5" stroke="black" stroke-linejoin="round" fill="#b4b8b9" fill-opacity="1"/>

<!-- FRONT COMPONENT: cap -->
<circle r="13.75" cx="160" cy="500" fill="#b4b8b9" fill-opacity="1" stroke="black" stroke-width="0.5"  />

<!-- FRONT COMPONENT: foot -->
<circle r="20" cx="160" cy="500" fill="#b4b8b9" fill-opacity="1" stroke="black" stroke-width="0.5"  />
<circle r="20.625" cx="160" cy="500" fill="#680000" fill-opacity="1" stroke="black" stroke-width="0.5"  />
<circle r="20" cx="160" cy="500" fill="#b4b8b9" fill-opacity="1" stroke="black" stroke-width="0.5"  />

<!-- FRONT COMPONENT: indicator -->
<circle r="20" cx="160" cy="500" fill="#b4b8b9" fill-opacity="1" stroke="black" stroke-width="0.5"  />

<!-- FRONT COMPONENT: tail -->
<circle r="20" cx="160" cy="500" fill="#b4b8b9" fill-opacity="1" stroke="black" stroke-width="0.5"  />

<!-- FRONT COMPONENT: clip -->
<circle r="23.125" cx="160" cy="500" fill="#b4b8b9" fill-opacity="1" stroke="black" stroke-width="0.5"  />
<!-- WxH 3.75 2.5 --><rect x="150.625" y="465.875" width="18.75" height="12.5" rx="0" ry="0" stroke-width="1.0" stroke="dimgray" fill="#b4b8b9"/>
<rect x="150.625" y="465.875" width="18.75" height="12.5" rx="0" ry="0" stroke-width="1.0" stroke="dimgray" fill="none"/>
<!-- WxH 3.75 0.6 --><rect x="150.625" y="475.375" width="18.75" height="3" rx="0" ry="0" stroke-width="1.0" stroke="dimgray" fill="#b4b8b9"/>
<rect x="150.625" y="475.375" width="18.75" height="3" rx="0" ry="0" stroke-width="1.0" stroke="dimgray" fill="none"/>
<!-- WxH 3.75 0.6 --><rect x="150.625" y="475.375" width="18.75" height="3" rx="0" ry="0" stroke-width="1.0" stroke="dimgray" fill="#b4b8b9"/>
<rect x="150.625" y="475.375" width="18.75" height="3" rx="0" ry="0" stroke-width="1.0" stroke="dimgray" fill="none"/>

<!-- FRONT COMPONENT: body -->
<polygon points="148.4529946162075,480 171.5470053837925,480 183.09401076758502,500 171.5470053837925,520 148.4529946162075,520 136.90598923241498,500 " stroke="black" stroke-width="0.5" fill="#b4b8b9" fill-opacity="1"/>

<!-- FRONT COMPONENT: shaft -->

<!-- FRONT COMPONENT: grip -->
<circle r="20.625" cx="160" cy="500" fill="#b4b8b9" fill-opacity="1" stroke="black" stroke-width="0.5"  />

<!-- FRONT COMPONENT: tip -->
<circle r="18.75" cx="160" cy="500" stroke="black" stroke-width="0.5" fill="#b4b8b9" fill-opacity="1"/>
<circle r="12.5" cx="160" cy="500" stroke="black" stroke-width="0.5" fill="#b4b8b9" fill-opacity="1"/>
<circle r="10" cx="160" cy="500" stroke="black" stroke-width="0.5" fill="#b4b8b9" fill-opacity="1"/>
<circle r="8.125" cx="160" cy="500" stroke="black" stroke-width="0.5" fill="#b4b8b9" fill-opacity="1"/>
<circle r="5" cx="160" cy="500" fill="black" fill-opacity="1" stroke="dimgray" stroke-width="0.5"  />
<circle r="8.125" cx="1400" cy="500" stroke="black" stroke-width="0.5" fill="#b4b8b9" fill-opacity="1"/>
<circle r="10" cx="1400" cy="500" stroke="black" stroke-width="0.5" fill="#b4b8b9" fill-opacity="1"/>
<circle r="12.5" cx="1400" cy="500" stroke="black" stroke-width="0.5" fill="#b4b8b9" fill-opacity="1"/>
<circle r="18.75" cx="1400" cy="500" stroke="black" stroke-width="0.5" fill="#b4b8b9" fill-opacity="1"/>
<circle r="20.625" cx="1400" cy="500" fill="#b4b8b9" fill-opacity="1" stroke="black" stroke-width="0.5"  />
<polygon points="1388.4529946162074,480 1411.5470053837926,480 1423.0940107675851,500 1411.5470053837926,520 1388.4529946162074,520 1376.9059892324149,500 " stroke="black" stroke-width="0.5" fill="#b4b8b9" fill-opacity="1"/>
<circle r="23.125" cx="1400" cy="500" fill="#b4b8b9" fill-opacity="1" stroke="black" stroke-width="0.5"  />
<!-- WxH 3.75 0.6 --><rect x="1390.625" y="475.375" width="18.75" height="3" rx="0" ry="0" stroke-width="1.0" stroke="dimgray" fill="#b4b8b9"/>
<rect x="1390.625" y="475.375" width="18.75" height="3" rx="0" ry="0" stroke-width="1.0" stroke="dimgray" fill="none"/>
<!-- WxH 3.75 0.6 --><rect x="1390.625" y="475.375" width="18.75" height="3" rx="0" ry="0" stroke-width="1.0" stroke="dimgray" fill="#b4b8b9"/>
<rect x="1390.625" y="475.375" width="18.75" height="3" rx="0" ry="0" stroke-width="1.0" stroke="dimgray" fill="none"/>
<!-- WxH 3.75 2.5 --><rect x="1390.625" y="465.875" width="18.75" height="12.5" rx="0" ry="0" stroke-width="1.0" stroke="dimgray" fill="#b4b8b9"/>
<rect x="1390.625" y="465.875" width="18.75" height="12.5" rx="0" ry="0" stroke-width="1.0" stroke="dimgray" fill="none"/>
<circle r="20" cx="1400" cy="500" fill="#b4b8b9" fill-opacity="1" stroke="black" stroke-width="0.5"  />
<circle r="20" cx="1400" cy="500" fill="#b4b8b9" fill-opacity="1" stroke="black" stroke-width="0.5"  />
<circle r="20" cx="1400" cy="500" fill="#b4b8b9" fill-opacity="1" stroke="black" stroke-width="0.5"  />
<circle r="20.625" cx="1400" cy="500" fill="#b4b8b9" fill-opacity="1" stroke="black" stroke-width="0.5"  />
<circle r="20" cx="1400" cy="500" fill="#b4b8b9" fill-opacity="1" stroke="black" stroke-width="0.5"  />
<circle r="13.75" cx="1400" cy="500" fill="#b4b8b9" fill-opacity="1" stroke="black" stroke-width="0.5"  />
<circle r="5" cx="1400" cy="500" fill="black" fill-opacity="1" stroke="dimgray" stroke-width="1"  />
</g><text x="50%" y="780" font-size="1.1em" font-weight="bold" text-anchor="middle" dominant-baseline="middle">Copyright (c) // Synapticloop // The Mechanical Pencil Database (tmpdb) // Licensed under Creative Commons Attribution-NonCommercial-ShareAlike 4.0 International</text>
<text x="1490" y="790" font-size="0.5em" font-weight="bold" text-anchor="end" dominant-baseline="middle">SVGTechnicalRenderer</text>
</svg>