<svg xmlns="http://www.w3.org/2000/svg" width="1200" height="691">
 <pattern id="knurled-large" patternUnits="userSpaceOnUse" width="12" height="12">
<path stroke="dimgray" stroke-linecap="round" stroke-width="1" d="M 6,6 L 12,12"/>
<path stroke="dimgray" stroke-linecap="round" stroke-width="1" d="M 6,6 L 0,12"/>
<path stroke="gray" stroke-linecap="round" stroke-width="1" d="M 6,6 L 12,0" />
<path stroke="gray" stroke-linecap="round" stroke-width="1" d="M 6,6 L 0,0" />
</pattern><pattern id="knurled-small" patternUnits="userSpaceOnUse" width="4" height="4">
<path stroke="dimgray" stroke-linecap="round" stroke-width="1" d="M 2,2 L 4,4"/>
<path stroke="dimgray" stroke-linecap="round" stroke-width="1" d="M 2,2 L 0,4"/>
<path stroke="gray" stroke-linecap="round" stroke-width="1" d="M 2,2 L 4,0" />
<path stroke="gray" stroke-linecap="round" stroke-width="1" d="M 2,2 L 0,0" />
</pattern><pattern id="knurled" patternUnits="userSpaceOnUse" width="8" height="8">
<path stroke="dimgray" stroke-linecap="round" stroke-width="1" d="M 4,4 L 8,8"/>
<path stroke="dimgray" stroke-linecap="round" stroke-width="1" d="M 4,4 L 0,8"/>
<path stroke="gray" stroke-linecap="round" stroke-width="1" d="M 4,4 L 8,0" />
<path stroke="gray" stroke-linecap="round" stroke-width="1" d="M 4,4 L 0,0" />
</pattern><pattern id="lined" patternUnits="userSpaceOnUse" width="3" height="3">
<path stroke="dimgray" stroke-linecap="round" stroke-width="1" d="M 0,0 L 3,0"/>
</pattern><pattern id="ridged" patternUnits="userSpaceOnUse" width="3" height="3">
<path stroke="dimgray" stroke-linecap="round" stroke-width="1" d="M 0,0 L 0,3"/>
</pattern><pattern id="spring" patternUnits="userSpaceOnUse" width="8" height="100">
<path stroke="dimgray" stroke-linecap="round" stroke-width="2" d="M 1,1 L 9,99"/>
<path stroke="white" stroke-linecap="round" stroke-width="1" d="M 1,1 L 9,99"/>
</pattern><pattern id="knurled" patternUnits="userSpaceOnUse" width="8" height="8">
<path stroke="dimgray" stroke-linecap="round" stroke-width="1" d="M 4,4 L 8,8"/>
<path stroke="dimgray" stroke-linecap="round" stroke-width="1" d="M 4,4 L 0,8"/>
<path stroke="gray" stroke-linecap="round" stroke-width="1" d="M 4,4 L 8,0" />
<path stroke="gray" stroke-linecap="round" stroke-width="1" d="M 4,4 L 0,0" />
</pattern><rect x="0" y="0" width="1200" height="691" fill="white" stroke="black" stroke-width="4" />
<rect x="2" y="2" width="1196" height="687" fill="white" stroke="dimgray" stroke-width="1" />
<g transform="rotate(0 0 0)">
<text x="30" y="50" font-size="2.0em" font-weight="bold"> OHTO // Sharp Pencil 2.0 (Model #: APS-680E)</text>


<!-- renderExplodedSideComponents -->


<!-- renderSideComponent: tip -->


<!-- renderPart: cylinder -->
<path d="M258.75 151.875 L271.25 151.875 L271.25 168.125 L258.75 168.125 Z" stroke-width="0.5" stroke="black" stroke-linejoin="round" fill="#E1C16E" fill-opacity="1"/>


<!-- renderPart: cone -->
<path d="M271.25 151.875 L296.25 141.25 L296.25 178.75 L271.25 168.125 Z" stroke-width="0.5" stroke="black" stroke-linejoin="round" fill="#E1C16E" fill-opacity="1"/>


<!-- renderPart: cylinder -->
<path d="M296.25 146.25 L347.5 146.25 L347.5 173.75 L296.25 173.75 Z" stroke-width="0.5" stroke="black" stroke-linejoin="round" fill="#E1C16E" fill-opacity="1"/>


<!-- renderPart: cylinder -->
<path d="M347.5 146.25 L362.5 146.25 L362.5 173.75 L347.5 173.75 Z" stroke-width="0.5" stroke="black" stroke-linejoin="round" fill="#E1C16E" fill-opacity="1"/>


<!-- renderPart: cylinder -->
<path d="M362.5 145.625 L366.25 145.625 L366.25 174.375 L362.5 174.375 Z" stroke-width="0.5" stroke="black" stroke-linejoin="round" fill="#E1C16E" fill-opacity="1"/>


<!-- renderPart: cylinder -->
<path d="M366.25 146.25 L373.75 146.25 L373.75 173.75 L366.25 173.75 Z" stroke-width="0.5" stroke="black" stroke-linejoin="round" fill="#E1C16E" fill-opacity="1"/>


<!-- renderPart: cylinder -->
<path d="M373.75 145.625 L377.5 145.625 L377.5 174.375 L373.75 174.375 Z" stroke-width="0.5" stroke="black" stroke-linejoin="round" fill="#E1C16E" fill-opacity="1"/>


<!-- renderPart: cylinder -->
<path d="M377.5 146.25 L385 146.25 L385 173.75 L377.5 173.75 Z" stroke-width="0.5" stroke="black" stroke-linejoin="round" fill="#E1C16E" fill-opacity="1"/>


<!-- renderPart: cylinder -->
<path d="M385 145.625 L388.75 145.625 L388.75 174.375 L385 174.375 Z" stroke-width="0.5" stroke="black" stroke-linejoin="round" fill="#E1C16E" fill-opacity="1"/>


<!-- renderPart: cylinder -->
<path d="M388.75 146.25 L417.5 146.25 L417.5 173.75 L388.75 173.75 Z" stroke-width="0.5" stroke="black" stroke-linejoin="round" fill="#E1C16E" fill-opacity="1"/>


<!-- renderPart: cylinder -->
<path d="M417.5 149.375 L865 149.375 L865 170.625 L417.5 170.625 Z" stroke-width="0.5" stroke="black" stroke-linejoin="round" fill="white" fill-opacity="0.5"/>
<line x1="296.25" y1="120" x2="296.25" y2="200" stroke="white" stroke-linecap="round"  stroke-width="1" />
<line x1="296.25" y1="120" x2="296.25" y2="200" stroke="black" stroke-linecap="round" stroke-dasharray="4,2" stroke-width="1" />


<!-- DASHED JOIN -->
<path d="M 306.25 160 L 895 160 L 895 220 L 246.25 220 L 246.25 280 L 291.25 280 " fill="none" stroke="white" stroke-width="2" stroke-dasharray="8,4" stroke-linecap="round"  />
<path d="M 306.25 160 L 895 160 L 895 220 L 246.25 220 L 246.25 280 L 291.25 280 " fill="none" stroke="black" stroke-width="1" stroke-dasharray="8,4" stroke-linecap="round"  />


<!-- ARROW START -->
<line x1="306.25" y1="160" x2="313.25" y2="160" stroke-linecap="round" stroke="#ffffff" stroke-width="2.0" />
<line x1="306.25" y1="160" x2="320.25" y2="152" stroke-linecap="round" stroke="#ffffff" stroke-width="2.0" />
<line x1="320.25" y1="152" x2="313.25" y2="160" stroke-linecap="round" stroke="#ffffff" stroke-width="2.0" />
<line x1="306.25" y1="160" x2="320.25" y2="168" stroke-linecap="round" stroke="#ffffff" stroke-width="2.0" />
<line x1="320.25" y1="168" x2="313.25" y2="160" stroke-linecap="round" stroke="#ffffff" stroke-width="2.0" />
<line x1="306.25" y1="160" x2="320.25" y2="152" stroke-linecap="round" stroke="#0f0f0f" stroke-width="1.0" />
<line x1="320.25" y1="152" x2="313.25" y2="160" stroke-linecap="round" stroke="#0f0f0f" stroke-width="1.0" />
<line x1="306.25" y1="160" x2="320.25" y2="168" stroke-linecap="round" stroke="#0f0f0f" stroke-width="1.0" />
<line x1="320.25" y1="168" x2="313.25" y2="160" stroke-linecap="round" stroke="#0f0f0f" stroke-width="1.0" />


<!-- ARROW START -->
<line x1="266.25" y1="280" x2="273.25" y2="280" stroke-linecap="round" stroke="#ffffff" stroke-width="2.0" />
<line x1="266.25" y1="280" x2="280.25" y2="272" stroke-linecap="round" stroke="#ffffff" stroke-width="2.0" />
<line x1="280.25" y1="272" x2="273.25" y2="280" stroke-linecap="round" stroke="#ffffff" stroke-width="2.0" />
<line x1="266.25" y1="280" x2="280.25" y2="288" stroke-linecap="round" stroke="#ffffff" stroke-width="2.0" />
<line x1="280.25" y1="288" x2="273.25" y2="280" stroke-linecap="round" stroke="#ffffff" stroke-width="2.0" />
<line x1="266.25" y1="280" x2="280.25" y2="272" stroke-linecap="round" stroke="#0f0f0f" stroke-width="1.0" />
<line x1="280.25" y1="272" x2="273.25" y2="280" stroke-linecap="round" stroke="#0f0f0f" stroke-width="1.0" />
<line x1="266.25" y1="280" x2="280.25" y2="288" stroke-linecap="round" stroke="#0f0f0f" stroke-width="1.0" />
<line x1="280.25" y1="288" x2="273.25" y2="280" stroke-linecap="round" stroke="#0f0f0f" stroke-width="1.0" />


<!-- renderSideComponent: head -->


<!-- renderPart: cone -->
<path d="M296.25 260 L321.25 252.5 L321.25 307.5 L296.25 300 Z" stroke-width="0.5" stroke="black" stroke-linejoin="round" fill="#b88160" fill-opacity="1"/>


<!-- renderSideComponent: body -->


<!-- renderPart: hexagonal -->
<path d="M321.25 252.5 L811.25 252.5 L811.25 307.5 L321.25 307.5 Z" stroke-width="0.5" stroke="black" stroke-linejoin="round" fill="#e38f0f" fill-opacity="0.5"/>
<line x1="333.75" y1="280" x2="823.75" y2="280" stroke-width="1.5" stroke="gray" fill="gray" stroke-opacity="1.0"/>
<line x1="333.75" y1="280" x2="823.75" y2="280" stroke-width="0.5" stroke="black" fill="none" stroke-opacity="0.5"/>

<!-- TAPER START: hexagonal -->
<path d="M 333.75 252.5 C 317.1875 259.375, 317.1875 273.125, 333.75 280" stroke-width="1.0" stroke="black" stroke-linecap="round" fill-opacity="0.5" fill="none" /><path d="M 333.75 307.5 C 317.1875 300.625, 317.1875 286.875, 333.75 280" stroke-width="1.0" stroke="black" stroke-linecap="round" fill-opacity="0.5" fill="none" />

<!-- renderPart: cylinder -->
<path d="M811.25 256.875 L853.75 256.875 L853.75 303.125 L811.25 303.125 Z" stroke-width="0.5" stroke="black" stroke-linejoin="round" fill="#b88160" fill-opacity="1"/>
<line x1="811.25" y1="240" x2="811.25" y2="320" stroke="white" stroke-linecap="round"  stroke-width="1" />
<line x1="811.25" y1="240" x2="811.25" y2="320" stroke="black" stroke-linecap="round" stroke-dasharray="4,2" stroke-width="1" />


<!-- DASHED JOIN -->
<path d="M 821.25 280 L 883.75 280 L 883.75 340 L 761.25 340 L 761.25 400 L 806.25 400 " fill="none" stroke="white" stroke-width="2" stroke-dasharray="8,4" stroke-linecap="round"  />
<path d="M 821.25 280 L 883.75 280 L 883.75 340 L 761.25 340 L 761.25 400 L 806.25 400 " fill="none" stroke="black" stroke-width="1" stroke-dasharray="8,4" stroke-linecap="round"  />


<!-- ARROW START -->
<line x1="821.25" y1="280" x2="828.25" y2="280" stroke-linecap="round" stroke="#ffffff" stroke-width="2.0" />
<line x1="821.25" y1="280" x2="835.25" y2="272" stroke-linecap="round" stroke="#ffffff" stroke-width="2.0" />
<line x1="835.25" y1="272" x2="828.25" y2="280" stroke-linecap="round" stroke="#ffffff" stroke-width="2.0" />
<line x1="821.25" y1="280" x2="835.25" y2="288" stroke-linecap="round" stroke="#ffffff" stroke-width="2.0" />
<line x1="835.25" y1="288" x2="828.25" y2="280" stroke-linecap="round" stroke="#ffffff" stroke-width="2.0" />
<line x1="821.25" y1="280" x2="835.25" y2="272" stroke-linecap="round" stroke="#0f0f0f" stroke-width="1.0" />
<line x1="835.25" y1="272" x2="828.25" y2="280" stroke-linecap="round" stroke="#0f0f0f" stroke-width="1.0" />
<line x1="821.25" y1="280" x2="835.25" y2="288" stroke-linecap="round" stroke="#0f0f0f" stroke-width="1.0" />
<line x1="835.25" y1="288" x2="828.25" y2="280" stroke-linecap="round" stroke="#0f0f0f" stroke-width="1.0" />


<!-- ARROW START -->
<line x1="781.25" y1="400" x2="788.25" y2="400" stroke-linecap="round" stroke="#ffffff" stroke-width="2.0" />
<line x1="781.25" y1="400" x2="795.25" y2="392" stroke-linecap="round" stroke="#ffffff" stroke-width="2.0" />
<line x1="795.25" y1="392" x2="788.25" y2="400" stroke-linecap="round" stroke="#ffffff" stroke-width="2.0" />
<line x1="781.25" y1="400" x2="795.25" y2="408" stroke-linecap="round" stroke="#ffffff" stroke-width="2.0" />
<line x1="795.25" y1="408" x2="788.25" y2="400" stroke-linecap="round" stroke="#ffffff" stroke-width="2.0" />
<line x1="781.25" y1="400" x2="795.25" y2="392" stroke-linecap="round" stroke="#0f0f0f" stroke-width="1.0" />
<line x1="795.25" y1="392" x2="788.25" y2="400" stroke-linecap="round" stroke="#0f0f0f" stroke-width="1.0" />
<line x1="781.25" y1="400" x2="795.25" y2="408" stroke-linecap="round" stroke="#0f0f0f" stroke-width="1.0" />
<line x1="795.25" y1="408" x2="788.25" y2="400" stroke-linecap="round" stroke="#0f0f0f" stroke-width="1.0" />


<!-- renderSideComponent: ferrule -->


<!-- renderPart: cylinder -->
<path d="M811.25 374.375 L881.25 374.375 L881.25 425.625 L811.25 425.625 Z" stroke-width="0.5" stroke="black" stroke-linejoin="round" fill="#E1C16E" fill-opacity="1"/>
<line x1="819.3269230769231" y1="375.375" x2="819.3269230769231" y2="424.625" stroke-width="1" stroke="gray" />
<line x1="824.7115384615385" y1="375.375" x2="824.7115384615385" y2="424.625" stroke-width="1" stroke="gray" />
<line x1="830.0961538461538" y1="375.375" x2="830.0961538461538" y2="424.625" stroke-width="1" stroke="gray" />
<line x1="835.4807692307693" y1="375.375" x2="835.4807692307693" y2="424.625" stroke-width="1" stroke="gray" />
<line x1="840.8653846153846" y1="375.375" x2="840.8653846153846" y2="424.625" stroke-width="1" stroke="gray" />
<line x1="851.6346153846154" y1="375.375" x2="851.6346153846154" y2="424.625" stroke-width="1" stroke="gray" />
<line x1="857.0192307692307" y1="375.375" x2="857.0192307692307" y2="424.625" stroke-width="1" stroke="gray" />
<line x1="862.4038461538462" y1="375.375" x2="862.4038461538462" y2="424.625" stroke-width="1" stroke="gray" />
<line x1="867.7884615384615" y1="375.375" x2="867.7884615384615" y2="424.625" stroke-width="1" stroke="gray" />
<line x1="873.1730769230769" y1="375.375" x2="873.1730769230769" y2="424.625" stroke-width="1" stroke="gray" />
<circle r="4" cx="826.25" cy="387.1875" stroke="black" stroke-width="0.5" fill="dimgray" fill-opacity="1"/>


<!-- DASHED JOIN -->
<path d="M 896.25 400 L 916.25 400 L 916.25 460 L 791.25 460 L 791.25 520 L 836.25 520 " fill="none" stroke="white" stroke-width="2" stroke-dasharray="8,4" stroke-linecap="round"  />
<path d="M 896.25 400 L 916.25 400 L 916.25 460 L 791.25 460 L 791.25 520 L 836.25 520 " fill="none" stroke="black" stroke-width="1" stroke-dasharray="8,4" stroke-linecap="round"  />


<!-- ARROW START -->
<line x1="886.25" y1="400" x2="893.25" y2="400" stroke-linecap="round" stroke="#ffffff" stroke-width="2.0" />
<line x1="886.25" y1="400" x2="900.25" y2="392" stroke-linecap="round" stroke="#ffffff" stroke-width="2.0" />
<line x1="900.25" y1="392" x2="893.25" y2="400" stroke-linecap="round" stroke="#ffffff" stroke-width="2.0" />
<line x1="886.25" y1="400" x2="900.25" y2="408" stroke-linecap="round" stroke="#ffffff" stroke-width="2.0" />
<line x1="900.25" y1="408" x2="893.25" y2="400" stroke-linecap="round" stroke="#ffffff" stroke-width="2.0" />
<line x1="886.25" y1="400" x2="900.25" y2="392" stroke-linecap="round" stroke="#0f0f0f" stroke-width="1.0" />
<line x1="900.25" y1="392" x2="893.25" y2="400" stroke-linecap="round" stroke="#0f0f0f" stroke-width="1.0" />
<line x1="886.25" y1="400" x2="900.25" y2="408" stroke-linecap="round" stroke="#0f0f0f" stroke-width="1.0" />
<line x1="900.25" y1="408" x2="893.25" y2="400" stroke-linecap="round" stroke="#0f0f0f" stroke-width="1.0" />


<!-- ARROW START -->
<line x1="806.25" y1="520" x2="813.25" y2="520" stroke-linecap="round" stroke="#ffffff" stroke-width="2.0" />
<line x1="806.25" y1="520" x2="820.25" y2="512" stroke-linecap="round" stroke="#ffffff" stroke-width="2.0" />
<line x1="820.25" y1="512" x2="813.25" y2="520" stroke-linecap="round" stroke="#ffffff" stroke-width="2.0" />
<line x1="806.25" y1="520" x2="820.25" y2="528" stroke-linecap="round" stroke="#ffffff" stroke-width="2.0" />
<line x1="820.25" y1="528" x2="813.25" y2="520" stroke-linecap="round" stroke="#ffffff" stroke-width="2.0" />
<line x1="806.25" y1="520" x2="820.25" y2="512" stroke-linecap="round" stroke="#0f0f0f" stroke-width="1.0" />
<line x1="820.25" y1="512" x2="813.25" y2="520" stroke-linecap="round" stroke="#0f0f0f" stroke-width="1.0" />
<line x1="806.25" y1="520" x2="820.25" y2="528" stroke-linecap="round" stroke="#0f0f0f" stroke-width="1.0" />
<line x1="820.25" y1="528" x2="813.25" y2="520" stroke-linecap="round" stroke="#0f0f0f" stroke-width="1.0" />


<!-- renderPart: cylinder -->
<path d="M836.25 513.125 L850 513.125 L850 526.875 L836.25 526.875 Z" stroke-width="0.5" stroke="black" stroke-linejoin="round" fill="#E1C16E" fill-opacity="1"/>


<!-- renderPart: cylinder -->
<path d="M850 512.5 L852.5 512.5 L852.5 527.5 L850 527.5 Z" stroke-width="0.5" stroke="black" stroke-linejoin="round" fill="#E1C16E" fill-opacity="1"/>


<!-- renderPart: cylinder -->
<path d="M852.5 513.125 L867.5 513.125 L867.5 526.875 L852.5 526.875 Z" stroke-width="0.5" stroke="black" stroke-linejoin="round" fill="#E1C16E" fill-opacity="1"/>


<!-- renderPart: cylinder -->
<path d="M867.5 496.25 L881.25 496.25 L881.25 543.75 L867.5 543.75 Z" stroke-width="0.5" stroke="black" stroke-linejoin="round" fill="#E1C16E" fill-opacity="1"/>
<line x1="881.25" y1="480" x2="881.25" y2="560" stroke="white" stroke-linecap="round"  stroke-width="1" />
<line x1="881.25" y1="480" x2="881.25" y2="560" stroke="black" stroke-linecap="round" stroke-dasharray="4,2" stroke-width="1" />


<!-- renderSideComponent: cap -->


<!-- renderPart: cylinder -->
<path d="M881.25 496.25 L906.25 496.25 L906.25 543.75 L881.25 543.75 Z" stroke-width="0.5" stroke="black" stroke-linejoin="round" fill="#E1C16E" fill-opacity="1"/>


<!-- renderPart: cylinder -->
<path d="M906.25 495 L916.25 495 L916.25 545 L906.25 545 Z" stroke-width="0.5" stroke="black" stroke-linejoin="round" fill="#E1C16E" fill-opacity="1"/>


<!-- DASHED JOIN -->
<path d="M 931.25 520 L 951.25 520 L 951.25 580 L 841.25 580 L 841.25 640 L 886.25 640 " fill="none" stroke="white" stroke-width="2" stroke-dasharray="8,4" stroke-linecap="round"  />
<path d="M 931.25 520 L 951.25 520 L 951.25 580 L 841.25 580 L 841.25 640 L 886.25 640 " fill="none" stroke="black" stroke-width="1" stroke-dasharray="8,4" stroke-linecap="round"  />


<!-- ARROW START -->
<line x1="921.25" y1="520" x2="928.25" y2="520" stroke-linecap="round" stroke="#ffffff" stroke-width="2.0" />
<line x1="921.25" y1="520" x2="935.25" y2="512" stroke-linecap="round" stroke="#ffffff" stroke-width="2.0" />
<line x1="935.25" y1="512" x2="928.25" y2="520" stroke-linecap="round" stroke="#ffffff" stroke-width="2.0" />
<line x1="921.25" y1="520" x2="935.25" y2="528" stroke-linecap="round" stroke="#ffffff" stroke-width="2.0" />
<line x1="935.25" y1="528" x2="928.25" y2="520" stroke-linecap="round" stroke="#ffffff" stroke-width="2.0" />
<line x1="921.25" y1="520" x2="935.25" y2="512" stroke-linecap="round" stroke="#0f0f0f" stroke-width="1.0" />
<line x1="935.25" y1="512" x2="928.25" y2="520" stroke-linecap="round" stroke="#0f0f0f" stroke-width="1.0" />
<line x1="921.25" y1="520" x2="935.25" y2="528" stroke-linecap="round" stroke="#0f0f0f" stroke-width="1.0" />
<line x1="935.25" y1="528" x2="928.25" y2="520" stroke-linecap="round" stroke="#0f0f0f" stroke-width="1.0" />


<!-- ARROW START -->
<line x1="856.25" y1="640" x2="863.25" y2="640" stroke-linecap="round" stroke="#ffffff" stroke-width="2.0" />
<line x1="856.25" y1="640" x2="870.25" y2="632" stroke-linecap="round" stroke="#ffffff" stroke-width="2.0" />
<line x1="870.25" y1="632" x2="863.25" y2="640" stroke-linecap="round" stroke="#ffffff" stroke-width="2.0" />
<line x1="856.25" y1="640" x2="870.25" y2="648" stroke-linecap="round" stroke="#ffffff" stroke-width="2.0" />
<line x1="870.25" y1="648" x2="863.25" y2="640" stroke-linecap="round" stroke="#ffffff" stroke-width="2.0" />
<line x1="856.25" y1="640" x2="870.25" y2="632" stroke-linecap="round" stroke="#0f0f0f" stroke-width="1.0" />
<line x1="870.25" y1="632" x2="863.25" y2="640" stroke-linecap="round" stroke="#0f0f0f" stroke-width="1.0" />
<line x1="856.25" y1="640" x2="870.25" y2="648" stroke-linecap="round" stroke="#0f0f0f" stroke-width="1.0" />
<line x1="870.25" y1="648" x2="863.25" y2="640" stroke-linecap="round" stroke="#0f0f0f" stroke-width="1.0" />


<!-- renderPart: cylinder -->
<path d="M886.25 616.875 L916.25 616.875 L916.25 663.125 L886.25 663.125 Z" stroke-width="0.5" stroke="black" stroke-linejoin="round" fill="#db756d" fill-opacity="1"/>
<line x1="916.25" y1="600" x2="916.25" y2="680" stroke="white" stroke-linecap="round"  stroke-width="1" />
<line x1="916.25" y1="600" x2="916.25" y2="680" stroke="black" stroke-linecap="round" stroke-dasharray="4,2" stroke-width="1" />


<!-- renderSideComponent: eraser -->


<!-- renderPart: cylinder -->
<path d="M916.25 616.875 L941.25 616.875 L941.25 663.125 L916.25 663.125 Z" stroke-width="0.5" stroke="black" stroke-linejoin="round" fill="#db756d" fill-opacity="1"/>
</g><text x="50%" y="651" font-size="1.1em" font-weight="bold" text-anchor="middle" dominant-baseline="middle">Copyright (c) // Synapticloop and The Mechanical Pencil Database (tmpdb)</text>
<text x="50%" y="671" font-size="1.1em" font-weight="bold" text-anchor="middle" dominant-baseline="middle">Licensed under Creative Commons Attribution-NonCommercial-ShareAlike 4.0 International</text>
<text x="1190" y="681" font-size="0.5em" font-weight="bold" text-anchor="end" dominant-baseline="middle">SVGTechnicalExplodedRenderer</text>
</svg>