<svg xmlns="http://www.w3.org/2000/svg" width="1200" height="500">
 <pattern id="knurled-large" patternUnits="userSpaceOnUse" width="12" height="12">
<path stroke="dimgray" stroke-linecap="round" stroke-width="1" d="M 6,6 L 12,12"/>
<path stroke="dimgray" stroke-linecap="round" stroke-width="1" d="M 6,6 L 0,12"/>
<path stroke="gray" stroke-linecap="round" stroke-width="1" d="M 6,6 L 12,0" />
<path stroke="gray" stroke-linecap="round" stroke-width="1" d="M 6,6 L 0,0" />
</pattern><pattern id="knurled-small" patternUnits="userSpaceOnUse" width="4" height="4">
<path stroke="dimgray" stroke-linecap="round" stroke-width="1" d="M 2,2 L 4,4"/>
<path stroke="dimgray" stroke-linecap="round" stroke-width="1" d="M 2,2 L 0,4"/>
<path stroke="gray" stroke-linecap="round" stroke-width="1" d="M 2,2 L 4,0" />
<path stroke="gray" stroke-linecap="round" stroke-width="1" d="M 2,2 L 0,0" />
</pattern><pattern id="knurled" patternUnits="userSpaceOnUse" width="8" height="8">
<path stroke="dimgray" stroke-linecap="round" stroke-width="1" d="M 4,4 L 8,8"/>
<path stroke="dimgray" stroke-linecap="round" stroke-width="1" d="M 4,4 L 0,8"/>
<path stroke="gray" stroke-linecap="round" stroke-width="1" d="M 4,4 L 8,0" />
<path stroke="gray" stroke-linecap="round" stroke-width="1" d="M 4,4 L 0,0" />
</pattern><pattern id="lined" patternUnits="userSpaceOnUse" width="3" height="3">
<path stroke="dimgray" stroke-linecap="round" stroke-width="1" d="M 0,0 L 3,0"/>
</pattern><pattern id="ridged" patternUnits="userSpaceOnUse" width="3" height="3">
<path stroke="dimgray" stroke-linecap="round" stroke-width="1" d="M 0,0 L 0,3"/>
</pattern><rect x="0" y="0" width="1200" height="500" fill="white" stroke="black" stroke-width="4" />
<rect x="2" y="2" width="1196" height="496" fill="white" stroke="dimgray" stroke-width="1" />
<g transform="rotate(0 0 0)">
<line x1="40" y1="300" x2="1160" y2="300" stroke-linecap="round" stroke="#5f5f5f" stroke-dasharray="2" stroke-width="1" />
<line x1="20" y1="300" x2="60" y2="300" stroke-linecap="round" stroke="#000000"  stroke-width="1" />
<line x1="40" y1="280" x2="40" y2="320" stroke="#000000" stroke-linecap="round"  stroke-width="1" />
<circle r="10" cx="40" cy="300" fill="white" fill-opacity="0" stroke="#000000" stroke-width="1"  />
<line x1="1140" y1="300" x2="1180" y2="300" stroke-linecap="round" stroke="#000000"  stroke-width="1" />
<line x1="1160" y1="280" x2="1160" y2="320" stroke="#000000" stroke-linecap="round"  stroke-width="1" />
<circle r="10" cx="1160" cy="300" fill="white" fill-opacity="0" stroke="#000000" stroke-width="1"  />
<line x1="600" y1="90" x2="600" y2="410" stroke="#5f5f5f" stroke-linecap="round" stroke-dasharray="2" stroke-width="1" />
<line x1="580" y1="90" x2="620" y2="90" stroke-linecap="round" stroke="#000000"  stroke-width="1" />
<line x1="600" y1="70" x2="600" y2="110" stroke="#000000" stroke-linecap="round"  stroke-width="1" />
<circle r="10" cx="600" cy="90" fill="white" fill-opacity="0" stroke="#000000" stroke-width="1"  />
<line x1="580" y1="410" x2="620" y2="410" stroke-linecap="round" stroke="#000000"  stroke-width="1" />
<line x1="600" y1="390" x2="600" y2="430" stroke="#000000" stroke-linecap="round"  stroke-width="1" />
<circle r="10" cx="600" cy="410" fill="white" fill-opacity="0" stroke="#000000" stroke-width="1"  />
<text x="30" y="50" font-size="2.0em" font-weight="bold"> OHTO // Sharp Pencil (Model #: APS-280E)</text>
<line x1="192.5" y1="192" x2="192.5" y2="300" stroke="#cfcfcf" stroke-linecap="round"  stroke-width="1" />
<line x1="192.5" y1="180" x2="192.5" y2="300" stroke="#cfcfcf" stroke-linecap="round"  stroke-width="1" />
<line x1="221.25" y1="180" x2="221.25" y2="300" stroke="#cfcfcf" stroke-linecap="round"  stroke-width="1" />
<line x1="236.25" y1="180" x2="236.25" y2="300" stroke="#cfcfcf" stroke-linecap="round"  stroke-width="1" />
<line x1="895" y1="180" x2="895" y2="300" stroke="#cfcfcf" stroke-linecap="round"  stroke-width="1" />
<line x1="962.5" y1="180" x2="962.5" y2="300" stroke="#cfcfcf" stroke-linecap="round"  stroke-width="1" />
<line x1="988.75" y1="180" x2="988.75" y2="300" stroke="#cfcfcf" stroke-linecap="round"  stroke-width="1" />
<line x1="1007.5" y1="192" x2="1007.5" y2="300" stroke="#cfcfcf" stroke-linecap="round"  stroke-width="1" />
<line x1="192.5" y1="169" x2="192.5" y2="191" stroke="black" stroke-width="1" />
<line x1="192.5" y1="180" x2="221.25" y2="180" stroke="black" stroke-width="1" />
<line x1="221.25" y1="169" x2="221.25" y2="191" stroke="black" stroke-width="1" />
<text x="206.875" y="161" font-size="1.2em" transform="rotate(-90, 206.875, 161)" font-weight="bold" text-anchor="start" dominant-baseline="central" fill="black"><tspan x="206.875" dy="0">5.75 mm tip</tspan></text>
<line x1="221.25" y1="169" x2="221.25" y2="191" stroke="black" stroke-width="1" />
<line x1="221.25" y1="180" x2="236.25" y2="180" stroke="black" stroke-width="1" />
<line x1="236.25" y1="169" x2="236.25" y2="191" stroke="black" stroke-width="1" />
<text x="228.75" y="161" font-size="1.2em" transform="rotate(-90, 228.75, 161)" font-weight="bold" text-anchor="start" dominant-baseline="central" fill="black"><tspan x="228.75" dy="0">3.00 mm head</tspan></text>
<line x1="236.25" y1="169" x2="236.25" y2="191" stroke="black" stroke-width="1" />
<line x1="236.25" y1="180" x2="895" y2="180" stroke="black" stroke-width="1" />
<line x1="895" y1="169" x2="895" y2="191" stroke="black" stroke-width="1" />
<text x="565.625" y="161" font-size="1.2em" transform="rotate(-90, 553.625, 161)" font-weight="bold" text-anchor="start" dominant-baseline="central" fill="black"><tspan x="557.625" dy="0">131.75 mm</tspan><tspan x="557.625" dy="1em">body</tspan></text>
<line x1="895" y1="169" x2="895" y2="191" stroke="black" stroke-width="1" />
<line x1="895" y1="180" x2="962.5" y2="180" stroke="black" stroke-width="1" />
<line x1="962.5" y1="169" x2="962.5" y2="191" stroke="black" stroke-width="1" />
<text x="928.75" y="161" font-size="1.2em" transform="rotate(-90, 916.75, 161)" font-weight="bold" text-anchor="start" dominant-baseline="central" fill="black"><tspan x="920.75" dy="0">13.50 mm</tspan><tspan x="920.75" dy="1em">ferrule</tspan></text>
<line x1="962.5" y1="169" x2="962.5" y2="191" stroke="black" stroke-width="1" />
<line x1="962.5" y1="180" x2="988.75" y2="180" stroke="black" stroke-width="1" />
<line x1="988.75" y1="169" x2="988.75" y2="191" stroke="black" stroke-width="1" />
<text x="975.625" y="161" font-size="1.2em" transform="rotate(-90, 975.625, 161)" font-weight="bold" text-anchor="start" dominant-baseline="central" fill="black"><tspan x="975.625" dy="0">5.25 mm cap</tspan></text>
<line x1="988.75" y1="169" x2="988.75" y2="191" stroke="black" stroke-width="1" />
<line x1="988.75" y1="180" x2="1007.5" y2="180" stroke="black" stroke-width="1" />
<line x1="1007.5" y1="169" x2="1007.5" y2="191" stroke="black" stroke-width="1" />
<text x="998.125" y="161" font-size="1.2em" transform="rotate(-90, 998.125, 161)" font-weight="bold" text-anchor="start" dominant-baseline="central" fill="black"><tspan x="998.125" dy="0">3.75 mm eraser</tspan></text>


<!-- renderSideComponent: tip -->


<!-- renderPart: cylinder -->
<path d="M192.45 296.25 L201.3 296.25 L201.3 303.75 L192.45 303.75 Z" stroke-width="0" stroke="none" stroke-linejoin="round" fill="white" fill-opacity="1"/>
<path d="M192.5 296.25 L201.25 296.25 M201.25 303.75 L192.5 303.75" stroke-width="0.5" stroke="black" stroke-linejoin="round" fill="white" fill-opacity="1"/>
<!-- !right !both --><path d="M201.25 296.25 L201.25 303.75" stroke-width="0.5" stroke="black" stroke-linejoin="round" fill="white" fill-opacity="1"/>
<!-- !left !both --><path d="M192.5 296.25 L192.5 303.75" stroke-width="0.5" stroke="black" stroke-linejoin="round" fill="white" fill-opacity="1"/>


<!-- renderPart: cone -->
<path d="M201.2 296.25 L221.3 286.25 L221.3 313.75 L201.2 303.75 Z" stroke-width="0" stroke="none" stroke-linejoin="round" fill="white" fill-opacity="1"/>
<path d="M201.25 296.25 L221.25 286.25 M221.25 313.75 L201.25 303.75" stroke-width="0.5" stroke="black" stroke-linejoin="round" fill="white" fill-opacity="1"/>
<!-- !right !both --><path d="M221.25 286.25 L221.25 313.75" stroke-width="0.5" stroke="black" stroke-linejoin="round" fill="white" fill-opacity="1"/>
<!-- !left !both --><path d="M201.25 296.25 L201.25 303.75" stroke-width="0.5" stroke="black" stroke-linejoin="round" fill="white" fill-opacity="1"/>


<!-- renderSideComponent: head -->


<!-- renderPart: cone -->
<path d="M221.2 286.25 L236.3 280 L236.3 320 L221.2 313.75 Z" stroke-width="0" stroke="none" stroke-linejoin="round" fill="white" fill-opacity="1"/>
<path d="M221.25 286.25 L236.25 280 M236.25 320 L221.25 313.75" stroke-width="0.5" stroke="black" stroke-linejoin="round" fill="white" fill-opacity="1"/>
<!-- !left !both --><path d="M221.25 286.25 L221.25 313.75" stroke-width="0.5" stroke="black" stroke-linejoin="round" fill="white" fill-opacity="1"/>


<!-- renderSideComponent: body -->


<!-- renderPart: hexagonal -->
<path d="M236.2 280 L895.05 280 L895.05 320 L236.2 320 Z" stroke-width="0" stroke="none" stroke-linejoin="round" fill="white" fill-opacity="1"/>
<path d="M236.25 280 L895 280 M895 320 L236.25 320" stroke-width="0.5" stroke="black" stroke-linejoin="round" fill="white" fill-opacity="1"/>
<!-- !right !both --><path d="M895 280 L895 320" stroke-width="0.5" stroke="black" stroke-linejoin="round" fill="white" fill-opacity="1"/>
<!-- !left !both --><path d="M236.25 280 L236.25 320" stroke-width="0.5" stroke="black" stroke-linejoin="round" fill="white" fill-opacity="1"/>
<line x1="242.5" y1="300" x2="901.25" y2="300" stroke-width="1.5" stroke="gray" fill="gray" stroke-opacity="1.0"/>
<line x1="242.5" y1="300" x2="901.25" y2="300" stroke-width="0.5" stroke="black" fill="none" stroke-opacity="0.5"/>


<!-- renderSideComponent: ferrule -->


<!-- renderPart: cylinder -->
<path d="M894.95 280 L962.55 280 L962.55 320 L894.95 320 Z" stroke-width="0" stroke="none" stroke-linejoin="round" fill="white" fill-opacity="1"/>
<path d="M895 280 L962.5 280 M962.5 320 L895 320" stroke-width="0.5" stroke="black" stroke-linejoin="round" fill="white" fill-opacity="1"/>
<!-- !right !both --><path d="M962.5 280 L962.5 320" stroke-width="0.5" stroke="black" stroke-linejoin="round" fill="white" fill-opacity="1"/>
<!-- !left !both --><path d="M895 280 L895 320" stroke-width="0.5" stroke="black" stroke-linejoin="round" fill="white" fill-opacity="1"/>
<line x1="902.7884615384615" y1="281" x2="902.7884615384615" y2="319" stroke-width="1" stroke="gray" />
<line x1="907.9807692307693" y1="281" x2="907.9807692307693" y2="319" stroke-width="1" stroke="gray" />
<line x1="913.1730769230769" y1="281" x2="913.1730769230769" y2="319" stroke-width="1" stroke="gray" />
<line x1="918.3653846153846" y1="281" x2="918.3653846153846" y2="319" stroke-width="1" stroke="gray" />
<line x1="923.5576923076923" y1="281" x2="923.5576923076923" y2="319" stroke-width="1" stroke="gray" />
<line x1="933.9423076923077" y1="281" x2="933.9423076923077" y2="319" stroke-width="1" stroke="gray" />
<line x1="939.1346153846154" y1="281" x2="939.1346153846154" y2="319" stroke-width="1" stroke="gray" />
<line x1="944.3269230769231" y1="281" x2="944.3269230769231" y2="319" stroke-width="1" stroke="gray" />
<line x1="949.5192307692307" y1="281" x2="949.5192307692307" y2="319" stroke-width="1" stroke="gray" />
<line x1="954.7115384615385" y1="281" x2="954.7115384615385" y2="319" stroke-width="1" stroke="gray" />
<circle r="4" cx="910" cy="290" stroke="black" stroke-width="0.5" fill="dimgray" fill-opacity="1"/>


<!-- renderSideComponent: cap -->


<!-- renderPart: cylinder -->
<path d="M962.45 283.125 L980.05 283.125 L980.05 316.875 L962.45 316.875 Z" stroke-width="0" stroke="none" stroke-linejoin="round" fill="white" fill-opacity="1"/>
<path d="M962.5 283.125 L980 283.125 M980 316.875 L962.5 316.875" stroke-width="0.5" stroke="black" stroke-linejoin="round" fill="white" fill-opacity="1"/>
<!-- !right !both --><path d="M980 283.125 L980 316.875" stroke-width="0.5" stroke="black" stroke-linejoin="round" fill="white" fill-opacity="1"/>
<!-- !left !both --><path d="M962.5 283.125 L962.5 316.875" stroke-width="0.5" stroke="black" stroke-linejoin="round" fill="white" fill-opacity="1"/>


<!-- renderPart: cylinder -->
<path d="M979.95 280 L988.8 280 L988.8 320 L979.95 320 Z" stroke-width="0" stroke="none" stroke-linejoin="round" fill="white" fill-opacity="1"/>
<path d="M980 280 L988.75 280 M988.75 320 L980 320" stroke-width="0.5" stroke="black" stroke-linejoin="round" fill="white" fill-opacity="1"/>
<!-- !right !both --><path d="M988.75 280 L988.75 320" stroke-width="0.5" stroke="black" stroke-linejoin="round" fill="white" fill-opacity="1"/>
<!-- !left !both --><path d="M980 280 L980 320" stroke-width="0.5" stroke="black" stroke-linejoin="round" fill="white" fill-opacity="1"/>


<!-- renderSideComponent: eraser -->


<!-- renderPart: cylinder -->
<path d="M988.7 284.375 L1007.55 284.375 L1007.55 315.625 L988.7 315.625 Z" stroke-width="0" stroke="none" stroke-linejoin="round" fill="white" fill-opacity="1"/>
<path d="M988.75 284.375 L1007.5 284.375 M1007.5 315.625 L988.75 315.625" stroke-width="0.5" stroke="black" stroke-linejoin="round" fill="white" fill-opacity="1"/>
<!-- !right !both --><path d="M1007.5 284.375 L1007.5 315.625" stroke-width="0.5" stroke="black" stroke-linejoin="round" fill="white" fill-opacity="1"/>
<!-- !left !both --><path d="M988.75 284.375 L988.75 315.625" stroke-width="0.5" stroke="black" stroke-linejoin="round" fill="white" fill-opacity="1"/>

<!-- TAPER START: hexagonal -->
<path d="M 236.15 280.25 L 242.5 280.25 C 234.21875 285, 234.21875 295, 242.5 300 C 234.21875 305, 234.21875 315, 242.5 319.75 L 236.15 319.75 Z" stroke-width="0" stroke="0" stroke-linecap="round" fill-opacity="1" fill="white" /><path d="M 242.5 280.5 C 234.21875 285, 234.21875 295, 242.5 300 C 234.21875 305, 234.21875 315, 242.5 319.45" stroke-width="1.5" stroke="gray" stroke-linecap="round" fill-opacity="0" fill="none" /><path d="M 242.5 280.5 C 234.21875 285, 234.21875 295, 242.5 300 C 234.21875 305, 234.21875 315, 242.5 319.5" stroke-width="0.5" stroke="black" stroke-opacity="0.5" stroke-linecap="round" fill-opacity="0" fill="none" /></g><text x="50%" y="460" font-size="1.1em" font-weight="bold" text-anchor="middle" dominant-baseline="middle">Copyright (c) // Synapticloop // The Mechanical Pencil Database (tmpdb)</text>
<text x="50%" y="480" font-size="1.1em" font-weight="bold" text-anchor="middle" dominant-baseline="middle">Licensed under Creative Commons Attribution-NonCommercial-ShareAlike 4.0 International</text>
<text x="1190" y="490" font-size="0.5em" font-weight="bold" text-anchor="end" dominant-baseline="middle">SVGTechnicalComponentRenderer</text>
</svg>