<svg xmlns="http://www.w3.org/2000/svg" width="1200" height="500">
 <pattern id="diagonalHatch" patternUnits="userSpaceOnUse" width="8" height="8">
<path stroke="dimgray" stroke-linecap="round" stroke-width="1" d="M 4,4 L 8,8"/>
<path stroke="dimgray" stroke-linecap="round" stroke-width="1" d="M 4,4 L 0,8"/>
<path stroke="gray" stroke-linecap="round" stroke-width="1" d="M 4,4 L 8,0" />
<path stroke="gray" stroke-linecap="round" stroke-width="1" d="M 4,4 L 0,0" />
</pattern>
<pattern id="spring" patternUnits="userSpaceOnUse" width="8" height="100">
<path stroke="dimgray" stroke-linecap="round" stroke-width="2" d="M 0,0 L 8,100"/>
<path stroke="white" stroke-linecap="round" stroke-width="1" d="M 0,0 L 8,100"/>
</pattern>
<rect x="0" y="0" width="1200" height="500" fill="white" stroke="black" stroke-width="4" />
<rect x="2" y="2" width="1196" height="496" fill="white" stroke="dimgray" stroke-width="1" />
<g transform="rotate(0 0 0)">
<line x1="10" y1="250" x2="1190" y2="250" stroke-linecap="round" stroke="#000000" stroke-dasharray="2" stroke-width="1" />
<line x1="10" y1="250" x2="50" y2="250" stroke-linecap="round" stroke="#000000"  stroke-width="1" />
<line x1="30" y1="230" x2="30" y2="270" stroke="#000000" stroke-linecap="round"  stroke-width="1" />
<circle r="10" cx="30" cy="250" fill="none" stroke="#000000" stroke-width="1"  />
<line x1="1150" y1="250" x2="1190" y2="250" stroke-linecap="round" stroke="#000000"  stroke-width="1" />
<line x1="1170" y1="230" x2="1170" y2="270" stroke="#000000" stroke-linecap="round"  stroke-width="1" />
<circle r="10" cx="1170" cy="250" fill="none" stroke="#000000" stroke-width="1"  />
<line x1="600" y1="140" x2="600" y2="420" stroke="#000000" stroke-linecap="round" stroke-dasharray="2" stroke-width="1" />
<line x1="580" y1="150" x2="620" y2="150" stroke-linecap="round" stroke="#000000"  stroke-width="1" />
<line x1="600" y1="130" x2="600" y2="170" stroke="#000000" stroke-linecap="round"  stroke-width="1" />
<circle r="10" cx="600" cy="150" fill="none" stroke="#000000" stroke-width="1"  />
<line x1="580" y1="400" x2="620" y2="400" stroke-linecap="round" stroke="#000000"  stroke-width="1" />
<line x1="600" y1="380" x2="600" y2="420" stroke="#000000" stroke-linecap="round"  stroke-width="1" />
<circle r="10" cx="600" cy="400" fill="none" stroke="#000000" stroke-width="1"  />
<text x="30" y="50" font-size="2.0em" font-weight="bold"> OHTO // Sharp Pencil 2.0 (Model #: APS-680E)</text>
<line x1="258.75" y1="134.5" x2="258.75" y2="250" stroke="#cfcfcf" stroke-linecap="round"  stroke-width="1" />
<line x1="258.75" y1="130" x2="258.75" y2="250" stroke="#cfcfcf" stroke-linecap="round"  stroke-width="1" />
<line x1="296.25" y1="130" x2="296.25" y2="250" stroke="#cfcfcf" stroke-linecap="round"  stroke-width="1" />
<line x1="321.25" y1="130" x2="321.25" y2="250" stroke="#cfcfcf" stroke-linecap="round"  stroke-width="1" />
<line x1="811.25" y1="130" x2="811.25" y2="250" stroke="#cfcfcf" stroke-linecap="round"  stroke-width="1" />
<line x1="881.25" y1="130" x2="881.25" y2="250" stroke="#cfcfcf" stroke-linecap="round"  stroke-width="1" />
<line x1="916.25" y1="130" x2="916.25" y2="250" stroke="#cfcfcf" stroke-linecap="round"  stroke-width="1" />
<line x1="941.25" y1="134.5" x2="941.25" y2="250" stroke="#cfcfcf" stroke-linecap="round"  stroke-width="1" />
<line x1="258.75" y1="119" x2="258.75" y2="141" stroke="black" stroke-width="1" />
<line x1="258.75" y1="130" x2="296.25" y2="130" stroke="black" stroke-width="1" />
<line x1="296.25" y1="119" x2="296.25" y2="141" stroke="black" stroke-width="1" />
<text x="277.5" y="111" font-size="1.2em" transform="rotate(-90, 265.5, 111)" font-weight="bold" text-anchor="start" dominant-baseline="central" fill="black"><tspan x="269.5" dy="0">7.50 mm</tspan><tspan x="269.5" dy="1em">tip</tspan></text>
<line x1="296.25" y1="119" x2="296.25" y2="141" stroke="black" stroke-width="1" />
<line x1="296.25" y1="130" x2="321.25" y2="130" stroke="black" stroke-width="1" />
<line x1="321.25" y1="119" x2="321.25" y2="141" stroke="black" stroke-width="1" />
<text x="308.75" y="111" font-size="1.2em" transform="rotate(-90, 308.75, 111)" font-weight="bold" text-anchor="start" dominant-baseline="central" fill="black"><tspan x="308.75" dy="0">5.00 mm head</tspan></text>
<line x1="321.25" y1="119" x2="321.25" y2="141" stroke="black" stroke-width="1" />
<line x1="321.25" y1="130" x2="811.25" y2="130" stroke="black" stroke-width="1" />
<line x1="811.25" y1="119" x2="811.25" y2="141" stroke="black" stroke-width="1" />
<text x="566.25" y="111" font-size="1.2em" transform="rotate(-90, 554.25, 111)" font-weight="bold" text-anchor="start" dominant-baseline="central" fill="black"><tspan x="558.25" dy="0">98.00 mm</tspan><tspan x="558.25" dy="1em">body</tspan></text>
<line x1="811.25" y1="119" x2="811.25" y2="141" stroke="black" stroke-width="1" />
<line x1="811.25" y1="130" x2="881.25" y2="130" stroke="black" stroke-width="1" />
<line x1="881.25" y1="119" x2="881.25" y2="141" stroke="black" stroke-width="1" />
<text x="846.25" y="111" font-size="1.2em" transform="rotate(-90, 834.25, 111)" font-weight="bold" text-anchor="start" dominant-baseline="central" fill="black"><tspan x="838.25" dy="0">14.00 mm</tspan><tspan x="838.25" dy="1em">ferrule</tspan></text>
<line x1="881.25" y1="119" x2="881.25" y2="141" stroke="black" stroke-width="1" />
<line x1="881.25" y1="130" x2="916.25" y2="130" stroke="black" stroke-width="1" />
<line x1="916.25" y1="119" x2="916.25" y2="141" stroke="black" stroke-width="1" />
<text x="898.75" y="111" font-size="1.2em" transform="rotate(-90, 886.75, 111)" font-weight="bold" text-anchor="start" dominant-baseline="central" fill="black"><tspan x="890.75" dy="0">7.00 mm</tspan><tspan x="890.75" dy="1em">cap</tspan></text>
<line x1="916.25" y1="119" x2="916.25" y2="141" stroke="black" stroke-width="1" />
<line x1="916.25" y1="130" x2="941.25" y2="130" stroke="black" stroke-width="1" />
<line x1="941.25" y1="119" x2="941.25" y2="141" stroke="black" stroke-width="1" />
<text x="928.75" y="111" font-size="1.2em" transform="rotate(-90, 928.75, 111)" font-weight="bold" text-anchor="start" dominant-baseline="central" fill="black"><tspan x="928.75" dy="0">5.00 mm eraser</tspan></text>
<!-- julian --><rect x="258.75" y="241.875" width="12.5" height="16.25" rx="0" ry="0" stroke-width="0.5" stroke="black" fill="white" fill-opacity="1"/>
<path d="M271.25 241.875 L296.25 231.25 L296.25 268.75 L271.25 258.125 Z" stroke-width="0.5" stroke="black" stroke-linejoin="round" fill="white" fill-opacity="1" />
<path d="M296.25 230 L321.25 222.5 L321.25 277.5 L296.25 270 Z" stroke-width="0.5" stroke="black" stroke-linejoin="round" fill="white" fill-opacity="1" />
<!-- julian --><rect x="321.25" y="222.5" width="490" height="55" rx="0" ry="0" stroke-width="0.5" stroke="black" fill="white" fill-opacity="1"/>
<line x1="321.25" y1="250" x2="811.25" y2="250" stroke-width="1.5" stroke="black" fill="none" stroke-opacity="0.5"/>
<line x1="321.25" y1="250" x2="811.25" y2="250" stroke-width="0.5" stroke="gray" fill="none" stroke-opacity="0.5"/>
<!-- julian --><rect x="811.25" y="224.375" width="70" height="51.25" rx="0" ry="0" stroke-width="0.5" stroke="black" fill="white" fill-opacity="1"/>
<line x1="819.3269230769231" y1="225.375" x2="819.3269230769231" y2="274.625" stroke-width="1" stroke="gray" />
<line x1="824.7115384615385" y1="225.375" x2="824.7115384615385" y2="274.625" stroke-width="1" stroke="gray" />
<line x1="830.0961538461538" y1="225.375" x2="830.0961538461538" y2="274.625" stroke-width="1" stroke="gray" />
<line x1="835.4807692307693" y1="225.375" x2="835.4807692307693" y2="274.625" stroke-width="1" stroke="gray" />
<line x1="840.8653846153846" y1="225.375" x2="840.8653846153846" y2="274.625" stroke-width="1" stroke="gray" />
<line x1="851.6346153846154" y1="225.375" x2="851.6346153846154" y2="274.625" stroke-width="1" stroke="gray" />
<line x1="857.0192307692307" y1="225.375" x2="857.0192307692307" y2="274.625" stroke-width="1" stroke="gray" />
<line x1="862.4038461538462" y1="225.375" x2="862.4038461538462" y2="274.625" stroke-width="1" stroke="gray" />
<line x1="867.7884615384615" y1="225.375" x2="867.7884615384615" y2="274.625" stroke-width="1" stroke="gray" />
<line x1="873.1730769230769" y1="225.375" x2="873.1730769230769" y2="274.625" stroke-width="1" stroke="gray" />
<circle r="4" cx="826.25" cy="237.1875" stroke="dimgray" stroke-width="1" fill="dimGray" />
<!-- julian --><rect x="881.25" y="226.25" width="25" height="47.5" rx="0" ry="0" stroke-width="0.5" stroke="black" fill="white" fill-opacity="1"/>
<!-- julian --><rect x="906.25" y="225" width="10" height="50" rx="0" ry="0" stroke-width="0.5" stroke="black" fill="white" fill-opacity="1"/>
<!-- julian --><rect x="916.25" y="226.875" width="25" height="46.25" rx="0" ry="0" stroke-width="0.5" stroke="black" fill="white" fill-opacity="1"/>
<path d="M 321.9 222.5 C 308.75 229.375, 308.75 243.125, 321.9 250" stroke-width="0.5" stroke="black" stroke-linecap="round" fill="white" /><path d="M 321.9 277.5 C 308.75 270.625, 308.75 256.875, 321.9 250" stroke-width="0.5" stroke="black" stroke-linecap="round" fill="white" /></g><text x="50%" y="480" font-size="1.1em" font-weight="bold" text-anchor="middle" dominant-baseline="middle">Copyright (c) // The Mechanical Pencil Database (tmpdb) // Licensed under Creative Commons Attribution-NonCommercial-ShareAlike 4.0 International</text>
<text x="1190" y="490" font-size="0.5em" font-weight="bold" text-anchor="end" dominant-baseline="middle">SVGTechnicalComponentRenderer</text>
</svg>