<svg xmlns="http://www.w3.org/2000/svg" width="1500" height="600">
 <pattern id="knurled-large" patternUnits="userSpaceOnUse" width="12" height="12">
<path stroke="dimgray" stroke-linecap="round" stroke-width="1" d="M 6,6 L 12,12"/>
<path stroke="dimgray" stroke-linecap="round" stroke-width="1" d="M 6,6 L 0,12"/>
<path stroke="gray" stroke-linecap="round" stroke-width="1" d="M 6,6 L 12,0" />
<path stroke="gray" stroke-linecap="round" stroke-width="1" d="M 6,6 L 0,0" />
</pattern><pattern id="knurled-small" patternUnits="userSpaceOnUse" width="4" height="4">
<path stroke="dimgray" stroke-linecap="round" stroke-width="1" d="M 2,2 L 4,4"/>
<path stroke="dimgray" stroke-linecap="round" stroke-width="1" d="M 2,2 L 0,4"/>
<path stroke="gray" stroke-linecap="round" stroke-width="1" d="M 2,2 L 4,0" />
<path stroke="gray" stroke-linecap="round" stroke-width="1" d="M 2,2 L 0,0" />
</pattern><pattern id="knurled" patternUnits="userSpaceOnUse" width="8" height="8">
<path stroke="dimgray" stroke-linecap="round" stroke-width="1" d="M 4,4 L 8,8"/>
<path stroke="dimgray" stroke-linecap="round" stroke-width="1" d="M 4,4 L 0,8"/>
<path stroke="gray" stroke-linecap="round" stroke-width="1" d="M 4,4 L 8,0" />
<path stroke="gray" stroke-linecap="round" stroke-width="1" d="M 4,4 L 0,0" />
</pattern><pattern id="lined" patternUnits="userSpaceOnUse" width="3" height="3">
<path stroke="dimgray" stroke-linecap="round" stroke-width="1" d="M 0,0 L 3,0"/>
</pattern><pattern id="ridged" patternUnits="userSpaceOnUse" width="3" height="3">
<path stroke="dimgray" stroke-linecap="round" stroke-width="1" d="M 0,0 L 0,3"/>
</pattern><rect x="0" y="0" width="1500" height="600" fill="white" stroke="black" stroke-width="4" />
<rect x="2" y="2" width="1496" height="596" fill="white" stroke="dimgray" stroke-width="1" />
<g transform="rotate(0 0 0)">
<line x1="40" y1="300" x2="1460" y2="300" stroke-linecap="round" stroke="#5f5f5f" stroke-dasharray="2" stroke-width="1" />
<line x1="20" y1="300" x2="60" y2="300" stroke-linecap="round" stroke="#000000"  stroke-width="1" />
<line x1="40" y1="280" x2="40" y2="320" stroke="#000000" stroke-linecap="round"  stroke-width="1" />
<circle r="10" cx="40" cy="300" fill="white" fill-opacity="0" stroke="#000000" stroke-width="1"  />
<line x1="1440" y1="300" x2="1480" y2="300" stroke-linecap="round" stroke="#000000"  stroke-width="1" />
<line x1="1460" y1="280" x2="1460" y2="320" stroke="#000000" stroke-linecap="round"  stroke-width="1" />
<circle r="10" cx="1460" cy="300" fill="white" fill-opacity="0" stroke="#000000" stroke-width="1"  />
<line x1="750" y1="90" x2="750" y2="510" stroke="#5f5f5f" stroke-linecap="round" stroke-dasharray="2" stroke-width="1" />
<line x1="730" y1="90" x2="770" y2="90" stroke-linecap="round" stroke="#000000"  stroke-width="1" />
<line x1="750" y1="70" x2="750" y2="110" stroke="#000000" stroke-linecap="round"  stroke-width="1" />
<circle r="10" cx="750" cy="90" fill="white" fill-opacity="0" stroke="#000000" stroke-width="1"  />
<line x1="730" y1="510" x2="770" y2="510" stroke-linecap="round" stroke="#000000"  stroke-width="1" />
<line x1="750" y1="490" x2="750" y2="530" stroke="#000000" stroke-linecap="round"  stroke-width="1" />
<circle r="10" cx="750" cy="510" fill="white" fill-opacity="0" stroke="#000000" stroke-width="1"  />
<line x1="160" y1="150" x2="160" y2="510" stroke="#5f5f5f" stroke-linecap="round" stroke-dasharray="2" stroke-width="1" />
<line x1="140" y1="150" x2="180" y2="150" stroke-linecap="round" stroke="#000000"  stroke-width="1" />
<line x1="160" y1="130" x2="160" y2="170" stroke="#000000" stroke-linecap="round"  stroke-width="1" />
<circle r="10" cx="160" cy="150" fill="white" fill-opacity="0" stroke="#000000" stroke-width="1"  />
<line x1="140" y1="510" x2="180" y2="510" stroke-linecap="round" stroke="#000000"  stroke-width="1" />
<line x1="160" y1="490" x2="160" y2="530" stroke="#000000" stroke-linecap="round"  stroke-width="1" />
<circle r="10" cx="160" cy="510" fill="white" fill-opacity="0" stroke="#000000" stroke-width="1"  />
<line x1="1400" y1="150" x2="1400" y2="510" stroke="#5f5f5f" stroke-linecap="round" stroke-dasharray="2" stroke-width="1" />
<line x1="1380" y1="150" x2="1420" y2="150" stroke-linecap="round" stroke="#000000"  stroke-width="1" />
<line x1="1400" y1="130" x2="1400" y2="170" stroke="#000000" stroke-linecap="round"  stroke-width="1" />
<circle r="10" cx="1400" cy="150" fill="white" fill-opacity="0" stroke="#000000" stroke-width="1"  />
<line x1="1380" y1="510" x2="1420" y2="510" stroke-linecap="round" stroke="#000000"  stroke-width="1" />
<line x1="1400" y1="490" x2="1400" y2="530" stroke="#000000" stroke-linecap="round"  stroke-width="1" />
<circle r="10" cx="1400" cy="510" fill="white" fill-opacity="0" stroke="#000000" stroke-width="1"  />
<text x="30" y="50" font-size="2.0em" font-weight="bold"> OHTO // Wooden Pencil (Model #: WN03-SP20)</text>
<text x="30" y="80" font-size="1.1em"> [LOGO|OHTO] OHTO JAPAN WN03 Mechanical Pencil 2.0</text>
<text x="30" y="100" font-size="1.1em"> Lead size: 2 mm</text>
<text x="30" y="120" font-size="1.1em"> Weight: 11g</text>
<text x="1480" y="30" font-size="1.6em" font-weight="bold" text-anchor="end" dominant-baseline="central">Colour variants of the body</text>
<rect x="1440" y="55" width="40" rx="50%" ry="50%" height="40" stroke="black" stroke-width="2" fill="#e78b06" fill-opacity="1"/>
<text x="1460" y="100" transform="rotate(-90, 1460, 100)" font-size="1.2em" font-weight="bold" text-anchor="end" dominant-baseline="central">yellow</text>
<rect x="1380" y="55" width="40" rx="50%" ry="50%" height="40" stroke="black" stroke-width="2" fill="#014fa1" fill-opacity="1"/>
<text x="1400" y="100" transform="rotate(-90, 1400, 100)" font-size="1.2em" font-weight="bold" text-anchor="end" dominant-baseline="central">blue</text>
<rect x="1320" y="55" width="40" rx="50%" ry="50%" height="40" stroke="black" stroke-width="2" fill="#063604" fill-opacity="1"/>
<text x="1340" y="100" transform="rotate(-90, 1340, 100)" font-size="1.2em" font-weight="bold" text-anchor="end" dominant-baseline="central">green</text>
<rect x="1260" y="55" width="40" rx="50%" ry="50%" height="40" stroke="black" stroke-width="2" fill="#67171a" fill-opacity="1"/>
<text x="1280" y="100" transform="rotate(-90, 1280, 100)" font-size="1.2em" font-weight="bold" text-anchor="end" dominant-baseline="central">burgundy</text>
<rect x="1200" y="55" width="40" rx="50%" ry="50%" height="40" stroke="black" stroke-width="2" fill="#c38066" fill-opacity="1"/>
<text x="1220" y="100" transform="rotate(-90, 1220, 100)" font-size="1.2em" font-weight="bold" text-anchor="end" dominant-baseline="central">natural</text>
<text x="30" y="136" font-size="1.2em" font-weight="bold" text-anchor="start" dominant-baseline="central">Materials:</text>
<text x="50" y="156" font-size="1.2em" text-anchor="start" dominant-baseline="central"> - metal</text>
<text x="50" y="176" font-size="1.2em" text-anchor="start" dominant-baseline="central"> - wood</text>
<text x="50" y="196" font-size="1.2em" text-anchor="start" dominant-baseline="central"> - rubber</text>
<line x1="100" y1="272.5" x2="1400" y2="272.5" stroke-linecap="round" stroke="#cfcfcf"  stroke-width="1" />
<line x1="100" y1="327.5" x2="1400" y2="327.5" stroke-linecap="round" stroke="#cfcfcf"  stroke-width="1" />
<line x1="128.24573519457059" y1="300" x2="128.24573519457059" y2="347.5" stroke="#cfcfcf" stroke-linecap="round"  stroke-width="1" />
<line x1="191.75426480542941" y1="300" x2="191.75426480542941" y2="347.5" stroke="#cfcfcf" stroke-linecap="round"  stroke-width="1" />
<line x1="408.75" y1="180" x2="408.75" y2="420" stroke="#cfcfcf" stroke-linecap="round"  stroke-width="1" />
<line x1="446.25" y1="180" x2="446.25" y2="420" stroke="#cfcfcf" stroke-linecap="round"  stroke-width="1" />
<line x1="471.25" y1="180" x2="471.25" y2="420" stroke="#cfcfcf" stroke-linecap="round"  stroke-width="1" />
<line x1="961.25" y1="180" x2="961.25" y2="420" stroke="#cfcfcf" stroke-linecap="round"  stroke-width="1" />
<line x1="1031.25" y1="180" x2="1031.25" y2="420" stroke="#cfcfcf" stroke-linecap="round"  stroke-width="1" />
<line x1="1066.25" y1="180" x2="1066.25" y2="420" stroke="#cfcfcf" stroke-linecap="round"  stroke-width="1" />
<line x1="1091.25" y1="184.5" x2="1091.25" y2="392.5" stroke="#cfcfcf" stroke-linecap="round"  stroke-width="1" />
<text x="160" y="540" font-size="1.8em" font-weight="bold" text-anchor="middle" dominant-baseline="central">Front</text>
<text x="750" y="540" font-size="1.8em" font-weight="bold" text-anchor="middle" dominant-baseline="central">Side view</text>
<text x="1400" y="540" font-size="1.8em" font-weight="bold" text-anchor="middle" dominant-baseline="central">Back</text>
<line x1="99" y1="272.5" x2="121" y2="272.5" stroke="black" stroke-width="1" />
<line x1="110" y1="272.5" x2="110" y2="327.5" stroke="black" stroke-width="1" />
<line x1="99" y1="327.5" x2="121" y2="327.5" stroke="black" stroke-width="1" />
<text x="91" y="300" transform="rotate(-90, 91, 300)" font-size="1.2em" font-weight="bold" text-anchor="middle" dominant-baseline="central" fill="black">11.00 mm</text>
<line x1="128.24573519457059" y1="346.5" x2="128.24573519457059" y2="368.5" stroke="black" stroke-width="1" />
<line x1="128.24573519457059" y1="357.5" x2="191.75426480542941" y2="357.5" stroke="black" stroke-width="1" />
<line x1="191.75426480542941" y1="346.5" x2="191.75426480542941" y2="368.5" stroke="black" stroke-width="1" />
<text x="160" y="376.5" font-size="1.2em" font-weight="bold" text-anchor="middle" dominant-baseline="central" fill="black"><tspan x="160" dy="0">12.70 mm</tspan></text>
<line x1="408.75" y1="169" x2="408.75" y2="191" stroke="black" stroke-width="1" />
<line x1="408.75" y1="180" x2="446.25" y2="180" stroke="black" stroke-width="1" />
<line x1="446.25" y1="169" x2="446.25" y2="191" stroke="black" stroke-width="1" />
<text x="427.5" y="161" font-size="1.2em" transform="rotate(-90, 415.5, 161)" font-weight="bold" text-anchor="start" dominant-baseline="central" fill="black"><tspan x="419.5" dy="0">7.50 mm</tspan><tspan x="419.5" dy="1em">tip</tspan></text>
<line x1="446.25" y1="169" x2="446.25" y2="191" stroke="black" stroke-width="1" />
<line x1="446.25" y1="180" x2="471.25" y2="180" stroke="black" stroke-width="1" />
<line x1="471.25" y1="169" x2="471.25" y2="191" stroke="black" stroke-width="1" />
<text x="458.75" y="161" font-size="1.2em" transform="rotate(-90, 458.75, 161)" font-weight="bold" text-anchor="start" dominant-baseline="central" fill="black"><tspan x="458.75" dy="0">5.00 mm head</tspan></text>
<line x1="471.25" y1="169" x2="471.25" y2="191" stroke="black" stroke-width="1" />
<line x1="471.25" y1="180" x2="961.25" y2="180" stroke="black" stroke-width="1" />
<line x1="961.25" y1="169" x2="961.25" y2="191" stroke="black" stroke-width="1" />
<text x="716.25" y="161" font-size="1.2em" transform="rotate(-90, 704.25, 161)" font-weight="bold" text-anchor="start" dominant-baseline="central" fill="black"><tspan x="708.25" dy="0">98.00 mm</tspan><tspan x="708.25" dy="1em">body</tspan></text>
<line x1="961.25" y1="169" x2="961.25" y2="191" stroke="black" stroke-width="1" />
<line x1="961.25" y1="180" x2="1031.25" y2="180" stroke="black" stroke-width="1" />
<line x1="1031.25" y1="169" x2="1031.25" y2="191" stroke="black" stroke-width="1" />
<text x="996.25" y="161" font-size="1.2em" transform="rotate(-90, 984.25, 161)" font-weight="bold" text-anchor="start" dominant-baseline="central" fill="black"><tspan x="988.25" dy="0">14.00 mm</tspan><tspan x="988.25" dy="1em">ferrule</tspan></text>
<line x1="1031.25" y1="169" x2="1031.25" y2="191" stroke="black" stroke-width="1" />
<line x1="1031.25" y1="180" x2="1066.25" y2="180" stroke="black" stroke-width="1" />
<line x1="1066.25" y1="169" x2="1066.25" y2="191" stroke="black" stroke-width="1" />
<text x="1048.75" y="161" font-size="1.2em" transform="rotate(-90, 1036.75, 161)" font-weight="bold" text-anchor="start" dominant-baseline="central" fill="black"><tspan x="1040.75" dy="0">7.00 mm</tspan><tspan x="1040.75" dy="1em">cap</tspan></text>
<line x1="1066.25" y1="169" x2="1066.25" y2="191" stroke="black" stroke-width="1" />
<line x1="1066.25" y1="180" x2="1091.25" y2="180" stroke="black" stroke-width="1" />
<line x1="1091.25" y1="169" x2="1091.25" y2="191" stroke="black" stroke-width="1" />
<text x="1078.75" y="161" font-size="1.2em" transform="rotate(-90, 1078.75, 161)" font-weight="bold" text-anchor="start" dominant-baseline="central" fill="black"><tspan x="1078.75" dy="0">5.00 mm eraser</tspan></text>
<line x1="1339" y1="272.5" x2="1361" y2="272.5" stroke="black" stroke-width="1" />
<line x1="1350" y1="272.5" x2="1350" y2="327.5" stroke="black" stroke-width="1" />
<line x1="1339" y1="327.5" x2="1361" y2="327.5" stroke="black" stroke-width="1" />
<text x="1331" y="300" transform="rotate(-90, 1331, 300)" font-size="1.2em" font-weight="bold" text-anchor="middle" dominant-baseline="central" fill="black">11 mm</text>
<line x1="1339" y1="272.5" x2="1361" y2="272.5" stroke="black" stroke-width="1" />
<line x1="1350" y1="272.5" x2="1350" y2="327.5" stroke="black" stroke-width="1" />
<line x1="1339" y1="327.5" x2="1361" y2="327.5" stroke="black" stroke-width="1" />
<text x="1350" y="335.5" transform="rotate(-90, 1350, 335.5)" font-weight="bold" font-size="1.2em" text-anchor="end" dominant-baseline="middle" fill="black">body</text>
<line x1="408.75" y1="346.5" x2="408.75" y2="368.5" stroke="black" stroke-width="1" />
<line x1="408.75" y1="357.5" x2="1091.25" y2="357.5" stroke="black" stroke-width="1" />
<line x1="1091.25" y1="346.5" x2="1091.25" y2="368.5" stroke="black" stroke-width="1" />
<text x="750" y="357.5" font-weight="bold" font-size="1.2em" stroke="white" stroke-width="0.25" text-anchor="middle" dominant-baseline="middle" fill="black"><tspan x="750" dy="0">136.50 mm</tspan></text>
<line x1="408.75" y1="409" x2="408.75" y2="431" stroke="black" stroke-width="1" />
<line x1="408.75" y1="420" x2="446.25" y2="420" stroke="black" stroke-width="1" />
<line x1="446.25" y1="409" x2="446.25" y2="431" stroke="black" stroke-width="1" />
<text x="427.5" y="439" font-size="1.2em" transform="rotate(-90, 427.5, 439)"  text-anchor="end" dominant-baseline="middle" fill="black"><tspan x="427.5" dy="0">metal</tspan></text>
<line x1="446.25" y1="409" x2="446.25" y2="431" stroke="black" stroke-width="1" />
<line x1="446.25" y1="420" x2="471.25" y2="420" stroke="black" stroke-width="1" />
<line x1="471.25" y1="409" x2="471.25" y2="431" stroke="black" stroke-width="1" />
<text x="458.75" y="439" font-size="1.2em" transform="rotate(-90, 458.75, 439)"  text-anchor="end" dominant-baseline="middle" fill="black"><tspan x="458.75" dy="0">wood</tspan></text>
<line x1="471.25" y1="409" x2="471.25" y2="431" stroke="black" stroke-width="1" />
<line x1="471.25" y1="420" x2="961.25" y2="420" stroke="black" stroke-width="1" />
<line x1="961.25" y1="409" x2="961.25" y2="431" stroke="black" stroke-width="1" />
<text x="716.25" y="439" font-size="1.2em" transform="rotate(-90, 716.25, 439)"  text-anchor="end" dominant-baseline="middle" fill="black"><tspan x="716.25" dy="0">wood</tspan></text>
<line x1="961.25" y1="409" x2="961.25" y2="431" stroke="black" stroke-width="1" />
<line x1="961.25" y1="420" x2="1031.25" y2="420" stroke="black" stroke-width="1" />
<line x1="1031.25" y1="409" x2="1031.25" y2="431" stroke="black" stroke-width="1" />
<text x="996.25" y="439" font-size="1.2em" transform="rotate(-90, 996.25, 439)"  text-anchor="end" dominant-baseline="middle" fill="black"><tspan x="996.25" dy="0">metal</tspan></text>
<line x1="1031.25" y1="409" x2="1031.25" y2="431" stroke="black" stroke-width="1" />
<line x1="1031.25" y1="420" x2="1066.25" y2="420" stroke="black" stroke-width="1" />
<line x1="1066.25" y1="409" x2="1066.25" y2="431" stroke="black" stroke-width="1" />
<text x="1048.75" y="439" font-size="1.2em" transform="rotate(-90, 1048.75, 439)"  text-anchor="end" dominant-baseline="middle" fill="black"><tspan x="1048.75" dy="0">metal</tspan></text>
<line x1="1066.25" y1="409" x2="1066.25" y2="431" stroke="black" stroke-width="1" />
<line x1="1066.25" y1="420" x2="1091.25" y2="420" stroke="black" stroke-width="1" />
<line x1="1091.25" y1="409" x2="1091.25" y2="431" stroke="black" stroke-width="1" />
<text x="1078.75" y="439" font-size="1.2em" transform="rotate(-90, 1078.75, 439)"  text-anchor="end" dominant-baseline="middle" fill="black"><tspan x="1078.75" dy="0">rubber</tspan></text>


<!-- renderSideComponent: tip -->


<!-- renderPart: cylinder -->
<path d="M408.7 291.875 L421.3 291.875 L421.3 308.125 L408.7 308.125 Z" stroke-width="0" stroke="none" stroke-linejoin="round" fill="#E1C16E" fill-opacity="1"/>
<path d="M408.75 291.875 L421.25 291.875 M421.25 308.125 L408.75 308.125" stroke-width="0.5" stroke="black" stroke-linejoin="round" fill="#E1C16E" fill-opacity="1"/>
<!-- !left !both--><path d="M408.75 291.875 L408.75 308.125" stroke-width="0.5" stroke="black" stroke-linejoin="round" fill="#E1C16E" fill-opacity="1"/>
<!-- !right !both --><path d="M421.25 291.875 L421.25 308.125" stroke-width="0.5" stroke="black" stroke-linejoin="round" fill="#E1C16E" fill-opacity="1"/>


<!-- renderPart: cone -->
<path d="M421.2 291.875 L446.3 281.25 L446.3 318.75 L421.2 308.125 Z" stroke-width="0" stroke="none" stroke-linejoin="round" fill="#E1C16E" fill-opacity="1"/>
<path d="M421.25 291.875 L446.25 281.25 M446.25 318.75 L421.25 308.125" stroke-width="0.5" stroke="black" stroke-linejoin="round" fill="#E1C16E" fill-opacity="1"/>
<!-- !left !both--><path d="M421.25 291.875 L421.25 308.125" stroke-width="0.5" stroke="black" stroke-linejoin="round" fill="#E1C16E" fill-opacity="1"/>
<!-- !right !both --><path d="M446.25 281.25 L446.25 318.75" stroke-width="0.5" stroke="black" stroke-linejoin="round" fill="#E1C16E" fill-opacity="1"/>


<!-- renderSideComponent: head -->


<!-- renderPart: cone -->
<path d="M446.2 280 L471.3 272.5 L471.3 327.5 L446.2 320 Z" stroke-width="0" stroke="none" stroke-linejoin="round" fill="#c38066" fill-opacity="1"/>
<path d="M446.25 280 L471.25 272.5 M471.25 327.5 L446.25 320" stroke-width="0.5" stroke="black" stroke-linejoin="round" fill="#c38066" fill-opacity="1"/>
<!-- !left !both--><path d="M446.25 280 L446.25 320" stroke-width="0.5" stroke="black" stroke-linejoin="round" fill="#c38066" fill-opacity="1"/>


<!-- renderSideComponent: body -->


<!-- renderPart: hexagonal -->
<path d="M471.2 272.5 L961.3 272.5 L961.3 327.5 L471.2 327.5 Z" stroke-width="0" stroke="none" stroke-linejoin="round" fill="#67171a" fill-opacity="1"/>
<path d="M471.25 272.5 L961.25 272.5 M961.25 327.5 L471.25 327.5" stroke-width="0.5" stroke="black" stroke-linejoin="round" fill="#67171a" fill-opacity="1"/>
<!-- !left !both--><path d="M471.25 272.5 L471.25 327.5" stroke-width="0.5" stroke="black" stroke-linejoin="round" fill="#67171a" fill-opacity="1"/>
<!-- !right !both --><path d="M961.25 272.5 L961.25 327.5" stroke-width="0.5" stroke="black" stroke-linejoin="round" fill="#67171a" fill-opacity="1"/>
<line x1="483.75" y1="300" x2="973.75" y2="300" stroke-width="1.5" stroke="gray" fill="gray" stroke-opacity="1.0"/>
<line x1="483.75" y1="300" x2="973.75" y2="300" stroke-width="0.5" stroke="black" fill="none" stroke-opacity="0.5"/>


<!-- renderSideComponent: ferrule -->


<!-- renderPart: cylinder -->
<path d="M961.2 274.375 L1031.3 274.375 L1031.3 325.625 L961.2 325.625 Z" stroke-width="0" stroke="none" stroke-linejoin="round" fill="#E1C16E" fill-opacity="1"/>
<path d="M961.25 274.375 L1031.25 274.375 M1031.25 325.625 L961.25 325.625" stroke-width="0.5" stroke="black" stroke-linejoin="round" fill="#E1C16E" fill-opacity="1"/>
<!-- !left !both--><path d="M961.25 274.375 L961.25 325.625" stroke-width="0.5" stroke="black" stroke-linejoin="round" fill="#E1C16E" fill-opacity="1"/>
<!-- !right !both --><path d="M1031.25 274.375 L1031.25 325.625" stroke-width="0.5" stroke="black" stroke-linejoin="round" fill="#E1C16E" fill-opacity="1"/>
<line x1="969.3269230769231" y1="275.375" x2="969.3269230769231" y2="324.625" stroke-width="1" stroke="gray" />
<line x1="974.7115384615385" y1="275.375" x2="974.7115384615385" y2="324.625" stroke-width="1" stroke="gray" />
<line x1="980.0961538461538" y1="275.375" x2="980.0961538461538" y2="324.625" stroke-width="1" stroke="gray" />
<line x1="985.4807692307693" y1="275.375" x2="985.4807692307693" y2="324.625" stroke-width="1" stroke="gray" />
<line x1="990.8653846153846" y1="275.375" x2="990.8653846153846" y2="324.625" stroke-width="1" stroke="gray" />
<line x1="1001.6346153846154" y1="275.375" x2="1001.6346153846154" y2="324.625" stroke-width="1" stroke="gray" />
<line x1="1007.0192307692307" y1="275.375" x2="1007.0192307692307" y2="324.625" stroke-width="1" stroke="gray" />
<line x1="1012.4038461538462" y1="275.375" x2="1012.4038461538462" y2="324.625" stroke-width="1" stroke="gray" />
<line x1="1017.7884615384615" y1="275.375" x2="1017.7884615384615" y2="324.625" stroke-width="1" stroke="gray" />
<line x1="1023.1730769230769" y1="275.375" x2="1023.1730769230769" y2="324.625" stroke-width="1" stroke="gray" />
<circle r="4" cx="976.25" cy="287.1875" stroke="black" stroke-width="0.5" fill="dimgray" fill-opacity="1"/>


<!-- renderSideComponent: cap -->


<!-- renderPart: cylinder -->
<path d="M1031.2 276.25 L1056.3 276.25 L1056.3 323.75 L1031.2 323.75 Z" stroke-width="0" stroke="none" stroke-linejoin="round" fill="#E1C16E" fill-opacity="1"/>
<path d="M1031.25 276.25 L1056.25 276.25 M1056.25 323.75 L1031.25 323.75" stroke-width="0.5" stroke="black" stroke-linejoin="round" fill="#E1C16E" fill-opacity="1"/>
<!-- !left !both--><path d="M1031.25 276.25 L1031.25 323.75" stroke-width="0.5" stroke="black" stroke-linejoin="round" fill="#E1C16E" fill-opacity="1"/>
<!-- !right !both --><path d="M1056.25 276.25 L1056.25 323.75" stroke-width="0.5" stroke="black" stroke-linejoin="round" fill="#E1C16E" fill-opacity="1"/>


<!-- renderPart: cylinder -->
<path d="M1056.2 275 L1066.3 275 L1066.3 325 L1056.2 325 Z" stroke-width="0" stroke="none" stroke-linejoin="round" fill="#E1C16E" fill-opacity="1"/>
<path d="M1056.25 275 L1066.25 275 M1066.25 325 L1056.25 325" stroke-width="0.5" stroke="black" stroke-linejoin="round" fill="#E1C16E" fill-opacity="1"/>
<!-- !left !both--><path d="M1056.25 275 L1056.25 325" stroke-width="0.5" stroke="black" stroke-linejoin="round" fill="#E1C16E" fill-opacity="1"/>
<!-- !right !both --><path d="M1066.25 275 L1066.25 325" stroke-width="0.5" stroke="black" stroke-linejoin="round" fill="#E1C16E" fill-opacity="1"/>


<!-- renderSideComponent: eraser -->


<!-- renderPart: cylinder -->
<path d="M1066.2 276.875 L1091.3 276.875 L1091.3 323.125 L1066.2 323.125 Z" stroke-width="0" stroke="none" stroke-linejoin="round" fill="#db756d" fill-opacity="1"/>
<path d="M1066.25 276.875 L1091.25 276.875 M1091.25 323.125 L1066.25 323.125" stroke-width="0.5" stroke="black" stroke-linejoin="round" fill="#db756d" fill-opacity="1"/>
<!-- !left !both--><path d="M1066.25 276.875 L1066.25 323.125" stroke-width="0.5" stroke="black" stroke-linejoin="round" fill="#db756d" fill-opacity="1"/>
<!-- !right !both --><path d="M1091.25 276.875 L1091.25 323.125" stroke-width="0.5" stroke="black" stroke-linejoin="round" fill="#db756d" fill-opacity="1"/>

<!-- TAPER START: hexagonal -->
<path d="M 483.75 272.5 C 467.1875 279.375, 467.1875 293.125, 483.75 300" stroke-width="1.0" stroke="black" stroke-linecap="round" fill-opacity="1" fill="none" /><path d="M 483.75 327.5 C 467.1875 320.625, 467.1875 306.875, 483.75 300" stroke-width="1.0" stroke="black" stroke-linecap="round" fill-opacity="1" fill="none" />
<!-- FRONT COMPONENT: eraser -->
<circle r="23.125" cx="160" cy="300" fill="#db756d" fill-opacity="1" stroke="black" stroke-width="0.5"  />

<!-- FRONT COMPONENT: cap -->
<circle r="25" cx="160" cy="300" fill="#E1C16E" fill-opacity="1" stroke="black" stroke-width="0.5"  />
<circle r="23.75" cx="160" cy="300" fill="#E1C16E" fill-opacity="1" stroke="black" stroke-width="0.5"  />

<!-- FRONT COMPONENT: ferrule -->
<circle r="25.625" cx="160" cy="300" fill="#E1C16E" fill-opacity="1" stroke="black" stroke-width="0.5"  />

<!-- FRONT COMPONENT: body -->
<polygon points="144.12286759728528,272.5 175.87713240271472,272.5 191.75426480542941,300 175.87713240271472,327.5 144.12286759728528,327.5 128.24573519457059,300 " stroke="black" stroke-width="0.5" fill="#67171a" fill-opacity="1"/>

<!-- FRONT COMPONENT: head -->
<circle r="20" cx="160" cy="300" stroke="black" stroke-width="0.5" fill="#c38066" fill-opacity="1"/>
<circle r="27.5" cx="160" cy="300" stroke="black" stroke-width="0.5" fill="#c38066" fill-opacity="1"/>

<!-- FRONT COMPONENT: tip -->
<circle r="8.125" cx="160" cy="300" stroke="black" stroke-width="0.5" fill="#E1C16E" fill-opacity="1"/>
<circle r="18.75" cx="160" cy="300" stroke="black" stroke-width="0.5" fill="#E1C16E" fill-opacity="1"/>
<circle r="8.125" cx="160" cy="300" fill="#E1C16E" fill-opacity="1" stroke="black" stroke-width="0.5"  />
<circle r="5" cx="160" cy="300" fill="c" fill-opacity="1" stroke="dimgray" stroke-width="0.5"  />
<circle r="8.125" cx="1400" cy="300" fill="#E1C16E" fill-opacity="1" stroke="black" stroke-width="0.5"  />
<circle r="8.125" cx="1400" cy="300" stroke="black" stroke-width="0.5" fill="#E1C16E" fill-opacity="1"/>
<circle r="18.75" cx="1400" cy="300" stroke="black" stroke-width="0.5" fill="#E1C16E" fill-opacity="1"/>
<circle r="20" cx="1400" cy="300" stroke="black" stroke-width="0.5" fill="#c38066" fill-opacity="1"/>
<circle r="27.5" cx="1400" cy="300" stroke="black" stroke-width="0.5" fill="#c38066" fill-opacity="1"/>
<polygon points="1384.1228675972852,272.5 1415.8771324027148,272.5 1431.7542648054293,300 1415.8771324027148,327.5 1384.1228675972852,327.5 1368.2457351945707,300 " stroke="black" stroke-width="0.5" fill="#67171a" fill-opacity="1"/>
<circle r="25.625" cx="1400" cy="300" fill="#E1C16E" fill-opacity="1" stroke="black" stroke-width="0.5"  />
<circle r="23.75" cx="1400" cy="300" fill="#E1C16E" fill-opacity="1" stroke="black" stroke-width="0.5"  />
<circle r="25" cx="1400" cy="300" fill="#E1C16E" fill-opacity="1" stroke="black" stroke-width="0.5"  />
<circle r="23.125" cx="1400" cy="300" fill="#db756d" fill-opacity="1" stroke="black" stroke-width="0.5"  />
</g><text x="50%" y="580" font-size="1.1em" font-weight="bold" text-anchor="middle" dominant-baseline="middle">Copyright (c) // Synapticloop // The Mechanical Pencil Database (tmpdb) // Licensed under Creative Commons Attribution-NonCommercial-ShareAlike 4.0 International</text>
<text x="1490" y="590" font-size="0.5em" font-weight="bold" text-anchor="end" dominant-baseline="middle">SVGTechnicalRenderer</text>
</svg>