<svg xmlns="http://www.w3.org/2000/svg" width="1200" height="720">
 <pattern id="knurled-large" patternUnits="userSpaceOnUse" width="12" height="12">
<path stroke="dimgray" stroke-linecap="round" stroke-width="1" d="M 6,6 L 12,12"/>
<path stroke="dimgray" stroke-linecap="round" stroke-width="1" d="M 6,6 L 0,12"/>
<path stroke="gray" stroke-linecap="round" stroke-width="1" d="M 6,6 L 12,0" />
<path stroke="gray" stroke-linecap="round" stroke-width="1" d="M 6,6 L 0,0" />
</pattern><pattern id="knurled-small" patternUnits="userSpaceOnUse" width="4" height="4">
<path stroke="dimgray" stroke-linecap="round" stroke-width="1" d="M 2,2 L 4,4"/>
<path stroke="dimgray" stroke-linecap="round" stroke-width="1" d="M 2,2 L 0,4"/>
<path stroke="gray" stroke-linecap="round" stroke-width="1" d="M 2,2 L 4,0" />
<path stroke="gray" stroke-linecap="round" stroke-width="1" d="M 2,2 L 0,0" />
</pattern><pattern id="knurled" patternUnits="userSpaceOnUse" width="8" height="8">
<path stroke="dimgray" stroke-linecap="round" stroke-width="1" d="M 4,4 L 8,8"/>
<path stroke="dimgray" stroke-linecap="round" stroke-width="1" d="M 4,4 L 0,8"/>
<path stroke="gray" stroke-linecap="round" stroke-width="1" d="M 4,4 L 8,0" />
<path stroke="gray" stroke-linecap="round" stroke-width="1" d="M 4,4 L 0,0" />
</pattern><pattern id="lined" patternUnits="userSpaceOnUse" width="3" height="3">
<path stroke="dimgray" stroke-linecap="round" stroke-width="1" d="M 0,0 L 3,0"/>
</pattern><pattern id="ridged" patternUnits="userSpaceOnUse" width="3" height="3">
<path stroke="dimgray" stroke-linecap="round" stroke-width="1" d="M 0,0 L 0,3"/>
</pattern><rect x="0" y="0" width="1200" height="720" fill="white" stroke="black" stroke-width="4" />
<rect x="2" y="2" width="1196" height="716" fill="white" stroke="dimgray" stroke-width="1" />
<g transform="rotate(0 0 0)">
<text x="30" y="50" font-size="2.0em" font-weight="bold"> OHTO // Wooden Pencil (Model #: WN03-SP20)</text>


<!-- renderExplodedSideComponents -->


<!-- renderSideComponent: tip -->


<!-- renderPart: cylinder -->
<path d="M258.7 111.875 L271.3 111.875 L271.3 128.125 L258.7 128.125 Z" stroke-width="0" stroke="none" stroke-linejoin="round" fill="white" fill-opacity="1"/>
<path d="M258.75 111.875 L271.25 111.875 M271.25 128.125 L258.75 128.125" stroke-width="0.5" stroke="black" stroke-linejoin="round" fill="white" fill-opacity="1"/>
<!-- !right !both --><path d="M271.25 111.875 L271.25 128.125" stroke-width="0.5" stroke="black" stroke-linejoin="round" fill="white" fill-opacity="1"/>
<!-- !left !both --><path d="M258.75 111.875 L258.75 128.125" stroke-width="0.5" stroke="black" stroke-linejoin="round" fill="white" fill-opacity="1"/>


<!-- renderPart: cone -->
<path d="M271.2 111.875 L296.3 101.25 L296.3 138.75 L271.2 128.125 Z" stroke-width="0" stroke="none" stroke-linejoin="round" fill="white" fill-opacity="1"/>
<path d="M271.25 111.875 L296.25 101.25 M296.25 138.75 L271.25 128.125" stroke-width="0.5" stroke="black" stroke-linejoin="round" fill="white" fill-opacity="1"/>
<!-- !right !both --><path d="M296.25 101.25 L296.25 138.75" stroke-width="0.5" stroke="black" stroke-linejoin="round" fill="white" fill-opacity="1"/>
<!-- !left !both --><path d="M271.25 111.875 L271.25 128.125" stroke-width="0.5" stroke="black" stroke-linejoin="round" fill="white" fill-opacity="1"/>


<!-- renderPart: cylinder -->
<path d="M296.2 106.25 L347.55 106.25 L347.55 133.75 L296.2 133.75 Z" stroke-width="0" stroke="none" stroke-linejoin="round" fill="white" fill-opacity="1"/>
<path d="M296.25 106.25 L347.5 106.25 M347.5 133.75 L296.25 133.75" stroke-width="0.5" stroke="black" stroke-linejoin="round" fill="white" fill-opacity="1"/>
<!-- !right !both --><path d="M347.5 106.25 L347.5 133.75" stroke-width="0.5" stroke="black" stroke-linejoin="round" fill="white" fill-opacity="1"/>
<!-- !left !both --><path d="M296.25 106.25 L296.25 133.75" stroke-width="0.5" stroke="black" stroke-linejoin="round" fill="white" fill-opacity="1"/>


<!-- renderPart: cylinder -->
<path d="M347.45 106.25 L362.55 106.25 L362.55 133.75 L347.45 133.75 Z" stroke-width="0" stroke="none" stroke-linejoin="round" fill="white" fill-opacity="1"/>
<path d="M347.5 106.25 L362.5 106.25 M362.5 133.75 L347.5 133.75" stroke-width="0.5" stroke="black" stroke-linejoin="round" fill="white" fill-opacity="1"/>
<!-- !right !both --><path d="M362.5 106.25 L362.5 133.75" stroke-width="0.5" stroke="black" stroke-linejoin="round" fill="white" fill-opacity="1"/>
<!-- !left !both --><path d="M347.5 106.25 L347.5 133.75" stroke-width="0.5" stroke="black" stroke-linejoin="round" fill="white" fill-opacity="1"/>


<!-- renderPart: cylinder -->
<path d="M362.45 105.625 L366.3 105.625 L366.3 134.375 L362.45 134.375 Z" stroke-width="0" stroke="none" stroke-linejoin="round" fill="white" fill-opacity="1"/>
<path d="M362.5 105.625 L366.25 105.625 M366.25 134.375 L362.5 134.375" stroke-width="0.5" stroke="black" stroke-linejoin="round" fill="white" fill-opacity="1"/>
<!-- !right !both --><path d="M366.25 105.625 L366.25 134.375" stroke-width="0.5" stroke="black" stroke-linejoin="round" fill="white" fill-opacity="1"/>
<!-- !left !both --><path d="M362.5 105.625 L362.5 134.375" stroke-width="0.5" stroke="black" stroke-linejoin="round" fill="white" fill-opacity="1"/>


<!-- renderPart: cylinder -->
<path d="M366.2 106.25 L373.8 106.25 L373.8 133.75 L366.2 133.75 Z" stroke-width="0" stroke="none" stroke-linejoin="round" fill="white" fill-opacity="1"/>
<path d="M366.25 106.25 L373.75 106.25 M373.75 133.75 L366.25 133.75" stroke-width="0.5" stroke="black" stroke-linejoin="round" fill="white" fill-opacity="1"/>
<!-- !right !both --><path d="M373.75 106.25 L373.75 133.75" stroke-width="0.5" stroke="black" stroke-linejoin="round" fill="white" fill-opacity="1"/>
<!-- !left !both --><path d="M366.25 106.25 L366.25 133.75" stroke-width="0.5" stroke="black" stroke-linejoin="round" fill="white" fill-opacity="1"/>


<!-- renderPart: cylinder -->
<path d="M373.7 105.625 L377.55 105.625 L377.55 134.375 L373.7 134.375 Z" stroke-width="0" stroke="none" stroke-linejoin="round" fill="white" fill-opacity="1"/>
<path d="M373.75 105.625 L377.5 105.625 M377.5 134.375 L373.75 134.375" stroke-width="0.5" stroke="black" stroke-linejoin="round" fill="white" fill-opacity="1"/>
<!-- !right !both --><path d="M377.5 105.625 L377.5 134.375" stroke-width="0.5" stroke="black" stroke-linejoin="round" fill="white" fill-opacity="1"/>
<!-- !left !both --><path d="M373.75 105.625 L373.75 134.375" stroke-width="0.5" stroke="black" stroke-linejoin="round" fill="white" fill-opacity="1"/>


<!-- renderPart: cylinder -->
<path d="M377.45 106.25 L385.05 106.25 L385.05 133.75 L377.45 133.75 Z" stroke-width="0" stroke="none" stroke-linejoin="round" fill="white" fill-opacity="1"/>
<path d="M377.5 106.25 L385 106.25 M385 133.75 L377.5 133.75" stroke-width="0.5" stroke="black" stroke-linejoin="round" fill="white" fill-opacity="1"/>
<!-- !right !both --><path d="M385 106.25 L385 133.75" stroke-width="0.5" stroke="black" stroke-linejoin="round" fill="white" fill-opacity="1"/>
<!-- !left !both --><path d="M377.5 106.25 L377.5 133.75" stroke-width="0.5" stroke="black" stroke-linejoin="round" fill="white" fill-opacity="1"/>


<!-- renderPart: cylinder -->
<path d="M384.95 105.625 L388.8 105.625 L388.8 134.375 L384.95 134.375 Z" stroke-width="0" stroke="none" stroke-linejoin="round" fill="white" fill-opacity="1"/>
<path d="M385 105.625 L388.75 105.625 M388.75 134.375 L385 134.375" stroke-width="0.5" stroke="black" stroke-linejoin="round" fill="white" fill-opacity="1"/>
<!-- !right !both --><path d="M388.75 105.625 L388.75 134.375" stroke-width="0.5" stroke="black" stroke-linejoin="round" fill="white" fill-opacity="1"/>
<!-- !left !both --><path d="M385 105.625 L385 134.375" stroke-width="0.5" stroke="black" stroke-linejoin="round" fill="white" fill-opacity="1"/>


<!-- renderPart: cylinder -->
<path d="M388.7 106.25 L417.55 106.25 L417.55 133.75 L388.7 133.75 Z" stroke-width="0" stroke="none" stroke-linejoin="round" fill="white" fill-opacity="1"/>
<path d="M388.75 106.25 L417.5 106.25 M417.5 133.75 L388.75 133.75" stroke-width="0.5" stroke="black" stroke-linejoin="round" fill="white" fill-opacity="1"/>
<!-- !right !both --><path d="M417.5 106.25 L417.5 133.75" stroke-width="0.5" stroke="black" stroke-linejoin="round" fill="white" fill-opacity="1"/>
<!-- !left !both --><path d="M388.75 106.25 L388.75 133.75" stroke-width="0.5" stroke="black" stroke-linejoin="round" fill="white" fill-opacity="1"/>


<!-- renderPart: cylinder -->
<path d="M417.45 109.375 L865.05 109.375 L865.05 130.625 L417.45 130.625 Z" stroke-width="0" stroke="none" stroke-linejoin="round" fill="white" fill-opacity="1"/>
<path d="M417.5 109.375 L865 109.375 M865 130.625 L417.5 130.625" stroke-width="0.5" stroke="black" stroke-linejoin="round" fill="white" fill-opacity="1"/>
<!-- !right !both --><path d="M865 109.375 L865 130.625" stroke-width="0.5" stroke="black" stroke-linejoin="round" fill="white" fill-opacity="1"/>
<!-- !left !both --><path d="M417.5 109.375 L417.5 130.625" stroke-width="0.5" stroke="black" stroke-linejoin="round" fill="white" fill-opacity="1"/>


<!-- renderSideComponent: head -->


<!-- renderPart: cone -->
<path d="M296.2 220 L321.3 212.5 L321.3 267.5 L296.2 260 Z" stroke-width="0" stroke="none" stroke-linejoin="round" fill="white" fill-opacity="1"/>
<path d="M296.25 220 L321.25 212.5 M321.25 267.5 L296.25 260" stroke-width="0.5" stroke="black" stroke-linejoin="round" fill="white" fill-opacity="1"/>
<!-- !left !both --><path d="M296.25 220 L296.25 260" stroke-width="0.5" stroke="black" stroke-linejoin="round" fill="white" fill-opacity="1"/>


<!-- renderSideComponent: body -->


<!-- renderPart: hexagonal -->
<path d="M321.2 212.5 L811.3 212.5 L811.3 267.5 L321.2 267.5 Z" stroke-width="0" stroke="none" stroke-linejoin="round" fill="white" fill-opacity="1"/>
<path d="M321.25 212.5 L811.25 212.5 M811.25 267.5 L321.25 267.5" stroke-width="0.5" stroke="black" stroke-linejoin="round" fill="white" fill-opacity="1"/>
<!-- !right !both --><path d="M811.25 212.5 L811.25 267.5" stroke-width="0.5" stroke="black" stroke-linejoin="round" fill="white" fill-opacity="1"/>
<!-- !left !both --><path d="M321.25 212.5 L321.25 267.5" stroke-width="0.5" stroke="black" stroke-linejoin="round" fill="white" fill-opacity="1"/>
<line x1="333.75" y1="240" x2="823.75" y2="240" stroke-width="1.5" stroke="gray" fill="gray" stroke-opacity="1.0"/>
<line x1="333.75" y1="240" x2="823.75" y2="240" stroke-width="0.5" stroke="black" fill="none" stroke-opacity="0.5"/>

<!-- TAPER START: hexagonal -->
<path d="M 321.15 212.75 L 333.75 212.75 C 317.1875 219.375, 317.1875 233.125, 333.75 240 C 317.1875 246.875, 317.1875 260.625, 333.75 267.25 L 321.15 267.25 Z" stroke-width="0" stroke="0" stroke-linecap="round" fill-opacity="1" fill="white" /><path d="M 333.75 213 C 317.1875 219.375, 317.1875 233.125, 333.75 240 C 317.1875 246.875, 317.1875 260.625, 333.75 266.95" stroke-width="1.5" stroke="gray" stroke-linecap="round" fill-opacity="0" fill="none" /><path d="M 333.75 213 C 317.1875 219.375, 317.1875 233.125, 333.75 240 C 317.1875 246.875, 317.1875 260.625, 333.75 267" stroke-width="0.5" stroke="black" stroke-opacity="0.5" stroke-linecap="round" fill-opacity="0" fill="none" />

<!-- renderPart: cylinder -->
<path d="M811.2 216.875 L853.8 216.875 L853.8 263.125 L811.2 263.125 Z" stroke-width="0" stroke="none" stroke-linejoin="round" fill="white" fill-opacity="1"/>
<path d="M811.25 216.875 L853.75 216.875 M853.75 263.125 L811.25 263.125" stroke-width="0.5" stroke="black" stroke-linejoin="round" fill="white" fill-opacity="1"/>
<!-- !right !both --><path d="M853.75 216.875 L853.75 263.125" stroke-width="0.5" stroke="black" stroke-linejoin="round" fill="white" fill-opacity="1"/>
<!-- !left !both --><path d="M811.25 216.875 L811.25 263.125" stroke-width="0.5" stroke="black" stroke-linejoin="round" fill="white" fill-opacity="1"/>


<!-- renderSideComponent: ferrule -->


<!-- renderPart: cylinder -->
<path d="M811.2 334.375 L881.3 334.375 L881.3 385.625 L811.2 385.625 Z" stroke-width="0" stroke="none" stroke-linejoin="round" fill="white" fill-opacity="1"/>
<path d="M811.25 334.375 L881.25 334.375 M881.25 385.625 L811.25 385.625" stroke-width="0.5" stroke="black" stroke-linejoin="round" fill="white" fill-opacity="1"/>
<!-- !right !both --><path d="M881.25 334.375 L881.25 385.625" stroke-width="0.5" stroke="black" stroke-linejoin="round" fill="white" fill-opacity="1"/>
<!-- !left !both --><path d="M811.25 334.375 L811.25 385.625" stroke-width="0.5" stroke="black" stroke-linejoin="round" fill="white" fill-opacity="1"/>
<line x1="819.3269230769231" y1="335.375" x2="819.3269230769231" y2="384.625" stroke-width="1" stroke="gray" />
<line x1="824.7115384615385" y1="335.375" x2="824.7115384615385" y2="384.625" stroke-width="1" stroke="gray" />
<line x1="830.0961538461538" y1="335.375" x2="830.0961538461538" y2="384.625" stroke-width="1" stroke="gray" />
<line x1="835.4807692307693" y1="335.375" x2="835.4807692307693" y2="384.625" stroke-width="1" stroke="gray" />
<line x1="840.8653846153846" y1="335.375" x2="840.8653846153846" y2="384.625" stroke-width="1" stroke="gray" />
<line x1="851.6346153846154" y1="335.375" x2="851.6346153846154" y2="384.625" stroke-width="1" stroke="gray" />
<line x1="857.0192307692307" y1="335.375" x2="857.0192307692307" y2="384.625" stroke-width="1" stroke="gray" />
<line x1="862.4038461538462" y1="335.375" x2="862.4038461538462" y2="384.625" stroke-width="1" stroke="gray" />
<line x1="867.7884615384615" y1="335.375" x2="867.7884615384615" y2="384.625" stroke-width="1" stroke="gray" />
<line x1="873.1730769230769" y1="335.375" x2="873.1730769230769" y2="384.625" stroke-width="1" stroke="gray" />
<circle r="4" cx="826.25" cy="347.1875" stroke="black" stroke-width="0.5" fill="dimgray" fill-opacity="1"/>


<!-- renderPart: cylinder -->
<path d="M836.2 473.125 L850.05 473.125 L850.05 486.875 L836.2 486.875 Z" stroke-width="0" stroke="none" stroke-linejoin="round" fill="white" fill-opacity="1"/>
<path d="M836.25 473.125 L850 473.125 M850 486.875 L836.25 486.875" stroke-width="0.5" stroke="black" stroke-linejoin="round" fill="white" fill-opacity="1"/>
<!-- !right !both --><path d="M850 473.125 L850 486.875" stroke-width="0.5" stroke="black" stroke-linejoin="round" fill="white" fill-opacity="1"/>
<!-- !left !both --><path d="M836.25 473.125 L836.25 486.875" stroke-width="0.5" stroke="black" stroke-linejoin="round" fill="white" fill-opacity="1"/>


<!-- renderPart: cylinder -->
<path d="M849.95 472.5 L852.55 472.5 L852.55 487.5 L849.95 487.5 Z" stroke-width="0" stroke="none" stroke-linejoin="round" fill="white" fill-opacity="1"/>
<path d="M850 472.5 L852.5 472.5 M852.5 487.5 L850 487.5" stroke-width="0.5" stroke="black" stroke-linejoin="round" fill="white" fill-opacity="1"/>
<!-- !right !both --><path d="M852.5 472.5 L852.5 487.5" stroke-width="0.5" stroke="black" stroke-linejoin="round" fill="white" fill-opacity="1"/>
<!-- !left !both --><path d="M850 472.5 L850 487.5" stroke-width="0.5" stroke="black" stroke-linejoin="round" fill="white" fill-opacity="1"/>


<!-- renderPart: cylinder -->
<path d="M852.45 473.125 L867.55 473.125 L867.55 486.875 L852.45 486.875 Z" stroke-width="0" stroke="none" stroke-linejoin="round" fill="white" fill-opacity="1"/>
<path d="M852.5 473.125 L867.5 473.125 M867.5 486.875 L852.5 486.875" stroke-width="0.5" stroke="black" stroke-linejoin="round" fill="white" fill-opacity="1"/>
<!-- !right !both --><path d="M867.5 473.125 L867.5 486.875" stroke-width="0.5" stroke="black" stroke-linejoin="round" fill="white" fill-opacity="1"/>
<!-- !left !both --><path d="M852.5 473.125 L852.5 486.875" stroke-width="0.5" stroke="black" stroke-linejoin="round" fill="white" fill-opacity="1"/>


<!-- renderPart: cylinder -->
<path d="M867.45 456.25 L881.3 456.25 L881.3 503.75 L867.45 503.75 Z" stroke-width="0" stroke="none" stroke-linejoin="round" fill="white" fill-opacity="1"/>
<path d="M867.5 456.25 L881.25 456.25 M881.25 503.75 L867.5 503.75" stroke-width="0.5" stroke="black" stroke-linejoin="round" fill="white" fill-opacity="1"/>
<!-- !right !both --><path d="M881.25 456.25 L881.25 503.75" stroke-width="0.5" stroke="black" stroke-linejoin="round" fill="white" fill-opacity="1"/>
<!-- !left !both --><path d="M867.5 456.25 L867.5 503.75" stroke-width="0.5" stroke="black" stroke-linejoin="round" fill="white" fill-opacity="1"/>


<!-- renderSideComponent: cap -->


<!-- renderPart: cylinder -->
<path d="M881.2 456.25 L906.3 456.25 L906.3 503.75 L881.2 503.75 Z" stroke-width="0" stroke="none" stroke-linejoin="round" fill="white" fill-opacity="1"/>
<path d="M881.25 456.25 L906.25 456.25 M906.25 503.75 L881.25 503.75" stroke-width="0.5" stroke="black" stroke-linejoin="round" fill="white" fill-opacity="1"/>
<!-- !right !both --><path d="M906.25 456.25 L906.25 503.75" stroke-width="0.5" stroke="black" stroke-linejoin="round" fill="white" fill-opacity="1"/>
<!-- !left !both --><path d="M881.25 456.25 L881.25 503.75" stroke-width="0.5" stroke="black" stroke-linejoin="round" fill="white" fill-opacity="1"/>


<!-- renderPart: cylinder -->
<path d="M906.2 455 L916.3 455 L916.3 505 L906.2 505 Z" stroke-width="0" stroke="none" stroke-linejoin="round" fill="white" fill-opacity="1"/>
<path d="M906.25 455 L916.25 455 M916.25 505 L906.25 505" stroke-width="0.5" stroke="black" stroke-linejoin="round" fill="white" fill-opacity="1"/>
<!-- !right !both --><path d="M916.25 455 L916.25 505" stroke-width="0.5" stroke="black" stroke-linejoin="round" fill="white" fill-opacity="1"/>
<!-- !left !both --><path d="M906.25 455 L906.25 505" stroke-width="0.5" stroke="black" stroke-linejoin="round" fill="white" fill-opacity="1"/>


<!-- renderPart: cylinder -->
<path d="M886.2 576.875 L916.3 576.875 L916.3 623.125 L886.2 623.125 Z" stroke-width="0" stroke="none" stroke-linejoin="round" fill="white" fill-opacity="1"/>
<path d="M886.25 576.875 L916.25 576.875 M916.25 623.125 L886.25 623.125" stroke-width="0.5" stroke="black" stroke-linejoin="round" fill="white" fill-opacity="1"/>
<!-- !right !both --><path d="M916.25 576.875 L916.25 623.125" stroke-width="0.5" stroke="black" stroke-linejoin="round" fill="white" fill-opacity="1"/>
<!-- !left !both --><path d="M886.25 576.875 L886.25 623.125" stroke-width="0.5" stroke="black" stroke-linejoin="round" fill="white" fill-opacity="1"/>


<!-- renderSideComponent: eraser -->


<!-- renderPart: cylinder -->
<path d="M916.2 576.875 L941.3 576.875 L941.3 623.125 L916.2 623.125 Z" stroke-width="0" stroke="none" stroke-linejoin="round" fill="white" fill-opacity="1"/>
<path d="M916.25 576.875 L941.25 576.875 M941.25 623.125 L916.25 623.125" stroke-width="0.5" stroke="black" stroke-linejoin="round" fill="white" fill-opacity="1"/>
<!-- !right !both --><path d="M941.25 576.875 L941.25 623.125" stroke-width="0.5" stroke="black" stroke-linejoin="round" fill="white" fill-opacity="1"/>
<!-- !left !both --><path d="M916.25 576.875 L916.25 623.125" stroke-width="0.5" stroke="black" stroke-linejoin="round" fill="white" fill-opacity="1"/>


<!-- DASHED JOIN -->
<path d="M 296.25 120 L 905 120 L 905 180 L 256.25 180 L 256.25 240 L 296.25 240 " fill="none" stroke="white" stroke-width="1" stroke-linecap="round"  />
<path d="M 296.25 120 L 905 120 L 905 180 L 256.25 180 L 256.25 240 L 296.25 240 " fill="none" stroke="black" stroke-width="1" stroke-dasharray="8,4" stroke-linecap="round"  />


<!-- ARROW START -->
<line x1="301.25" y1="120" x2="308.25" y2="120" stroke-linecap="round" stroke="#ffffff" stroke-width="2.0" />
<line x1="301.25" y1="120" x2="315.25" y2="112" stroke-linecap="round" stroke="#ffffff" stroke-width="2.0" />
<line x1="315.25" y1="112" x2="308.25" y2="120" stroke-linecap="round" stroke="#ffffff" stroke-width="2.0" />
<line x1="301.25" y1="120" x2="315.25" y2="128" stroke-linecap="round" stroke="#ffffff" stroke-width="2.0" />
<line x1="315.25" y1="128" x2="308.25" y2="120" stroke-linecap="round" stroke="#ffffff" stroke-width="2.0" />
<line x1="301.25" y1="120" x2="315.25" y2="112" stroke-linecap="round" stroke="#0f0f0f" stroke-width="1.0" />
<line x1="315.25" y1="112" x2="308.25" y2="120" stroke-linecap="round" stroke="#0f0f0f" stroke-width="1.0" />
<line x1="301.25" y1="120" x2="315.25" y2="128" stroke-linecap="round" stroke="#0f0f0f" stroke-width="1.0" />
<line x1="315.25" y1="128" x2="308.25" y2="120" stroke-linecap="round" stroke="#0f0f0f" stroke-width="1.0" />


<!-- ARROW START -->
<line x1="276.25" y1="240" x2="283.25" y2="240" stroke-linecap="round" stroke="#ffffff" stroke-width="2.0" />
<line x1="276.25" y1="240" x2="290.25" y2="232" stroke-linecap="round" stroke="#ffffff" stroke-width="2.0" />
<line x1="290.25" y1="232" x2="283.25" y2="240" stroke-linecap="round" stroke="#ffffff" stroke-width="2.0" />
<line x1="276.25" y1="240" x2="290.25" y2="248" stroke-linecap="round" stroke="#ffffff" stroke-width="2.0" />
<line x1="290.25" y1="248" x2="283.25" y2="240" stroke-linecap="round" stroke="#ffffff" stroke-width="2.0" />
<line x1="276.25" y1="240" x2="290.25" y2="232" stroke-linecap="round" stroke="#0f0f0f" stroke-width="1.0" />
<line x1="290.25" y1="232" x2="283.25" y2="240" stroke-linecap="round" stroke="#0f0f0f" stroke-width="1.0" />
<line x1="276.25" y1="240" x2="290.25" y2="248" stroke-linecap="round" stroke="#0f0f0f" stroke-width="1.0" />
<line x1="290.25" y1="248" x2="283.25" y2="240" stroke-linecap="round" stroke="#0f0f0f" stroke-width="1.0" />


<!-- DASHED JOIN -->
<path d="M 811.25 240 L 893.75 240 L 893.75 300 L 771.25 300 L 771.25 360 L 811.25 360 " fill="none" stroke="white" stroke-width="1" stroke-linecap="round"  />
<path d="M 811.25 240 L 893.75 240 L 893.75 300 L 771.25 300 L 771.25 360 L 811.25 360 " fill="none" stroke="black" stroke-width="1" stroke-dasharray="8,4" stroke-linecap="round"  />


<!-- ARROW START -->
<line x1="816.25" y1="240" x2="823.25" y2="240" stroke-linecap="round" stroke="#ffffff" stroke-width="2.0" />
<line x1="816.25" y1="240" x2="830.25" y2="232" stroke-linecap="round" stroke="#ffffff" stroke-width="2.0" />
<line x1="830.25" y1="232" x2="823.25" y2="240" stroke-linecap="round" stroke="#ffffff" stroke-width="2.0" />
<line x1="816.25" y1="240" x2="830.25" y2="248" stroke-linecap="round" stroke="#ffffff" stroke-width="2.0" />
<line x1="830.25" y1="248" x2="823.25" y2="240" stroke-linecap="round" stroke="#ffffff" stroke-width="2.0" />
<line x1="816.25" y1="240" x2="830.25" y2="232" stroke-linecap="round" stroke="#0f0f0f" stroke-width="1.0" />
<line x1="830.25" y1="232" x2="823.25" y2="240" stroke-linecap="round" stroke="#0f0f0f" stroke-width="1.0" />
<line x1="816.25" y1="240" x2="830.25" y2="248" stroke-linecap="round" stroke="#0f0f0f" stroke-width="1.0" />
<line x1="830.25" y1="248" x2="823.25" y2="240" stroke-linecap="round" stroke="#0f0f0f" stroke-width="1.0" />


<!-- ARROW START -->
<line x1="791.25" y1="360" x2="798.25" y2="360" stroke-linecap="round" stroke="#ffffff" stroke-width="2.0" />
<line x1="791.25" y1="360" x2="805.25" y2="352" stroke-linecap="round" stroke="#ffffff" stroke-width="2.0" />
<line x1="805.25" y1="352" x2="798.25" y2="360" stroke-linecap="round" stroke="#ffffff" stroke-width="2.0" />
<line x1="791.25" y1="360" x2="805.25" y2="368" stroke-linecap="round" stroke="#ffffff" stroke-width="2.0" />
<line x1="805.25" y1="368" x2="798.25" y2="360" stroke-linecap="round" stroke="#ffffff" stroke-width="2.0" />
<line x1="791.25" y1="360" x2="805.25" y2="352" stroke-linecap="round" stroke="#0f0f0f" stroke-width="1.0" />
<line x1="805.25" y1="352" x2="798.25" y2="360" stroke-linecap="round" stroke="#0f0f0f" stroke-width="1.0" />
<line x1="791.25" y1="360" x2="805.25" y2="368" stroke-linecap="round" stroke="#0f0f0f" stroke-width="1.0" />
<line x1="805.25" y1="368" x2="798.25" y2="360" stroke-linecap="round" stroke="#0f0f0f" stroke-width="1.0" />


<!-- DASHED JOIN -->
<path d="M 881.25 360 L 921.25 360 L 921.25 420 L 796.25 420 L 796.25 480 L 881.25 480 " fill="none" stroke="white" stroke-width="1" stroke-linecap="round"  />
<path d="M 881.25 360 L 921.25 360 L 921.25 420 L 796.25 420 L 796.25 480 L 881.25 480 " fill="none" stroke="black" stroke-width="1" stroke-dasharray="8,4" stroke-linecap="round"  />


<!-- ARROW START -->
<line x1="886.25" y1="360" x2="893.25" y2="360" stroke-linecap="round" stroke="#ffffff" stroke-width="2.0" />
<line x1="886.25" y1="360" x2="900.25" y2="352" stroke-linecap="round" stroke="#ffffff" stroke-width="2.0" />
<line x1="900.25" y1="352" x2="893.25" y2="360" stroke-linecap="round" stroke="#ffffff" stroke-width="2.0" />
<line x1="886.25" y1="360" x2="900.25" y2="368" stroke-linecap="round" stroke="#ffffff" stroke-width="2.0" />
<line x1="900.25" y1="368" x2="893.25" y2="360" stroke-linecap="round" stroke="#ffffff" stroke-width="2.0" />
<line x1="886.25" y1="360" x2="900.25" y2="352" stroke-linecap="round" stroke="#0f0f0f" stroke-width="1.0" />
<line x1="900.25" y1="352" x2="893.25" y2="360" stroke-linecap="round" stroke="#0f0f0f" stroke-width="1.0" />
<line x1="886.25" y1="360" x2="900.25" y2="368" stroke-linecap="round" stroke="#0f0f0f" stroke-width="1.0" />
<line x1="900.25" y1="368" x2="893.25" y2="360" stroke-linecap="round" stroke="#0f0f0f" stroke-width="1.0" />


<!-- ARROW START -->
<line x1="816.25" y1="480" x2="823.25" y2="480" stroke-linecap="round" stroke="#ffffff" stroke-width="2.0" />
<line x1="816.25" y1="480" x2="830.25" y2="472" stroke-linecap="round" stroke="#ffffff" stroke-width="2.0" />
<line x1="830.25" y1="472" x2="823.25" y2="480" stroke-linecap="round" stroke="#ffffff" stroke-width="2.0" />
<line x1="816.25" y1="480" x2="830.25" y2="488" stroke-linecap="round" stroke="#ffffff" stroke-width="2.0" />
<line x1="830.25" y1="488" x2="823.25" y2="480" stroke-linecap="round" stroke="#ffffff" stroke-width="2.0" />
<line x1="816.25" y1="480" x2="830.25" y2="472" stroke-linecap="round" stroke="#0f0f0f" stroke-width="1.0" />
<line x1="830.25" y1="472" x2="823.25" y2="480" stroke-linecap="round" stroke="#0f0f0f" stroke-width="1.0" />
<line x1="816.25" y1="480" x2="830.25" y2="488" stroke-linecap="round" stroke="#0f0f0f" stroke-width="1.0" />
<line x1="830.25" y1="488" x2="823.25" y2="480" stroke-linecap="round" stroke="#0f0f0f" stroke-width="1.0" />
<line x1="881.25" y1="440" x2="881.25" y2="520" stroke="white" stroke-linecap="round"  stroke-width="1" />
<line x1="881.25" y1="440" x2="881.25" y2="520" stroke="dimgray" stroke-linecap="round" stroke-dasharray="3,3" stroke-width="1" />


<!-- DASHED JOIN -->
<path d="M 916.25 480 L 956.25 480 L 956.25 540 L 846.25 540 L 846.25 600 L 916.25 600 " fill="none" stroke="white" stroke-width="1" stroke-linecap="round"  />
<path d="M 916.25 480 L 956.25 480 L 956.25 540 L 846.25 540 L 846.25 600 L 916.25 600 " fill="none" stroke="black" stroke-width="1" stroke-dasharray="8,4" stroke-linecap="round"  />


<!-- ARROW START -->
<line x1="921.25" y1="480" x2="928.25" y2="480" stroke-linecap="round" stroke="#ffffff" stroke-width="2.0" />
<line x1="921.25" y1="480" x2="935.25" y2="472" stroke-linecap="round" stroke="#ffffff" stroke-width="2.0" />
<line x1="935.25" y1="472" x2="928.25" y2="480" stroke-linecap="round" stroke="#ffffff" stroke-width="2.0" />
<line x1="921.25" y1="480" x2="935.25" y2="488" stroke-linecap="round" stroke="#ffffff" stroke-width="2.0" />
<line x1="935.25" y1="488" x2="928.25" y2="480" stroke-linecap="round" stroke="#ffffff" stroke-width="2.0" />
<line x1="921.25" y1="480" x2="935.25" y2="472" stroke-linecap="round" stroke="#0f0f0f" stroke-width="1.0" />
<line x1="935.25" y1="472" x2="928.25" y2="480" stroke-linecap="round" stroke="#0f0f0f" stroke-width="1.0" />
<line x1="921.25" y1="480" x2="935.25" y2="488" stroke-linecap="round" stroke="#0f0f0f" stroke-width="1.0" />
<line x1="935.25" y1="488" x2="928.25" y2="480" stroke-linecap="round" stroke="#0f0f0f" stroke-width="1.0" />


<!-- ARROW START -->
<line x1="866.25" y1="600" x2="873.25" y2="600" stroke-linecap="round" stroke="#ffffff" stroke-width="2.0" />
<line x1="866.25" y1="600" x2="880.25" y2="592" stroke-linecap="round" stroke="#ffffff" stroke-width="2.0" />
<line x1="880.25" y1="592" x2="873.25" y2="600" stroke-linecap="round" stroke="#ffffff" stroke-width="2.0" />
<line x1="866.25" y1="600" x2="880.25" y2="608" stroke-linecap="round" stroke="#ffffff" stroke-width="2.0" />
<line x1="880.25" y1="608" x2="873.25" y2="600" stroke-linecap="round" stroke="#ffffff" stroke-width="2.0" />
<line x1="866.25" y1="600" x2="880.25" y2="592" stroke-linecap="round" stroke="#0f0f0f" stroke-width="1.0" />
<line x1="880.25" y1="592" x2="873.25" y2="600" stroke-linecap="round" stroke="#0f0f0f" stroke-width="1.0" />
<line x1="866.25" y1="600" x2="880.25" y2="608" stroke-linecap="round" stroke="#0f0f0f" stroke-width="1.0" />
<line x1="880.25" y1="608" x2="873.25" y2="600" stroke-linecap="round" stroke="#0f0f0f" stroke-width="1.0" />
<line x1="916.25" y1="560" x2="916.25" y2="640" stroke="white" stroke-linecap="round"  stroke-width="1" />
<line x1="916.25" y1="560" x2="916.25" y2="640" stroke="dimgray" stroke-linecap="round" stroke-dasharray="3,3" stroke-width="1" />
</g><text x="50%" y="680" font-size="1.1em" font-weight="bold" text-anchor="middle" dominant-baseline="middle">Copyright (c) // Synapticloop // The Mechanical Pencil Database (tmpdb)</text>
<text x="50%" y="700" font-size="1.1em" font-weight="bold" text-anchor="middle" dominant-baseline="middle">Licensed under Creative Commons Attribution-NonCommercial-ShareAlike 4.0 International</text>
<text x="1190" y="710" font-size="0.5em" font-weight="bold" text-anchor="end" dominant-baseline="middle">SVGTechnicalExplodedRenderer</text>
</svg>