<svg xmlns="http://www.w3.org/2000/svg" width="1200" height="569">
 <pattern id="knurled-large" patternUnits="userSpaceOnUse" width="12" height="12">
<path stroke="dimgray" stroke-linecap="round" stroke-width="1" d="M 6,6 L 12,12"/>
<path stroke="dimgray" stroke-linecap="round" stroke-width="1" d="M 6,6 L 0,12"/>
<path stroke="gray" stroke-linecap="round" stroke-width="1" d="M 6,6 L 12,0" />
<path stroke="gray" stroke-linecap="round" stroke-width="1" d="M 6,6 L 0,0" />
</pattern><pattern id="knurled-small" patternUnits="userSpaceOnUse" width="4" height="4">
<path stroke="dimgray" stroke-linecap="round" stroke-width="1" d="M 2,2 L 4,4"/>
<path stroke="dimgray" stroke-linecap="round" stroke-width="1" d="M 2,2 L 0,4"/>
<path stroke="gray" stroke-linecap="round" stroke-width="1" d="M 2,2 L 4,0" />
<path stroke="gray" stroke-linecap="round" stroke-width="1" d="M 2,2 L 0,0" />
</pattern><pattern id="knurled" patternUnits="userSpaceOnUse" width="8" height="8">
<path stroke="dimgray" stroke-linecap="round" stroke-width="1" d="M 4,4 L 8,8"/>
<path stroke="dimgray" stroke-linecap="round" stroke-width="1" d="M 4,4 L 0,8"/>
<path stroke="gray" stroke-linecap="round" stroke-width="1" d="M 4,4 L 8,0" />
<path stroke="gray" stroke-linecap="round" stroke-width="1" d="M 4,4 L 0,0" />
</pattern><pattern id="lined" patternUnits="userSpaceOnUse" width="3" height="3">
<path stroke="dimgray" stroke-linecap="round" stroke-width="1" d="M 0,0 L 3,0"/>
</pattern><pattern id="ridged" patternUnits="userSpaceOnUse" width="3" height="3">
<path stroke="dimgray" stroke-linecap="round" stroke-width="1" d="M 0,0 L 0,3"/>
</pattern><pattern id="spring" patternUnits="userSpaceOnUse" width="8" height="100">
<path stroke="dimgray" stroke-linecap="round" stroke-width="2" d="M 1,1 L 9,99"/>
<path stroke="white" stroke-linecap="round" stroke-width="1" d="M 1,1 L 9,99"/>
</pattern><pattern id="knurled" patternUnits="userSpaceOnUse" width="8" height="8">
<path stroke="dimgray" stroke-linecap="round" stroke-width="1" d="M 4,4 L 8,8"/>
<path stroke="dimgray" stroke-linecap="round" stroke-width="1" d="M 4,4 L 0,8"/>
<path stroke="gray" stroke-linecap="round" stroke-width="1" d="M 4,4 L 8,0" />
<path stroke="gray" stroke-linecap="round" stroke-width="1" d="M 4,4 L 0,0" />
</pattern><rect x="0" y="0" width="1200" height="569" fill="white" stroke="black" stroke-width="4" />
<rect x="2" y="2" width="1196" height="565" fill="white" stroke="dimgray" stroke-width="1" />
<g transform="rotate(0 0 0)">
<text x="30" y="50" font-size="2.0em" font-weight="bold"> BIC // Criterium </text>
<!-- part cone --><path d="M245.625 112.5 L256.875 111.25 L256.875 128.75 L245.625 127.5 Z" stroke-width="0.5" stroke="black" stroke-linejoin="round" fill="silver" fill-opacity="1"/>
<!-- end cone --><path d="M256.875 111.25 L283.125 112.5 L283.125 127.5 L256.875 128.75 Z" stroke-width="0.5" stroke="black" stroke-linejoin="round" fill="silver" fill-opacity="1"/>
<!-- end cylinder --><path d="M283.125 113.125 L314.375 113.125 L314.375 126.875 L283.125 126.875 Z" stroke-width="0.5" stroke="black" stroke-linejoin="round" fill="silver" fill-opacity="1"/>
<path d="M283.125 113.125 L314.375 113.125 L314.375 126.875 L283.125 126.875 Z" stroke-width="1.0" stroke="black" fill="url(#spring)"/>
<rect x="288.125" y="108.125" width="21.25" height="23.75" stroke-width="0.0" stroke="black" fill="url(#spring)"/>
<line x1="283.625" y1="108.125" x2="283.625" y2="131.875" stroke="dimgray" stroke-linecap="round" stroke-width="2" />
<line x1="283.625" y1="108.125" x2="283.625" y2="131.875" stroke="white" stroke-linecap="round" stroke-width="1" />
<line x1="313.875" y1="108.125" x2="313.875" y2="131.875" stroke="dimgray" stroke-linecap="round" stroke-width="2" />
<line x1="313.875" y1="108.125" x2="313.875" y2="131.875" stroke="white" stroke-linecap="round" stroke-width="1" />
<line x1="285.625" y1="108.125" x2="285.625" y2="131.875" stroke="dimgray" stroke-linecap="round" stroke-width="2" />
<line x1="285.625" y1="108.125" x2="285.625" y2="131.875" stroke="white" stroke-linecap="round" stroke-width="1" />
<line x1="311.875" y1="108.125" x2="311.875" y2="131.875" stroke="dimgray" stroke-linecap="round" stroke-width="2" />
<line x1="311.875" y1="108.125" x2="311.875" y2="131.875" stroke="white" stroke-linecap="round" stroke-width="1" />
<line x1="287.625" y1="108.125" x2="287.625" y2="131.875" stroke="dimgray" stroke-linecap="round" stroke-width="2" />
<line x1="287.625" y1="108.125" x2="287.625" y2="131.875" stroke="white" stroke-linecap="round" stroke-width="1" />
<line x1="309.875" y1="108.125" x2="309.875" y2="131.875" stroke="dimgray" stroke-linecap="round" stroke-width="2" />
<line x1="309.875" y1="108.125" x2="309.875" y2="131.875" stroke="white" stroke-linecap="round" stroke-width="1" />
<line x1="289.625" y1="108.125" x2="289.625" y2="131.875" stroke="dimgray" stroke-linecap="round" stroke-width="2" />
<line x1="289.625" y1="108.125" x2="289.625" y2="131.875" stroke="white" stroke-linecap="round" stroke-width="1" />
<line x1="307.875" y1="108.125" x2="307.875" y2="131.875" stroke="dimgray" stroke-linecap="round" stroke-width="2" />
<line x1="307.875" y1="108.125" x2="307.875" y2="131.875" stroke="white" stroke-linecap="round" stroke-width="1" />
<!-- end cylinder --><path d="M314.375 110 L323.125 110 L323.125 130 L314.375 130 Z" stroke-width="0.5" stroke="black" stroke-linejoin="round" fill="silver" fill-opacity="1"/>
<!-- end cylinder --><path d="M323.125 107.5 L326.875 107.5 L326.875 132.5 L323.125 132.5 Z" stroke-width="0.5" stroke="black" stroke-linejoin="round" fill="silver" fill-opacity="1"/>
<!-- end cylinder --><path d="M326.875 112.5 L349.375 112.5 L349.375 127.5 L326.875 127.5 Z" stroke-width="0.5" stroke="black" stroke-linejoin="round" fill="silver" fill-opacity="1"/>
<!-- end cylinder --><path d="M304.375 106.875 L371.875 106.875 L371.875 133.125 L304.375 133.125 Z" stroke-width="0.5" stroke="black" stroke-linejoin="round" fill="#ffffff" fill-opacity="0.2"/>
<!-- end cylinder --><path d="M259.375 110 L703.125 110 L703.125 130 L259.375 130 Z" stroke-width="0.5" stroke="black" stroke-linejoin="round" fill="#ffffff" fill-opacity="0.2"/>
<!-- end cylinder --><path d="M770.625 104.375 L775.625 104.375 L775.625 135.625 L770.625 135.625 Z" stroke-width="0.5" stroke="black" stroke-linejoin="round" fill="#ffffff" fill-opacity="0.9"/>
<!-- end cylinder --><path d="M775.625 106.25 L826.875 106.25 L826.875 133.75 L775.625 133.75 Z" stroke-width="0.5" stroke="black" stroke-linejoin="round" fill="#ffffff" fill-opacity="0.9"/>
<!-- end cylinder --><path d="M826.875 103.75 L890.625 103.75 L890.625 136.25 L826.875 136.25 Z" stroke-width="0.5" stroke="black" stroke-linejoin="round" fill="#ffffff" fill-opacity="0.9"/>
<line x1="256.875" y1="80" x2="256.875" y2="160" stroke="white" stroke-linecap="round"  stroke-width="1.0" />
<line x1="256.875" y1="80" x2="256.875" y2="160" stroke="black" stroke-linecap="round" stroke-dasharray="2,3" stroke-width="1.0" />
<line x1="266.875" y1="120" x2="930.625" y2="120" stroke-linecap="round" stroke="white"  stroke-width="2.0" />
<line x1="266.875" y1="120" x2="930.625" y2="120" stroke-linecap="round" stroke="#0f0f0f"  stroke-width="1.0" />
<line x1="266.875" y1="120" x2="273.875" y2="120" stroke-linecap="round" stroke="#ffffff" stroke-width="2.0" />
<line x1="266.875" y1="120" x2="280.875" y2="112" stroke-linecap="round" stroke="#ffffff" stroke-width="2.0" />
<line x1="280.875" y1="112" x2="273.875" y2="120" stroke-linecap="round" stroke="#ffffff" stroke-width="2.0" />
<line x1="266.875" y1="120" x2="280.875" y2="128" stroke-linecap="round" stroke="#ffffff" stroke-width="2.0" />
<line x1="280.875" y1="128" x2="273.875" y2="120" stroke-linecap="round" stroke="#ffffff" stroke-width="2.0" />
<line x1="266.875" y1="120" x2="280.875" y2="112" stroke-linecap="round" stroke="#0f0f0f" stroke-width="1.0" />
<line x1="280.875" y1="112" x2="273.875" y2="120" stroke-linecap="round" stroke="#0f0f0f" stroke-width="1.0" />
<line x1="266.875" y1="120" x2="280.875" y2="128" stroke-linecap="round" stroke="#0f0f0f" stroke-width="1.0" />
<line x1="280.875" y1="128" x2="273.875" y2="120" stroke-linecap="round" stroke="#0f0f0f" stroke-width="1.0" />
<line x1="930.625" y1="120" x2="930.625" y2="170" stroke="white" stroke-linecap="round"  stroke-width="2.0" />
<line x1="930.625" y1="120" x2="930.625" y2="170" stroke="#0f0f0f" stroke-linecap="round"  stroke-width="1.0" />
<line x1="216.875" y1="170" x2="930.625" y2="170" stroke-linecap="round" stroke="white"  stroke-width="2.0" />
<line x1="216.875" y1="170" x2="930.625" y2="170" stroke-linecap="round" stroke="#0f0f0f"  stroke-width="1.0" />
<line x1="216.875" y1="220" x2="246.875" y2="220" stroke-linecap="round" stroke="white"  stroke-width="2.0" />
<line x1="216.875" y1="220" x2="246.875" y2="220" stroke-linecap="round" stroke="#0f0f0f"  stroke-width="1.0" />
<line x1="226.875" y1="220" x2="233.875" y2="220" stroke-linecap="round" stroke="#ffffff" stroke-width="2.0" />
<line x1="226.875" y1="220" x2="240.875" y2="212" stroke-linecap="round" stroke="#ffffff" stroke-width="2.0" />
<line x1="240.875" y1="212" x2="233.875" y2="220" stroke-linecap="round" stroke="#ffffff" stroke-width="2.0" />
<line x1="226.875" y1="220" x2="240.875" y2="228" stroke-linecap="round" stroke="#ffffff" stroke-width="2.0" />
<line x1="240.875" y1="228" x2="233.875" y2="220" stroke-linecap="round" stroke="#ffffff" stroke-width="2.0" />
<line x1="226.875" y1="220" x2="240.875" y2="212" stroke-linecap="round" stroke="#0f0f0f" stroke-width="1.0" />
<line x1="240.875" y1="212" x2="233.875" y2="220" stroke-linecap="round" stroke="#0f0f0f" stroke-width="1.0" />
<line x1="226.875" y1="220" x2="240.875" y2="228" stroke-linecap="round" stroke="#0f0f0f" stroke-width="1.0" />
<line x1="240.875" y1="228" x2="233.875" y2="220" stroke-linecap="round" stroke="#0f0f0f" stroke-width="1.0" />
<line x1="216.875" y1="170" x2="216.875" y2="220" stroke="white" stroke-linecap="round"  stroke-width="2.0" />
<line x1="216.875" y1="170" x2="216.875" y2="220" stroke="#0f0f0f" stroke-linecap="round"  stroke-width="1.0" />
<!-- part cone --><path d="M256.875 206.875 L305.625 200.625 L305.625 239.375 L256.875 233.125 Z" stroke-width="0.5" stroke="black" stroke-linejoin="round" fill="silver" fill-opacity="1"/>
<!-- end cylinder --><path d="M305.625 203.75 L334.375 203.75 L334.375 236.25 L305.625 236.25 Z" stroke-width="0.5" stroke="black" stroke-linejoin="round" fill="silver" fill-opacity="1"/>
<path d="M305.625 203.75 L334.375 203.75 L334.375 236.25 L305.625 236.25 Z" stroke-width="1.0" stroke="black" fill="url(#threaded)"/>
<line x1="305.625" y1="201.75" x2="310.625" y2="238.25" stroke="dimgray" stroke-linecap="round" stroke-width="2" />
<line x1="305.625" y1="201.75" x2="310.625" y2="238.25" stroke="[object Object]" stroke-linecap="round" stroke-width="1" />
<line x1="310.625" y1="201.75" x2="315.625" y2="238.25" stroke="dimgray" stroke-linecap="round" stroke-width="2" />
<line x1="310.625" y1="201.75" x2="315.625" y2="238.25" stroke="[object Object]" stroke-linecap="round" stroke-width="1" />
<line x1="315.625" y1="201.75" x2="320.625" y2="238.25" stroke="dimgray" stroke-linecap="round" stroke-width="2" />
<line x1="315.625" y1="201.75" x2="320.625" y2="238.25" stroke="[object Object]" stroke-linecap="round" stroke-width="1" />
<line x1="320.625" y1="201.75" x2="325.625" y2="238.25" stroke="dimgray" stroke-linecap="round" stroke-width="2" />
<line x1="320.625" y1="201.75" x2="325.625" y2="238.25" stroke="[object Object]" stroke-linecap="round" stroke-width="1" />
<line x1="325.625" y1="201.75" x2="330.625" y2="238.25" stroke="dimgray" stroke-linecap="round" stroke-width="2" />
<line x1="325.625" y1="201.75" x2="330.625" y2="238.25" stroke="[object Object]" stroke-linecap="round" stroke-width="1" />
<line x1="305.625" y1="180" x2="305.625" y2="260" stroke="white" stroke-linecap="round"  stroke-width="1.0" />
<line x1="305.625" y1="180" x2="305.625" y2="260" stroke="black" stroke-linecap="round" stroke-dasharray="2,3" stroke-width="1.0" />
<line x1="315.625" y1="220" x2="374.375" y2="220" stroke-linecap="round" stroke="white"  stroke-width="2.0" />
<line x1="315.625" y1="220" x2="374.375" y2="220" stroke-linecap="round" stroke="#0f0f0f"  stroke-width="1.0" />
<line x1="315.625" y1="220" x2="322.625" y2="220" stroke-linecap="round" stroke="#ffffff" stroke-width="2.0" />
<line x1="315.625" y1="220" x2="329.625" y2="212" stroke-linecap="round" stroke="#ffffff" stroke-width="2.0" />
<line x1="329.625" y1="212" x2="322.625" y2="220" stroke-linecap="round" stroke="#ffffff" stroke-width="2.0" />
<line x1="315.625" y1="220" x2="329.625" y2="228" stroke-linecap="round" stroke="#ffffff" stroke-width="2.0" />
<line x1="329.625" y1="228" x2="322.625" y2="220" stroke-linecap="round" stroke="#ffffff" stroke-width="2.0" />
<line x1="315.625" y1="220" x2="329.625" y2="212" stroke-linecap="round" stroke="#0f0f0f" stroke-width="1.0" />
<line x1="329.625" y1="212" x2="322.625" y2="220" stroke-linecap="round" stroke="#0f0f0f" stroke-width="1.0" />
<line x1="315.625" y1="220" x2="329.625" y2="228" stroke-linecap="round" stroke="#0f0f0f" stroke-width="1.0" />
<line x1="329.625" y1="228" x2="322.625" y2="220" stroke-linecap="round" stroke="#0f0f0f" stroke-width="1.0" />
<line x1="374.375" y1="220" x2="374.375" y2="270" stroke="white" stroke-linecap="round"  stroke-width="2.0" />
<line x1="374.375" y1="220" x2="374.375" y2="270" stroke="#0f0f0f" stroke-linecap="round"  stroke-width="1.0" />
<line x1="265.625" y1="270" x2="374.375" y2="270" stroke-linecap="round" stroke="white"  stroke-width="2.0" />
<line x1="265.625" y1="270" x2="374.375" y2="270" stroke-linecap="round" stroke="#0f0f0f"  stroke-width="1.0" />
<line x1="265.625" y1="320" x2="295.625" y2="320" stroke-linecap="round" stroke="white"  stroke-width="2.0" />
<line x1="265.625" y1="320" x2="295.625" y2="320" stroke-linecap="round" stroke="#0f0f0f"  stroke-width="1.0" />
<line x1="275.625" y1="320" x2="282.625" y2="320" stroke-linecap="round" stroke="#ffffff" stroke-width="2.0" />
<line x1="275.625" y1="320" x2="289.625" y2="312" stroke-linecap="round" stroke="#ffffff" stroke-width="2.0" />
<line x1="289.625" y1="312" x2="282.625" y2="320" stroke-linecap="round" stroke="#ffffff" stroke-width="2.0" />
<line x1="275.625" y1="320" x2="289.625" y2="328" stroke-linecap="round" stroke="#ffffff" stroke-width="2.0" />
<line x1="289.625" y1="328" x2="282.625" y2="320" stroke-linecap="round" stroke="#ffffff" stroke-width="2.0" />
<line x1="275.625" y1="320" x2="289.625" y2="312" stroke-linecap="round" stroke="#0f0f0f" stroke-width="1.0" />
<line x1="289.625" y1="312" x2="282.625" y2="320" stroke-linecap="round" stroke="#0f0f0f" stroke-width="1.0" />
<line x1="275.625" y1="320" x2="289.625" y2="328" stroke-linecap="round" stroke="#0f0f0f" stroke-width="1.0" />
<line x1="289.625" y1="328" x2="282.625" y2="320" stroke-linecap="round" stroke="#0f0f0f" stroke-width="1.0" />
<line x1="265.625" y1="270" x2="265.625" y2="320" stroke="white" stroke-linecap="round"  stroke-width="2.0" />
<line x1="265.625" y1="270" x2="265.625" y2="320" stroke="#0f0f0f" stroke-linecap="round"  stroke-width="1.0" />
<!-- part hexagonal --><path d="M305.625 300.625 L338.125 300 L338.125 340 L305.625 339.375 Z" stroke-width="0.5" stroke="black" stroke-linejoin="round" fill="#ffffff" fill-opacity="1"/>
<line x1="328.125" y1="320" x2="360.625" y2="320" stroke-width="1.5" stroke="black" fill="none" stroke-opacity="0.5"/>
<line x1="328.125" y1="320" x2="360.625" y2="320" stroke-width="0.5" stroke="gray" fill="none" stroke-opacity="0.5"/>
<rect x="305.625" y="300.25" width="22" height="38.25" rx="0" ry="0" stroke-width="0.5" stroke="none" fill="#ffffff" fill-opacity="1"/>
<path d="M 328.125 300 C 298.3125 305, 298.3125 315, 328.125 320" stroke-width="0.5" stroke="black" stroke-linecap="round" fill-opacity="1" fill="#ffffff" /><path d="M 328.125 340 C 298.3125 335, 298.3125 325, 328.125 320" stroke-width="0.5" stroke="black" stroke-linecap="round" fill-opacity="1" fill="#ffffff" /><!-- part hexagonal --><path d="M338.125 300 L344.375 300 L344.375 340 L338.125 340 Z" stroke-width="0.5" stroke="black" stroke-linejoin="round" fill="#ffffff" fill-opacity="1"/>
<line x1="338.125" y1="320" x2="344.375" y2="320" stroke-width="1.5" stroke="black" fill="none" stroke-opacity="0.5"/>
<line x1="338.125" y1="320" x2="344.375" y2="320" stroke-width="0.5" stroke="gray" fill="none" stroke-opacity="0.5"/>
<!-- part hexagonal --><path d="M344.375 300.625 L350.625 300.625 L350.625 339.375 L344.375 339.375 Z" stroke-width="0.5" stroke="black" stroke-linejoin="round" fill="#ffffff" fill-opacity="1"/>
<line x1="344.375" y1="320" x2="350.625" y2="320" stroke-width="1.5" stroke="black" fill="none" stroke-opacity="0.5"/>
<line x1="344.375" y1="320" x2="350.625" y2="320" stroke-width="0.5" stroke="gray" fill="none" stroke-opacity="0.5"/>
<!-- part hexagonal --><path d="M350.625 300 L356.875 300 L356.875 340 L350.625 340 Z" stroke-width="0.5" stroke="black" stroke-linejoin="round" fill="#ffffff" fill-opacity="1"/>
<line x1="350.625" y1="320" x2="356.875" y2="320" stroke-width="1.5" stroke="black" fill="none" stroke-opacity="0.5"/>
<line x1="350.625" y1="320" x2="356.875" y2="320" stroke-width="0.5" stroke="gray" fill="none" stroke-opacity="0.5"/>
<!-- part hexagonal --><path d="M356.875 300.625 L363.125 300.625 L363.125 339.375 L356.875 339.375 Z" stroke-width="0.5" stroke="black" stroke-linejoin="round" fill="#ffffff" fill-opacity="1"/>
<line x1="356.875" y1="320" x2="363.125" y2="320" stroke-width="1.5" stroke="black" fill="none" stroke-opacity="0.5"/>
<line x1="356.875" y1="320" x2="363.125" y2="320" stroke-width="0.5" stroke="gray" fill="none" stroke-opacity="0.5"/>
<!-- part hexagonal --><path d="M363.125 300 L369.375 300 L369.375 340 L363.125 340 Z" stroke-width="0.5" stroke="black" stroke-linejoin="round" fill="#ffffff" fill-opacity="1"/>
<line x1="363.125" y1="320" x2="369.375" y2="320" stroke-width="1.5" stroke="black" fill="none" stroke-opacity="0.5"/>
<line x1="363.125" y1="320" x2="369.375" y2="320" stroke-width="0.5" stroke="gray" fill="none" stroke-opacity="0.5"/>
<!-- part hexagonal --><path d="M369.375 300.625 L375.625 300.625 L375.625 339.375 L369.375 339.375 Z" stroke-width="0.5" stroke="black" stroke-linejoin="round" fill="#ffffff" fill-opacity="1"/>
<line x1="369.375" y1="320" x2="375.625" y2="320" stroke-width="1.5" stroke="black" fill="none" stroke-opacity="0.5"/>
<line x1="369.375" y1="320" x2="375.625" y2="320" stroke-width="0.5" stroke="gray" fill="none" stroke-opacity="0.5"/>
<!-- part hexagonal --><path d="M375.625 300 L381.875 300 L381.875 340 L375.625 340 Z" stroke-width="0.5" stroke="black" stroke-linejoin="round" fill="#ffffff" fill-opacity="1"/>
<line x1="375.625" y1="320" x2="381.875" y2="320" stroke-width="1.5" stroke="black" fill="none" stroke-opacity="0.5"/>
<line x1="375.625" y1="320" x2="381.875" y2="320" stroke-width="0.5" stroke="gray" fill="none" stroke-opacity="0.5"/>
<!-- part hexagonal --><path d="M381.875 300.625 L388.125 300.625 L388.125 339.375 L381.875 339.375 Z" stroke-width="0.5" stroke="black" stroke-linejoin="round" fill="#ffffff" fill-opacity="1"/>
<line x1="381.875" y1="320" x2="388.125" y2="320" stroke-width="1.5" stroke="black" fill="none" stroke-opacity="0.5"/>
<line x1="381.875" y1="320" x2="388.125" y2="320" stroke-width="0.5" stroke="gray" fill="none" stroke-opacity="0.5"/>
<!-- part hexagonal --><path d="M388.125 300 L394.375 300 L394.375 340 L388.125 340 Z" stroke-width="0.5" stroke="black" stroke-linejoin="round" fill="#ffffff" fill-opacity="1"/>
<line x1="388.125" y1="320" x2="394.375" y2="320" stroke-width="1.5" stroke="black" fill="none" stroke-opacity="0.5"/>
<line x1="388.125" y1="320" x2="394.375" y2="320" stroke-width="0.5" stroke="gray" fill="none" stroke-opacity="0.5"/>
<!-- part hexagonal --><path d="M394.375 300.625 L400.625 300.625 L400.625 339.375 L394.375 339.375 Z" stroke-width="0.5" stroke="black" stroke-linejoin="round" fill="#ffffff" fill-opacity="1"/>
<line x1="394.375" y1="320" x2="400.625" y2="320" stroke-width="1.5" stroke="black" fill="none" stroke-opacity="0.5"/>
<line x1="394.375" y1="320" x2="400.625" y2="320" stroke-width="0.5" stroke="gray" fill="none" stroke-opacity="0.5"/>
<!-- part hexagonal --><path d="M400.625 300 L406.875 300 L406.875 340 L400.625 340 Z" stroke-width="0.5" stroke="black" stroke-linejoin="round" fill="#ffffff" fill-opacity="1"/>
<line x1="400.625" y1="320" x2="406.875" y2="320" stroke-width="1.5" stroke="black" fill="none" stroke-opacity="0.5"/>
<line x1="400.625" y1="320" x2="406.875" y2="320" stroke-width="0.5" stroke="gray" fill="none" stroke-opacity="0.5"/>
<!-- part hexagonal --><path d="M406.875 300.625 L413.125 300.625 L413.125 339.375 L406.875 339.375 Z" stroke-width="0.5" stroke="black" stroke-linejoin="round" fill="#ffffff" fill-opacity="1"/>
<line x1="406.875" y1="320" x2="413.125" y2="320" stroke-width="1.5" stroke="black" fill="none" stroke-opacity="0.5"/>
<line x1="406.875" y1="320" x2="413.125" y2="320" stroke-width="0.5" stroke="gray" fill="none" stroke-opacity="0.5"/>
<!-- part hexagonal --><path d="M413.125 300 L419.375 300 L419.375 340 L413.125 340 Z" stroke-width="0.5" stroke="black" stroke-linejoin="round" fill="#ffffff" fill-opacity="1"/>
<line x1="413.125" y1="320" x2="419.375" y2="320" stroke-width="1.5" stroke="black" fill="none" stroke-opacity="0.5"/>
<line x1="413.125" y1="320" x2="419.375" y2="320" stroke-width="0.5" stroke="gray" fill="none" stroke-opacity="0.5"/>
<!-- part hexagonal --><path d="M419.375 300.625 L425.625 300.625 L425.625 339.375 L419.375 339.375 Z" stroke-width="0.5" stroke="black" stroke-linejoin="round" fill="#ffffff" fill-opacity="1"/>
<line x1="419.375" y1="320" x2="425.625" y2="320" stroke-width="1.5" stroke="black" fill="none" stroke-opacity="0.5"/>
<line x1="419.375" y1="320" x2="425.625" y2="320" stroke-width="0.5" stroke="gray" fill="none" stroke-opacity="0.5"/>
<!-- part hexagonal --><path d="M425.625 300 L431.875 300 L431.875 340 L425.625 340 Z" stroke-width="0.5" stroke="black" stroke-linejoin="round" fill="#ffffff" fill-opacity="1"/>
<line x1="425.625" y1="320" x2="431.875" y2="320" stroke-width="1.5" stroke="black" fill="none" stroke-opacity="0.5"/>
<line x1="425.625" y1="320" x2="431.875" y2="320" stroke-width="0.5" stroke="gray" fill="none" stroke-opacity="0.5"/>
<!-- part hexagonal --><path d="M431.875 300.625 L438.125 300.625 L438.125 339.375 L431.875 339.375 Z" stroke-width="0.5" stroke="black" stroke-linejoin="round" fill="#ffffff" fill-opacity="1"/>
<line x1="431.875" y1="320" x2="438.125" y2="320" stroke-width="1.5" stroke="black" fill="none" stroke-opacity="0.5"/>
<line x1="431.875" y1="320" x2="438.125" y2="320" stroke-width="0.5" stroke="gray" fill="none" stroke-opacity="0.5"/>
<!-- part hexagonal --><path d="M438.125 300 L444.375 300 L444.375 340 L438.125 340 Z" stroke-width="0.5" stroke="black" stroke-linejoin="round" fill="#ffffff" fill-opacity="1"/>
<line x1="438.125" y1="320" x2="444.375" y2="320" stroke-width="1.5" stroke="black" fill="none" stroke-opacity="0.5"/>
<line x1="438.125" y1="320" x2="444.375" y2="320" stroke-width="0.5" stroke="gray" fill="none" stroke-opacity="0.5"/>
<!-- part hexagonal --><path d="M444.375 300.625 L450.625 300.625 L450.625 339.375 L444.375 339.375 Z" stroke-width="0.5" stroke="black" stroke-linejoin="round" fill="#ffffff" fill-opacity="1"/>
<line x1="444.375" y1="320" x2="450.625" y2="320" stroke-width="1.5" stroke="black" fill="none" stroke-opacity="0.5"/>
<line x1="444.375" y1="320" x2="450.625" y2="320" stroke-width="0.5" stroke="gray" fill="none" stroke-opacity="0.5"/>
<!-- part hexagonal --><path d="M450.625 300 L456.875 300 L456.875 340 L450.625 340 Z" stroke-width="0.5" stroke="black" stroke-linejoin="round" fill="#ffffff" fill-opacity="1"/>
<line x1="450.625" y1="320" x2="456.875" y2="320" stroke-width="1.5" stroke="black" fill="none" stroke-opacity="0.5"/>
<line x1="450.625" y1="320" x2="456.875" y2="320" stroke-width="0.5" stroke="gray" fill="none" stroke-opacity="0.5"/>
<!-- part hexagonal --><path d="M456.875 300.625 L463.125 300.625 L463.125 339.375 L456.875 339.375 Z" stroke-width="0.5" stroke="black" stroke-linejoin="round" fill="#ffffff" fill-opacity="1"/>
<line x1="456.875" y1="320" x2="463.125" y2="320" stroke-width="1.5" stroke="black" fill="none" stroke-opacity="0.5"/>
<line x1="456.875" y1="320" x2="463.125" y2="320" stroke-width="0.5" stroke="gray" fill="none" stroke-opacity="0.5"/>
<!-- part hexagonal --><path d="M463.125 300 L469.375 300 L469.375 340 L463.125 340 Z" stroke-width="0.5" stroke="black" stroke-linejoin="round" fill="#ffffff" fill-opacity="1"/>
<line x1="463.125" y1="320" x2="469.375" y2="320" stroke-width="1.5" stroke="black" fill="none" stroke-opacity="0.5"/>
<line x1="463.125" y1="320" x2="469.375" y2="320" stroke-width="0.5" stroke="gray" fill="none" stroke-opacity="0.5"/>
<!-- part hexagonal --><path d="M469.375 300.625 L475.625 300.625 L475.625 339.375 L469.375 339.375 Z" stroke-width="0.5" stroke="black" stroke-linejoin="round" fill="#ffffff" fill-opacity="1"/>
<line x1="469.375" y1="320" x2="475.625" y2="320" stroke-width="1.5" stroke="black" fill="none" stroke-opacity="0.5"/>
<line x1="469.375" y1="320" x2="475.625" y2="320" stroke-width="0.5" stroke="gray" fill="none" stroke-opacity="0.5"/>
<!-- part hexagonal --><path d="M475.625 300 L481.875 300 L481.875 340 L475.625 340 Z" stroke-width="0.5" stroke="black" stroke-linejoin="round" fill="#ffffff" fill-opacity="1"/>
<line x1="475.625" y1="320" x2="481.875" y2="320" stroke-width="1.5" stroke="black" fill="none" stroke-opacity="0.5"/>
<line x1="475.625" y1="320" x2="481.875" y2="320" stroke-width="0.5" stroke="gray" fill="none" stroke-opacity="0.5"/>
<!-- part hexagonal --><path d="M481.875 300.625 L488.125 300.625 L488.125 339.375 L481.875 339.375 Z" stroke-width="0.5" stroke="black" stroke-linejoin="round" fill="#ffffff" fill-opacity="1"/>
<line x1="481.875" y1="320" x2="488.125" y2="320" stroke-width="1.5" stroke="black" fill="none" stroke-opacity="0.5"/>
<line x1="481.875" y1="320" x2="488.125" y2="320" stroke-width="0.5" stroke="gray" fill="none" stroke-opacity="0.5"/>
<!-- part hexagonal --><path d="M488.125 300 L494.375 300 L494.375 340 L488.125 340 Z" stroke-width="0.5" stroke="black" stroke-linejoin="round" fill="#ffffff" fill-opacity="1"/>
<line x1="488.125" y1="320" x2="494.375" y2="320" stroke-width="1.5" stroke="black" fill="none" stroke-opacity="0.5"/>
<line x1="488.125" y1="320" x2="494.375" y2="320" stroke-width="0.5" stroke="gray" fill="none" stroke-opacity="0.5"/>
<!-- part hexagonal --><path d="M494.375 300.625 L500.625 300.625 L500.625 339.375 L494.375 339.375 Z" stroke-width="0.5" stroke="black" stroke-linejoin="round" fill="#ffffff" fill-opacity="1"/>
<line x1="494.375" y1="320" x2="500.625" y2="320" stroke-width="1.5" stroke="black" fill="none" stroke-opacity="0.5"/>
<line x1="494.375" y1="320" x2="500.625" y2="320" stroke-width="0.5" stroke="gray" fill="none" stroke-opacity="0.5"/>
<!-- part hexagonal --><path d="M500.625 300 L820.625 300 L820.625 340 L500.625 340 Z" stroke-width="0.5" stroke="black" stroke-linejoin="round" fill="#ffffff" fill-opacity="1"/>
<line x1="500.625" y1="320" x2="820.625" y2="320" stroke-width="1.5" stroke="black" fill="none" stroke-opacity="0.5"/>
<line x1="500.625" y1="320" x2="820.625" y2="320" stroke-width="0.5" stroke="gray" fill="none" stroke-opacity="0.5"/>
<!-- part hexagonal --><path d="M820.625 297.5 L854.375 297.5 L854.375 342.5 L820.625 342.5 Z" stroke-width="0.5" stroke="black" stroke-linejoin="round" fill="silver" fill-opacity="1"/>
<line x1="820.625" y1="320" x2="854.375" y2="320" stroke-width="1.5" stroke="black" fill="none" stroke-opacity="0.5"/>
<line x1="820.625" y1="320" x2="854.375" y2="320" stroke-width="0.5" stroke="gray" fill="none" stroke-opacity="0.5"/>
<!-- part hexagonal --><path d="M854.375 300 L910.625 300 L910.625 340 L854.375 340 Z" stroke-width="0.5" stroke="black" stroke-linejoin="round" fill="#ffffff" fill-opacity="1"/>
<line x1="854.375" y1="320" x2="910.625" y2="320" stroke-width="1.5" stroke="black" fill="none" stroke-opacity="0.5"/>
<line x1="854.375" y1="320" x2="910.625" y2="320" stroke-width="0.5" stroke="gray" fill="none" stroke-opacity="0.5"/>
<!-- part cylinder --><path d="M910.625 403.75 L943.125 403.75 L943.125 436.25 L910.625 436.25 Z" stroke-width="0.5" stroke="black" stroke-linejoin="round" fill="silver" fill-opacity="1"/>
<!-- part cylinder --><path d="M943.125 405 L948.125 405 L948.125 435 L943.125 435 Z" stroke-width="0.5" stroke="black" stroke-linejoin="round" fill="silver" fill-opacity="1"/>
<!-- part cylinder --><path d="M948.125 403.75 L953.125 403.75 L953.125 436.25 L948.125 436.25 Z" stroke-width="0.5" stroke="black" stroke-linejoin="round" fill="silver" fill-opacity="1"/>
<path d="M948.125 403.75 L953.125 403.75 L953.125 436.25 L948.125 436.25 Z" stroke-width="1.0" stroke="black" fill="url(#lined)"/>
<!-- part cylinder --><path d="M953.125 409.375 L954.375 409.375 L954.375 430.625 L953.125 430.625 Z" stroke-width="0.5" stroke="black" stroke-linejoin="round" fill="silver" fill-opacity="1"/>
<line x1="801.875" y1="420" x2="831.875" y2="420" stroke-linecap="round" stroke="white"  stroke-width="2.0" />
<line x1="801.875" y1="420" x2="831.875" y2="420" stroke-linecap="round" stroke="#0f0f0f"  stroke-width="1.0" />
<line x1="811.875" y1="420" x2="818.875" y2="420" stroke-linecap="round" stroke="#ffffff" stroke-width="2.0" />
<line x1="811.875" y1="420" x2="825.875" y2="412" stroke-linecap="round" stroke="#ffffff" stroke-width="2.0" />
<line x1="825.875" y1="412" x2="818.875" y2="420" stroke-linecap="round" stroke="#ffffff" stroke-width="2.0" />
<line x1="811.875" y1="420" x2="825.875" y2="428" stroke-linecap="round" stroke="#ffffff" stroke-width="2.0" />
<line x1="825.875" y1="428" x2="818.875" y2="420" stroke-linecap="round" stroke="#ffffff" stroke-width="2.0" />
<line x1="811.875" y1="420" x2="825.875" y2="412" stroke-linecap="round" stroke="#0f0f0f" stroke-width="1.0" />
<line x1="825.875" y1="412" x2="818.875" y2="420" stroke-linecap="round" stroke="#0f0f0f" stroke-width="1.0" />
<line x1="811.875" y1="420" x2="825.875" y2="428" stroke-linecap="round" stroke="#0f0f0f" stroke-width="1.0" />
<line x1="825.875" y1="428" x2="818.875" y2="420" stroke-linecap="round" stroke="#0f0f0f" stroke-width="1.0" />
<line x1="801.875" y1="370" x2="801.875" y2="420" stroke="white" stroke-linecap="round"  stroke-width="2.0" />
<line x1="801.875" y1="370" x2="801.875" y2="420" stroke="#0f0f0f" stroke-linecap="round"  stroke-width="1.0" />
<path d="M841.875 408.125 L861.875 408.125 L861.875 431.875 L841.875 431.875 Z" stroke-width="0.5" stroke="black" stroke-linejoin="round" fill="#ffffff" fill-opacity="1"/>
<path d="M861.875 407.5 L891.875 407.5 L891.875 432.5 L861.875 432.5 Z" stroke-width="0.5" stroke="black" stroke-linejoin="round" fill="silver" fill-opacity="1"/>
<path d="M891.875 403.75 L910.625 403.75 L910.625 436.25 L891.875 436.25 Z" stroke-width="0.5" stroke="black" stroke-linejoin="round" fill="silver" fill-opacity="1"/>
<line x1="801.875" y1="370" x2="950.625" y2="370" stroke-linecap="round" stroke="white"  stroke-width="2.0" />
<line x1="801.875" y1="370" x2="950.625" y2="370" stroke-linecap="round" stroke="#0f0f0f"  stroke-width="1.0" />
<line x1="910.625" y1="380" x2="910.625" y2="460" stroke="white" stroke-linecap="round"  stroke-width="1.0" />
<line x1="910.625" y1="380" x2="910.625" y2="460" stroke="black" stroke-linecap="round" stroke-dasharray="2,3" stroke-width="1.0" />
<line x1="950.625" y1="320" x2="950.625" y2="370" stroke="#ffffff" stroke-linecap="round"  stroke-width="2.0" />
<line x1="950.625" y1="320" x2="950.625" y2="370" stroke="#0f0f0f" stroke-linecap="round"  stroke-width="1.0" />
<line x1="920.625" y1="320" x2="950.625" y2="320" stroke-linecap="round" stroke="#0f0f0f"  stroke-width="1.0" />
<line x1="920.625" y1="320" x2="927.625" y2="320" stroke-linecap="round" stroke="#ffffff" stroke-width="2.0" />
<line x1="920.625" y1="320" x2="934.625" y2="312" stroke-linecap="round" stroke="#ffffff" stroke-width="2.0" />
<line x1="934.625" y1="312" x2="927.625" y2="320" stroke-linecap="round" stroke="#ffffff" stroke-width="2.0" />
<line x1="920.625" y1="320" x2="934.625" y2="328" stroke-linecap="round" stroke="#ffffff" stroke-width="2.0" />
<line x1="934.625" y1="328" x2="927.625" y2="320" stroke-linecap="round" stroke="#ffffff" stroke-width="2.0" />
<line x1="920.625" y1="320" x2="934.625" y2="312" stroke-linecap="round" stroke="#0f0f0f" stroke-width="1.0" />
<line x1="934.625" y1="312" x2="927.625" y2="320" stroke-linecap="round" stroke="#0f0f0f" stroke-width="1.0" />
<line x1="920.625" y1="320" x2="934.625" y2="328" stroke-linecap="round" stroke="#0f0f0f" stroke-width="1.0" />
<line x1="934.625" y1="328" x2="927.625" y2="320" stroke-linecap="round" stroke="#0f0f0f" stroke-width="1.0" />
</g><text x="50%" y="549" font-size="1.1em" font-weight="bold" text-anchor="middle" dominant-baseline="middle">Copyright (c) // The Mechanical Pencil Database (tmpdb) // Licensed under Creative Commons Attribution-NonCommercial-ShareAlike 4.0 International</text>
<text x="1190" y="559" font-size="0.5em" font-weight="bold" text-anchor="end" dominant-baseline="middle">SVGTechnicalExplodedRenderer</text>
</svg>