<svg xmlns="http://www.w3.org/2000/svg" width="1200" height="720">
 <pattern id="knurled-large" patternUnits="userSpaceOnUse" width="12" height="12">
<path stroke="dimgray" stroke-linecap="round" stroke-width="1" d="M 6,6 L 12,12"/>
<path stroke="dimgray" stroke-linecap="round" stroke-width="1" d="M 6,6 L 0,12"/>
<path stroke="gray" stroke-linecap="round" stroke-width="1" d="M 6,6 L 12,0" />
<path stroke="gray" stroke-linecap="round" stroke-width="1" d="M 6,6 L 0,0" />
</pattern><pattern id="knurled-small" patternUnits="userSpaceOnUse" width="4" height="4">
<path stroke="dimgray" stroke-linecap="round" stroke-width="1" d="M 2,2 L 4,4"/>
<path stroke="dimgray" stroke-linecap="round" stroke-width="1" d="M 2,2 L 0,4"/>
<path stroke="gray" stroke-linecap="round" stroke-width="1" d="M 2,2 L 4,0" />
<path stroke="gray" stroke-linecap="round" stroke-width="1" d="M 2,2 L 0,0" />
</pattern><pattern id="knurled" patternUnits="userSpaceOnUse" width="8" height="8">
<path stroke="dimgray" stroke-linecap="round" stroke-width="1" d="M 4,4 L 8,8"/>
<path stroke="dimgray" stroke-linecap="round" stroke-width="1" d="M 4,4 L 0,8"/>
<path stroke="gray" stroke-linecap="round" stroke-width="1" d="M 4,4 L 8,0" />
<path stroke="gray" stroke-linecap="round" stroke-width="1" d="M 4,4 L 0,0" />
</pattern><pattern id="lined" patternUnits="userSpaceOnUse" width="3" height="3">
<path stroke="dimgray" stroke-linecap="round" stroke-width="1" d="M 0,0 L 3,0"/>
</pattern><pattern id="ridged" patternUnits="userSpaceOnUse" width="3" height="3">
<path stroke="dimgray" stroke-linecap="round" stroke-width="1" d="M 0,0 L 0,3"/>
</pattern><pattern id="knurled" patternUnits="userSpaceOnUse" width="8" height="8">
<path stroke="dimgray" stroke-linecap="round" stroke-width="1" d="M 4,4 L 8,8"/>
<path stroke="dimgray" stroke-linecap="round" stroke-width="1" d="M 4,4 L 0,8"/>
<path stroke="gray" stroke-linecap="round" stroke-width="1" d="M 4,4 L 8,0" />
<path stroke="gray" stroke-linecap="round" stroke-width="1" d="M 4,4 L 0,0" />
</pattern><rect x="0" y="0" width="1200" height="720" fill="white" stroke="black" stroke-width="4" />
<rect x="2" y="2" width="1196" height="716" fill="white" stroke="dimgray" stroke-width="1" />
<g transform="rotate(0 0 0)">
<text x="30" y="50" font-size="2.0em" font-weight="bold"> BIC // Criterium </text>


<!-- renderExplodedSideComponents -->


<!-- renderSideComponent: jaws -->


<!-- renderPart: cone -->
<path d="M245.625 112.5 L256.875 111.25 L256.875 128.75 L245.625 127.5 Z" stroke-width="0.5" stroke="black" stroke-linejoin="round" fill="silver" fill-opacity="1"/>


<!-- renderPart: cone -->
<path d="M256.875 111.25 L283.125 112.5 L283.125 127.5 L256.875 128.75 Z" stroke-width="0.5" stroke="black" stroke-linejoin="round" fill="silver" fill-opacity="1"/>


<!-- renderPart: cylinder -->
<path d="M283.125 113.125 L314.375 113.125 L314.375 126.875 L283.125 126.875 Z" stroke-width="0.5" stroke="black" stroke-linejoin="round" fill="silver" fill-opacity="1"/>
<rect x="288.125" y="108.125" width="21.25" height="23.75" stroke-width="0.0" stroke="black" fill="url(#spring)"/>
<line x1="283.625" y1="108.125" x2="283.625" y2="131.875" stroke="dimgray" stroke-linecap="round" stroke-width="2" />
<line x1="283.625" y1="108.125" x2="283.625" y2="131.875" stroke="white" stroke-linecap="round" stroke-width="1" />
<line x1="313.875" y1="108.125" x2="313.875" y2="131.875" stroke="dimgray" stroke-linecap="round" stroke-width="2" />
<line x1="313.875" y1="108.125" x2="313.875" y2="131.875" stroke="white" stroke-linecap="round" stroke-width="1" />
<line x1="285.625" y1="108.125" x2="285.625" y2="131.875" stroke="dimgray" stroke-linecap="round" stroke-width="2" />
<line x1="285.625" y1="108.125" x2="285.625" y2="131.875" stroke="white" stroke-linecap="round" stroke-width="1" />
<line x1="311.875" y1="108.125" x2="311.875" y2="131.875" stroke="dimgray" stroke-linecap="round" stroke-width="2" />
<line x1="311.875" y1="108.125" x2="311.875" y2="131.875" stroke="white" stroke-linecap="round" stroke-width="1" />
<line x1="287.625" y1="108.125" x2="287.625" y2="131.875" stroke="dimgray" stroke-linecap="round" stroke-width="2" />
<line x1="287.625" y1="108.125" x2="287.625" y2="131.875" stroke="white" stroke-linecap="round" stroke-width="1" />
<line x1="309.875" y1="108.125" x2="309.875" y2="131.875" stroke="dimgray" stroke-linecap="round" stroke-width="2" />
<line x1="309.875" y1="108.125" x2="309.875" y2="131.875" stroke="white" stroke-linecap="round" stroke-width="1" />
<line x1="289.625" y1="108.125" x2="289.625" y2="131.875" stroke="dimgray" stroke-linecap="round" stroke-width="2" />
<line x1="289.625" y1="108.125" x2="289.625" y2="131.875" stroke="white" stroke-linecap="round" stroke-width="1" />
<line x1="307.875" y1="108.125" x2="307.875" y2="131.875" stroke="dimgray" stroke-linecap="round" stroke-width="2" />
<line x1="307.875" y1="108.125" x2="307.875" y2="131.875" stroke="white" stroke-linecap="round" stroke-width="1" />


<!-- renderPart: cylinder -->
<path d="M314.375 110 L323.125 110 L323.125 130 L314.375 130 Z" stroke-width="0.5" stroke="black" stroke-linejoin="round" fill="silver" fill-opacity="1"/>


<!-- renderPart: cylinder -->
<path d="M323.125 107.5 L326.875 107.5 L326.875 132.5 L323.125 132.5 Z" stroke-width="0.5" stroke="black" stroke-linejoin="round" fill="silver" fill-opacity="1"/>


<!-- renderPart: cylinder -->
<path d="M326.875 112.5 L344.375 112.5 L344.375 127.5 L326.875 127.5 Z" stroke-width="0.5" stroke="black" stroke-linejoin="round" fill="silver" fill-opacity="1"/>


<!-- renderPart: cylinder -->
<path d="M326.875 106.875 L394.375 106.875 L394.375 133.125 L326.875 133.125 Z" stroke-width="0.5" stroke="black" stroke-linejoin="round" fill="#ffffff" fill-opacity="0.2"/>


<!-- renderPart: cylinder -->
<path d="M326.875 110 L770.625 110 L770.625 130 L326.875 130 Z" stroke-width="0.5" stroke="black" stroke-linejoin="round" fill="#ffffff" fill-opacity="0.2"/>


<!-- renderPart: cylinder -->
<path d="M770.625 104.375 L775.625 104.375 L775.625 135.625 L770.625 135.625 Z" stroke-width="0.5" stroke="black" stroke-linejoin="round" fill="#ffffff" fill-opacity="0.9"/>


<!-- renderPart: cylinder -->
<path d="M775.625 106.25 L826.875 106.25 L826.875 133.75 L775.625 133.75 Z" stroke-width="0.5" stroke="black" stroke-linejoin="round" fill="#ffffff" fill-opacity="0.9"/>


<!-- renderPart: cylinder -->
<path d="M826.875 103.75 L890.625 103.75 L890.625 136.25 L826.875 136.25 Z" stroke-width="0.5" stroke="black" stroke-linejoin="round" fill="#ffffff" fill-opacity="0.9"/>


<!-- renderSideComponent: tip -->


<!-- renderPart: cone -->
<path d="M256.875 226.875 L305.625 220.625 L305.625 259.375 L256.875 253.125 Z" stroke-width="0.5" stroke="black" stroke-linejoin="round" fill="silver" fill-opacity="1"/>


<!-- renderPart: cylinder -->
<path d="M305.625 223.75 L334.375 223.75 L334.375 256.25 L305.625 256.25 Z" stroke-width="0.5" stroke="black" stroke-linejoin="round" fill="silver" fill-opacity="1"/>
<path d="M305.625 223.75 L334.375 223.75 L334.375 256.25 L305.625 256.25 Z" stroke-width="1.0" stroke="black" fill="url(#threaded)"/>
<line x1="305.625" y1="221.75" x2="310.625" y2="258.25" stroke="dimgray" stroke-linecap="round" stroke-width="2" />
<line x1="305.625" y1="221.75" x2="310.625" y2="258.25" stroke="[object Object]" stroke-linecap="round" stroke-width="1" />
<line x1="310.625" y1="221.75" x2="315.625" y2="258.25" stroke="dimgray" stroke-linecap="round" stroke-width="2" />
<line x1="310.625" y1="221.75" x2="315.625" y2="258.25" stroke="[object Object]" stroke-linecap="round" stroke-width="1" />
<line x1="315.625" y1="221.75" x2="320.625" y2="258.25" stroke="dimgray" stroke-linecap="round" stroke-width="2" />
<line x1="315.625" y1="221.75" x2="320.625" y2="258.25" stroke="[object Object]" stroke-linecap="round" stroke-width="1" />
<line x1="320.625" y1="221.75" x2="325.625" y2="258.25" stroke="dimgray" stroke-linecap="round" stroke-width="2" />
<line x1="320.625" y1="221.75" x2="325.625" y2="258.25" stroke="[object Object]" stroke-linecap="round" stroke-width="1" />
<line x1="325.625" y1="221.75" x2="330.625" y2="258.25" stroke="dimgray" stroke-linecap="round" stroke-width="2" />
<line x1="325.625" y1="221.75" x2="330.625" y2="258.25" stroke="[object Object]" stroke-linecap="round" stroke-width="1" />


<!-- renderSideComponent: head -->


<!-- renderPart: hexagonal -->
<path d="M305.625 340.625 L338.125 340 L338.125 380 L305.625 379.375 Z" stroke-width="0.5" stroke="black" stroke-linejoin="round" fill="silver" fill-opacity="1"/>
<line x1="328.125" y1="360" x2="360.625" y2="360" stroke-width="1.5" stroke="gray" fill="gray" stroke-opacity="1.0"/>
<line x1="328.125" y1="360" x2="360.625" y2="360" stroke-width="0.5" stroke="black" fill="none" stroke-opacity="0.5"/>

<!-- TAPER START: hexagonal -->
<path d="M 328.125 340 C 298.3125 345, 298.3125 355, 328.125 360" stroke-width="1.0" stroke="black" stroke-linecap="round" fill-opacity="1" fill="none" /><path d="M 328.125 380 C 298.3125 375, 298.3125 365, 328.125 360" stroke-width="1.0" stroke="black" stroke-linecap="round" fill-opacity="1" fill="none" />

<!-- renderSideComponent: grip -->


<!-- renderPart: hexagonal -->
<path d="M338.125 340 L344.375 340 L344.375 380 L338.125 380 Z" stroke-width="0.5" stroke="black" stroke-linejoin="round" fill="silver" fill-opacity="1"/>
<line x1="338.125" y1="360" x2="344.375" y2="360" stroke-width="1.5" stroke="gray" fill="gray" stroke-opacity="1.0"/>
<line x1="338.125" y1="360" x2="344.375" y2="360" stroke-width="0.5" stroke="black" fill="none" stroke-opacity="0.5"/>


<!-- renderPart: hexagonal -->
<path d="M344.375 340.625 L350.625 340.625 L350.625 379.375 L344.375 379.375 Z" stroke-width="0.5" stroke="black" stroke-linejoin="round" fill="silver" fill-opacity="1"/>
<line x1="344.375" y1="360" x2="350.625" y2="360" stroke-width="1.5" stroke="gray" fill="gray" stroke-opacity="1.0"/>
<line x1="344.375" y1="360" x2="350.625" y2="360" stroke-width="0.5" stroke="black" fill="none" stroke-opacity="0.5"/>


<!-- renderPart: hexagonal -->
<path d="M350.625 340 L356.875 340 L356.875 380 L350.625 380 Z" stroke-width="0.5" stroke="black" stroke-linejoin="round" fill="silver" fill-opacity="1"/>
<line x1="350.625" y1="360" x2="356.875" y2="360" stroke-width="1.5" stroke="gray" fill="gray" stroke-opacity="1.0"/>
<line x1="350.625" y1="360" x2="356.875" y2="360" stroke-width="0.5" stroke="black" fill="none" stroke-opacity="0.5"/>


<!-- renderPart: hexagonal -->
<path d="M356.875 340.625 L363.125 340.625 L363.125 379.375 L356.875 379.375 Z" stroke-width="0.5" stroke="black" stroke-linejoin="round" fill="silver" fill-opacity="1"/>
<line x1="356.875" y1="360" x2="363.125" y2="360" stroke-width="1.5" stroke="gray" fill="gray" stroke-opacity="1.0"/>
<line x1="356.875" y1="360" x2="363.125" y2="360" stroke-width="0.5" stroke="black" fill="none" stroke-opacity="0.5"/>


<!-- renderPart: hexagonal -->
<path d="M363.125 340 L369.375 340 L369.375 380 L363.125 380 Z" stroke-width="0.5" stroke="black" stroke-linejoin="round" fill="silver" fill-opacity="1"/>
<line x1="363.125" y1="360" x2="369.375" y2="360" stroke-width="1.5" stroke="gray" fill="gray" stroke-opacity="1.0"/>
<line x1="363.125" y1="360" x2="369.375" y2="360" stroke-width="0.5" stroke="black" fill="none" stroke-opacity="0.5"/>


<!-- renderPart: hexagonal -->
<path d="M369.375 340.625 L375.625 340.625 L375.625 379.375 L369.375 379.375 Z" stroke-width="0.5" stroke="black" stroke-linejoin="round" fill="silver" fill-opacity="1"/>
<line x1="369.375" y1="360" x2="375.625" y2="360" stroke-width="1.5" stroke="gray" fill="gray" stroke-opacity="1.0"/>
<line x1="369.375" y1="360" x2="375.625" y2="360" stroke-width="0.5" stroke="black" fill="none" stroke-opacity="0.5"/>


<!-- renderPart: hexagonal -->
<path d="M375.625 340 L381.875 340 L381.875 380 L375.625 380 Z" stroke-width="0.5" stroke="black" stroke-linejoin="round" fill="silver" fill-opacity="1"/>
<line x1="375.625" y1="360" x2="381.875" y2="360" stroke-width="1.5" stroke="gray" fill="gray" stroke-opacity="1.0"/>
<line x1="375.625" y1="360" x2="381.875" y2="360" stroke-width="0.5" stroke="black" fill="none" stroke-opacity="0.5"/>


<!-- renderPart: hexagonal -->
<path d="M381.875 340.625 L388.125 340.625 L388.125 379.375 L381.875 379.375 Z" stroke-width="0.5" stroke="black" stroke-linejoin="round" fill="silver" fill-opacity="1"/>
<line x1="381.875" y1="360" x2="388.125" y2="360" stroke-width="1.5" stroke="gray" fill="gray" stroke-opacity="1.0"/>
<line x1="381.875" y1="360" x2="388.125" y2="360" stroke-width="0.5" stroke="black" fill="none" stroke-opacity="0.5"/>


<!-- renderPart: hexagonal -->
<path d="M388.125 340 L394.375 340 L394.375 380 L388.125 380 Z" stroke-width="0.5" stroke="black" stroke-linejoin="round" fill="silver" fill-opacity="1"/>
<line x1="388.125" y1="360" x2="394.375" y2="360" stroke-width="1.5" stroke="gray" fill="gray" stroke-opacity="1.0"/>
<line x1="388.125" y1="360" x2="394.375" y2="360" stroke-width="0.5" stroke="black" fill="none" stroke-opacity="0.5"/>


<!-- renderPart: hexagonal -->
<path d="M394.375 340.625 L400.625 340.625 L400.625 379.375 L394.375 379.375 Z" stroke-width="0.5" stroke="black" stroke-linejoin="round" fill="silver" fill-opacity="1"/>
<line x1="394.375" y1="360" x2="400.625" y2="360" stroke-width="1.5" stroke="gray" fill="gray" stroke-opacity="1.0"/>
<line x1="394.375" y1="360" x2="400.625" y2="360" stroke-width="0.5" stroke="black" fill="none" stroke-opacity="0.5"/>


<!-- renderPart: hexagonal -->
<path d="M400.625 340 L406.875 340 L406.875 380 L400.625 380 Z" stroke-width="0.5" stroke="black" stroke-linejoin="round" fill="silver" fill-opacity="1"/>
<line x1="400.625" y1="360" x2="406.875" y2="360" stroke-width="1.5" stroke="gray" fill="gray" stroke-opacity="1.0"/>
<line x1="400.625" y1="360" x2="406.875" y2="360" stroke-width="0.5" stroke="black" fill="none" stroke-opacity="0.5"/>


<!-- renderPart: hexagonal -->
<path d="M406.875 340.625 L413.125 340.625 L413.125 379.375 L406.875 379.375 Z" stroke-width="0.5" stroke="black" stroke-linejoin="round" fill="silver" fill-opacity="1"/>
<line x1="406.875" y1="360" x2="413.125" y2="360" stroke-width="1.5" stroke="gray" fill="gray" stroke-opacity="1.0"/>
<line x1="406.875" y1="360" x2="413.125" y2="360" stroke-width="0.5" stroke="black" fill="none" stroke-opacity="0.5"/>


<!-- renderPart: hexagonal -->
<path d="M413.125 340 L419.375 340 L419.375 380 L413.125 380 Z" stroke-width="0.5" stroke="black" stroke-linejoin="round" fill="silver" fill-opacity="1"/>
<line x1="413.125" y1="360" x2="419.375" y2="360" stroke-width="1.5" stroke="gray" fill="gray" stroke-opacity="1.0"/>
<line x1="413.125" y1="360" x2="419.375" y2="360" stroke-width="0.5" stroke="black" fill="none" stroke-opacity="0.5"/>


<!-- renderPart: hexagonal -->
<path d="M419.375 340.625 L425.625 340.625 L425.625 379.375 L419.375 379.375 Z" stroke-width="0.5" stroke="black" stroke-linejoin="round" fill="silver" fill-opacity="1"/>
<line x1="419.375" y1="360" x2="425.625" y2="360" stroke-width="1.5" stroke="gray" fill="gray" stroke-opacity="1.0"/>
<line x1="419.375" y1="360" x2="425.625" y2="360" stroke-width="0.5" stroke="black" fill="none" stroke-opacity="0.5"/>


<!-- renderPart: hexagonal -->
<path d="M425.625 340 L431.875 340 L431.875 380 L425.625 380 Z" stroke-width="0.5" stroke="black" stroke-linejoin="round" fill="silver" fill-opacity="1"/>
<line x1="425.625" y1="360" x2="431.875" y2="360" stroke-width="1.5" stroke="gray" fill="gray" stroke-opacity="1.0"/>
<line x1="425.625" y1="360" x2="431.875" y2="360" stroke-width="0.5" stroke="black" fill="none" stroke-opacity="0.5"/>


<!-- renderPart: hexagonal -->
<path d="M431.875 340.625 L438.125 340.625 L438.125 379.375 L431.875 379.375 Z" stroke-width="0.5" stroke="black" stroke-linejoin="round" fill="silver" fill-opacity="1"/>
<line x1="431.875" y1="360" x2="438.125" y2="360" stroke-width="1.5" stroke="gray" fill="gray" stroke-opacity="1.0"/>
<line x1="431.875" y1="360" x2="438.125" y2="360" stroke-width="0.5" stroke="black" fill="none" stroke-opacity="0.5"/>


<!-- renderPart: hexagonal -->
<path d="M438.125 340 L444.375 340 L444.375 380 L438.125 380 Z" stroke-width="0.5" stroke="black" stroke-linejoin="round" fill="silver" fill-opacity="1"/>
<line x1="438.125" y1="360" x2="444.375" y2="360" stroke-width="1.5" stroke="gray" fill="gray" stroke-opacity="1.0"/>
<line x1="438.125" y1="360" x2="444.375" y2="360" stroke-width="0.5" stroke="black" fill="none" stroke-opacity="0.5"/>


<!-- renderPart: hexagonal -->
<path d="M444.375 340.625 L450.625 340.625 L450.625 379.375 L444.375 379.375 Z" stroke-width="0.5" stroke="black" stroke-linejoin="round" fill="silver" fill-opacity="1"/>
<line x1="444.375" y1="360" x2="450.625" y2="360" stroke-width="1.5" stroke="gray" fill="gray" stroke-opacity="1.0"/>
<line x1="444.375" y1="360" x2="450.625" y2="360" stroke-width="0.5" stroke="black" fill="none" stroke-opacity="0.5"/>


<!-- renderPart: hexagonal -->
<path d="M450.625 340 L456.875 340 L456.875 380 L450.625 380 Z" stroke-width="0.5" stroke="black" stroke-linejoin="round" fill="silver" fill-opacity="1"/>
<line x1="450.625" y1="360" x2="456.875" y2="360" stroke-width="1.5" stroke="gray" fill="gray" stroke-opacity="1.0"/>
<line x1="450.625" y1="360" x2="456.875" y2="360" stroke-width="0.5" stroke="black" fill="none" stroke-opacity="0.5"/>


<!-- renderPart: hexagonal -->
<path d="M456.875 340.625 L463.125 340.625 L463.125 379.375 L456.875 379.375 Z" stroke-width="0.5" stroke="black" stroke-linejoin="round" fill="silver" fill-opacity="1"/>
<line x1="456.875" y1="360" x2="463.125" y2="360" stroke-width="1.5" stroke="gray" fill="gray" stroke-opacity="1.0"/>
<line x1="456.875" y1="360" x2="463.125" y2="360" stroke-width="0.5" stroke="black" fill="none" stroke-opacity="0.5"/>


<!-- renderPart: hexagonal -->
<path d="M463.125 340 L469.375 340 L469.375 380 L463.125 380 Z" stroke-width="0.5" stroke="black" stroke-linejoin="round" fill="silver" fill-opacity="1"/>
<line x1="463.125" y1="360" x2="469.375" y2="360" stroke-width="1.5" stroke="gray" fill="gray" stroke-opacity="1.0"/>
<line x1="463.125" y1="360" x2="469.375" y2="360" stroke-width="0.5" stroke="black" fill="none" stroke-opacity="0.5"/>


<!-- renderPart: hexagonal -->
<path d="M469.375 340.625 L475.625 340.625 L475.625 379.375 L469.375 379.375 Z" stroke-width="0.5" stroke="black" stroke-linejoin="round" fill="silver" fill-opacity="1"/>
<line x1="469.375" y1="360" x2="475.625" y2="360" stroke-width="1.5" stroke="gray" fill="gray" stroke-opacity="1.0"/>
<line x1="469.375" y1="360" x2="475.625" y2="360" stroke-width="0.5" stroke="black" fill="none" stroke-opacity="0.5"/>


<!-- renderPart: hexagonal -->
<path d="M475.625 340 L481.875 340 L481.875 380 L475.625 380 Z" stroke-width="0.5" stroke="black" stroke-linejoin="round" fill="silver" fill-opacity="1"/>
<line x1="475.625" y1="360" x2="481.875" y2="360" stroke-width="1.5" stroke="gray" fill="gray" stroke-opacity="1.0"/>
<line x1="475.625" y1="360" x2="481.875" y2="360" stroke-width="0.5" stroke="black" fill="none" stroke-opacity="0.5"/>


<!-- renderPart: hexagonal -->
<path d="M481.875 340.625 L488.125 340.625 L488.125 379.375 L481.875 379.375 Z" stroke-width="0.5" stroke="black" stroke-linejoin="round" fill="silver" fill-opacity="1"/>
<line x1="481.875" y1="360" x2="488.125" y2="360" stroke-width="1.5" stroke="gray" fill="gray" stroke-opacity="1.0"/>
<line x1="481.875" y1="360" x2="488.125" y2="360" stroke-width="0.5" stroke="black" fill="none" stroke-opacity="0.5"/>


<!-- renderPart: hexagonal -->
<path d="M488.125 340 L494.375 340 L494.375 380 L488.125 380 Z" stroke-width="0.5" stroke="black" stroke-linejoin="round" fill="silver" fill-opacity="1"/>
<line x1="488.125" y1="360" x2="494.375" y2="360" stroke-width="1.5" stroke="gray" fill="gray" stroke-opacity="1.0"/>
<line x1="488.125" y1="360" x2="494.375" y2="360" stroke-width="0.5" stroke="black" fill="none" stroke-opacity="0.5"/>


<!-- renderPart: hexagonal -->
<path d="M494.375 340.625 L500.625 340.625 L500.625 379.375 L494.375 379.375 Z" stroke-width="0.5" stroke="black" stroke-linejoin="round" fill="silver" fill-opacity="1"/>
<line x1="494.375" y1="360" x2="500.625" y2="360" stroke-width="1.5" stroke="gray" fill="gray" stroke-opacity="1.0"/>
<line x1="494.375" y1="360" x2="500.625" y2="360" stroke-width="0.5" stroke="black" fill="none" stroke-opacity="0.5"/>


<!-- renderSideComponent: body -->


<!-- renderPart: hexagonal -->
<path d="M500.625 340 L820.625 340 L820.625 380 L500.625 380 Z" stroke-width="0.5" stroke="black" stroke-linejoin="round" fill="silver" fill-opacity="1"/>
<line x1="500.625" y1="360" x2="820.625" y2="360" stroke-width="1.5" stroke="gray" fill="gray" stroke-opacity="1.0"/>
<line x1="500.625" y1="360" x2="820.625" y2="360" stroke-width="0.5" stroke="black" fill="none" stroke-opacity="0.5"/>


<!-- renderSideComponent: clip -->
<path d="M685.625 332.25 Q708.125 348.5 718.125 328.5" stroke-width="4" stroke="black" fill="none" stroke-linecap="round" />
<path d="M685.625 331 Q775.625 318.5 868.125 331" stroke-width="4" stroke="black" fill="none" stroke-linecap="round" />
<path d="M868.125 331 Q873.125 334.75 868.125 338.5" stroke-width="4" stroke="black" fill="none" stroke-linecap="round" />
<line x1="868.125" y1="338.5" x2="853.125" y2="338.5" stroke-width="4" stroke="black" fill="dimgray" stroke-linecap="round" />


<!-- renderPart: hexagonal -->
<path d="M820.625 337.5 L854.375 337.5 L854.375 382.5 L820.625 382.5 Z" stroke-width="0.5" stroke="black" stroke-linejoin="round" fill="silver" fill-opacity="1"/>
<line x1="820.625" y1="360" x2="854.375" y2="360" stroke-width="1.5" stroke="gray" fill="gray" stroke-opacity="1.0"/>
<line x1="820.625" y1="360" x2="854.375" y2="360" stroke-width="0.5" stroke="black" fill="none" stroke-opacity="0.5"/>
<path d="M685.625 332.25 Q708.125 348.5 718.125 328.5" stroke-width="3" stroke="silver" fill="none" stroke-linecap="round" />
<path d="M685.625 331 Q775.625 318.5 868.125 331" stroke-width="3" stroke="silver" fill="none" stroke-linecap="round" />
<path d="M868.125 331 Q873.125 334.75 868.125 338.5" stroke-width="3" stroke="silver" fill="none" stroke-linecap="round" />
<line x1="868.125" y1="338.5" x2="853.125" y2="338.5" stroke-width="3" stroke="silver" fill="silver" stroke-linecap="round" />


<!-- renderSideComponent: tail -->


<!-- renderPart: hexagonal -->
<path d="M854.375 340 L910.625 340 L910.625 380 L854.375 380 Z" stroke-width="0.5" stroke="black" stroke-linejoin="round" fill="silver" fill-opacity="1"/>
<line x1="854.375" y1="360" x2="910.625" y2="360" stroke-width="1.5" stroke="gray" fill="gray" stroke-opacity="1.0"/>
<line x1="854.375" y1="360" x2="910.625" y2="360" stroke-width="0.5" stroke="black" fill="none" stroke-opacity="0.5"/>


<!-- renderPart: cylinder -->
<path d="M890.625 468.125 L910.625 468.125 L910.625 491.875 L890.625 491.875 Z" stroke-width="0.5" stroke="black" stroke-linejoin="round" fill="#ffffff" fill-opacity="1"/>


<!-- renderSideComponent: eraser -->


<!-- renderPart: cylinder -->
<path d="M910.625 468.125 L950.625 468.125 L950.625 491.875 L910.625 491.875 Z" stroke-width="0.5" stroke="black" stroke-linejoin="round" fill="#ffffff" fill-opacity="1"/>


<!-- renderPart: cylinder -->
<path d="M861.875 587.5 L891.875 587.5 L891.875 612.5 L861.875 612.5 Z" stroke-width="0.5" stroke="black" stroke-linejoin="round" fill="silver" fill-opacity="1"/>


<!-- renderPart: cylinder -->
<path d="M891.875 583.75 L910.625 583.75 L910.625 616.25 L891.875 616.25 Z" stroke-width="0.5" stroke="black" stroke-linejoin="round" fill="silver" fill-opacity="1"/>


<!-- renderSideComponent: cap -->


<!-- renderPart: cylinder -->
<path d="M910.625 583.75 L943.125 583.75 L943.125 616.25 L910.625 616.25 Z" stroke-width="0.5" stroke="black" stroke-linejoin="round" fill="silver" fill-opacity="1"/>


<!-- renderPart: cylinder -->
<path d="M943.125 585 L948.125 585 L948.125 615 L943.125 615 Z" stroke-width="0.5" stroke="black" stroke-linejoin="round" fill="silver" fill-opacity="1"/>


<!-- renderPart: cylinder -->
<path d="M948.125 583.75 L953.125 583.75 L953.125 616.25 L948.125 616.25 Z" stroke-width="0.5" stroke="black" stroke-linejoin="round" fill="silver" fill-opacity="1"/>
<path d="M948.125 583.75 L953.125 583.75 L953.125 616.25 L948.125 616.25 Z" stroke-width="1.0" stroke="black" fill="url(#lined)"/>


<!-- renderPart: cylinder -->
<path d="M953.125 589.375 L954.375 589.375 L954.375 610.625 L953.125 610.625 Z" stroke-width="0.5" stroke="black" stroke-linejoin="round" fill="silver" fill-opacity="1"/>


<!-- DASHED JOIN -->
<path d="M 256.875 120 L 930.625 120 L 930.625 180 L 216.875 180 L 216.875 240 L 256.875 240 " fill="none" stroke="white" stroke-width="1" stroke-linecap="round"  />
<path d="M 256.875 120 L 930.625 120 L 930.625 180 L 216.875 180 L 216.875 240 L 256.875 240 " fill="none" stroke="black" stroke-width="1" stroke-dasharray="8,4" stroke-linecap="round"  />


<!-- ARROW START -->
<line x1="261.875" y1="120" x2="268.875" y2="120" stroke-linecap="round" stroke="#ffffff" stroke-width="2.0" />
<line x1="261.875" y1="120" x2="275.875" y2="112" stroke-linecap="round" stroke="#ffffff" stroke-width="2.0" />
<line x1="275.875" y1="112" x2="268.875" y2="120" stroke-linecap="round" stroke="#ffffff" stroke-width="2.0" />
<line x1="261.875" y1="120" x2="275.875" y2="128" stroke-linecap="round" stroke="#ffffff" stroke-width="2.0" />
<line x1="275.875" y1="128" x2="268.875" y2="120" stroke-linecap="round" stroke="#ffffff" stroke-width="2.0" />
<line x1="261.875" y1="120" x2="275.875" y2="112" stroke-linecap="round" stroke="#0f0f0f" stroke-width="1.0" />
<line x1="275.875" y1="112" x2="268.875" y2="120" stroke-linecap="round" stroke="#0f0f0f" stroke-width="1.0" />
<line x1="261.875" y1="120" x2="275.875" y2="128" stroke-linecap="round" stroke="#0f0f0f" stroke-width="1.0" />
<line x1="275.875" y1="128" x2="268.875" y2="120" stroke-linecap="round" stroke="#0f0f0f" stroke-width="1.0" />


<!-- ARROW START -->
<line x1="236.875" y1="240" x2="243.875" y2="240" stroke-linecap="round" stroke="#ffffff" stroke-width="2.0" />
<line x1="236.875" y1="240" x2="250.875" y2="232" stroke-linecap="round" stroke="#ffffff" stroke-width="2.0" />
<line x1="250.875" y1="232" x2="243.875" y2="240" stroke-linecap="round" stroke="#ffffff" stroke-width="2.0" />
<line x1="236.875" y1="240" x2="250.875" y2="248" stroke-linecap="round" stroke="#ffffff" stroke-width="2.0" />
<line x1="250.875" y1="248" x2="243.875" y2="240" stroke-linecap="round" stroke="#ffffff" stroke-width="2.0" />
<line x1="236.875" y1="240" x2="250.875" y2="232" stroke-linecap="round" stroke="#0f0f0f" stroke-width="1.0" />
<line x1="250.875" y1="232" x2="243.875" y2="240" stroke-linecap="round" stroke="#0f0f0f" stroke-width="1.0" />
<line x1="236.875" y1="240" x2="250.875" y2="248" stroke-linecap="round" stroke="#0f0f0f" stroke-width="1.0" />
<line x1="250.875" y1="248" x2="243.875" y2="240" stroke-linecap="round" stroke="#0f0f0f" stroke-width="1.0" />


<!-- DASHED JOIN -->
<path d="M 305.625 240 L 374.375 240 L 374.375 300 L 265.625 300 L 265.625 360 L 305.625 360 " fill="none" stroke="white" stroke-width="1" stroke-linecap="round"  />
<path d="M 305.625 240 L 374.375 240 L 374.375 300 L 265.625 300 L 265.625 360 L 305.625 360 " fill="none" stroke="black" stroke-width="1" stroke-dasharray="8,4" stroke-linecap="round"  />


<!-- ARROW START -->
<line x1="310.625" y1="240" x2="317.625" y2="240" stroke-linecap="round" stroke="#ffffff" stroke-width="2.0" />
<line x1="310.625" y1="240" x2="324.625" y2="232" stroke-linecap="round" stroke="#ffffff" stroke-width="2.0" />
<line x1="324.625" y1="232" x2="317.625" y2="240" stroke-linecap="round" stroke="#ffffff" stroke-width="2.0" />
<line x1="310.625" y1="240" x2="324.625" y2="248" stroke-linecap="round" stroke="#ffffff" stroke-width="2.0" />
<line x1="324.625" y1="248" x2="317.625" y2="240" stroke-linecap="round" stroke="#ffffff" stroke-width="2.0" />
<line x1="310.625" y1="240" x2="324.625" y2="232" stroke-linecap="round" stroke="#0f0f0f" stroke-width="1.0" />
<line x1="324.625" y1="232" x2="317.625" y2="240" stroke-linecap="round" stroke="#0f0f0f" stroke-width="1.0" />
<line x1="310.625" y1="240" x2="324.625" y2="248" stroke-linecap="round" stroke="#0f0f0f" stroke-width="1.0" />
<line x1="324.625" y1="248" x2="317.625" y2="240" stroke-linecap="round" stroke="#0f0f0f" stroke-width="1.0" />


<!-- ARROW START -->
<line x1="285.625" y1="360" x2="292.625" y2="360" stroke-linecap="round" stroke="#ffffff" stroke-width="2.0" />
<line x1="285.625" y1="360" x2="299.625" y2="352" stroke-linecap="round" stroke="#ffffff" stroke-width="2.0" />
<line x1="299.625" y1="352" x2="292.625" y2="360" stroke-linecap="round" stroke="#ffffff" stroke-width="2.0" />
<line x1="285.625" y1="360" x2="299.625" y2="368" stroke-linecap="round" stroke="#ffffff" stroke-width="2.0" />
<line x1="299.625" y1="368" x2="292.625" y2="360" stroke-linecap="round" stroke="#ffffff" stroke-width="2.0" />
<line x1="285.625" y1="360" x2="299.625" y2="352" stroke-linecap="round" stroke="#0f0f0f" stroke-width="1.0" />
<line x1="299.625" y1="352" x2="292.625" y2="360" stroke-linecap="round" stroke="#0f0f0f" stroke-width="1.0" />
<line x1="285.625" y1="360" x2="299.625" y2="368" stroke-linecap="round" stroke="#0f0f0f" stroke-width="1.0" />
<line x1="299.625" y1="368" x2="292.625" y2="360" stroke-linecap="round" stroke="#0f0f0f" stroke-width="1.0" />


<!-- DASHED JOIN -->
<path d="M 910.625 360 L 950.625 360 L 950.625 420 L 850.625 420 L 850.625 480 L 910.625 480 " fill="none" stroke="white" stroke-width="1" stroke-linecap="round"  />
<path d="M 910.625 360 L 950.625 360 L 950.625 420 L 850.625 420 L 850.625 480 L 910.625 480 " fill="none" stroke="black" stroke-width="1" stroke-dasharray="8,4" stroke-linecap="round"  />


<!-- ARROW START -->
<line x1="915.625" y1="360" x2="922.625" y2="360" stroke-linecap="round" stroke="#ffffff" stroke-width="2.0" />
<line x1="915.625" y1="360" x2="929.625" y2="352" stroke-linecap="round" stroke="#ffffff" stroke-width="2.0" />
<line x1="929.625" y1="352" x2="922.625" y2="360" stroke-linecap="round" stroke="#ffffff" stroke-width="2.0" />
<line x1="915.625" y1="360" x2="929.625" y2="368" stroke-linecap="round" stroke="#ffffff" stroke-width="2.0" />
<line x1="929.625" y1="368" x2="922.625" y2="360" stroke-linecap="round" stroke="#ffffff" stroke-width="2.0" />
<line x1="915.625" y1="360" x2="929.625" y2="352" stroke-linecap="round" stroke="#0f0f0f" stroke-width="1.0" />
<line x1="929.625" y1="352" x2="922.625" y2="360" stroke-linecap="round" stroke="#0f0f0f" stroke-width="1.0" />
<line x1="915.625" y1="360" x2="929.625" y2="368" stroke-linecap="round" stroke="#0f0f0f" stroke-width="1.0" />
<line x1="929.625" y1="368" x2="922.625" y2="360" stroke-linecap="round" stroke="#0f0f0f" stroke-width="1.0" />


<!-- ARROW START -->
<line x1="870.625" y1="480" x2="877.625" y2="480" stroke-linecap="round" stroke="#ffffff" stroke-width="2.0" />
<line x1="870.625" y1="480" x2="884.625" y2="472" stroke-linecap="round" stroke="#ffffff" stroke-width="2.0" />
<line x1="884.625" y1="472" x2="877.625" y2="480" stroke-linecap="round" stroke="#ffffff" stroke-width="2.0" />
<line x1="870.625" y1="480" x2="884.625" y2="488" stroke-linecap="round" stroke="#ffffff" stroke-width="2.0" />
<line x1="884.625" y1="488" x2="877.625" y2="480" stroke-linecap="round" stroke="#ffffff" stroke-width="2.0" />
<line x1="870.625" y1="480" x2="884.625" y2="472" stroke-linecap="round" stroke="#0f0f0f" stroke-width="1.0" />
<line x1="884.625" y1="472" x2="877.625" y2="480" stroke-linecap="round" stroke="#0f0f0f" stroke-width="1.0" />
<line x1="870.625" y1="480" x2="884.625" y2="488" stroke-linecap="round" stroke="#0f0f0f" stroke-width="1.0" />
<line x1="884.625" y1="488" x2="877.625" y2="480" stroke-linecap="round" stroke="#0f0f0f" stroke-width="1.0" />
<line x1="910.625" y1="440" x2="910.625" y2="520" stroke="white" stroke-linecap="round"  stroke-width="1" />
<line x1="910.625" y1="440" x2="910.625" y2="520" stroke="dimgray" stroke-linecap="round" stroke-dasharray="3,3" stroke-width="1" />


<!-- DASHED JOIN -->
<path d="M 910.625 480 L 990.625 480 L 990.625 540 L 821.875 540 L 821.875 600 L 910.625 600 " fill="none" stroke="white" stroke-width="1" stroke-linecap="round"  />
<path d="M 910.625 480 L 990.625 480 L 990.625 540 L 821.875 540 L 821.875 600 L 910.625 600 " fill="none" stroke="black" stroke-width="1" stroke-dasharray="8,4" stroke-linecap="round"  />


<!-- ARROW START -->
<line x1="915.625" y1="480" x2="922.625" y2="480" stroke-linecap="round" stroke="#ffffff" stroke-width="2.0" />
<line x1="915.625" y1="480" x2="929.625" y2="472" stroke-linecap="round" stroke="#ffffff" stroke-width="2.0" />
<line x1="929.625" y1="472" x2="922.625" y2="480" stroke-linecap="round" stroke="#ffffff" stroke-width="2.0" />
<line x1="915.625" y1="480" x2="929.625" y2="488" stroke-linecap="round" stroke="#ffffff" stroke-width="2.0" />
<line x1="929.625" y1="488" x2="922.625" y2="480" stroke-linecap="round" stroke="#ffffff" stroke-width="2.0" />
<line x1="915.625" y1="480" x2="929.625" y2="472" stroke-linecap="round" stroke="#0f0f0f" stroke-width="1.0" />
<line x1="929.625" y1="472" x2="922.625" y2="480" stroke-linecap="round" stroke="#0f0f0f" stroke-width="1.0" />
<line x1="915.625" y1="480" x2="929.625" y2="488" stroke-linecap="round" stroke="#0f0f0f" stroke-width="1.0" />
<line x1="929.625" y1="488" x2="922.625" y2="480" stroke-linecap="round" stroke="#0f0f0f" stroke-width="1.0" />


<!-- ARROW START -->
<line x1="841.875" y1="600" x2="848.875" y2="600" stroke-linecap="round" stroke="#ffffff" stroke-width="2.0" />
<line x1="841.875" y1="600" x2="855.875" y2="592" stroke-linecap="round" stroke="#ffffff" stroke-width="2.0" />
<line x1="855.875" y1="592" x2="848.875" y2="600" stroke-linecap="round" stroke="#ffffff" stroke-width="2.0" />
<line x1="841.875" y1="600" x2="855.875" y2="608" stroke-linecap="round" stroke="#ffffff" stroke-width="2.0" />
<line x1="855.875" y1="608" x2="848.875" y2="600" stroke-linecap="round" stroke="#ffffff" stroke-width="2.0" />
<line x1="841.875" y1="600" x2="855.875" y2="592" stroke-linecap="round" stroke="#0f0f0f" stroke-width="1.0" />
<line x1="855.875" y1="592" x2="848.875" y2="600" stroke-linecap="round" stroke="#0f0f0f" stroke-width="1.0" />
<line x1="841.875" y1="600" x2="855.875" y2="608" stroke-linecap="round" stroke="#0f0f0f" stroke-width="1.0" />
<line x1="855.875" y1="608" x2="848.875" y2="600" stroke-linecap="round" stroke="#0f0f0f" stroke-width="1.0" />
<line x1="910.625" y1="560" x2="910.625" y2="640" stroke="white" stroke-linecap="round"  stroke-width="1" />
<line x1="910.625" y1="560" x2="910.625" y2="640" stroke="dimgray" stroke-linecap="round" stroke-dasharray="3,3" stroke-width="1" />
</g><text x="50%" y="680" font-size="1.1em" font-weight="bold" text-anchor="middle" dominant-baseline="middle">Copyright (c) // Synapticloop and The Mechanical Pencil Database (tmpdb)</text>
<text x="50%" y="700" font-size="1.1em" font-weight="bold" text-anchor="middle" dominant-baseline="middle">Licensed under Creative Commons Attribution-NonCommercial-ShareAlike 4.0 International</text>
<text x="1190" y="710" font-size="0.5em" font-weight="bold" text-anchor="end" dominant-baseline="middle">SVGTechnicalExplodedRenderer</text>
</svg>