<svg xmlns="http://www.w3.org/2000/svg" width="1500" height="600">
<pattern id="diagonalHatch" patternUnits="userSpaceOnUse" width="8" height="8">
<rect width="6" height="6" fill='none'/>
<path stroke="dimgray" stroke-linecap="round" stroke-width="1" d="M 4,4 L 8,8"/>
<path stroke="dimgray" stroke-linecap="round" stroke-width="1" d="M 4,4 L 0,8"/>
<path stroke="gray" stroke-linecap="round" stroke-width="1" d="M 4,4 L 8,0" />
<path stroke="gray" stroke-linecap="round" stroke-width="1" d="M 4,4 L 0,0" />
</pattern>
<rect x="0" y="0" width="1500" height="600" fill="white" stroke="black" stroke-width="4" />
<rect x="2" y="2" width="1496" height="596" fill="white" stroke="orange" stroke-width="1" />
<line x1="2" y1="300" x2="1498" y2="300" stroke="#8f8f8f" stroke-width="1" />
<line x1="20" y1="280" x2="20" y2="320" stroke="#8f8f8f" stroke-width="1" />
<circle r="10" cx="20" cy="300" fill="none" stroke="#8f8f8f" stroke-width="1"  />
<line x1="1480" y1="280" x2="1480" y2="320" stroke="#8f8f8f" stroke-width="1" />
<circle r="10" cx="1480" cy="300" fill="none" stroke="#8f8f8f" stroke-width="1"  />
<line x1="160" y1="160" x2="160" y2="520" stroke="#8f8f8f" stroke-width="1" />
<circle r="10" cx="160" cy="180" fill="none" stroke="#8f8f8f" stroke-width="1"  />
<line x1="140" y1="180" x2="180" y2="180" stroke="#8f8f8f" stroke-width="1" />
<circle r="10" cx="160" cy="500" fill="none" stroke="#8f8f8f" stroke-width="1"  />
<line x1="140" y1="500" x2="180" y2="500" stroke="#8f8f8f" stroke-width="1" />
<text x="30" y="50" font-size="2.0em" font-weight="bold"> Easy Come Easy Go // amp-35601 </text>
<text x="30" y="80" font-size="1.1em"> EASY COME EASY GO 2.0</text>
<text x="1480" y="30" font-size="1.6em" font-weight="bold" text-anchor="end" dominant-baseline="central">'body' colour variants</text>
<rect x="1440" y="55" width="40" rx="50%" ry="50%" height="40" stroke="black" stroke-width="2" fill="#FFA07A" />
<text x="1460" y="100" transform="rotate(-90, 1460, 100)" font-size="1.2em" font-weight="bold" text-anchor="end" dominant-baseline="central">pink</text>
<rect x="1380" y="55" width="40" rx="50%" ry="50%" height="40" stroke="black" stroke-width="2" fill="#000000" />
<text x="1400" y="100" transform="rotate(-90, 1400, 100)" font-size="1.2em" font-weight="bold" text-anchor="end" dominant-baseline="central">black</text>
<text x="30" y="106" font-size="1.2em" font-weight="bold" text-anchor="start" dominant-baseline="central">Materials:</text>
<text x="50" y="126" font-size="1.2em" text-anchor="start" dominant-baseline="central"> - plastic</text>
<line x1="100" y1="268.375" x2="1400" y2="268.375" stroke="#cfcfcf" stroke-width="1" />
<line x1="160" y1="278.375" x2="1400" y2="278.375" stroke="#cfcfcf" stroke-width="1" />
<line x1="150" y1="230" x2="150" y2="300" stroke="#cfcfcf" stroke-width="1" />
<line x1="170" y1="230" x2="170" y2="300" stroke="#cfcfcf" stroke-width="1" />
<line x1="160" y1="276.875" x2="1400" y2="276.875" stroke="#cfcfcf" stroke-width="1" />
<line x1="100" y1="323.125" x2="1400" y2="323.125" stroke="#cfcfcf" stroke-width="1" />
<line x1="136.875" y1="300" x2="136.875" y2="343.125" stroke="#cfcfcf" stroke-width="1" />
<line x1="183.125" y1="300" x2="183.125" y2="343.125" stroke="#cfcfcf" stroke-width="1" />
<line x1="391.875" y1="180" x2="391.875" y2="420" stroke="#cfcfcf" stroke-width="1" />
<line x1="490.625" y1="180" x2="490.625" y2="420" stroke="#cfcfcf" stroke-width="1" />
<line x1="989.375" y1="180" x2="989.375" y2="420" stroke="#cfcfcf" stroke-width="1" />
<line x1="818.125" y1="220" x2="818.125" y2="380" stroke="#cfcfcf" stroke-width="1" />
<line x1="1020.625" y1="220" x2="1020.625" y2="380" stroke="#cfcfcf" stroke-width="1" />
<line x1="1013.125" y1="180" x2="1013.125" y2="420" stroke="#cfcfcf" stroke-width="1" />
<line x1="1030.625" y1="180" x2="1030.625" y2="420" stroke="#cfcfcf" stroke-width="1" />
<line x1="1108.125" y1="188.875" x2="1108.125" y2="396.875" stroke="#cfcfcf" stroke-width="1" />
<text x="160" y="540" font-size="1.8em" font-weight="bold" text-anchor="middle" dominant-baseline="central">Front</text>
<text x="750" y="540" font-size="1.8em" font-weight="bold" text-anchor="middle" dominant-baseline="central">Side view</text>
<text x="1400" y="540" font-size="1.8em" font-weight="bold" text-anchor="middle" dominant-baseline="central">Back</text>
<line x1="150" y1="229" x2="150" y2="251" stroke="red" stroke-width="1" />
<line x1="150" y1="240" x2="170" y2="240" stroke="red" stroke-width="1" />
<line x1="170" y1="229" x2="170" y2="251" stroke="red" stroke-width="1" />
<text x="160" y="221" font-size="1.2em" font-weight="bold" text-anchor="middle" dominant-baseline="central" fill="red"><tspan x="160" dy="0">4.00 mm</tspan></text>
<line x1="211" y1="268.375" x2="233" y2="268.375" stroke="red" stroke-width="1" />
<line x1="222" y1="268.375" x2="222" y2="278.375" stroke="red" stroke-width="1" />
<line x1="211" y1="278.375" x2="233" y2="278.375" stroke="red" stroke-width="1" />
<text x="235" y="273.375" font-size="1.2em" font-weight="bold" text-anchor="start" dominant-baseline="central" fill="red">2.00 mm</text>
<line x1="199" y1="276.875" x2="221" y2="276.875" stroke="red" stroke-width="1" />
<line x1="210" y1="276.875" x2="210" y2="323.125" stroke="red" stroke-width="1" />
<line x1="199" y1="323.125" x2="221" y2="323.125" stroke="red" stroke-width="1" />
<text x="223" y="300" font-size="1.2em" font-weight="bold" text-anchor="start" dominant-baseline="central" fill="red">9.25 mm</text>
<line x1="99" y1="268.375" x2="121" y2="268.375" stroke="red" stroke-width="1" />
<line x1="110" y1="268.375" x2="110" y2="323.125" stroke="red" stroke-width="1" />
<line x1="99" y1="323.125" x2="121" y2="323.125" stroke="red" stroke-width="1" />
<text x="91" y="295.75" transform="rotate(-90, 91, 295.75)" font-size="1.2em" font-weight="bold" text-anchor="middle" dominant-baseline="central" fill="red">10.95 mm</text>
<line x1="136.875" y1="342.125" x2="136.875" y2="364.125" stroke="red" stroke-width="1" />
<line x1="136.875" y1="353.125" x2="183.125" y2="353.125" stroke="red" stroke-width="1" />
<line x1="183.125" y1="342.125" x2="183.125" y2="364.125" stroke="red" stroke-width="1" />
<text x="160" y="372.125" font-size="1.2em" font-weight="bold" text-anchor="middle" dominant-baseline="central" fill="red"><tspan x="160" dy="0">9.25 mm</tspan></text>
<line x1="391.875" y1="169" x2="391.875" y2="191" stroke="red" stroke-width="1" />
<line x1="391.875" y1="180" x2="490.625" y2="180" stroke="red" stroke-width="1" />
<line x1="490.625" y1="169" x2="490.625" y2="191" stroke="red" stroke-width="1" />
<text x="441.25" y="161" font-size="1.2em" transform="rotate(-90, 429.25, 161)" font-weight="bold" text-anchor="start" dominant-baseline="central" fill="red"><tspan x="433.25" dy="0">19.75 mm</tspan><tspan x="433.25" dy="1.1em">tip</tspan></text>
<line x1="490.625" y1="169" x2="490.625" y2="191" stroke="red" stroke-width="1" />
<line x1="490.625" y1="180" x2="989.375" y2="180" stroke="red" stroke-width="1" />
<line x1="989.375" y1="169" x2="989.375" y2="191" stroke="red" stroke-width="1" />
<text x="740" y="161" font-size="1.2em" transform="rotate(-90, 728, 161)" font-weight="bold" text-anchor="start" dominant-baseline="central" fill="red"><tspan x="732" dy="0">99.75 mm</tspan><tspan x="732" dy="1.1em">body</tspan></text>
<line x1="989.375" y1="169" x2="989.375" y2="191" stroke="red" stroke-width="1" />
<line x1="989.375" y1="180" x2="1013.125" y2="180" stroke="red" stroke-width="1" />
<line x1="1013.125" y1="169" x2="1013.125" y2="191" stroke="red" stroke-width="1" />
<text x="1001.25" y="161" font-size="1.2em" transform="rotate(-90, 1001.25, 161)" font-weight="bold" text-anchor="start" dominant-baseline="central" fill="red"><tspan x="1001.25" dy="0">4.75 mm clip</tspan></text>
<line x1="818.125" y1="209" x2="818.125" y2="231" stroke="red" stroke-width="1" />
<line x1="818.125" y1="220" x2="1020.625" y2="220" stroke="red" stroke-width="1" />
<line x1="1020.625" y1="209" x2="1020.625" y2="231" stroke="red" stroke-width="1" />
<text x="919.375" y="212" font-weight="bold" font-size="1.2em" text-anchor="middle" dominant-baseline="middle" fill="red"><tspan x="911.375" dy="0">40.50 mm</tspan><tspan x="911.375" dy="1.1em">clip (extra)</tspan></text>
<line x1="1013.125" y1="169" x2="1013.125" y2="191" stroke="red" stroke-width="1" />
<line x1="1013.125" y1="180" x2="1030.625" y2="180" stroke="red" stroke-width="1" />
<line x1="1030.625" y1="169" x2="1030.625" y2="191" stroke="red" stroke-width="1" />
<text x="1021.875" y="161" font-size="1.2em" transform="rotate(-90, 1021.875, 161)" font-weight="bold" text-anchor="start" dominant-baseline="central" fill="red"><tspan x="1021.875" dy="0">3.50 mm tail</tspan></text>
<line x1="1030.625" y1="169" x2="1030.625" y2="191" stroke="red" stroke-width="1" />
<line x1="1030.625" y1="180" x2="1108.125" y2="180" stroke="red" stroke-width="1" />
<line x1="1108.125" y1="169" x2="1108.125" y2="191" stroke="red" stroke-width="1" />
<text x="1069.375" y="161" font-size="1.2em" transform="rotate(-90, 1057.375, 161)" font-weight="bold" text-anchor="start" dominant-baseline="central" fill="red"><tspan x="1061.375" dy="0">15.50 mm</tspan><tspan x="1061.375" dy="1.1em">cap</tspan></text>
<line x1="391.875" y1="409" x2="391.875" y2="431" stroke="red" stroke-width="1" />
<line x1="391.875" y1="420" x2="490.625" y2="420" stroke="red" stroke-width="1" />
<line x1="490.625" y1="409" x2="490.625" y2="431" stroke="red" stroke-width="1" />
<text x="441.25" y="439" font-size="1.2em" transform="rotate(-90, 441.25, 439)"  text-anchor="end" dominant-baseline="central" fill="red"><tspan x="441.25" dy="0">plastic</tspan></text>
<line x1="490.625" y1="409" x2="490.625" y2="431" stroke="red" stroke-width="1" />
<line x1="490.625" y1="420" x2="989.375" y2="420" stroke="red" stroke-width="1" />
<line x1="989.375" y1="409" x2="989.375" y2="431" stroke="red" stroke-width="1" />
<text x="740" y="439" font-size="1.2em" transform="rotate(-90, 740, 439)"  text-anchor="end" dominant-baseline="central" fill="red"><tspan x="740" dy="0">plastic</tspan></text>
<line x1="989.375" y1="409" x2="989.375" y2="431" stroke="red" stroke-width="1" />
<line x1="989.375" y1="420" x2="1013.125" y2="420" stroke="red" stroke-width="1" />
<line x1="1013.125" y1="409" x2="1013.125" y2="431" stroke="red" stroke-width="1" />
<text x="1001.25" y="439" font-size="1.2em" transform="rotate(-90, 1001.25, 439)"  text-anchor="end" dominant-baseline="central" fill="red"><tspan x="1001.25" dy="0">plastic</tspan></text>
<line x1="818.125" y1="369" x2="818.125" y2="391" stroke="red" stroke-width="1" />
<line x1="818.125" y1="380" x2="1020.625" y2="380" stroke="red" stroke-width="1" />
<line x1="1020.625" y1="369" x2="1020.625" y2="391" stroke="red" stroke-width="1" />
<text x="919.375" y="399" font-size="1.2em"  text-anchor="middle" dominant-baseline="central" fill="red"><tspan x="919.375" dy="0">plastic</tspan></text>
<line x1="1013.125" y1="409" x2="1013.125" y2="431" stroke="red" stroke-width="1" />
<line x1="1013.125" y1="420" x2="1030.625" y2="420" stroke="red" stroke-width="1" />
<line x1="1030.625" y1="409" x2="1030.625" y2="431" stroke="red" stroke-width="1" />
<text x="1021.875" y="439" font-size="1.2em" transform="rotate(-90, 1021.875, 439)"  text-anchor="end" dominant-baseline="central" fill="red"><tspan x="1021.875" dy="0">plastic</tspan></text>
<line x1="1030.625" y1="409" x2="1030.625" y2="431" stroke="red" stroke-width="1" />
<line x1="1030.625" y1="420" x2="1108.125" y2="420" stroke="red" stroke-width="1" />
<line x1="1108.125" y1="409" x2="1108.125" y2="431" stroke="red" stroke-width="1" />
<text x="1069.375" y="439" font-size="1.2em" transform="rotate(-90, 1069.375, 439)"  text-anchor="end" dominant-baseline="central" fill="red"><tspan x="1069.375" dy="0">plastic</tspan></text>
<line x1="1339" y1="280" x2="1361" y2="280" stroke="red" stroke-width="1" />
<line x1="1350" y1="280" x2="1350" y2="320" stroke="red" stroke-width="1" />
<line x1="1339" y1="320" x2="1361" y2="320" stroke="red" stroke-width="1" />
<text x="1331" y="300" transform="rotate(-90, 1331, 300)" font-size="1.2em" font-weight="bold" text-anchor="middle" dominant-baseline="central" fill="red">8 mm</text>
<line x1="1339" y1="280" x2="1361" y2="280" stroke="red" stroke-width="1" />
<line x1="1350" y1="280" x2="1350" y2="320" stroke="red" stroke-width="1" />
<line x1="1339" y1="320" x2="1361" y2="320" stroke="red" stroke-width="1" />
<text x="1350" y="328" transform="rotate(-90, 1350, 328)" font-weight="bold" font-size="1.2em" text-anchor="end" dominant-baseline="middle" fill="red">body</text>
<text x="50%" y="580" font-size="1.1em" font-weight="bold" text-anchor="middle" dominant-baseline="middle">Copyright (c) // The Mechanical Pencil Database (tmpdb) // Licensed under Creative Commons Attribution-NonCommercial-ShareAlike 4.0 International</text>
</svg>
