<svg xmlns="http://www.w3.org/2000/svg" width="1000" height="840">
 <pattern id="diagonalHatch" patternUnits="userSpaceOnUse" width="8" height="8">
<path stroke="dimgray" stroke-linecap="round" stroke-width="1" d="M 4,4 L 8,8"/>
<path stroke="dimgray" stroke-linecap="round" stroke-width="1" d="M 4,4 L 0,8"/>
<path stroke="gray" stroke-linecap="round" stroke-width="1" d="M 4,4 L 8,0" />
<path stroke="gray" stroke-linecap="round" stroke-width="1" d="M 4,4 L 0,0" />
</pattern>
<pattern id="spring" patternUnits="userSpaceOnUse" width="8" height="100">
<path stroke="dimgray" stroke-linecap="round" stroke-width="2" d="M 0,0 L 8,100"/>
<path stroke="white" stroke-linecap="round" stroke-width="1" d="M 0,0 L 8,100"/>
</pattern>
<rect x="0" y="0" width="1000" height="840" fill="white" stroke="black" stroke-width="4" />
<rect x="2" y="2" width="996" height="836" fill="white" stroke="dimgray" stroke-width="1" />
<g transform="rotate(0 0 0)">
<text x="30" y="50" font-size="2.0em" font-weight="bold"> OHTO // Sharp Pencil 2.0 (Model #: APS-680E)</text>
<line x1="719.3269230769231" y1="95.375" x2="719.3269230769231" y2="144.625" stroke-width="1" stroke="gray" />
<line x1="724.7115384615385" y1="95.375" x2="724.7115384615385" y2="144.625" stroke-width="1" stroke="gray" />
<line x1="730.0961538461538" y1="95.375" x2="730.0961538461538" y2="144.625" stroke-width="1" stroke="gray" />
<line x1="735.4807692307693" y1="95.375" x2="735.4807692307693" y2="144.625" stroke-width="1" stroke="gray" />
<line x1="740.8653846153846" y1="95.375" x2="740.8653846153846" y2="144.625" stroke-width="1" stroke="gray" />
<line x1="751.6346153846154" y1="95.375" x2="751.6346153846154" y2="144.625" stroke-width="1" stroke="gray" />
<line x1="757.0192307692307" y1="95.375" x2="757.0192307692307" y2="144.625" stroke-width="1" stroke="gray" />
<line x1="762.4038461538462" y1="95.375" x2="762.4038461538462" y2="144.625" stroke-width="1" stroke="gray" />
<line x1="767.7884615384615" y1="95.375" x2="767.7884615384615" y2="144.625" stroke-width="1" stroke="gray" />
<line x1="773.1730769230769" y1="95.375" x2="773.1730769230769" y2="144.625" stroke-width="1" stroke="gray" />
<circle r="4" cx="726.25" cy="107.1875" stroke="dimgray" stroke-width="1" fill="dimGray" />
<line x1="719.3269230769231" y1="215.375" x2="719.3269230769231" y2="264.625" stroke-width="1" stroke="gray" />
<line x1="724.7115384615385" y1="215.375" x2="724.7115384615385" y2="264.625" stroke-width="1" stroke="gray" />
<line x1="730.0961538461538" y1="215.375" x2="730.0961538461538" y2="264.625" stroke-width="1" stroke="gray" />
<line x1="735.4807692307693" y1="215.375" x2="735.4807692307693" y2="264.625" stroke-width="1" stroke="gray" />
<line x1="740.8653846153846" y1="215.375" x2="740.8653846153846" y2="264.625" stroke-width="1" stroke="gray" />
<line x1="751.6346153846154" y1="215.375" x2="751.6346153846154" y2="264.625" stroke-width="1" stroke="gray" />
<line x1="757.0192307692307" y1="215.375" x2="757.0192307692307" y2="264.625" stroke-width="1" stroke="gray" />
<line x1="762.4038461538462" y1="215.375" x2="762.4038461538462" y2="264.625" stroke-width="1" stroke="gray" />
<line x1="767.7884615384615" y1="215.375" x2="767.7884615384615" y2="264.625" stroke-width="1" stroke="gray" />
<line x1="773.1730769230769" y1="215.375" x2="773.1730769230769" y2="264.625" stroke-width="1" stroke="gray" />
<circle r="4" cx="726.25" cy="227.1875" stroke="dimgray" stroke-width="1" fill="dimGray" />
<line x1="719.3269230769231" y1="335.375" x2="719.3269230769231" y2="384.625" stroke-width="1" stroke="gray" />
<line x1="724.7115384615385" y1="335.375" x2="724.7115384615385" y2="384.625" stroke-width="1" stroke="gray" />
<line x1="730.0961538461538" y1="335.375" x2="730.0961538461538" y2="384.625" stroke-width="1" stroke="gray" />
<line x1="735.4807692307693" y1="335.375" x2="735.4807692307693" y2="384.625" stroke-width="1" stroke="gray" />
<line x1="740.8653846153846" y1="335.375" x2="740.8653846153846" y2="384.625" stroke-width="1" stroke="gray" />
<line x1="751.6346153846154" y1="335.375" x2="751.6346153846154" y2="384.625" stroke-width="1" stroke="gray" />
<line x1="757.0192307692307" y1="335.375" x2="757.0192307692307" y2="384.625" stroke-width="1" stroke="gray" />
<line x1="762.4038461538462" y1="335.375" x2="762.4038461538462" y2="384.625" stroke-width="1" stroke="gray" />
<line x1="767.7884615384615" y1="335.375" x2="767.7884615384615" y2="384.625" stroke-width="1" stroke="gray" />
<line x1="773.1730769230769" y1="335.375" x2="773.1730769230769" y2="384.625" stroke-width="1" stroke="gray" />
<circle r="4" cx="726.25" cy="347.1875" stroke="dimgray" stroke-width="1" fill="dimGray" />
<line x1="719.3269230769231" y1="455.375" x2="719.3269230769231" y2="504.625" stroke-width="1" stroke="gray" />
<line x1="724.7115384615385" y1="455.375" x2="724.7115384615385" y2="504.625" stroke-width="1" stroke="gray" />
<line x1="730.0961538461538" y1="455.375" x2="730.0961538461538" y2="504.625" stroke-width="1" stroke="gray" />
<line x1="735.4807692307693" y1="455.375" x2="735.4807692307693" y2="504.625" stroke-width="1" stroke="gray" />
<line x1="740.8653846153846" y1="455.375" x2="740.8653846153846" y2="504.625" stroke-width="1" stroke="gray" />
<line x1="751.6346153846154" y1="455.375" x2="751.6346153846154" y2="504.625" stroke-width="1" stroke="gray" />
<line x1="757.0192307692307" y1="455.375" x2="757.0192307692307" y2="504.625" stroke-width="1" stroke="gray" />
<line x1="762.4038461538462" y1="455.375" x2="762.4038461538462" y2="504.625" stroke-width="1" stroke="gray" />
<line x1="767.7884615384615" y1="455.375" x2="767.7884615384615" y2="504.625" stroke-width="1" stroke="gray" />
<line x1="773.1730769230769" y1="455.375" x2="773.1730769230769" y2="504.625" stroke-width="1" stroke="gray" />
<circle r="4" cx="726.25" cy="467.1875" stroke="dimgray" stroke-width="1" fill="dimGray" />
<line x1="719.3269230769231" y1="575.375" x2="719.3269230769231" y2="624.625" stroke-width="1" stroke="gray" />
<line x1="724.7115384615385" y1="575.375" x2="724.7115384615385" y2="624.625" stroke-width="1" stroke="gray" />
<line x1="730.0961538461538" y1="575.375" x2="730.0961538461538" y2="624.625" stroke-width="1" stroke="gray" />
<line x1="735.4807692307693" y1="575.375" x2="735.4807692307693" y2="624.625" stroke-width="1" stroke="gray" />
<line x1="740.8653846153846" y1="575.375" x2="740.8653846153846" y2="624.625" stroke-width="1" stroke="gray" />
<line x1="751.6346153846154" y1="575.375" x2="751.6346153846154" y2="624.625" stroke-width="1" stroke="gray" />
<line x1="757.0192307692307" y1="575.375" x2="757.0192307692307" y2="624.625" stroke-width="1" stroke="gray" />
<line x1="762.4038461538462" y1="575.375" x2="762.4038461538462" y2="624.625" stroke-width="1" stroke="gray" />
<line x1="767.7884615384615" y1="575.375" x2="767.7884615384615" y2="624.625" stroke-width="1" stroke="gray" />
<line x1="773.1730769230769" y1="575.375" x2="773.1730769230769" y2="624.625" stroke-width="1" stroke="gray" />
<circle r="4" cx="726.25" cy="587.1875" stroke="dimgray" stroke-width="1" fill="dimGray" />
<line x1="719.3269230769231" y1="695.375" x2="719.3269230769231" y2="744.625" stroke-width="1" stroke="gray" />
<line x1="724.7115384615385" y1="695.375" x2="724.7115384615385" y2="744.625" stroke-width="1" stroke="gray" />
<line x1="730.0961538461538" y1="695.375" x2="730.0961538461538" y2="744.625" stroke-width="1" stroke="gray" />
<line x1="735.4807692307693" y1="695.375" x2="735.4807692307693" y2="744.625" stroke-width="1" stroke="gray" />
<line x1="740.8653846153846" y1="695.375" x2="740.8653846153846" y2="744.625" stroke-width="1" stroke="gray" />
<line x1="751.6346153846154" y1="695.375" x2="751.6346153846154" y2="744.625" stroke-width="1" stroke="gray" />
<line x1="757.0192307692307" y1="695.375" x2="757.0192307692307" y2="744.625" stroke-width="1" stroke="gray" />
<line x1="762.4038461538462" y1="695.375" x2="762.4038461538462" y2="744.625" stroke-width="1" stroke="gray" />
<line x1="767.7884615384615" y1="695.375" x2="767.7884615384615" y2="744.625" stroke-width="1" stroke="gray" />
<line x1="773.1730769230769" y1="695.375" x2="773.1730769230769" y2="744.625" stroke-width="1" stroke="gray" />
<circle r="4" cx="726.25" cy="707.1875" stroke="dimgray" stroke-width="1" fill="dimGray" />
</g><text x="50%" y="800" font-size="1.1em" font-weight="bold" text-anchor="middle" dominant-baseline="middle">Copyright (c) // The Mechanical Pencil Database (tmpdb)</text>
<text x="50%" y="820" font-size="1.1em" font-weight="bold" text-anchor="middle" dominant-baseline="middle">Licensed under Creative Commons Attribution-NonCommercial-ShareAlike 4.0 International</text>
<text x="990" y="830" font-size="0.5em" font-weight="bold" text-anchor="end" dominant-baseline="middle">SVGPencilAllRenderer</text>
</svg>