<svg xmlns="http://www.w3.org/2000/svg" width="1000" height="840">
 <pattern id="knurled-large" patternUnits="userSpaceOnUse" width="12" height="12">
<path stroke="dimgray" stroke-linecap="round" stroke-width="1" d="M 6,6 L 12,12"/>
<path stroke="dimgray" stroke-linecap="round" stroke-width="1" d="M 6,6 L 0,12"/>
<path stroke="gray" stroke-linecap="round" stroke-width="1" d="M 6,6 L 12,0" />
<path stroke="gray" stroke-linecap="round" stroke-width="1" d="M 6,6 L 0,0" />
</pattern><pattern id="knurled-small" patternUnits="userSpaceOnUse" width="4" height="4">
<path stroke="dimgray" stroke-linecap="round" stroke-width="1" d="M 2,2 L 4,4"/>
<path stroke="dimgray" stroke-linecap="round" stroke-width="1" d="M 2,2 L 0,4"/>
<path stroke="gray" stroke-linecap="round" stroke-width="1" d="M 2,2 L 4,0" />
<path stroke="gray" stroke-linecap="round" stroke-width="1" d="M 2,2 L 0,0" />
</pattern><pattern id="knurled" patternUnits="userSpaceOnUse" width="8" height="8">
<path stroke="dimgray" stroke-linecap="round" stroke-width="1" d="M 4,4 L 8,8"/>
<path stroke="dimgray" stroke-linecap="round" stroke-width="1" d="M 4,4 L 0,8"/>
<path stroke="gray" stroke-linecap="round" stroke-width="1" d="M 4,4 L 8,0" />
<path stroke="gray" stroke-linecap="round" stroke-width="1" d="M 4,4 L 0,0" />
</pattern><pattern id="lined" patternUnits="userSpaceOnUse" width="3" height="3">
<path stroke="dimgray" stroke-linecap="round" stroke-width="1" d="M 0,0 L 3,0"/>
</pattern><pattern id="ridged" patternUnits="userSpaceOnUse" width="3" height="3">
<path stroke="dimgray" stroke-linecap="round" stroke-width="1" d="M 0,0 L 0,3"/>
</pattern><pattern id="spring" patternUnits="userSpaceOnUse" width="8" height="100">
<path stroke="dimgray" stroke-linecap="round" stroke-width="2" d="M 1,1 L 9,99"/>
<path stroke="white" stroke-linecap="round" stroke-width="1" d="M 1,1 L 9,99"/>
</pattern><pattern id="knurled" patternUnits="userSpaceOnUse" width="8" height="8">
<path stroke="dimgray" stroke-linecap="round" stroke-width="1" d="M 4,4 L 8,8"/>
<path stroke="dimgray" stroke-linecap="round" stroke-width="1" d="M 4,4 L 0,8"/>
<path stroke="gray" stroke-linecap="round" stroke-width="1" d="M 4,4 L 8,0" />
<path stroke="gray" stroke-linecap="round" stroke-width="1" d="M 4,4 L 0,0" />
</pattern><rect x="0" y="0" width="1000" height="840" fill="white" stroke="black" stroke-width="4" />
<rect x="2" y="2" width="996" height="836" fill="white" stroke="dimgray" stroke-width="1" />
<g transform="rotate(0 0 0)">
<text x="30" y="50" font-size="2.0em" font-weight="bold"> OHTO // Sharp Pencil 2.0 (Model #: APS-680E)</text>
<path d="M158.75 111.875 L171.25 111.875 L171.25 128.125 L158.75 128.125 Z" stroke-width="0.5" stroke="black" stroke-linejoin="round" fill="#E1C16E" fill-opacity="1"/>
<path d="M171.25 111.875 L196.25 101.25 L196.25 138.75 L171.25 128.125 Z" stroke-width="0.5" stroke="black" stroke-linejoin="round" fill="#E1C16E" fill-opacity="1"/>
<path d="M196.25 100 L221.25 92.5 L221.25 147.5 L196.25 140 Z" stroke-width="0.5" stroke="black" stroke-linejoin="round" fill="#b88160" fill-opacity="1"/>
<path d="M221.25 92.5 L711.25 92.5 L711.25 147.5 L221.25 147.5 Z" stroke-width="0.5" stroke="black" stroke-linejoin="round" fill="#e38f0f" fill-opacity="0.5"/>
<line x1="233.75" y1="120" x2="723.75" y2="120" stroke-width="1.5" stroke="black" fill="none" stroke-opacity="0.5"/>
<line x1="233.75" y1="120" x2="723.75" y2="120" stroke-width="0.5" stroke="gray" fill="none" stroke-opacity="0.5"/>
<path d="M711.25 94.375 L781.25 94.375 L781.25 145.625 L711.25 145.625 Z" stroke-width="0.5" stroke="black" stroke-linejoin="round" fill="#E1C16E" fill-opacity="1"/>
<line x1="719.3269230769231" y1="95.375" x2="719.3269230769231" y2="144.625" stroke-width="1" stroke="gray" />
<line x1="724.7115384615385" y1="95.375" x2="724.7115384615385" y2="144.625" stroke-width="1" stroke="gray" />
<line x1="730.0961538461538" y1="95.375" x2="730.0961538461538" y2="144.625" stroke-width="1" stroke="gray" />
<line x1="735.4807692307693" y1="95.375" x2="735.4807692307693" y2="144.625" stroke-width="1" stroke="gray" />
<line x1="740.8653846153846" y1="95.375" x2="740.8653846153846" y2="144.625" stroke-width="1" stroke="gray" />
<line x1="751.6346153846154" y1="95.375" x2="751.6346153846154" y2="144.625" stroke-width="1" stroke="gray" />
<line x1="757.0192307692307" y1="95.375" x2="757.0192307692307" y2="144.625" stroke-width="1" stroke="gray" />
<line x1="762.4038461538462" y1="95.375" x2="762.4038461538462" y2="144.625" stroke-width="1" stroke="gray" />
<line x1="767.7884615384615" y1="95.375" x2="767.7884615384615" y2="144.625" stroke-width="1" stroke="gray" />
<line x1="773.1730769230769" y1="95.375" x2="773.1730769230769" y2="144.625" stroke-width="1" stroke="gray" />
<circle r="4" cx="726.25" cy="107.1875" stroke="black" stroke-width="0.5" fill="dimgray" fill-opacity="1"/>
<path d="M781.25 96.25 L806.25 96.25 L806.25 143.75 L781.25 143.75 Z" stroke-width="0.5" stroke="black" stroke-linejoin="round" fill="#E1C16E" fill-opacity="1"/>
<path d="M806.25 95 L816.25 95 L816.25 145 L806.25 145 Z" stroke-width="0.5" stroke="black" stroke-linejoin="round" fill="#E1C16E" fill-opacity="1"/>
<path d="M816.25 96.875 L841.25 96.875 L841.25 143.125 L816.25 143.125 Z" stroke-width="0.5" stroke="black" stroke-linejoin="round" fill="#db756d" fill-opacity="1"/>
<rect x="221.25" y="92.75" width="12" height="54.5" rx="0" ry="0" stroke-width="0.5" stroke="none" fill="#b88160" fill-opacity="1"/>
<path d="M 233.75 92.5 C 217.1875 99.375, 217.1875 113.125, 233.75 120" stroke-width="0.5" stroke="black" stroke-linecap="round" fill-opacity="0.5" fill="#e38f0f" /><path d="M 233.75 147.5 C 217.1875 140.625, 217.1875 126.875, 233.75 120" stroke-width="0.5" stroke="black" stroke-linecap="round" fill-opacity="0.5" fill="#e38f0f" /><path d="M158.75 231.875 L171.25 231.875 L171.25 248.125 L158.75 248.125 Z" stroke-width="0.5" stroke="black" stroke-linejoin="round" fill="#E1C16E" fill-opacity="1"/>
<path d="M171.25 231.875 L196.25 221.25 L196.25 258.75 L171.25 248.125 Z" stroke-width="0.5" stroke="black" stroke-linejoin="round" fill="#E1C16E" fill-opacity="1"/>
<path d="M196.25 220 L221.25 212.5 L221.25 267.5 L196.25 260 Z" stroke-width="0.5" stroke="black" stroke-linejoin="round" fill="#b88160" fill-opacity="1"/>
<path d="M221.25 212.5 L711.25 212.5 L711.25 267.5 L221.25 267.5 Z" stroke-width="0.5" stroke="black" stroke-linejoin="round" fill="#1a4b88" fill-opacity="0.5"/>
<line x1="233.75" y1="240" x2="723.75" y2="240" stroke-width="1.5" stroke="black" fill="none" stroke-opacity="0.5"/>
<line x1="233.75" y1="240" x2="723.75" y2="240" stroke-width="0.5" stroke="gray" fill="none" stroke-opacity="0.5"/>
<path d="M711.25 214.375 L781.25 214.375 L781.25 265.625 L711.25 265.625 Z" stroke-width="0.5" stroke="black" stroke-linejoin="round" fill="#E1C16E" fill-opacity="1"/>
<line x1="719.3269230769231" y1="215.375" x2="719.3269230769231" y2="264.625" stroke-width="1" stroke="gray" />
<line x1="724.7115384615385" y1="215.375" x2="724.7115384615385" y2="264.625" stroke-width="1" stroke="gray" />
<line x1="730.0961538461538" y1="215.375" x2="730.0961538461538" y2="264.625" stroke-width="1" stroke="gray" />
<line x1="735.4807692307693" y1="215.375" x2="735.4807692307693" y2="264.625" stroke-width="1" stroke="gray" />
<line x1="740.8653846153846" y1="215.375" x2="740.8653846153846" y2="264.625" stroke-width="1" stroke="gray" />
<line x1="751.6346153846154" y1="215.375" x2="751.6346153846154" y2="264.625" stroke-width="1" stroke="gray" />
<line x1="757.0192307692307" y1="215.375" x2="757.0192307692307" y2="264.625" stroke-width="1" stroke="gray" />
<line x1="762.4038461538462" y1="215.375" x2="762.4038461538462" y2="264.625" stroke-width="1" stroke="gray" />
<line x1="767.7884615384615" y1="215.375" x2="767.7884615384615" y2="264.625" stroke-width="1" stroke="gray" />
<line x1="773.1730769230769" y1="215.375" x2="773.1730769230769" y2="264.625" stroke-width="1" stroke="gray" />
<circle r="4" cx="726.25" cy="227.1875" stroke="black" stroke-width="0.5" fill="dimgray" fill-opacity="1"/>
<path d="M781.25 216.25 L806.25 216.25 L806.25 263.75 L781.25 263.75 Z" stroke-width="0.5" stroke="black" stroke-linejoin="round" fill="#E1C16E" fill-opacity="1"/>
<path d="M806.25 215 L816.25 215 L816.25 265 L806.25 265 Z" stroke-width="0.5" stroke="black" stroke-linejoin="round" fill="#E1C16E" fill-opacity="1"/>
<path d="M816.25 216.875 L841.25 216.875 L841.25 263.125 L816.25 263.125 Z" stroke-width="0.5" stroke="black" stroke-linejoin="round" fill="#db756d" fill-opacity="1"/>
<rect x="221.25" y="212.75" width="12" height="54.5" rx="0" ry="0" stroke-width="0.5" stroke="none" fill="#b88160" fill-opacity="1"/>
<path d="M 233.75 212.5 C 217.1875 219.375, 217.1875 233.125, 233.75 240" stroke-width="0.5" stroke="black" stroke-linecap="round" fill-opacity="0.5" fill="#1a4b88" /><path d="M 233.75 267.5 C 217.1875 260.625, 217.1875 246.875, 233.75 240" stroke-width="0.5" stroke="black" stroke-linecap="round" fill-opacity="0.5" fill="#1a4b88" /><path d="M158.75 351.875 L171.25 351.875 L171.25 368.125 L158.75 368.125 Z" stroke-width="0.5" stroke="black" stroke-linejoin="round" fill="#E1C16E" fill-opacity="1"/>
<path d="M171.25 351.875 L196.25 341.25 L196.25 378.75 L171.25 368.125 Z" stroke-width="0.5" stroke="black" stroke-linejoin="round" fill="#E1C16E" fill-opacity="1"/>
<path d="M196.25 340 L221.25 332.5 L221.25 387.5 L196.25 380 Z" stroke-width="0.5" stroke="black" stroke-linejoin="round" fill="#b88160" fill-opacity="1"/>
<path d="M221.25 332.5 L711.25 332.5 L711.25 387.5 L221.25 387.5 Z" stroke-width="0.5" stroke="black" stroke-linejoin="round" fill="#053439" fill-opacity="0.5"/>
<line x1="233.75" y1="360" x2="723.75" y2="360" stroke-width="1.5" stroke="black" fill="none" stroke-opacity="0.5"/>
<line x1="233.75" y1="360" x2="723.75" y2="360" stroke-width="0.5" stroke="gray" fill="none" stroke-opacity="0.5"/>
<path d="M711.25 334.375 L781.25 334.375 L781.25 385.625 L711.25 385.625 Z" stroke-width="0.5" stroke="black" stroke-linejoin="round" fill="#E1C16E" fill-opacity="1"/>
<line x1="719.3269230769231" y1="335.375" x2="719.3269230769231" y2="384.625" stroke-width="1" stroke="gray" />
<line x1="724.7115384615385" y1="335.375" x2="724.7115384615385" y2="384.625" stroke-width="1" stroke="gray" />
<line x1="730.0961538461538" y1="335.375" x2="730.0961538461538" y2="384.625" stroke-width="1" stroke="gray" />
<line x1="735.4807692307693" y1="335.375" x2="735.4807692307693" y2="384.625" stroke-width="1" stroke="gray" />
<line x1="740.8653846153846" y1="335.375" x2="740.8653846153846" y2="384.625" stroke-width="1" stroke="gray" />
<line x1="751.6346153846154" y1="335.375" x2="751.6346153846154" y2="384.625" stroke-width="1" stroke="gray" />
<line x1="757.0192307692307" y1="335.375" x2="757.0192307692307" y2="384.625" stroke-width="1" stroke="gray" />
<line x1="762.4038461538462" y1="335.375" x2="762.4038461538462" y2="384.625" stroke-width="1" stroke="gray" />
<line x1="767.7884615384615" y1="335.375" x2="767.7884615384615" y2="384.625" stroke-width="1" stroke="gray" />
<line x1="773.1730769230769" y1="335.375" x2="773.1730769230769" y2="384.625" stroke-width="1" stroke="gray" />
<circle r="4" cx="726.25" cy="347.1875" stroke="black" stroke-width="0.5" fill="dimgray" fill-opacity="1"/>
<path d="M781.25 336.25 L806.25 336.25 L806.25 383.75 L781.25 383.75 Z" stroke-width="0.5" stroke="black" stroke-linejoin="round" fill="#E1C16E" fill-opacity="1"/>
<path d="M806.25 335 L816.25 335 L816.25 385 L806.25 385 Z" stroke-width="0.5" stroke="black" stroke-linejoin="round" fill="#E1C16E" fill-opacity="1"/>
<path d="M816.25 336.875 L841.25 336.875 L841.25 383.125 L816.25 383.125 Z" stroke-width="0.5" stroke="black" stroke-linejoin="round" fill="#db756d" fill-opacity="1"/>
<rect x="221.25" y="332.75" width="12" height="54.5" rx="0" ry="0" stroke-width="0.5" stroke="none" fill="#b88160" fill-opacity="1"/>
<path d="M 233.75 332.5 C 217.1875 339.375, 217.1875 353.125, 233.75 360" stroke-width="0.5" stroke="black" stroke-linecap="round" fill-opacity="0.5" fill="#053439" /><path d="M 233.75 387.5 C 217.1875 380.625, 217.1875 366.875, 233.75 360" stroke-width="0.5" stroke="black" stroke-linecap="round" fill-opacity="0.5" fill="#053439" /><path d="M158.75 471.875 L171.25 471.875 L171.25 488.125 L158.75 488.125 Z" stroke-width="0.5" stroke="black" stroke-linejoin="round" fill="#E1C16E" fill-opacity="1"/>
<path d="M171.25 471.875 L196.25 461.25 L196.25 498.75 L171.25 488.125 Z" stroke-width="0.5" stroke="black" stroke-linejoin="round" fill="#E1C16E" fill-opacity="1"/>
<path d="M196.25 460 L221.25 452.5 L221.25 507.5 L196.25 500 Z" stroke-width="0.5" stroke="black" stroke-linejoin="round" fill="#b88160" fill-opacity="1"/>
<path d="M221.25 452.5 L711.25 452.5 L711.25 507.5 L221.25 507.5 Z" stroke-width="0.5" stroke="black" stroke-linejoin="round" fill="burgundy" fill-opacity="0.5"/>
<line x1="233.75" y1="480" x2="723.75" y2="480" stroke-width="1.5" stroke="black" fill="none" stroke-opacity="0.5"/>
<line x1="233.75" y1="480" x2="723.75" y2="480" stroke-width="0.5" stroke="gray" fill="none" stroke-opacity="0.5"/>
<path d="M711.25 454.375 L781.25 454.375 L781.25 505.625 L711.25 505.625 Z" stroke-width="0.5" stroke="black" stroke-linejoin="round" fill="#E1C16E" fill-opacity="1"/>
<line x1="719.3269230769231" y1="455.375" x2="719.3269230769231" y2="504.625" stroke-width="1" stroke="gray" />
<line x1="724.7115384615385" y1="455.375" x2="724.7115384615385" y2="504.625" stroke-width="1" stroke="gray" />
<line x1="730.0961538461538" y1="455.375" x2="730.0961538461538" y2="504.625" stroke-width="1" stroke="gray" />
<line x1="735.4807692307693" y1="455.375" x2="735.4807692307693" y2="504.625" stroke-width="1" stroke="gray" />
<line x1="740.8653846153846" y1="455.375" x2="740.8653846153846" y2="504.625" stroke-width="1" stroke="gray" />
<line x1="751.6346153846154" y1="455.375" x2="751.6346153846154" y2="504.625" stroke-width="1" stroke="gray" />
<line x1="757.0192307692307" y1="455.375" x2="757.0192307692307" y2="504.625" stroke-width="1" stroke="gray" />
<line x1="762.4038461538462" y1="455.375" x2="762.4038461538462" y2="504.625" stroke-width="1" stroke="gray" />
<line x1="767.7884615384615" y1="455.375" x2="767.7884615384615" y2="504.625" stroke-width="1" stroke="gray" />
<line x1="773.1730769230769" y1="455.375" x2="773.1730769230769" y2="504.625" stroke-width="1" stroke="gray" />
<circle r="4" cx="726.25" cy="467.1875" stroke="black" stroke-width="0.5" fill="dimgray" fill-opacity="1"/>
<path d="M781.25 456.25 L806.25 456.25 L806.25 503.75 L781.25 503.75 Z" stroke-width="0.5" stroke="black" stroke-linejoin="round" fill="#E1C16E" fill-opacity="1"/>
<path d="M806.25 455 L816.25 455 L816.25 505 L806.25 505 Z" stroke-width="0.5" stroke="black" stroke-linejoin="round" fill="#E1C16E" fill-opacity="1"/>
<path d="M816.25 456.875 L841.25 456.875 L841.25 503.125 L816.25 503.125 Z" stroke-width="0.5" stroke="black" stroke-linejoin="round" fill="#db756d" fill-opacity="1"/>
<rect x="221.25" y="452.75" width="12" height="54.5" rx="0" ry="0" stroke-width="0.5" stroke="none" fill="#b88160" fill-opacity="1"/>
<path d="M 233.75 452.5 C 217.1875 459.375, 217.1875 473.125, 233.75 480" stroke-width="0.5" stroke="black" stroke-linecap="round" fill-opacity="0.5" fill="burgundy" /><path d="M 233.75 507.5 C 217.1875 500.625, 217.1875 486.875, 233.75 480" stroke-width="0.5" stroke="black" stroke-linecap="round" fill-opacity="0.5" fill="burgundy" /><path d="M158.75 591.875 L171.25 591.875 L171.25 608.125 L158.75 608.125 Z" stroke-width="0.5" stroke="black" stroke-linejoin="round" fill="#E1C16E" fill-opacity="1"/>
<path d="M171.25 591.875 L196.25 581.25 L196.25 618.75 L171.25 608.125 Z" stroke-width="0.5" stroke="black" stroke-linejoin="round" fill="#E1C16E" fill-opacity="1"/>
<path d="M196.25 580 L221.25 572.5 L221.25 627.5 L196.25 620 Z" stroke-width="0.5" stroke="black" stroke-linejoin="round" fill="#b88160" fill-opacity="1"/>
<path d="M221.25 572.5 L711.25 572.5 L711.25 627.5 L221.25 627.5 Z" stroke-width="0.5" stroke="black" stroke-linejoin="round" fill="#b88160" fill-opacity="0.5"/>
<line x1="233.75" y1="600" x2="723.75" y2="600" stroke-width="1.5" stroke="black" fill="none" stroke-opacity="0.5"/>
<line x1="233.75" y1="600" x2="723.75" y2="600" stroke-width="0.5" stroke="gray" fill="none" stroke-opacity="0.5"/>
<path d="M711.25 574.375 L781.25 574.375 L781.25 625.625 L711.25 625.625 Z" stroke-width="0.5" stroke="black" stroke-linejoin="round" fill="#E1C16E" fill-opacity="1"/>
<line x1="719.3269230769231" y1="575.375" x2="719.3269230769231" y2="624.625" stroke-width="1" stroke="gray" />
<line x1="724.7115384615385" y1="575.375" x2="724.7115384615385" y2="624.625" stroke-width="1" stroke="gray" />
<line x1="730.0961538461538" y1="575.375" x2="730.0961538461538" y2="624.625" stroke-width="1" stroke="gray" />
<line x1="735.4807692307693" y1="575.375" x2="735.4807692307693" y2="624.625" stroke-width="1" stroke="gray" />
<line x1="740.8653846153846" y1="575.375" x2="740.8653846153846" y2="624.625" stroke-width="1" stroke="gray" />
<line x1="751.6346153846154" y1="575.375" x2="751.6346153846154" y2="624.625" stroke-width="1" stroke="gray" />
<line x1="757.0192307692307" y1="575.375" x2="757.0192307692307" y2="624.625" stroke-width="1" stroke="gray" />
<line x1="762.4038461538462" y1="575.375" x2="762.4038461538462" y2="624.625" stroke-width="1" stroke="gray" />
<line x1="767.7884615384615" y1="575.375" x2="767.7884615384615" y2="624.625" stroke-width="1" stroke="gray" />
<line x1="773.1730769230769" y1="575.375" x2="773.1730769230769" y2="624.625" stroke-width="1" stroke="gray" />
<circle r="4" cx="726.25" cy="587.1875" stroke="black" stroke-width="0.5" fill="dimgray" fill-opacity="1"/>
<path d="M781.25 576.25 L806.25 576.25 L806.25 623.75 L781.25 623.75 Z" stroke-width="0.5" stroke="black" stroke-linejoin="round" fill="#E1C16E" fill-opacity="1"/>
<path d="M806.25 575 L816.25 575 L816.25 625 L806.25 625 Z" stroke-width="0.5" stroke="black" stroke-linejoin="round" fill="#E1C16E" fill-opacity="1"/>
<path d="M816.25 576.875 L841.25 576.875 L841.25 623.125 L816.25 623.125 Z" stroke-width="0.5" stroke="black" stroke-linejoin="round" fill="#db756d" fill-opacity="1"/>
<rect x="221.25" y="572.75" width="12" height="54.5" rx="0" ry="0" stroke-width="0.5" stroke="none" fill="#b88160" fill-opacity="1"/>
<path d="M 233.75 572.5 C 217.1875 579.375, 217.1875 593.125, 233.75 600" stroke-width="0.5" stroke="black" stroke-linecap="round" fill-opacity="0.5" fill="#b88160" /><path d="M 233.75 627.5 C 217.1875 620.625, 217.1875 606.875, 233.75 600" stroke-width="0.5" stroke="black" stroke-linecap="round" fill-opacity="0.5" fill="#b88160" /><path d="M158.75 711.875 L171.25 711.875 L171.25 728.125 L158.75 728.125 Z" stroke-width="0.5" stroke="black" stroke-linejoin="round" fill="#E1C16E" fill-opacity="1"/>
<path d="M171.25 711.875 L196.25 701.25 L196.25 738.75 L171.25 728.125 Z" stroke-width="0.5" stroke="black" stroke-linejoin="round" fill="#E1C16E" fill-opacity="1"/>
<path d="M196.25 700 L221.25 692.5 L221.25 747.5 L196.25 740 Z" stroke-width="0.5" stroke="black" stroke-linejoin="round" fill="#b88160" fill-opacity="1"/>
<path d="M221.25 692.5 L711.25 692.5 L711.25 747.5 L221.25 747.5 Z" stroke-width="0.5" stroke="dimgray" stroke-linejoin="round" fill="black" fill-opacity="0.5"/>
<line x1="233.75" y1="720" x2="723.75" y2="720" stroke-width="1.5" stroke="black" fill="none" stroke-opacity="0.5"/>
<line x1="233.75" y1="720" x2="723.75" y2="720" stroke-width="0.5" stroke="gray" fill="none" stroke-opacity="0.5"/>
<path d="M711.25 694.375 L781.25 694.375 L781.25 745.625 L711.25 745.625 Z" stroke-width="0.5" stroke="black" stroke-linejoin="round" fill="#E1C16E" fill-opacity="1"/>
<line x1="719.3269230769231" y1="695.375" x2="719.3269230769231" y2="744.625" stroke-width="1" stroke="gray" />
<line x1="724.7115384615385" y1="695.375" x2="724.7115384615385" y2="744.625" stroke-width="1" stroke="gray" />
<line x1="730.0961538461538" y1="695.375" x2="730.0961538461538" y2="744.625" stroke-width="1" stroke="gray" />
<line x1="735.4807692307693" y1="695.375" x2="735.4807692307693" y2="744.625" stroke-width="1" stroke="gray" />
<line x1="740.8653846153846" y1="695.375" x2="740.8653846153846" y2="744.625" stroke-width="1" stroke="gray" />
<line x1="751.6346153846154" y1="695.375" x2="751.6346153846154" y2="744.625" stroke-width="1" stroke="gray" />
<line x1="757.0192307692307" y1="695.375" x2="757.0192307692307" y2="744.625" stroke-width="1" stroke="gray" />
<line x1="762.4038461538462" y1="695.375" x2="762.4038461538462" y2="744.625" stroke-width="1" stroke="gray" />
<line x1="767.7884615384615" y1="695.375" x2="767.7884615384615" y2="744.625" stroke-width="1" stroke="gray" />
<line x1="773.1730769230769" y1="695.375" x2="773.1730769230769" y2="744.625" stroke-width="1" stroke="gray" />
<circle r="4" cx="726.25" cy="707.1875" stroke="black" stroke-width="0.5" fill="dimgray" fill-opacity="1"/>
<path d="M781.25 696.25 L806.25 696.25 L806.25 743.75 L781.25 743.75 Z" stroke-width="0.5" stroke="black" stroke-linejoin="round" fill="#E1C16E" fill-opacity="1"/>
<path d="M806.25 695 L816.25 695 L816.25 745 L806.25 745 Z" stroke-width="0.5" stroke="black" stroke-linejoin="round" fill="#E1C16E" fill-opacity="1"/>
<path d="M816.25 696.875 L841.25 696.875 L841.25 743.125 L816.25 743.125 Z" stroke-width="0.5" stroke="black" stroke-linejoin="round" fill="#db756d" fill-opacity="1"/>
<rect x="221.25" y="692.75" width="12" height="54.5" rx="0" ry="0" stroke-width="0.5" stroke="none" fill="#b88160" fill-opacity="1"/>
<path d="M 233.75 692.5 C 217.1875 699.375, 217.1875 713.125, 233.75 720" stroke-width="0.5" stroke="dimgray" stroke-linecap="round" fill-opacity="0.5" fill="black" /><path d="M 233.75 747.5 C 217.1875 740.625, 217.1875 726.875, 233.75 720" stroke-width="0.5" stroke="dimgray" stroke-linecap="round" fill-opacity="0.5" fill="black" /></g><text x="50%" y="800" font-size="1.1em" font-weight="bold" text-anchor="middle" dominant-baseline="middle">Copyright (c) // The Mechanical Pencil Database (tmpdb)</text>
<text x="50%" y="820" font-size="1.1em" font-weight="bold" text-anchor="middle" dominant-baseline="middle">Licensed under Creative Commons Attribution-NonCommercial-ShareAlike 4.0 International</text>
<text x="990" y="830" font-size="0.5em" font-weight="bold" text-anchor="end" dominant-baseline="middle">SVGPencilAllRenderer</text>
</svg>