<svg xmlns="http://www.w3.org/2000/svg" width="1000" height="720">
 <pattern id="knurled-large" patternUnits="userSpaceOnUse" width="12" height="12">
<path stroke="dimgray" stroke-linecap="round" stroke-width="1" d="M 6,6 L 12,12"/>
<path stroke="dimgray" stroke-linecap="round" stroke-width="1" d="M 6,6 L 0,12"/>
<path stroke="gray" stroke-linecap="round" stroke-width="1" d="M 6,6 L 12,0" />
<path stroke="gray" stroke-linecap="round" stroke-width="1" d="M 6,6 L 0,0" />
</pattern><pattern id="knurled-small" patternUnits="userSpaceOnUse" width="4" height="4">
<path stroke="dimgray" stroke-linecap="round" stroke-width="1" d="M 2,2 L 4,4"/>
<path stroke="dimgray" stroke-linecap="round" stroke-width="1" d="M 2,2 L 0,4"/>
<path stroke="gray" stroke-linecap="round" stroke-width="1" d="M 2,2 L 4,0" />
<path stroke="gray" stroke-linecap="round" stroke-width="1" d="M 2,2 L 0,0" />
</pattern><pattern id="knurled" patternUnits="userSpaceOnUse" width="8" height="8">
<path stroke="dimgray" stroke-linecap="round" stroke-width="1" d="M 4,4 L 8,8"/>
<path stroke="dimgray" stroke-linecap="round" stroke-width="1" d="M 4,4 L 0,8"/>
<path stroke="gray" stroke-linecap="round" stroke-width="1" d="M 4,4 L 8,0" />
<path stroke="gray" stroke-linecap="round" stroke-width="1" d="M 4,4 L 0,0" />
</pattern><pattern id="lined" patternUnits="userSpaceOnUse" width="3" height="3">
<path stroke="dimgray" stroke-linecap="round" stroke-width="1" d="M 0,0 L 3,0"/>
</pattern><pattern id="ridged" patternUnits="userSpaceOnUse" width="3" height="3">
<path stroke="dimgray" stroke-linecap="round" stroke-width="1" d="M 0,0 L 0,3"/>
</pattern><pattern id="spring" patternUnits="userSpaceOnUse" width="8" height="60">
<path stroke="dimgray" stroke-linecap="round" stroke-width="2" d="M 1,1 L 8,60"/>
<path stroke="white" stroke-linecap="round" stroke-width="1" d="M 1,1 L 8,60"/>
</pattern><rect x="0" y="0" width="1000" height="720" fill="white" stroke="black" stroke-width="4" />
<rect x="2" y="2" width="996" height="716" fill="white" stroke="dimgray" stroke-width="1" />
<g transform="rotate(0 0 0)">
<text x="30" y="50" font-size="2.0em" font-weight="bold"> OHTO // Wooden Pencil (Model #: WN03-SP20)</text>


<!-- renderSideComponent: tip -->


<!-- renderPart: cylinder -->
<path d="M158.7 111.875 L171.3 111.875 L171.3 128.125 L158.7 128.125 L158.7 111.875" stroke-width="0" stroke="none" stroke-linejoin="round" fill="#E1C16E" fill-opacity="1"/>
<path d="M158.7 111.875 L171.3 111.875 M171.3 128.125 L158.7 128.125" stroke-width="0.5" stroke="black" stroke-linejoin="round" fill="#E1C16E" fill-opacity="1"/>
<!-- !right !both --><path d="M171.3 111.875 L171.3 128.125" stroke-width="0.5" stroke="black" stroke-linejoin="round" fill="#E1C16E" fill-opacity="1"/>
<!-- !left !both --><path d="M158.7 111.875 L158.7 128.125" stroke-width="0.5" stroke="black" stroke-linejoin="round" fill="#E1C16E" fill-opacity="1"/>


<!-- renderPart: cone -->
<path d="M171.2 111.875 L196.3 101.25 L196.3 138.75 L171.2 128.125 L171.2 111.875" stroke-width="0" stroke="none" stroke-linejoin="round" fill="#E1C16E" fill-opacity="1"/>
<path d="M171.2 111.875 L196.3 101.25 M196.3 138.75 L171.2 128.125" stroke-width="0.5" stroke="black" stroke-linejoin="round" fill="#E1C16E" fill-opacity="1"/>
<!-- !right !both --><path d="M196.3 101.25 L196.3 138.75" stroke-width="0.5" stroke="black" stroke-linejoin="round" fill="#E1C16E" fill-opacity="1"/>
<!-- !left !both --><path d="M171.2 111.875 L171.2 128.125" stroke-width="0.5" stroke="black" stroke-linejoin="round" fill="#E1C16E" fill-opacity="1"/>


<!-- renderSideComponent: head -->


<!-- renderPart: cone -->
<path d="M196.2 100 L221.3 92.5 L221.3 147.5 L196.2 140 L196.2 100" stroke-width="0" stroke="none" stroke-linejoin="round" fill="#c38066" fill-opacity="1"/>
<path d="M196.2 100 L221.3 92.5 M221.3 147.5 L196.2 140" stroke-width="0.5" stroke="black" stroke-linejoin="round" fill="#c38066" fill-opacity="1"/>
<!-- !left !both --><path d="M196.2 100 L196.2 140" stroke-width="0.5" stroke="black" stroke-linejoin="round" fill="#c38066" fill-opacity="1"/>


<!-- renderSideComponent: body -->


<!-- renderPart: hexagonal -->
<path d="M221.2 92.5 L711.3 92.5 L711.3 147.5 L221.2 147.5 L221.2 92.5" stroke-width="0" stroke="none" stroke-linejoin="round" fill="#e78b06" fill-opacity="1"/>
<path d="M221.2 92.5 L711.3 92.5 M711.3 147.5 L221.2 147.5" stroke-width="0.5" stroke="black" stroke-linejoin="round" fill="#e78b06" fill-opacity="1"/>
<!-- !right !both --><path d="M711.3 92.5 L711.3 147.5" stroke-width="0.5" stroke="black" stroke-linejoin="round" fill="#e78b06" fill-opacity="1"/>
<!-- !left !both --><path d="M221.2 92.5 L221.2 147.5" stroke-width="0.5" stroke="black" stroke-linejoin="round" fill="#e78b06" fill-opacity="1"/>
<line x1="233.75" y1="120" x2="723.75" y2="120" stroke-width="1.5" stroke="gray" fill="gray" stroke-opacity="1.0"/>
<line x1="233.75" y1="120" x2="723.75" y2="120" stroke-width="0.5" stroke="black" fill="none" stroke-opacity="0.5"/>


<!-- renderSideComponent: ferrule -->


<!-- renderPart: cylinder -->
<path d="M711.2 94.375 L781.3 94.375 L781.3 145.625 L711.2 145.625 L711.2 94.375" stroke-width="0" stroke="none" stroke-linejoin="round" fill="#E1C16E" fill-opacity="1"/>
<path d="M711.2 94.375 L781.3 94.375 M781.3 145.625 L711.2 145.625" stroke-width="0.5" stroke="black" stroke-linejoin="round" fill="#E1C16E" fill-opacity="1"/>
<!-- !right !both --><path d="M781.3 94.375 L781.3 145.625" stroke-width="0.5" stroke="black" stroke-linejoin="round" fill="#E1C16E" fill-opacity="1"/>
<!-- !left !both --><path d="M711.2 94.375 L711.2 145.625" stroke-width="0.5" stroke="black" stroke-linejoin="round" fill="#E1C16E" fill-opacity="1"/>
<line x1="719.3269230769231" y1="95.375" x2="719.3269230769231" y2="144.625" stroke-width="1" stroke="gray" />
<line x1="724.7115384615385" y1="95.375" x2="724.7115384615385" y2="144.625" stroke-width="1" stroke="gray" />
<line x1="730.0961538461538" y1="95.375" x2="730.0961538461538" y2="144.625" stroke-width="1" stroke="gray" />
<line x1="735.4807692307693" y1="95.375" x2="735.4807692307693" y2="144.625" stroke-width="1" stroke="gray" />
<line x1="740.8653846153846" y1="95.375" x2="740.8653846153846" y2="144.625" stroke-width="1" stroke="gray" />
<line x1="751.6346153846154" y1="95.375" x2="751.6346153846154" y2="144.625" stroke-width="1" stroke="gray" />
<line x1="757.0192307692307" y1="95.375" x2="757.0192307692307" y2="144.625" stroke-width="1" stroke="gray" />
<line x1="762.4038461538462" y1="95.375" x2="762.4038461538462" y2="144.625" stroke-width="1" stroke="gray" />
<line x1="767.7884615384615" y1="95.375" x2="767.7884615384615" y2="144.625" stroke-width="1" stroke="gray" />
<line x1="773.1730769230769" y1="95.375" x2="773.1730769230769" y2="144.625" stroke-width="1" stroke="gray" />
<circle r="4" cx="726.25" cy="107.1875" stroke="black" stroke-width="0.5" fill="dimgray" fill-opacity="1"/>


<!-- renderSideComponent: cap -->


<!-- renderPart: cylinder -->
<path d="M781.2 96.25 L806.3 96.25 L806.3 143.75 L781.2 143.75 L781.2 96.25" stroke-width="0" stroke="none" stroke-linejoin="round" fill="#E1C16E" fill-opacity="1"/>
<path d="M781.2 96.25 L806.3 96.25 M806.3 143.75 L781.2 143.75" stroke-width="0.5" stroke="black" stroke-linejoin="round" fill="#E1C16E" fill-opacity="1"/>
<!-- !right !both --><path d="M806.3 96.25 L806.3 143.75" stroke-width="0.5" stroke="black" stroke-linejoin="round" fill="#E1C16E" fill-opacity="1"/>
<!-- !left !both --><path d="M781.2 96.25 L781.2 143.75" stroke-width="0.5" stroke="black" stroke-linejoin="round" fill="#E1C16E" fill-opacity="1"/>


<!-- renderPart: cylinder -->
<path d="M806.2 95 L816.3 95 L816.3 145 L806.2 145 L806.2 95" stroke-width="0" stroke="none" stroke-linejoin="round" fill="#E1C16E" fill-opacity="1"/>
<path d="M806.2 95 L816.3 95 M816.3 145 L806.2 145" stroke-width="0.5" stroke="black" stroke-linejoin="round" fill="#E1C16E" fill-opacity="1"/>
<!-- !right !both --><path d="M816.3 95 L816.3 145" stroke-width="0.5" stroke="black" stroke-linejoin="round" fill="#E1C16E" fill-opacity="1"/>
<!-- !left !both --><path d="M806.2 95 L806.2 145" stroke-width="0.5" stroke="black" stroke-linejoin="round" fill="#E1C16E" fill-opacity="1"/>


<!-- renderSideComponent: eraser -->


<!-- renderPart: cylinder -->
<path d="M816.2 96.875 L841.3 96.875 L841.3 143.125 L816.2 143.125 L816.2 96.875" stroke-width="0" stroke="none" stroke-linejoin="round" fill="#db756d" fill-opacity="1"/>
<path d="M816.2 96.875 L841.3 96.875 M841.3 143.125 L816.2 143.125" stroke-width="0.5" stroke="black" stroke-linejoin="round" fill="#db756d" fill-opacity="1"/>
<!-- !right !both --><path d="M841.3 96.875 L841.3 143.125" stroke-width="0.5" stroke="black" stroke-linejoin="round" fill="#db756d" fill-opacity="1"/>
<!-- !left !both --><path d="M816.2 96.875 L816.2 143.125" stroke-width="0.5" stroke="black" stroke-linejoin="round" fill="#db756d" fill-opacity="1"/>

<!-- TAPER START: hexagonal -->
<path d="M 221.15 92.75 L 233.75 92.75 C 217.1875 99.375, 217.1875 113.125, 233.75 120 C 217.1875 126.875, 217.1875 140.625, 233.75 147.25 L 221.15 147.25 Z" stroke-width="0" stroke="0" stroke-linecap="round" fill-opacity="1" fill="#c38066" /><path d="M 233.75 93 C 217.1875 99.375, 217.1875 113.125, 233.75 120 C 217.1875 126.875, 217.1875 140.625, 233.75 146.95" stroke-width="1.5" stroke="gray" stroke-linecap="round" fill-opacity="0" fill="none" /><path d="M 233.75 93 C 217.1875 99.375, 217.1875 113.125, 233.75 120 C 217.1875 126.875, 217.1875 140.625, 233.75 147" stroke-width="0.5" stroke="black" stroke-opacity="0.5" stroke-linecap="round" fill-opacity="0" fill="none" />

<!-- renderSideComponent: tip -->


<!-- renderPart: cylinder -->
<path d="M158.7 231.875 L171.3 231.875 L171.3 248.125 L158.7 248.125 L158.7 231.875" stroke-width="0" stroke="none" stroke-linejoin="round" fill="#E1C16E" fill-opacity="1"/>
<path d="M158.7 231.875 L171.3 231.875 M171.3 248.125 L158.7 248.125" stroke-width="0.5" stroke="black" stroke-linejoin="round" fill="#E1C16E" fill-opacity="1"/>
<!-- !right !both --><path d="M171.3 231.875 L171.3 248.125" stroke-width="0.5" stroke="black" stroke-linejoin="round" fill="#E1C16E" fill-opacity="1"/>
<!-- !left !both --><path d="M158.7 231.875 L158.7 248.125" stroke-width="0.5" stroke="black" stroke-linejoin="round" fill="#E1C16E" fill-opacity="1"/>


<!-- renderPart: cone -->
<path d="M171.2 231.875 L196.3 221.25 L196.3 258.75 L171.2 248.125 L171.2 231.875" stroke-width="0" stroke="none" stroke-linejoin="round" fill="#E1C16E" fill-opacity="1"/>
<path d="M171.2 231.875 L196.3 221.25 M196.3 258.75 L171.2 248.125" stroke-width="0.5" stroke="black" stroke-linejoin="round" fill="#E1C16E" fill-opacity="1"/>
<!-- !right !both --><path d="M196.3 221.25 L196.3 258.75" stroke-width="0.5" stroke="black" stroke-linejoin="round" fill="#E1C16E" fill-opacity="1"/>
<!-- !left !both --><path d="M171.2 231.875 L171.2 248.125" stroke-width="0.5" stroke="black" stroke-linejoin="round" fill="#E1C16E" fill-opacity="1"/>


<!-- renderSideComponent: head -->


<!-- renderPart: cone -->
<path d="M196.2 220 L221.3 212.5 L221.3 267.5 L196.2 260 L196.2 220" stroke-width="0" stroke="none" stroke-linejoin="round" fill="#c38066" fill-opacity="1"/>
<path d="M196.2 220 L221.3 212.5 M221.3 267.5 L196.2 260" stroke-width="0.5" stroke="black" stroke-linejoin="round" fill="#c38066" fill-opacity="1"/>
<!-- !left !both --><path d="M196.2 220 L196.2 260" stroke-width="0.5" stroke="black" stroke-linejoin="round" fill="#c38066" fill-opacity="1"/>


<!-- renderSideComponent: body -->


<!-- renderPart: hexagonal -->
<path d="M221.2 212.5 L711.3 212.5 L711.3 267.5 L221.2 267.5 L221.2 212.5" stroke-width="0" stroke="none" stroke-linejoin="round" fill="#014fa1" fill-opacity="1"/>
<path d="M221.2 212.5 L711.3 212.5 M711.3 267.5 L221.2 267.5" stroke-width="0.5" stroke="black" stroke-linejoin="round" fill="#014fa1" fill-opacity="1"/>
<!-- !right !both --><path d="M711.3 212.5 L711.3 267.5" stroke-width="0.5" stroke="black" stroke-linejoin="round" fill="#014fa1" fill-opacity="1"/>
<!-- !left !both --><path d="M221.2 212.5 L221.2 267.5" stroke-width="0.5" stroke="black" stroke-linejoin="round" fill="#014fa1" fill-opacity="1"/>
<line x1="233.75" y1="240" x2="723.75" y2="240" stroke-width="1.5" stroke="gray" fill="gray" stroke-opacity="1.0"/>
<line x1="233.75" y1="240" x2="723.75" y2="240" stroke-width="0.5" stroke="black" fill="none" stroke-opacity="0.5"/>


<!-- renderSideComponent: ferrule -->


<!-- renderPart: cylinder -->
<path d="M711.2 214.375 L781.3 214.375 L781.3 265.625 L711.2 265.625 L711.2 214.375" stroke-width="0" stroke="none" stroke-linejoin="round" fill="#E1C16E" fill-opacity="1"/>
<path d="M711.2 214.375 L781.3 214.375 M781.3 265.625 L711.2 265.625" stroke-width="0.5" stroke="black" stroke-linejoin="round" fill="#E1C16E" fill-opacity="1"/>
<!-- !right !both --><path d="M781.3 214.375 L781.3 265.625" stroke-width="0.5" stroke="black" stroke-linejoin="round" fill="#E1C16E" fill-opacity="1"/>
<!-- !left !both --><path d="M711.2 214.375 L711.2 265.625" stroke-width="0.5" stroke="black" stroke-linejoin="round" fill="#E1C16E" fill-opacity="1"/>
<line x1="719.3269230769231" y1="215.375" x2="719.3269230769231" y2="264.625" stroke-width="1" stroke="gray" />
<line x1="724.7115384615385" y1="215.375" x2="724.7115384615385" y2="264.625" stroke-width="1" stroke="gray" />
<line x1="730.0961538461538" y1="215.375" x2="730.0961538461538" y2="264.625" stroke-width="1" stroke="gray" />
<line x1="735.4807692307693" y1="215.375" x2="735.4807692307693" y2="264.625" stroke-width="1" stroke="gray" />
<line x1="740.8653846153846" y1="215.375" x2="740.8653846153846" y2="264.625" stroke-width="1" stroke="gray" />
<line x1="751.6346153846154" y1="215.375" x2="751.6346153846154" y2="264.625" stroke-width="1" stroke="gray" />
<line x1="757.0192307692307" y1="215.375" x2="757.0192307692307" y2="264.625" stroke-width="1" stroke="gray" />
<line x1="762.4038461538462" y1="215.375" x2="762.4038461538462" y2="264.625" stroke-width="1" stroke="gray" />
<line x1="767.7884615384615" y1="215.375" x2="767.7884615384615" y2="264.625" stroke-width="1" stroke="gray" />
<line x1="773.1730769230769" y1="215.375" x2="773.1730769230769" y2="264.625" stroke-width="1" stroke="gray" />
<circle r="4" cx="726.25" cy="227.1875" stroke="black" stroke-width="0.5" fill="dimgray" fill-opacity="1"/>


<!-- renderSideComponent: cap -->


<!-- renderPart: cylinder -->
<path d="M781.2 216.25 L806.3 216.25 L806.3 263.75 L781.2 263.75 L781.2 216.25" stroke-width="0" stroke="none" stroke-linejoin="round" fill="#E1C16E" fill-opacity="1"/>
<path d="M781.2 216.25 L806.3 216.25 M806.3 263.75 L781.2 263.75" stroke-width="0.5" stroke="black" stroke-linejoin="round" fill="#E1C16E" fill-opacity="1"/>
<!-- !right !both --><path d="M806.3 216.25 L806.3 263.75" stroke-width="0.5" stroke="black" stroke-linejoin="round" fill="#E1C16E" fill-opacity="1"/>
<!-- !left !both --><path d="M781.2 216.25 L781.2 263.75" stroke-width="0.5" stroke="black" stroke-linejoin="round" fill="#E1C16E" fill-opacity="1"/>


<!-- renderPart: cylinder -->
<path d="M806.2 215 L816.3 215 L816.3 265 L806.2 265 L806.2 215" stroke-width="0" stroke="none" stroke-linejoin="round" fill="#E1C16E" fill-opacity="1"/>
<path d="M806.2 215 L816.3 215 M816.3 265 L806.2 265" stroke-width="0.5" stroke="black" stroke-linejoin="round" fill="#E1C16E" fill-opacity="1"/>
<!-- !right !both --><path d="M816.3 215 L816.3 265" stroke-width="0.5" stroke="black" stroke-linejoin="round" fill="#E1C16E" fill-opacity="1"/>
<!-- !left !both --><path d="M806.2 215 L806.2 265" stroke-width="0.5" stroke="black" stroke-linejoin="round" fill="#E1C16E" fill-opacity="1"/>


<!-- renderSideComponent: eraser -->


<!-- renderPart: cylinder -->
<path d="M816.2 216.875 L841.3 216.875 L841.3 263.125 L816.2 263.125 L816.2 216.875" stroke-width="0" stroke="none" stroke-linejoin="round" fill="#db756d" fill-opacity="1"/>
<path d="M816.2 216.875 L841.3 216.875 M841.3 263.125 L816.2 263.125" stroke-width="0.5" stroke="black" stroke-linejoin="round" fill="#db756d" fill-opacity="1"/>
<!-- !right !both --><path d="M841.3 216.875 L841.3 263.125" stroke-width="0.5" stroke="black" stroke-linejoin="round" fill="#db756d" fill-opacity="1"/>
<!-- !left !both --><path d="M816.2 216.875 L816.2 263.125" stroke-width="0.5" stroke="black" stroke-linejoin="round" fill="#db756d" fill-opacity="1"/>

<!-- TAPER START: hexagonal -->
<path d="M 221.15 212.75 L 233.75 212.75 C 217.1875 219.375, 217.1875 233.125, 233.75 240 C 217.1875 246.875, 217.1875 260.625, 233.75 267.25 L 221.15 267.25 Z" stroke-width="0" stroke="0" stroke-linecap="round" fill-opacity="1" fill="#c38066" /><path d="M 233.75 213 C 217.1875 219.375, 217.1875 233.125, 233.75 240 C 217.1875 246.875, 217.1875 260.625, 233.75 266.95" stroke-width="1.5" stroke="gray" stroke-linecap="round" fill-opacity="0" fill="none" /><path d="M 233.75 213 C 217.1875 219.375, 217.1875 233.125, 233.75 240 C 217.1875 246.875, 217.1875 260.625, 233.75 267" stroke-width="0.5" stroke="black" stroke-opacity="0.5" stroke-linecap="round" fill-opacity="0" fill="none" />

<!-- renderSideComponent: tip -->


<!-- renderPart: cylinder -->
<path d="M158.7 351.875 L171.3 351.875 L171.3 368.125 L158.7 368.125 L158.7 351.875" stroke-width="0" stroke="none" stroke-linejoin="round" fill="#E1C16E" fill-opacity="1"/>
<path d="M158.7 351.875 L171.3 351.875 M171.3 368.125 L158.7 368.125" stroke-width="0.5" stroke="black" stroke-linejoin="round" fill="#E1C16E" fill-opacity="1"/>
<!-- !right !both --><path d="M171.3 351.875 L171.3 368.125" stroke-width="0.5" stroke="black" stroke-linejoin="round" fill="#E1C16E" fill-opacity="1"/>
<!-- !left !both --><path d="M158.7 351.875 L158.7 368.125" stroke-width="0.5" stroke="black" stroke-linejoin="round" fill="#E1C16E" fill-opacity="1"/>


<!-- renderPart: cone -->
<path d="M171.2 351.875 L196.3 341.25 L196.3 378.75 L171.2 368.125 L171.2 351.875" stroke-width="0" stroke="none" stroke-linejoin="round" fill="#E1C16E" fill-opacity="1"/>
<path d="M171.2 351.875 L196.3 341.25 M196.3 378.75 L171.2 368.125" stroke-width="0.5" stroke="black" stroke-linejoin="round" fill="#E1C16E" fill-opacity="1"/>
<!-- !right !both --><path d="M196.3 341.25 L196.3 378.75" stroke-width="0.5" stroke="black" stroke-linejoin="round" fill="#E1C16E" fill-opacity="1"/>
<!-- !left !both --><path d="M171.2 351.875 L171.2 368.125" stroke-width="0.5" stroke="black" stroke-linejoin="round" fill="#E1C16E" fill-opacity="1"/>


<!-- renderSideComponent: head -->


<!-- renderPart: cone -->
<path d="M196.2 340 L221.3 332.5 L221.3 387.5 L196.2 380 L196.2 340" stroke-width="0" stroke="none" stroke-linejoin="round" fill="#c38066" fill-opacity="1"/>
<path d="M196.2 340 L221.3 332.5 M221.3 387.5 L196.2 380" stroke-width="0.5" stroke="black" stroke-linejoin="round" fill="#c38066" fill-opacity="1"/>
<!-- !left !both --><path d="M196.2 340 L196.2 380" stroke-width="0.5" stroke="black" stroke-linejoin="round" fill="#c38066" fill-opacity="1"/>


<!-- renderSideComponent: body -->


<!-- renderPart: hexagonal -->
<path d="M221.2 332.5 L711.3 332.5 L711.3 387.5 L221.2 387.5 L221.2 332.5" stroke-width="0" stroke="none" stroke-linejoin="round" fill="#063604" fill-opacity="1"/>
<path d="M221.2 332.5 L711.3 332.5 M711.3 387.5 L221.2 387.5" stroke-width="0.5" stroke="black" stroke-linejoin="round" fill="#063604" fill-opacity="1"/>
<!-- !right !both --><path d="M711.3 332.5 L711.3 387.5" stroke-width="0.5" stroke="black" stroke-linejoin="round" fill="#063604" fill-opacity="1"/>
<!-- !left !both --><path d="M221.2 332.5 L221.2 387.5" stroke-width="0.5" stroke="black" stroke-linejoin="round" fill="#063604" fill-opacity="1"/>
<line x1="233.75" y1="360" x2="723.75" y2="360" stroke-width="1.5" stroke="gray" fill="gray" stroke-opacity="1.0"/>
<line x1="233.75" y1="360" x2="723.75" y2="360" stroke-width="0.5" stroke="black" fill="none" stroke-opacity="0.5"/>


<!-- renderSideComponent: ferrule -->


<!-- renderPart: cylinder -->
<path d="M711.2 334.375 L781.3 334.375 L781.3 385.625 L711.2 385.625 L711.2 334.375" stroke-width="0" stroke="none" stroke-linejoin="round" fill="#E1C16E" fill-opacity="1"/>
<path d="M711.2 334.375 L781.3 334.375 M781.3 385.625 L711.2 385.625" stroke-width="0.5" stroke="black" stroke-linejoin="round" fill="#E1C16E" fill-opacity="1"/>
<!-- !right !both --><path d="M781.3 334.375 L781.3 385.625" stroke-width="0.5" stroke="black" stroke-linejoin="round" fill="#E1C16E" fill-opacity="1"/>
<!-- !left !both --><path d="M711.2 334.375 L711.2 385.625" stroke-width="0.5" stroke="black" stroke-linejoin="round" fill="#E1C16E" fill-opacity="1"/>
<line x1="719.3269230769231" y1="335.375" x2="719.3269230769231" y2="384.625" stroke-width="1" stroke="gray" />
<line x1="724.7115384615385" y1="335.375" x2="724.7115384615385" y2="384.625" stroke-width="1" stroke="gray" />
<line x1="730.0961538461538" y1="335.375" x2="730.0961538461538" y2="384.625" stroke-width="1" stroke="gray" />
<line x1="735.4807692307693" y1="335.375" x2="735.4807692307693" y2="384.625" stroke-width="1" stroke="gray" />
<line x1="740.8653846153846" y1="335.375" x2="740.8653846153846" y2="384.625" stroke-width="1" stroke="gray" />
<line x1="751.6346153846154" y1="335.375" x2="751.6346153846154" y2="384.625" stroke-width="1" stroke="gray" />
<line x1="757.0192307692307" y1="335.375" x2="757.0192307692307" y2="384.625" stroke-width="1" stroke="gray" />
<line x1="762.4038461538462" y1="335.375" x2="762.4038461538462" y2="384.625" stroke-width="1" stroke="gray" />
<line x1="767.7884615384615" y1="335.375" x2="767.7884615384615" y2="384.625" stroke-width="1" stroke="gray" />
<line x1="773.1730769230769" y1="335.375" x2="773.1730769230769" y2="384.625" stroke-width="1" stroke="gray" />
<circle r="4" cx="726.25" cy="347.1875" stroke="black" stroke-width="0.5" fill="dimgray" fill-opacity="1"/>


<!-- renderSideComponent: cap -->


<!-- renderPart: cylinder -->
<path d="M781.2 336.25 L806.3 336.25 L806.3 383.75 L781.2 383.75 L781.2 336.25" stroke-width="0" stroke="none" stroke-linejoin="round" fill="#E1C16E" fill-opacity="1"/>
<path d="M781.2 336.25 L806.3 336.25 M806.3 383.75 L781.2 383.75" stroke-width="0.5" stroke="black" stroke-linejoin="round" fill="#E1C16E" fill-opacity="1"/>
<!-- !right !both --><path d="M806.3 336.25 L806.3 383.75" stroke-width="0.5" stroke="black" stroke-linejoin="round" fill="#E1C16E" fill-opacity="1"/>
<!-- !left !both --><path d="M781.2 336.25 L781.2 383.75" stroke-width="0.5" stroke="black" stroke-linejoin="round" fill="#E1C16E" fill-opacity="1"/>


<!-- renderPart: cylinder -->
<path d="M806.2 335 L816.3 335 L816.3 385 L806.2 385 L806.2 335" stroke-width="0" stroke="none" stroke-linejoin="round" fill="#E1C16E" fill-opacity="1"/>
<path d="M806.2 335 L816.3 335 M816.3 385 L806.2 385" stroke-width="0.5" stroke="black" stroke-linejoin="round" fill="#E1C16E" fill-opacity="1"/>
<!-- !right !both --><path d="M816.3 335 L816.3 385" stroke-width="0.5" stroke="black" stroke-linejoin="round" fill="#E1C16E" fill-opacity="1"/>
<!-- !left !both --><path d="M806.2 335 L806.2 385" stroke-width="0.5" stroke="black" stroke-linejoin="round" fill="#E1C16E" fill-opacity="1"/>


<!-- renderSideComponent: eraser -->


<!-- renderPart: cylinder -->
<path d="M816.2 336.875 L841.3 336.875 L841.3 383.125 L816.2 383.125 L816.2 336.875" stroke-width="0" stroke="none" stroke-linejoin="round" fill="#db756d" fill-opacity="1"/>
<path d="M816.2 336.875 L841.3 336.875 M841.3 383.125 L816.2 383.125" stroke-width="0.5" stroke="black" stroke-linejoin="round" fill="#db756d" fill-opacity="1"/>
<!-- !right !both --><path d="M841.3 336.875 L841.3 383.125" stroke-width="0.5" stroke="black" stroke-linejoin="round" fill="#db756d" fill-opacity="1"/>
<!-- !left !both --><path d="M816.2 336.875 L816.2 383.125" stroke-width="0.5" stroke="black" stroke-linejoin="round" fill="#db756d" fill-opacity="1"/>

<!-- TAPER START: hexagonal -->
<path d="M 221.15 332.75 L 233.75 332.75 C 217.1875 339.375, 217.1875 353.125, 233.75 360 C 217.1875 366.875, 217.1875 380.625, 233.75 387.25 L 221.15 387.25 Z" stroke-width="0" stroke="0" stroke-linecap="round" fill-opacity="1" fill="#c38066" /><path d="M 233.75 333 C 217.1875 339.375, 217.1875 353.125, 233.75 360 C 217.1875 366.875, 217.1875 380.625, 233.75 386.95" stroke-width="1.5" stroke="gray" stroke-linecap="round" fill-opacity="0" fill="none" /><path d="M 233.75 333 C 217.1875 339.375, 217.1875 353.125, 233.75 360 C 217.1875 366.875, 217.1875 380.625, 233.75 387" stroke-width="0.5" stroke="black" stroke-opacity="0.5" stroke-linecap="round" fill-opacity="0" fill="none" />

<!-- renderSideComponent: tip -->


<!-- renderPart: cylinder -->
<path d="M158.7 471.875 L171.3 471.875 L171.3 488.125 L158.7 488.125 L158.7 471.875" stroke-width="0" stroke="none" stroke-linejoin="round" fill="#E1C16E" fill-opacity="1"/>
<path d="M158.7 471.875 L171.3 471.875 M171.3 488.125 L158.7 488.125" stroke-width="0.5" stroke="black" stroke-linejoin="round" fill="#E1C16E" fill-opacity="1"/>
<!-- !right !both --><path d="M171.3 471.875 L171.3 488.125" stroke-width="0.5" stroke="black" stroke-linejoin="round" fill="#E1C16E" fill-opacity="1"/>
<!-- !left !both --><path d="M158.7 471.875 L158.7 488.125" stroke-width="0.5" stroke="black" stroke-linejoin="round" fill="#E1C16E" fill-opacity="1"/>


<!-- renderPart: cone -->
<path d="M171.2 471.875 L196.3 461.25 L196.3 498.75 L171.2 488.125 L171.2 471.875" stroke-width="0" stroke="none" stroke-linejoin="round" fill="#E1C16E" fill-opacity="1"/>
<path d="M171.2 471.875 L196.3 461.25 M196.3 498.75 L171.2 488.125" stroke-width="0.5" stroke="black" stroke-linejoin="round" fill="#E1C16E" fill-opacity="1"/>
<!-- !right !both --><path d="M196.3 461.25 L196.3 498.75" stroke-width="0.5" stroke="black" stroke-linejoin="round" fill="#E1C16E" fill-opacity="1"/>
<!-- !left !both --><path d="M171.2 471.875 L171.2 488.125" stroke-width="0.5" stroke="black" stroke-linejoin="round" fill="#E1C16E" fill-opacity="1"/>


<!-- renderSideComponent: head -->


<!-- renderPart: cone -->
<path d="M196.2 460 L221.3 452.5 L221.3 507.5 L196.2 500 L196.2 460" stroke-width="0" stroke="none" stroke-linejoin="round" fill="#c38066" fill-opacity="1"/>
<path d="M196.2 460 L221.3 452.5 M221.3 507.5 L196.2 500" stroke-width="0.5" stroke="black" stroke-linejoin="round" fill="#c38066" fill-opacity="1"/>
<!-- !left !both --><path d="M196.2 460 L196.2 500" stroke-width="0.5" stroke="black" stroke-linejoin="round" fill="#c38066" fill-opacity="1"/>


<!-- renderSideComponent: body -->


<!-- renderPart: hexagonal -->
<path d="M221.2 452.5 L711.3 452.5 L711.3 507.5 L221.2 507.5 L221.2 452.5" stroke-width="0" stroke="none" stroke-linejoin="round" fill="#67171a" fill-opacity="1"/>
<path d="M221.2 452.5 L711.3 452.5 M711.3 507.5 L221.2 507.5" stroke-width="0.5" stroke="black" stroke-linejoin="round" fill="#67171a" fill-opacity="1"/>
<!-- !right !both --><path d="M711.3 452.5 L711.3 507.5" stroke-width="0.5" stroke="black" stroke-linejoin="round" fill="#67171a" fill-opacity="1"/>
<!-- !left !both --><path d="M221.2 452.5 L221.2 507.5" stroke-width="0.5" stroke="black" stroke-linejoin="round" fill="#67171a" fill-opacity="1"/>
<line x1="233.75" y1="480" x2="723.75" y2="480" stroke-width="1.5" stroke="gray" fill="gray" stroke-opacity="1.0"/>
<line x1="233.75" y1="480" x2="723.75" y2="480" stroke-width="0.5" stroke="black" fill="none" stroke-opacity="0.5"/>


<!-- renderSideComponent: ferrule -->


<!-- renderPart: cylinder -->
<path d="M711.2 454.375 L781.3 454.375 L781.3 505.625 L711.2 505.625 L711.2 454.375" stroke-width="0" stroke="none" stroke-linejoin="round" fill="#E1C16E" fill-opacity="1"/>
<path d="M711.2 454.375 L781.3 454.375 M781.3 505.625 L711.2 505.625" stroke-width="0.5" stroke="black" stroke-linejoin="round" fill="#E1C16E" fill-opacity="1"/>
<!-- !right !both --><path d="M781.3 454.375 L781.3 505.625" stroke-width="0.5" stroke="black" stroke-linejoin="round" fill="#E1C16E" fill-opacity="1"/>
<!-- !left !both --><path d="M711.2 454.375 L711.2 505.625" stroke-width="0.5" stroke="black" stroke-linejoin="round" fill="#E1C16E" fill-opacity="1"/>
<line x1="719.3269230769231" y1="455.375" x2="719.3269230769231" y2="504.625" stroke-width="1" stroke="gray" />
<line x1="724.7115384615385" y1="455.375" x2="724.7115384615385" y2="504.625" stroke-width="1" stroke="gray" />
<line x1="730.0961538461538" y1="455.375" x2="730.0961538461538" y2="504.625" stroke-width="1" stroke="gray" />
<line x1="735.4807692307693" y1="455.375" x2="735.4807692307693" y2="504.625" stroke-width="1" stroke="gray" />
<line x1="740.8653846153846" y1="455.375" x2="740.8653846153846" y2="504.625" stroke-width="1" stroke="gray" />
<line x1="751.6346153846154" y1="455.375" x2="751.6346153846154" y2="504.625" stroke-width="1" stroke="gray" />
<line x1="757.0192307692307" y1="455.375" x2="757.0192307692307" y2="504.625" stroke-width="1" stroke="gray" />
<line x1="762.4038461538462" y1="455.375" x2="762.4038461538462" y2="504.625" stroke-width="1" stroke="gray" />
<line x1="767.7884615384615" y1="455.375" x2="767.7884615384615" y2="504.625" stroke-width="1" stroke="gray" />
<line x1="773.1730769230769" y1="455.375" x2="773.1730769230769" y2="504.625" stroke-width="1" stroke="gray" />
<circle r="4" cx="726.25" cy="467.1875" stroke="black" stroke-width="0.5" fill="dimgray" fill-opacity="1"/>


<!-- renderSideComponent: cap -->


<!-- renderPart: cylinder -->
<path d="M781.2 456.25 L806.3 456.25 L806.3 503.75 L781.2 503.75 L781.2 456.25" stroke-width="0" stroke="none" stroke-linejoin="round" fill="#E1C16E" fill-opacity="1"/>
<path d="M781.2 456.25 L806.3 456.25 M806.3 503.75 L781.2 503.75" stroke-width="0.5" stroke="black" stroke-linejoin="round" fill="#E1C16E" fill-opacity="1"/>
<!-- !right !both --><path d="M806.3 456.25 L806.3 503.75" stroke-width="0.5" stroke="black" stroke-linejoin="round" fill="#E1C16E" fill-opacity="1"/>
<!-- !left !both --><path d="M781.2 456.25 L781.2 503.75" stroke-width="0.5" stroke="black" stroke-linejoin="round" fill="#E1C16E" fill-opacity="1"/>


<!-- renderPart: cylinder -->
<path d="M806.2 455 L816.3 455 L816.3 505 L806.2 505 L806.2 455" stroke-width="0" stroke="none" stroke-linejoin="round" fill="#E1C16E" fill-opacity="1"/>
<path d="M806.2 455 L816.3 455 M816.3 505 L806.2 505" stroke-width="0.5" stroke="black" stroke-linejoin="round" fill="#E1C16E" fill-opacity="1"/>
<!-- !right !both --><path d="M816.3 455 L816.3 505" stroke-width="0.5" stroke="black" stroke-linejoin="round" fill="#E1C16E" fill-opacity="1"/>
<!-- !left !both --><path d="M806.2 455 L806.2 505" stroke-width="0.5" stroke="black" stroke-linejoin="round" fill="#E1C16E" fill-opacity="1"/>


<!-- renderSideComponent: eraser -->


<!-- renderPart: cylinder -->
<path d="M816.2 456.875 L841.3 456.875 L841.3 503.125 L816.2 503.125 L816.2 456.875" stroke-width="0" stroke="none" stroke-linejoin="round" fill="#db756d" fill-opacity="1"/>
<path d="M816.2 456.875 L841.3 456.875 M841.3 503.125 L816.2 503.125" stroke-width="0.5" stroke="black" stroke-linejoin="round" fill="#db756d" fill-opacity="1"/>
<!-- !right !both --><path d="M841.3 456.875 L841.3 503.125" stroke-width="0.5" stroke="black" stroke-linejoin="round" fill="#db756d" fill-opacity="1"/>
<!-- !left !both --><path d="M816.2 456.875 L816.2 503.125" stroke-width="0.5" stroke="black" stroke-linejoin="round" fill="#db756d" fill-opacity="1"/>

<!-- TAPER START: hexagonal -->
<path d="M 221.15 452.75 L 233.75 452.75 C 217.1875 459.375, 217.1875 473.125, 233.75 480 C 217.1875 486.875, 217.1875 500.625, 233.75 507.25 L 221.15 507.25 Z" stroke-width="0" stroke="0" stroke-linecap="round" fill-opacity="1" fill="#c38066" /><path d="M 233.75 453 C 217.1875 459.375, 217.1875 473.125, 233.75 480 C 217.1875 486.875, 217.1875 500.625, 233.75 506.95" stroke-width="1.5" stroke="gray" stroke-linecap="round" fill-opacity="0" fill="none" /><path d="M 233.75 453 C 217.1875 459.375, 217.1875 473.125, 233.75 480 C 217.1875 486.875, 217.1875 500.625, 233.75 507" stroke-width="0.5" stroke="black" stroke-opacity="0.5" stroke-linecap="round" fill-opacity="0" fill="none" />

<!-- renderSideComponent: tip -->


<!-- renderPart: cylinder -->
<path d="M158.7 591.875 L171.3 591.875 L171.3 608.125 L158.7 608.125 L158.7 591.875" stroke-width="0" stroke="none" stroke-linejoin="round" fill="#E1C16E" fill-opacity="1"/>
<path d="M158.7 591.875 L171.3 591.875 M171.3 608.125 L158.7 608.125" stroke-width="0.5" stroke="black" stroke-linejoin="round" fill="#E1C16E" fill-opacity="1"/>
<!-- !right !both --><path d="M171.3 591.875 L171.3 608.125" stroke-width="0.5" stroke="black" stroke-linejoin="round" fill="#E1C16E" fill-opacity="1"/>
<!-- !left !both --><path d="M158.7 591.875 L158.7 608.125" stroke-width="0.5" stroke="black" stroke-linejoin="round" fill="#E1C16E" fill-opacity="1"/>


<!-- renderPart: cone -->
<path d="M171.2 591.875 L196.3 581.25 L196.3 618.75 L171.2 608.125 L171.2 591.875" stroke-width="0" stroke="none" stroke-linejoin="round" fill="#E1C16E" fill-opacity="1"/>
<path d="M171.2 591.875 L196.3 581.25 M196.3 618.75 L171.2 608.125" stroke-width="0.5" stroke="black" stroke-linejoin="round" fill="#E1C16E" fill-opacity="1"/>
<!-- !right !both --><path d="M196.3 581.25 L196.3 618.75" stroke-width="0.5" stroke="black" stroke-linejoin="round" fill="#E1C16E" fill-opacity="1"/>
<!-- !left !both --><path d="M171.2 591.875 L171.2 608.125" stroke-width="0.5" stroke="black" stroke-linejoin="round" fill="#E1C16E" fill-opacity="1"/>


<!-- renderSideComponent: head -->


<!-- renderPart: cone -->
<path d="M196.2 580 L221.3 572.5 L221.3 627.5 L196.2 620 L196.2 580" stroke-width="0" stroke="none" stroke-linejoin="round" fill="#c38066" fill-opacity="1"/>
<path d="M196.2 580 L221.3 572.5 M221.3 627.5 L196.2 620" stroke-width="0.5" stroke="black" stroke-linejoin="round" fill="#c38066" fill-opacity="1"/>
<!-- !left !both --><path d="M196.2 580 L196.2 620" stroke-width="0.5" stroke="black" stroke-linejoin="round" fill="#c38066" fill-opacity="1"/>


<!-- renderSideComponent: body -->


<!-- renderPart: hexagonal -->
<path d="M221.2 572.5 L711.3 572.5 L711.3 627.5 L221.2 627.5 L221.2 572.5" stroke-width="0" stroke="none" stroke-linejoin="round" fill="#c38066" fill-opacity="1"/>
<path d="M221.2 572.5 L711.3 572.5 M711.3 627.5 L221.2 627.5" stroke-width="0.5" stroke="black" stroke-linejoin="round" fill="#c38066" fill-opacity="1"/>
<!-- !right !both --><path d="M711.3 572.5 L711.3 627.5" stroke-width="0.5" stroke="black" stroke-linejoin="round" fill="#c38066" fill-opacity="1"/>
<!-- !left !both --><path d="M221.2 572.5 L221.2 627.5" stroke-width="0.5" stroke="black" stroke-linejoin="round" fill="#c38066" fill-opacity="1"/>
<line x1="233.75" y1="600" x2="723.75" y2="600" stroke-width="1.5" stroke="gray" fill="gray" stroke-opacity="1.0"/>
<line x1="233.75" y1="600" x2="723.75" y2="600" stroke-width="0.5" stroke="black" fill="none" stroke-opacity="0.5"/>


<!-- renderSideComponent: ferrule -->


<!-- renderPart: cylinder -->
<path d="M711.2 574.375 L781.3 574.375 L781.3 625.625 L711.2 625.625 L711.2 574.375" stroke-width="0" stroke="none" stroke-linejoin="round" fill="#E1C16E" fill-opacity="1"/>
<path d="M711.2 574.375 L781.3 574.375 M781.3 625.625 L711.2 625.625" stroke-width="0.5" stroke="black" stroke-linejoin="round" fill="#E1C16E" fill-opacity="1"/>
<!-- !right !both --><path d="M781.3 574.375 L781.3 625.625" stroke-width="0.5" stroke="black" stroke-linejoin="round" fill="#E1C16E" fill-opacity="1"/>
<!-- !left !both --><path d="M711.2 574.375 L711.2 625.625" stroke-width="0.5" stroke="black" stroke-linejoin="round" fill="#E1C16E" fill-opacity="1"/>
<line x1="719.3269230769231" y1="575.375" x2="719.3269230769231" y2="624.625" stroke-width="1" stroke="gray" />
<line x1="724.7115384615385" y1="575.375" x2="724.7115384615385" y2="624.625" stroke-width="1" stroke="gray" />
<line x1="730.0961538461538" y1="575.375" x2="730.0961538461538" y2="624.625" stroke-width="1" stroke="gray" />
<line x1="735.4807692307693" y1="575.375" x2="735.4807692307693" y2="624.625" stroke-width="1" stroke="gray" />
<line x1="740.8653846153846" y1="575.375" x2="740.8653846153846" y2="624.625" stroke-width="1" stroke="gray" />
<line x1="751.6346153846154" y1="575.375" x2="751.6346153846154" y2="624.625" stroke-width="1" stroke="gray" />
<line x1="757.0192307692307" y1="575.375" x2="757.0192307692307" y2="624.625" stroke-width="1" stroke="gray" />
<line x1="762.4038461538462" y1="575.375" x2="762.4038461538462" y2="624.625" stroke-width="1" stroke="gray" />
<line x1="767.7884615384615" y1="575.375" x2="767.7884615384615" y2="624.625" stroke-width="1" stroke="gray" />
<line x1="773.1730769230769" y1="575.375" x2="773.1730769230769" y2="624.625" stroke-width="1" stroke="gray" />
<circle r="4" cx="726.25" cy="587.1875" stroke="black" stroke-width="0.5" fill="dimgray" fill-opacity="1"/>


<!-- renderSideComponent: cap -->


<!-- renderPart: cylinder -->
<path d="M781.2 576.25 L806.3 576.25 L806.3 623.75 L781.2 623.75 L781.2 576.25" stroke-width="0" stroke="none" stroke-linejoin="round" fill="#E1C16E" fill-opacity="1"/>
<path d="M781.2 576.25 L806.3 576.25 M806.3 623.75 L781.2 623.75" stroke-width="0.5" stroke="black" stroke-linejoin="round" fill="#E1C16E" fill-opacity="1"/>
<!-- !right !both --><path d="M806.3 576.25 L806.3 623.75" stroke-width="0.5" stroke="black" stroke-linejoin="round" fill="#E1C16E" fill-opacity="1"/>
<!-- !left !both --><path d="M781.2 576.25 L781.2 623.75" stroke-width="0.5" stroke="black" stroke-linejoin="round" fill="#E1C16E" fill-opacity="1"/>


<!-- renderPart: cylinder -->
<path d="M806.2 575 L816.3 575 L816.3 625 L806.2 625 L806.2 575" stroke-width="0" stroke="none" stroke-linejoin="round" fill="#E1C16E" fill-opacity="1"/>
<path d="M806.2 575 L816.3 575 M816.3 625 L806.2 625" stroke-width="0.5" stroke="black" stroke-linejoin="round" fill="#E1C16E" fill-opacity="1"/>
<!-- !right !both --><path d="M816.3 575 L816.3 625" stroke-width="0.5" stroke="black" stroke-linejoin="round" fill="#E1C16E" fill-opacity="1"/>
<!-- !left !both --><path d="M806.2 575 L806.2 625" stroke-width="0.5" stroke="black" stroke-linejoin="round" fill="#E1C16E" fill-opacity="1"/>


<!-- renderSideComponent: eraser -->


<!-- renderPart: cylinder -->
<path d="M816.2 576.875 L841.3 576.875 L841.3 623.125 L816.2 623.125 L816.2 576.875" stroke-width="0" stroke="none" stroke-linejoin="round" fill="#db756d" fill-opacity="1"/>
<path d="M816.2 576.875 L841.3 576.875 M841.3 623.125 L816.2 623.125" stroke-width="0.5" stroke="black" stroke-linejoin="round" fill="#db756d" fill-opacity="1"/>
<!-- !right !both --><path d="M841.3 576.875 L841.3 623.125" stroke-width="0.5" stroke="black" stroke-linejoin="round" fill="#db756d" fill-opacity="1"/>
<!-- !left !both --><path d="M816.2 576.875 L816.2 623.125" stroke-width="0.5" stroke="black" stroke-linejoin="round" fill="#db756d" fill-opacity="1"/>

<!-- TAPER START: hexagonal -->
<path d="M 221.15 572.75 L 233.75 572.75 C 217.1875 579.375, 217.1875 593.125, 233.75 600 C 217.1875 606.875, 217.1875 620.625, 233.75 627.25 L 221.15 627.25 Z" stroke-width="0" stroke="0" stroke-linecap="round" fill-opacity="1" fill="#c38066" /><path d="M 233.75 573 C 217.1875 579.375, 217.1875 593.125, 233.75 600 C 217.1875 606.875, 217.1875 620.625, 233.75 626.95" stroke-width="1.5" stroke="gray" stroke-linecap="round" fill-opacity="0" fill="none" /><path d="M 233.75 573 C 217.1875 579.375, 217.1875 593.125, 233.75 600 C 217.1875 606.875, 217.1875 620.625, 233.75 627" stroke-width="0.5" stroke="black" stroke-opacity="0.5" stroke-linecap="round" fill-opacity="0" fill="none" /></g><text x="50%" y="680" font-size="1.1em" font-weight="bold" text-anchor="middle" dominant-baseline="middle">Copyright (c) // Synapticloop // The Mechanical Pencil Database (tmpdb)</text>
<text x="50%" y="700" font-size="1.1em" font-weight="bold" text-anchor="middle" dominant-baseline="middle">Licensed under Creative Commons Attribution-NonCommercial-ShareAlike 4.0 International</text>
<text x="990" y="710" font-size="0.5em" font-weight="bold" text-anchor="end" dominant-baseline="middle">SVGPencilAllRenderer</text>
</svg>