<svg xmlns="http://www.w3.org/2000/svg" width="1000" height="200">
 <pattern id="knurled-large" patternUnits="userSpaceOnUse" width="12" height="12">
<path stroke="dimgray" stroke-linecap="round" stroke-width="1" d="M 6,6 L 12,12"/>
<path stroke="dimgray" stroke-linecap="round" stroke-width="1" d="M 6,6 L 0,12"/>
<path stroke="gray" stroke-linecap="round" stroke-width="1" d="M 6,6 L 12,0" />
<path stroke="gray" stroke-linecap="round" stroke-width="1" d="M 6,6 L 0,0" />
</pattern><pattern id="knurled-small" patternUnits="userSpaceOnUse" width="4" height="4">
<path stroke="dimgray" stroke-linecap="round" stroke-width="1" d="M 2,2 L 4,4"/>
<path stroke="dimgray" stroke-linecap="round" stroke-width="1" d="M 2,2 L 0,4"/>
<path stroke="gray" stroke-linecap="round" stroke-width="1" d="M 2,2 L 4,0" />
<path stroke="gray" stroke-linecap="round" stroke-width="1" d="M 2,2 L 0,0" />
</pattern><pattern id="knurled" patternUnits="userSpaceOnUse" width="8" height="8">
<path stroke="dimgray" stroke-linecap="round" stroke-width="1" d="M 4,4 L 8,8"/>
<path stroke="dimgray" stroke-linecap="round" stroke-width="1" d="M 4,4 L 0,8"/>
<path stroke="gray" stroke-linecap="round" stroke-width="1" d="M 4,4 L 8,0" />
<path stroke="gray" stroke-linecap="round" stroke-width="1" d="M 4,4 L 0,0" />
</pattern><pattern id="lined" patternUnits="userSpaceOnUse" width="3" height="3">
<path stroke="dimgray" stroke-linecap="round" stroke-width="1" d="M 0,0 L 3,0"/>
</pattern><pattern id="ridged" patternUnits="userSpaceOnUse" width="3" height="3">
<path stroke="dimgray" stroke-linecap="round" stroke-width="1" d="M 0,0 L 0,3"/>
</pattern><pattern id="spring" patternUnits="userSpaceOnUse" width="8" height="60">
<path stroke="dimgray" stroke-linecap="round" stroke-width="2" d="M 1,1 L 8,60"/>
<path stroke="white" stroke-linecap="round" stroke-width="1" d="M 1,1 L 8,60"/>
</pattern><g transform="rotate(0 0 0)">


<!-- renderSideComponent: tip -->


<!-- renderPart: cylinder -->
<path d="M92.45 96.25 L101.3 96.25 L101.3 103.75 L92.45 103.75 L92.45 96.25" stroke-width="0" stroke="none" stroke-linejoin="round" fill="#E1C16E" fill-opacity="1"/>
<path d="M92.45 96.25 L101.3 96.25 M101.3 103.75 L92.45 103.75" stroke-width="0.5" stroke="black" stroke-linejoin="round" fill="#E1C16E" fill-opacity="1"/>
<!-- !right !both --><path d="M101.3 96.25 L101.3 103.75" stroke-width="0.5" stroke="black" stroke-linejoin="round" fill="#E1C16E" fill-opacity="1"/>
<!-- !left !both --><path d="M92.45 96.25 L92.45 103.75" stroke-width="0.5" stroke="black" stroke-linejoin="round" fill="#E1C16E" fill-opacity="1"/>


<!-- renderPart: cone -->
<path d="M101.2 96.25 L121.3 86.25 L121.3 113.75 L101.2 103.75 L101.2 96.25" stroke-width="0" stroke="none" stroke-linejoin="round" fill="#E1C16E" fill-opacity="1"/>
<path d="M101.2 96.25 L121.3 86.25 M121.3 113.75 L101.2 103.75" stroke-width="0.5" stroke="black" stroke-linejoin="round" fill="#E1C16E" fill-opacity="1"/>
<!-- !right !both --><path d="M121.3 86.25 L121.3 113.75" stroke-width="0.5" stroke="black" stroke-linejoin="round" fill="#E1C16E" fill-opacity="1"/>
<!-- !left !both --><path d="M101.2 96.25 L101.2 103.75" stroke-width="0.5" stroke="black" stroke-linejoin="round" fill="#E1C16E" fill-opacity="1"/>


<!-- renderSideComponent: head -->


<!-- renderPart: cone -->
<path d="M121.2 86.25 L136.3 80 L136.3 120 L121.2 113.75 L121.2 86.25" stroke-width="0" stroke="none" stroke-linejoin="round" fill="#c38066" fill-opacity="1"/>
<path d="M121.2 86.25 L136.3 80 M136.3 120 L121.2 113.75" stroke-width="0.5" stroke="black" stroke-linejoin="round" fill="#c38066" fill-opacity="1"/>
<!-- !left !both --><path d="M121.2 86.25 L121.2 113.75" stroke-width="0.5" stroke="black" stroke-linejoin="round" fill="#c38066" fill-opacity="1"/>


<!-- renderSideComponent: body -->


<!-- renderPart: hexagonal -->
<path d="M136.2 80 L795.05 80 L795.05 120 L136.2 120 L136.2 80" stroke-width="0" stroke="none" stroke-linejoin="round" fill="#67171a" fill-opacity="1"/>
<path d="M136.2 80 L795.05 80 M795.05 120 L136.2 120" stroke-width="0.5" stroke="black" stroke-linejoin="round" fill="#67171a" fill-opacity="1"/>
<!-- !right !both --><path d="M795.05 80 L795.05 120" stroke-width="0.5" stroke="black" stroke-linejoin="round" fill="#67171a" fill-opacity="1"/>
<!-- !left !both --><path d="M136.2 80 L136.2 120" stroke-width="0.5" stroke="black" stroke-linejoin="round" fill="#67171a" fill-opacity="1"/>
<line x1="142.5" y1="100" x2="801.25" y2="100" stroke-width="1.5" stroke="gray" fill="gray" stroke-opacity="1.0"/>
<line x1="142.5" y1="100" x2="801.25" y2="100" stroke-width="0.5" stroke="black" fill="none" stroke-opacity="0.5"/>


<!-- renderSideComponent: ferrule -->


<!-- renderPart: cylinder -->
<path d="M794.95 80 L862.55 80 L862.55 120 L794.95 120 L794.95 80" stroke-width="0" stroke="none" stroke-linejoin="round" fill="#b4b8b9" fill-opacity="1"/>
<path d="M794.95 80 L862.55 80 M862.55 120 L794.95 120" stroke-width="0.5" stroke="black" stroke-linejoin="round" fill="#b4b8b9" fill-opacity="1"/>
<!-- !right !both --><path d="M862.55 80 L862.55 120" stroke-width="0.5" stroke="black" stroke-linejoin="round" fill="#b4b8b9" fill-opacity="1"/>
<!-- !left !both --><path d="M794.95 80 L794.95 120" stroke-width="0.5" stroke="black" stroke-linejoin="round" fill="#b4b8b9" fill-opacity="1"/>
<line x1="802.7884615384615" y1="81" x2="802.7884615384615" y2="119" stroke-width="1" stroke="gray" />
<line x1="807.9807692307693" y1="81" x2="807.9807692307693" y2="119" stroke-width="1" stroke="gray" />
<line x1="813.1730769230769" y1="81" x2="813.1730769230769" y2="119" stroke-width="1" stroke="gray" />
<line x1="818.3653846153846" y1="81" x2="818.3653846153846" y2="119" stroke-width="1" stroke="gray" />
<line x1="823.5576923076923" y1="81" x2="823.5576923076923" y2="119" stroke-width="1" stroke="gray" />
<line x1="833.9423076923077" y1="81" x2="833.9423076923077" y2="119" stroke-width="1" stroke="gray" />
<line x1="839.1346153846154" y1="81" x2="839.1346153846154" y2="119" stroke-width="1" stroke="gray" />
<line x1="844.3269230769231" y1="81" x2="844.3269230769231" y2="119" stroke-width="1" stroke="gray" />
<line x1="849.5192307692307" y1="81" x2="849.5192307692307" y2="119" stroke-width="1" stroke="gray" />
<line x1="854.7115384615385" y1="81" x2="854.7115384615385" y2="119" stroke-width="1" stroke="gray" />
<circle r="4" cx="810" cy="90" stroke="black" stroke-width="0.5" fill="dimgray" fill-opacity="1"/>


<!-- renderSideComponent: cap -->


<!-- renderPart: cylinder -->
<path d="M862.45 83.125 L880.05 83.125 L880.05 116.875 L862.45 116.875 L862.45 83.125" stroke-width="0" stroke="none" stroke-linejoin="round" fill="#b4b8b9" fill-opacity="1"/>
<path d="M862.45 83.125 L880.05 83.125 M880.05 116.875 L862.45 116.875" stroke-width="0.5" stroke="black" stroke-linejoin="round" fill="#b4b8b9" fill-opacity="1"/>
<!-- !right !both --><path d="M880.05 83.125 L880.05 116.875" stroke-width="0.5" stroke="black" stroke-linejoin="round" fill="#b4b8b9" fill-opacity="1"/>
<!-- !left !both --><path d="M862.45 83.125 L862.45 116.875" stroke-width="0.5" stroke="black" stroke-linejoin="round" fill="#b4b8b9" fill-opacity="1"/>


<!-- renderPart: cylinder -->
<path d="M879.95 80 L888.8 80 L888.8 120 L879.95 120 L879.95 80" stroke-width="0" stroke="none" stroke-linejoin="round" fill="#b4b8b9" fill-opacity="1"/>
<path d="M879.95 80 L888.8 80 M888.8 120 L879.95 120" stroke-width="0.5" stroke="black" stroke-linejoin="round" fill="#b4b8b9" fill-opacity="1"/>
<!-- !right !both --><path d="M888.8 80 L888.8 120" stroke-width="0.5" stroke="black" stroke-linejoin="round" fill="#b4b8b9" fill-opacity="1"/>
<!-- !left !both --><path d="M879.95 80 L879.95 120" stroke-width="0.5" stroke="black" stroke-linejoin="round" fill="#b4b8b9" fill-opacity="1"/>


<!-- renderSideComponent: eraser -->


<!-- renderPart: cylinder -->
<path d="M888.7 84.375 L907.55 84.375 L907.55 115.625 L888.7 115.625 L888.7 84.375" stroke-width="0" stroke="none" stroke-linejoin="round" fill="#db756d" fill-opacity="1"/>
<path d="M888.7 84.375 L907.55 84.375 M907.55 115.625 L888.7 115.625" stroke-width="0.5" stroke="black" stroke-linejoin="round" fill="#db756d" fill-opacity="1"/>
<!-- !right !both --><path d="M907.55 84.375 L907.55 115.625" stroke-width="0.5" stroke="black" stroke-linejoin="round" fill="#db756d" fill-opacity="1"/>
<!-- !left !both --><path d="M888.7 84.375 L888.7 115.625" stroke-width="0.5" stroke="black" stroke-linejoin="round" fill="#db756d" fill-opacity="1"/>

<!-- TAPER START: hexagonal -->
<path d="M 136.15 80.25 L 142.5 80.25 C 134.21875 85, 134.21875 95, 142.5 100 C 134.21875 105, 134.21875 115, 142.5 119.75 L 136.15 119.75 Z" stroke-width="0" stroke="0" stroke-linecap="round" fill-opacity="1" fill="#c38066" /><path d="M 142.5 80.5 C 134.21875 85, 134.21875 95, 142.5 100 C 134.21875 105, 134.21875 115, 142.5 119.45" stroke-width="1.5" stroke="gray" stroke-linecap="round" fill-opacity="0" fill="none" /><path d="M 142.5 80.5 C 134.21875 85, 134.21875 95, 142.5 100 C 134.21875 105, 134.21875 115, 142.5 119.5" stroke-width="0.5" stroke="black" stroke-opacity="0.5" stroke-linecap="round" fill-opacity="0" fill="none" /></g><text x="50%" y="160" font-size="1.1em" font-weight="bold" text-anchor="middle" dominant-baseline="middle">Copyright (c) // Synapticloop // The Mechanical Pencil Database (tmpdb)</text>
<text x="50%" y="180" font-size="1.1em" font-weight="bold" text-anchor="middle" dominant-baseline="middle">Licensed under Creative Commons Attribution-NonCommercial-ShareAlike 4.0 International</text>
<text x="990" y="190" font-size="0.5em" font-weight="bold" text-anchor="end" dominant-baseline="middle">SVGPencilRenderer</text>
</svg>