<svg xmlns="http://www.w3.org/2000/svg" width="1400" height="320">
 <pattern id="knurled-large" patternUnits="userSpaceOnUse" width="12" height="12">
<path stroke="dimgray" stroke-linecap="round" stroke-width="1" d="M 6,6 L 12,12"/>
<path stroke="dimgray" stroke-linecap="round" stroke-width="1" d="M 6,6 L 0,12"/>
<path stroke="gray" stroke-linecap="round" stroke-width="1" d="M 6,6 L 12,0" />
<path stroke="gray" stroke-linecap="round" stroke-width="1" d="M 6,6 L 0,0" />
</pattern><pattern id="knurled-small" patternUnits="userSpaceOnUse" width="4" height="4">
<path stroke="dimgray" stroke-linecap="round" stroke-width="1" d="M 2,2 L 4,4"/>
<path stroke="dimgray" stroke-linecap="round" stroke-width="1" d="M 2,2 L 0,4"/>
<path stroke="gray" stroke-linecap="round" stroke-width="1" d="M 2,2 L 4,0" />
<path stroke="gray" stroke-linecap="round" stroke-width="1" d="M 2,2 L 0,0" />
</pattern><pattern id="knurled" patternUnits="userSpaceOnUse" width="8" height="8">
<path stroke="dimgray" stroke-linecap="round" stroke-width="1" d="M 4,4 L 8,8"/>
<path stroke="dimgray" stroke-linecap="round" stroke-width="1" d="M 4,4 L 0,8"/>
<path stroke="gray" stroke-linecap="round" stroke-width="1" d="M 4,4 L 8,0" />
<path stroke="gray" stroke-linecap="round" stroke-width="1" d="M 4,4 L 0,0" />
</pattern><pattern id="lined" patternUnits="userSpaceOnUse" width="3" height="3">
<path stroke="dimgray" stroke-linecap="round" stroke-width="1" d="M 0,0 L 3,0"/>
</pattern><pattern id="ridged" patternUnits="userSpaceOnUse" width="3" height="3">
<path stroke="dimgray" stroke-linecap="round" stroke-width="1" d="M 0,0 L 0,3"/>
</pattern><pattern id="spring" patternUnits="userSpaceOnUse" width="8" height="60">
<path stroke="dimgray" stroke-linecap="round" stroke-width="2" d="M 1,1 L 8,60"/>
<path stroke="white" stroke-linecap="round" stroke-width="1" d="M 1,1 L 8,60"/>
</pattern><rect x="0" y="0" width="1400" height="320" fill="white" stroke="black" stroke-width="4" />
<rect x="2" y="2" width="1396" height="316" fill="white" stroke="dimgray" stroke-width="1" />
<g transform="rotate(0 0 0)">
<text x="700" y="60" font-size="2.4em" font-weight="bold" text-anchor="middle" dominant-baseline="central">BIC Pencils</text>
<line x1="40" y1="160" x2="1360" y2="160" stroke-linecap="round" stroke="#5f5f5f" stroke-dasharray="2" stroke-width="1" />
<line x1="20" y1="160" x2="60" y2="160" stroke-linecap="round" stroke="#000000"  stroke-width="1" />
<line x1="40" y1="140" x2="40" y2="180" stroke="#000000" stroke-linecap="round"  stroke-width="1" />
<circle r="10" cx="40" cy="160" fill="white" fill-opacity="0" stroke="#000000" stroke-width="1"  />
<line x1="1340" y1="160" x2="1380" y2="160" stroke-linecap="round" stroke="#000000"  stroke-width="1" />
<line x1="1360" y1="140" x2="1360" y2="180" stroke="#000000" stroke-linecap="round"  stroke-width="1" />
<circle r="10" cx="1360" cy="160" fill="white" fill-opacity="0" stroke="#000000" stroke-width="1"  />


<!-- renderSideComponent: jaws -->


<!-- renderPart: cone -->
<path d="M345.575 152.5 L356.925 151.25 L356.925 168.75 L345.575 167.5 Z" stroke-width="0" stroke="none" stroke-linejoin="round" fill="white" fill-opacity="1"/>
<path d="M345.625 152.5 L356.875 151.25 M356.875 168.75 L345.625 167.5" stroke-width="0.5" stroke="black" stroke-linejoin="round" fill="white" fill-opacity="1"/>
<!-- !right !both --><path d="M356.875 151.25 L356.875 168.75" stroke-width="0.5" stroke="black" stroke-linejoin="round" fill="white" fill-opacity="1"/>
<!-- !left !both --><path d="M345.625 152.5 L345.625 167.5" stroke-width="0.5" stroke="black" stroke-linejoin="round" fill="white" fill-opacity="1"/>


<!-- renderSideComponent: tip -->


<!-- renderPart: cone -->
<path d="M356.825 146.875 L405.675 140.625 L405.675 179.375 L356.825 173.125 Z" stroke-width="0" stroke="none" stroke-linejoin="round" fill="white" fill-opacity="1"/>
<path d="M356.875 146.875 L405.625 140.625 M405.625 179.375 L356.875 173.125" stroke-width="0.5" stroke="black" stroke-linejoin="round" fill="white" fill-opacity="1"/>
<!-- !right !both --><path d="M405.625 140.625 L405.625 179.375" stroke-width="0.5" stroke="black" stroke-linejoin="round" fill="white" fill-opacity="1"/>
<!-- !left !both --><path d="M356.875 146.875 L356.875 173.125" stroke-width="0.5" stroke="black" stroke-linejoin="round" fill="white" fill-opacity="1"/>


<!-- renderSideComponent: head -->


<!-- renderPart: hexagonal -->
<path d="M405.575 140.625 L438.175 140 L438.175 180 L405.575 179.375 Z" stroke-width="0" stroke="none" stroke-linejoin="round" fill="white" fill-opacity="1"/>
<path d="M405.625 140.625 L438.125 140 M438.125 180 L405.625 179.375" stroke-width="0.5" stroke="black" stroke-linejoin="round" fill="white" fill-opacity="1"/>
<!-- !right !both --><path d="M438.125 140 L438.125 180" stroke-width="0.5" stroke="black" stroke-linejoin="round" fill="white" fill-opacity="1"/>
<!-- !left !both --><path d="M405.625 140.625 L405.625 179.375" stroke-width="0.5" stroke="black" stroke-linejoin="round" fill="white" fill-opacity="1"/>
<line x1="428.125" y1="160" x2="460.625" y2="160" stroke-width="1.5" stroke="gray" fill="gray" stroke-opacity="1.0"/>
<line x1="428.125" y1="160" x2="460.625" y2="160" stroke-width="0.5" stroke="black" fill="none" stroke-opacity="0.5"/>


<!-- renderSideComponent: grip -->


<!-- renderPart: hexagonal -->
<path d="M438.075 140 L444.425 140 L444.425 180 L438.075 180 Z" stroke-width="0" stroke="none" stroke-linejoin="round" fill="white" fill-opacity="1"/>
<path d="M438.125 140 L444.375 140 M444.375 180 L438.125 180" stroke-width="0.5" stroke="black" stroke-linejoin="round" fill="white" fill-opacity="1"/>
<!-- !right !both --><path d="M444.375 140 L444.375 180" stroke-width="0.5" stroke="black" stroke-linejoin="round" fill="white" fill-opacity="1"/>
<!-- !left !both --><path d="M438.125 140 L438.125 180" stroke-width="0.5" stroke="black" stroke-linejoin="round" fill="white" fill-opacity="1"/>
<line x1="438.125" y1="160" x2="444.375" y2="160" stroke-width="1.5" stroke="gray" fill="gray" stroke-opacity="1.0"/>
<line x1="438.125" y1="160" x2="444.375" y2="160" stroke-width="0.5" stroke="black" fill="none" stroke-opacity="0.5"/>


<!-- renderPart: hexagonal -->
<path d="M444.325 140.625 L450.675 140.625 L450.675 179.375 L444.325 179.375 Z" stroke-width="0" stroke="none" stroke-linejoin="round" fill="white" fill-opacity="1"/>
<path d="M444.375 140.625 L450.625 140.625 M450.625 179.375 L444.375 179.375" stroke-width="0.5" stroke="black" stroke-linejoin="round" fill="white" fill-opacity="1"/>
<!-- !right !both --><path d="M450.625 140.625 L450.625 179.375" stroke-width="0.5" stroke="black" stroke-linejoin="round" fill="white" fill-opacity="1"/>
<!-- !left !both --><path d="M444.375 140.625 L444.375 179.375" stroke-width="0.5" stroke="black" stroke-linejoin="round" fill="white" fill-opacity="1"/>
<line x1="444.375" y1="160" x2="450.625" y2="160" stroke-width="1.5" stroke="gray" fill="gray" stroke-opacity="1.0"/>
<line x1="444.375" y1="160" x2="450.625" y2="160" stroke-width="0.5" stroke="black" fill="none" stroke-opacity="0.5"/>


<!-- renderPart: hexagonal -->
<path d="M450.575 140 L456.925 140 L456.925 180 L450.575 180 Z" stroke-width="0" stroke="none" stroke-linejoin="round" fill="white" fill-opacity="1"/>
<path d="M450.625 140 L456.875 140 M456.875 180 L450.625 180" stroke-width="0.5" stroke="black" stroke-linejoin="round" fill="white" fill-opacity="1"/>
<!-- !right !both --><path d="M456.875 140 L456.875 180" stroke-width="0.5" stroke="black" stroke-linejoin="round" fill="white" fill-opacity="1"/>
<!-- !left !both --><path d="M450.625 140 L450.625 180" stroke-width="0.5" stroke="black" stroke-linejoin="round" fill="white" fill-opacity="1"/>
<line x1="450.625" y1="160" x2="456.875" y2="160" stroke-width="1.5" stroke="gray" fill="gray" stroke-opacity="1.0"/>
<line x1="450.625" y1="160" x2="456.875" y2="160" stroke-width="0.5" stroke="black" fill="none" stroke-opacity="0.5"/>


<!-- renderPart: hexagonal -->
<path d="M456.825 140.625 L463.175 140.625 L463.175 179.375 L456.825 179.375 Z" stroke-width="0" stroke="none" stroke-linejoin="round" fill="white" fill-opacity="1"/>
<path d="M456.875 140.625 L463.125 140.625 M463.125 179.375 L456.875 179.375" stroke-width="0.5" stroke="black" stroke-linejoin="round" fill="white" fill-opacity="1"/>
<!-- !right !both --><path d="M463.125 140.625 L463.125 179.375" stroke-width="0.5" stroke="black" stroke-linejoin="round" fill="white" fill-opacity="1"/>
<!-- !left !both --><path d="M456.875 140.625 L456.875 179.375" stroke-width="0.5" stroke="black" stroke-linejoin="round" fill="white" fill-opacity="1"/>
<line x1="456.875" y1="160" x2="463.125" y2="160" stroke-width="1.5" stroke="gray" fill="gray" stroke-opacity="1.0"/>
<line x1="456.875" y1="160" x2="463.125" y2="160" stroke-width="0.5" stroke="black" fill="none" stroke-opacity="0.5"/>


<!-- renderPart: hexagonal -->
<path d="M463.075 140 L469.425 140 L469.425 180 L463.075 180 Z" stroke-width="0" stroke="none" stroke-linejoin="round" fill="white" fill-opacity="1"/>
<path d="M463.125 140 L469.375 140 M469.375 180 L463.125 180" stroke-width="0.5" stroke="black" stroke-linejoin="round" fill="white" fill-opacity="1"/>
<!-- !right !both --><path d="M469.375 140 L469.375 180" stroke-width="0.5" stroke="black" stroke-linejoin="round" fill="white" fill-opacity="1"/>
<!-- !left !both --><path d="M463.125 140 L463.125 180" stroke-width="0.5" stroke="black" stroke-linejoin="round" fill="white" fill-opacity="1"/>
<line x1="463.125" y1="160" x2="469.375" y2="160" stroke-width="1.5" stroke="gray" fill="gray" stroke-opacity="1.0"/>
<line x1="463.125" y1="160" x2="469.375" y2="160" stroke-width="0.5" stroke="black" fill="none" stroke-opacity="0.5"/>


<!-- renderPart: hexagonal -->
<path d="M469.325 140.625 L475.675 140.625 L475.675 179.375 L469.325 179.375 Z" stroke-width="0" stroke="none" stroke-linejoin="round" fill="white" fill-opacity="1"/>
<path d="M469.375 140.625 L475.625 140.625 M475.625 179.375 L469.375 179.375" stroke-width="0.5" stroke="black" stroke-linejoin="round" fill="white" fill-opacity="1"/>
<!-- !right !both --><path d="M475.625 140.625 L475.625 179.375" stroke-width="0.5" stroke="black" stroke-linejoin="round" fill="white" fill-opacity="1"/>
<!-- !left !both --><path d="M469.375 140.625 L469.375 179.375" stroke-width="0.5" stroke="black" stroke-linejoin="round" fill="white" fill-opacity="1"/>
<line x1="469.375" y1="160" x2="475.625" y2="160" stroke-width="1.5" stroke="gray" fill="gray" stroke-opacity="1.0"/>
<line x1="469.375" y1="160" x2="475.625" y2="160" stroke-width="0.5" stroke="black" fill="none" stroke-opacity="0.5"/>


<!-- renderPart: hexagonal -->
<path d="M475.575 140 L481.925 140 L481.925 180 L475.575 180 Z" stroke-width="0" stroke="none" stroke-linejoin="round" fill="white" fill-opacity="1"/>
<path d="M475.625 140 L481.875 140 M481.875 180 L475.625 180" stroke-width="0.5" stroke="black" stroke-linejoin="round" fill="white" fill-opacity="1"/>
<!-- !right !both --><path d="M481.875 140 L481.875 180" stroke-width="0.5" stroke="black" stroke-linejoin="round" fill="white" fill-opacity="1"/>
<!-- !left !both --><path d="M475.625 140 L475.625 180" stroke-width="0.5" stroke="black" stroke-linejoin="round" fill="white" fill-opacity="1"/>
<line x1="475.625" y1="160" x2="481.875" y2="160" stroke-width="1.5" stroke="gray" fill="gray" stroke-opacity="1.0"/>
<line x1="475.625" y1="160" x2="481.875" y2="160" stroke-width="0.5" stroke="black" fill="none" stroke-opacity="0.5"/>


<!-- renderPart: hexagonal -->
<path d="M481.825 140.625 L488.175 140.625 L488.175 179.375 L481.825 179.375 Z" stroke-width="0" stroke="none" stroke-linejoin="round" fill="white" fill-opacity="1"/>
<path d="M481.875 140.625 L488.125 140.625 M488.125 179.375 L481.875 179.375" stroke-width="0.5" stroke="black" stroke-linejoin="round" fill="white" fill-opacity="1"/>
<!-- !right !both --><path d="M488.125 140.625 L488.125 179.375" stroke-width="0.5" stroke="black" stroke-linejoin="round" fill="white" fill-opacity="1"/>
<!-- !left !both --><path d="M481.875 140.625 L481.875 179.375" stroke-width="0.5" stroke="black" stroke-linejoin="round" fill="white" fill-opacity="1"/>
<line x1="481.875" y1="160" x2="488.125" y2="160" stroke-width="1.5" stroke="gray" fill="gray" stroke-opacity="1.0"/>
<line x1="481.875" y1="160" x2="488.125" y2="160" stroke-width="0.5" stroke="black" fill="none" stroke-opacity="0.5"/>


<!-- renderPart: hexagonal -->
<path d="M488.075 140 L494.425 140 L494.425 180 L488.075 180 Z" stroke-width="0" stroke="none" stroke-linejoin="round" fill="white" fill-opacity="1"/>
<path d="M488.125 140 L494.375 140 M494.375 180 L488.125 180" stroke-width="0.5" stroke="black" stroke-linejoin="round" fill="white" fill-opacity="1"/>
<!-- !right !both --><path d="M494.375 140 L494.375 180" stroke-width="0.5" stroke="black" stroke-linejoin="round" fill="white" fill-opacity="1"/>
<!-- !left !both --><path d="M488.125 140 L488.125 180" stroke-width="0.5" stroke="black" stroke-linejoin="round" fill="white" fill-opacity="1"/>
<line x1="488.125" y1="160" x2="494.375" y2="160" stroke-width="1.5" stroke="gray" fill="gray" stroke-opacity="1.0"/>
<line x1="488.125" y1="160" x2="494.375" y2="160" stroke-width="0.5" stroke="black" fill="none" stroke-opacity="0.5"/>


<!-- renderPart: hexagonal -->
<path d="M494.325 140.625 L500.675 140.625 L500.675 179.375 L494.325 179.375 Z" stroke-width="0" stroke="none" stroke-linejoin="round" fill="white" fill-opacity="1"/>
<path d="M494.375 140.625 L500.625 140.625 M500.625 179.375 L494.375 179.375" stroke-width="0.5" stroke="black" stroke-linejoin="round" fill="white" fill-opacity="1"/>
<!-- !right !both --><path d="M500.625 140.625 L500.625 179.375" stroke-width="0.5" stroke="black" stroke-linejoin="round" fill="white" fill-opacity="1"/>
<!-- !left !both --><path d="M494.375 140.625 L494.375 179.375" stroke-width="0.5" stroke="black" stroke-linejoin="round" fill="white" fill-opacity="1"/>
<line x1="494.375" y1="160" x2="500.625" y2="160" stroke-width="1.5" stroke="gray" fill="gray" stroke-opacity="1.0"/>
<line x1="494.375" y1="160" x2="500.625" y2="160" stroke-width="0.5" stroke="black" fill="none" stroke-opacity="0.5"/>


<!-- renderPart: hexagonal -->
<path d="M500.575 140 L506.925 140 L506.925 180 L500.575 180 Z" stroke-width="0" stroke="none" stroke-linejoin="round" fill="white" fill-opacity="1"/>
<path d="M500.625 140 L506.875 140 M506.875 180 L500.625 180" stroke-width="0.5" stroke="black" stroke-linejoin="round" fill="white" fill-opacity="1"/>
<!-- !right !both --><path d="M506.875 140 L506.875 180" stroke-width="0.5" stroke="black" stroke-linejoin="round" fill="white" fill-opacity="1"/>
<!-- !left !both --><path d="M500.625 140 L500.625 180" stroke-width="0.5" stroke="black" stroke-linejoin="round" fill="white" fill-opacity="1"/>
<line x1="500.625" y1="160" x2="506.875" y2="160" stroke-width="1.5" stroke="gray" fill="gray" stroke-opacity="1.0"/>
<line x1="500.625" y1="160" x2="506.875" y2="160" stroke-width="0.5" stroke="black" fill="none" stroke-opacity="0.5"/>


<!-- renderPart: hexagonal -->
<path d="M506.825 140.625 L513.175 140.625 L513.175 179.375 L506.825 179.375 Z" stroke-width="0" stroke="none" stroke-linejoin="round" fill="white" fill-opacity="1"/>
<path d="M506.875 140.625 L513.125 140.625 M513.125 179.375 L506.875 179.375" stroke-width="0.5" stroke="black" stroke-linejoin="round" fill="white" fill-opacity="1"/>
<!-- !right !both --><path d="M513.125 140.625 L513.125 179.375" stroke-width="0.5" stroke="black" stroke-linejoin="round" fill="white" fill-opacity="1"/>
<!-- !left !both --><path d="M506.875 140.625 L506.875 179.375" stroke-width="0.5" stroke="black" stroke-linejoin="round" fill="white" fill-opacity="1"/>
<line x1="506.875" y1="160" x2="513.125" y2="160" stroke-width="1.5" stroke="gray" fill="gray" stroke-opacity="1.0"/>
<line x1="506.875" y1="160" x2="513.125" y2="160" stroke-width="0.5" stroke="black" fill="none" stroke-opacity="0.5"/>


<!-- renderPart: hexagonal -->
<path d="M513.075 140 L519.425 140 L519.425 180 L513.075 180 Z" stroke-width="0" stroke="none" stroke-linejoin="round" fill="white" fill-opacity="1"/>
<path d="M513.125 140 L519.375 140 M519.375 180 L513.125 180" stroke-width="0.5" stroke="black" stroke-linejoin="round" fill="white" fill-opacity="1"/>
<!-- !right !both --><path d="M519.375 140 L519.375 180" stroke-width="0.5" stroke="black" stroke-linejoin="round" fill="white" fill-opacity="1"/>
<!-- !left !both --><path d="M513.125 140 L513.125 180" stroke-width="0.5" stroke="black" stroke-linejoin="round" fill="white" fill-opacity="1"/>
<line x1="513.125" y1="160" x2="519.375" y2="160" stroke-width="1.5" stroke="gray" fill="gray" stroke-opacity="1.0"/>
<line x1="513.125" y1="160" x2="519.375" y2="160" stroke-width="0.5" stroke="black" fill="none" stroke-opacity="0.5"/>


<!-- renderPart: hexagonal -->
<path d="M519.325 140.625 L525.675 140.625 L525.675 179.375 L519.325 179.375 Z" stroke-width="0" stroke="none" stroke-linejoin="round" fill="white" fill-opacity="1"/>
<path d="M519.375 140.625 L525.625 140.625 M525.625 179.375 L519.375 179.375" stroke-width="0.5" stroke="black" stroke-linejoin="round" fill="white" fill-opacity="1"/>
<!-- !right !both --><path d="M525.625 140.625 L525.625 179.375" stroke-width="0.5" stroke="black" stroke-linejoin="round" fill="white" fill-opacity="1"/>
<!-- !left !both --><path d="M519.375 140.625 L519.375 179.375" stroke-width="0.5" stroke="black" stroke-linejoin="round" fill="white" fill-opacity="1"/>
<line x1="519.375" y1="160" x2="525.625" y2="160" stroke-width="1.5" stroke="gray" fill="gray" stroke-opacity="1.0"/>
<line x1="519.375" y1="160" x2="525.625" y2="160" stroke-width="0.5" stroke="black" fill="none" stroke-opacity="0.5"/>


<!-- renderPart: hexagonal -->
<path d="M525.575 140 L531.925 140 L531.925 180 L525.575 180 Z" stroke-width="0" stroke="none" stroke-linejoin="round" fill="white" fill-opacity="1"/>
<path d="M525.625 140 L531.875 140 M531.875 180 L525.625 180" stroke-width="0.5" stroke="black" stroke-linejoin="round" fill="white" fill-opacity="1"/>
<!-- !right !both --><path d="M531.875 140 L531.875 180" stroke-width="0.5" stroke="black" stroke-linejoin="round" fill="white" fill-opacity="1"/>
<!-- !left !both --><path d="M525.625 140 L525.625 180" stroke-width="0.5" stroke="black" stroke-linejoin="round" fill="white" fill-opacity="1"/>
<line x1="525.625" y1="160" x2="531.875" y2="160" stroke-width="1.5" stroke="gray" fill="gray" stroke-opacity="1.0"/>
<line x1="525.625" y1="160" x2="531.875" y2="160" stroke-width="0.5" stroke="black" fill="none" stroke-opacity="0.5"/>


<!-- renderPart: hexagonal -->
<path d="M531.825 140.625 L538.175 140.625 L538.175 179.375 L531.825 179.375 Z" stroke-width="0" stroke="none" stroke-linejoin="round" fill="white" fill-opacity="1"/>
<path d="M531.875 140.625 L538.125 140.625 M538.125 179.375 L531.875 179.375" stroke-width="0.5" stroke="black" stroke-linejoin="round" fill="white" fill-opacity="1"/>
<!-- !right !both --><path d="M538.125 140.625 L538.125 179.375" stroke-width="0.5" stroke="black" stroke-linejoin="round" fill="white" fill-opacity="1"/>
<!-- !left !both --><path d="M531.875 140.625 L531.875 179.375" stroke-width="0.5" stroke="black" stroke-linejoin="round" fill="white" fill-opacity="1"/>
<line x1="531.875" y1="160" x2="538.125" y2="160" stroke-width="1.5" stroke="gray" fill="gray" stroke-opacity="1.0"/>
<line x1="531.875" y1="160" x2="538.125" y2="160" stroke-width="0.5" stroke="black" fill="none" stroke-opacity="0.5"/>


<!-- renderPart: hexagonal -->
<path d="M538.075 140 L544.425 140 L544.425 180 L538.075 180 Z" stroke-width="0" stroke="none" stroke-linejoin="round" fill="white" fill-opacity="1"/>
<path d="M538.125 140 L544.375 140 M544.375 180 L538.125 180" stroke-width="0.5" stroke="black" stroke-linejoin="round" fill="white" fill-opacity="1"/>
<!-- !right !both --><path d="M544.375 140 L544.375 180" stroke-width="0.5" stroke="black" stroke-linejoin="round" fill="white" fill-opacity="1"/>
<!-- !left !both --><path d="M538.125 140 L538.125 180" stroke-width="0.5" stroke="black" stroke-linejoin="round" fill="white" fill-opacity="1"/>
<line x1="538.125" y1="160" x2="544.375" y2="160" stroke-width="1.5" stroke="gray" fill="gray" stroke-opacity="1.0"/>
<line x1="538.125" y1="160" x2="544.375" y2="160" stroke-width="0.5" stroke="black" fill="none" stroke-opacity="0.5"/>


<!-- renderPart: hexagonal -->
<path d="M544.325 140.625 L550.675 140.625 L550.675 179.375 L544.325 179.375 Z" stroke-width="0" stroke="none" stroke-linejoin="round" fill="white" fill-opacity="1"/>
<path d="M544.375 140.625 L550.625 140.625 M550.625 179.375 L544.375 179.375" stroke-width="0.5" stroke="black" stroke-linejoin="round" fill="white" fill-opacity="1"/>
<!-- !right !both --><path d="M550.625 140.625 L550.625 179.375" stroke-width="0.5" stroke="black" stroke-linejoin="round" fill="white" fill-opacity="1"/>
<!-- !left !both --><path d="M544.375 140.625 L544.375 179.375" stroke-width="0.5" stroke="black" stroke-linejoin="round" fill="white" fill-opacity="1"/>
<line x1="544.375" y1="160" x2="550.625" y2="160" stroke-width="1.5" stroke="gray" fill="gray" stroke-opacity="1.0"/>
<line x1="544.375" y1="160" x2="550.625" y2="160" stroke-width="0.5" stroke="black" fill="none" stroke-opacity="0.5"/>


<!-- renderPart: hexagonal -->
<path d="M550.575 140 L556.925 140 L556.925 180 L550.575 180 Z" stroke-width="0" stroke="none" stroke-linejoin="round" fill="white" fill-opacity="1"/>
<path d="M550.625 140 L556.875 140 M556.875 180 L550.625 180" stroke-width="0.5" stroke="black" stroke-linejoin="round" fill="white" fill-opacity="1"/>
<!-- !right !both --><path d="M556.875 140 L556.875 180" stroke-width="0.5" stroke="black" stroke-linejoin="round" fill="white" fill-opacity="1"/>
<!-- !left !both --><path d="M550.625 140 L550.625 180" stroke-width="0.5" stroke="black" stroke-linejoin="round" fill="white" fill-opacity="1"/>
<line x1="550.625" y1="160" x2="556.875" y2="160" stroke-width="1.5" stroke="gray" fill="gray" stroke-opacity="1.0"/>
<line x1="550.625" y1="160" x2="556.875" y2="160" stroke-width="0.5" stroke="black" fill="none" stroke-opacity="0.5"/>


<!-- renderPart: hexagonal -->
<path d="M556.825 140.625 L563.175 140.625 L563.175 179.375 L556.825 179.375 Z" stroke-width="0" stroke="none" stroke-linejoin="round" fill="white" fill-opacity="1"/>
<path d="M556.875 140.625 L563.125 140.625 M563.125 179.375 L556.875 179.375" stroke-width="0.5" stroke="black" stroke-linejoin="round" fill="white" fill-opacity="1"/>
<!-- !right !both --><path d="M563.125 140.625 L563.125 179.375" stroke-width="0.5" stroke="black" stroke-linejoin="round" fill="white" fill-opacity="1"/>
<!-- !left !both --><path d="M556.875 140.625 L556.875 179.375" stroke-width="0.5" stroke="black" stroke-linejoin="round" fill="white" fill-opacity="1"/>
<line x1="556.875" y1="160" x2="563.125" y2="160" stroke-width="1.5" stroke="gray" fill="gray" stroke-opacity="1.0"/>
<line x1="556.875" y1="160" x2="563.125" y2="160" stroke-width="0.5" stroke="black" fill="none" stroke-opacity="0.5"/>


<!-- renderPart: hexagonal -->
<path d="M563.075 140 L569.425 140 L569.425 180 L563.075 180 Z" stroke-width="0" stroke="none" stroke-linejoin="round" fill="white" fill-opacity="1"/>
<path d="M563.125 140 L569.375 140 M569.375 180 L563.125 180" stroke-width="0.5" stroke="black" stroke-linejoin="round" fill="white" fill-opacity="1"/>
<!-- !right !both --><path d="M569.375 140 L569.375 180" stroke-width="0.5" stroke="black" stroke-linejoin="round" fill="white" fill-opacity="1"/>
<!-- !left !both --><path d="M563.125 140 L563.125 180" stroke-width="0.5" stroke="black" stroke-linejoin="round" fill="white" fill-opacity="1"/>
<line x1="563.125" y1="160" x2="569.375" y2="160" stroke-width="1.5" stroke="gray" fill="gray" stroke-opacity="1.0"/>
<line x1="563.125" y1="160" x2="569.375" y2="160" stroke-width="0.5" stroke="black" fill="none" stroke-opacity="0.5"/>


<!-- renderPart: hexagonal -->
<path d="M569.325 140.625 L575.675 140.625 L575.675 179.375 L569.325 179.375 Z" stroke-width="0" stroke="none" stroke-linejoin="round" fill="white" fill-opacity="1"/>
<path d="M569.375 140.625 L575.625 140.625 M575.625 179.375 L569.375 179.375" stroke-width="0.5" stroke="black" stroke-linejoin="round" fill="white" fill-opacity="1"/>
<!-- !right !both --><path d="M575.625 140.625 L575.625 179.375" stroke-width="0.5" stroke="black" stroke-linejoin="round" fill="white" fill-opacity="1"/>
<!-- !left !both --><path d="M569.375 140.625 L569.375 179.375" stroke-width="0.5" stroke="black" stroke-linejoin="round" fill="white" fill-opacity="1"/>
<line x1="569.375" y1="160" x2="575.625" y2="160" stroke-width="1.5" stroke="gray" fill="gray" stroke-opacity="1.0"/>
<line x1="569.375" y1="160" x2="575.625" y2="160" stroke-width="0.5" stroke="black" fill="none" stroke-opacity="0.5"/>


<!-- renderPart: hexagonal -->
<path d="M575.575 140 L581.925 140 L581.925 180 L575.575 180 Z" stroke-width="0" stroke="none" stroke-linejoin="round" fill="white" fill-opacity="1"/>
<path d="M575.625 140 L581.875 140 M581.875 180 L575.625 180" stroke-width="0.5" stroke="black" stroke-linejoin="round" fill="white" fill-opacity="1"/>
<!-- !right !both --><path d="M581.875 140 L581.875 180" stroke-width="0.5" stroke="black" stroke-linejoin="round" fill="white" fill-opacity="1"/>
<!-- !left !both --><path d="M575.625 140 L575.625 180" stroke-width="0.5" stroke="black" stroke-linejoin="round" fill="white" fill-opacity="1"/>
<line x1="575.625" y1="160" x2="581.875" y2="160" stroke-width="1.5" stroke="gray" fill="gray" stroke-opacity="1.0"/>
<line x1="575.625" y1="160" x2="581.875" y2="160" stroke-width="0.5" stroke="black" fill="none" stroke-opacity="0.5"/>


<!-- renderPart: hexagonal -->
<path d="M581.825 140.625 L588.175 140.625 L588.175 179.375 L581.825 179.375 Z" stroke-width="0" stroke="none" stroke-linejoin="round" fill="white" fill-opacity="1"/>
<path d="M581.875 140.625 L588.125 140.625 M588.125 179.375 L581.875 179.375" stroke-width="0.5" stroke="black" stroke-linejoin="round" fill="white" fill-opacity="1"/>
<!-- !right !both --><path d="M588.125 140.625 L588.125 179.375" stroke-width="0.5" stroke="black" stroke-linejoin="round" fill="white" fill-opacity="1"/>
<!-- !left !both --><path d="M581.875 140.625 L581.875 179.375" stroke-width="0.5" stroke="black" stroke-linejoin="round" fill="white" fill-opacity="1"/>
<line x1="581.875" y1="160" x2="588.125" y2="160" stroke-width="1.5" stroke="gray" fill="gray" stroke-opacity="1.0"/>
<line x1="581.875" y1="160" x2="588.125" y2="160" stroke-width="0.5" stroke="black" fill="none" stroke-opacity="0.5"/>


<!-- renderPart: hexagonal -->
<path d="M588.075 140 L594.425 140 L594.425 180 L588.075 180 Z" stroke-width="0" stroke="none" stroke-linejoin="round" fill="white" fill-opacity="1"/>
<path d="M588.125 140 L594.375 140 M594.375 180 L588.125 180" stroke-width="0.5" stroke="black" stroke-linejoin="round" fill="white" fill-opacity="1"/>
<!-- !right !both --><path d="M594.375 140 L594.375 180" stroke-width="0.5" stroke="black" stroke-linejoin="round" fill="white" fill-opacity="1"/>
<!-- !left !both --><path d="M588.125 140 L588.125 180" stroke-width="0.5" stroke="black" stroke-linejoin="round" fill="white" fill-opacity="1"/>
<line x1="588.125" y1="160" x2="594.375" y2="160" stroke-width="1.5" stroke="gray" fill="gray" stroke-opacity="1.0"/>
<line x1="588.125" y1="160" x2="594.375" y2="160" stroke-width="0.5" stroke="black" fill="none" stroke-opacity="0.5"/>


<!-- renderPart: hexagonal -->
<path d="M594.325 140.625 L600.675 140.625 L600.675 179.375 L594.325 179.375 Z" stroke-width="0" stroke="none" stroke-linejoin="round" fill="white" fill-opacity="1"/>
<path d="M594.375 140.625 L600.625 140.625 M600.625 179.375 L594.375 179.375" stroke-width="0.5" stroke="black" stroke-linejoin="round" fill="white" fill-opacity="1"/>
<!-- !right !both --><path d="M600.625 140.625 L600.625 179.375" stroke-width="0.5" stroke="black" stroke-linejoin="round" fill="white" fill-opacity="1"/>
<!-- !left !both --><path d="M594.375 140.625 L594.375 179.375" stroke-width="0.5" stroke="black" stroke-linejoin="round" fill="white" fill-opacity="1"/>
<line x1="594.375" y1="160" x2="600.625" y2="160" stroke-width="1.5" stroke="gray" fill="gray" stroke-opacity="1.0"/>
<line x1="594.375" y1="160" x2="600.625" y2="160" stroke-width="0.5" stroke="black" fill="none" stroke-opacity="0.5"/>


<!-- renderSideComponent: body -->


<!-- renderPart: hexagonal -->
<path d="M600.575 140 L920.675 140 L920.675 180 L600.575 180 Z" stroke-width="0" stroke="none" stroke-linejoin="round" fill="white" fill-opacity="1"/>
<path d="M600.625 140 L920.625 140 M920.625 180 L600.625 180" stroke-width="0.5" stroke="black" stroke-linejoin="round" fill="white" fill-opacity="1"/>
<!-- !right !both --><path d="M920.625 140 L920.625 180" stroke-width="0.5" stroke="black" stroke-linejoin="round" fill="white" fill-opacity="1"/>
<!-- !left !both --><path d="M600.625 140 L600.625 180" stroke-width="0.5" stroke="black" stroke-linejoin="round" fill="white" fill-opacity="1"/>
<line x1="600.625" y1="160" x2="920.625" y2="160" stroke-width="1.5" stroke="gray" fill="gray" stroke-opacity="1.0"/>
<line x1="600.625" y1="160" x2="920.625" y2="160" stroke-width="0.5" stroke="black" fill="none" stroke-opacity="0.5"/>


<!-- renderSideComponent: clip -->
<path d="M785.625 132.25 Q808.125 148.5 818.125 128.5" stroke-width="4" stroke="black" fill="none" stroke-linecap="round" />
<path d="M785.625 131 Q875.625 118.5 968.125 131" stroke-width="4" stroke="black" fill="none" stroke-linecap="round" />
<path d="M968.125 131 Q973.125 134.75 968.125 138.5" stroke-width="4" stroke="black" fill="none" stroke-linecap="round" />
<line x1="968.125" y1="138.5" x2="953.125" y2="138.5" stroke-width="4" stroke="black" fill="dimgray" stroke-linecap="round" />


<!-- renderPart: hexagonal -->
<path d="M920.575 137.5 L954.425 137.5 L954.425 182.5 L920.575 182.5 Z" stroke-width="0" stroke="none" stroke-linejoin="round" fill="white" fill-opacity="1"/>
<path d="M920.625 137.5 L954.375 137.5 M954.375 182.5 L920.625 182.5" stroke-width="0.5" stroke="black" stroke-linejoin="round" fill="white" fill-opacity="1"/>
<!-- !right !both --><path d="M954.375 137.5 L954.375 182.5" stroke-width="0.5" stroke="black" stroke-linejoin="round" fill="white" fill-opacity="1"/>
<!-- !left !both --><path d="M920.625 137.5 L920.625 182.5" stroke-width="0.5" stroke="black" stroke-linejoin="round" fill="white" fill-opacity="1"/>
<line x1="920.625" y1="160" x2="954.375" y2="160" stroke-width="1.5" stroke="gray" fill="gray" stroke-opacity="1.0"/>
<line x1="920.625" y1="160" x2="954.375" y2="160" stroke-width="0.5" stroke="black" fill="none" stroke-opacity="0.5"/>
<path d="M785.625 132.25 Q808.125 148.5 818.125 128.5" stroke-width="3" stroke="white" fill="none" stroke-linecap="round" />
<path d="M785.625 131 Q875.625 118.5 968.125 131" stroke-width="3" stroke="white" fill="none" stroke-linecap="round" />
<path d="M968.125 131 Q973.125 134.75 968.125 138.5" stroke-width="3" stroke="white" fill="none" stroke-linecap="round" />
<line x1="968.125" y1="138.5" x2="953.125" y2="138.5" stroke-width="3" stroke="white" fill="white" stroke-linecap="round" />


<!-- renderSideComponent: tail -->


<!-- renderPart: hexagonal -->
<path d="M954.325 140 L1010.675 140 L1010.675 180 L954.325 180 Z" stroke-width="0" stroke="none" stroke-linejoin="round" fill="white" fill-opacity="1"/>
<path d="M954.375 140 L1010.625 140 M1010.625 180 L954.375 180" stroke-width="0.5" stroke="black" stroke-linejoin="round" fill="white" fill-opacity="1"/>
<!-- !right !both --><path d="M1010.625 140 L1010.625 180" stroke-width="0.5" stroke="black" stroke-linejoin="round" fill="white" fill-opacity="1"/>
<!-- !left !both --><path d="M954.375 140 L954.375 180" stroke-width="0.5" stroke="black" stroke-linejoin="round" fill="white" fill-opacity="1"/>
<line x1="954.375" y1="160" x2="1010.625" y2="160" stroke-width="1.5" stroke="gray" fill="gray" stroke-opacity="1.0"/>
<line x1="954.375" y1="160" x2="1010.625" y2="160" stroke-width="0.5" stroke="black" fill="none" stroke-opacity="0.5"/>


<!-- renderSideComponent: eraser -->


<!-- renderSideComponent: cap -->


<!-- renderPart: cylinder -->
<path d="M1010.575 143.75 L1043.175 143.75 L1043.175 176.25 L1010.575 176.25 Z" stroke-width="0" stroke="none" stroke-linejoin="round" fill="white" fill-opacity="1"/>
<path d="M1010.625 143.75 L1043.125 143.75 M1043.125 176.25 L1010.625 176.25" stroke-width="0.5" stroke="black" stroke-linejoin="round" fill="white" fill-opacity="1"/>
<!-- !right !both --><path d="M1043.125 143.75 L1043.125 176.25" stroke-width="0.5" stroke="black" stroke-linejoin="round" fill="white" fill-opacity="1"/>
<!-- !left !both --><path d="M1010.625 143.75 L1010.625 176.25" stroke-width="0.5" stroke="black" stroke-linejoin="round" fill="white" fill-opacity="1"/>


<!-- renderPart: cylinder -->
<path d="M1043.075 145 L1048.175 145 L1048.175 175 L1043.075 175 Z" stroke-width="0" stroke="none" stroke-linejoin="round" fill="white" fill-opacity="1"/>
<path d="M1043.125 145 L1048.125 145 M1048.125 175 L1043.125 175" stroke-width="0.5" stroke="black" stroke-linejoin="round" fill="white" fill-opacity="1"/>
<!-- !right !both --><path d="M1048.125 145 L1048.125 175" stroke-width="0.5" stroke="black" stroke-linejoin="round" fill="white" fill-opacity="1"/>
<!-- !left !both --><path d="M1043.125 145 L1043.125 175" stroke-width="0.5" stroke="black" stroke-linejoin="round" fill="white" fill-opacity="1"/>


<!-- renderPart: cylinder -->
<path d="M1048.075 143.75 L1053.175 143.75 L1053.175 176.25 L1048.075 176.25 Z" stroke-width="0" stroke="none" stroke-linejoin="round" fill="white" fill-opacity="1"/>
<path d="M1048.125 143.75 L1053.125 143.75 M1053.125 176.25 L1048.125 176.25" stroke-width="0.5" stroke="black" stroke-linejoin="round" fill="white" fill-opacity="1"/>
<!-- !right !both --><path d="M1053.125 143.75 L1053.125 176.25" stroke-width="0.5" stroke="black" stroke-linejoin="round" fill="white" fill-opacity="1"/>
<!-- !left !both --><path d="M1048.125 143.75 L1048.125 176.25" stroke-width="0.5" stroke="black" stroke-linejoin="round" fill="white" fill-opacity="1"/>
<path d="M1048.125 143.75 L1053.125 143.75 L1053.125 176.25 L1048.125 176.25 Z" stroke-width="1.0" stroke="black" fill="url(#lined)"/>


<!-- renderPart: cylinder -->
<path d="M1053.075 149.375 L1054.425 149.375 L1054.425 170.625 L1053.075 170.625 Z" stroke-width="0" stroke="none" stroke-linejoin="round" fill="white" fill-opacity="1"/>
<path d="M1053.125 149.375 L1054.375 149.375 M1054.375 170.625 L1053.125 170.625" stroke-width="0.5" stroke="black" stroke-linejoin="round" fill="white" fill-opacity="1"/>
<!-- !right !both --><path d="M1054.375 149.375 L1054.375 170.625" stroke-width="0.5" stroke="black" stroke-linejoin="round" fill="white" fill-opacity="1"/>
<!-- !left !both --><path d="M1053.125 149.375 L1053.125 170.625" stroke-width="0.5" stroke="black" stroke-linejoin="round" fill="white" fill-opacity="1"/>

<!-- TAPER START: hexagonal -->
<path d="M 405.525 140.25 L 428.125 140.25 C 398.3125 145, 398.3125 155, 428.125 160 C 398.3125 165, 398.3125 175, 428.125 179.75 L 405.525 179.75 Z" stroke-width="0" stroke="0" stroke-linecap="round" fill-opacity="1" fill="white" /><path d="M 428.125 140.5 C 398.3125 145, 398.3125 155, 428.125 160 C 398.3125 165, 398.3125 175, 428.125 179.45" stroke-width="1.5" stroke="gray" stroke-linecap="round" fill-opacity="0" fill="none" /><path d="M 428.125 140.5 C 398.3125 145, 398.3125 155, 428.125 160 C 398.3125 165, 398.3125 175, 428.125 179.5" stroke-width="0.5" stroke="black" stroke-opacity="0.5" stroke-linecap="round" fill-opacity="0" fill="none" /><text x="700" y="200" font-size="1.2em" font-weight="bold" text-anchor="middle" dominant-baseline="central">Criterium - LUXE (2.0 mm)</text>
</g><text x="50%" y="280" font-size="1.1em" font-weight="bold" text-anchor="middle" dominant-baseline="middle">Copyright (c) // Synapticloop // The Mechanical Pencil Database (tmpdb)</text>
<text x="50%" y="300" font-size="1.1em" font-weight="bold" text-anchor="middle" dominant-baseline="middle">Licensed under Creative Commons Attribution-NonCommercial-ShareAlike 4.0 International</text>
<text x="1390" y="310" font-size="0.5em" font-weight="bold" text-anchor="end" dominant-baseline="middle">SVGBrandExampleRenderer</text>
</svg>