<svg xmlns="http://www.w3.org/2000/svg" width="600" height="420">
<pattern id="diagonalHatch" patternUnits="userSpaceOnUse" width="8" height="8">
<rect width="6" height="6" fill='none'/>
<path stroke="dimgray" stroke-linecap="round" stroke-width="1" d="M 4,4 L 8,8"/>
<path stroke="dimgray" stroke-linecap="round" stroke-width="1" d="M 4,4 L 0,8"/>
<path stroke="gray" stroke-linecap="round" stroke-width="1" d="M 4,4 L 8,0" />
<path stroke="gray" stroke-linecap="round" stroke-width="1" d="M 4,4 L 0,0" />
</pattern>
<rect x="0" y="0" width="600" height="420" fill="white" stroke="black" stroke-width="4" />
<rect x="2" y="2" width="596" height="416" fill="white" stroke="dingray" stroke-width="1" />
<line x1="10" y1="210" x2="590" y2="210" stroke="#000000" stroke-dasharray="2" stroke-width="1" />
<line x1="10" y1="210" x2="50" y2="210" stroke="#000000"  stroke-width="1" />
<line x1="30" y1="190" x2="30" y2="230" stroke="#000000"  stroke-width="1" />
<circle r="10" cx="30" cy="210" fill="none" stroke="#000000" stroke-width="1"  />
<line x1="550" y1="210" x2="590" y2="210" stroke="#000000"  stroke-width="1" />
<line x1="570" y1="190" x2="570" y2="230" stroke="#000000"  stroke-width="1" />
<circle r="10" cx="570" cy="210" fill="none" stroke="#000000" stroke-width="1"  />
<line x1="160" y1="50" x2="160" y2="340" stroke="#000000" stroke-dasharray="2" stroke-width="1" />
<line x1="140" y1="30" x2="180" y2="30" stroke="#000000"  stroke-width="1" />
<line x1="160" y1="10" x2="160" y2="50" stroke="#000000"  stroke-width="1" />
<circle r="10" cx="160" cy="30" fill="none" stroke="#000000" stroke-width="1"  />
<line x1="140" y1="320" x2="180" y2="320" stroke="#000000"  stroke-width="1" />
<line x1="160" y1="300" x2="160" y2="340" stroke="#000000"  stroke-width="1" />
<circle r="10" cx="160" cy="320" fill="none" stroke="#000000" stroke-width="1"  />
<text x="30" y="50" font-size="2.0em" font-weight="bold"> indicator</text>
<line x1="100" y1="189.375" x2="500" y2="189.375" stroke="#cfcfcf"  stroke-width="1" />
<line x1="100" y1="230.625" x2="500" y2="230.625" stroke="#cfcfcf"  stroke-width="1" />
<line x1="139.375" y1="210" x2="139.375" y2="250.625" stroke="#cfcfcf"  stroke-width="1" />
<line x1="180.625" y1="210" x2="180.625" y2="250.625" stroke="#cfcfcf"  stroke-width="1" />
<line x1="-64.375" y1="90" x2="-64.375" y2="330" stroke="#cfcfcf"  stroke-width="1" />
<line x1="-16.875" y1="98.25" x2="-16.875" y2="306.25" stroke="#cfcfcf"  stroke-width="1" />
<line x1="99" y1="189.375" x2="121" y2="189.375" stroke="black" stroke-width="1" />
<line x1="110" y1="189.375" x2="110" y2="230.625" stroke="black" stroke-width="1" />
<line x1="99" y1="230.625" x2="121" y2="230.625" stroke="black" stroke-width="1" />
<text x="91" y="210" transform="rotate(-90, 91, 210)" font-size="1.2em" font-weight="bold" text-anchor="middle" dominant-baseline="central" fill="black">8.25 mm</text>
<line x1="139.375" y1="249.625" x2="139.375" y2="271.625" stroke="black" stroke-width="1" />
<line x1="139.375" y1="260.625" x2="180.625" y2="260.625" stroke="black" stroke-width="1" />
<line x1="180.625" y1="249.625" x2="180.625" y2="271.625" stroke="black" stroke-width="1" />
<text x="160" y="279.625" font-size="1.2em" font-weight="bold" text-anchor="middle" dominant-baseline="central" fill="black"><tspan x="160" dy="0">8.25 mm</tspan></text>
<circle r="20.625" cx="160" cy="210" fill="white" stroke="dimgray" stroke-width="1"  />
<rect x="240" y="189.375" width="47.5" height="41.25" rx="1" ry="1" stroke-width="0.5" stroke="black" fill="white"/>
<rect x="240" y="189.375" width="47.5" height="41.25" rx="1" ry="1" stroke-width="0.5" stroke="black" fill="url(#diagonalHatch)"/>
<rect x="250" y="199.6875" width="27.5" height="20.625" rx="1" ry="1" stroke-width="2" stroke="black" fill="white"/>
<text x="263.75" y="210" text-anchor="middle" dominant-baseline="central"><tspan stroke="dimgray" stroke-width="0.5" font-family="sans-serif" fill="black" textLength="{this.width * 5 - 24}" > HB</tspan></text><text x="50%" y="360" font-size="1.0em" font-weight="bold" text-anchor="middle" dominant-baseline="middle">Copyright (c)</text>
<text x="50%" y="380" font-size="1.0em" font-weight="bold" text-anchor="middle" dominant-baseline="middle">The Mechanical Pencil Database (tmpdb)</text>
<text x="50%" y="400" font-size="1.0em" font-weight="bold" text-anchor="middle" dominant-baseline="middle">Licensed under CC-BY-NC-SA-4.0</text>
</svg>
