<svg xmlns="http://www.w3.org/2000/svg" width="1200" height="569.5">
 <pattern id="diagonalHatch" patternUnits="userSpaceOnUse" width="8" height="8">
<path stroke="dimgray" stroke-linecap="round" stroke-width="1" d="M 4,4 L 8,8"/>
<path stroke="dimgray" stroke-linecap="round" stroke-width="1" d="M 4,4 L 0,8"/>
<path stroke="gray" stroke-linecap="round" stroke-width="1" d="M 4,4 L 8,0" />
<path stroke="gray" stroke-linecap="round" stroke-width="1" d="M 4,4 L 0,0" />
</pattern>
<pattern id="spring" patternUnits="userSpaceOnUse" width="8" height="100">
<path stroke="dimgray" stroke-linecap="round" stroke-width="2" d="M 0,0 L 8,100"/>
<path stroke="white" stroke-linecap="round" stroke-width="1" d="M 0,0 L 8,100"/>
</pattern>
<rect x="0" y="0" width="1200" height="569.5" fill="white" stroke="black" stroke-width="4" />
<rect x="2" y="2" width="1196" height="565.5" fill="white" stroke="dimgray" stroke-width="1" />
<g transform="rotate(0 0 0)">
<text x="30" y="50" font-size="2.0em" font-weight="bold"> STUDMARK // 3750 </text>
<path d="M235.625 111.875 L309.375 100 L309.375 140 L235.625 128.125 Z" stroke-width="0.5" stroke="black" stroke-linejoin="round" fill="silver" fill-opacity="1" />
<!-- julian --><rect x="309.375" y="99.375" width="21.25" height="41.25" rx="0" ry="0" stroke-width="0.5" stroke="black" fill="silver" fill-opacity="1"/>
<line x1="264.375" y1="220" x2="294.375" y2="220" stroke-linecap="round" stroke="#0f0f0f"  stroke-width="1.0" />
<line x1="274.375" y1="220" x2="284.375" y2="210" stroke-linecap="round" stroke="#0f0f0f" stroke-width="1.0" />
<line x1="274.375" y1="220" x2="284.375" y2="230" stroke-linecap="round" stroke="#0f0f0f" stroke-width="1.0" />
<line x1="264.375" y1="170" x2="264.375" y2="220" stroke="#0f0f0f" stroke-linecap="round"  stroke-width="1.0" />
<!-- julian --><rect x="304.375" y="206.875" width="5" height="26.25" rx="0" ry="0" stroke-width="0.5" stroke="black" fill="gold" fill-opacity="1"/>
<!-- julian --><rect x="309.375" y="201.875" width="21.25" height="36.25" rx="0" ry="0" stroke-width="0.5" stroke="black" fill="gold" fill-opacity="1"/>
<line x1="309.375" y1="199.875" x2="314.375" y2="240.125" stroke="dimgray" stroke-linecap="round" stroke-width="2" />
<line x1="309.375" y1="199.875" x2="314.375" y2="240.125" stroke="[object Object]" stroke-linecap="round" stroke-width="1" />
<line x1="314.375" y1="199.875" x2="319.375" y2="240.125" stroke="dimgray" stroke-linecap="round" stroke-width="2" />
<line x1="314.375" y1="199.875" x2="319.375" y2="240.125" stroke="[object Object]" stroke-linecap="round" stroke-width="1" />
<line x1="319.375" y1="199.875" x2="324.375" y2="240.125" stroke="dimgray" stroke-linecap="round" stroke-width="2" />
<line x1="319.375" y1="199.875" x2="324.375" y2="240.125" stroke="[object Object]" stroke-linecap="round" stroke-width="1" />
<line x1="324.375" y1="199.875" x2="329.375" y2="240.125" stroke="dimgray" stroke-linecap="round" stroke-width="2" />
<line x1="324.375" y1="199.875" x2="329.375" y2="240.125" stroke="[object Object]" stroke-linecap="round" stroke-width="1" />
<line x1="264.375" y1="170" x2="370.625" y2="170" stroke-linecap="round" stroke="#0f0f0f" stroke-width="1.0" />
<line x1="330.625" y1="180" x2="330.625" y2="260" stroke="white" stroke-linecap="round"  stroke-width="1.0" />
<line x1="330.625" y1="180" x2="330.625" y2="260" stroke="black" stroke-linecap="round" stroke-dasharray="2,3" stroke-width="1.0" />
<line x1="370.625" y1="120" x2="370.625" y2="170" stroke="#0f0f0f" stroke-linecap="round"  stroke-width="1.0" />
<line x1="340.625" y1="120" x2="370.625" y2="120" stroke-linecap="round" stroke="#0f0f0f"  stroke-width="1.0" />
<line x1="340.625" y1="120" x2="350.625" y2="110" stroke-linecap="round" stroke="#0f0f0f" stroke-width="1.0" />
<line x1="340.625" y1="120" x2="350.625" y2="130" stroke-linecap="round" stroke="#0f0f0f" stroke-width="1.0" />
<line x1="330.625" y1="180" x2="330.625" y2="260" stroke="white" stroke-linecap="round"  stroke-width="1.0" />
<line x1="330.625" y1="180" x2="330.625" y2="260" stroke="black" stroke-linecap="round" stroke-dasharray="2,3" stroke-width="1.0" />
<!-- julian --><rect x="330.625" y="201.875" width="25" height="36.25" rx="0" ry="0" stroke-width="0.5" stroke="black" fill="gold" fill-opacity="1"/>
<line x1="330.625" y1="199.875" x2="335.625" y2="240.125" stroke="dimgray" stroke-linecap="round" stroke-width="2" />
<line x1="330.625" y1="199.875" x2="335.625" y2="240.125" stroke="[object Object]" stroke-linecap="round" stroke-width="1" />
<line x1="335.625" y1="199.875" x2="340.625" y2="240.125" stroke="dimgray" stroke-linecap="round" stroke-width="2" />
<line x1="335.625" y1="199.875" x2="340.625" y2="240.125" stroke="[object Object]" stroke-linecap="round" stroke-width="1" />
<line x1="340.625" y1="199.875" x2="345.625" y2="240.125" stroke="dimgray" stroke-linecap="round" stroke-width="2" />
<line x1="340.625" y1="199.875" x2="345.625" y2="240.125" stroke="[object Object]" stroke-linecap="round" stroke-width="1" />
<line x1="345.625" y1="199.875" x2="350.625" y2="240.125" stroke="dimgray" stroke-linecap="round" stroke-width="2" />
<line x1="345.625" y1="199.875" x2="350.625" y2="240.125" stroke="[object Object]" stroke-linecap="round" stroke-width="1" />
<line x1="350.625" y1="199.875" x2="355.625" y2="240.125" stroke="dimgray" stroke-linecap="round" stroke-width="2" />
<line x1="350.625" y1="199.875" x2="355.625" y2="240.125" stroke="[object Object]" stroke-linecap="round" stroke-width="1" />
<!-- julian --><rect x="355.625" y="205" width="60" height="30" rx="0" ry="0" stroke-width="0.5" stroke="black" fill="gold" fill-opacity="1"/>
<!-- julian --><rect x="415.625" y="205" width="432.5" height="30" rx="0" ry="0" stroke-width="0.5" stroke="black" fill="white" fill-opacity="0.5"/>
<!-- julian --><rect x="826.875" y="211.875" width="82.5" height="16.25" rx="0" ry="0" stroke-width="0.5" stroke="black" fill="gold" fill-opacity="1"/>
<!-- julian --><rect x="415.625" y="205" width="432.5" height="30" rx="0" ry="0" stroke-width="0.5" stroke="black" fill="white" fill-opacity="0.5"/>
<line x1="340.625" y1="220" x2="970.625" y2="220" stroke-linecap="round" stroke="#0f0f0f"  stroke-width="1.0" />
<line x1="340.625" y1="220" x2="350.625" y2="210" stroke-linecap="round" stroke="#0f0f0f" stroke-width="1.0" />
<line x1="340.625" y1="220" x2="350.625" y2="230" stroke-linecap="round" stroke="#0f0f0f" stroke-width="1.0" />
<line x1="970.625" y1="220" x2="970.625" y2="270" stroke="#0f0f0f" stroke-linecap="round"  stroke-width="1.0" />
<line x1="290.625" y1="270" x2="970.625" y2="270" stroke-linecap="round" stroke="#0f0f0f" stroke-width="1.0" />
<line x1="290.625" y1="320" x2="320.625" y2="320" stroke-linecap="round" stroke="#0f0f0f"  stroke-width="1.0" />
<line x1="300.625" y1="320" x2="310.625" y2="310" stroke-linecap="round" stroke="#0f0f0f" stroke-width="1.0" />
<line x1="300.625" y1="320" x2="310.625" y2="330" stroke-linecap="round" stroke="#0f0f0f" stroke-width="1.0" />
<line x1="290.625" y1="270" x2="290.625" y2="320" stroke="#0f0f0f" stroke-linecap="round"  stroke-width="1.0" />
<!-- julian --><rect x="330.625" y="299.375" width="128.75" height="41.25" rx="0" ry="0" stroke-width="0.5" stroke="black" fill="silver" fill-opacity="1"/>
<rect x="330.625" y="299.375" width="128.75" height="41.25" rx="0" ry="0" stroke-width="0.5" stroke="black" fill="url(#diagonalHatch)"/>
<!-- julian --><rect x="459.375" y="299.375" width="330" height="41.25" rx="0" ry="0" stroke-width="0.5" stroke="black" fill="royalblue" fill-opacity="1"/>
<line x1="459.375" y1="320" x2="789.375" y2="320" stroke-width="1.5" stroke="black" fill="none" stroke-opacity="0.5"/>
<line x1="459.375" y1="320" x2="789.375" y2="320" stroke-width="0.5" stroke="gray" fill="none" stroke-opacity="0.5"/>
<path d="M631.5 286.5 Q654.375 309.75 664.375 284.25 Z" stroke-width="4" stroke="black" fill="dimgray" stroke-linecap="round" />
<line x1="629.375" y1="284.75" x2="796.875" y2="279.75" stroke-width="5" stroke="black" fill="dimgray" stroke-linecap="round" />
<line x1="796.875" y1="281" x2="819.375" y2="284.75" stroke-width="4" stroke="black" fill="dimgray" stroke-linecap="round" />
<path d="M819.375 284.75 Q851.875 289.75 819.375 297.25" stroke-width="4" stroke="black" fill="none" stroke-linecap="round" />
<!-- julian --><rect x="789.375" y="296.25" width="30" height="47.5" rx="0" ry="0" stroke-width="0.5" stroke="black" fill="silver" fill-opacity="1"/>
<path d="M631.5 286.5 Q654.375 308.75 664.375 284.25 Z" stroke-width="3" stroke="silver" fill="silver" stroke-linecap="round" />
<line x1="629.375" y1="284.75" x2="796.875" y2="279.75" stroke-width="4" stroke="silver" fill="silver" stroke-linecap="round" />
<line x1="796.875" y1="281" x2="819.375" y2="284.75" stroke-width="3" stroke="silver" fill="silver" stroke-linecap="round" />
<path d="M819.375 284.75 Q851.875 289.75 819.375 297.25" stroke-width="3" stroke="silver" fill="none" stroke-linecap="round" />
<!-- julian --><rect x="819.375" y="299.375" width="22.5" height="41.25" rx="0" ry="0" stroke-width="0.5" stroke="black" fill="royalblue" fill-opacity="1"/>
<!-- julian --><rect x="841.875" y="299.375" width="3.75" height="41.25" rx="0" ry="0" stroke-width="0.5" stroke="black" fill="red" fill-opacity="1"/>
<!-- julian --><rect x="845.625" y="299.375" width="47.5" height="41.25" rx="0" ry="0" stroke-width="0.5" stroke="black" fill="silver" fill-opacity="1"/>
<rect x="845.625" y="299.375" width="47.5" height="41.25" rx="0" ry="0" stroke-width="0.5" stroke="black" fill="url(#diagonalHatch)"/>
<rect x="855.625" y="309.6875" width="27.5" height="20.625" rx="0" ry="0" stroke-width="2" stroke="black" fill="[object Object]"/>
<text x="869.375" y="320" text-anchor="middle" dominant-baseline="central"><tspan stroke="dimgray" stroke-width="0.5" font-family="sans-serif" fill="black" textLength="{this.width * 5 - 24}" > HB</tspan></text><!-- julian --><rect x="893.125" y="299.375" width="12.5" height="41.25" rx="0" ry="0" stroke-width="0.5" stroke="black" fill="silver" fill-opacity="1"/>
<!-- julian --><rect x="905.625" y="406.25" width="52.5" height="27.5" rx="0" ry="0" stroke-width="0.5" stroke="black" fill="silver" fill-opacity="1"/>
<path d="M958.125 406.25 Q969.375 420 958.125 433.75" stroke-width="0.5" stroke="black" stroke-linejoin="round" fill="silver" fill-opacity="1"/>
<line x1="810.625" y1="420" x2="840.625" y2="420" stroke-linecap="round" stroke="#0f0f0f"  stroke-width="1.0" />
<line x1="820.625" y1="420" x2="830.625" y2="410" stroke-linecap="round" stroke="#0f0f0f" stroke-width="1.0" />
<line x1="820.625" y1="420" x2="830.625" y2="430" stroke-linecap="round" stroke="#0f0f0f" stroke-width="1.0" />
<line x1="810.625" y1="370" x2="810.625" y2="420" stroke="#0f0f0f" stroke-linecap="round"  stroke-width="1.0" />
<!-- julian --><rect x="850.625" y="406.25" width="20" height="27.5" rx="0" ry="0" stroke-width="0.5" stroke="black" fill="black" fill-opacity="1"/>
<!-- julian --><rect x="870.625" y="407.5" width="1.25" height="25" rx="0" ry="0" stroke-width="0.5" stroke="black" fill="black" fill-opacity="1"/>
<!-- julian --><rect x="871.875" y="406.25" width="33.75" height="27.5" rx="0" ry="0" stroke-width="0.5" stroke="black" fill="silver" fill-opacity="1"/>
<line x1="810.625" y1="370" x2="945.625" y2="370" stroke-linecap="round" stroke="#0f0f0f" stroke-width="1.0" />
<line x1="905.625" y1="380" x2="905.625" y2="460" stroke="white" stroke-linecap="round"  stroke-width="1.0" />
<line x1="905.625" y1="380" x2="905.625" y2="460" stroke="black" stroke-linecap="round" stroke-dasharray="2,3" stroke-width="1.0" />
<line x1="945.625" y1="320" x2="945.625" y2="370" stroke="#0f0f0f" stroke-linecap="round"  stroke-width="1.0" />
<line x1="915.625" y1="320" x2="945.625" y2="320" stroke-linecap="round" stroke="#0f0f0f"  stroke-width="1.0" />
<line x1="915.625" y1="320" x2="925.625" y2="310" stroke-linecap="round" stroke="#0f0f0f" stroke-width="1.0" />
<line x1="915.625" y1="320" x2="925.625" y2="330" stroke-linecap="round" stroke="#0f0f0f" stroke-width="1.0" />
</g><text x="50%" y="549.5" font-size="1.1em" font-weight="bold" text-anchor="middle" dominant-baseline="middle">Copyright (c) // The Mechanical Pencil Database (tmpdb) // Licensed under Creative Commons Attribution-NonCommercial-ShareAlike 4.0 International</text>
<text x="1190" y="559.5" font-size="0.5em" font-weight="bold" text-anchor="end" dominant-baseline="middle">SVGTechnicalExplodedRenderer</text>
</svg>