<svg xmlns="http://www.w3.org/2000/svg" width="1200" height="500">
 <pattern id="diagonalHatch" patternUnits="userSpaceOnUse" width="8" height="8">
<path stroke="dimgray" stroke-linecap="round" stroke-width="1" d="M 4,4 L 8,8"/>
<path stroke="dimgray" stroke-linecap="round" stroke-width="1" d="M 4,4 L 0,8"/>
<path stroke="gray" stroke-linecap="round" stroke-width="1" d="M 4,4 L 8,0" />
<path stroke="gray" stroke-linecap="round" stroke-width="1" d="M 4,4 L 0,0" />
</pattern>
<pattern id="spring" patternUnits="userSpaceOnUse" width="8" height="100">
<path stroke="dimgray" stroke-linecap="round" stroke-width="2" d="M 0,0 L 8,100"/>
<path stroke="white" stroke-linecap="round" stroke-width="1" d="M 0,0 L 8,100"/>
</pattern>
<rect x="0" y="0" width="1200" height="500" fill="white" stroke="black" stroke-width="4" />
<rect x="2" y="2" width="1196" height="496" fill="white" stroke="dimgray" stroke-width="1" />
<g transform="rotate(0 0 0)">
<line x1="10" y1="250" x2="1190" y2="250" stroke-linecap="round" stroke="#000000" stroke-dasharray="2" stroke-width="1" />
<line x1="10" y1="250" x2="50" y2="250" stroke-linecap="round" stroke="#000000"  stroke-width="1" />
<line x1="30" y1="230" x2="30" y2="270" stroke="#000000" stroke-linecap="round"  stroke-width="1" />
<circle r="10" cx="30" cy="250" fill="none" stroke="#000000" stroke-width="1"  />
<line x1="1150" y1="250" x2="1190" y2="250" stroke-linecap="round" stroke="#000000"  stroke-width="1" />
<line x1="1170" y1="230" x2="1170" y2="270" stroke="#000000" stroke-linecap="round"  stroke-width="1" />
<circle r="10" cx="1170" cy="250" fill="none" stroke="#000000" stroke-width="1"  />
<line x1="600" y1="140" x2="600" y2="420" stroke="#000000" stroke-linecap="round" stroke-dasharray="2" stroke-width="1" />
<line x1="580" y1="150" x2="620" y2="150" stroke-linecap="round" stroke="#000000"  stroke-width="1" />
<line x1="600" y1="130" x2="600" y2="170" stroke="#000000" stroke-linecap="round"  stroke-width="1" />
<circle r="10" cx="600" cy="150" fill="none" stroke="#000000" stroke-width="1"  />
<line x1="580" y1="400" x2="620" y2="400" stroke-linecap="round" stroke="#000000"  stroke-width="1" />
<line x1="600" y1="380" x2="600" y2="420" stroke="#000000" stroke-linecap="round"  stroke-width="1" />
<circle r="10" cx="600" cy="400" fill="none" stroke="#000000" stroke-width="1"  />
<text x="30" y="50" font-size="2.0em" font-weight="bold"> STUDMARK // 3750 </text>
<line x1="235.625" y1="138.25" x2="235.625" y2="250" stroke="#cfcfcf" stroke-linecap="round"  stroke-width="1" />
<line x1="235.625" y1="130" x2="235.625" y2="250" stroke="#cfcfcf" stroke-linecap="round"  stroke-width="1" />
<line x1="330.625" y1="130" x2="330.625" y2="250" stroke="#cfcfcf" stroke-linecap="round"  stroke-width="1" />
<line x1="330.625" y1="130" x2="330.625" y2="250" stroke="#cfcfcf" stroke-linecap="round"  stroke-width="1" />
<line x1="459.375" y1="130" x2="459.375" y2="250" stroke="#cfcfcf" stroke-linecap="round"  stroke-width="1" />
<line x1="789.375" y1="130" x2="789.375" y2="250" stroke="#cfcfcf" stroke-linecap="round"  stroke-width="1" />
<line x1="629.375" y1="170" x2="629.375" y2="250" stroke="#cfcfcf" stroke-linecap="round"  stroke-width="1" />
<line x1="836.875" y1="170" x2="836.875" y2="250" stroke="#cfcfcf" stroke-linecap="round"  stroke-width="1" />
<line x1="819.375" y1="130" x2="819.375" y2="250" stroke="#cfcfcf" stroke-linecap="round"  stroke-width="1" />
<line x1="845.625" y1="130" x2="845.625" y2="250" stroke="#cfcfcf" stroke-linecap="round"  stroke-width="1" />
<line x1="893.125" y1="130" x2="893.125" y2="250" stroke="#cfcfcf" stroke-linecap="round"  stroke-width="1" />
<line x1="905.625" y1="130" x2="905.625" y2="250" stroke="#cfcfcf" stroke-linecap="round"  stroke-width="1" />
<line x1="964.375" y1="138.25" x2="964.375" y2="250" stroke="#cfcfcf" stroke-linecap="round"  stroke-width="1" />
<line x1="235.625" y1="119" x2="235.625" y2="141" stroke="black" stroke-width="1" />
<line x1="235.625" y1="130" x2="330.625" y2="130" stroke="black" stroke-width="1" />
<line x1="330.625" y1="119" x2="330.625" y2="141" stroke="black" stroke-width="1" />
<text x="283.125" y="111" font-size="1.2em" transform="rotate(-90, 271.125, 111)" font-weight="bold" text-anchor="start" dominant-baseline="central" fill="black"><tspan x="275.125" dy="0">19.00 mm</tspan><tspan x="275.125" dy="1em">tip</tspan></text>
<line x1="330.625" y1="119" x2="330.625" y2="141" stroke="black" stroke-width="1" />
<line x1="330.625" y1="130" x2="459.375" y2="130" stroke="black" stroke-width="1" />
<line x1="459.375" y1="119" x2="459.375" y2="141" stroke="black" stroke-width="1" />
<text x="395" y="111" font-size="1.2em" transform="rotate(-90, 383, 111)" font-weight="bold" text-anchor="start" dominant-baseline="central" fill="black"><tspan x="387" dy="0">25.75 mm</tspan><tspan x="387" dy="1em">grip</tspan></text>
<line x1="459.375" y1="119" x2="459.375" y2="141" stroke="black" stroke-width="1" />
<line x1="459.375" y1="130" x2="789.375" y2="130" stroke="black" stroke-width="1" />
<line x1="789.375" y1="119" x2="789.375" y2="141" stroke="black" stroke-width="1" />
<text x="624.375" y="111" font-size="1.2em" transform="rotate(-90, 612.375, 111)" font-weight="bold" text-anchor="start" dominant-baseline="central" fill="black"><tspan x="616.375" dy="0">66.00 mm</tspan><tspan x="616.375" dy="1em">body</tspan></text>
<line x1="789.375" y1="119" x2="789.375" y2="141" stroke="black" stroke-width="1" />
<line x1="789.375" y1="130" x2="819.375" y2="130" stroke="black" stroke-width="1" />
<line x1="819.375" y1="119" x2="819.375" y2="141" stroke="black" stroke-width="1" />
<text x="804.375" y="111" font-size="1.2em" transform="rotate(-90, 804.375, 111)" font-weight="bold" text-anchor="start" dominant-baseline="central" fill="black"><tspan x="804.375" dy="0">6.00 mm clip</tspan></text>
<line x1="629.375" y1="159" x2="629.375" y2="181" stroke="black" stroke-width="1" />
<line x1="629.375" y1="170" x2="836.875" y2="170" stroke="black" stroke-width="1" />
<line x1="836.875" y1="159" x2="836.875" y2="181" stroke="black" stroke-width="1" />
<text x="733.125" y="162" font-weight="bold" font-size="1.2em" text-anchor="middle" dominant-baseline="middle" fill="black"><tspan x="725.125" dy="0">41.50 mm</tspan><tspan x="725.125" dy="1em">clip (extra)</tspan></text>
<line x1="819.375" y1="119" x2="819.375" y2="141" stroke="black" stroke-width="1" />
<line x1="819.375" y1="130" x2="845.625" y2="130" stroke="black" stroke-width="1" />
<line x1="845.625" y1="119" x2="845.625" y2="141" stroke="black" stroke-width="1" />
<text x="832.5" y="111" font-size="1.2em" transform="rotate(-90, 832.5, 111)" font-weight="bold" text-anchor="start" dominant-baseline="central" fill="black"><tspan x="832.5" dy="0">5.25 mm tail</tspan></text>
<line x1="845.625" y1="119" x2="845.625" y2="141" stroke="black" stroke-width="1" />
<line x1="845.625" y1="130" x2="893.125" y2="130" stroke="black" stroke-width="1" />
<line x1="893.125" y1="119" x2="893.125" y2="141" stroke="black" stroke-width="1" />
<text x="869.375" y="111" font-size="1.2em" transform="rotate(-90, 857.375, 111)" font-weight="bold" text-anchor="start" dominant-baseline="central" fill="black"><tspan x="861.375" dy="0">9.50 mm</tspan><tspan x="861.375" dy="1em">indicator</tspan></text>
<line x1="893.125" y1="119" x2="893.125" y2="141" stroke="black" stroke-width="1" />
<line x1="893.125" y1="130" x2="905.625" y2="130" stroke="black" stroke-width="1" />
<line x1="905.625" y1="119" x2="905.625" y2="141" stroke="black" stroke-width="1" />
<text x="899.375" y="111" font-size="1.2em" transform="rotate(-90, 899.375, 111)" font-weight="bold" text-anchor="start" dominant-baseline="central" fill="black"><tspan x="899.375" dy="0">2.50 mm foot</tspan></text>
<line x1="905.625" y1="119" x2="905.625" y2="141" stroke="black" stroke-width="1" />
<line x1="905.625" y1="130" x2="964.375" y2="130" stroke="black" stroke-width="1" />
<line x1="964.375" y1="119" x2="964.375" y2="141" stroke="black" stroke-width="1" />
<text x="935" y="111" font-size="1.2em" transform="rotate(-90, 923, 111)" font-weight="bold" text-anchor="start" dominant-baseline="central" fill="black"><tspan x="927" dy="0">11.75 mm</tspan><tspan x="927" dy="1em">cap</tspan></text>
<path d="M235.625 241.875 L309.375 230 L309.375 270 L235.625 258.125 Z" stroke-width="0.5" stroke="black" stroke-linejoin="round" fill="white" />
<rect x="309.375" y="229.375" width="21.25" height="41.25" rx="1" ry="1" stroke-width="0.5" stroke="black" fill="white"/>
<rect x="330.625" y="229.375" width="128.75" height="41.25" rx="1" ry="1" stroke-width="0.5" stroke="black" fill="white"/>
<rect x="330.625" y="229.375" width="128.75" height="41.25" rx="1" ry="1" stroke-width="0.5" stroke="black" fill="url(#diagonalHatch)"/>
<rect x="459.375" y="229.375" width="330" height="41.25" rx="1" ry="1" stroke-width="0.5" stroke="black" fill="white"/>
<line x1="459.375" y1="250" x2="789.375" y2="250" stroke-width="1.5" stroke="black" fill="none" stroke-opacity="0.5"/>
<line x1="459.375" y1="250" x2="789.375" y2="250" stroke-width="0.5" stroke="gray" fill="none" stroke-opacity="0.5"/>
<path d="M631.5 216.5 Q654.375 239.75 664.375 214.25 Z" stroke-width="3" stroke="black" fill="dimgray" stroke-linecap="round" />
<line x1="629.375" y1="214.75" x2="796.875" y2="209.75" stroke-width="3" stroke="black" fill="dimgray" stroke-linecap="round" />
/><line x1="629.375" y1="216" x2="796.875" y2="211" stroke-width="3" stroke="black" fill="dimgray" stroke-linecap="round" />
/><line x1="796.875" y1="211" x2="819.375" y2="214.75" stroke-width="3" stroke="black" fill="dimgray" stroke-linecap="round" />
/><path d="M819.375 214.75 Q851.875 219.75 819.375 227.25" stroke-width="3" stroke="black" fill="none" stroke-linecap="round" />
<path d="M631.5 216.5 Q654.375 238.75 664.375 214.25 Z" stroke-width="2" stroke="white" fill="white" stroke-linecap="round" />
<line x1="629.375" y1="214.75" x2="796.875" y2="209.75" stroke-width="2" stroke="white" fill="white" stroke-linecap="round" />
/><line x1="629.375" y1="216" x2="796.875" y2="211" stroke-width="2" stroke="white" fill="white" stroke-linecap="round" />
/><line x1="796.875" y1="211" x2="819.375" y2="214.75" stroke-width="2" stroke="white" fill="white" stroke-linecap="round" />
/><path d="M819.375 214.75 Q851.875 219.75 819.375 227.25" stroke-width="2" stroke="white" fill="none" stroke-linecap="round" />
<rect x="789.375" y="226.25" width="30" height="47.5" rx="1" ry="1" stroke-width="0.5" stroke="black" fill="white"/>
<rect x="819.375" y="229.375" width="22.5" height="41.25" rx="1" ry="1" stroke-width="0.5" stroke="black" fill="white"/>
<rect x="841.875" y="229.375" width="3.75" height="41.25" rx="1" ry="1" stroke-width="0.5" stroke="black" fill="white"/>
<rect x="845.625" y="229.375" width="47.5" height="41.25" rx="1" ry="1" stroke-width="0.5" stroke="black" fill="white"/>
<rect x="845.625" y="229.375" width="47.5" height="41.25" rx="1" ry="1" stroke-width="0.5" stroke="black" fill="url(#diagonalHatch)"/>
<rect x="855.625" y="239.6875" width="27.5" height="20.625" rx="1" ry="1" stroke-width="2" stroke="black" fill="white"/>
<text x="869.375" y="250" text-anchor="middle" dominant-baseline="central"><tspan stroke="dimgray" stroke-width="0.5" font-family="sans-serif" fill="black" textLength="{this.width * 5 - 24}" > HB</tspan></text><rect x="893.125" y="229.375" width="12.5" height="41.25" rx="1" ry="1" stroke-width="0.5" stroke="black" fill="white"/>
<rect x="905.625" y="236.25" width="52.5" height="27.5" rx="1" ry="1" stroke-width="0.5" stroke="black" fill="white"/>
<path d="M958.125 236.25 Q969.375 250 958.125 263.75" stroke-width="0.5" stroke="black" stroke-linejoin="round" fill="white"/>
</g><text x="50%" y="480" font-size="1.1em" font-weight="bold" text-anchor="middle" dominant-baseline="middle">Copyright (c) // The Mechanical Pencil Database (tmpdb) // Licensed under Creative Commons Attribution-NonCommercial-ShareAlike 4.0 International</text>
<text x="1190" y="490" font-size="0.5em" font-weight="bold" text-anchor="end" dominant-baseline="middle">SVGTechnicalComponentRenderer</text>
</svg>