<svg xmlns="http://www.w3.org/2000/svg" width="1200" height="569.5">
 <pattern id="knurled-large" patternUnits="userSpaceOnUse" width="12" height="12">
<path stroke="dimgray" stroke-linecap="round" stroke-width="1" d="M 6,6 L 12,12"/>
<path stroke="dimgray" stroke-linecap="round" stroke-width="1" d="M 6,6 L 0,12"/>
<path stroke="gray" stroke-linecap="round" stroke-width="1" d="M 6,6 L 12,0" />
<path stroke="gray" stroke-linecap="round" stroke-width="1" d="M 6,6 L 0,0" />
</pattern><pattern id="knurled-small" patternUnits="userSpaceOnUse" width="4" height="4">
<path stroke="dimgray" stroke-linecap="round" stroke-width="1" d="M 2,2 L 4,4"/>
<path stroke="dimgray" stroke-linecap="round" stroke-width="1" d="M 2,2 L 0,4"/>
<path stroke="gray" stroke-linecap="round" stroke-width="1" d="M 2,2 L 4,0" />
<path stroke="gray" stroke-linecap="round" stroke-width="1" d="M 2,2 L 0,0" />
</pattern><pattern id="knurled" patternUnits="userSpaceOnUse" width="8" height="8">
<path stroke="dimgray" stroke-linecap="round" stroke-width="1" d="M 4,4 L 8,8"/>
<path stroke="dimgray" stroke-linecap="round" stroke-width="1" d="M 4,4 L 0,8"/>
<path stroke="gray" stroke-linecap="round" stroke-width="1" d="M 4,4 L 8,0" />
<path stroke="gray" stroke-linecap="round" stroke-width="1" d="M 4,4 L 0,0" />
</pattern><pattern id="lined" patternUnits="userSpaceOnUse" width="3" height="3">
<path stroke="dimgray" stroke-linecap="round" stroke-width="1" d="M 0,0 L 3,0"/>
</pattern><pattern id="ridged" patternUnits="userSpaceOnUse" width="3" height="3">
<path stroke="dimgray" stroke-linecap="round" stroke-width="1" d="M 0,0 L 0,3"/>
</pattern><pattern id="spring" patternUnits="userSpaceOnUse" width="8" height="100">
<path stroke="dimgray" stroke-linecap="round" stroke-width="2" d="M 1,1 L 9,99"/>
<path stroke="white" stroke-linecap="round" stroke-width="1" d="M 1,1 L 9,99"/>
</pattern><pattern id="knurled" patternUnits="userSpaceOnUse" width="8" height="8">
<path stroke="dimgray" stroke-linecap="round" stroke-width="1" d="M 4,4 L 8,8"/>
<path stroke="dimgray" stroke-linecap="round" stroke-width="1" d="M 4,4 L 0,8"/>
<path stroke="gray" stroke-linecap="round" stroke-width="1" d="M 4,4 L 8,0" />
<path stroke="gray" stroke-linecap="round" stroke-width="1" d="M 4,4 L 0,0" />
</pattern><rect x="0" y="0" width="1200" height="569.5" fill="white" stroke="black" stroke-width="4" />
<rect x="2" y="2" width="1196" height="565.5" fill="white" stroke="dimgray" stroke-width="1" />
<g transform="rotate(0 0 0)">
<text x="30" y="50" font-size="2.0em" font-weight="bold"> STUDMARK // 3750 </text>


<!-- renderExplodedSideComponents -->


<!-- renderSideComponent: tip -->


<!-- renderPart: cone -->
<path d="M235.625 111.875 L309.375 100 L309.375 140 L235.625 128.125 Z" stroke-width="0.5" stroke="black" stroke-linejoin="round" fill="silver" fill-opacity="1"/>


<!-- renderPart: cylinder -->
<path d="M309.375 99.375 L330.625 99.375 L330.625 140.625 L309.375 140.625 Z" stroke-width="0.5" stroke="black" stroke-linejoin="round" fill="silver" fill-opacity="1"/>
<line x1="340.625" y1="120" x2="347.625" y2="120" stroke-linecap="round" stroke="#ffffff" stroke-width="2.0" />
<line x1="340.625" y1="120" x2="354.625" y2="112" stroke-linecap="round" stroke="#ffffff" stroke-width="2.0" />
<line x1="354.625" y1="112" x2="347.625" y2="120" stroke-linecap="round" stroke="#ffffff" stroke-width="2.0" />
<line x1="340.625" y1="120" x2="354.625" y2="128" stroke-linecap="round" stroke="#ffffff" stroke-width="2.0" />
<line x1="354.625" y1="128" x2="347.625" y2="120" stroke-linecap="round" stroke="#ffffff" stroke-width="2.0" />
<line x1="340.625" y1="120" x2="354.625" y2="112" stroke-linecap="round" stroke="#0f0f0f" stroke-width="1.0" />
<line x1="354.625" y1="112" x2="347.625" y2="120" stroke-linecap="round" stroke="#0f0f0f" stroke-width="1.0" />
<line x1="340.625" y1="120" x2="354.625" y2="128" stroke-linecap="round" stroke="#0f0f0f" stroke-width="1.0" />
<line x1="354.625" y1="128" x2="347.625" y2="120" stroke-linecap="round" stroke="#0f0f0f" stroke-width="1.0" />


<!-- renderPart: cylinder -->
<path d="M304.375 226.875 L309.375 226.875 L309.375 253.125 L304.375 253.125 Z" stroke-width="0.5" stroke="black" stroke-linejoin="round" fill="gold" fill-opacity="1"/>


<!-- renderPart: cylinder -->
<path d="M309.375 221.875 L330.625 221.875 L330.625 258.125 L309.375 258.125 Z" stroke-width="0.5" stroke="black" stroke-linejoin="round" fill="gold" fill-opacity="1"/>
<path d="M309.375 221.875 L330.625 221.875 L330.625 258.125 L309.375 258.125 Z" stroke-width="1.0" stroke="black" fill="url(#threaded)"/>
<line x1="309.375" y1="219.875" x2="314.375" y2="260.125" stroke="dimgray" stroke-linecap="round" stroke-width="2" />
<line x1="309.375" y1="219.875" x2="314.375" y2="260.125" stroke="[object Object]" stroke-linecap="round" stroke-width="1" />
<line x1="314.375" y1="219.875" x2="319.375" y2="260.125" stroke="dimgray" stroke-linecap="round" stroke-width="2" />
<line x1="314.375" y1="219.875" x2="319.375" y2="260.125" stroke="[object Object]" stroke-linecap="round" stroke-width="1" />
<line x1="319.375" y1="219.875" x2="324.375" y2="260.125" stroke="dimgray" stroke-linecap="round" stroke-width="2" />
<line x1="319.375" y1="219.875" x2="324.375" y2="260.125" stroke="[object Object]" stroke-linecap="round" stroke-width="1" />
<line x1="324.375" y1="219.875" x2="329.375" y2="260.125" stroke="dimgray" stroke-linecap="round" stroke-width="2" />
<line x1="324.375" y1="219.875" x2="329.375" y2="260.125" stroke="[object Object]" stroke-linecap="round" stroke-width="1" />


<!-- renderSideComponent: shaft -->


<!-- renderPart: cylinder -->
<path d="M330.625 221.875 L355.625 221.875 L355.625 258.125 L330.625 258.125 Z" stroke-width="0.5" stroke="black" stroke-linejoin="round" fill="gold" fill-opacity="1"/>
<path d="M330.625 221.875 L355.625 221.875 L355.625 258.125 L330.625 258.125 Z" stroke-width="1.0" stroke="black" fill="url(#threaded)"/>
<line x1="330.625" y1="219.875" x2="335.625" y2="260.125" stroke="dimgray" stroke-linecap="round" stroke-width="2" />
<line x1="330.625" y1="219.875" x2="335.625" y2="260.125" stroke="[object Object]" stroke-linecap="round" stroke-width="1" />
<line x1="335.625" y1="219.875" x2="340.625" y2="260.125" stroke="dimgray" stroke-linecap="round" stroke-width="2" />
<line x1="335.625" y1="219.875" x2="340.625" y2="260.125" stroke="[object Object]" stroke-linecap="round" stroke-width="1" />
<line x1="340.625" y1="219.875" x2="345.625" y2="260.125" stroke="dimgray" stroke-linecap="round" stroke-width="2" />
<line x1="340.625" y1="219.875" x2="345.625" y2="260.125" stroke="[object Object]" stroke-linecap="round" stroke-width="1" />
<line x1="345.625" y1="219.875" x2="350.625" y2="260.125" stroke="dimgray" stroke-linecap="round" stroke-width="2" />
<line x1="345.625" y1="219.875" x2="350.625" y2="260.125" stroke="[object Object]" stroke-linecap="round" stroke-width="1" />
<line x1="350.625" y1="219.875" x2="355.625" y2="260.125" stroke="dimgray" stroke-linecap="round" stroke-width="2" />
<line x1="350.625" y1="219.875" x2="355.625" y2="260.125" stroke="[object Object]" stroke-linecap="round" stroke-width="1" />


<!-- renderPart: cylinder -->
<path d="M355.625 225 L415.625 225 L415.625 255 L355.625 255 Z" stroke-width="0.5" stroke="black" stroke-linejoin="round" fill="gold" fill-opacity="1"/>


<!-- renderPart: cylinder -->
<path d="M415.625 228.125 L848.125 228.125 L848.125 251.875 L415.625 251.875 Z" stroke-width="0.5" stroke="black" stroke-linejoin="round" fill="white" fill-opacity="0.5"/>


<!-- renderPart: cylinder -->
<path d="M805.625 231.875 L888.125 231.875 L888.125 248.125 L805.625 248.125 Z" stroke-width="0.5" stroke="black" stroke-linejoin="round" fill="gold" fill-opacity="1"/>


<!-- renderPart: cylinder -->
<path d="M415.625 228.125 L848.125 228.125 L848.125 251.875 L415.625 251.875 Z" stroke-width="0.5" stroke="black" stroke-linejoin="round" fill="white" fill-opacity="0.5"/>
<line x1="899.375" y1="undefined" x2="906.375" y2="undefined" stroke-linecap="round" stroke="#ffffff" stroke-width="2.0" />
<line x1="899.375" y1="undefined" x2="913.375" y2="NaN" stroke-linecap="round" stroke="#ffffff" stroke-width="2.0" />
<line x1="913.375" y1="NaN" x2="906.375" y2="undefined" stroke-linecap="round" stroke="#ffffff" stroke-width="2.0" />
<line x1="899.375" y1="undefined" x2="913.375" y2="NaN" stroke-linecap="round" stroke="#ffffff" stroke-width="2.0" />
<line x1="913.375" y1="NaN" x2="906.375" y2="undefined" stroke-linecap="round" stroke="#ffffff" stroke-width="2.0" />
<line x1="899.375" y1="undefined" x2="913.375" y2="NaN" stroke-linecap="round" stroke="#0f0f0f" stroke-width="1.0" />
<line x1="913.375" y1="NaN" x2="906.375" y2="undefined" stroke-linecap="round" stroke="#0f0f0f" stroke-width="1.0" />
<line x1="899.375" y1="undefined" x2="913.375" y2="NaN" stroke-linecap="round" stroke="#0f0f0f" stroke-width="1.0" />
<line x1="913.375" y1="NaN" x2="906.375" y2="undefined" stroke-linecap="round" stroke="#0f0f0f" stroke-width="1.0" />


<!-- renderSideComponent: grip -->


<!-- renderPart: cylinder -->
<path d="M309.375 339.375 L438.125 339.375 L438.125 380.625 L309.375 380.625 Z" stroke-width="0.5" stroke="black" stroke-linejoin="round" fill="silver" fill-opacity="1"/>
<path d="M309.375 339.375 L438.125 339.375 L438.125 380.625 L309.375 380.625 Z" stroke-width="1.0" stroke="black" fill="url(#knurled)"/>


<!-- renderSideComponent: body -->


<!-- renderPart: hexagonal -->
<path d="M438.125 339.375 L768.125 339.375 L768.125 380.625 L438.125 380.625 Z" stroke-width="0.5" stroke="black" stroke-linejoin="round" fill="royalblue" fill-opacity="1"/>
<line x1="438.125" y1="360" x2="768.125" y2="360" stroke-width="1.5" stroke="black" fill="none" stroke-opacity="0.5"/>
<line x1="438.125" y1="360" x2="768.125" y2="360" stroke-width="0.5" stroke="gray" fill="none" stroke-opacity="0.5"/>


<!-- renderSideComponent: clip -->
<path d="M610.25 326.5 Q633.125 349.75 643.125 324.25 Z" stroke-width="4" stroke="black" fill="dimgray" stroke-linecap="round" />
<line x1="608.125" y1="324.75" x2="775.625" y2="319.75" stroke-width="5" stroke="black" fill="dimgray" stroke-linecap="round" />
<line x1="775.625" y1="321" x2="798.125" y2="324.75" stroke-width="4" stroke="black" fill="dimgray" stroke-linecap="round" />
<path d="M798.125 324.75 Q830.625 329.75 798.125 337.25" stroke-width="4" stroke="black" fill="none" stroke-linecap="round" />


<!-- renderPart: cylinder -->
<path d="M768.125 336.25 L798.125 336.25 L798.125 383.75 L768.125 383.75 Z" stroke-width="0.5" stroke="black" stroke-linejoin="round" fill="silver" fill-opacity="1"/>
<path d="M610.25 326.5 Q633.125 348.75 643.125 324.25 Z" stroke-width="3" stroke="silver" fill="silver" stroke-linecap="round" />
<line x1="608.125" y1="324.75" x2="775.625" y2="319.75" stroke-width="4" stroke="silver" fill="silver" stroke-linecap="round" />
<line x1="775.625" y1="321" x2="798.125" y2="324.75" stroke-width="3" stroke="silver" fill="silver" stroke-linecap="round" />
<path d="M798.125 324.75 Q830.625 329.75 798.125 337.25" stroke-width="3" stroke="silver" fill="none" stroke-linecap="round" />


<!-- renderSideComponent: tail -->


<!-- renderPart: cylinder -->
<path d="M798.125 339.375 L820.625 339.375 L820.625 380.625 L798.125 380.625 Z" stroke-width="0.5" stroke="black" stroke-linejoin="round" fill="royalblue" fill-opacity="1"/>


<!-- renderPart: cylinder -->
<path d="M820.625 339.375 L824.375 339.375 L824.375 380.625 L820.625 380.625 Z" stroke-width="0.5" stroke="black" stroke-linejoin="round" fill="red" fill-opacity="1"/>


<!-- renderSideComponent: indicator -->


<!-- renderPart: cylinder -->
<path d="M824.375 339.375 L871.875 339.375 L871.875 380.625 L824.375 380.625 Z" stroke-width="0.5" stroke="black" stroke-linejoin="round" fill="silver" fill-opacity="1"/>
<path d="M824.375 339.375 L871.875 339.375 L871.875 380.625 L824.375 380.625 Z" stroke-width="1.0" stroke="black" fill="url(#knurled)"/>
<rect x="834.375" y="349.6875" width="27.5" height="20.625" rx="3" ry="3" stroke-width="1" stroke="black" fill="silver"/>
<text x="848.125" y="360" text-anchor="middle" dominant-baseline="central"><tspan stroke="dimgray" stroke-width="0.5" font-family="sans-serif" fill="black" textLength="{this.width * 5 - 24}" > HB</tspan></text>

<!-- renderSideComponent: foot -->


<!-- renderPart: cylinder -->
<path d="M871.875 339.375 L884.375 339.375 L884.375 380.625 L871.875 380.625 Z" stroke-width="0.5" stroke="black" stroke-linejoin="round" fill="silver" fill-opacity="1"/>
<line x1="894.375" y1="360" x2="901.375" y2="360" stroke-linecap="round" stroke="#ffffff" stroke-width="2.0" />
<line x1="894.375" y1="360" x2="908.375" y2="352" stroke-linecap="round" stroke="#ffffff" stroke-width="2.0" />
<line x1="908.375" y1="352" x2="901.375" y2="360" stroke-linecap="round" stroke="#ffffff" stroke-width="2.0" />
<line x1="894.375" y1="360" x2="908.375" y2="368" stroke-linecap="round" stroke="#ffffff" stroke-width="2.0" />
<line x1="908.375" y1="368" x2="901.375" y2="360" stroke-linecap="round" stroke="#ffffff" stroke-width="2.0" />
<line x1="894.375" y1="360" x2="908.375" y2="352" stroke-linecap="round" stroke="#0f0f0f" stroke-width="1.0" />
<line x1="908.375" y1="352" x2="901.375" y2="360" stroke-linecap="round" stroke="#0f0f0f" stroke-width="1.0" />
<line x1="894.375" y1="360" x2="908.375" y2="368" stroke-linecap="round" stroke="#0f0f0f" stroke-width="1.0" />
<line x1="908.375" y1="368" x2="901.375" y2="360" stroke-linecap="round" stroke="#0f0f0f" stroke-width="1.0" />


<!-- renderPart: cylinder -->
<path d="M829.375 466.25 L849.375 466.25 L849.375 493.75 L829.375 493.75 Z" stroke-width="0.5" stroke="dimgray" stroke-linejoin="round" fill="black" fill-opacity="1"/>


<!-- renderPart: cylinder -->
<path d="M849.375 467.5 L850.625 467.5 L850.625 492.5 L849.375 492.5 Z" stroke-width="0.5" stroke="dimgray" stroke-linejoin="round" fill="black" fill-opacity="1"/>


<!-- renderPart: cylinder -->
<path d="M850.625 466.25 L884.375 466.25 L884.375 493.75 L850.625 493.75 Z" stroke-width="0.5" stroke="black" stroke-linejoin="round" fill="silver" fill-opacity="1"/>


<!-- renderSideComponent: cap -->


<!-- renderPart: cylinder -->
<path d="M884.375 466.25 L936.875 466.25 L936.875 493.75 L884.375 493.75 Z" stroke-width="0.5" stroke="black" stroke-linejoin="round" fill="silver" fill-opacity="1"/>


<!-- renderPart: convex -->
<path d="M936.875 466.25 Q948.125 480 936.875 493.75" stroke-width="0.5" stroke="black" stroke-linejoin="round" fill="silver" fill-opacity="1"/>
<line x1="330.625" y1="200" x2="330.625" y2="280" stroke="white" stroke-linecap="round"  stroke-width="1.0" />
<line x1="330.625" y1="200" x2="330.625" y2="280" stroke="black" stroke-linecap="round" stroke-dasharray="2,3" stroke-width="1.0" />
<line x1="309.375" y1="380" x2="309.375" y2="460" stroke="pink" stroke-linecap="round"  stroke-width="2.0" />
<line x1="884.375" y1="440" x2="884.375" y2="520" stroke="white" stroke-linecap="round"  stroke-width="1.0" />
<line x1="884.375" y1="440" x2="884.375" y2="520" stroke="black" stroke-linecap="round" stroke-dasharray="2,3" stroke-width="1.0" />
<line x1="1048.125" y1="480" x2="1055.125" y2="480" stroke-linecap="round" stroke="#ffffff" stroke-width="2.0" />
<line x1="1048.125" y1="480" x2="1062.125" y2="472" stroke-linecap="round" stroke="#ffffff" stroke-width="2.0" />
<line x1="1062.125" y1="472" x2="1055.125" y2="480" stroke-linecap="round" stroke="#ffffff" stroke-width="2.0" />
<line x1="1048.125" y1="480" x2="1062.125" y2="488" stroke-linecap="round" stroke="#ffffff" stroke-width="2.0" />
<line x1="1062.125" y1="488" x2="1055.125" y2="480" stroke-linecap="round" stroke="#ffffff" stroke-width="2.0" />
<line x1="1048.125" y1="480" x2="1062.125" y2="472" stroke-linecap="round" stroke="#0f0f0f" stroke-width="1.0" />
<line x1="1062.125" y1="472" x2="1055.125" y2="480" stroke-linecap="round" stroke="#0f0f0f" stroke-width="1.0" />
<line x1="1048.125" y1="480" x2="1062.125" y2="488" stroke-linecap="round" stroke="#0f0f0f" stroke-width="1.0" />
<line x1="1062.125" y1="488" x2="1055.125" y2="480" stroke-linecap="round" stroke="#0f0f0f" stroke-width="1.0" />
<line x1="1616.875" y1="600" x2="1623.875" y2="600" stroke-linecap="round" stroke="#ffffff" stroke-width="2.0" />
<line x1="1616.875" y1="600" x2="1630.875" y2="592" stroke-linecap="round" stroke="#ffffff" stroke-width="2.0" />
<line x1="1630.875" y1="592" x2="1623.875" y2="600" stroke-linecap="round" stroke="#ffffff" stroke-width="2.0" />
<line x1="1616.875" y1="600" x2="1630.875" y2="608" stroke-linecap="round" stroke="#ffffff" stroke-width="2.0" />
<line x1="1630.875" y1="608" x2="1623.875" y2="600" stroke-linecap="round" stroke="#ffffff" stroke-width="2.0" />
<line x1="1616.875" y1="600" x2="1630.875" y2="592" stroke-linecap="round" stroke="#0f0f0f" stroke-width="1.0" />
<line x1="1630.875" y1="592" x2="1623.875" y2="600" stroke-linecap="round" stroke="#0f0f0f" stroke-width="1.0" />
<line x1="1616.875" y1="600" x2="1630.875" y2="608" stroke-linecap="round" stroke="#0f0f0f" stroke-width="1.0" />
<line x1="1630.875" y1="608" x2="1623.875" y2="600" stroke-linecap="round" stroke="#0f0f0f" stroke-width="1.0" />
<line x1="1606.875" y1="undefined" x2="1613.875" y2="undefined" stroke-linecap="round" stroke="#ffffff" stroke-width="2.0" />
<line x1="1606.875" y1="undefined" x2="1620.875" y2="NaN" stroke-linecap="round" stroke="#ffffff" stroke-width="2.0" />
<line x1="1620.875" y1="NaN" x2="1613.875" y2="undefined" stroke-linecap="round" stroke="#ffffff" stroke-width="2.0" />
<line x1="1606.875" y1="undefined" x2="1620.875" y2="NaN" stroke-linecap="round" stroke="#ffffff" stroke-width="2.0" />
<line x1="1620.875" y1="NaN" x2="1613.875" y2="undefined" stroke-linecap="round" stroke="#ffffff" stroke-width="2.0" />
<line x1="1606.875" y1="undefined" x2="1620.875" y2="NaN" stroke-linecap="round" stroke="#0f0f0f" stroke-width="1.0" />
<line x1="1620.875" y1="NaN" x2="1613.875" y2="undefined" stroke-linecap="round" stroke="#0f0f0f" stroke-width="1.0" />
<line x1="1606.875" y1="undefined" x2="1620.875" y2="NaN" stroke-linecap="round" stroke="#0f0f0f" stroke-width="1.0" />
<line x1="1620.875" y1="NaN" x2="1613.875" y2="undefined" stroke-linecap="round" stroke="#0f0f0f" stroke-width="1.0" />
<line x1="1601.875" y1="720" x2="1608.875" y2="720" stroke-linecap="round" stroke="#ffffff" stroke-width="2.0" />
<line x1="1601.875" y1="720" x2="1615.875" y2="712" stroke-linecap="round" stroke="#ffffff" stroke-width="2.0" />
<line x1="1615.875" y1="712" x2="1608.875" y2="720" stroke-linecap="round" stroke="#ffffff" stroke-width="2.0" />
<line x1="1601.875" y1="720" x2="1615.875" y2="728" stroke-linecap="round" stroke="#ffffff" stroke-width="2.0" />
<line x1="1615.875" y1="728" x2="1608.875" y2="720" stroke-linecap="round" stroke="#ffffff" stroke-width="2.0" />
<line x1="1601.875" y1="720" x2="1615.875" y2="712" stroke-linecap="round" stroke="#0f0f0f" stroke-width="1.0" />
<line x1="1615.875" y1="712" x2="1608.875" y2="720" stroke-linecap="round" stroke="#0f0f0f" stroke-width="1.0" />
<line x1="1601.875" y1="720" x2="1615.875" y2="728" stroke-linecap="round" stroke="#0f0f0f" stroke-width="1.0" />
<line x1="1615.875" y1="728" x2="1608.875" y2="720" stroke-linecap="round" stroke="#0f0f0f" stroke-width="1.0" />
</g><text x="50%" y="549.5" font-size="1.1em" font-weight="bold" text-anchor="middle" dominant-baseline="middle">Copyright (c) // The Mechanical Pencil Database (tmpdb) // Licensed under Creative Commons Attribution-NonCommercial-ShareAlike 4.0 International</text>
<text x="1190" y="559.5" font-size="0.5em" font-weight="bold" text-anchor="end" dominant-baseline="middle">SVGTechnicalExplodedRenderer</text>
</svg>