<svg xmlns="http://www.w3.org/2000/svg" width="1200" height="809">
 <pattern id="knurled-large" patternUnits="userSpaceOnUse" width="12" height="12">
<path stroke="dimgray" stroke-linecap="round" stroke-width="1" d="M 6,6 L 12,12"/>
<path stroke="dimgray" stroke-linecap="round" stroke-width="1" d="M 6,6 L 0,12"/>
<path stroke="gray" stroke-linecap="round" stroke-width="1" d="M 6,6 L 12,0" />
<path stroke="gray" stroke-linecap="round" stroke-width="1" d="M 6,6 L 0,0" />
</pattern><pattern id="knurled-small" patternUnits="userSpaceOnUse" width="4" height="4">
<path stroke="dimgray" stroke-linecap="round" stroke-width="1" d="M 2,2 L 4,4"/>
<path stroke="dimgray" stroke-linecap="round" stroke-width="1" d="M 2,2 L 0,4"/>
<path stroke="gray" stroke-linecap="round" stroke-width="1" d="M 2,2 L 4,0" />
<path stroke="gray" stroke-linecap="round" stroke-width="1" d="M 2,2 L 0,0" />
</pattern><pattern id="knurled" patternUnits="userSpaceOnUse" width="8" height="8">
<path stroke="dimgray" stroke-linecap="round" stroke-width="1" d="M 4,4 L 8,8"/>
<path stroke="dimgray" stroke-linecap="round" stroke-width="1" d="M 4,4 L 0,8"/>
<path stroke="gray" stroke-linecap="round" stroke-width="1" d="M 4,4 L 8,0" />
<path stroke="gray" stroke-linecap="round" stroke-width="1" d="M 4,4 L 0,0" />
</pattern><pattern id="lined" patternUnits="userSpaceOnUse" width="3" height="3">
<path stroke="dimgray" stroke-linecap="round" stroke-width="1" d="M 0,0 L 3,0"/>
</pattern><pattern id="ridged" patternUnits="userSpaceOnUse" width="3" height="3">
<path stroke="dimgray" stroke-linecap="round" stroke-width="1" d="M 0,0 L 0,3"/>
</pattern><pattern id="spring" patternUnits="userSpaceOnUse" width="8" height="100">
<path stroke="dimgray" stroke-linecap="round" stroke-width="2" d="M 1,1 L 9,99"/>
<path stroke="white" stroke-linecap="round" stroke-width="1" d="M 1,1 L 9,99"/>
</pattern><pattern id="knurled" patternUnits="userSpaceOnUse" width="8" height="8">
<path stroke="dimgray" stroke-linecap="round" stroke-width="1" d="M 4,4 L 8,8"/>
<path stroke="dimgray" stroke-linecap="round" stroke-width="1" d="M 4,4 L 0,8"/>
<path stroke="gray" stroke-linecap="round" stroke-width="1" d="M 4,4 L 8,0" />
<path stroke="gray" stroke-linecap="round" stroke-width="1" d="M 4,4 L 0,0" />
</pattern><rect x="0" y="0" width="1200" height="809" fill="white" stroke="black" stroke-width="4" />
<rect x="2" y="2" width="1196" height="805" fill="white" stroke="dimgray" stroke-width="1" />
<g transform="rotate(0 0 0)">
<text x="30" y="50" font-size="2.0em" font-weight="bold"> Redring // 600 (Model #: 600)</text>


<!-- renderExplodedSideComponents -->


<!-- renderSideComponent: tip -->


<!-- renderPart: cone -->
<path d="M235.625 111.875 L240.625 110 L240.625 130 L235.625 128.125 Z" stroke-width="0.5" stroke="black" stroke-linejoin="round" fill="white" fill-opacity="1"/>


<!-- renderPart: cone -->
<path d="M240.625 107.5 L303.125 101.25 L303.125 138.75 L240.625 132.5 Z" stroke-width="0.5" stroke="black" stroke-linejoin="round" fill="white" fill-opacity="1"/>


<!-- renderPart: cylinder -->
<path d="M303.125 103.75 L326.875 103.75 L326.875 136.25 L303.125 136.25 Z" stroke-width="0.5" stroke="black" stroke-linejoin="round" fill="white" fill-opacity="1"/>
<path d="M303.125 103.75 L326.875 103.75 L326.875 136.25 L303.125 136.25 Z" stroke-width="1.0" stroke="black" fill="url(#threaded)"/>
<line x1="303.125" y1="101.75" x2="308.125" y2="138.25" stroke="dimgray" stroke-linecap="round" stroke-width="2" />
<line x1="303.125" y1="101.75" x2="308.125" y2="138.25" stroke="[object Object]" stroke-linecap="round" stroke-width="1" />
<line x1="308.125" y1="101.75" x2="313.125" y2="138.25" stroke="dimgray" stroke-linecap="round" stroke-width="2" />
<line x1="308.125" y1="101.75" x2="313.125" y2="138.25" stroke="[object Object]" stroke-linecap="round" stroke-width="1" />
<line x1="313.125" y1="101.75" x2="318.125" y2="138.25" stroke="dimgray" stroke-linecap="round" stroke-width="2" />
<line x1="313.125" y1="101.75" x2="318.125" y2="138.25" stroke="[object Object]" stroke-linecap="round" stroke-width="1" />
<line x1="318.125" y1="101.75" x2="323.125" y2="138.25" stroke="dimgray" stroke-linecap="round" stroke-width="2" />
<line x1="318.125" y1="101.75" x2="323.125" y2="138.25" stroke="[object Object]" stroke-linecap="round" stroke-width="1" />
<line x1="303.125" y1="80" x2="303.125" y2="160" stroke="white" stroke-linecap="round"  stroke-width="1" />
<line x1="303.125" y1="80" x2="303.125" y2="160" stroke="black" stroke-linecap="round" stroke-dasharray="4,2" stroke-width="1" />


<!-- DASHED JOIN -->
<path d="M 313.125 120 L 356.875 120 L 356.875 180 L 253.125 180 L 253.125 240 L 298.125 240 " fill="none" stroke="white" stroke-width="2" stroke-dasharray="8,4" stroke-linecap="round"  />
<path d="M 313.125 120 L 356.875 120 L 356.875 180 L 253.125 180 L 253.125 240 L 298.125 240 " fill="none" stroke="black" stroke-width="1" stroke-dasharray="8,4" stroke-linecap="round"  />


<!-- ARROW START -->
<line x1="313.125" y1="120" x2="320.125" y2="120" stroke-linecap="round" stroke="#ffffff" stroke-width="2.0" />
<line x1="313.125" y1="120" x2="327.125" y2="112" stroke-linecap="round" stroke="#ffffff" stroke-width="2.0" />
<line x1="327.125" y1="112" x2="320.125" y2="120" stroke-linecap="round" stroke="#ffffff" stroke-width="2.0" />
<line x1="313.125" y1="120" x2="327.125" y2="128" stroke-linecap="round" stroke="#ffffff" stroke-width="2.0" />
<line x1="327.125" y1="128" x2="320.125" y2="120" stroke-linecap="round" stroke="#ffffff" stroke-width="2.0" />
<line x1="313.125" y1="120" x2="327.125" y2="112" stroke-linecap="round" stroke="#0f0f0f" stroke-width="1.0" />
<line x1="327.125" y1="112" x2="320.125" y2="120" stroke-linecap="round" stroke="#0f0f0f" stroke-width="1.0" />
<line x1="313.125" y1="120" x2="327.125" y2="128" stroke-linecap="round" stroke="#0f0f0f" stroke-width="1.0" />
<line x1="327.125" y1="128" x2="320.125" y2="120" stroke-linecap="round" stroke="#0f0f0f" stroke-width="1.0" />


<!-- ARROW START -->
<line x1="273.125" y1="240" x2="280.125" y2="240" stroke-linecap="round" stroke="#ffffff" stroke-width="2.0" />
<line x1="273.125" y1="240" x2="287.125" y2="232" stroke-linecap="round" stroke="#ffffff" stroke-width="2.0" />
<line x1="287.125" y1="232" x2="280.125" y2="240" stroke-linecap="round" stroke="#ffffff" stroke-width="2.0" />
<line x1="273.125" y1="240" x2="287.125" y2="248" stroke-linecap="round" stroke="#ffffff" stroke-width="2.0" />
<line x1="287.125" y1="248" x2="280.125" y2="240" stroke-linecap="round" stroke="#ffffff" stroke-width="2.0" />
<line x1="273.125" y1="240" x2="287.125" y2="232" stroke-linecap="round" stroke="#0f0f0f" stroke-width="1.0" />
<line x1="287.125" y1="232" x2="280.125" y2="240" stroke-linecap="round" stroke="#0f0f0f" stroke-width="1.0" />
<line x1="273.125" y1="240" x2="287.125" y2="248" stroke-linecap="round" stroke="#0f0f0f" stroke-width="1.0" />
<line x1="287.125" y1="248" x2="280.125" y2="240" stroke-linecap="round" stroke="#0f0f0f" stroke-width="1.0" />


<!-- renderSideComponent: grip -->


<!-- renderPart: cylinder -->
<path d="M303.125 219.375 L453.125 219.375 L453.125 260.625 L303.125 260.625 Z" stroke-width="0.5" stroke="black" stroke-linejoin="round" fill="white" fill-opacity="1"/>
<path d="M303.125 219.375 L453.125 219.375 L453.125 260.625 L303.125 260.625 Z" stroke-width="1.0" stroke="black" fill="url(#knurled-small)"/>


<!-- DASHED JOIN -->
<path d="M 468.125 240 L 488.125 240 L 488.125 300 L 293.125 300 L 293.125 360 L 338.125 360 " fill="none" stroke="white" stroke-width="2" stroke-dasharray="8,4" stroke-linecap="round"  />
<path d="M 468.125 240 L 488.125 240 L 488.125 300 L 293.125 300 L 293.125 360 L 338.125 360 " fill="none" stroke="black" stroke-width="1" stroke-dasharray="8,4" stroke-linecap="round"  />


<!-- ARROW START -->
<line x1="458.125" y1="240" x2="465.125" y2="240" stroke-linecap="round" stroke="#ffffff" stroke-width="2.0" />
<line x1="458.125" y1="240" x2="472.125" y2="232" stroke-linecap="round" stroke="#ffffff" stroke-width="2.0" />
<line x1="472.125" y1="232" x2="465.125" y2="240" stroke-linecap="round" stroke="#ffffff" stroke-width="2.0" />
<line x1="458.125" y1="240" x2="472.125" y2="248" stroke-linecap="round" stroke="#ffffff" stroke-width="2.0" />
<line x1="472.125" y1="248" x2="465.125" y2="240" stroke-linecap="round" stroke="#ffffff" stroke-width="2.0" />
<line x1="458.125" y1="240" x2="472.125" y2="232" stroke-linecap="round" stroke="#0f0f0f" stroke-width="1.0" />
<line x1="472.125" y1="232" x2="465.125" y2="240" stroke-linecap="round" stroke="#0f0f0f" stroke-width="1.0" />
<line x1="458.125" y1="240" x2="472.125" y2="248" stroke-linecap="round" stroke="#0f0f0f" stroke-width="1.0" />
<line x1="472.125" y1="248" x2="465.125" y2="240" stroke-linecap="round" stroke="#0f0f0f" stroke-width="1.0" />


<!-- ARROW START -->
<line x1="308.125" y1="360" x2="315.125" y2="360" stroke-linecap="round" stroke="#ffffff" stroke-width="2.0" />
<line x1="308.125" y1="360" x2="322.125" y2="352" stroke-linecap="round" stroke="#ffffff" stroke-width="2.0" />
<line x1="322.125" y1="352" x2="315.125" y2="360" stroke-linecap="round" stroke="#ffffff" stroke-width="2.0" />
<line x1="308.125" y1="360" x2="322.125" y2="368" stroke-linecap="round" stroke="#ffffff" stroke-width="2.0" />
<line x1="322.125" y1="368" x2="315.125" y2="360" stroke-linecap="round" stroke="#ffffff" stroke-width="2.0" />
<line x1="308.125" y1="360" x2="322.125" y2="352" stroke-linecap="round" stroke="#0f0f0f" stroke-width="1.0" />
<line x1="322.125" y1="352" x2="315.125" y2="360" stroke-linecap="round" stroke="#0f0f0f" stroke-width="1.0" />
<line x1="308.125" y1="360" x2="322.125" y2="368" stroke-linecap="round" stroke="#0f0f0f" stroke-width="1.0" />
<line x1="322.125" y1="368" x2="315.125" y2="360" stroke-linecap="round" stroke="#0f0f0f" stroke-width="1.0" />


<!-- renderPart: cylinder -->
<path d="M341.875 348.125 L364.375 348.125 L364.375 371.875 L341.875 371.875 Z" stroke-width="0.5" stroke="black" stroke-linejoin="round" fill="white" fill-opacity="1"/>


<!-- renderPart: cylinder -->
<path d="M360.625 345.625 L453.125 345.625 L453.125 374.375 L360.625 374.375 Z" stroke-width="0.5" stroke="black" stroke-linejoin="round" fill="white" fill-opacity="1"/>
<line x1="453.125" y1="320" x2="453.125" y2="400" stroke="white" stroke-linecap="round"  stroke-width="1" />
<line x1="453.125" y1="320" x2="453.125" y2="400" stroke="black" stroke-linecap="round" stroke-dasharray="4,2" stroke-width="1" />


<!-- renderSideComponent: shaft -->


<!-- renderPart: cylinder -->
<path d="M453.125 345.625 L470.625 345.625 L470.625 374.375 L453.125 374.375 Z" stroke-width="0.5" stroke="black" stroke-linejoin="round" fill="white" fill-opacity="1"/>


<!-- renderPart: cylinder -->
<path d="M470.625 349.375 L915.625 349.375 L915.625 370.625 L470.625 370.625 Z" stroke-width="0.5" stroke="black" stroke-linejoin="round" fill="white" fill-opacity="1"/>


<!-- DASHED JOIN -->
<path d="M 468.125 360 L 950.625 360 L 950.625 420 L 381.875 420 L 381.875 480 L 426.875 480 " fill="none" stroke="white" stroke-width="2" stroke-dasharray="8,4" stroke-linecap="round"  />
<path d="M 468.125 360 L 950.625 360 L 950.625 420 L 381.875 420 L 381.875 480 L 426.875 480 " fill="none" stroke="black" stroke-width="1" stroke-dasharray="8,4" stroke-linecap="round"  />


<!-- ARROW START -->
<line x1="458.125" y1="360" x2="465.125" y2="360" stroke-linecap="round" stroke="#ffffff" stroke-width="2.0" />
<line x1="458.125" y1="360" x2="472.125" y2="352" stroke-linecap="round" stroke="#ffffff" stroke-width="2.0" />
<line x1="472.125" y1="352" x2="465.125" y2="360" stroke-linecap="round" stroke="#ffffff" stroke-width="2.0" />
<line x1="458.125" y1="360" x2="472.125" y2="368" stroke-linecap="round" stroke="#ffffff" stroke-width="2.0" />
<line x1="472.125" y1="368" x2="465.125" y2="360" stroke-linecap="round" stroke="#ffffff" stroke-width="2.0" />
<line x1="458.125" y1="360" x2="472.125" y2="352" stroke-linecap="round" stroke="#0f0f0f" stroke-width="1.0" />
<line x1="472.125" y1="352" x2="465.125" y2="360" stroke-linecap="round" stroke="#0f0f0f" stroke-width="1.0" />
<line x1="458.125" y1="360" x2="472.125" y2="368" stroke-linecap="round" stroke="#0f0f0f" stroke-width="1.0" />
<line x1="472.125" y1="368" x2="465.125" y2="360" stroke-linecap="round" stroke="#0f0f0f" stroke-width="1.0" />


<!-- ARROW START -->
<line x1="396.875" y1="480" x2="403.875" y2="480" stroke-linecap="round" stroke="#ffffff" stroke-width="2.0" />
<line x1="396.875" y1="480" x2="410.875" y2="472" stroke-linecap="round" stroke="#ffffff" stroke-width="2.0" />
<line x1="410.875" y1="472" x2="403.875" y2="480" stroke-linecap="round" stroke="#ffffff" stroke-width="2.0" />
<line x1="396.875" y1="480" x2="410.875" y2="488" stroke-linecap="round" stroke="#ffffff" stroke-width="2.0" />
<line x1="410.875" y1="488" x2="403.875" y2="480" stroke-linecap="round" stroke="#ffffff" stroke-width="2.0" />
<line x1="396.875" y1="480" x2="410.875" y2="472" stroke-linecap="round" stroke="#0f0f0f" stroke-width="1.0" />
<line x1="410.875" y1="472" x2="403.875" y2="480" stroke-linecap="round" stroke="#0f0f0f" stroke-width="1.0" />
<line x1="396.875" y1="480" x2="410.875" y2="488" stroke-linecap="round" stroke="#0f0f0f" stroke-width="1.0" />
<line x1="410.875" y1="488" x2="403.875" y2="480" stroke-linecap="round" stroke="#0f0f0f" stroke-width="1.0" />


<!-- renderPart: cylinder -->
<path d="M426.875 461.25 L453.125 461.25 L453.125 498.75 L426.875 498.75 Z" stroke-width="0.5" stroke="black" stroke-linejoin="round" fill="white" fill-opacity="1"/>
<path d="M426.875 461.25 L453.125 461.25 L453.125 498.75 L426.875 498.75 Z" stroke-width="1.0" stroke="black" fill="url(#threaded)"/>
<line x1="426.875" y1="459.25" x2="431.875" y2="500.75" stroke="dimgray" stroke-linecap="round" stroke-width="2" />
<line x1="426.875" y1="459.25" x2="431.875" y2="500.75" stroke="[object Object]" stroke-linecap="round" stroke-width="1" />
<line x1="431.875" y1="459.25" x2="436.875" y2="500.75" stroke="dimgray" stroke-linecap="round" stroke-width="2" />
<line x1="431.875" y1="459.25" x2="436.875" y2="500.75" stroke="[object Object]" stroke-linecap="round" stroke-width="1" />
<line x1="436.875" y1="459.25" x2="441.875" y2="500.75" stroke="dimgray" stroke-linecap="round" stroke-width="2" />
<line x1="436.875" y1="459.25" x2="441.875" y2="500.75" stroke="[object Object]" stroke-linecap="round" stroke-width="1" />
<line x1="441.875" y1="459.25" x2="446.875" y2="500.75" stroke="dimgray" stroke-linecap="round" stroke-width="2" />
<line x1="441.875" y1="459.25" x2="446.875" y2="500.75" stroke="[object Object]" stroke-linecap="round" stroke-width="1" />
<line x1="446.875" y1="459.25" x2="451.875" y2="500.75" stroke="dimgray" stroke-linecap="round" stroke-width="2" />
<line x1="446.875" y1="459.25" x2="451.875" y2="500.75" stroke="[object Object]" stroke-linecap="round" stroke-width="1" />
<line x1="453.125" y1="440" x2="453.125" y2="520" stroke="white" stroke-linecap="round"  stroke-width="1" />
<line x1="453.125" y1="440" x2="453.125" y2="520" stroke="black" stroke-linecap="round" stroke-dasharray="4,2" stroke-width="1" />


<!-- renderSideComponent: body -->


<!-- renderPart: hexagonal -->
<path d="M453.125 460 L786.875 460 L786.875 500 L453.125 500 Z" stroke-width="0.5" stroke="black" stroke-linejoin="round" fill="white" fill-opacity="1"/>
<line x1="453.125" y1="480" x2="786.875" y2="480" stroke-width="1.5" stroke="gray" fill="gray" stroke-opacity="1.0"/>
<line x1="453.125" y1="480" x2="786.875" y2="480" stroke-width="0.5" stroke="black" fill="none" stroke-opacity="0.5"/>


<!-- renderSideComponent: clip -->
<path d="M631.625 445.875 Q654.375 469.375 664.375 445.875 Z" stroke-width="4" stroke="black" fill="dimgray" stroke-linecap="round" />
<line x1="629.375" y1="444.375" x2="811.875" y2="444.375" stroke-width="4" stroke="black" fill="dimgray" stroke-linecap="round" />
<path d="M811.875 444.375 Q831.875 451.875 811.875 458.125" stroke-width="4" stroke="black" fill="none" stroke-linecap="round" />


<!-- renderPart: cylinder -->
<path d="M786.875 457.5 L814.375 457.5 L814.375 502.5 L786.875 502.5 Z" stroke-width="0.5" stroke="black" stroke-linejoin="round" fill="white" fill-opacity="1"/>
<path d="M631.625 445.875 Q654.375 468.375 664.375 445.875 Z" stroke-width="3" stroke="white" fill="white" stroke-linecap="round" />
<line x1="629.375" y1="444.375" x2="811.875" y2="444.375" stroke-width="3" stroke="white" fill="white" stroke-linecap="round" />
<path d="M811.875 444.375 Q831.875 451.875 811.875 458.125" stroke-width="3" stroke="white" fill="none" stroke-linecap="round" />


<!-- renderSideComponent: tail -->


<!-- renderPart: cylinder -->
<path d="M814.375 460 L834.375 460 L834.375 500 L814.375 500 Z" stroke-width="0.5" stroke="black" stroke-linejoin="round" fill="white" fill-opacity="1"/>


<!-- renderSideComponent: indicator -->


<!-- renderPart: cylinder -->
<path d="M834.375 459.375 L881.875 459.375 L881.875 500.625 L834.375 500.625 Z" stroke-width="0.5" stroke="black" stroke-linejoin="round" fill="white" fill-opacity="1"/>
<path d="M834.375 459.375 L881.875 459.375 L881.875 500.625 L834.375 500.625 Z" stroke-width="1.0" stroke="black" fill="url(#knurled)"/>
<rect x="844.375" y="469.6875" width="27.5" height="20.625" rx="3" ry="3" stroke-width="1" stroke="black" fill="white"/>
<text x="858.125" y="480" text-anchor="middle" dominant-baseline="central"><tspan stroke="dimgray" stroke-width="0.5" font-family="sans-serif" fill="black" textLength="{this.width * 5 - 24}" > HB</tspan></text>

<!-- renderSideComponent: foot -->


<!-- renderPart: cylinder -->
<path d="M881.875 460 L886.875 460 L886.875 500 L881.875 500 Z" stroke-width="0.5" stroke="black" stroke-linejoin="round" fill="white" fill-opacity="1"/>


<!-- renderPart: cylinder -->
<path d="M886.875 460 L893.125 460 L893.125 500 L886.875 500 Z" stroke-width="0.5" stroke="black" stroke-linejoin="round" fill="white" fill-opacity="1"/>


<!-- renderPart: cylinder -->
<path d="M893.125 460 L899.375 460 L899.375 500 L893.125 500 Z" stroke-width="0.5" stroke="black" stroke-linejoin="round" fill="white" fill-opacity="1"/>


<!-- DASHED JOIN -->
<path d="M 914.375 480 L 934.375 480 L 934.375 540 L 753.125 540 L 753.125 600 L 798.125 600 " fill="none" stroke="white" stroke-width="2" stroke-dasharray="8,4" stroke-linecap="round"  />
<path d="M 914.375 480 L 934.375 480 L 934.375 540 L 753.125 540 L 753.125 600 L 798.125 600 " fill="none" stroke="black" stroke-width="1" stroke-dasharray="8,4" stroke-linecap="round"  />


<!-- ARROW START -->
<line x1="904.375" y1="480" x2="911.375" y2="480" stroke-linecap="round" stroke="#ffffff" stroke-width="2.0" />
<line x1="904.375" y1="480" x2="918.375" y2="472" stroke-linecap="round" stroke="#ffffff" stroke-width="2.0" />
<line x1="918.375" y1="472" x2="911.375" y2="480" stroke-linecap="round" stroke="#ffffff" stroke-width="2.0" />
<line x1="904.375" y1="480" x2="918.375" y2="488" stroke-linecap="round" stroke="#ffffff" stroke-width="2.0" />
<line x1="918.375" y1="488" x2="911.375" y2="480" stroke-linecap="round" stroke="#ffffff" stroke-width="2.0" />
<line x1="904.375" y1="480" x2="918.375" y2="472" stroke-linecap="round" stroke="#0f0f0f" stroke-width="1.0" />
<line x1="918.375" y1="472" x2="911.375" y2="480" stroke-linecap="round" stroke="#0f0f0f" stroke-width="1.0" />
<line x1="904.375" y1="480" x2="918.375" y2="488" stroke-linecap="round" stroke="#0f0f0f" stroke-width="1.0" />
<line x1="918.375" y1="488" x2="911.375" y2="480" stroke-linecap="round" stroke="#0f0f0f" stroke-width="1.0" />


<!-- ARROW START -->
<line x1="768.125" y1="600" x2="775.125" y2="600" stroke-linecap="round" stroke="#ffffff" stroke-width="2.0" />
<line x1="768.125" y1="600" x2="782.125" y2="592" stroke-linecap="round" stroke="#ffffff" stroke-width="2.0" />
<line x1="782.125" y1="592" x2="775.125" y2="600" stroke-linecap="round" stroke="#ffffff" stroke-width="2.0" />
<line x1="768.125" y1="600" x2="782.125" y2="608" stroke-linecap="round" stroke="#ffffff" stroke-width="2.0" />
<line x1="782.125" y1="608" x2="775.125" y2="600" stroke-linecap="round" stroke="#ffffff" stroke-width="2.0" />
<line x1="768.125" y1="600" x2="782.125" y2="592" stroke-linecap="round" stroke="#0f0f0f" stroke-width="1.0" />
<line x1="782.125" y1="592" x2="775.125" y2="600" stroke-linecap="round" stroke="#0f0f0f" stroke-width="1.0" />
<line x1="768.125" y1="600" x2="782.125" y2="608" stroke-linecap="round" stroke="#0f0f0f" stroke-width="1.0" />
<line x1="782.125" y1="608" x2="775.125" y2="600" stroke-linecap="round" stroke="#0f0f0f" stroke-width="1.0" />


<!-- renderPart: cylinder -->
<path d="M798.125 586.25 L870.625 586.25 L870.625 613.75 L798.125 613.75 Z" stroke-width="0.5" stroke="black" stroke-linejoin="round" fill="white" fill-opacity="1"/>


<!-- renderPart: cylinder -->
<path d="M870.625 586.25 L899.375 586.25 L899.375 613.75 L870.625 613.75 Z" stroke-width="0.5" stroke="black" stroke-linejoin="round" fill="white" fill-opacity="1"/>
<line x1="899.375" y1="560" x2="899.375" y2="640" stroke="white" stroke-linecap="round"  stroke-width="1" />
<line x1="899.375" y1="560" x2="899.375" y2="640" stroke="black" stroke-linecap="round" stroke-dasharray="4,2" stroke-width="1" />


<!-- renderSideComponent: cap -->


<!-- renderPart: cylinder -->
<path d="M899.375 586.25 L929.375 586.25 L929.375 613.75 L899.375 613.75 Z" stroke-width="0.5" stroke="black" stroke-linejoin="round" fill="white" fill-opacity="1"/>


<!-- renderPart: cylinder -->
<path d="M929.375 587.5 L933.125 587.5 L933.125 612.5 L929.375 612.5 Z" stroke-width="0.5" stroke="black" stroke-linejoin="round" fill="white" fill-opacity="1"/>


<!-- renderPart: cylinder -->
<path d="M933.125 586.25 L940.625 586.25 L940.625 613.75 L933.125 613.75 Z" stroke-width="0.5" stroke="black" stroke-linejoin="round" fill="white" fill-opacity="1"/>


<!-- renderPart: cylinder -->
<path d="M940.625 587.5 L944.375 587.5 L944.375 612.5 L940.625 612.5 Z" stroke-width="0.5" stroke="black" stroke-linejoin="round" fill="white" fill-opacity="1"/>


<!-- renderPart: cylinder -->
<path d="M944.375 586.25 L951.875 586.25 L951.875 613.75 L944.375 613.75 Z" stroke-width="0.5" stroke="black" stroke-linejoin="round" fill="white" fill-opacity="1"/>


<!-- renderPart: cylinder -->
<path d="M951.875 587.5 L955.625 587.5 L955.625 612.5 L951.875 612.5 Z" stroke-width="0.5" stroke="black" stroke-linejoin="round" fill="white" fill-opacity="1"/>


<!-- renderPart: cylinder -->
<path d="M955.625 586.25 L964.375 586.25 L964.375 613.75 L955.625 613.75 Z" stroke-width="0.5" stroke="black" stroke-linejoin="round" fill="white" fill-opacity="1"/>
</g><text x="50%" y="789" font-size="1.1em" font-weight="bold" text-anchor="middle" dominant-baseline="middle">Copyright (c) // The Mechanical Pencil Database (tmpdb) // Licensed under Creative Commons Attribution-NonCommercial-ShareAlike 4.0 International</text>
<text x="1190" y="799" font-size="0.5em" font-weight="bold" text-anchor="end" dominant-baseline="middle">SVGTechnicalExplodedRenderer</text>
</svg>