<svg xmlns="http://www.w3.org/2000/svg" width="1500" height="600">
 <pattern id="knurled-large" patternUnits="userSpaceOnUse" width="12" height="12">
<path stroke="dimgray" stroke-linecap="round" stroke-width="1" d="M 6,6 L 12,12"/>
<path stroke="dimgray" stroke-linecap="round" stroke-width="1" d="M 6,6 L 0,12"/>
<path stroke="gray" stroke-linecap="round" stroke-width="1" d="M 6,6 L 12,0" />
<path stroke="gray" stroke-linecap="round" stroke-width="1" d="M 6,6 L 0,0" />
</pattern><pattern id="knurled-small" patternUnits="userSpaceOnUse" width="4" height="4">
<path stroke="dimgray" stroke-linecap="round" stroke-width="1" d="M 2,2 L 4,4"/>
<path stroke="dimgray" stroke-linecap="round" stroke-width="1" d="M 2,2 L 0,4"/>
<path stroke="gray" stroke-linecap="round" stroke-width="1" d="M 2,2 L 4,0" />
<path stroke="gray" stroke-linecap="round" stroke-width="1" d="M 2,2 L 0,0" />
</pattern><pattern id="knurled" patternUnits="userSpaceOnUse" width="8" height="8">
<path stroke="dimgray" stroke-linecap="round" stroke-width="1" d="M 4,4 L 8,8"/>
<path stroke="dimgray" stroke-linecap="round" stroke-width="1" d="M 4,4 L 0,8"/>
<path stroke="gray" stroke-linecap="round" stroke-width="1" d="M 4,4 L 8,0" />
<path stroke="gray" stroke-linecap="round" stroke-width="1" d="M 4,4 L 0,0" />
</pattern><pattern id="lined" patternUnits="userSpaceOnUse" width="3" height="3">
<path stroke="dimgray" stroke-linecap="round" stroke-width="1" d="M 0,0 L 3,0"/>
</pattern><pattern id="ridged" patternUnits="userSpaceOnUse" width="3" height="3">
<path stroke="dimgray" stroke-linecap="round" stroke-width="1" d="M 0,0 L 0,3"/>
</pattern><pattern id="spring" patternUnits="userSpaceOnUse" width="8" height="100">
<path stroke="dimgray" stroke-linecap="round" stroke-width="2" d="M 1,1 L 9,99"/>
<path stroke="white" stroke-linecap="round" stroke-width="1" d="M 1,1 L 9,99"/>
</pattern><pattern id="knurled" patternUnits="userSpaceOnUse" width="8" height="8">
<path stroke="dimgray" stroke-linecap="round" stroke-width="1" d="M 4,4 L 8,8"/>
<path stroke="dimgray" stroke-linecap="round" stroke-width="1" d="M 4,4 L 0,8"/>
<path stroke="gray" stroke-linecap="round" stroke-width="1" d="M 4,4 L 8,0" />
<path stroke="gray" stroke-linecap="round" stroke-width="1" d="M 4,4 L 0,0" />
</pattern><rect x="0" y="0" width="1500" height="600" fill="white" stroke="black" stroke-width="4" />
<rect x="2" y="2" width="1496" height="596" fill="white" stroke="dimgray" stroke-width="1" />
<g transform="rotate(0 0 0)">
<line x1="40" y1="300" x2="1460" y2="300" stroke-linecap="round" stroke="#5f5f5f" stroke-dasharray="2" stroke-width="1" />
<line x1="20" y1="300" x2="60" y2="300" stroke-linecap="round" stroke="#000000"  stroke-width="1" />
<line x1="40" y1="280" x2="40" y2="320" stroke="#000000" stroke-linecap="round"  stroke-width="1" />
<circle r="10" cx="40" cy="300" fill="white" fill-opacity="0" stroke="#000000" stroke-width="1"  />
<line x1="1440" y1="300" x2="1480" y2="300" stroke-linecap="round" stroke="#000000"  stroke-width="1" />
<line x1="1460" y1="280" x2="1460" y2="320" stroke="#000000" stroke-linecap="round"  stroke-width="1" />
<circle r="10" cx="1460" cy="300" fill="white" fill-opacity="0" stroke="#000000" stroke-width="1"  />
<line x1="750" y1="90" x2="750" y2="510" stroke="#5f5f5f" stroke-linecap="round" stroke-dasharray="2" stroke-width="1" />
<line x1="730" y1="90" x2="770" y2="90" stroke-linecap="round" stroke="#000000"  stroke-width="1" />
<line x1="750" y1="70" x2="750" y2="110" stroke="#000000" stroke-linecap="round"  stroke-width="1" />
<circle r="10" cx="750" cy="90" fill="white" fill-opacity="0" stroke="#000000" stroke-width="1"  />
<line x1="730" y1="510" x2="770" y2="510" stroke-linecap="round" stroke="#000000"  stroke-width="1" />
<line x1="750" y1="490" x2="750" y2="530" stroke="#000000" stroke-linecap="round"  stroke-width="1" />
<circle r="10" cx="750" cy="510" fill="white" fill-opacity="0" stroke="#000000" stroke-width="1"  />
<line x1="160" y1="150" x2="160" y2="510" stroke="#5f5f5f" stroke-linecap="round" stroke-dasharray="2" stroke-width="1" />
<line x1="140" y1="150" x2="180" y2="150" stroke-linecap="round" stroke="#000000"  stroke-width="1" />
<line x1="160" y1="130" x2="160" y2="170" stroke="#000000" stroke-linecap="round"  stroke-width="1" />
<circle r="10" cx="160" cy="150" fill="white" fill-opacity="0" stroke="#000000" stroke-width="1"  />
<line x1="140" y1="510" x2="180" y2="510" stroke-linecap="round" stroke="#000000"  stroke-width="1" />
<line x1="160" y1="490" x2="160" y2="530" stroke="#000000" stroke-linecap="round"  stroke-width="1" />
<circle r="10" cx="160" cy="510" fill="white" fill-opacity="0" stroke="#000000" stroke-width="1"  />
<line x1="1400" y1="150" x2="1400" y2="510" stroke="#5f5f5f" stroke-linecap="round" stroke-dasharray="2" stroke-width="1" />
<line x1="1380" y1="150" x2="1420" y2="150" stroke-linecap="round" stroke="#000000"  stroke-width="1" />
<line x1="1400" y1="130" x2="1400" y2="170" stroke="#000000" stroke-linecap="round"  stroke-width="1" />
<circle r="10" cx="1400" cy="150" fill="white" fill-opacity="0" stroke="#000000" stroke-width="1"  />
<line x1="1380" y1="510" x2="1420" y2="510" stroke-linecap="round" stroke="#000000"  stroke-width="1" />
<line x1="1400" y1="490" x2="1400" y2="530" stroke="#000000" stroke-linecap="round"  stroke-width="1" />
<circle r="10" cx="1400" cy="510" fill="white" fill-opacity="0" stroke="#000000" stroke-width="1"  />
<text x="30" y="50" font-size="2.0em" font-weight="bold"> Redring // 600 (Model #: 600)</text>
<text x="30" y="80" font-size="1.1em"> Redring (R) 600 2.0mm</text>
<text x="30" y="100" font-size="1.1em"> Lead size: 2.0 mm</text>
<text x="1480" y="30" font-size="1.6em" font-weight="bold" text-anchor="end" dominant-baseline="central">Colour variants of the body</text>
<rect x="1440" y="55" width="40" rx="50%" ry="50%" height="40" stroke="black" stroke-width="2" fill="black" fill-opacity="1"/>
<text x="1460" y="100" transform="rotate(-90, 1460, 100)" font-size="1.2em" font-weight="bold" text-anchor="end" dominant-baseline="central">black</text>
<text x="30" y="136" font-size="1.2em" font-weight="bold" text-anchor="start" dominant-baseline="central">Materials:</text>
<text x="50" y="156" font-size="1.2em" text-anchor="start" dominant-baseline="central"> - metal</text>
<text x="50" y="176" font-size="1.2em" text-anchor="start" dominant-baseline="central"> - plastic</text>
<text x="50" y="196" font-size="1.2em" text-anchor="start" dominant-baseline="central"> - rubber</text>
<line x1="100" y1="264.625" x2="1400" y2="264.625" stroke-linecap="round" stroke="#cfcfcf"  stroke-width="1" />
<line x1="160" y1="278.375" x2="1400" y2="278.375" stroke-linecap="round" stroke="#cfcfcf"  stroke-width="1" />
<line x1="148.75" y1="230" x2="148.75" y2="300" stroke="#cfcfcf" stroke-linecap="round"  stroke-width="1" />
<line x1="171.25" y1="230" x2="171.25" y2="300" stroke="#cfcfcf" stroke-linecap="round"  stroke-width="1" />
<line x1="160" y1="276.875" x2="1400" y2="276.875" stroke-linecap="round" stroke="#cfcfcf"  stroke-width="1" />
<line x1="100" y1="323.125" x2="1400" y2="323.125" stroke-linecap="round" stroke="#cfcfcf"  stroke-width="1" />
<line x1="136.875" y1="300" x2="136.875" y2="343.125" stroke="#cfcfcf" stroke-linecap="round"  stroke-width="1" />
<line x1="183.125" y1="300" x2="183.125" y2="343.125" stroke="#cfcfcf" stroke-linecap="round"  stroke-width="1" />
<line x1="385.625" y1="180" x2="385.625" y2="420" stroke="#cfcfcf" stroke-linecap="round"  stroke-width="1" />
<line x1="453.125" y1="180" x2="453.125" y2="420" stroke="#cfcfcf" stroke-linecap="round"  stroke-width="1" />
<line x1="603.125" y1="180" x2="603.125" y2="420" stroke="#cfcfcf" stroke-linecap="round"  stroke-width="1" />
<line x1="603.125" y1="180" x2="603.125" y2="420" stroke="#cfcfcf" stroke-linecap="round"  stroke-width="1" />
<line x1="936.875" y1="180" x2="936.875" y2="420" stroke="#cfcfcf" stroke-linecap="round"  stroke-width="1" />
<line x1="785.625" y1="220" x2="785.625" y2="380" stroke="#cfcfcf" stroke-linecap="round"  stroke-width="1" />
<line x1="964.375" y1="220" x2="964.375" y2="380" stroke="#cfcfcf" stroke-linecap="round"  stroke-width="1" />
<line x1="964.375" y1="180" x2="964.375" y2="420" stroke="#cfcfcf" stroke-linecap="round"  stroke-width="1" />
<line x1="984.375" y1="180" x2="984.375" y2="420" stroke="#cfcfcf" stroke-linecap="round"  stroke-width="1" />
<line x1="1031.875" y1="180" x2="1031.875" y2="420" stroke="#cfcfcf" stroke-linecap="round"  stroke-width="1" />
<line x1="1049.375" y1="180" x2="1049.375" y2="420" stroke="#cfcfcf" stroke-linecap="round"  stroke-width="1" />
<line x1="1114.375" y1="188.875" x2="1114.375" y2="396.875" stroke="#cfcfcf" stroke-linecap="round"  stroke-width="1" />
<text x="160" y="540" font-size="1.8em" font-weight="bold" text-anchor="middle" dominant-baseline="central">Front</text>
<text x="750" y="540" font-size="1.8em" font-weight="bold" text-anchor="middle" dominant-baseline="central">Side view</text>
<text x="1400" y="540" font-size="1.8em" font-weight="bold" text-anchor="middle" dominant-baseline="central">Back</text>
<line x1="148.75" y1="229" x2="148.75" y2="251" stroke="black" stroke-width="1" />
<line x1="148.75" y1="240" x2="171.25" y2="240" stroke="black" stroke-width="1" />
<line x1="171.25" y1="229" x2="171.25" y2="251" stroke="black" stroke-width="1" />
<text x="160" y="221" font-size="1.2em" font-weight="bold" text-anchor="middle" dominant-baseline="central" fill="black"><tspan x="160" dy="0">4.50 mm</tspan></text>
<line x1="211" y1="264.625" x2="233" y2="264.625" stroke="black" stroke-width="1" />
<line x1="222" y1="264.625" x2="222" y2="278.375" stroke="black" stroke-width="1" />
<line x1="211" y1="278.375" x2="233" y2="278.375" stroke="black" stroke-width="1" />
<text x="235" y="271.5" font-size="1.2em" font-weight="bold" text-anchor="start" dominant-baseline="central" fill="black">2.75 mm</text>
<line x1="199" y1="276.875" x2="221" y2="276.875" stroke="black" stroke-width="1" />
<line x1="210" y1="276.875" x2="210" y2="323.125" stroke="black" stroke-width="1" />
<line x1="199" y1="323.125" x2="221" y2="323.125" stroke="black" stroke-width="1" />
<text x="223" y="300" font-size="1.2em" font-weight="bold" text-anchor="start" dominant-baseline="central" fill="black">9.25 mm</text>
<line x1="99" y1="264.625" x2="121" y2="264.625" stroke="black" stroke-width="1" />
<line x1="110" y1="264.625" x2="110" y2="323.125" stroke="black" stroke-width="1" />
<line x1="99" y1="323.125" x2="121" y2="323.125" stroke="black" stroke-width="1" />
<text x="91" y="293.875" transform="rotate(-90, 91, 293.875)" font-size="1.2em" font-weight="bold" text-anchor="middle" dominant-baseline="central" fill="black">11.7 mm</text>
<line x1="136.875" y1="342.125" x2="136.875" y2="364.125" stroke="black" stroke-width="1" />
<line x1="136.875" y1="353.125" x2="183.125" y2="353.125" stroke="black" stroke-width="1" />
<line x1="183.125" y1="342.125" x2="183.125" y2="364.125" stroke="black" stroke-width="1" />
<text x="160" y="372.125" font-size="1.2em" font-weight="bold" text-anchor="middle" dominant-baseline="central" fill="black"><tspan x="160" dy="0">9.25 mm</tspan></text>
<line x1="385.625" y1="169" x2="385.625" y2="191" stroke="black" stroke-width="1" />
<line x1="385.625" y1="180" x2="453.125" y2="180" stroke="black" stroke-width="1" />
<line x1="453.125" y1="169" x2="453.125" y2="191" stroke="black" stroke-width="1" />
<text x="419.375" y="161" font-size="1.2em" transform="rotate(-90, 407.375, 161)" font-weight="bold" text-anchor="start" dominant-baseline="central" fill="black"><tspan x="411.375" dy="0">13.50 mm</tspan><tspan x="411.375" dy="1em">tip</tspan></text>
<line x1="453.125" y1="169" x2="453.125" y2="191" stroke="black" stroke-width="1" />
<line x1="453.125" y1="180" x2="603.125" y2="180" stroke="black" stroke-width="1" />
<line x1="603.125" y1="169" x2="603.125" y2="191" stroke="black" stroke-width="1" />
<text x="528.125" y="161" font-size="1.2em" transform="rotate(-90, 516.125, 161)" font-weight="bold" text-anchor="start" dominant-baseline="central" fill="black"><tspan x="520.125" dy="0">30.00 mm</tspan><tspan x="520.125" dy="1em">grip</tspan></text>
<line x1="603.125" y1="169" x2="603.125" y2="191" stroke="black" stroke-width="1" />
<line x1="603.125" y1="180" x2="936.875" y2="180" stroke="black" stroke-width="1" />
<line x1="936.875" y1="169" x2="936.875" y2="191" stroke="black" stroke-width="1" />
<text x="770" y="161" font-size="1.2em" transform="rotate(-90, 758, 161)" font-weight="bold" text-anchor="start" dominant-baseline="central" fill="black"><tspan x="762" dy="0">66.75 mm</tspan><tspan x="762" dy="1em">body</tspan></text>
<line x1="936.875" y1="169" x2="936.875" y2="191" stroke="black" stroke-width="1" />
<line x1="936.875" y1="180" x2="964.375" y2="180" stroke="black" stroke-width="1" />
<line x1="964.375" y1="169" x2="964.375" y2="191" stroke="black" stroke-width="1" />
<text x="950.625" y="161" font-size="1.2em" transform="rotate(-90, 950.625, 161)" font-weight="bold" text-anchor="start" dominant-baseline="central" fill="black"><tspan x="950.625" dy="0">5.50 mm clip</tspan></text>
<line x1="785.625" y1="209" x2="785.625" y2="231" stroke="black" stroke-width="1" />
<line x1="785.625" y1="220" x2="964.375" y2="220" stroke="black" stroke-width="1" />
<line x1="964.375" y1="209" x2="964.375" y2="231" stroke="black" stroke-width="1" />
<text x="875" y="212" font-weight="bold" font-size="1.2em" stroke="white" stroke-width="0.25" text-anchor="middle" dominant-baseline="middle" fill="black"><tspan x="867" dy="0">35.75 mm</tspan><tspan x="867" dy="1em">clip (extra)</tspan></text>
<line x1="964.375" y1="169" x2="964.375" y2="191" stroke="black" stroke-width="1" />
<line x1="964.375" y1="180" x2="984.375" y2="180" stroke="black" stroke-width="1" />
<line x1="984.375" y1="169" x2="984.375" y2="191" stroke="black" stroke-width="1" />
<text x="974.375" y="161" font-size="1.2em" transform="rotate(-90, 974.375, 161)" font-weight="bold" text-anchor="start" dominant-baseline="central" fill="black"><tspan x="974.375" dy="0">4.00 mm tail</tspan></text>
<line x1="984.375" y1="169" x2="984.375" y2="191" stroke="black" stroke-width="1" />
<line x1="984.375" y1="180" x2="1031.875" y2="180" stroke="black" stroke-width="1" />
<line x1="1031.875" y1="169" x2="1031.875" y2="191" stroke="black" stroke-width="1" />
<text x="1008.125" y="161" font-size="1.2em" transform="rotate(-90, 996.125, 161)" font-weight="bold" text-anchor="start" dominant-baseline="central" fill="black"><tspan x="1000.125" dy="0">9.50 mm</tspan><tspan x="1000.125" dy="1em">indicator</tspan></text>
<line x1="1031.875" y1="169" x2="1031.875" y2="191" stroke="black" stroke-width="1" />
<line x1="1031.875" y1="180" x2="1049.375" y2="180" stroke="black" stroke-width="1" />
<line x1="1049.375" y1="169" x2="1049.375" y2="191" stroke="black" stroke-width="1" />
<text x="1040.625" y="161" font-size="1.2em" transform="rotate(-90, 1040.625, 161)" font-weight="bold" text-anchor="start" dominant-baseline="central" fill="black"><tspan x="1040.625" dy="0">3.50 mm foot</tspan></text>
<line x1="1049.375" y1="169" x2="1049.375" y2="191" stroke="black" stroke-width="1" />
<line x1="1049.375" y1="180" x2="1114.375" y2="180" stroke="black" stroke-width="1" />
<line x1="1114.375" y1="169" x2="1114.375" y2="191" stroke="black" stroke-width="1" />
<text x="1081.875" y="161" font-size="1.2em" transform="rotate(-90, 1069.875, 161)" font-weight="bold" text-anchor="start" dominant-baseline="central" fill="black"><tspan x="1073.875" dy="0">13.00 mm</tspan><tspan x="1073.875" dy="1em">cap</tspan></text>
<line x1="1299" y1="279.375" x2="1321" y2="279.375" stroke="black" stroke-width="1" />
<line x1="1310" y1="279.375" x2="1310" y2="320.625" stroke="black" stroke-width="1" />
<line x1="1299" y1="320.625" x2="1321" y2="320.625" stroke="black" stroke-width="1" />
<text x="1291" y="300" transform="rotate(-90, 1291, 300)" font-size="1.2em" font-weight="bold" text-anchor="middle" dominant-baseline="central" fill="black">8.25 mm</text>
<line x1="1299" y1="279.375" x2="1321" y2="279.375" stroke="black" stroke-width="1" />
<line x1="1310" y1="279.375" x2="1310" y2="320.625" stroke="black" stroke-width="1" />
<line x1="1299" y1="320.625" x2="1321" y2="320.625" stroke="black" stroke-width="1" />
<text x="1310" y="328.625" transform="rotate(-90, 1310, 328.625)" font-weight="bold" font-size="1.2em" text-anchor="end" dominant-baseline="middle" fill="black">grip</text>
<line x1="1339" y1="280" x2="1361" y2="280" stroke="black" stroke-width="1" />
<line x1="1350" y1="280" x2="1350" y2="320" stroke="black" stroke-width="1" />
<line x1="1339" y1="320" x2="1361" y2="320" stroke="black" stroke-width="1" />
<text x="1331" y="300" transform="rotate(-90, 1331, 300)" font-size="1.2em" font-weight="bold" text-anchor="middle" dominant-baseline="central" fill="black">8 mm</text>
<line x1="1339" y1="280" x2="1361" y2="280" stroke="black" stroke-width="1" />
<line x1="1350" y1="280" x2="1350" y2="320" stroke="black" stroke-width="1" />
<line x1="1339" y1="320" x2="1361" y2="320" stroke="black" stroke-width="1" />
<text x="1350" y="328" transform="rotate(-90, 1350, 328)" font-weight="bold" font-size="1.2em" text-anchor="end" dominant-baseline="middle" fill="black">body</text>
<line x1="385.625" y1="342.125" x2="385.625" y2="364.125" stroke="black" stroke-width="1" />
<line x1="385.625" y1="353.125" x2="1114.375" y2="353.125" stroke="black" stroke-width="1" />
<line x1="1114.375" y1="342.125" x2="1114.375" y2="364.125" stroke="black" stroke-width="1" />
<text x="750" y="353.125" font-weight="bold" font-size="1.2em" stroke="white" stroke-width="0.25" text-anchor="middle" dominant-baseline="middle" fill="black"><tspan x="750" dy="0">145.75 mm</tspan></text>
<line x1="385.625" y1="409" x2="385.625" y2="431" stroke="black" stroke-width="1" />
<line x1="385.625" y1="420" x2="453.125" y2="420" stroke="black" stroke-width="1" />
<line x1="453.125" y1="409" x2="453.125" y2="431" stroke="black" stroke-width="1" />
<text x="419.375" y="439" font-size="1.2em" transform="rotate(-90, 419.375, 439)"  text-anchor="end" dominant-baseline="middle" fill="black"><tspan x="419.375" dy="0">metal</tspan></text>
<line x1="453.125" y1="409" x2="453.125" y2="431" stroke="black" stroke-width="1" />
<line x1="453.125" y1="420" x2="603.125" y2="420" stroke="black" stroke-width="1" />
<line x1="603.125" y1="409" x2="603.125" y2="431" stroke="black" stroke-width="1" />
<text x="528.125" y="439" font-size="1.2em" transform="rotate(-90, 528.125, 439)"  text-anchor="end" dominant-baseline="middle" fill="black"><tspan x="528.125" dy="0">metal</tspan></text>
<line x1="603.125" y1="409" x2="603.125" y2="431" stroke="black" stroke-width="1" />
<line x1="603.125" y1="420" x2="936.875" y2="420" stroke="black" stroke-width="1" />
<line x1="936.875" y1="409" x2="936.875" y2="431" stroke="black" stroke-width="1" />
<text x="770" y="439" font-size="1.2em" transform="rotate(-90, 770, 439)"  text-anchor="end" dominant-baseline="middle" fill="black"><tspan x="770" dy="0">metal</tspan></text>
<line x1="785.625" y1="369" x2="785.625" y2="391" stroke="black" stroke-width="1" />
<line x1="785.625" y1="380" x2="964.375" y2="380" stroke="black" stroke-width="1" />
<line x1="964.375" y1="369" x2="964.375" y2="391" stroke="black" stroke-width="1" />
<text x="875" y="399" font-size="1.2em"  text-anchor="middle" dominant-baseline="central" fill="black"><tspan x="875" dy="0">metal</tspan></text>
<line x1="936.875" y1="409" x2="936.875" y2="431" stroke="black" stroke-width="1" />
<line x1="936.875" y1="420" x2="964.375" y2="420" stroke="black" stroke-width="1" />
<line x1="964.375" y1="409" x2="964.375" y2="431" stroke="black" stroke-width="1" />
<text x="950.625" y="439" font-size="1.2em" transform="rotate(-90, 950.625, 439)"  text-anchor="end" dominant-baseline="middle" fill="black"><tspan x="950.625" dy="0">metal</tspan></text>
<line x1="964.375" y1="409" x2="964.375" y2="431" stroke="black" stroke-width="1" />
<line x1="964.375" y1="420" x2="984.375" y2="420" stroke="black" stroke-width="1" />
<line x1="984.375" y1="409" x2="984.375" y2="431" stroke="black" stroke-width="1" />
<text x="974.375" y="439" font-size="1.2em" transform="rotate(-90, 974.375, 439)"  text-anchor="end" dominant-baseline="middle" fill="black"><tspan x="974.375" dy="0">metal</tspan></text>
<line x1="984.375" y1="409" x2="984.375" y2="431" stroke="black" stroke-width="1" />
<line x1="984.375" y1="420" x2="1031.875" y2="420" stroke="black" stroke-width="1" />
<line x1="1031.875" y1="409" x2="1031.875" y2="431" stroke="black" stroke-width="1" />
<text x="1008.125" y="439" font-size="1.2em" transform="rotate(-90, 1008.125, 439)"  text-anchor="end" dominant-baseline="middle" fill="black"><tspan x="1008.125" dy="0">plastic</tspan></text>
<line x1="1031.875" y1="409" x2="1031.875" y2="431" stroke="black" stroke-width="1" />
<line x1="1031.875" y1="420" x2="1049.375" y2="420" stroke="black" stroke-width="1" />
<line x1="1049.375" y1="409" x2="1049.375" y2="431" stroke="black" stroke-width="1" />
<text x="1040.625" y="439" font-size="1.2em" transform="rotate(-90, 1028.625, 439)"  text-anchor="end" dominant-baseline="middle" fill="black"><tspan x="1032.625" dy="0">metal</tspan><tspan x="1032.625" dy="1em">rubber</tspan></text>
<line x1="1049.375" y1="409" x2="1049.375" y2="431" stroke="black" stroke-width="1" />
<line x1="1049.375" y1="420" x2="1114.375" y2="420" stroke="black" stroke-width="1" />
<line x1="1114.375" y1="409" x2="1114.375" y2="431" stroke="black" stroke-width="1" />
<text x="1081.875" y="439" font-size="1.2em" transform="rotate(-90, 1081.875, 439)"  text-anchor="end" dominant-baseline="middle" fill="black"><tspan x="1081.875" dy="0">plastic</tspan></text>


<!-- renderSideComponent: tip -->


<!-- renderPart: cone -->
<path d="M385.625 291.875 L390.625 290 L390.625 310 L385.625 308.125 Z" stroke-width="0.5" stroke="black" stroke-linejoin="round" fill="white" fill-opacity="1"/>


<!-- renderPart: cone -->
<path d="M390.625 287.5 L453.125 281.25 L453.125 318.75 L390.625 312.5 Z" stroke-width="0.5" stroke="black" stroke-linejoin="round" fill="white" fill-opacity="1"/>


<!-- renderSideComponent: grip -->


<!-- renderPart: cylinder -->
<path d="M453.125 279.375 L603.125 279.375 L603.125 320.625 L453.125 320.625 Z" stroke-width="0.5" stroke="black" stroke-linejoin="round" fill="white" fill-opacity="1"/>
<path d="M453.125 279.375 L603.125 279.375 L603.125 320.625 L453.125 320.625 Z" stroke-width="1.0" stroke="black" fill="url(#knurled-small)"/>


<!-- renderSideComponent: shaft -->


<!-- renderSideComponent: body -->


<!-- renderPart: hexagonal -->
<path d="M603.125 280 L936.875 280 L936.875 320 L603.125 320 Z" stroke-width="0.5" stroke="black" stroke-linejoin="round" fill="white" fill-opacity="1"/>
<line x1="603.125" y1="300" x2="936.875" y2="300" stroke-width="1.5" stroke="gray" fill="gray" stroke-opacity="1.0"/>
<line x1="603.125" y1="300" x2="936.875" y2="300" stroke-width="0.5" stroke="black" fill="none" stroke-opacity="0.5"/>


<!-- renderSideComponent: clip -->
<path d="M787.875 266.875 Q810.625 289.375 820.625 266.875" stroke-width="4" stroke="black" fill="none" stroke-linecap="round" />
<line x1="785.625" y1="264.375" x2="968.125" y2="264.375" stroke-width="4" stroke="black" fill="dimgray" stroke-linecap="round" />
<path d="M968.125 264.375 Q988.125 271.875 968.125 278.125" stroke-width="4" stroke="black" fill="none" stroke-linecap="round" />


<!-- renderPart: cylinder -->
<path d="M936.875 276.875 L964.375 276.875 L964.375 323.125 L936.875 323.125 Z" stroke-width="0.5" stroke="black" stroke-linejoin="round" fill="white" fill-opacity="1"/>
<path d="M787.875 266.875 Q810.625 289.375 820.625 266.875" stroke-width="3" stroke="white" fill="none" stroke-linecap="round" />
<line x1="785.625" y1="264.375" x2="968.125" y2="264.375" stroke-width="3" stroke="white" fill="white" stroke-linecap="round" />
<path d="M968.125 264.375 Q988.125 271.875 968.125 278.125" stroke-width="3" stroke="white" fill="none" stroke-linecap="round" />


<!-- renderSideComponent: tail -->


<!-- renderPart: cylinder -->
<path d="M964.375 280 L984.375 280 L984.375 320 L964.375 320 Z" stroke-width="0.5" stroke="black" stroke-linejoin="round" fill="white" fill-opacity="1"/>


<!-- renderSideComponent: indicator -->


<!-- renderPart: cylinder -->
<path d="M984.375 279.375 L1031.875 279.375 L1031.875 320.625 L984.375 320.625 Z" stroke-width="0.5" stroke="black" stroke-linejoin="round" fill="white" fill-opacity="1"/>
<path d="M984.375 279.375 L1031.875 279.375 L1031.875 320.625 L984.375 320.625 Z" stroke-width="1.0" stroke="black" fill="url(#knurled-small)"/>
<rect x="994.375" y="289.6875" width="27.5" height="20.625" rx="3" ry="3" stroke-width="1" stroke="black" fill="white"/>
<text x="1008.125" y="300" text-anchor="middle" dominant-baseline="central"><tspan stroke="dimgray" stroke-width="0.5" font-family="sans-serif" fill="black" textLength="{this.width * 5 - 24}" > HB</tspan></text>

<!-- renderSideComponent: foot -->


<!-- renderPart: cylinder -->
<path d="M1031.875 280 L1036.875 280 L1036.875 320 L1031.875 320 Z" stroke-width="0.5" stroke="black" stroke-linejoin="round" fill="white" fill-opacity="1"/>


<!-- renderPart: cylinder -->
<path d="M1036.875 280 L1043.125 280 L1043.125 320 L1036.875 320 Z" stroke-width="0.5" stroke="black" stroke-linejoin="round" fill="white" fill-opacity="1"/>


<!-- renderPart: cylinder -->
<path d="M1043.125 280 L1049.375 280 L1049.375 320 L1043.125 320 Z" stroke-width="0.5" stroke="black" stroke-linejoin="round" fill="white" fill-opacity="1"/>


<!-- renderSideComponent: cap -->


<!-- renderPart: cylinder -->
<path d="M1049.375 286.25 L1079.375 286.25 L1079.375 313.75 L1049.375 313.75 Z" stroke-width="0.5" stroke="black" stroke-linejoin="round" fill="white" fill-opacity="1"/>


<!-- renderPart: cylinder -->
<path d="M1079.375 287.5 L1083.125 287.5 L1083.125 312.5 L1079.375 312.5 Z" stroke-width="0.5" stroke="black" stroke-linejoin="round" fill="white" fill-opacity="1"/>


<!-- renderPart: cylinder -->
<path d="M1083.125 286.25 L1090.625 286.25 L1090.625 313.75 L1083.125 313.75 Z" stroke-width="0.5" stroke="black" stroke-linejoin="round" fill="white" fill-opacity="1"/>


<!-- renderPart: cylinder -->
<path d="M1090.625 287.5 L1094.375 287.5 L1094.375 312.5 L1090.625 312.5 Z" stroke-width="0.5" stroke="black" stroke-linejoin="round" fill="white" fill-opacity="1"/>


<!-- renderPart: cylinder -->
<path d="M1094.375 286.25 L1101.875 286.25 L1101.875 313.75 L1094.375 313.75 Z" stroke-width="0.5" stroke="black" stroke-linejoin="round" fill="white" fill-opacity="1"/>


<!-- renderPart: cylinder -->
<path d="M1101.875 287.5 L1105.625 287.5 L1105.625 312.5 L1101.875 312.5 Z" stroke-width="0.5" stroke="black" stroke-linejoin="round" fill="white" fill-opacity="1"/>


<!-- renderPart: cylinder -->
<path d="M1105.625 286.25 L1114.375 286.25 L1114.375 313.75 L1105.625 313.75 Z" stroke-width="0.5" stroke="black" stroke-linejoin="round" fill="white" fill-opacity="1"/>

<!-- FRONT COMPONENT: cap -->
<circle r="13.75" cx="160" cy="300" fill="white" fill-opacity="1" stroke="black" stroke-width="0.5"  />
<circle r="12.5" cx="160" cy="300" fill="white" fill-opacity="1" stroke="black" stroke-width="0.5"  />
<circle r="13.75" cx="160" cy="300" fill="white" fill-opacity="1" stroke="black" stroke-width="0.5"  />
<circle r="12.5" cx="160" cy="300" fill="white" fill-opacity="1" stroke="black" stroke-width="0.5"  />
<circle r="13.75" cx="160" cy="300" fill="white" fill-opacity="1" stroke="black" stroke-width="0.5"  />
<circle r="12.5" cx="160" cy="300" fill="white" fill-opacity="1" stroke="black" stroke-width="0.5"  />
<circle r="13.75" cx="160" cy="300" fill="white" fill-opacity="1" stroke="black" stroke-width="0.5"  />

<!-- FRONT COMPONENT: foot -->
<circle r="20" cx="160" cy="300" fill="white" fill-opacity="1" stroke="black" stroke-width="0.5"  />
<circle r="20" cx="160" cy="300" fill="white" fill-opacity="1" stroke="black" stroke-width="0.5"  />
<circle r="20" cx="160" cy="300" fill="white" fill-opacity="1" stroke="black" stroke-width="0.5"  />

<!-- FRONT COMPONENT: indicator -->
<circle r="20.625" cx="160" cy="300" fill="white" fill-opacity="1" stroke="black" stroke-width="0.5"  />

<!-- FRONT COMPONENT: tail -->
<circle r="20" cx="160" cy="300" fill="white" fill-opacity="1" stroke="black" stroke-width="0.5"  />

<!-- FRONT COMPONENT: clip -->
<circle r="23.125" cx="160" cy="300" fill="white" fill-opacity="1" stroke="black" stroke-width="0.5"  />
<!-- WxH 4.5 2.75 --><rect x="148.75" y="264.625" width="22.5" height="13.75" rx="0" ry="0" stroke-width="1.0" stroke="dimgray" fill="white"/>
<rect x="148.75" y="264.625" width="22.5" height="13.75" rx="0" ry="0" stroke-width="1.0" stroke="dimgray" fill="none"/>
<!-- WxH 4.5 0.6 --><rect x="148.75" y="275.375" width="22.5" height="3" rx="0" ry="0" stroke-width="1.0" stroke="dimgray" fill="white"/>
<rect x="148.75" y="275.375" width="22.5" height="3" rx="0" ry="0" stroke-width="1.0" stroke="dimgray" fill="none"/>
<!-- WxH 4.5 0.6 --><rect x="148.75" y="275.375" width="22.5" height="3" rx="0" ry="0" stroke-width="1.0" stroke="dimgray" fill="white"/>
<rect x="148.75" y="275.375" width="22.5" height="3" rx="0" ry="0" stroke-width="1.0" stroke="dimgray" fill="none"/>

<!-- FRONT COMPONENT: body -->
<polygon points="148.4529946162075,280 171.5470053837925,280 183.09401076758502,300 171.5470053837925,320 148.4529946162075,320 136.90598923241498,300 " stroke="black" stroke-width="0.5" fill="white" fill-opacity="1"/>

<!-- FRONT COMPONENT: shaft -->

<!-- FRONT COMPONENT: grip -->
<circle r="20.625" cx="160" cy="300" fill="white" fill-opacity="1" stroke="black" stroke-width="0.5"  />

<!-- FRONT COMPONENT: tip -->
<circle r="12.5" cx="160" cy="300" stroke="black" stroke-width="0.5" fill="white" fill-opacity="1"/>
<circle r="18.75" cx="160" cy="300" stroke="black" stroke-width="0.5" fill="white" fill-opacity="1"/>
<circle r="8.125" cx="160" cy="300" stroke="black" stroke-width="0.5" fill="white" fill-opacity="1"/>
<circle r="10" cx="160" cy="300" stroke="black" stroke-width="0.5" fill="white" fill-opacity="1"/>
<circle r="5" cx="160" cy="300" fill="white" fill-opacity="1" stroke="dimgray" stroke-width="0.5"  />
<circle r="8.125" cx="1400" cy="300" stroke="black" stroke-width="0.5" fill="white" fill-opacity="1"/>
<circle r="10" cx="1400" cy="300" stroke="black" stroke-width="0.5" fill="white" fill-opacity="1"/>
<circle r="12.5" cx="1400" cy="300" stroke="black" stroke-width="0.5" fill="white" fill-opacity="1"/>
<circle r="18.75" cx="1400" cy="300" stroke="black" stroke-width="0.5" fill="white" fill-opacity="1"/>
<circle r="20.625" cx="1400" cy="300" fill="white" fill-opacity="1" stroke="black" stroke-width="0.5"  />
<polygon points="1388.4529946162074,280 1411.5470053837926,280 1423.0940107675851,300 1411.5470053837926,320 1388.4529946162074,320 1376.9059892324149,300 " stroke="black" stroke-width="0.5" fill="white" fill-opacity="1"/>
<circle r="23.125" cx="1400" cy="300" fill="white" fill-opacity="1" stroke="black" stroke-width="0.5"  />
<!-- WxH 4.5 0.6 --><rect x="1388.75" y="275.375" width="22.5" height="3" rx="0" ry="0" stroke-width="1.0" stroke="dimgray" fill="white"/>
<rect x="1388.75" y="275.375" width="22.5" height="3" rx="0" ry="0" stroke-width="1.0" stroke="dimgray" fill="none"/>
<!-- WxH 4.5 0.6 --><rect x="1388.75" y="275.375" width="22.5" height="3" rx="0" ry="0" stroke-width="1.0" stroke="dimgray" fill="white"/>
<rect x="1388.75" y="275.375" width="22.5" height="3" rx="0" ry="0" stroke-width="1.0" stroke="dimgray" fill="none"/>
<!-- WxH 4.5 2.75 --><rect x="1388.75" y="264.625" width="22.5" height="13.75" rx="0" ry="0" stroke-width="1.0" stroke="dimgray" fill="white"/>
<rect x="1388.75" y="264.625" width="22.5" height="13.75" rx="0" ry="0" stroke-width="1.0" stroke="dimgray" fill="none"/>
<circle r="20" cx="1400" cy="300" fill="white" fill-opacity="1" stroke="black" stroke-width="0.5"  />
<circle r="20.625" cx="1400" cy="300" fill="white" fill-opacity="1" stroke="black" stroke-width="0.5"  />
<circle r="20" cx="1400" cy="300" fill="white" fill-opacity="1" stroke="black" stroke-width="0.5"  />
<circle r="20" cx="1400" cy="300" fill="white" fill-opacity="1" stroke="black" stroke-width="0.5"  />
<circle r="20" cx="1400" cy="300" fill="white" fill-opacity="1" stroke="black" stroke-width="0.5"  />
<circle r="13.75" cx="1400" cy="300" fill="white" fill-opacity="1" stroke="black" stroke-width="0.5"  />
<circle r="12.5" cx="1400" cy="300" fill="white" fill-opacity="1" stroke="black" stroke-width="0.5"  />
<circle r="13.75" cx="1400" cy="300" fill="white" fill-opacity="1" stroke="black" stroke-width="0.5"  />
<circle r="12.5" cx="1400" cy="300" fill="white" fill-opacity="1" stroke="black" stroke-width="0.5"  />
<circle r="13.75" cx="1400" cy="300" fill="white" fill-opacity="1" stroke="black" stroke-width="0.5"  />
<circle r="12.5" cx="1400" cy="300" fill="white" fill-opacity="1" stroke="black" stroke-width="0.5"  />
<circle r="13.75" cx="1400" cy="300" fill="white" fill-opacity="1" stroke="black" stroke-width="0.5"  />
<circle r="5" cx="1400" cy="300" fill="white" fill-opacity="1" stroke="dimgray" stroke-width="1"  />
</g><text x="50%" y="580" font-size="1.1em" font-weight="bold" text-anchor="middle" dominant-baseline="middle">Copyright (c) // The Mechanical Pencil Database (tmpdb) // Licensed under Creative Commons Attribution-NonCommercial-ShareAlike 4.0 International</text>
<text x="1490" y="590" font-size="0.5em" font-weight="bold" text-anchor="end" dominant-baseline="middle">SVGTechnicalRenderer</text>
</svg>