<svg xmlns="http://www.w3.org/2000/svg" width="1200" height="600">
 <pattern id="knurled-large" patternUnits="userSpaceOnUse" width="12" height="12">
<path stroke="dimgray" stroke-linecap="round" stroke-width="1" d="M 6,6 L 12,12"/>
<path stroke="dimgray" stroke-linecap="round" stroke-width="1" d="M 6,6 L 0,12"/>
<path stroke="gray" stroke-linecap="round" stroke-width="1" d="M 6,6 L 12,0" />
<path stroke="gray" stroke-linecap="round" stroke-width="1" d="M 6,6 L 0,0" />
</pattern><pattern id="knurled-small" patternUnits="userSpaceOnUse" width="4" height="4">
<path stroke="dimgray" stroke-linecap="round" stroke-width="1" d="M 2,2 L 4,4"/>
<path stroke="dimgray" stroke-linecap="round" stroke-width="1" d="M 2,2 L 0,4"/>
<path stroke="gray" stroke-linecap="round" stroke-width="1" d="M 2,2 L 4,0" />
<path stroke="gray" stroke-linecap="round" stroke-width="1" d="M 2,2 L 0,0" />
</pattern><pattern id="knurled" patternUnits="userSpaceOnUse" width="8" height="8">
<path stroke="dimgray" stroke-linecap="round" stroke-width="1" d="M 4,4 L 8,8"/>
<path stroke="dimgray" stroke-linecap="round" stroke-width="1" d="M 4,4 L 0,8"/>
<path stroke="gray" stroke-linecap="round" stroke-width="1" d="M 4,4 L 8,0" />
<path stroke="gray" stroke-linecap="round" stroke-width="1" d="M 4,4 L 0,0" />
</pattern><pattern id="lined" patternUnits="userSpaceOnUse" width="3" height="3">
<path stroke="dimgray" stroke-linecap="round" stroke-width="1" d="M 0,0 L 3,0"/>
</pattern><pattern id="ridged" patternUnits="userSpaceOnUse" width="3" height="3">
<path stroke="dimgray" stroke-linecap="round" stroke-width="1" d="M 0,0 L 0,3"/>
</pattern><pattern id="spring" patternUnits="userSpaceOnUse" width="8" height="100">
<path stroke="dimgray" stroke-linecap="round" stroke-width="2" d="M 1,1 L 9,99"/>
<path stroke="white" stroke-linecap="round" stroke-width="1" d="M 1,1 L 9,99"/>
</pattern><pattern id="knurled" patternUnits="userSpaceOnUse" width="8" height="8">
<path stroke="dimgray" stroke-linecap="round" stroke-width="1" d="M 4,4 L 8,8"/>
<path stroke="dimgray" stroke-linecap="round" stroke-width="1" d="M 4,4 L 0,8"/>
<path stroke="gray" stroke-linecap="round" stroke-width="1" d="M 4,4 L 8,0" />
<path stroke="gray" stroke-linecap="round" stroke-width="1" d="M 4,4 L 0,0" />
</pattern><rect x="0" y="0" width="1200" height="600" fill="white" stroke="black" stroke-width="4" />
<rect x="2" y="2" width="1196" height="596" fill="white" stroke="dimgray" stroke-width="1" />
<g transform="rotate(0 0 0)">
<text x="30" y="50" font-size="2.0em" font-weight="bold"> Küelox // 3308 (Model #: 3308)</text>


<!-- renderExplodedSideComponents -->


<!-- renderSideComponent: jaws -->


<!-- renderPart: cone -->
<path d="M228.75 111.875 L240 110 L240 130 L228.75 128.125 Z" stroke-width="0.5" stroke="black" stroke-linejoin="round" fill="white" fill-opacity="1"/>


<!-- renderPart: cylinder -->
<path d="M240 110 L321.3 110 L321.3 130 L240 130 Z" stroke-width="0.5" stroke="black" stroke-linejoin="round" fill="white" fill-opacity="1"/>


<!-- renderPart: cylinder -->
<path d="M321.3 110 L452.55 110 L452.55 130 L321.3 130 Z" stroke-width="0.5" stroke="black" stroke-linejoin="round" fill="white" fill-opacity="1"/>
<path d="M321.3 110 L452.55 110 L452.55 130 L321.3 130 Z" stroke-width="1.0" stroke="black" fill="url(#spring)"/>
<rect x="326.3" y="105" width="121.25" height="30" stroke-width="0.0" stroke="black" fill="url(#spring)"/>
<line x1="321.8" y1="105" x2="321.8" y2="135" stroke="dimgray" stroke-linecap="round" stroke-width="2" />
<line x1="321.8" y1="105" x2="321.8" y2="135" stroke="white" stroke-linecap="round" stroke-width="1" />
<line x1="452.05" y1="105" x2="452.05" y2="135" stroke="dimgray" stroke-linecap="round" stroke-width="2" />
<line x1="452.05" y1="105" x2="452.05" y2="135" stroke="white" stroke-linecap="round" stroke-width="1" />
<line x1="323.8" y1="105" x2="323.8" y2="135" stroke="dimgray" stroke-linecap="round" stroke-width="2" />
<line x1="323.8" y1="105" x2="323.8" y2="135" stroke="white" stroke-linecap="round" stroke-width="1" />
<line x1="450.05" y1="105" x2="450.05" y2="135" stroke="dimgray" stroke-linecap="round" stroke-width="2" />
<line x1="450.05" y1="105" x2="450.05" y2="135" stroke="white" stroke-linecap="round" stroke-width="1" />
<line x1="325.8" y1="105" x2="325.8" y2="135" stroke="dimgray" stroke-linecap="round" stroke-width="2" />
<line x1="325.8" y1="105" x2="325.8" y2="135" stroke="white" stroke-linecap="round" stroke-width="1" />
<line x1="448.05" y1="105" x2="448.05" y2="135" stroke="dimgray" stroke-linecap="round" stroke-width="2" />
<line x1="448.05" y1="105" x2="448.05" y2="135" stroke="white" stroke-linecap="round" stroke-width="1" />
<line x1="327.8" y1="105" x2="327.8" y2="135" stroke="dimgray" stroke-linecap="round" stroke-width="2" />
<line x1="327.8" y1="105" x2="327.8" y2="135" stroke="white" stroke-linecap="round" stroke-width="1" />
<line x1="446.05" y1="105" x2="446.05" y2="135" stroke="dimgray" stroke-linecap="round" stroke-width="2" />
<line x1="446.05" y1="105" x2="446.05" y2="135" stroke="white" stroke-linecap="round" stroke-width="1" />


<!-- renderPart: cylinder -->
<path d="M452.55 106.25 L456.3 106.25 L456.3 133.75 L452.55 133.75 Z" stroke-width="0.5" stroke="black" stroke-linejoin="round" fill="white" fill-opacity="1"/>


<!-- renderPart: cylinder -->
<path d="M456.3 110 L923.8 110 L923.8 130 L456.3 130 Z" stroke-width="0.5" stroke="black" stroke-linejoin="round" fill="white" fill-opacity="1"/>
<line x1="240" y1="120" x2="963.8" y2="120" stroke-linecap="round" stroke="blue"  stroke-width="2" />
<line x1="963.8" y1="120" x2="963.8" y2="180" stroke="blue" stroke-linecap="round"  stroke-width="2" />
<line x1="200" y1="240" x2="240" y2="240" stroke-linecap="round" stroke="red"  stroke-width="2" />
<line x1="200" y1="240" x2="200" y2="180" stroke="red" stroke-linecap="round"  stroke-width="2" />


<!-- renderSideComponent: tip -->


<!-- renderPart: cone -->
<path d="M240 226.875 L308.75 219.375 L308.75 260.625 L240 253.125 Z" stroke-width="0.5" stroke="black" stroke-linejoin="round" fill="white" fill-opacity="1"/>


<!-- renderSideComponent: grip -->


<!-- renderPart: cylinder -->
<path d="M308.75 219.375 L456.25 219.375 L456.25 260.625 L308.75 260.625 Z" stroke-width="0.5" stroke="black" stroke-linejoin="round" fill="white" fill-opacity="1"/>
<path d="M308.75 219.375 L456.25 219.375 L456.25 260.625 L308.75 260.625 Z" stroke-width="1.0" stroke="black" fill="url(#knurled)"/>
<line x1="456.25" y1="240" x2="496.25" y2="240" stroke-linecap="round" stroke="orange"  stroke-width="2" />
<line x1="496.25" y1="240" x2="496.25" y2="300" stroke="orange" stroke-linecap="round"  stroke-width="2" />


<!-- renderPart: cylinder -->
<path d="M427.5 343.75 L456.25 343.75 L456.25 376.25 L427.5 376.25 Z" stroke-width="0.5" stroke="black" stroke-linejoin="round" fill="white" fill-opacity="1"/>
<path d="M427.5 343.75 L456.25 343.75 L456.25 376.25 L427.5 376.25 Z" stroke-width="1.0" stroke="black" fill="url(#threaded)"/>
<line x1="427.5" y1="341.75" x2="432.5" y2="378.25" stroke="dimgray" stroke-linecap="round" stroke-width="2" />
<line x1="427.5" y1="341.75" x2="432.5" y2="378.25" stroke="[object Object]" stroke-linecap="round" stroke-width="1" />
<line x1="432.5" y1="341.75" x2="437.5" y2="378.25" stroke="dimgray" stroke-linecap="round" stroke-width="2" />
<line x1="432.5" y1="341.75" x2="437.5" y2="378.25" stroke="[object Object]" stroke-linecap="round" stroke-width="1" />
<line x1="437.5" y1="341.75" x2="442.5" y2="378.25" stroke="dimgray" stroke-linecap="round" stroke-width="2" />
<line x1="437.5" y1="341.75" x2="442.5" y2="378.25" stroke="[object Object]" stroke-linecap="round" stroke-width="1" />
<line x1="442.5" y1="341.75" x2="447.5" y2="378.25" stroke="dimgray" stroke-linecap="round" stroke-width="2" />
<line x1="442.5" y1="341.75" x2="447.5" y2="378.25" stroke="[object Object]" stroke-linecap="round" stroke-width="1" />
<line x1="447.5" y1="341.75" x2="452.5" y2="378.25" stroke="dimgray" stroke-linecap="round" stroke-width="2" />
<line x1="447.5" y1="341.75" x2="452.5" y2="378.25" stroke="[object Object]" stroke-linecap="round" stroke-width="1" />
<line x1="456.25" y1="360" x2="387.5" y2="360" stroke-linecap="round" stroke="green"  stroke-width="2" />
<line x1="387.5" y1="360" x2="387.5" y2="300" stroke="green" stroke-linecap="round"  stroke-width="2" />


<!-- renderSideComponent: body -->


<!-- renderPart: hexagonal -->
<path d="M456.25 340 L793.75 340 L793.75 380 L456.25 380 Z" stroke-width="0.5" stroke="black" stroke-linejoin="round" fill="white" fill-opacity="1"/>
<line x1="456.25" y1="360" x2="793.75" y2="360" stroke-width="1.5" stroke="gray" fill="gray" stroke-opacity="1.0"/>
<line x1="456.25" y1="360" x2="793.75" y2="360" stroke-width="0.5" stroke="black" fill="none" stroke-opacity="0.5"/>


<!-- renderSideComponent: clip -->
<path d="M638.5 325.875 Q661.25 349.375 671.25 325.875 Z" stroke-width="4" stroke="black" fill="dimgray" stroke-linecap="round" />
<line x1="636.25" y1="324.375" x2="818.75" y2="324.375" stroke-width="4" stroke="black" fill="dimgray" stroke-linecap="round" />
<path d="M818.75 324.375 Q838.75 331.875 818.75 338.125" stroke-width="4" stroke="black" fill="none" stroke-linecap="round" />


<!-- renderPart: cylinder -->
<path d="M793.75 337.5 L821.25 337.5 L821.25 382.5 L793.75 382.5 Z" stroke-width="0.5" stroke="black" stroke-linejoin="round" fill="white" fill-opacity="1"/>
<path d="M638.5 325.875 Q661.25 348.375 671.25 325.875 Z" stroke-width="3" stroke="white" fill="white" stroke-linecap="round" />
<line x1="636.25" y1="324.375" x2="818.75" y2="324.375" stroke-width="3" stroke="white" fill="white" stroke-linecap="round" />
<path d="M818.75 324.375 Q838.75 331.875 818.75 338.125" stroke-width="3" stroke="white" fill="none" stroke-linecap="round" />


<!-- renderSideComponent: tail -->


<!-- renderPart: cylinder -->
<path d="M821.25 340 L841.25 340 L841.25 380 L821.25 380 Z" stroke-width="0.5" stroke="black" stroke-linejoin="round" fill="white" fill-opacity="1"/>


<!-- renderSideComponent: indicator -->


<!-- renderPart: cylinder -->
<path d="M841.25 339.375 L888.75 339.375 L888.75 380.625 L841.25 380.625 Z" stroke-width="0.5" stroke="black" stroke-linejoin="round" fill="white" fill-opacity="1"/>
<path d="M841.25 339.375 L888.75 339.375 L888.75 380.625 L841.25 380.625 Z" stroke-width="1.0" stroke="black" fill="url(#knurled)"/>
<rect x="851.25" y="349.6875" width="27.5" height="20.625" rx="3" ry="3" stroke-width="1" stroke="black" fill="white"/>
<text x="865" y="360" text-anchor="middle" dominant-baseline="central"><tspan stroke="dimgray" stroke-width="0.5" font-family="sans-serif" fill="black" textLength="{this.width * 5 - 24}" > HB</tspan></text>

<!-- renderSideComponent: foot -->


<!-- renderPart: cylinder -->
<path d="M888.75 340 L893.75 340 L893.75 380 L888.75 380 Z" stroke-width="0.5" stroke="black" stroke-linejoin="round" fill="white" fill-opacity="1"/>


<!-- renderPart: cylinder -->
<path d="M893.75 340 L900 340 L900 380 L893.75 380 Z" stroke-width="0.5" stroke="black" stroke-linejoin="round" fill="white" fill-opacity="1"/>


<!-- renderPart: cylinder -->
<path d="M900 340 L906.25 340 L906.25 380 L900 380 Z" stroke-width="0.5" stroke="black" stroke-linejoin="round" fill="white" fill-opacity="1"/>
<line x1="906.25" y1="360" x2="946.25" y2="360" stroke-linecap="round" stroke="orange"  stroke-width="2" />
<line x1="946.25" y1="360" x2="946.25" y2="420" stroke="orange" stroke-linecap="round"  stroke-width="2" />


<!-- renderPart: cylinder -->
<path d="M805 466.25 L877.5 466.25 L877.5 493.75 L805 493.75 Z" stroke-width="0.5" stroke="black" stroke-linejoin="round" fill="white" fill-opacity="1"/>


<!-- renderPart: cylinder -->
<path d="M877.5 466.25 L906.25 466.25 L906.25 493.75 L877.5 493.75 Z" stroke-width="0.5" stroke="black" stroke-linejoin="round" fill="white" fill-opacity="1"/>
<line x1="906.25" y1="480" x2="765" y2="480" stroke-linecap="round" stroke="green"  stroke-width="2" />
<line x1="765" y1="480" x2="765" y2="420" stroke="green" stroke-linecap="round"  stroke-width="2" />


<!-- renderSideComponent: cap -->


<!-- renderPart: cylinder -->
<path d="M906.25 466.25 L936.25 466.25 L936.25 493.75 L906.25 493.75 Z" stroke-width="0.5" stroke="black" stroke-linejoin="round" fill="white" fill-opacity="1"/>


<!-- renderPart: cylinder -->
<path d="M936.25 467.5 L940 467.5 L940 492.5 L936.25 492.5 Z" stroke-width="0.5" stroke="black" stroke-linejoin="round" fill="white" fill-opacity="1"/>


<!-- renderPart: cylinder -->
<path d="M940 466.25 L947.5 466.25 L947.5 493.75 L940 493.75 Z" stroke-width="0.5" stroke="black" stroke-linejoin="round" fill="white" fill-opacity="1"/>


<!-- renderPart: cylinder -->
<path d="M947.5 467.5 L951.25 467.5 L951.25 492.5 L947.5 492.5 Z" stroke-width="0.5" stroke="black" stroke-linejoin="round" fill="white" fill-opacity="1"/>


<!-- renderPart: cylinder -->
<path d="M951.25 466.25 L958.75 466.25 L958.75 493.75 L951.25 493.75 Z" stroke-width="0.5" stroke="black" stroke-linejoin="round" fill="white" fill-opacity="1"/>


<!-- renderPart: cylinder -->
<path d="M958.75 467.5 L962.5 467.5 L962.5 492.5 L958.75 492.5 Z" stroke-width="0.5" stroke="black" stroke-linejoin="round" fill="white" fill-opacity="1"/>


<!-- renderPart: cylinder -->
<path d="M962.5 466.25 L971.25 466.25 L971.25 493.75 L962.5 493.75 Z" stroke-width="0.5" stroke="black" stroke-linejoin="round" fill="white" fill-opacity="1"/>


<!-- DASHED JOIN -->
<path d="M 240 120 L 963.8 120 L 963.8 180 L 200 180 L 200 240 L 240 240 " fill="none" stroke="white" stroke-width="1" stroke-linecap="round"  />
<path d="M 240 120 L 963.8 120 L 963.8 180 L 200 180 L 200 240 L 240 240 " fill="none" stroke="black" stroke-width="1" stroke-dasharray="8,4" stroke-linecap="round"  />


<!-- ARROW START -->
<line x1="245" y1="120" x2="252" y2="120" stroke-linecap="round" stroke="#ffffff" stroke-width="2.0" />
<line x1="245" y1="120" x2="259" y2="112" stroke-linecap="round" stroke="#ffffff" stroke-width="2.0" />
<line x1="259" y1="112" x2="252" y2="120" stroke-linecap="round" stroke="#ffffff" stroke-width="2.0" />
<line x1="245" y1="120" x2="259" y2="128" stroke-linecap="round" stroke="#ffffff" stroke-width="2.0" />
<line x1="259" y1="128" x2="252" y2="120" stroke-linecap="round" stroke="#ffffff" stroke-width="2.0" />
<line x1="245" y1="120" x2="259" y2="112" stroke-linecap="round" stroke="#0f0f0f" stroke-width="1.0" />
<line x1="259" y1="112" x2="252" y2="120" stroke-linecap="round" stroke="#0f0f0f" stroke-width="1.0" />
<line x1="245" y1="120" x2="259" y2="128" stroke-linecap="round" stroke="#0f0f0f" stroke-width="1.0" />
<line x1="259" y1="128" x2="252" y2="120" stroke-linecap="round" stroke="#0f0f0f" stroke-width="1.0" />


<!-- ARROW START -->
<line x1="220" y1="240" x2="227" y2="240" stroke-linecap="round" stroke="#ffffff" stroke-width="2.0" />
<line x1="220" y1="240" x2="234" y2="232" stroke-linecap="round" stroke="#ffffff" stroke-width="2.0" />
<line x1="234" y1="232" x2="227" y2="240" stroke-linecap="round" stroke="#ffffff" stroke-width="2.0" />
<line x1="220" y1="240" x2="234" y2="248" stroke-linecap="round" stroke="#ffffff" stroke-width="2.0" />
<line x1="234" y1="248" x2="227" y2="240" stroke-linecap="round" stroke="#ffffff" stroke-width="2.0" />
<line x1="220" y1="240" x2="234" y2="232" stroke-linecap="round" stroke="#0f0f0f" stroke-width="1.0" />
<line x1="234" y1="232" x2="227" y2="240" stroke-linecap="round" stroke="#0f0f0f" stroke-width="1.0" />
<line x1="220" y1="240" x2="234" y2="248" stroke-linecap="round" stroke="#0f0f0f" stroke-width="1.0" />
<line x1="234" y1="248" x2="227" y2="240" stroke-linecap="round" stroke="#0f0f0f" stroke-width="1.0" />


<!-- DASHED JOIN -->
<path d="M 456.25 240 L 496.25 240 L 496.25 300 L 387.5 300 L 387.5 360 L 456.25 360 " fill="none" stroke="white" stroke-width="1" stroke-linecap="round"  />
<path d="M 456.25 240 L 496.25 240 L 496.25 300 L 387.5 300 L 387.5 360 L 456.25 360 " fill="none" stroke="black" stroke-width="1" stroke-dasharray="8,4" stroke-linecap="round"  />


<!-- ARROW START -->
<line x1="461.25" y1="240" x2="468.25" y2="240" stroke-linecap="round" stroke="#ffffff" stroke-width="2.0" />
<line x1="461.25" y1="240" x2="475.25" y2="232" stroke-linecap="round" stroke="#ffffff" stroke-width="2.0" />
<line x1="475.25" y1="232" x2="468.25" y2="240" stroke-linecap="round" stroke="#ffffff" stroke-width="2.0" />
<line x1="461.25" y1="240" x2="475.25" y2="248" stroke-linecap="round" stroke="#ffffff" stroke-width="2.0" />
<line x1="475.25" y1="248" x2="468.25" y2="240" stroke-linecap="round" stroke="#ffffff" stroke-width="2.0" />
<line x1="461.25" y1="240" x2="475.25" y2="232" stroke-linecap="round" stroke="#0f0f0f" stroke-width="1.0" />
<line x1="475.25" y1="232" x2="468.25" y2="240" stroke-linecap="round" stroke="#0f0f0f" stroke-width="1.0" />
<line x1="461.25" y1="240" x2="475.25" y2="248" stroke-linecap="round" stroke="#0f0f0f" stroke-width="1.0" />
<line x1="475.25" y1="248" x2="468.25" y2="240" stroke-linecap="round" stroke="#0f0f0f" stroke-width="1.0" />


<!-- ARROW START -->
<line x1="407.5" y1="360" x2="414.5" y2="360" stroke-linecap="round" stroke="#ffffff" stroke-width="2.0" />
<line x1="407.5" y1="360" x2="421.5" y2="352" stroke-linecap="round" stroke="#ffffff" stroke-width="2.0" />
<line x1="421.5" y1="352" x2="414.5" y2="360" stroke-linecap="round" stroke="#ffffff" stroke-width="2.0" />
<line x1="407.5" y1="360" x2="421.5" y2="368" stroke-linecap="round" stroke="#ffffff" stroke-width="2.0" />
<line x1="421.5" y1="368" x2="414.5" y2="360" stroke-linecap="round" stroke="#ffffff" stroke-width="2.0" />
<line x1="407.5" y1="360" x2="421.5" y2="352" stroke-linecap="round" stroke="#0f0f0f" stroke-width="1.0" />
<line x1="421.5" y1="352" x2="414.5" y2="360" stroke-linecap="round" stroke="#0f0f0f" stroke-width="1.0" />
<line x1="407.5" y1="360" x2="421.5" y2="368" stroke-linecap="round" stroke="#0f0f0f" stroke-width="1.0" />
<line x1="421.5" y1="368" x2="414.5" y2="360" stroke-linecap="round" stroke="#0f0f0f" stroke-width="1.0" />
<line x1="456.25" y1="320" x2="456.25" y2="400" stroke="white" stroke-linecap="round"  stroke-width="1" />
<line x1="456.25" y1="320" x2="456.25" y2="400" stroke="dimgray" stroke-linecap="round" stroke-dasharray="3,3" stroke-width="1" />


<!-- DASHED JOIN -->
<path d="M 906.25 360 L 946.25 360 L 946.25 420 L 765 420 L 765 480 L 906.25 480 " fill="none" stroke="white" stroke-width="1" stroke-linecap="round"  />
<path d="M 906.25 360 L 946.25 360 L 946.25 420 L 765 420 L 765 480 L 906.25 480 " fill="none" stroke="black" stroke-width="1" stroke-dasharray="8,4" stroke-linecap="round"  />


<!-- ARROW START -->
<line x1="911.25" y1="360" x2="918.25" y2="360" stroke-linecap="round" stroke="#ffffff" stroke-width="2.0" />
<line x1="911.25" y1="360" x2="925.25" y2="352" stroke-linecap="round" stroke="#ffffff" stroke-width="2.0" />
<line x1="925.25" y1="352" x2="918.25" y2="360" stroke-linecap="round" stroke="#ffffff" stroke-width="2.0" />
<line x1="911.25" y1="360" x2="925.25" y2="368" stroke-linecap="round" stroke="#ffffff" stroke-width="2.0" />
<line x1="925.25" y1="368" x2="918.25" y2="360" stroke-linecap="round" stroke="#ffffff" stroke-width="2.0" />
<line x1="911.25" y1="360" x2="925.25" y2="352" stroke-linecap="round" stroke="#0f0f0f" stroke-width="1.0" />
<line x1="925.25" y1="352" x2="918.25" y2="360" stroke-linecap="round" stroke="#0f0f0f" stroke-width="1.0" />
<line x1="911.25" y1="360" x2="925.25" y2="368" stroke-linecap="round" stroke="#0f0f0f" stroke-width="1.0" />
<line x1="925.25" y1="368" x2="918.25" y2="360" stroke-linecap="round" stroke="#0f0f0f" stroke-width="1.0" />


<!-- ARROW START -->
<line x1="785" y1="480" x2="792" y2="480" stroke-linecap="round" stroke="#ffffff" stroke-width="2.0" />
<line x1="785" y1="480" x2="799" y2="472" stroke-linecap="round" stroke="#ffffff" stroke-width="2.0" />
<line x1="799" y1="472" x2="792" y2="480" stroke-linecap="round" stroke="#ffffff" stroke-width="2.0" />
<line x1="785" y1="480" x2="799" y2="488" stroke-linecap="round" stroke="#ffffff" stroke-width="2.0" />
<line x1="799" y1="488" x2="792" y2="480" stroke-linecap="round" stroke="#ffffff" stroke-width="2.0" />
<line x1="785" y1="480" x2="799" y2="472" stroke-linecap="round" stroke="#0f0f0f" stroke-width="1.0" />
<line x1="799" y1="472" x2="792" y2="480" stroke-linecap="round" stroke="#0f0f0f" stroke-width="1.0" />
<line x1="785" y1="480" x2="799" y2="488" stroke-linecap="round" stroke="#0f0f0f" stroke-width="1.0" />
<line x1="799" y1="488" x2="792" y2="480" stroke-linecap="round" stroke="#0f0f0f" stroke-width="1.0" />
<line x1="906.25" y1="440" x2="906.25" y2="520" stroke="white" stroke-linecap="round"  stroke-width="1" />
<line x1="906.25" y1="440" x2="906.25" y2="520" stroke="dimgray" stroke-linecap="round" stroke-dasharray="3,3" stroke-width="1" />
</g><text x="50%" y="560" font-size="1.1em" font-weight="bold" text-anchor="middle" dominant-baseline="middle">Copyright (c) // Synapticloop and The Mechanical Pencil Database (tmpdb)</text>
<text x="50%" y="580" font-size="1.1em" font-weight="bold" text-anchor="middle" dominant-baseline="middle">Licensed under Creative Commons Attribution-NonCommercial-ShareAlike 4.0 International</text>
<text x="1190" y="590" font-size="0.5em" font-weight="bold" text-anchor="end" dominant-baseline="middle">SVGTechnicalExplodedRenderer</text>
</svg>