<svg xmlns="http://www.w3.org/2000/svg" width="1200" height="500">
 <pattern id="knurled-large" patternUnits="userSpaceOnUse" width="12" height="12">
<path stroke="dimgray" stroke-linecap="round" stroke-width="1" d="M 6,6 L 12,12"/>
<path stroke="dimgray" stroke-linecap="round" stroke-width="1" d="M 6,6 L 0,12"/>
<path stroke="gray" stroke-linecap="round" stroke-width="1" d="M 6,6 L 12,0" />
<path stroke="gray" stroke-linecap="round" stroke-width="1" d="M 6,6 L 0,0" />
</pattern><pattern id="knurled-small" patternUnits="userSpaceOnUse" width="4" height="4">
<path stroke="dimgray" stroke-linecap="round" stroke-width="1" d="M 2,2 L 4,4"/>
<path stroke="dimgray" stroke-linecap="round" stroke-width="1" d="M 2,2 L 0,4"/>
<path stroke="gray" stroke-linecap="round" stroke-width="1" d="M 2,2 L 4,0" />
<path stroke="gray" stroke-linecap="round" stroke-width="1" d="M 2,2 L 0,0" />
</pattern><pattern id="knurled" patternUnits="userSpaceOnUse" width="8" height="8">
<path stroke="dimgray" stroke-linecap="round" stroke-width="1" d="M 4,4 L 8,8"/>
<path stroke="dimgray" stroke-linecap="round" stroke-width="1" d="M 4,4 L 0,8"/>
<path stroke="gray" stroke-linecap="round" stroke-width="1" d="M 4,4 L 8,0" />
<path stroke="gray" stroke-linecap="round" stroke-width="1" d="M 4,4 L 0,0" />
</pattern><pattern id="lined" patternUnits="userSpaceOnUse" width="3" height="3">
<path stroke="dimgray" stroke-linecap="round" stroke-width="1" d="M 0,0 L 3,0"/>
</pattern><pattern id="ridged" patternUnits="userSpaceOnUse" width="3" height="3">
<path stroke="dimgray" stroke-linecap="round" stroke-width="1" d="M 0,0 L 0,3"/>
</pattern><pattern id="spring" patternUnits="userSpaceOnUse" width="8" height="60">
<path stroke="dimgray" stroke-linecap="round" stroke-width="2" d="M 1,1 L 8,60"/>
<path stroke="white" stroke-linecap="round" stroke-width="1" d="M 1,1 L 8,60"/>
</pattern><rect x="0" y="0" width="1200" height="500" fill="white" stroke="black" stroke-width="4" />
<rect x="2" y="2" width="1196" height="496" fill="white" stroke="dimgray" stroke-width="1" />
<g transform="rotate(0 0 0)">
<line x1="40" y1="300" x2="1160" y2="300" stroke-linecap="round" stroke="#5f5f5f" stroke-dasharray="2" stroke-width="1" />
<line x1="20" y1="300" x2="60" y2="300" stroke-linecap="round" stroke="#000000"  stroke-width="1" />
<line x1="40" y1="280" x2="40" y2="320" stroke="#000000" stroke-linecap="round"  stroke-width="1" />
<circle r="10" cx="40" cy="300" fill="white" fill-opacity="0" stroke="#000000" stroke-width="1"  />
<line x1="1140" y1="300" x2="1180" y2="300" stroke-linecap="round" stroke="#000000"  stroke-width="1" />
<line x1="1160" y1="280" x2="1160" y2="320" stroke="#000000" stroke-linecap="round"  stroke-width="1" />
<circle r="10" cx="1160" cy="300" fill="white" fill-opacity="0" stroke="#000000" stroke-width="1"  />
<line x1="600" y1="90" x2="600" y2="410" stroke="#5f5f5f" stroke-linecap="round" stroke-dasharray="2" stroke-width="1" />
<line x1="580" y1="90" x2="620" y2="90" stroke-linecap="round" stroke="#000000"  stroke-width="1" />
<line x1="600" y1="70" x2="600" y2="110" stroke="#000000" stroke-linecap="round"  stroke-width="1" />
<circle r="10" cx="600" cy="90" fill="white" fill-opacity="0" stroke="#000000" stroke-width="1"  />
<line x1="580" y1="410" x2="620" y2="410" stroke-linecap="round" stroke="#000000"  stroke-width="1" />
<line x1="600" y1="390" x2="600" y2="430" stroke="#000000" stroke-linecap="round"  stroke-width="1" />
<circle r="10" cx="600" cy="410" fill="white" fill-opacity="0" stroke="#000000" stroke-width="1"  />
<text x="30" y="50" font-size="2.0em" font-weight="bold"> Küelox // 3308 (Model #: 3308)</text>
<line x1="228.75" y1="189.5" x2="228.75" y2="300" stroke="#cfcfcf" stroke-linecap="round"  stroke-width="1" />
<line x1="228.75" y1="180" x2="228.75" y2="300" stroke="#cfcfcf" stroke-linecap="round"  stroke-width="1" />
<line x1="240" y1="180" x2="240" y2="300" stroke="#cfcfcf" stroke-linecap="round"  stroke-width="1" />
<line x1="308.75" y1="180" x2="308.75" y2="300" stroke="#cfcfcf" stroke-linecap="round"  stroke-width="1" />
<line x1="456.25" y1="180" x2="456.25" y2="300" stroke="#cfcfcf" stroke-linecap="round"  stroke-width="1" />
<line x1="793.75" y1="180" x2="793.75" y2="300" stroke="#cfcfcf" stroke-linecap="round"  stroke-width="1" />
<line x1="636.25" y1="220" x2="636.25" y2="300" stroke="#cfcfcf" stroke-linecap="round"  stroke-width="1" />
<line x1="831.25" y1="220" x2="831.25" y2="300" stroke="#cfcfcf" stroke-linecap="round"  stroke-width="1" />
<line x1="821.25" y1="180" x2="821.25" y2="300" stroke="#cfcfcf" stroke-linecap="round"  stroke-width="1" />
<line x1="841.25" y1="180" x2="841.25" y2="300" stroke="#cfcfcf" stroke-linecap="round"  stroke-width="1" />
<line x1="888.75" y1="180" x2="888.75" y2="300" stroke="#cfcfcf" stroke-linecap="round"  stroke-width="1" />
<line x1="906.25" y1="180" x2="906.25" y2="300" stroke="#cfcfcf" stroke-linecap="round"  stroke-width="1" />
<line x1="971.25" y1="189.5" x2="971.25" y2="300" stroke="#cfcfcf" stroke-linecap="round"  stroke-width="1" />
<line x1="228.75" y1="169" x2="228.75" y2="191" stroke="black" stroke-width="1" />
<line x1="228.75" y1="180" x2="240" y2="180" stroke="black" stroke-width="1" />
<line x1="240" y1="169" x2="240" y2="191" stroke="black" stroke-width="1" />
<text x="234.375" y="161" font-size="1.2em" transform="rotate(-90, 234.375, 161)" font-weight="bold" text-anchor="start" dominant-baseline="central" fill="black"><tspan x="234.375" dy="0">2.25 mm jaws</tspan></text>
<line x1="240" y1="169" x2="240" y2="191" stroke="black" stroke-width="1" />
<line x1="240" y1="180" x2="308.75" y2="180" stroke="black" stroke-width="1" />
<line x1="308.75" y1="169" x2="308.75" y2="191" stroke="black" stroke-width="1" />
<text x="274.375" y="161" font-size="1.2em" transform="rotate(-90, 262.375, 161)" font-weight="bold" text-anchor="start" dominant-baseline="central" fill="black"><tspan x="266.375" dy="0">13.75 mm</tspan><tspan x="266.375" dy="1em">tip</tspan></text>
<line x1="308.75" y1="169" x2="308.75" y2="191" stroke="black" stroke-width="1" />
<line x1="308.75" y1="180" x2="456.25" y2="180" stroke="black" stroke-width="1" />
<line x1="456.25" y1="169" x2="456.25" y2="191" stroke="black" stroke-width="1" />
<text x="382.5" y="161" font-size="1.2em" transform="rotate(-90, 370.5, 161)" font-weight="bold" text-anchor="start" dominant-baseline="central" fill="black"><tspan x="374.5" dy="0">29.50 mm</tspan><tspan x="374.5" dy="1em">grip</tspan></text>
<line x1="456.25" y1="169" x2="456.25" y2="191" stroke="black" stroke-width="1" />
<line x1="456.25" y1="180" x2="793.75" y2="180" stroke="black" stroke-width="1" />
<line x1="793.75" y1="169" x2="793.75" y2="191" stroke="black" stroke-width="1" />
<text x="625" y="161" font-size="1.2em" transform="rotate(-90, 613, 161)" font-weight="bold" text-anchor="start" dominant-baseline="central" fill="black"><tspan x="617" dy="0">67.50 mm</tspan><tspan x="617" dy="1em">body</tspan></text>
<line x1="793.75" y1="169" x2="793.75" y2="191" stroke="black" stroke-width="1" />
<line x1="793.75" y1="180" x2="821.25" y2="180" stroke="black" stroke-width="1" />
<line x1="821.25" y1="169" x2="821.25" y2="191" stroke="black" stroke-width="1" />
<text x="807.5" y="161" font-size="1.2em" transform="rotate(-90, 807.5, 161)" font-weight="bold" text-anchor="start" dominant-baseline="central" fill="black"><tspan x="807.5" dy="0">5.50 mm clip</tspan></text>
<line x1="636.25" y1="209" x2="636.25" y2="231" stroke="black" stroke-width="1" />
<line x1="636.25" y1="220" x2="831.25" y2="220" stroke="black" stroke-width="1" />
<line x1="831.25" y1="209" x2="831.25" y2="231" stroke="black" stroke-width="1" />
<text x="733.75" y="212" font-weight="bold" font-size="1.2em" stroke="white" stroke-width="0.25" text-anchor="middle" dominant-baseline="middle" fill="black"><tspan x="725.75" dy="0">39.00 mm</tspan><tspan x="725.75" dy="1em">clip (extra)</tspan></text>
<line x1="821.25" y1="169" x2="821.25" y2="191" stroke="black" stroke-width="1" />
<line x1="821.25" y1="180" x2="841.25" y2="180" stroke="black" stroke-width="1" />
<line x1="841.25" y1="169" x2="841.25" y2="191" stroke="black" stroke-width="1" />
<text x="831.25" y="161" font-size="1.2em" transform="rotate(-90, 831.25, 161)" font-weight="bold" text-anchor="start" dominant-baseline="central" fill="black"><tspan x="831.25" dy="0">4.00 mm tail</tspan></text>
<line x1="841.25" y1="169" x2="841.25" y2="191" stroke="black" stroke-width="1" />
<line x1="841.25" y1="180" x2="888.75" y2="180" stroke="black" stroke-width="1" />
<line x1="888.75" y1="169" x2="888.75" y2="191" stroke="black" stroke-width="1" />
<text x="865" y="161" font-size="1.2em" transform="rotate(-90, 853, 161)" font-weight="bold" text-anchor="start" dominant-baseline="central" fill="black"><tspan x="857" dy="0">9.50 mm</tspan><tspan x="857" dy="1em">indicator</tspan></text>
<line x1="888.75" y1="169" x2="888.75" y2="191" stroke="black" stroke-width="1" />
<line x1="888.75" y1="180" x2="906.25" y2="180" stroke="black" stroke-width="1" />
<line x1="906.25" y1="169" x2="906.25" y2="191" stroke="black" stroke-width="1" />
<text x="897.5" y="161" font-size="1.2em" transform="rotate(-90, 897.5, 161)" font-weight="bold" text-anchor="start" dominant-baseline="central" fill="black"><tspan x="897.5" dy="0">3.50 mm foot</tspan></text>
<line x1="906.25" y1="169" x2="906.25" y2="191" stroke="black" stroke-width="1" />
<line x1="906.25" y1="180" x2="971.25" y2="180" stroke="black" stroke-width="1" />
<line x1="971.25" y1="169" x2="971.25" y2="191" stroke="black" stroke-width="1" />
<text x="938.75" y="161" font-size="1.2em" transform="rotate(-90, 926.75, 161)" font-weight="bold" text-anchor="start" dominant-baseline="central" fill="black"><tspan x="930.75" dy="0">13.00 mm</tspan><tspan x="930.75" dy="1em">cap</tspan></text>


<!-- renderSideComponent: jaws -->


<!-- renderPart: cone -->
<path d="M228.7 291.875 L240.05 290 L240.05 310 L228.7 308.125 Z" stroke-width="0" stroke="none" stroke-linejoin="round" fill="white" fill-opacity="1"/>
<path d="M228.75 291.875 L240 290 M240 310 L228.75 308.125" stroke-width="0.5" stroke="black" stroke-linejoin="round" fill="white" fill-opacity="1"/>
<!-- !right !both --><path d="M240 290 L240 310" stroke-width="0.5" stroke="black" stroke-linejoin="round" fill="white" fill-opacity="1"/>
<!-- !left !both --><path d="M228.75 291.875 L228.75 308.125" stroke-width="0.5" stroke="black" stroke-linejoin="round" fill="white" fill-opacity="1"/>


<!-- renderSideComponent: tip -->


<!-- renderPart: cone -->
<path d="M239.95 286.875 L308.8 279.375 L308.8 320.625 L239.95 313.125 Z" stroke-width="0" stroke="none" stroke-linejoin="round" fill="white" fill-opacity="1"/>
<path d="M240 286.875 L308.75 279.375 M308.75 320.625 L240 313.125" stroke-width="0.5" stroke="black" stroke-linejoin="round" fill="white" fill-opacity="1"/>
<!-- !right !both --><path d="M308.75 279.375 L308.75 320.625" stroke-width="0.5" stroke="black" stroke-linejoin="round" fill="white" fill-opacity="1"/>
<!-- !left !both --><path d="M240 286.875 L240 313.125" stroke-width="0.5" stroke="black" stroke-linejoin="round" fill="white" fill-opacity="1"/>


<!-- renderSideComponent: grip -->


<!-- renderPart: cylinder -->
<path d="M308.7 279.375 L456.3 279.375 L456.3 320.625 L308.7 320.625 Z" stroke-width="0" stroke="none" stroke-linejoin="round" fill="white" fill-opacity="1"/>
<path d="M308.75 279.375 L456.25 279.375 M456.25 320.625 L308.75 320.625" stroke-width="0.5" stroke="black" stroke-linejoin="round" fill="white" fill-opacity="1"/>
<!-- !right !both --><path d="M456.25 279.375 L456.25 320.625" stroke-width="0.5" stroke="black" stroke-linejoin="round" fill="white" fill-opacity="1"/>
<!-- !left !both --><path d="M308.75 279.375 L308.75 320.625" stroke-width="0.5" stroke="black" stroke-linejoin="round" fill="white" fill-opacity="1"/>
<path d="M308.75 279.375 L456.25 279.375 L456.25 320.625 L308.75 320.625 Z" stroke-width="1.0" stroke="black" fill="url(#knurled)"/>


<!-- renderSideComponent: body -->


<!-- renderPart: hexagonal -->
<path d="M456.2 280 L793.8 280 L793.8 320 L456.2 320 Z" stroke-width="0" stroke="none" stroke-linejoin="round" fill="white" fill-opacity="1"/>
<path d="M456.25 280 L793.75 280 M793.75 320 L456.25 320" stroke-width="0.5" stroke="black" stroke-linejoin="round" fill="white" fill-opacity="1"/>
<!-- !right !both --><path d="M793.75 280 L793.75 320" stroke-width="0.5" stroke="black" stroke-linejoin="round" fill="white" fill-opacity="1"/>
<!-- !left !both --><path d="M456.25 280 L456.25 320" stroke-width="0.5" stroke="black" stroke-linejoin="round" fill="white" fill-opacity="1"/>
<line x1="456.25" y1="300" x2="793.75" y2="300" stroke-width="1.5" stroke="gray" fill="gray" stroke-opacity="1.0"/>
<line x1="456.25" y1="300" x2="793.75" y2="300" stroke-width="0.5" stroke="black" fill="none" stroke-opacity="0.5"/>


<!-- renderSideComponent: clip -->
<path d="M638.5 265.875 Q661.25 289.375 671.25 265.875 Z" stroke-width="4" stroke="black" fill="dimgray" stroke-linecap="round" />
<line x1="636.25" y1="264.375" x2="818.75" y2="264.375" stroke-width="4" stroke="black" fill="dimgray" stroke-linecap="round" />
<path d="M818.75 264.375 Q838.75 271.875 818.75 278.125" stroke-width="4" stroke="black" fill="none" stroke-linecap="round" />


<!-- renderPart: cylinder -->
<path d="M793.7 277.5 L821.3 277.5 L821.3 322.5 L793.7 322.5 Z" stroke-width="0" stroke="none" stroke-linejoin="round" fill="white" fill-opacity="1"/>
<path d="M793.75 277.5 L821.25 277.5 M821.25 322.5 L793.75 322.5" stroke-width="0.5" stroke="black" stroke-linejoin="round" fill="white" fill-opacity="1"/>
<!-- !right !both --><path d="M821.25 277.5 L821.25 322.5" stroke-width="0.5" stroke="black" stroke-linejoin="round" fill="white" fill-opacity="1"/>
<!-- !left !both --><path d="M793.75 277.5 L793.75 322.5" stroke-width="0.5" stroke="black" stroke-linejoin="round" fill="white" fill-opacity="1"/>
<path d="M638.5 265.875 Q661.25 288.375 671.25 265.875 Z" stroke-width="3" stroke="white" fill="white" stroke-linecap="round" />
<line x1="636.25" y1="264.375" x2="818.75" y2="264.375" stroke-width="3" stroke="white" fill="white" stroke-linecap="round" />
<path d="M818.75 264.375 Q838.75 271.875 818.75 278.125" stroke-width="3" stroke="white" fill="none" stroke-linecap="round" />


<!-- renderSideComponent: tail -->


<!-- renderPart: cylinder -->
<path d="M821.2 280 L841.3 280 L841.3 320 L821.2 320 Z" stroke-width="0" stroke="none" stroke-linejoin="round" fill="white" fill-opacity="1"/>
<path d="M821.25 280 L841.25 280 M841.25 320 L821.25 320" stroke-width="0.5" stroke="black" stroke-linejoin="round" fill="white" fill-opacity="1"/>
<!-- !right !both --><path d="M841.25 280 L841.25 320" stroke-width="0.5" stroke="black" stroke-linejoin="round" fill="white" fill-opacity="1"/>
<!-- !left !both --><path d="M821.25 280 L821.25 320" stroke-width="0.5" stroke="black" stroke-linejoin="round" fill="white" fill-opacity="1"/>


<!-- renderSideComponent: indicator -->


<!-- renderPart: cylinder -->
<path d="M841.2 279.375 L888.8 279.375 L888.8 320.625 L841.2 320.625 Z" stroke-width="0" stroke="none" stroke-linejoin="round" fill="white" fill-opacity="1"/>
<path d="M841.25 279.375 L888.75 279.375 M888.75 320.625 L841.25 320.625" stroke-width="0.5" stroke="black" stroke-linejoin="round" fill="white" fill-opacity="1"/>
<!-- !right !both --><path d="M888.75 279.375 L888.75 320.625" stroke-width="0.5" stroke="black" stroke-linejoin="round" fill="white" fill-opacity="1"/>
<!-- !left !both --><path d="M841.25 279.375 L841.25 320.625" stroke-width="0.5" stroke="black" stroke-linejoin="round" fill="white" fill-opacity="1"/>
<path d="M841.25 279.375 L888.75 279.375 L888.75 320.625 L841.25 320.625 Z" stroke-width="1.0" stroke="black" fill="url(#knurled)"/>
<rect x="851.25" y="289.6875" width="27.5" height="20.625" rx="3" ry="3" stroke-width="1" stroke="black" fill="white"/>
<text x="865" y="300" text-anchor="middle" dominant-baseline="central"><tspan stroke="dimgray" stroke-width="0.5" font-family="sans-serif" fill="black" textLength="{this.width * 5 - 24}" > HB</tspan></text>

<!-- renderSideComponent: foot -->


<!-- renderPart: cylinder -->
<path d="M888.7 280 L893.8 280 L893.8 320 L888.7 320 Z" stroke-width="0" stroke="none" stroke-linejoin="round" fill="white" fill-opacity="1"/>
<path d="M888.75 280 L893.75 280 M893.75 320 L888.75 320" stroke-width="0.5" stroke="black" stroke-linejoin="round" fill="white" fill-opacity="1"/>
<!-- !right !both --><path d="M893.75 280 L893.75 320" stroke-width="0.5" stroke="black" stroke-linejoin="round" fill="white" fill-opacity="1"/>
<!-- !left !both --><path d="M888.75 280 L888.75 320" stroke-width="0.5" stroke="black" stroke-linejoin="round" fill="white" fill-opacity="1"/>


<!-- renderPart: cylinder -->
<path d="M893.7 280 L900.05 280 L900.05 320 L893.7 320 Z" stroke-width="0" stroke="none" stroke-linejoin="round" fill="white" fill-opacity="1"/>
<path d="M893.75 280 L900 280 M900 320 L893.75 320" stroke-width="0.5" stroke="black" stroke-linejoin="round" fill="white" fill-opacity="1"/>
<!-- !right !both --><path d="M900 280 L900 320" stroke-width="0.5" stroke="black" stroke-linejoin="round" fill="white" fill-opacity="1"/>
<!-- !left !both --><path d="M893.75 280 L893.75 320" stroke-width="0.5" stroke="black" stroke-linejoin="round" fill="white" fill-opacity="1"/>


<!-- renderPart: cylinder -->
<path d="M899.95 280 L906.3 280 L906.3 320 L899.95 320 Z" stroke-width="0" stroke="none" stroke-linejoin="round" fill="white" fill-opacity="1"/>
<path d="M900 280 L906.25 280 M906.25 320 L900 320" stroke-width="0.5" stroke="black" stroke-linejoin="round" fill="white" fill-opacity="1"/>
<!-- !right !both --><path d="M906.25 280 L906.25 320" stroke-width="0.5" stroke="black" stroke-linejoin="round" fill="white" fill-opacity="1"/>
<!-- !left !both --><path d="M900 280 L900 320" stroke-width="0.5" stroke="black" stroke-linejoin="round" fill="white" fill-opacity="1"/>


<!-- renderSideComponent: cap -->


<!-- renderPart: cylinder -->
<path d="M906.2 286.25 L936.3 286.25 L936.3 313.75 L906.2 313.75 Z" stroke-width="0" stroke="none" stroke-linejoin="round" fill="white" fill-opacity="1"/>
<path d="M906.25 286.25 L936.25 286.25 M936.25 313.75 L906.25 313.75" stroke-width="0.5" stroke="black" stroke-linejoin="round" fill="white" fill-opacity="1"/>
<!-- !right !both --><path d="M936.25 286.25 L936.25 313.75" stroke-width="0.5" stroke="black" stroke-linejoin="round" fill="white" fill-opacity="1"/>
<!-- !left !both --><path d="M906.25 286.25 L906.25 313.75" stroke-width="0.5" stroke="black" stroke-linejoin="round" fill="white" fill-opacity="1"/>


<!-- renderPart: cylinder -->
<path d="M936.2 287.5 L940.05 287.5 L940.05 312.5 L936.2 312.5 Z" stroke-width="0" stroke="none" stroke-linejoin="round" fill="white" fill-opacity="1"/>
<path d="M936.25 287.5 L940 287.5 M940 312.5 L936.25 312.5" stroke-width="0.5" stroke="black" stroke-linejoin="round" fill="white" fill-opacity="1"/>
<!-- !right !both --><path d="M940 287.5 L940 312.5" stroke-width="0.5" stroke="black" stroke-linejoin="round" fill="white" fill-opacity="1"/>
<!-- !left !both --><path d="M936.25 287.5 L936.25 312.5" stroke-width="0.5" stroke="black" stroke-linejoin="round" fill="white" fill-opacity="1"/>


<!-- renderPart: cylinder -->
<path d="M939.95 286.25 L947.55 286.25 L947.55 313.75 L939.95 313.75 Z" stroke-width="0" stroke="none" stroke-linejoin="round" fill="white" fill-opacity="1"/>
<path d="M940 286.25 L947.5 286.25 M947.5 313.75 L940 313.75" stroke-width="0.5" stroke="black" stroke-linejoin="round" fill="white" fill-opacity="1"/>
<!-- !right !both --><path d="M947.5 286.25 L947.5 313.75" stroke-width="0.5" stroke="black" stroke-linejoin="round" fill="white" fill-opacity="1"/>
<!-- !left !both --><path d="M940 286.25 L940 313.75" stroke-width="0.5" stroke="black" stroke-linejoin="round" fill="white" fill-opacity="1"/>


<!-- renderPart: cylinder -->
<path d="M947.45 287.5 L951.3 287.5 L951.3 312.5 L947.45 312.5 Z" stroke-width="0" stroke="none" stroke-linejoin="round" fill="white" fill-opacity="1"/>
<path d="M947.5 287.5 L951.25 287.5 M951.25 312.5 L947.5 312.5" stroke-width="0.5" stroke="black" stroke-linejoin="round" fill="white" fill-opacity="1"/>
<!-- !right !both --><path d="M951.25 287.5 L951.25 312.5" stroke-width="0.5" stroke="black" stroke-linejoin="round" fill="white" fill-opacity="1"/>
<!-- !left !both --><path d="M947.5 287.5 L947.5 312.5" stroke-width="0.5" stroke="black" stroke-linejoin="round" fill="white" fill-opacity="1"/>


<!-- renderPart: cylinder -->
<path d="M951.2 286.25 L958.8 286.25 L958.8 313.75 L951.2 313.75 Z" stroke-width="0" stroke="none" stroke-linejoin="round" fill="white" fill-opacity="1"/>
<path d="M951.25 286.25 L958.75 286.25 M958.75 313.75 L951.25 313.75" stroke-width="0.5" stroke="black" stroke-linejoin="round" fill="white" fill-opacity="1"/>
<!-- !right !both --><path d="M958.75 286.25 L958.75 313.75" stroke-width="0.5" stroke="black" stroke-linejoin="round" fill="white" fill-opacity="1"/>
<!-- !left !both --><path d="M951.25 286.25 L951.25 313.75" stroke-width="0.5" stroke="black" stroke-linejoin="round" fill="white" fill-opacity="1"/>


<!-- renderPart: cylinder -->
<path d="M958.7 287.5 L962.55 287.5 L962.55 312.5 L958.7 312.5 Z" stroke-width="0" stroke="none" stroke-linejoin="round" fill="white" fill-opacity="1"/>
<path d="M958.75 287.5 L962.5 287.5 M962.5 312.5 L958.75 312.5" stroke-width="0.5" stroke="black" stroke-linejoin="round" fill="white" fill-opacity="1"/>
<!-- !right !both --><path d="M962.5 287.5 L962.5 312.5" stroke-width="0.5" stroke="black" stroke-linejoin="round" fill="white" fill-opacity="1"/>
<!-- !left !both --><path d="M958.75 287.5 L958.75 312.5" stroke-width="0.5" stroke="black" stroke-linejoin="round" fill="white" fill-opacity="1"/>


<!-- renderPart: cylinder -->
<path d="M962.45 286.25 L971.3 286.25 L971.3 313.75 L962.45 313.75 Z" stroke-width="0" stroke="none" stroke-linejoin="round" fill="white" fill-opacity="1"/>
<path d="M962.5 286.25 L971.25 286.25 M971.25 313.75 L962.5 313.75" stroke-width="0.5" stroke="black" stroke-linejoin="round" fill="white" fill-opacity="1"/>
<!-- !right !both --><path d="M971.25 286.25 L971.25 313.75" stroke-width="0.5" stroke="black" stroke-linejoin="round" fill="white" fill-opacity="1"/>
<!-- !left !both --><path d="M962.5 286.25 L962.5 313.75" stroke-width="0.5" stroke="black" stroke-linejoin="round" fill="white" fill-opacity="1"/>
</g><text x="50%" y="460" font-size="1.1em" font-weight="bold" text-anchor="middle" dominant-baseline="middle">Copyright (c) // Synapticloop // The Mechanical Pencil Database (tmpdb)</text>
<text x="50%" y="480" font-size="1.1em" font-weight="bold" text-anchor="middle" dominant-baseline="middle">Licensed under Creative Commons Attribution-NonCommercial-ShareAlike 4.0 International</text>
<text x="1190" y="490" font-size="0.5em" font-weight="bold" text-anchor="end" dominant-baseline="middle">SVGTechnicalComponentRenderer</text>
</svg>