<svg xmlns="http://www.w3.org/2000/svg" width="600" height="420">
<pattern id="diagonalHatch" patternUnits="userSpaceOnUse" width="8" height="8">
<rect width="6" height="6" fill='none'/>
<path stroke="dimgray" stroke-linecap="round" stroke-width="1" d="M 4,4 L 8,8"/>
<path stroke="dimgray" stroke-linecap="round" stroke-width="1" d="M 4,4 L 0,8"/>
<path stroke="gray" stroke-linecap="round" stroke-width="1" d="M 4,4 L 8,0" />
<path stroke="gray" stroke-linecap="round" stroke-width="1" d="M 4,4 L 0,0" />
</pattern>
<rect x="0" y="0" width="600" height="420" fill="white" stroke="black" stroke-width="4" />
<rect x="2" y="2" width="596" height="416" fill="white" stroke="dingray" stroke-width="1" />
<line x1="10" y1="210" x2="590" y2="210" stroke="#000000" stroke-dasharray="2" stroke-width="1" />
<line x1="10" y1="210" x2="50" y2="210" stroke="#000000"  stroke-width="1" />
<line x1="30" y1="190" x2="30" y2="230" stroke="#000000"  stroke-width="1" />
<circle r="10" cx="30" cy="210" fill="none" stroke="#000000" stroke-width="1"  />
<line x1="550" y1="210" x2="590" y2="210" stroke="#000000"  stroke-width="1" />
<line x1="570" y1="190" x2="570" y2="230" stroke="#000000"  stroke-width="1" />
<circle r="10" cx="570" cy="210" fill="none" stroke="#000000" stroke-width="1"  />
<line x1="160" y1="50" x2="160" y2="340" stroke="#000000" stroke-dasharray="2" stroke-width="1" />
<line x1="140" y1="30" x2="180" y2="30" stroke="#000000"  stroke-width="1" />
<line x1="160" y1="10" x2="160" y2="50" stroke="#000000"  stroke-width="1" />
<circle r="10" cx="160" cy="30" fill="none" stroke="#000000" stroke-width="1"  />
<line x1="140" y1="320" x2="180" y2="320" stroke="#000000"  stroke-width="1" />
<line x1="160" y1="300" x2="160" y2="340" stroke="#000000"  stroke-width="1" />
<circle r="10" cx="160" cy="320" fill="none" stroke="#000000" stroke-width="1"  />
<text x="30" y="50" font-size="2.0em" font-weight="bold"> jaws</text>
<line x1="100" y1="200" x2="500" y2="200" stroke="#cfcfcf"  stroke-width="1" />
<line x1="100" y1="220" x2="500" y2="220" stroke="#cfcfcf"  stroke-width="1" />
<line x1="150" y1="210" x2="150" y2="240" stroke="#cfcfcf"  stroke-width="1" />
<line x1="170" y1="210" x2="170" y2="240" stroke="#cfcfcf"  stroke-width="1" />
<line x1="-71.25" y1="90" x2="-71.25" y2="330" stroke="#cfcfcf"  stroke-width="1" />
<line x1="-60" y1="99.5" x2="-60" y2="307.5" stroke="#cfcfcf"  stroke-width="1" />
<line x1="99" y1="200" x2="121" y2="200" stroke="black" stroke-width="1" />
<line x1="110" y1="200" x2="110" y2="220" stroke="black" stroke-width="1" />
<line x1="99" y1="220" x2="121" y2="220" stroke="black" stroke-width="1" />
<text x="91" y="210" transform="rotate(-90, 91, 210)" font-size="1.2em" font-weight="bold" text-anchor="middle" dominant-baseline="central" fill="black">4.00 mm</text>
<line x1="150" y1="239" x2="150" y2="261" stroke="black" stroke-width="1" />
<line x1="150" y1="250" x2="170" y2="250" stroke="black" stroke-width="1" />
<line x1="170" y1="239" x2="170" y2="261" stroke="black" stroke-width="1" />
<text x="160" y="269" font-size="1.2em" font-weight="bold" text-anchor="middle" dominant-baseline="central" fill="black"><tspan x="160" dy="0">4.00 mm</tspan></text>
<circle r="8.125" cx="160" cy="210" stroke="dimgray" stroke-width="1" fill="white" />
<circle r="10" cx="160" cy="210" stroke="dimgray" stroke-width="1" fill="white" />
<circle r="5" cx="160" cy="210" fill="black" stroke="dimgray" stroke-width="0.5"  />
<path d="M240 201.875 L251.25 200 L251.25 220 L240 218.125 Z" stroke-width="1" stroke="black" fill="white" />
<text x="50%" y="360" font-size="1.0em" font-weight="bold" text-anchor="middle" dominant-baseline="middle">Copyright (c)</text>
<text x="50%" y="380" font-size="1.0em" font-weight="bold" text-anchor="middle" dominant-baseline="middle">The Mechanical Pencil Database (tmpdb)</text>
<text x="50%" y="400" font-size="1.0em" font-weight="bold" text-anchor="middle" dominant-baseline="middle">Licensed under CC-BY-NC-SA-4.0</text>
</svg>
