<svg xmlns="http://www.w3.org/2000/svg" width="1000" height="700">
 <pattern id="diagonalHatch" patternUnits="userSpaceOnUse" width="8" height="8">
<path stroke="dimgray" stroke-linecap="round" stroke-width="1" d="M 4,4 L 8,8"/>
<path stroke="dimgray" stroke-linecap="round" stroke-width="1" d="M 4,4 L 0,8"/>
<path stroke="gray" stroke-linecap="round" stroke-width="1" d="M 4,4 L 8,0" />
<path stroke="gray" stroke-linecap="round" stroke-width="1" d="M 4,4 L 0,0" />
</pattern>
<pattern id="ridged" patternUnits="userSpaceOnUse" width="3" height="3">
<path stroke="dimgray" stroke-linecap="round" stroke-width="1" d="M 0,0 L 0,3"/>
</pattern>
<pattern id="lined" patternUnits="userSpaceOnUse" width="3" height="3">
<path stroke="dimgray" stroke-linecap="round" stroke-width="1" d="M 0,0 L 3,0"/>
</pattern>
<pattern id="spring" patternUnits="userSpaceOnUse" width="8" height="100">
<path stroke="dimgray" stroke-linecap="round" stroke-width="2" d="M 0,0 L 8,100"/>
<path stroke="white" stroke-linecap="round" stroke-width="1" d="M 0,0 L 8,100"/>
</pattern>
<rect x="0" y="0" width="1000" height="700" fill="white" stroke="black" stroke-width="4" />
<rect x="2" y="2" width="996" height="696" fill="white" stroke="dimgray" stroke-width="1" />
<g transform="rotate(0 0 0)">
<text x="30" y="50" font-size="2.0em" font-weight="bold"> Küelox // 3308 (Model #: 3308)</text>
<line x1="50" y1="104" x2="366" y2="104" stroke-linecap="round" stroke="black"  stroke-width="2" />
<text x="500" y="100" font-size="2.4em" font-weight="bold" text-anchor="middle" dominant-baseline="central">Measurements</text>
<line x1="634" y1="104" x2="950" y2="104" stroke-linecap="round" stroke="black"  stroke-width="2" />
<line x1="40" y1="260" x2="960" y2="260" stroke-linecap="round" stroke="#5f5f5f" stroke-dasharray="2" stroke-width="1" />
<line x1="20" y1="260" x2="60" y2="260" stroke-linecap="round" stroke="#000000"  stroke-width="1" />
<line x1="40" y1="240" x2="40" y2="280" stroke="#000000" stroke-linecap="round"  stroke-width="1" />
<circle r="10" cx="40" cy="260" fill="white" fill-opacity="0" stroke="#000000" stroke-width="1"  />
<line x1="940" y1="260" x2="980" y2="260" stroke-linecap="round" stroke="#000000"  stroke-width="1" />
<line x1="960" y1="240" x2="960" y2="280" stroke="#000000" stroke-linecap="round"  stroke-width="1" />
<circle r="10" cx="960" cy="260" fill="white" fill-opacity="0" stroke="#000000" stroke-width="1"  />
<path d="M128.75 251.875 L140 250 L140 270 L128.75 268.125 Z" stroke-width="0.5" stroke="black" stroke-linejoin="round" fill="white" fill-opacity="1" />
<path d="M140 246.875 L208.75 239.375 L208.75 280.625 L140 273.125 Z" stroke-width="0.5" stroke="black" stroke-linejoin="round" fill="white" fill-opacity="1" />
<path d="M208.75 239.375 L356.25 239.375 L356.25 280.625 L208.75 280.625 Z" stroke-width="0.5" stroke="black" stroke-linejoin="round" fill="white" fill-opacity="1" />
<path d="M208.75 239.375 L356.25 239.375 L356.25 280.625 L208.75 280.625 Z" stroke-width="1.0" stroke="black" fill="url(#diagonalHatch)"/>
<path d="M356.25 240 L693.75 240 L693.75 280 L356.25 280 Z" stroke-width="0.5" stroke="black" stroke-linejoin="round" fill="white" fill-opacity="1" />
<line x1="356.25" y1="260" x2="693.75" y2="260" stroke-width="1.5" stroke="black" fill="none" stroke-opacity="0.5"/>
<line x1="356.25" y1="260" x2="693.75" y2="260" stroke-width="0.5" stroke="gray" fill="none" stroke-opacity="0.5"/>
<path d="M538.5 225.875 Q561.25 249.375 571.25 225.875 Z" stroke-width="4" stroke="black" fill="dimgray" stroke-linecap="round" />
<line x1="536.25" y1="224.375" x2="718.75" y2="224.375" stroke-width="4" stroke="black" fill="dimgray" stroke-linecap="round" />
<path d="M718.75 224.375 Q738.75 231.875 718.75 238.125" stroke-width="4" stroke="black" fill="none" stroke-linecap="round" />
<path d="M693.75 237.5 L721.25 237.5 L721.25 282.5 L693.75 282.5 Z" stroke-width="0.5" stroke="black" stroke-linejoin="round" fill="white" fill-opacity="1" />
<path d="M538.5 225.875 Q561.25 248.375 571.25 225.875 Z" stroke-width="3" stroke="white" fill="white" stroke-linecap="round" />
<line x1="536.25" y1="224.375" x2="718.75" y2="224.375" stroke-width="3" stroke="white" fill="white" stroke-linecap="round" />
<path d="M718.75 224.375 Q738.75 231.875 718.75 238.125" stroke-width="3" stroke="white" fill="none" stroke-linecap="round" />
<path d="M721.25 240 L741.25 240 L741.25 280 L721.25 280 Z" stroke-width="0.5" stroke="black" stroke-linejoin="round" fill="white" fill-opacity="1" />
<path d="M741.25 239.375 L788.75 239.375 L788.75 280.625 L741.25 280.625 Z" stroke-width="0.5" stroke="black" stroke-linejoin="round" fill="white" fill-opacity="1" />
<path d="M741.25 239.375 L788.75 239.375 L788.75 280.625 L741.25 280.625 Z" stroke-width="1.0" stroke="black" fill="url(#diagonalHatch)"/>
<rect x="751.25" y="249.6875" width="27.5" height="20.625" rx="3" ry="3" stroke-width="1" stroke="black" fill="white"/>
<text x="765" y="260" text-anchor="middle" dominant-baseline="central"><tspan stroke="dimgray" stroke-width="0.5" font-family="sans-serif" fill="black" textLength="{this.width * 5 - 24}" > HB</tspan></text><path d="M788.75 240 L793.75 240 L793.75 280 L788.75 280 Z" stroke-width="0.5" stroke="black" stroke-linejoin="round" fill="white" fill-opacity="1" />
<path d="M793.75 240 L800 240 L800 280 L793.75 280 Z" stroke-width="0.5" stroke="black" stroke-linejoin="round" fill="white" fill-opacity="1" />
<path d="M800 240 L806.25 240 L806.25 280 L800 280 Z" stroke-width="0.5" stroke="black" stroke-linejoin="round" fill="white" fill-opacity="1" />
<path d="M806.25 246.25 L836.25 246.25 L836.25 273.75 L806.25 273.75 Z" stroke-width="0.5" stroke="black" stroke-linejoin="round" fill="white" fill-opacity="1" />
<path d="M836.25 247.5 L840 247.5 L840 272.5 L836.25 272.5 Z" stroke-width="0.5" stroke="black" stroke-linejoin="round" fill="white" fill-opacity="1" />
<path d="M840 246.25 L847.5 246.25 L847.5 273.75 L840 273.75 Z" stroke-width="0.5" stroke="black" stroke-linejoin="round" fill="white" fill-opacity="1" />
<path d="M847.5 247.5 L851.25 247.5 L851.25 272.5 L847.5 272.5 Z" stroke-width="0.5" stroke="black" stroke-linejoin="round" fill="white" fill-opacity="1" />
<path d="M851.25 246.25 L858.75 246.25 L858.75 273.75 L851.25 273.75 Z" stroke-width="0.5" stroke="black" stroke-linejoin="round" fill="white" fill-opacity="1" />
<path d="M858.75 247.5 L862.5 247.5 L862.5 272.5 L858.75 272.5 Z" stroke-width="0.5" stroke="black" stroke-linejoin="round" fill="white" fill-opacity="1" />
<path d="M862.5 246.25 L871.25 246.25 L871.25 273.75 L862.5 273.75 Z" stroke-width="0.5" stroke="black" stroke-linejoin="round" fill="white" fill-opacity="1" />
<line x1="128.75" y1="166.5" x2="128.75" y2="188.5" stroke="black" stroke-width="1" />
<line x1="128.75" y1="177.5" x2="208.75" y2="177.5" stroke="black" stroke-width="1" />
<line x1="208.75" y1="166.5" x2="208.75" y2="188.5" stroke="black" stroke-width="1" />
<text x="168.75" y="158.5" font-size="1.2em" font-weight="bold" text-anchor="middle" dominant-baseline="central" fill="black"><tspan x="168.75" dy="0">16.00 mm</tspan></text>
<line x1="128.75" y1="166.5" x2="128.75" y2="188.5" stroke="black" stroke-width="1" />
<line x1="128.75" y1="177.5" x2="208.75" y2="177.5" stroke="black" stroke-width="1" />
<line x1="208.75" y1="166.5" x2="208.75" y2="188.5" stroke="black" stroke-width="1" />
<text x="168.75" y="196.5" font-size="1.2em" font-weight="bold" text-anchor="middle" dominant-baseline="central" fill="black"><tspan x="168.75" dy="0">tip</tspan></text>
<line x1="208.75" y1="166.5" x2="208.75" y2="188.5" stroke="black" stroke-width="1" />
<line x1="208.75" y1="177.5" x2="806.25" y2="177.5" stroke="black" stroke-width="1" />
<line x1="806.25" y1="166.5" x2="806.25" y2="188.5" stroke="black" stroke-width="1" />
<text x="507.5" y="158.5" font-size="1.2em" font-weight="bold" text-anchor="middle" dominant-baseline="central" fill="black"><tspan x="507.5" dy="0">119.50 mm</tspan></text>
<line x1="208.75" y1="166.5" x2="208.75" y2="188.5" stroke="black" stroke-width="1" />
<line x1="208.75" y1="177.5" x2="806.25" y2="177.5" stroke="black" stroke-width="1" />
<line x1="806.25" y1="166.5" x2="806.25" y2="188.5" stroke="black" stroke-width="1" />
<text x="507.5" y="196.5" font-size="1.2em" font-weight="bold" text-anchor="middle" dominant-baseline="central" fill="black"><tspan x="507.5" dy="0">body</tspan></text>
<line x1="806.25" y1="166.5" x2="806.25" y2="188.5" stroke="black" stroke-width="1" />
<line x1="806.25" y1="177.5" x2="871.25" y2="177.5" stroke="black" stroke-width="1" />
<line x1="871.25" y1="166.5" x2="871.25" y2="188.5" stroke="black" stroke-width="1" />
<text x="838.75" y="158.5" font-size="1.2em" font-weight="bold" text-anchor="middle" dominant-baseline="central" fill="black"><tspan x="838.75" dy="0">13.00 mm</tspan></text>
<line x1="806.25" y1="166.5" x2="806.25" y2="188.5" stroke="black" stroke-width="1" />
<line x1="806.25" y1="177.5" x2="871.25" y2="177.5" stroke="black" stroke-width="1" />
<line x1="871.25" y1="166.5" x2="871.25" y2="188.5" stroke="black" stroke-width="1" />
<text x="838.75" y="196.5" font-size="1.2em" font-weight="bold" text-anchor="middle" dominant-baseline="central" fill="black"><tspan x="838.75" dy="0">cap</tspan></text>
<line x1="128.75" y1="361.5" x2="128.75" y2="383.5" stroke="black" stroke-width="1" />
<line x1="128.75" y1="372.5" x2="871.25" y2="372.5" stroke="black" stroke-width="1" />
<line x1="871.25" y1="361.5" x2="871.25" y2="383.5" stroke="black" stroke-width="1" />
<text x="500" y="391.5" font-size="1.2em" font-weight="bold" text-anchor="middle" dominant-baseline="central" fill="black"><tspan x="500" dy="0">148.50 mm</tspan></text>
<line x1="128.75" y1="361.5" x2="128.75" y2="383.5" stroke="black" stroke-width="1" />
<line x1="128.75" y1="372.5" x2="871.25" y2="372.5" stroke="black" stroke-width="1" />
<line x1="871.25" y1="361.5" x2="871.25" y2="383.5" stroke="black" stroke-width="1" />
<text x="500" y="353.5" font-size="1.2em" font-weight="bold" text-anchor="middle" dominant-baseline="central" fill="black"><tspan x="500" dy="0">Total Length</tspan></text>
<line x1="536.25" y1="301.5" x2="536.25" y2="323.5" stroke="black" stroke-width="1" />
<line x1="536.25" y1="312.5" x2="731.25" y2="312.5" stroke="black" stroke-width="1" />
<line x1="731.25" y1="301.5" x2="731.25" y2="323.5" stroke="black" stroke-width="1" />
<text x="633.75" y="293.5" font-size="1.2em" font-weight="bold" text-anchor="middle" dominant-baseline="central" fill="black"><tspan x="633.75" dy="0">39.00 mm</tspan></text>
<line x1="536.25" y1="301.5" x2="536.25" y2="323.5" stroke="black" stroke-width="1" />
<line x1="536.25" y1="312.5" x2="731.25" y2="312.5" stroke="black" stroke-width="1" />
<line x1="731.25" y1="301.5" x2="731.25" y2="323.5" stroke="black" stroke-width="1" />
<text x="633.75" y="331.5" font-size="1.2em" font-weight="bold" text-anchor="middle" dominant-baseline="central" fill="black"><tspan x="633.75" dy="0">clip</tspan></text>
<line x1="208.75" y1="301.5" x2="208.75" y2="323.5" stroke="black" stroke-width="1" />
<line x1="208.75" y1="312.5" x2="356.25" y2="312.5" stroke="black" stroke-width="1" />
<line x1="356.25" y1="301.5" x2="356.25" y2="323.5" stroke="black" stroke-width="1" />
<text x="282.5" y="293.5" font-size="1.2em" font-weight="bold" text-anchor="middle" dominant-baseline="central" fill="black"><tspan x="282.5" dy="0">5.50 mm</tspan></text>
<line x1="208.75" y1="301.5" x2="208.75" y2="323.5" stroke="black" stroke-width="1" />
<line x1="208.75" y1="312.5" x2="356.25" y2="312.5" stroke="black" stroke-width="1" />
<line x1="356.25" y1="301.5" x2="356.25" y2="323.5" stroke="black" stroke-width="1" />
<text x="282.5" y="331.5" font-size="1.2em" font-weight="bold" text-anchor="middle" dominant-baseline="central" fill="black"><tspan x="282.5" dy="0">grip</tspan></text>
<line x1="50" y1="464" x2="410" y2="464" stroke-linecap="round" stroke="black"  stroke-width="2" />
<text x="500" y="460" font-size="2.4em" font-weight="bold" text-anchor="middle" dominant-baseline="central">Variants</text>
<line x1="590" y1="464" x2="950" y2="464" stroke-linecap="round" stroke="black"  stroke-width="2" />
<path d="M128.75 551.875 L140 550 L140 570 L128.75 568.125 Z" stroke-width="0.5" stroke="black" stroke-linejoin="round" fill="#b4b8b9" fill-opacity="1" />
<path d="M140 546.875 L208.75 539.375 L208.75 580.625 L140 573.125 Z" stroke-width="0.5" stroke="black" stroke-linejoin="round" fill="#b4b8b9" fill-opacity="1" />
<path d="M208.75 539.375 L356.25 539.375 L356.25 580.625 L208.75 580.625 Z" stroke-width="0.5" stroke="black" stroke-linejoin="round" fill="#b4b8b9" fill-opacity="1" />
<path d="M208.75 539.375 L356.25 539.375 L356.25 580.625 L208.75 580.625 Z" stroke-width="1.0" stroke="black" fill="url(#diagonalHatch)"/>
<path d="M356.25 540 L693.75 540 L693.75 580 L356.25 580 Z" stroke-width="0.5" stroke="black" stroke-linejoin="round" fill="#b4b8b9" fill-opacity="1" />
<line x1="356.25" y1="560" x2="693.75" y2="560" stroke-width="1.5" stroke="black" fill="none" stroke-opacity="0.5"/>
<line x1="356.25" y1="560" x2="693.75" y2="560" stroke-width="0.5" stroke="gray" fill="none" stroke-opacity="0.5"/>
<path d="M538.5 525.875 Q561.25 549.375 571.25 525.875 Z" stroke-width="4" stroke="black" fill="dimgray" stroke-linecap="round" />
<line x1="536.25" y1="524.375" x2="718.75" y2="524.375" stroke-width="4" stroke="black" fill="dimgray" stroke-linecap="round" />
<path d="M718.75 524.375 Q738.75 531.875 718.75 538.125" stroke-width="4" stroke="black" fill="none" stroke-linecap="round" />
<path d="M693.75 537.5 L721.25 537.5 L721.25 582.5 L693.75 582.5 Z" stroke-width="0.5" stroke="black" stroke-linejoin="round" fill="#b4b8b9" fill-opacity="1" />
<path d="M538.5 525.875 Q561.25 548.375 571.25 525.875 Z" stroke-width="3" stroke="#b4b8b9" fill="#b4b8b9" stroke-linecap="round" />
<line x1="536.25" y1="524.375" x2="718.75" y2="524.375" stroke-width="3" stroke="#b4b8b9" fill="#b4b8b9" stroke-linecap="round" />
<path d="M718.75 524.375 Q738.75 531.875 718.75 538.125" stroke-width="3" stroke="#b4b8b9" fill="none" stroke-linecap="round" />
<path d="M721.25 540 L741.25 540 L741.25 580 L721.25 580 Z" stroke-width="0.5" stroke="black" stroke-linejoin="round" fill="#b4b8b9" fill-opacity="1" />
<path d="M741.25 539.375 L788.75 539.375 L788.75 580.625 L741.25 580.625 Z" stroke-width="0.5" stroke="black" stroke-linejoin="round" fill="#b4b8b9" fill-opacity="1" />
<path d="M741.25 539.375 L788.75 539.375 L788.75 580.625 L741.25 580.625 Z" stroke-width="1.0" stroke="black" fill="url(#diagonalHatch)"/>
<rect x="751.25" y="549.6875" width="27.5" height="20.625" rx="3" ry="3" stroke-width="1" stroke="black" fill="#b4b8b9"/>
<text x="765" y="560" text-anchor="middle" dominant-baseline="central"><tspan stroke="dimgray" stroke-width="0.5" font-family="sans-serif" fill="black" textLength="{this.width * 5 - 24}" > HB</tspan></text><path d="M788.75 540 L793.75 540 L793.75 580 L788.75 580 Z" stroke-width="0.5" stroke="black" stroke-linejoin="round" fill="#b4b8b9" fill-opacity="1" />
<path d="M793.75 540 L800 540 L800 580 L793.75 580 Z" stroke-width="0.5" stroke="black" stroke-linejoin="round" fill="red" fill-opacity="1" />
<path d="M800 540 L806.25 540 L806.25 580 L800 580 Z" stroke-width="0.5" stroke="black" stroke-linejoin="round" fill="#b4b8b9" fill-opacity="1" />
<path d="M806.25 546.25 L836.25 546.25 L836.25 573.75 L806.25 573.75 Z" stroke-width="0.5" stroke="black" stroke-linejoin="round" fill="#b4b8b9" fill-opacity="1" />
<path d="M836.25 547.5 L840 547.5 L840 572.5 L836.25 572.5 Z" stroke-width="0.5" stroke="black" stroke-linejoin="round" fill="#b4b8b9" fill-opacity="1" />
<path d="M840 546.25 L847.5 546.25 L847.5 573.75 L840 573.75 Z" stroke-width="0.5" stroke="black" stroke-linejoin="round" fill="#b4b8b9" fill-opacity="1" />
<path d="M847.5 547.5 L851.25 547.5 L851.25 572.5 L847.5 572.5 Z" stroke-width="0.5" stroke="black" stroke-linejoin="round" fill="#b4b8b9" fill-opacity="1" />
<path d="M851.25 546.25 L858.75 546.25 L858.75 573.75 L851.25 573.75 Z" stroke-width="0.5" stroke="black" stroke-linejoin="round" fill="#b4b8b9" fill-opacity="1" />
<path d="M858.75 547.5 L862.5 547.5 L862.5 572.5 L858.75 572.5 Z" stroke-width="0.5" stroke="black" stroke-linejoin="round" fill="#b4b8b9" fill-opacity="1" />
<path d="M862.5 546.25 L871.25 546.25 L871.25 573.75 L862.5 573.75 Z" stroke-width="0.5" stroke="black" stroke-linejoin="round" fill="#b4b8b9" fill-opacity="1" />
</g><text x="50%" y="660" font-size="1.1em" font-weight="bold" text-anchor="middle" dominant-baseline="middle">Copyright (c) // The Mechanical Pencil Database (tmpdb)</text>
<text x="50%" y="680" font-size="1.1em" font-weight="bold" text-anchor="middle" dominant-baseline="middle">Licensed under Creative Commons Attribution-NonCommercial-ShareAlike 4.0 International</text>
<text x="990" y="690" font-size="0.5em" font-weight="bold" text-anchor="end" dominant-baseline="middle">SVGTechnicalGroupedRenderer</text>
</svg>