<svg xmlns="http://www.w3.org/2000/svg" width="1500" height="600">
 <pattern id="knurled-large" patternUnits="userSpaceOnUse" width="12" height="12">
<path stroke="dimgray" stroke-linecap="round" stroke-width="1" d="M 6,6 L 12,12"/>
<path stroke="dimgray" stroke-linecap="round" stroke-width="1" d="M 6,6 L 0,12"/>
<path stroke="gray" stroke-linecap="round" stroke-width="1" d="M 6,6 L 12,0" />
<path stroke="gray" stroke-linecap="round" stroke-width="1" d="M 6,6 L 0,0" />
</pattern><pattern id="knurled-small" patternUnits="userSpaceOnUse" width="4" height="4">
<path stroke="dimgray" stroke-linecap="round" stroke-width="1" d="M 2,2 L 4,4"/>
<path stroke="dimgray" stroke-linecap="round" stroke-width="1" d="M 2,2 L 0,4"/>
<path stroke="gray" stroke-linecap="round" stroke-width="1" d="M 2,2 L 4,0" />
<path stroke="gray" stroke-linecap="round" stroke-width="1" d="M 2,2 L 0,0" />
</pattern><pattern id="knurled" patternUnits="userSpaceOnUse" width="8" height="8">
<path stroke="dimgray" stroke-linecap="round" stroke-width="1" d="M 4,4 L 8,8"/>
<path stroke="dimgray" stroke-linecap="round" stroke-width="1" d="M 4,4 L 0,8"/>
<path stroke="gray" stroke-linecap="round" stroke-width="1" d="M 4,4 L 8,0" />
<path stroke="gray" stroke-linecap="round" stroke-width="1" d="M 4,4 L 0,0" />
</pattern><pattern id="lined" patternUnits="userSpaceOnUse" width="3" height="3">
<path stroke="dimgray" stroke-linecap="round" stroke-width="1" d="M 0,0 L 3,0"/>
</pattern><pattern id="ridged" patternUnits="userSpaceOnUse" width="3" height="3">
<path stroke="dimgray" stroke-linecap="round" stroke-width="1" d="M 0,0 L 0,3"/>
</pattern><pattern id="spring" patternUnits="userSpaceOnUse" width="8" height="60">
<path stroke="dimgray" stroke-linecap="round" stroke-width="2" d="M 1,1 L 8,60"/>
<path stroke="white" stroke-linecap="round" stroke-width="1" d="M 1,1 L 8,60"/>
</pattern><rect x="0" y="0" width="1500" height="600" fill="white" stroke="black" stroke-width="4" />
<rect x="2" y="2" width="1496" height="596" fill="white" stroke="dimgray" stroke-width="1" />
<g transform="rotate(0 0 0)">
<line x1="40" y1="300" x2="1460" y2="300" stroke-linecap="round" stroke="#5f5f5f" stroke-dasharray="2" stroke-width="1" />
<line x1="20" y1="300" x2="60" y2="300" stroke-linecap="round" stroke="#000000"  stroke-width="1" />
<line x1="40" y1="280" x2="40" y2="320" stroke="#000000" stroke-linecap="round"  stroke-width="1" />
<circle r="10" cx="40" cy="300" fill="white" fill-opacity="0" stroke="#000000" stroke-width="1"  />
<line x1="1440" y1="300" x2="1480" y2="300" stroke-linecap="round" stroke="#000000"  stroke-width="1" />
<line x1="1460" y1="280" x2="1460" y2="320" stroke="#000000" stroke-linecap="round"  stroke-width="1" />
<circle r="10" cx="1460" cy="300" fill="white" fill-opacity="0" stroke="#000000" stroke-width="1"  />
<line x1="750" y1="90" x2="750" y2="510" stroke="#5f5f5f" stroke-linecap="round" stroke-dasharray="2" stroke-width="1" />
<line x1="730" y1="90" x2="770" y2="90" stroke-linecap="round" stroke="#000000"  stroke-width="1" />
<line x1="750" y1="70" x2="750" y2="110" stroke="#000000" stroke-linecap="round"  stroke-width="1" />
<circle r="10" cx="750" cy="90" fill="white" fill-opacity="0" stroke="#000000" stroke-width="1"  />
<line x1="730" y1="510" x2="770" y2="510" stroke-linecap="round" stroke="#000000"  stroke-width="1" />
<line x1="750" y1="490" x2="750" y2="530" stroke="#000000" stroke-linecap="round"  stroke-width="1" />
<circle r="10" cx="750" cy="510" fill="white" fill-opacity="0" stroke="#000000" stroke-width="1"  />
<line x1="160" y1="150" x2="160" y2="510" stroke="#5f5f5f" stroke-linecap="round" stroke-dasharray="2" stroke-width="1" />
<line x1="140" y1="150" x2="180" y2="150" stroke-linecap="round" stroke="#000000"  stroke-width="1" />
<line x1="160" y1="130" x2="160" y2="170" stroke="#000000" stroke-linecap="round"  stroke-width="1" />
<circle r="10" cx="160" cy="150" fill="white" fill-opacity="0" stroke="#000000" stroke-width="1"  />
<line x1="140" y1="510" x2="180" y2="510" stroke-linecap="round" stroke="#000000"  stroke-width="1" />
<line x1="160" y1="490" x2="160" y2="530" stroke="#000000" stroke-linecap="round"  stroke-width="1" />
<circle r="10" cx="160" cy="510" fill="white" fill-opacity="0" stroke="#000000" stroke-width="1"  />
<line x1="1400" y1="150" x2="1400" y2="510" stroke="#5f5f5f" stroke-linecap="round" stroke-dasharray="2" stroke-width="1" />
<line x1="1380" y1="150" x2="1420" y2="150" stroke-linecap="round" stroke="#000000"  stroke-width="1" />
<line x1="1400" y1="130" x2="1400" y2="170" stroke="#000000" stroke-linecap="round"  stroke-width="1" />
<circle r="10" cx="1400" cy="150" fill="white" fill-opacity="0" stroke="#000000" stroke-width="1"  />
<line x1="1380" y1="510" x2="1420" y2="510" stroke-linecap="round" stroke="#000000"  stroke-width="1" />
<line x1="1400" y1="490" x2="1400" y2="530" stroke="#000000" stroke-linecap="round"  stroke-width="1" />
<circle r="10" cx="1400" cy="510" fill="white" fill-opacity="0" stroke="#000000" stroke-width="1"  />
<text x="30" y="50" font-size="2.0em" font-weight="bold"> Küelox // 3308 (Model #: 3308)</text>
<text x="30" y="80" font-size="1.1em"> Küelox 3308 2.0</text>
<text x="30" y="100" font-size="1.1em"> Lead size: 2 mm</text>
<text x="1480" y="30" font-size="1.6em" font-weight="bold" text-anchor="end" dominant-baseline="central">Colour variants of the body</text>
<rect x="1440" y="55" width="40" rx="50%" ry="50%" height="40" stroke="black" stroke-width="2" fill="#b4b8b9" fill-opacity="1"/>
<text x="1460" y="100" transform="rotate(-90, 1460, 100)" font-size="1.2em" font-weight="bold" text-anchor="end" dominant-baseline="central">silver</text>
<text x="30" y="136" font-size="1.2em" font-weight="bold" text-anchor="start" dominant-baseline="central">Materials:</text>
<text x="50" y="156" font-size="1.2em" text-anchor="start" dominant-baseline="central"> - metal</text>
<text x="50" y="176" font-size="1.2em" text-anchor="start" dominant-baseline="central"> - plastic</text>
<text x="50" y="196" font-size="1.2em" text-anchor="start" dominant-baseline="central"> - rubber</text>
<line x1="100" y1="264.625" x2="1400" y2="264.625" stroke-linecap="round" stroke="#cfcfcf"  stroke-width="1" />
<line x1="160" y1="278.375" x2="1400" y2="278.375" stroke-linecap="round" stroke="#cfcfcf"  stroke-width="1" />
<line x1="148.75" y1="230" x2="148.75" y2="300" stroke="#cfcfcf" stroke-linecap="round"  stroke-width="1" />
<line x1="171.25" y1="230" x2="171.25" y2="300" stroke="#cfcfcf" stroke-linecap="round"  stroke-width="1" />
<line x1="160" y1="277.5" x2="1400" y2="277.5" stroke-linecap="round" stroke="#cfcfcf"  stroke-width="1" />
<line x1="100" y1="322.5" x2="1400" y2="322.5" stroke-linecap="round" stroke="#cfcfcf"  stroke-width="1" />
<line x1="136.90598923241498" y1="300" x2="136.90598923241498" y2="342.5" stroke="#cfcfcf" stroke-linecap="round"  stroke-width="1" />
<line x1="183.09401076758502" y1="300" x2="183.09401076758502" y2="342.5" stroke="#cfcfcf" stroke-linecap="round"  stroke-width="1" />
<line x1="378.75" y1="180" x2="378.75" y2="420" stroke="#cfcfcf" stroke-linecap="round"  stroke-width="1" />
<line x1="390" y1="180" x2="390" y2="420" stroke="#cfcfcf" stroke-linecap="round"  stroke-width="1" />
<line x1="458.75" y1="180" x2="458.75" y2="420" stroke="#cfcfcf" stroke-linecap="round"  stroke-width="1" />
<line x1="606.25" y1="180" x2="606.25" y2="420" stroke="#cfcfcf" stroke-linecap="round"  stroke-width="1" />
<line x1="943.75" y1="180" x2="943.75" y2="420" stroke="#cfcfcf" stroke-linecap="round"  stroke-width="1" />
<line x1="786.25" y1="220" x2="786.25" y2="380" stroke="#cfcfcf" stroke-linecap="round"  stroke-width="1" />
<line x1="981.25" y1="220" x2="981.25" y2="380" stroke="#cfcfcf" stroke-linecap="round"  stroke-width="1" />
<line x1="971.25" y1="180" x2="971.25" y2="420" stroke="#cfcfcf" stroke-linecap="round"  stroke-width="1" />
<line x1="991.25" y1="180" x2="991.25" y2="420" stroke="#cfcfcf" stroke-linecap="round"  stroke-width="1" />
<line x1="1038.75" y1="180" x2="1038.75" y2="420" stroke="#cfcfcf" stroke-linecap="round"  stroke-width="1" />
<line x1="1056.25" y1="180" x2="1056.25" y2="420" stroke="#cfcfcf" stroke-linecap="round"  stroke-width="1" />
<line x1="1121.25" y1="189.5" x2="1121.25" y2="397.5" stroke="#cfcfcf" stroke-linecap="round"  stroke-width="1" />
<text x="160" y="540" font-size="1.8em" font-weight="bold" text-anchor="middle" dominant-baseline="central">Front</text>
<text x="750" y="540" font-size="1.8em" font-weight="bold" text-anchor="middle" dominant-baseline="central">Side view</text>
<text x="1400" y="540" font-size="1.8em" font-weight="bold" text-anchor="middle" dominant-baseline="central">Back</text>
<line x1="148.75" y1="229" x2="148.75" y2="251" stroke="black" stroke-width="1" />
<line x1="148.75" y1="240" x2="171.25" y2="240" stroke="black" stroke-width="1" />
<line x1="171.25" y1="229" x2="171.25" y2="251" stroke="black" stroke-width="1" />
<text x="160" y="221" font-size="1.2em" font-weight="bold" text-anchor="middle" dominant-baseline="central" fill="black"><tspan x="160" dy="0">4.50 mm</tspan></text>
<line x1="211" y1="264.625" x2="233" y2="264.625" stroke="black" stroke-width="1" />
<line x1="222" y1="264.625" x2="222" y2="278.375" stroke="black" stroke-width="1" />
<line x1="211" y1="278.375" x2="233" y2="278.375" stroke="black" stroke-width="1" />
<text x="235" y="271.5" font-size="1.2em" font-weight="bold" text-anchor="start" dominant-baseline="central" fill="black">2.75 mm</text>
<line x1="199" y1="277.5" x2="221" y2="277.5" stroke="black" stroke-width="1" />
<line x1="210" y1="277.5" x2="210" y2="322.5" stroke="black" stroke-width="1" />
<line x1="199" y1="322.5" x2="221" y2="322.5" stroke="black" stroke-width="1" />
<text x="223" y="300" font-size="1.2em" font-weight="bold" text-anchor="start" dominant-baseline="central" fill="black">9.00 mm</text>
<line x1="99" y1="264.625" x2="121" y2="264.625" stroke="black" stroke-width="1" />
<line x1="110" y1="264.625" x2="110" y2="322.5" stroke="black" stroke-width="1" />
<line x1="99" y1="322.5" x2="121" y2="322.5" stroke="black" stroke-width="1" />
<text x="91" y="293.5625" transform="rotate(-90, 91, 293.5625)" font-size="1.2em" font-weight="bold" text-anchor="middle" dominant-baseline="central" fill="black">11.575 mm</text>
<line x1="136.90598923241498" y1="341.5" x2="136.90598923241498" y2="363.5" stroke="black" stroke-width="1" />
<line x1="136.90598923241498" y1="352.5" x2="183.09401076758505" y2="352.5" stroke="black" stroke-width="1" />
<line x1="183.09401076758505" y1="341.5" x2="183.09401076758505" y2="363.5" stroke="black" stroke-width="1" />
<text x="160" y="371.5" font-size="1.2em" font-weight="bold" text-anchor="middle" dominant-baseline="central" fill="black"><tspan x="160" dy="0">9.24 mm</tspan></text>
<line x1="378.75" y1="169" x2="378.75" y2="191" stroke="black" stroke-width="1" />
<line x1="378.75" y1="180" x2="390" y2="180" stroke="black" stroke-width="1" />
<line x1="390" y1="169" x2="390" y2="191" stroke="black" stroke-width="1" />
<text x="384.375" y="161" font-size="1.2em" transform="rotate(-90, 384.375, 161)" font-weight="bold" text-anchor="start" dominant-baseline="central" fill="black"><tspan x="384.375" dy="0">2.25 mm jaws</tspan></text>
<line x1="390" y1="169" x2="390" y2="191" stroke="black" stroke-width="1" />
<line x1="390" y1="180" x2="458.75" y2="180" stroke="black" stroke-width="1" />
<line x1="458.75" y1="169" x2="458.75" y2="191" stroke="black" stroke-width="1" />
<text x="424.375" y="161" font-size="1.2em" transform="rotate(-90, 412.375, 161)" font-weight="bold" text-anchor="start" dominant-baseline="central" fill="black"><tspan x="416.375" dy="0">13.75 mm</tspan><tspan x="416.375" dy="1em">tip</tspan></text>
<line x1="458.75" y1="169" x2="458.75" y2="191" stroke="black" stroke-width="1" />
<line x1="458.75" y1="180" x2="606.25" y2="180" stroke="black" stroke-width="1" />
<line x1="606.25" y1="169" x2="606.25" y2="191" stroke="black" stroke-width="1" />
<text x="532.5" y="161" font-size="1.2em" transform="rotate(-90, 520.5, 161)" font-weight="bold" text-anchor="start" dominant-baseline="central" fill="black"><tspan x="524.5" dy="0">29.50 mm</tspan><tspan x="524.5" dy="1em">grip</tspan></text>
<line x1="606.25" y1="169" x2="606.25" y2="191" stroke="black" stroke-width="1" />
<line x1="606.25" y1="180" x2="943.75" y2="180" stroke="black" stroke-width="1" />
<line x1="943.75" y1="169" x2="943.75" y2="191" stroke="black" stroke-width="1" />
<text x="775" y="161" font-size="1.2em" transform="rotate(-90, 763, 161)" font-weight="bold" text-anchor="start" dominant-baseline="central" fill="black"><tspan x="767" dy="0">67.50 mm</tspan><tspan x="767" dy="1em">body</tspan></text>
<line x1="943.75" y1="169" x2="943.75" y2="191" stroke="black" stroke-width="1" />
<line x1="943.75" y1="180" x2="971.25" y2="180" stroke="black" stroke-width="1" />
<line x1="971.25" y1="169" x2="971.25" y2="191" stroke="black" stroke-width="1" />
<text x="957.5" y="161" font-size="1.2em" transform="rotate(-90, 957.5, 161)" font-weight="bold" text-anchor="start" dominant-baseline="central" fill="black"><tspan x="957.5" dy="0">5.50 mm clip</tspan></text>
<line x1="786.25" y1="209" x2="786.25" y2="231" stroke="black" stroke-width="1" />
<line x1="786.25" y1="220" x2="981.25" y2="220" stroke="black" stroke-width="1" />
<line x1="981.25" y1="209" x2="981.25" y2="231" stroke="black" stroke-width="1" />
<text x="883.75" y="212" font-weight="bold" font-size="1.2em" stroke="white" stroke-width="0.25" text-anchor="middle" dominant-baseline="middle" fill="black"><tspan x="875.75" dy="0">39.00 mm</tspan><tspan x="875.75" dy="1em">clip (extra)</tspan></text>
<line x1="971.25" y1="169" x2="971.25" y2="191" stroke="black" stroke-width="1" />
<line x1="971.25" y1="180" x2="991.25" y2="180" stroke="black" stroke-width="1" />
<line x1="991.25" y1="169" x2="991.25" y2="191" stroke="black" stroke-width="1" />
<text x="981.25" y="161" font-size="1.2em" transform="rotate(-90, 981.25, 161)" font-weight="bold" text-anchor="start" dominant-baseline="central" fill="black"><tspan x="981.25" dy="0">4.00 mm tail</tspan></text>
<line x1="991.25" y1="169" x2="991.25" y2="191" stroke="black" stroke-width="1" />
<line x1="991.25" y1="180" x2="1038.75" y2="180" stroke="black" stroke-width="1" />
<line x1="1038.75" y1="169" x2="1038.75" y2="191" stroke="black" stroke-width="1" />
<text x="1015" y="161" font-size="1.2em" transform="rotate(-90, 1003, 161)" font-weight="bold" text-anchor="start" dominant-baseline="central" fill="black"><tspan x="1007" dy="0">9.50 mm</tspan><tspan x="1007" dy="1em">indicator</tspan></text>
<line x1="1038.75" y1="169" x2="1038.75" y2="191" stroke="black" stroke-width="1" />
<line x1="1038.75" y1="180" x2="1056.25" y2="180" stroke="black" stroke-width="1" />
<line x1="1056.25" y1="169" x2="1056.25" y2="191" stroke="black" stroke-width="1" />
<text x="1047.5" y="161" font-size="1.2em" transform="rotate(-90, 1047.5, 161)" font-weight="bold" text-anchor="start" dominant-baseline="central" fill="black"><tspan x="1047.5" dy="0">3.50 mm foot</tspan></text>
<line x1="1056.25" y1="169" x2="1056.25" y2="191" stroke="black" stroke-width="1" />
<line x1="1056.25" y1="180" x2="1121.25" y2="180" stroke="black" stroke-width="1" />
<line x1="1121.25" y1="169" x2="1121.25" y2="191" stroke="black" stroke-width="1" />
<text x="1088.75" y="161" font-size="1.2em" transform="rotate(-90, 1076.75, 161)" font-weight="bold" text-anchor="start" dominant-baseline="central" fill="black"><tspan x="1080.75" dy="0">13.00 mm</tspan><tspan x="1080.75" dy="1em">cap</tspan></text>
<line x1="1299" y1="279.375" x2="1321" y2="279.375" stroke="black" stroke-width="1" />
<line x1="1310" y1="279.375" x2="1310" y2="320.625" stroke="black" stroke-width="1" />
<line x1="1299" y1="320.625" x2="1321" y2="320.625" stroke="black" stroke-width="1" />
<text x="1291" y="300" transform="rotate(-90, 1291, 300)" font-size="1.2em" font-weight="bold" text-anchor="middle" dominant-baseline="central" fill="black">8.25 mm</text>
<line x1="1299" y1="279.375" x2="1321" y2="279.375" stroke="black" stroke-width="1" />
<line x1="1310" y1="279.375" x2="1310" y2="320.625" stroke="black" stroke-width="1" />
<line x1="1299" y1="320.625" x2="1321" y2="320.625" stroke="black" stroke-width="1" />
<text x="1310" y="328.625" transform="rotate(-90, 1310, 328.625)" font-weight="bold" font-size="1.2em" text-anchor="end" dominant-baseline="middle" fill="black">grip</text>
<line x1="1339" y1="280" x2="1361" y2="280" stroke="black" stroke-width="1" />
<line x1="1350" y1="280" x2="1350" y2="320" stroke="black" stroke-width="1" />
<line x1="1339" y1="320" x2="1361" y2="320" stroke="black" stroke-width="1" />
<text x="1331" y="300" transform="rotate(-90, 1331, 300)" font-size="1.2em" font-weight="bold" text-anchor="middle" dominant-baseline="central" fill="black">8 mm</text>
<line x1="1339" y1="280" x2="1361" y2="280" stroke="black" stroke-width="1" />
<line x1="1350" y1="280" x2="1350" y2="320" stroke="black" stroke-width="1" />
<line x1="1339" y1="320" x2="1361" y2="320" stroke="black" stroke-width="1" />
<text x="1350" y="328" transform="rotate(-90, 1350, 328)" font-weight="bold" font-size="1.2em" text-anchor="end" dominant-baseline="middle" fill="black">body</text>
<line x1="378.75" y1="341.5" x2="378.75" y2="363.5" stroke="black" stroke-width="1" />
<line x1="378.75" y1="352.5" x2="1121.25" y2="352.5" stroke="black" stroke-width="1" />
<line x1="1121.25" y1="341.5" x2="1121.25" y2="363.5" stroke="black" stroke-width="1" />
<text x="750" y="352.5" font-weight="bold" font-size="1.2em" stroke="white" stroke-width="0.25" text-anchor="middle" dominant-baseline="middle" fill="black"><tspan x="750" dy="0">148.50 mm</tspan></text>
<line x1="378.75" y1="409" x2="378.75" y2="431" stroke="black" stroke-width="1" />
<line x1="378.75" y1="420" x2="390" y2="420" stroke="black" stroke-width="1" />
<line x1="390" y1="409" x2="390" y2="431" stroke="black" stroke-width="1" />
<text x="384.375" y="439" font-size="1.2em" transform="rotate(-90, 384.375, 439)"  text-anchor="end" dominant-baseline="middle" fill="black"><tspan x="384.375" dy="0">metal</tspan></text>
<line x1="390" y1="409" x2="390" y2="431" stroke="black" stroke-width="1" />
<line x1="390" y1="420" x2="458.75" y2="420" stroke="black" stroke-width="1" />
<line x1="458.75" y1="409" x2="458.75" y2="431" stroke="black" stroke-width="1" />
<text x="424.375" y="439" font-size="1.2em" transform="rotate(-90, 424.375, 439)"  text-anchor="end" dominant-baseline="middle" fill="black"><tspan x="424.375" dy="0">metal</tspan></text>
<line x1="458.75" y1="409" x2="458.75" y2="431" stroke="black" stroke-width="1" />
<line x1="458.75" y1="420" x2="606.25" y2="420" stroke="black" stroke-width="1" />
<line x1="606.25" y1="409" x2="606.25" y2="431" stroke="black" stroke-width="1" />
<text x="532.5" y="439" font-size="1.2em" transform="rotate(-90, 532.5, 439)"  text-anchor="end" dominant-baseline="middle" fill="black"><tspan x="532.5" dy="0">metal</tspan></text>
<line x1="606.25" y1="409" x2="606.25" y2="431" stroke="black" stroke-width="1" />
<line x1="606.25" y1="420" x2="943.75" y2="420" stroke="black" stroke-width="1" />
<line x1="943.75" y1="409" x2="943.75" y2="431" stroke="black" stroke-width="1" />
<text x="775" y="439" font-size="1.2em" transform="rotate(-90, 775, 439)"  text-anchor="end" dominant-baseline="middle" fill="black"><tspan x="775" dy="0">metal</tspan></text>
<line x1="786.25" y1="369" x2="786.25" y2="391" stroke="black" stroke-width="1" />
<line x1="786.25" y1="380" x2="981.25" y2="380" stroke="black" stroke-width="1" />
<line x1="981.25" y1="369" x2="981.25" y2="391" stroke="black" stroke-width="1" />
<text x="883.75" y="399" font-size="1.2em"  text-anchor="middle" dominant-baseline="central" fill="black"><tspan x="883.75" dy="0">metal</tspan></text>
<line x1="943.75" y1="409" x2="943.75" y2="431" stroke="black" stroke-width="1" />
<line x1="943.75" y1="420" x2="971.25" y2="420" stroke="black" stroke-width="1" />
<line x1="971.25" y1="409" x2="971.25" y2="431" stroke="black" stroke-width="1" />
<text x="957.5" y="439" font-size="1.2em" transform="rotate(-90, 957.5, 439)"  text-anchor="end" dominant-baseline="middle" fill="black"><tspan x="957.5" dy="0">metal</tspan></text>
<line x1="971.25" y1="409" x2="971.25" y2="431" stroke="black" stroke-width="1" />
<line x1="971.25" y1="420" x2="991.25" y2="420" stroke="black" stroke-width="1" />
<line x1="991.25" y1="409" x2="991.25" y2="431" stroke="black" stroke-width="1" />
<text x="981.25" y="439" font-size="1.2em" transform="rotate(-90, 981.25, 439)"  text-anchor="end" dominant-baseline="middle" fill="black"><tspan x="981.25" dy="0">metal</tspan></text>
<line x1="991.25" y1="409" x2="991.25" y2="431" stroke="black" stroke-width="1" />
<line x1="991.25" y1="420" x2="1038.75" y2="420" stroke="black" stroke-width="1" />
<line x1="1038.75" y1="409" x2="1038.75" y2="431" stroke="black" stroke-width="1" />
<text x="1015" y="439" font-size="1.2em" transform="rotate(-90, 1015, 439)"  text-anchor="end" dominant-baseline="middle" fill="black"><tspan x="1015" dy="0">plastic</tspan></text>
<line x1="1038.75" y1="409" x2="1038.75" y2="431" stroke="black" stroke-width="1" />
<line x1="1038.75" y1="420" x2="1056.25" y2="420" stroke="black" stroke-width="1" />
<line x1="1056.25" y1="409" x2="1056.25" y2="431" stroke="black" stroke-width="1" />
<text x="1047.5" y="439" font-size="1.2em" transform="rotate(-90, 1035.5, 439)"  text-anchor="end" dominant-baseline="middle" fill="black"><tspan x="1039.5" dy="0">metal</tspan><tspan x="1039.5" dy="1em">rubber</tspan></text>
<line x1="1056.25" y1="409" x2="1056.25" y2="431" stroke="black" stroke-width="1" />
<line x1="1056.25" y1="420" x2="1121.25" y2="420" stroke="black" stroke-width="1" />
<line x1="1121.25" y1="409" x2="1121.25" y2="431" stroke="black" stroke-width="1" />
<text x="1088.75" y="439" font-size="1.2em" transform="rotate(-90, 1088.75, 439)"  text-anchor="end" dominant-baseline="middle" fill="black"><tspan x="1088.75" dy="0">plastic</tspan></text>


<!-- renderSideComponent: jaws -->


<!-- renderPart: cone -->
<path d="M378.7 291.875 L390.05 290 L390.05 310 L378.7 308.125 L378.7 291.875" stroke-width="0" stroke="none" stroke-linejoin="round" fill="#b4b8b9" fill-opacity="1"/>
<path d="M378.7 291.875 L390.05 290 M390.05 310 L378.7 308.125" stroke-width="0.5" stroke="black" stroke-linejoin="round" fill="#b4b8b9" fill-opacity="1"/>
<!-- !right !both --><path d="M390.05 290 L390.05 310" stroke-width="0.5" stroke="black" stroke-linejoin="round" fill="#b4b8b9" fill-opacity="1"/>
<!-- !left !both --><path d="M378.7 291.875 L378.7 308.125" stroke-width="0.5" stroke="black" stroke-linejoin="round" fill="#b4b8b9" fill-opacity="1"/>


<!-- renderSideComponent: tip -->


<!-- renderPart: cone -->
<path d="M389.95 286.875 L458.8 279.375 L458.8 320.625 L389.95 313.125 L389.95 286.875" stroke-width="0" stroke="none" stroke-linejoin="round" fill="#b4b8b9" fill-opacity="1"/>
<path d="M389.95 286.875 L458.8 279.375 M458.8 320.625 L389.95 313.125" stroke-width="0.5" stroke="black" stroke-linejoin="round" fill="#b4b8b9" fill-opacity="1"/>
<!-- !right !both --><path d="M458.8 279.375 L458.8 320.625" stroke-width="0.5" stroke="black" stroke-linejoin="round" fill="#b4b8b9" fill-opacity="1"/>
<!-- !left !both --><path d="M389.95 286.875 L389.95 313.125" stroke-width="0.5" stroke="black" stroke-linejoin="round" fill="#b4b8b9" fill-opacity="1"/>


<!-- renderSideComponent: grip -->


<!-- renderPart: cylinder -->
<path d="M458.7 279.375 L606.3 279.375 L606.3 320.625 L458.7 320.625 L458.7 279.375" stroke-width="0" stroke="none" stroke-linejoin="round" fill="#b4b8b9" fill-opacity="1"/>
<path d="M458.7 279.375 L606.3 279.375 M606.3 320.625 L458.7 320.625" stroke-width="0.5" stroke="black" stroke-linejoin="round" fill="#b4b8b9" fill-opacity="1"/>
<!-- !right !both --><path d="M606.3 279.375 L606.3 320.625" stroke-width="0.5" stroke="black" stroke-linejoin="round" fill="#b4b8b9" fill-opacity="1"/>
<!-- !left !both --><path d="M458.7 279.375 L458.7 320.625" stroke-width="0.5" stroke="black" stroke-linejoin="round" fill="#b4b8b9" fill-opacity="1"/>
<path d="M458.75 279.375 L606.25 279.375 L606.25 320.625 L458.75 320.625 Z" stroke-width="1.0" stroke="black" fill="url(#knurled)"/>


<!-- renderSideComponent: body -->


<!-- renderPart: hexagonal -->
<path d="M606.2 280 L943.8 280 L943.8 320 L606.2 320 L606.2 280" stroke-width="0" stroke="none" stroke-linejoin="round" fill="#b4b8b9" fill-opacity="1"/>
<path d="M606.2 280 L943.8 280 M943.8 320 L606.2 320" stroke-width="0.5" stroke="black" stroke-linejoin="round" fill="#b4b8b9" fill-opacity="1"/>
<!-- !right !both --><path d="M943.8 280 L943.8 320" stroke-width="0.5" stroke="black" stroke-linejoin="round" fill="#b4b8b9" fill-opacity="1"/>
<!-- !left !both --><path d="M606.2 280 L606.2 320" stroke-width="0.5" stroke="black" stroke-linejoin="round" fill="#b4b8b9" fill-opacity="1"/>
<line x1="606.25" y1="300" x2="943.75" y2="300" stroke-width="1.5" stroke="gray" fill="gray" stroke-opacity="1.0"/>
<line x1="606.25" y1="300" x2="943.75" y2="300" stroke-width="0.5" stroke="black" fill="none" stroke-opacity="0.5"/>


<!-- renderSideComponent: clip -->
<path d="M788.5 265.875 Q811.25 289.375 821.25 265.875 Z" stroke-width="4" stroke="black" fill="dimgray" stroke-linecap="round" />
<line x1="786.25" y1="264.375" x2="968.75" y2="264.375" stroke-width="4" stroke="black" fill="dimgray" stroke-linecap="round" />
<path d="M968.75 264.375 Q988.75 271.875 968.75 278.125" stroke-width="4" stroke="black" fill="none" stroke-linecap="round" />


<!-- renderPart: cylinder -->
<path d="M943.7 277.5 L971.3 277.5 L963.8 322.5 L943.7 322.5 L943.7 277.5" stroke-width="0" stroke="none" stroke-linejoin="round" fill="#b4b8b9" fill-opacity="1"/>
<path d="M943.7 277.5 L971.3 277.5 M963.8 322.5 L943.7 322.5" stroke-width="0.5" stroke="black" stroke-linejoin="round" fill="#b4b8b9" fill-opacity="1"/>
<!-- !right !both --><path d="M971.3 277.5 L963.8 322.5" stroke-width="0.5" stroke="black" stroke-linejoin="round" fill="#b4b8b9" fill-opacity="1"/>
<!-- !left !both --><path d="M943.7 277.5 L943.7 322.5" stroke-width="0.5" stroke="black" stroke-linejoin="round" fill="#b4b8b9" fill-opacity="1"/>
<path d="M788.5 265.875 Q811.25 288.375 821.25 265.875 Z" stroke-width="3" stroke="#b4b8b9" fill="#b4b8b9" stroke-linecap="round" />
<line x1="786.25" y1="264.375" x2="968.75" y2="264.375" stroke-width="3" stroke="#b4b8b9" fill="#b4b8b9" stroke-linecap="round" />
<path d="M968.75 264.375 Q988.75 271.875 968.75 278.125" stroke-width="3" stroke="#b4b8b9" fill="none" stroke-linecap="round" />


<!-- renderSideComponent: tail -->


<!-- renderPart: cylinder -->
<path d="M971.2 280 L991.3 280 L991.3 320 L964.575 320 L971.2 280" stroke-width="0" stroke="none" stroke-linejoin="round" fill="#b4b8b9" fill-opacity="1"/>
<path d="M971.2 280 L991.3 280 M991.3 320 L964.575 320" stroke-width="0.5" stroke="black" stroke-linejoin="round" fill="#b4b8b9" fill-opacity="1"/>
<!-- !right !both --><path d="M991.3 280 L991.3 320" stroke-width="0.5" stroke="black" stroke-linejoin="round" fill="#b4b8b9" fill-opacity="1"/>
<!-- !left !both --><path d="M971.2 280 L964.575 320" stroke-width="0.5" stroke="black" stroke-linejoin="round" fill="#b4b8b9" fill-opacity="1"/>


<!-- renderSideComponent: indicator -->


<!-- renderPart: cylinder -->
<path d="M991.2 279.375 L1038.8 279.375 L1038.8 320.625 L991.2 320.625 L991.2 279.375" stroke-width="0" stroke="none" stroke-linejoin="round" fill="#b4b8b9" fill-opacity="1"/>
<path d="M991.2 279.375 L1038.8 279.375 M1038.8 320.625 L991.2 320.625" stroke-width="0.5" stroke="black" stroke-linejoin="round" fill="#b4b8b9" fill-opacity="1"/>
<!-- !right !both --><path d="M1038.8 279.375 L1038.8 320.625" stroke-width="0.5" stroke="black" stroke-linejoin="round" fill="#b4b8b9" fill-opacity="1"/>
<!-- !left !both --><path d="M991.2 279.375 L991.2 320.625" stroke-width="0.5" stroke="black" stroke-linejoin="round" fill="#b4b8b9" fill-opacity="1"/>
<path d="M991.25 279.375 L1038.75 279.375 L1038.75 320.625 L991.25 320.625 Z" stroke-width="1.0" stroke="black" fill="url(#knurled)"/>
<rect x="1001.25" y="289.6875" width="27.5" height="20.625" rx="3" ry="3" stroke-width="1" stroke="black" fill="#b4b8b9"/>
<text x="1015" y="300" text-anchor="middle" dominant-baseline="central"><tspan stroke="dimgray" stroke-width="0.5" font-family="sans-serif" fill="black" textLength="{this.width * 5 - 24}" > HB</tspan></text>

<!-- renderSideComponent: foot -->


<!-- renderPart: cylinder -->
<path d="M1038.7 280 L1043.8 280 L1043.8 320 L1038.7 320 L1038.7 280" stroke-width="0" stroke="none" stroke-linejoin="round" fill="#b4b8b9" fill-opacity="1"/>
<path d="M1038.7 280 L1043.8 280 M1043.8 320 L1038.7 320" stroke-width="0.5" stroke="black" stroke-linejoin="round" fill="#b4b8b9" fill-opacity="1"/>
<!-- !right !both --><path d="M1043.8 280 L1043.8 320" stroke-width="0.5" stroke="black" stroke-linejoin="round" fill="#b4b8b9" fill-opacity="1"/>
<!-- !left !both --><path d="M1038.7 280 L1038.7 320" stroke-width="0.5" stroke="black" stroke-linejoin="round" fill="#b4b8b9" fill-opacity="1"/>


<!-- renderPart: cylinder -->
<path d="M1043.7 280 L1050.05 280 L1050.05 320 L1043.7 320 L1043.7 280" stroke-width="0" stroke="none" stroke-linejoin="round" fill="red" fill-opacity="1"/>
<path d="M1043.7 280 L1050.05 280 M1050.05 320 L1043.7 320" stroke-width="0.5" stroke="black" stroke-linejoin="round" fill="red" fill-opacity="1"/>
<!-- !right !both --><path d="M1050.05 280 L1050.05 320" stroke-width="0.5" stroke="black" stroke-linejoin="round" fill="red" fill-opacity="1"/>
<!-- !left !both --><path d="M1043.7 280 L1043.7 320" stroke-width="0.5" stroke="black" stroke-linejoin="round" fill="red" fill-opacity="1"/>


<!-- renderPart: cylinder -->
<path d="M1049.95 280 L1056.3 280 L1056.3 320 L1049.95 320 L1049.95 280" stroke-width="0" stroke="none" stroke-linejoin="round" fill="#b4b8b9" fill-opacity="1"/>
<path d="M1049.95 280 L1056.3 280 M1056.3 320 L1049.95 320" stroke-width="0.5" stroke="black" stroke-linejoin="round" fill="#b4b8b9" fill-opacity="1"/>
<!-- !right !both --><path d="M1056.3 280 L1056.3 320" stroke-width="0.5" stroke="black" stroke-linejoin="round" fill="#b4b8b9" fill-opacity="1"/>
<!-- !left !both --><path d="M1049.95 280 L1049.95 320" stroke-width="0.5" stroke="black" stroke-linejoin="round" fill="#b4b8b9" fill-opacity="1"/>


<!-- renderSideComponent: cap -->


<!-- renderPart: cylinder -->
<path d="M1056.2 286.25 L1086.3 286.25 L1086.3 313.75 L1056.2 313.75 L1056.2 286.25" stroke-width="0" stroke="none" stroke-linejoin="round" fill="#b4b8b9" fill-opacity="1"/>
<path d="M1056.2 286.25 L1086.3 286.25 M1086.3 313.75 L1056.2 313.75" stroke-width="0.5" stroke="black" stroke-linejoin="round" fill="#b4b8b9" fill-opacity="1"/>
<!-- !right !both --><path d="M1086.3 286.25 L1086.3 313.75" stroke-width="0.5" stroke="black" stroke-linejoin="round" fill="#b4b8b9" fill-opacity="1"/>
<!-- !left !both --><path d="M1056.2 286.25 L1056.2 313.75" stroke-width="0.5" stroke="black" stroke-linejoin="round" fill="#b4b8b9" fill-opacity="1"/>


<!-- renderPart: cylinder -->
<path d="M1086.2 287.5 L1090.05 287.5 L1090.05 312.5 L1086.2 312.5 L1086.2 287.5" stroke-width="0" stroke="none" stroke-linejoin="round" fill="#b4b8b9" fill-opacity="1"/>
<path d="M1086.2 287.5 L1090.05 287.5 M1090.05 312.5 L1086.2 312.5" stroke-width="0.5" stroke="black" stroke-linejoin="round" fill="#b4b8b9" fill-opacity="1"/>
<!-- !right !both --><path d="M1090.05 287.5 L1090.05 312.5" stroke-width="0.5" stroke="black" stroke-linejoin="round" fill="#b4b8b9" fill-opacity="1"/>
<!-- !left !both --><path d="M1086.2 287.5 L1086.2 312.5" stroke-width="0.5" stroke="black" stroke-linejoin="round" fill="#b4b8b9" fill-opacity="1"/>


<!-- renderPart: cylinder -->
<path d="M1089.95 286.25 L1097.55 286.25 L1097.55 313.75 L1089.95 313.75 L1089.95 286.25" stroke-width="0" stroke="none" stroke-linejoin="round" fill="#b4b8b9" fill-opacity="1"/>
<path d="M1089.95 286.25 L1097.55 286.25 M1097.55 313.75 L1089.95 313.75" stroke-width="0.5" stroke="black" stroke-linejoin="round" fill="#b4b8b9" fill-opacity="1"/>
<!-- !right !both --><path d="M1097.55 286.25 L1097.55 313.75" stroke-width="0.5" stroke="black" stroke-linejoin="round" fill="#b4b8b9" fill-opacity="1"/>
<!-- !left !both --><path d="M1089.95 286.25 L1089.95 313.75" stroke-width="0.5" stroke="black" stroke-linejoin="round" fill="#b4b8b9" fill-opacity="1"/>


<!-- renderPart: cylinder -->
<path d="M1097.45 287.5 L1101.3 287.5 L1101.3 312.5 L1097.45 312.5 L1097.45 287.5" stroke-width="0" stroke="none" stroke-linejoin="round" fill="#b4b8b9" fill-opacity="1"/>
<path d="M1097.45 287.5 L1101.3 287.5 M1101.3 312.5 L1097.45 312.5" stroke-width="0.5" stroke="black" stroke-linejoin="round" fill="#b4b8b9" fill-opacity="1"/>
<!-- !right !both --><path d="M1101.3 287.5 L1101.3 312.5" stroke-width="0.5" stroke="black" stroke-linejoin="round" fill="#b4b8b9" fill-opacity="1"/>
<!-- !left !both --><path d="M1097.45 287.5 L1097.45 312.5" stroke-width="0.5" stroke="black" stroke-linejoin="round" fill="#b4b8b9" fill-opacity="1"/>


<!-- renderPart: cylinder -->
<path d="M1101.2 286.25 L1108.8 286.25 L1108.8 313.75 L1101.2 313.75 L1101.2 286.25" stroke-width="0" stroke="none" stroke-linejoin="round" fill="#b4b8b9" fill-opacity="1"/>
<path d="M1101.2 286.25 L1108.8 286.25 M1108.8 313.75 L1101.2 313.75" stroke-width="0.5" stroke="black" stroke-linejoin="round" fill="#b4b8b9" fill-opacity="1"/>
<!-- !right !both --><path d="M1108.8 286.25 L1108.8 313.75" stroke-width="0.5" stroke="black" stroke-linejoin="round" fill="#b4b8b9" fill-opacity="1"/>
<!-- !left !both --><path d="M1101.2 286.25 L1101.2 313.75" stroke-width="0.5" stroke="black" stroke-linejoin="round" fill="#b4b8b9" fill-opacity="1"/>


<!-- renderPart: cylinder -->
<path d="M1108.7 287.5 L1112.55 287.5 L1112.55 312.5 L1108.7 312.5 L1108.7 287.5" stroke-width="0" stroke="none" stroke-linejoin="round" fill="#b4b8b9" fill-opacity="1"/>
<path d="M1108.7 287.5 L1112.55 287.5 M1112.55 312.5 L1108.7 312.5" stroke-width="0.5" stroke="black" stroke-linejoin="round" fill="#b4b8b9" fill-opacity="1"/>
<!-- !right !both --><path d="M1112.55 287.5 L1112.55 312.5" stroke-width="0.5" stroke="black" stroke-linejoin="round" fill="#b4b8b9" fill-opacity="1"/>
<!-- !left !both --><path d="M1108.7 287.5 L1108.7 312.5" stroke-width="0.5" stroke="black" stroke-linejoin="round" fill="#b4b8b9" fill-opacity="1"/>


<!-- renderPart: cylinder -->
<path d="M1112.45 286.25 L1121.3 286.25 L1121.3 313.75 L1112.45 313.75 L1112.45 286.25" stroke-width="0" stroke="none" stroke-linejoin="round" fill="#b4b8b9" fill-opacity="1"/>
<path d="M1112.45 286.25 L1121.3 286.25 M1121.3 313.75 L1112.45 313.75" stroke-width="0.5" stroke="black" stroke-linejoin="round" fill="#b4b8b9" fill-opacity="1"/>
<!-- !right !both --><path d="M1121.3 286.25 L1121.3 313.75" stroke-width="0.5" stroke="black" stroke-linejoin="round" fill="#b4b8b9" fill-opacity="1"/>
<!-- !left !both --><path d="M1112.45 286.25 L1112.45 313.75" stroke-width="0.5" stroke="black" stroke-linejoin="round" fill="#b4b8b9" fill-opacity="1"/>

<!-- FRONT COMPONENTS: cap -->
<circle r="13.75" cx="160" cy="300" fill="#b4b8b9" fill-opacity="1" stroke="black" stroke-width="0.5"  />
<circle r="12.5" cx="160" cy="300" fill="#b4b8b9" fill-opacity="1" stroke="black" stroke-width="0.5"  />
<circle r="13.75" cx="160" cy="300" fill="#b4b8b9" fill-opacity="1" stroke="black" stroke-width="0.5"  />
<circle r="12.5" cx="160" cy="300" fill="#b4b8b9" fill-opacity="1" stroke="black" stroke-width="0.5"  />
<circle r="13.75" cx="160" cy="300" fill="#b4b8b9" fill-opacity="1" stroke="black" stroke-width="0.5"  />
<circle r="12.5" cx="160" cy="300" fill="#b4b8b9" fill-opacity="1" stroke="black" stroke-width="0.5"  />
<circle r="13.75" cx="160" cy="300" fill="#b4b8b9" fill-opacity="1" stroke="black" stroke-width="0.5"  />

<!-- FRONT COMPONENTS: foot -->
<circle r="20" cx="160" cy="300" fill="#b4b8b9" fill-opacity="1" stroke="black" stroke-width="0.5"  />
<circle r="20" cx="160" cy="300" fill="red" fill-opacity="1" stroke="black" stroke-width="0.5"  />
<circle r="20" cx="160" cy="300" fill="#b4b8b9" fill-opacity="1" stroke="black" stroke-width="0.5"  />

<!-- FRONT COMPONENTS: indicator -->
<circle r="20.625" cx="160" cy="300" fill="#b4b8b9" fill-opacity="1" stroke="black" stroke-width="0.5"  />

<!-- FRONT COMPONENTS: tail -->
<circle r="20" cx="160" cy="300" fill="#b4b8b9" fill-opacity="1" stroke="black" stroke-width="0.5"  />

<!-- FRONT COMPONENTS: clip -->
<circle r="22.5" cx="160" cy="300" fill="#b4b8b9" fill-opacity="1" stroke="black" stroke-width="0.5"  />
<!-- WxH 4.5 2.75 --><rect x="148.75" y="264.625" width="22.5" height="13.75" rx="0" ry="0" stroke-width="1.0" stroke="dimgray" fill="#b4b8b9"/>
<rect x="148.75" y="264.625" width="22.5" height="13.75" rx="0" ry="0" stroke-width="1.0" stroke="dimgray" fill="none"/>
<!-- WxH 4.5 0.6 --><rect x="148.75" y="275.375" width="22.5" height="3" rx="0" ry="0" stroke-width="1.0" stroke="dimgray" fill="#b4b8b9"/>
<rect x="148.75" y="275.375" width="22.5" height="3" rx="0" ry="0" stroke-width="1.0" stroke="dimgray" fill="none"/>
<!-- WxH 4.5 0.6 --><rect x="148.75" y="275.375" width="22.5" height="3" rx="0" ry="0" stroke-width="1.0" stroke="dimgray" fill="#b4b8b9"/>
<rect x="148.75" y="275.375" width="22.5" height="3" rx="0" ry="0" stroke-width="1.0" stroke="dimgray" fill="none"/>

<!-- FRONT COMPONENTS: body -->
<polygon points="148.4529946162075,280 171.5470053837925,280 183.09401076758502,300 171.5470053837925,320 148.4529946162075,320 136.90598923241498,300 " stroke="black" stroke-width="0.5" fill="#b4b8b9" fill-opacity="1"/>

<!-- FRONT COMPONENTS: grip -->
<circle r="20.625" cx="160" cy="300" fill="#b4b8b9" fill-opacity="1" stroke="black" stroke-width="0.5"  />

<!-- FRONT COMPONENTS: tip -->
<circle r="20.625" cx="160" cy="300" stroke="black" stroke-width="0.5" fill="#b4b8b9" fill-opacity="1"/>
<circle r="13.125" cx="160" cy="300" stroke="black" stroke-width="0.5" fill="#b4b8b9" fill-opacity="1"/>

<!-- FRONT COMPONENTS: jaws -->
<circle r="10" cx="160" cy="300" stroke="black" stroke-width="0.5" fill="#b4b8b9" fill-opacity="1"/>
<circle r="8.125" cx="160" cy="300" stroke="black" stroke-width="0.5" fill="#b4b8b9" fill-opacity="1"/>
<circle r="5" cx="160" cy="300" fill="black" fill-opacity="1" stroke="dimgray" stroke-width="0.5"  />
<circle r="8.125" cx="1400" cy="300" stroke="black" stroke-width="0.5" fill="#b4b8b9" fill-opacity="1"/>
<circle r="10" cx="1400" cy="300" stroke="black" stroke-width="0.5" fill="#b4b8b9" fill-opacity="1"/>
<circle r="13.125" cx="1400" cy="300" stroke="black" stroke-width="0.5" fill="#b4b8b9" fill-opacity="1"/>
<circle r="20.625" cx="1400" cy="300" stroke="black" stroke-width="0.5" fill="#b4b8b9" fill-opacity="1"/>
<circle r="20.625" cx="1400" cy="300" fill="#b4b8b9" fill-opacity="1" stroke="black" stroke-width="0.5"  />
<polygon points="1388.4529946162074,280 1411.5470053837926,280 1423.0940107675851,300 1411.5470053837926,320 1388.4529946162074,320 1376.9059892324149,300 " stroke="black" stroke-width="0.5" fill="#b4b8b9" fill-opacity="1"/>
<circle r="22.5" cx="1400" cy="300" fill="#b4b8b9" fill-opacity="1" stroke="black" stroke-width="0.5"  />
<!-- WxH 4.5 0.6 --><rect x="1388.75" y="275.375" width="22.5" height="3" rx="0" ry="0" stroke-width="1.0" stroke="dimgray" fill="#b4b8b9"/>
<rect x="1388.75" y="275.375" width="22.5" height="3" rx="0" ry="0" stroke-width="1.0" stroke="dimgray" fill="none"/>
<!-- WxH 4.5 0.6 --><rect x="1388.75" y="275.375" width="22.5" height="3" rx="0" ry="0" stroke-width="1.0" stroke="dimgray" fill="#b4b8b9"/>
<rect x="1388.75" y="275.375" width="22.5" height="3" rx="0" ry="0" stroke-width="1.0" stroke="dimgray" fill="none"/>
<!-- WxH 4.5 2.75 --><rect x="1388.75" y="264.625" width="22.5" height="13.75" rx="0" ry="0" stroke-width="1.0" stroke="dimgray" fill="#b4b8b9"/>
<rect x="1388.75" y="264.625" width="22.5" height="13.75" rx="0" ry="0" stroke-width="1.0" stroke="dimgray" fill="none"/>
<circle r="20" cx="1400" cy="300" fill="#b4b8b9" fill-opacity="1" stroke="black" stroke-width="0.5"  />
<circle r="20.625" cx="1400" cy="300" fill="#b4b8b9" fill-opacity="1" stroke="black" stroke-width="0.5"  />
<circle r="20" cx="1400" cy="300" fill="#b4b8b9" fill-opacity="1" stroke="black" stroke-width="0.5"  />
<circle r="20" cx="1400" cy="300" fill="#b4b8b9" fill-opacity="1" stroke="black" stroke-width="0.5"  />
<circle r="20" cx="1400" cy="300" fill="#b4b8b9" fill-opacity="1" stroke="black" stroke-width="0.5"  />
<circle r="13.75" cx="1400" cy="300" fill="#b4b8b9" fill-opacity="1" stroke="black" stroke-width="0.5"  />
<circle r="12.5" cx="1400" cy="300" fill="#b4b8b9" fill-opacity="1" stroke="black" stroke-width="0.5"  />
<circle r="13.75" cx="1400" cy="300" fill="#b4b8b9" fill-opacity="1" stroke="black" stroke-width="0.5"  />
<circle r="12.5" cx="1400" cy="300" fill="#b4b8b9" fill-opacity="1" stroke="black" stroke-width="0.5"  />
<circle r="13.75" cx="1400" cy="300" fill="#b4b8b9" fill-opacity="1" stroke="black" stroke-width="0.5"  />
<circle r="12.5" cx="1400" cy="300" fill="#b4b8b9" fill-opacity="1" stroke="black" stroke-width="0.5"  />
<circle r="13.75" cx="1400" cy="300" fill="#b4b8b9" fill-opacity="1" stroke="black" stroke-width="0.5"  />
<circle r="5" cx="1400" cy="300" fill="black" fill-opacity="1" stroke="dimgray" stroke-width="1"  />
</g><text x="50%" y="580" font-size="1.1em" font-weight="bold" text-anchor="middle" dominant-baseline="middle">Copyright (c) // Synapticloop // The Mechanical Pencil Database (tmpdb) // Licensed under Creative Commons Attribution-NonCommercial-ShareAlike 4.0 International</text>
<text x="1490" y="590" font-size="0.5em" font-weight="bold" text-anchor="end" dominant-baseline="middle">SVGTechnicalRenderer</text>
</svg>