<svg xmlns="http://www.w3.org/2000/svg" width="1000" height="780">
 <pattern id="knurled-large" patternUnits="userSpaceOnUse" width="12" height="12">
<path stroke="dimgray" stroke-linecap="round" stroke-width="1" d="M 6,6 L 12,12"/>
<path stroke="dimgray" stroke-linecap="round" stroke-width="1" d="M 6,6 L 0,12"/>
<path stroke="gray" stroke-linecap="round" stroke-width="1" d="M 6,6 L 12,0" />
<path stroke="gray" stroke-linecap="round" stroke-width="1" d="M 6,6 L 0,0" />
</pattern><pattern id="knurled-small" patternUnits="userSpaceOnUse" width="4" height="4">
<path stroke="dimgray" stroke-linecap="round" stroke-width="1" d="M 2,2 L 4,4"/>
<path stroke="dimgray" stroke-linecap="round" stroke-width="1" d="M 2,2 L 0,4"/>
<path stroke="gray" stroke-linecap="round" stroke-width="1" d="M 2,2 L 4,0" />
<path stroke="gray" stroke-linecap="round" stroke-width="1" d="M 2,2 L 0,0" />
</pattern><pattern id="knurled" patternUnits="userSpaceOnUse" width="8" height="8">
<path stroke="dimgray" stroke-linecap="round" stroke-width="1" d="M 4,4 L 8,8"/>
<path stroke="dimgray" stroke-linecap="round" stroke-width="1" d="M 4,4 L 0,8"/>
<path stroke="gray" stroke-linecap="round" stroke-width="1" d="M 4,4 L 8,0" />
<path stroke="gray" stroke-linecap="round" stroke-width="1" d="M 4,4 L 0,0" />
</pattern><pattern id="lined" patternUnits="userSpaceOnUse" width="3" height="3">
<path stroke="dimgray" stroke-linecap="round" stroke-width="1" d="M 0,0 L 3,0"/>
</pattern><pattern id="ridged" patternUnits="userSpaceOnUse" width="3" height="3">
<path stroke="dimgray" stroke-linecap="round" stroke-width="1" d="M 0,0 L 0,3"/>
</pattern><pattern id="spring" patternUnits="userSpaceOnUse" width="8" height="60">
<path stroke="dimgray" stroke-linecap="round" stroke-width="2" d="M 1,1 L 8,60"/>
<path stroke="white" stroke-linecap="round" stroke-width="1" d="M 1,1 L 8,60"/>
</pattern><rect x="0" y="0" width="1000" height="780" fill="white" stroke="black" stroke-width="4" />
<rect x="2" y="2" width="996" height="776" fill="white" stroke="dimgray" stroke-width="1" />
<g transform="rotate(0 0 0)">
<text x="30" y="50" font-size="2.0em" font-weight="bold"> Küelox // 3308 (Model #: 3308)</text>
<line x1="360" y1="124" x2="360" y2="162" stroke="black" stroke-linecap="round"  stroke-width="2" />
<line x1="240" y1="140" x2="360" y2="140" stroke-linecap="round" stroke="black"  stroke-width="2" />
<line x1="246" y1="144" x2="360" y2="144" stroke-linecap="round" stroke="black"  stroke-width="2" />
<text x="500" y="140" font-size="2.4em" font-weight="bold" text-anchor="middle" dominant-baseline="central">Measurements</text>
<line x1="640" y1="140" x2="760" y2="140" stroke-linecap="round" stroke="black"  stroke-width="2" />
<line x1="640" y1="144" x2="754" y2="144" stroke-linecap="round" stroke="black"  stroke-width="2" />
<line x1="640" y1="124" x2="640" y2="162" stroke="black" stroke-linecap="round"  stroke-width="2" />
<line x1="40" y1="300" x2="960" y2="300" stroke-linecap="round" stroke="#5f5f5f" stroke-dasharray="2" stroke-width="1" />
<line x1="20" y1="300" x2="60" y2="300" stroke-linecap="round" stroke="#000000"  stroke-width="1" />
<line x1="40" y1="280" x2="40" y2="320" stroke="#000000" stroke-linecap="round"  stroke-width="1" />
<circle r="10" cx="40" cy="300" fill="white" fill-opacity="0" stroke="#000000" stroke-width="1"  />
<line x1="940" y1="300" x2="980" y2="300" stroke-linecap="round" stroke="#000000"  stroke-width="1" />
<line x1="960" y1="280" x2="960" y2="320" stroke="#000000" stroke-linecap="round"  stroke-width="1" />
<circle r="10" cx="960" cy="300" fill="white" fill-opacity="0" stroke="#000000" stroke-width="1"  />


<!-- renderSideComponent: jaws -->


<!-- renderPart: cone -->
<path d="M128.7 291.875 L140.05 290 L140.05 310 L128.7 308.125 L128.7 291.875" stroke-width="0" stroke="none" stroke-linejoin="round" fill="white" fill-opacity="1"/>
<path d="M128.7 291.875 L140.05 290 M140.05 310 L128.7 308.125" stroke-width="0.5" stroke="black" stroke-linejoin="round" fill="white" fill-opacity="1"/>
<!-- !right !both --><path d="M140.05 290 L140.05 310" stroke-width="0.5" stroke="black" stroke-linejoin="round" fill="white" fill-opacity="1"/>
<!-- !left !both --><path d="M128.7 291.875 L128.7 308.125" stroke-width="0.5" stroke="black" stroke-linejoin="round" fill="white" fill-opacity="1"/>


<!-- renderSideComponent: tip -->


<!-- renderPart: cone -->
<path d="M139.95 286.875 L208.8 279.375 L208.8 320.625 L139.95 313.125 L139.95 286.875" stroke-width="0" stroke="none" stroke-linejoin="round" fill="white" fill-opacity="1"/>
<path d="M139.95 286.875 L208.8 279.375 M208.8 320.625 L139.95 313.125" stroke-width="0.5" stroke="black" stroke-linejoin="round" fill="white" fill-opacity="1"/>
<!-- !right !both --><path d="M208.8 279.375 L208.8 320.625" stroke-width="0.5" stroke="black" stroke-linejoin="round" fill="white" fill-opacity="1"/>
<!-- !left !both --><path d="M139.95 286.875 L139.95 313.125" stroke-width="0.5" stroke="black" stroke-linejoin="round" fill="white" fill-opacity="1"/>


<!-- renderSideComponent: grip -->


<!-- renderPart: cylinder -->
<path d="M208.7 279.375 L356.3 279.375 L356.3 320.625 L208.7 320.625 L208.7 279.375" stroke-width="0" stroke="none" stroke-linejoin="round" fill="white" fill-opacity="1"/>
<path d="M208.7 279.375 L356.3 279.375 M356.3 320.625 L208.7 320.625" stroke-width="0.5" stroke="black" stroke-linejoin="round" fill="white" fill-opacity="1"/>
<!-- !right !both --><path d="M356.3 279.375 L356.3 320.625" stroke-width="0.5" stroke="black" stroke-linejoin="round" fill="white" fill-opacity="1"/>
<!-- !left !both --><path d="M208.7 279.375 L208.7 320.625" stroke-width="0.5" stroke="black" stroke-linejoin="round" fill="white" fill-opacity="1"/>
<!-- DEFAULT FINISH: knurled --><path d="M208.75 279.375 L356.25 279.375 L356.25 320.625 L208.75 320.625 Z" stroke-width="0.5" stroke="black" fill="url(#knurled)"/>


<!-- renderSideComponent: body -->


<!-- renderPart: hexagonal -->
<path d="M356.2 280 L693.8 280 L693.8 320 L356.2 320 L356.2 280" stroke-width="0" stroke="none" stroke-linejoin="round" fill="white" fill-opacity="1"/>
<path d="M356.2 280 L693.8 280 M693.8 320 L356.2 320" stroke-width="0.5" stroke="black" stroke-linejoin="round" fill="white" fill-opacity="1"/>
<!-- !right !both --><path d="M693.8 280 L693.8 320" stroke-width="0.5" stroke="black" stroke-linejoin="round" fill="white" fill-opacity="1"/>
<!-- !left !both --><path d="M356.2 280 L356.2 320" stroke-width="0.5" stroke="black" stroke-linejoin="round" fill="white" fill-opacity="1"/>
<line x1="356.25" y1="300" x2="693.75" y2="300" stroke-width="1.5" stroke="gray" fill="gray" stroke-opacity="1.0"/>
<line x1="356.25" y1="300" x2="693.75" y2="300" stroke-width="0.5" stroke="black" fill="none" stroke-opacity="0.5"/>


<!-- renderSideComponent: clip -->
<path d="M538.5 265.875 Q561.25 289.375 571.25 265.875 Z" stroke-width="4" stroke="black" fill="dimgray" stroke-linecap="round" />
<line x1="536.25" y1="264.375" x2="718.75" y2="264.375" stroke-width="4" stroke="black" fill="dimgray" stroke-linecap="round" />
<path d="M718.75 264.375 Q738.75 271.875 718.75 278.125" stroke-width="4" stroke="black" fill="none" stroke-linecap="round" />


<!-- renderPart: cylinder -->
<path d="M693.7 277.5 L721.3 277.5 L713.8 322.5 L693.7 322.5 L693.7 277.5" stroke-width="0" stroke="none" stroke-linejoin="round" fill="white" fill-opacity="1"/>
<path d="M693.7 277.5 L721.3 277.5 M713.8 322.5 L693.7 322.5" stroke-width="0.5" stroke="black" stroke-linejoin="round" fill="white" fill-opacity="1"/>
<!-- !right !both --><path d="M721.3 277.5 L713.8 322.5" stroke-width="0.5" stroke="black" stroke-linejoin="round" fill="white" fill-opacity="1"/>
<!-- !left !both --><path d="M693.7 277.5 L693.7 322.5" stroke-width="0.5" stroke="black" stroke-linejoin="round" fill="white" fill-opacity="1"/>
<path d="M538.5 265.875 Q561.25 288.375 571.25 265.875 Z" stroke-width="3" stroke="white" fill="white" stroke-linecap="round" />
<rect x="538.5" y="265.875" width="35" height="-12.5" stroke-width="3" stroke="white" fill="white" stroke-linecap="round" />
<line x1="536.25" y1="264.375" x2="718.75" y2="264.375" stroke-width="3" stroke="white" fill="white" stroke-linecap="round" />
<path d="M718.75 264.375 Q738.75 271.875 718.75 278.125" stroke-width="3" stroke="white" fill="none" stroke-linecap="round" />


<!-- renderSideComponent: tail -->


<!-- renderPart: cylinder -->
<path d="M721.2 280 L741.3 280 L741.3 320 L714.575 320 L721.2 280" stroke-width="0" stroke="none" stroke-linejoin="round" fill="white" fill-opacity="1"/>
<path d="M721.2 280 L741.3 280 M741.3 320 L714.575 320" stroke-width="0.5" stroke="black" stroke-linejoin="round" fill="white" fill-opacity="1"/>
<!-- !right !both --><path d="M741.3 280 L741.3 320" stroke-width="0.5" stroke="black" stroke-linejoin="round" fill="white" fill-opacity="1"/>
<!-- !left !both --><path d="M721.2 280 L714.575 320" stroke-width="0.5" stroke="black" stroke-linejoin="round" fill="white" fill-opacity="1"/>


<!-- renderSideComponent: indicator -->


<!-- renderPart: cylinder -->
<path d="M741.2 279.375 L788.8 279.375 L788.8 320.625 L741.2 320.625 L741.2 279.375" stroke-width="0" stroke="none" stroke-linejoin="round" fill="white" fill-opacity="1"/>
<path d="M741.2 279.375 L788.8 279.375 M788.8 320.625 L741.2 320.625" stroke-width="0.5" stroke="black" stroke-linejoin="round" fill="white" fill-opacity="1"/>
<!-- !right !both --><path d="M788.8 279.375 L788.8 320.625" stroke-width="0.5" stroke="black" stroke-linejoin="round" fill="white" fill-opacity="1"/>
<!-- !left !both --><path d="M741.2 279.375 L741.2 320.625" stroke-width="0.5" stroke="black" stroke-linejoin="round" fill="white" fill-opacity="1"/>
<!-- DEFAULT FINISH: knurled --><path d="M741.25 279.375 L788.75 279.375 L788.75 320.625 L741.25 320.625 Z" stroke-width="0.5" stroke="black" fill="url(#knurled)"/>
<rect x="751.25" y="289.6875" width="27.5" height="20.625" rx="3" ry="3" stroke-width="1" stroke="black" fill="white"/>
<text x="765" y="300" text-anchor="middle" dominant-baseline="central"><tspan stroke="dimgray" stroke-width="0.5" font-family="sans-serif" fill="black" textLength="{this.width * 5 - 24}" > HB</tspan></text>

<!-- renderSideComponent: foot -->


<!-- renderPart: cylinder -->
<path d="M788.7 280 L793.8 280 L793.8 320 L788.7 320 L788.7 280" stroke-width="0" stroke="none" stroke-linejoin="round" fill="white" fill-opacity="1"/>
<path d="M788.7 280 L793.8 280 M793.8 320 L788.7 320" stroke-width="0.5" stroke="black" stroke-linejoin="round" fill="white" fill-opacity="1"/>
<!-- !right !both --><path d="M793.8 280 L793.8 320" stroke-width="0.5" stroke="black" stroke-linejoin="round" fill="white" fill-opacity="1"/>
<!-- !left !both --><path d="M788.7 280 L788.7 320" stroke-width="0.5" stroke="black" stroke-linejoin="round" fill="white" fill-opacity="1"/>


<!-- renderPart: cylinder -->
<path d="M793.7 280 L800.05 280 L800.05 320 L793.7 320 L793.7 280" stroke-width="0" stroke="none" stroke-linejoin="round" fill="white" fill-opacity="1"/>
<path d="M793.7 280 L800.05 280 M800.05 320 L793.7 320" stroke-width="0.5" stroke="black" stroke-linejoin="round" fill="white" fill-opacity="1"/>
<!-- !right !both --><path d="M800.05 280 L800.05 320" stroke-width="0.5" stroke="black" stroke-linejoin="round" fill="white" fill-opacity="1"/>
<!-- !left !both --><path d="M793.7 280 L793.7 320" stroke-width="0.5" stroke="black" stroke-linejoin="round" fill="white" fill-opacity="1"/>


<!-- renderPart: cylinder -->
<path d="M799.95 280 L806.3 280 L806.3 320 L799.95 320 L799.95 280" stroke-width="0" stroke="none" stroke-linejoin="round" fill="white" fill-opacity="1"/>
<path d="M799.95 280 L806.3 280 M806.3 320 L799.95 320" stroke-width="0.5" stroke="black" stroke-linejoin="round" fill="white" fill-opacity="1"/>
<!-- !right !both --><path d="M806.3 280 L806.3 320" stroke-width="0.5" stroke="black" stroke-linejoin="round" fill="white" fill-opacity="1"/>
<!-- !left !both --><path d="M799.95 280 L799.95 320" stroke-width="0.5" stroke="black" stroke-linejoin="round" fill="white" fill-opacity="1"/>


<!-- renderSideComponent: cap -->


<!-- renderPart: cylinder -->
<path d="M806.2 286.25 L836.3 286.25 L836.3 313.75 L806.2 313.75 L806.2 286.25" stroke-width="0" stroke="none" stroke-linejoin="round" fill="white" fill-opacity="1"/>
<path d="M806.2 286.25 L836.3 286.25 M836.3 313.75 L806.2 313.75" stroke-width="0.5" stroke="black" stroke-linejoin="round" fill="white" fill-opacity="1"/>
<!-- !right !both --><path d="M836.3 286.25 L836.3 313.75" stroke-width="0.5" stroke="black" stroke-linejoin="round" fill="white" fill-opacity="1"/>
<!-- !left !both --><path d="M806.2 286.25 L806.2 313.75" stroke-width="0.5" stroke="black" stroke-linejoin="round" fill="white" fill-opacity="1"/>


<!-- renderPart: cylinder -->
<path d="M836.2 287.5 L840.05 287.5 L840.05 312.5 L836.2 312.5 L836.2 287.5" stroke-width="0" stroke="none" stroke-linejoin="round" fill="white" fill-opacity="1"/>
<path d="M836.2 287.5 L840.05 287.5 M840.05 312.5 L836.2 312.5" stroke-width="0.5" stroke="black" stroke-linejoin="round" fill="white" fill-opacity="1"/>
<!-- !right !both --><path d="M840.05 287.5 L840.05 312.5" stroke-width="0.5" stroke="black" stroke-linejoin="round" fill="white" fill-opacity="1"/>
<!-- !left !both --><path d="M836.2 287.5 L836.2 312.5" stroke-width="0.5" stroke="black" stroke-linejoin="round" fill="white" fill-opacity="1"/>


<!-- renderPart: cylinder -->
<path d="M839.95 286.25 L847.55 286.25 L847.55 313.75 L839.95 313.75 L839.95 286.25" stroke-width="0" stroke="none" stroke-linejoin="round" fill="white" fill-opacity="1"/>
<path d="M839.95 286.25 L847.55 286.25 M847.55 313.75 L839.95 313.75" stroke-width="0.5" stroke="black" stroke-linejoin="round" fill="white" fill-opacity="1"/>
<!-- !right !both --><path d="M847.55 286.25 L847.55 313.75" stroke-width="0.5" stroke="black" stroke-linejoin="round" fill="white" fill-opacity="1"/>
<!-- !left !both --><path d="M839.95 286.25 L839.95 313.75" stroke-width="0.5" stroke="black" stroke-linejoin="round" fill="white" fill-opacity="1"/>


<!-- renderPart: cylinder -->
<path d="M847.45 287.5 L851.3 287.5 L851.3 312.5 L847.45 312.5 L847.45 287.5" stroke-width="0" stroke="none" stroke-linejoin="round" fill="white" fill-opacity="1"/>
<path d="M847.45 287.5 L851.3 287.5 M851.3 312.5 L847.45 312.5" stroke-width="0.5" stroke="black" stroke-linejoin="round" fill="white" fill-opacity="1"/>
<!-- !right !both --><path d="M851.3 287.5 L851.3 312.5" stroke-width="0.5" stroke="black" stroke-linejoin="round" fill="white" fill-opacity="1"/>
<!-- !left !both --><path d="M847.45 287.5 L847.45 312.5" stroke-width="0.5" stroke="black" stroke-linejoin="round" fill="white" fill-opacity="1"/>


<!-- renderPart: cylinder -->
<path d="M851.2 286.25 L858.8 286.25 L858.8 313.75 L851.2 313.75 L851.2 286.25" stroke-width="0" stroke="none" stroke-linejoin="round" fill="white" fill-opacity="1"/>
<path d="M851.2 286.25 L858.8 286.25 M858.8 313.75 L851.2 313.75" stroke-width="0.5" stroke="black" stroke-linejoin="round" fill="white" fill-opacity="1"/>
<!-- !right !both --><path d="M858.8 286.25 L858.8 313.75" stroke-width="0.5" stroke="black" stroke-linejoin="round" fill="white" fill-opacity="1"/>
<!-- !left !both --><path d="M851.2 286.25 L851.2 313.75" stroke-width="0.5" stroke="black" stroke-linejoin="round" fill="white" fill-opacity="1"/>


<!-- renderPart: cylinder -->
<path d="M858.7 287.5 L862.55 287.5 L862.55 312.5 L858.7 312.5 L858.7 287.5" stroke-width="0" stroke="none" stroke-linejoin="round" fill="white" fill-opacity="1"/>
<path d="M858.7 287.5 L862.55 287.5 M862.55 312.5 L858.7 312.5" stroke-width="0.5" stroke="black" stroke-linejoin="round" fill="white" fill-opacity="1"/>
<!-- !right !both --><path d="M862.55 287.5 L862.55 312.5" stroke-width="0.5" stroke="black" stroke-linejoin="round" fill="white" fill-opacity="1"/>
<!-- !left !both --><path d="M858.7 287.5 L858.7 312.5" stroke-width="0.5" stroke="black" stroke-linejoin="round" fill="white" fill-opacity="1"/>


<!-- renderPart: cylinder -->
<path d="M862.45 286.25 L871.3 286.25 L871.3 313.75 L862.45 313.75 L862.45 286.25" stroke-width="0" stroke="none" stroke-linejoin="round" fill="white" fill-opacity="1"/>
<path d="M862.45 286.25 L871.3 286.25 M871.3 313.75 L862.45 313.75" stroke-width="0.5" stroke="black" stroke-linejoin="round" fill="white" fill-opacity="1"/>
<!-- !right !both --><path d="M871.3 286.25 L871.3 313.75" stroke-width="0.5" stroke="black" stroke-linejoin="round" fill="white" fill-opacity="1"/>
<!-- !left !both --><path d="M862.45 286.25 L862.45 313.75" stroke-width="0.5" stroke="black" stroke-linejoin="round" fill="white" fill-opacity="1"/>
<line x1="128.75" y1="206.5" x2="128.75" y2="228.5" stroke="black" stroke-width="1" />
<line x1="128.75" y1="217.5" x2="208.75" y2="217.5" stroke="black" stroke-width="1" />
<line x1="208.75" y1="206.5" x2="208.75" y2="228.5" stroke="black" stroke-width="1" />
<text x="168.75" y="198.5" font-size="1.2em" font-weight="bold" text-anchor="middle" dominant-baseline="central" fill="black"><tspan x="168.75" dy="0">16.00 mm</tspan></text>
<line x1="128.75" y1="206.5" x2="128.75" y2="228.5" stroke="black" stroke-width="1" />
<line x1="128.75" y1="217.5" x2="208.75" y2="217.5" stroke="black" stroke-width="1" />
<line x1="208.75" y1="206.5" x2="208.75" y2="228.5" stroke="black" stroke-width="1" />
<text x="168.75" y="236.5" font-size="1.2em" font-weight="bold" text-anchor="middle" dominant-baseline="central" fill="black"><tspan x="168.75" dy="0">tip</tspan></text>
<line x1="208.75" y1="206.5" x2="208.75" y2="228.5" stroke="black" stroke-width="1" />
<line x1="208.75" y1="217.5" x2="806.25" y2="217.5" stroke="black" stroke-width="1" />
<line x1="806.25" y1="206.5" x2="806.25" y2="228.5" stroke="black" stroke-width="1" />
<text x="507.5" y="198.5" font-size="1.2em" font-weight="bold" text-anchor="middle" dominant-baseline="central" fill="black"><tspan x="507.5" dy="0">119.50 mm</tspan></text>
<line x1="208.75" y1="206.5" x2="208.75" y2="228.5" stroke="black" stroke-width="1" />
<line x1="208.75" y1="217.5" x2="806.25" y2="217.5" stroke="black" stroke-width="1" />
<line x1="806.25" y1="206.5" x2="806.25" y2="228.5" stroke="black" stroke-width="1" />
<text x="507.5" y="236.5" font-size="1.2em" font-weight="bold" text-anchor="middle" dominant-baseline="central" fill="black"><tspan x="507.5" dy="0">body</tspan></text>
<line x1="806.25" y1="206.5" x2="806.25" y2="228.5" stroke="black" stroke-width="1" />
<line x1="806.25" y1="217.5" x2="871.25" y2="217.5" stroke="black" stroke-width="1" />
<line x1="871.25" y1="206.5" x2="871.25" y2="228.5" stroke="black" stroke-width="1" />
<text x="838.75" y="198.5" font-size="1.2em" font-weight="bold" text-anchor="middle" dominant-baseline="central" fill="black"><tspan x="838.75" dy="0">13.00 mm</tspan></text>
<line x1="806.25" y1="206.5" x2="806.25" y2="228.5" stroke="black" stroke-width="1" />
<line x1="806.25" y1="217.5" x2="871.25" y2="217.5" stroke="black" stroke-width="1" />
<line x1="871.25" y1="206.5" x2="871.25" y2="228.5" stroke="black" stroke-width="1" />
<text x="838.75" y="236.5" font-size="1.2em" font-weight="bold" text-anchor="middle" dominant-baseline="central" fill="black"><tspan x="838.75" dy="0">cap</tspan></text>
<line x1="128.75" y1="401.5" x2="128.75" y2="423.5" stroke="black" stroke-width="1" />
<line x1="128.75" y1="412.5" x2="871.25" y2="412.5" stroke="black" stroke-width="1" />
<line x1="871.25" y1="401.5" x2="871.25" y2="423.5" stroke="black" stroke-width="1" />
<text x="500" y="431.5" font-size="1.2em" font-weight="bold" text-anchor="middle" dominant-baseline="central" fill="black"><tspan x="500" dy="0">148.50 mm</tspan></text>
<line x1="128.75" y1="401.5" x2="128.75" y2="423.5" stroke="black" stroke-width="1" />
<line x1="128.75" y1="412.5" x2="871.25" y2="412.5" stroke="black" stroke-width="1" />
<line x1="871.25" y1="401.5" x2="871.25" y2="423.5" stroke="black" stroke-width="1" />
<text x="500" y="393.5" font-size="1.2em" font-weight="bold" text-anchor="middle" dominant-baseline="central" fill="black"><tspan x="500" dy="0">Total Length</tspan></text>
<line x1="536.25" y1="341.5" x2="536.25" y2="363.5" stroke="black" stroke-width="1" />
<line x1="536.25" y1="352.5" x2="731.25" y2="352.5" stroke="black" stroke-width="1" />
<line x1="731.25" y1="341.5" x2="731.25" y2="363.5" stroke="black" stroke-width="1" />
<text x="633.75" y="333.5" font-size="1.2em" font-weight="bold" text-anchor="middle" dominant-baseline="central" fill="black"><tspan x="633.75" dy="0">39.00 mm</tspan></text>
<line x1="536.25" y1="341.5" x2="536.25" y2="363.5" stroke="black" stroke-width="1" />
<line x1="536.25" y1="352.5" x2="731.25" y2="352.5" stroke="black" stroke-width="1" />
<line x1="731.25" y1="341.5" x2="731.25" y2="363.5" stroke="black" stroke-width="1" />
<text x="633.75" y="371.5" font-size="1.2em" font-weight="bold" text-anchor="middle" dominant-baseline="central" fill="black"><tspan x="633.75" dy="0">clip</tspan></text>
<line x1="208.75" y1="341.5" x2="208.75" y2="363.5" stroke="black" stroke-width="1" />
<line x1="208.75" y1="352.5" x2="356.25" y2="352.5" stroke="black" stroke-width="1" />
<line x1="356.25" y1="341.5" x2="356.25" y2="363.5" stroke="black" stroke-width="1" />
<text x="282.5" y="333.5" font-size="1.2em" font-weight="bold" text-anchor="middle" dominant-baseline="central" fill="black"><tspan x="282.5" dy="0">29.50 mm</tspan></text>
<line x1="208.75" y1="341.5" x2="208.75" y2="363.5" stroke="black" stroke-width="1" />
<line x1="208.75" y1="352.5" x2="356.25" y2="352.5" stroke="black" stroke-width="1" />
<line x1="356.25" y1="341.5" x2="356.25" y2="363.5" stroke="black" stroke-width="1" />
<text x="282.5" y="371.5" font-size="1.2em" font-weight="bold" text-anchor="middle" dominant-baseline="central" fill="black"><tspan x="282.5" dy="0">grip</tspan></text>
<line x1="414" y1="524" x2="414" y2="562" stroke="black" stroke-linecap="round"  stroke-width="2" />
<line x1="240" y1="540" x2="414" y2="540" stroke-linecap="round" stroke="black"  stroke-width="2" />
<line x1="246" y1="544" x2="414" y2="544" stroke-linecap="round" stroke="black"  stroke-width="2" />
<text x="500" y="540" font-size="2.4em" font-weight="bold" text-anchor="middle" dominant-baseline="central">Variants</text>
<line x1="586" y1="540" x2="760" y2="540" stroke-linecap="round" stroke="black"  stroke-width="2" />
<line x1="586" y1="544" x2="754" y2="544" stroke-linecap="round" stroke="black"  stroke-width="2" />
<line x1="586" y1="524" x2="586" y2="562" stroke="black" stroke-linecap="round"  stroke-width="2" />


<!-- renderSideComponent: jaws -->


<!-- renderPart: cone -->
<path d="M128.7 631.875 L140.05 630 L140.05 650 L128.7 648.125 L128.7 631.875" stroke-width="0" stroke="none" stroke-linejoin="round" fill="#b4b8b9" fill-opacity="1"/>
<path d="M128.7 631.875 L140.05 630 M140.05 650 L128.7 648.125" stroke-width="0.5" stroke="black" stroke-linejoin="round" fill="#b4b8b9" fill-opacity="1"/>
<!-- !right !both --><path d="M140.05 630 L140.05 650" stroke-width="0.5" stroke="black" stroke-linejoin="round" fill="#b4b8b9" fill-opacity="1"/>
<!-- !left !both --><path d="M128.7 631.875 L128.7 648.125" stroke-width="0.5" stroke="black" stroke-linejoin="round" fill="#b4b8b9" fill-opacity="1"/>


<!-- renderSideComponent: tip -->


<!-- renderPart: cone -->
<path d="M139.95 626.875 L208.8 619.375 L208.8 660.625 L139.95 653.125 L139.95 626.875" stroke-width="0" stroke="none" stroke-linejoin="round" fill="#b4b8b9" fill-opacity="1"/>
<path d="M139.95 626.875 L208.8 619.375 M208.8 660.625 L139.95 653.125" stroke-width="0.5" stroke="black" stroke-linejoin="round" fill="#b4b8b9" fill-opacity="1"/>
<!-- !right !both --><path d="M208.8 619.375 L208.8 660.625" stroke-width="0.5" stroke="black" stroke-linejoin="round" fill="#b4b8b9" fill-opacity="1"/>
<!-- !left !both --><path d="M139.95 626.875 L139.95 653.125" stroke-width="0.5" stroke="black" stroke-linejoin="round" fill="#b4b8b9" fill-opacity="1"/>


<!-- renderSideComponent: grip -->


<!-- renderPart: cylinder -->
<path d="M208.7 619.375 L356.3 619.375 L356.3 660.625 L208.7 660.625 L208.7 619.375" stroke-width="0" stroke="none" stroke-linejoin="round" fill="#b4b8b9" fill-opacity="1"/>
<path d="M208.7 619.375 L356.3 619.375 M356.3 660.625 L208.7 660.625" stroke-width="0.5" stroke="black" stroke-linejoin="round" fill="#b4b8b9" fill-opacity="1"/>
<!-- !right !both --><path d="M356.3 619.375 L356.3 660.625" stroke-width="0.5" stroke="black" stroke-linejoin="round" fill="#b4b8b9" fill-opacity="1"/>
<!-- !left !both --><path d="M208.7 619.375 L208.7 660.625" stroke-width="0.5" stroke="black" stroke-linejoin="round" fill="#b4b8b9" fill-opacity="1"/>
<!-- DEFAULT FINISH: knurled --><path d="M208.75 619.375 L356.25 619.375 L356.25 660.625 L208.75 660.625 Z" stroke-width="0.5" stroke="black" fill="url(#knurled)"/>


<!-- renderSideComponent: body -->


<!-- renderPart: hexagonal -->
<path d="M356.2 620 L693.8 620 L693.8 660 L356.2 660 L356.2 620" stroke-width="0" stroke="none" stroke-linejoin="round" fill="#b4b8b9" fill-opacity="1"/>
<path d="M356.2 620 L693.8 620 M693.8 660 L356.2 660" stroke-width="0.5" stroke="black" stroke-linejoin="round" fill="#b4b8b9" fill-opacity="1"/>
<!-- !right !both --><path d="M693.8 620 L693.8 660" stroke-width="0.5" stroke="black" stroke-linejoin="round" fill="#b4b8b9" fill-opacity="1"/>
<!-- !left !both --><path d="M356.2 620 L356.2 660" stroke-width="0.5" stroke="black" stroke-linejoin="round" fill="#b4b8b9" fill-opacity="1"/>
<line x1="356.25" y1="640" x2="693.75" y2="640" stroke-width="1.5" stroke="gray" fill="gray" stroke-opacity="1.0"/>
<line x1="356.25" y1="640" x2="693.75" y2="640" stroke-width="0.5" stroke="black" fill="none" stroke-opacity="0.5"/>


<!-- renderSideComponent: clip -->
<path d="M538.5 605.875 Q561.25 629.375 571.25 605.875 Z" stroke-width="4" stroke="black" fill="dimgray" stroke-linecap="round" />
<line x1="536.25" y1="604.375" x2="718.75" y2="604.375" stroke-width="4" stroke="black" fill="dimgray" stroke-linecap="round" />
<path d="M718.75 604.375 Q738.75 611.875 718.75 618.125" stroke-width="4" stroke="black" fill="none" stroke-linecap="round" />


<!-- renderPart: cylinder -->
<path d="M693.7 617.5 L721.3 617.5 L713.8 662.5 L693.7 662.5 L693.7 617.5" stroke-width="0" stroke="none" stroke-linejoin="round" fill="#b4b8b9" fill-opacity="1"/>
<path d="M693.7 617.5 L721.3 617.5 M713.8 662.5 L693.7 662.5" stroke-width="0.5" stroke="black" stroke-linejoin="round" fill="#b4b8b9" fill-opacity="1"/>
<!-- !right !both --><path d="M721.3 617.5 L713.8 662.5" stroke-width="0.5" stroke="black" stroke-linejoin="round" fill="#b4b8b9" fill-opacity="1"/>
<!-- !left !both --><path d="M693.7 617.5 L693.7 662.5" stroke-width="0.5" stroke="black" stroke-linejoin="round" fill="#b4b8b9" fill-opacity="1"/>
<path d="M538.5 605.875 Q561.25 628.375 571.25 605.875 Z" stroke-width="3" stroke="#b4b8b9" fill="#b4b8b9" stroke-linecap="round" />
<rect x="538.5" y="605.875" width="35" height="-12.5" stroke-width="3" stroke="#b4b8b9" fill="#b4b8b9" stroke-linecap="round" />
<line x1="536.25" y1="604.375" x2="718.75" y2="604.375" stroke-width="3" stroke="#b4b8b9" fill="#b4b8b9" stroke-linecap="round" />
<path d="M718.75 604.375 Q738.75 611.875 718.75 618.125" stroke-width="3" stroke="#b4b8b9" fill="none" stroke-linecap="round" />


<!-- renderSideComponent: tail -->


<!-- renderPart: cylinder -->
<path d="M721.2 620 L741.3 620 L741.3 660 L714.575 660 L721.2 620" stroke-width="0" stroke="none" stroke-linejoin="round" fill="#b4b8b9" fill-opacity="1"/>
<path d="M721.2 620 L741.3 620 M741.3 660 L714.575 660" stroke-width="0.5" stroke="black" stroke-linejoin="round" fill="#b4b8b9" fill-opacity="1"/>
<!-- !right !both --><path d="M741.3 620 L741.3 660" stroke-width="0.5" stroke="black" stroke-linejoin="round" fill="#b4b8b9" fill-opacity="1"/>
<!-- !left !both --><path d="M721.2 620 L714.575 660" stroke-width="0.5" stroke="black" stroke-linejoin="round" fill="#b4b8b9" fill-opacity="1"/>


<!-- renderSideComponent: indicator -->


<!-- renderPart: cylinder -->
<path d="M741.2 619.375 L788.8 619.375 L788.8 660.625 L741.2 660.625 L741.2 619.375" stroke-width="0" stroke="none" stroke-linejoin="round" fill="#b4b8b9" fill-opacity="1"/>
<path d="M741.2 619.375 L788.8 619.375 M788.8 660.625 L741.2 660.625" stroke-width="0.5" stroke="black" stroke-linejoin="round" fill="#b4b8b9" fill-opacity="1"/>
<!-- !right !both --><path d="M788.8 619.375 L788.8 660.625" stroke-width="0.5" stroke="black" stroke-linejoin="round" fill="#b4b8b9" fill-opacity="1"/>
<!-- !left !both --><path d="M741.2 619.375 L741.2 660.625" stroke-width="0.5" stroke="black" stroke-linejoin="round" fill="#b4b8b9" fill-opacity="1"/>
<!-- DEFAULT FINISH: knurled --><path d="M741.25 619.375 L788.75 619.375 L788.75 660.625 L741.25 660.625 Z" stroke-width="0.5" stroke="black" fill="url(#knurled)"/>
<rect x="751.25" y="629.6875" width="27.5" height="20.625" rx="3" ry="3" stroke-width="1" stroke="black" fill="#b4b8b9"/>
<text x="765" y="640" text-anchor="middle" dominant-baseline="central"><tspan stroke="dimgray" stroke-width="0.5" font-family="sans-serif" fill="black" textLength="{this.width * 5 - 24}" > HB</tspan></text>

<!-- renderSideComponent: foot -->


<!-- renderPart: cylinder -->
<path d="M788.7 620 L793.8 620 L793.8 660 L788.7 660 L788.7 620" stroke-width="0" stroke="none" stroke-linejoin="round" fill="#b4b8b9" fill-opacity="1"/>
<path d="M788.7 620 L793.8 620 M793.8 660 L788.7 660" stroke-width="0.5" stroke="black" stroke-linejoin="round" fill="#b4b8b9" fill-opacity="1"/>
<!-- !right !both --><path d="M793.8 620 L793.8 660" stroke-width="0.5" stroke="black" stroke-linejoin="round" fill="#b4b8b9" fill-opacity="1"/>
<!-- !left !both --><path d="M788.7 620 L788.7 660" stroke-width="0.5" stroke="black" stroke-linejoin="round" fill="#b4b8b9" fill-opacity="1"/>


<!-- renderPart: cylinder -->
<path d="M793.7 620 L800.05 620 L800.05 660 L793.7 660 L793.7 620" stroke-width="0" stroke="none" stroke-linejoin="round" fill="red" fill-opacity="1"/>
<path d="M793.7 620 L800.05 620 M800.05 660 L793.7 660" stroke-width="0.5" stroke="black" stroke-linejoin="round" fill="red" fill-opacity="1"/>
<!-- !right !both --><path d="M800.05 620 L800.05 660" stroke-width="0.5" stroke="black" stroke-linejoin="round" fill="red" fill-opacity="1"/>
<!-- !left !both --><path d="M793.7 620 L793.7 660" stroke-width="0.5" stroke="black" stroke-linejoin="round" fill="red" fill-opacity="1"/>


<!-- renderPart: cylinder -->
<path d="M799.95 620 L806.3 620 L806.3 660 L799.95 660 L799.95 620" stroke-width="0" stroke="none" stroke-linejoin="round" fill="#b4b8b9" fill-opacity="1"/>
<path d="M799.95 620 L806.3 620 M806.3 660 L799.95 660" stroke-width="0.5" stroke="black" stroke-linejoin="round" fill="#b4b8b9" fill-opacity="1"/>
<!-- !right !both --><path d="M806.3 620 L806.3 660" stroke-width="0.5" stroke="black" stroke-linejoin="round" fill="#b4b8b9" fill-opacity="1"/>
<!-- !left !both --><path d="M799.95 620 L799.95 660" stroke-width="0.5" stroke="black" stroke-linejoin="round" fill="#b4b8b9" fill-opacity="1"/>


<!-- renderSideComponent: cap -->


<!-- renderPart: cylinder -->
<path d="M806.2 626.25 L836.3 626.25 L836.3 653.75 L806.2 653.75 L806.2 626.25" stroke-width="0" stroke="none" stroke-linejoin="round" fill="#b4b8b9" fill-opacity="1"/>
<path d="M806.2 626.25 L836.3 626.25 M836.3 653.75 L806.2 653.75" stroke-width="0.5" stroke="black" stroke-linejoin="round" fill="#b4b8b9" fill-opacity="1"/>
<!-- !right !both --><path d="M836.3 626.25 L836.3 653.75" stroke-width="0.5" stroke="black" stroke-linejoin="round" fill="#b4b8b9" fill-opacity="1"/>
<!-- !left !both --><path d="M806.2 626.25 L806.2 653.75" stroke-width="0.5" stroke="black" stroke-linejoin="round" fill="#b4b8b9" fill-opacity="1"/>


<!-- renderPart: cylinder -->
<path d="M836.2 627.5 L840.05 627.5 L840.05 652.5 L836.2 652.5 L836.2 627.5" stroke-width="0" stroke="none" stroke-linejoin="round" fill="#b4b8b9" fill-opacity="1"/>
<path d="M836.2 627.5 L840.05 627.5 M840.05 652.5 L836.2 652.5" stroke-width="0.5" stroke="black" stroke-linejoin="round" fill="#b4b8b9" fill-opacity="1"/>
<!-- !right !both --><path d="M840.05 627.5 L840.05 652.5" stroke-width="0.5" stroke="black" stroke-linejoin="round" fill="#b4b8b9" fill-opacity="1"/>
<!-- !left !both --><path d="M836.2 627.5 L836.2 652.5" stroke-width="0.5" stroke="black" stroke-linejoin="round" fill="#b4b8b9" fill-opacity="1"/>


<!-- renderPart: cylinder -->
<path d="M839.95 626.25 L847.55 626.25 L847.55 653.75 L839.95 653.75 L839.95 626.25" stroke-width="0" stroke="none" stroke-linejoin="round" fill="#b4b8b9" fill-opacity="1"/>
<path d="M839.95 626.25 L847.55 626.25 M847.55 653.75 L839.95 653.75" stroke-width="0.5" stroke="black" stroke-linejoin="round" fill="#b4b8b9" fill-opacity="1"/>
<!-- !right !both --><path d="M847.55 626.25 L847.55 653.75" stroke-width="0.5" stroke="black" stroke-linejoin="round" fill="#b4b8b9" fill-opacity="1"/>
<!-- !left !both --><path d="M839.95 626.25 L839.95 653.75" stroke-width="0.5" stroke="black" stroke-linejoin="round" fill="#b4b8b9" fill-opacity="1"/>


<!-- renderPart: cylinder -->
<path d="M847.45 627.5 L851.3 627.5 L851.3 652.5 L847.45 652.5 L847.45 627.5" stroke-width="0" stroke="none" stroke-linejoin="round" fill="#b4b8b9" fill-opacity="1"/>
<path d="M847.45 627.5 L851.3 627.5 M851.3 652.5 L847.45 652.5" stroke-width="0.5" stroke="black" stroke-linejoin="round" fill="#b4b8b9" fill-opacity="1"/>
<!-- !right !both --><path d="M851.3 627.5 L851.3 652.5" stroke-width="0.5" stroke="black" stroke-linejoin="round" fill="#b4b8b9" fill-opacity="1"/>
<!-- !left !both --><path d="M847.45 627.5 L847.45 652.5" stroke-width="0.5" stroke="black" stroke-linejoin="round" fill="#b4b8b9" fill-opacity="1"/>


<!-- renderPart: cylinder -->
<path d="M851.2 626.25 L858.8 626.25 L858.8 653.75 L851.2 653.75 L851.2 626.25" stroke-width="0" stroke="none" stroke-linejoin="round" fill="#b4b8b9" fill-opacity="1"/>
<path d="M851.2 626.25 L858.8 626.25 M858.8 653.75 L851.2 653.75" stroke-width="0.5" stroke="black" stroke-linejoin="round" fill="#b4b8b9" fill-opacity="1"/>
<!-- !right !both --><path d="M858.8 626.25 L858.8 653.75" stroke-width="0.5" stroke="black" stroke-linejoin="round" fill="#b4b8b9" fill-opacity="1"/>
<!-- !left !both --><path d="M851.2 626.25 L851.2 653.75" stroke-width="0.5" stroke="black" stroke-linejoin="round" fill="#b4b8b9" fill-opacity="1"/>


<!-- renderPart: cylinder -->
<path d="M858.7 627.5 L862.55 627.5 L862.55 652.5 L858.7 652.5 L858.7 627.5" stroke-width="0" stroke="none" stroke-linejoin="round" fill="#b4b8b9" fill-opacity="1"/>
<path d="M858.7 627.5 L862.55 627.5 M862.55 652.5 L858.7 652.5" stroke-width="0.5" stroke="black" stroke-linejoin="round" fill="#b4b8b9" fill-opacity="1"/>
<!-- !right !both --><path d="M862.55 627.5 L862.55 652.5" stroke-width="0.5" stroke="black" stroke-linejoin="round" fill="#b4b8b9" fill-opacity="1"/>
<!-- !left !both --><path d="M858.7 627.5 L858.7 652.5" stroke-width="0.5" stroke="black" stroke-linejoin="round" fill="#b4b8b9" fill-opacity="1"/>


<!-- renderPart: cylinder -->
<path d="M862.45 626.25 L871.3 626.25 L871.3 653.75 L862.45 653.75 L862.45 626.25" stroke-width="0" stroke="none" stroke-linejoin="round" fill="#b4b8b9" fill-opacity="1"/>
<path d="M862.45 626.25 L871.3 626.25 M871.3 653.75 L862.45 653.75" stroke-width="0.5" stroke="black" stroke-linejoin="round" fill="#b4b8b9" fill-opacity="1"/>
<!-- !right !both --><path d="M871.3 626.25 L871.3 653.75" stroke-width="0.5" stroke="black" stroke-linejoin="round" fill="#b4b8b9" fill-opacity="1"/>
<!-- !left !both --><path d="M862.45 626.25 L862.45 653.75" stroke-width="0.5" stroke="black" stroke-linejoin="round" fill="#b4b8b9" fill-opacity="1"/>
<text x="500" y="690" font-size="1.2em" font-weight="bold" text-anchor="middle" dominant-baseline="central">silver</text>
</g><text x="50%" y="740" font-size="1.1em" font-weight="bold" text-anchor="middle" dominant-baseline="middle">Copyright (c) // Synapticloop // The Mechanical Pencil Database (tmpdb)</text>
<text x="50%" y="760" font-size="1.1em" font-weight="bold" text-anchor="middle" dominant-baseline="middle">Licensed under Creative Commons Attribution-NonCommercial-ShareAlike 4.0 International</text>
<text x="990" y="770" font-size="0.5em" font-weight="bold" text-anchor="end" dominant-baseline="middle">SVGTechnicalGroupedRenderer</text>
</svg>