<svg xmlns="http://www.w3.org/2000/svg" width="1000" height="200">
 <pattern id="knurled-large" patternUnits="userSpaceOnUse" width="12" height="12">
<path stroke="dimgray" stroke-linecap="round" stroke-width="1" d="M 6,6 L 12,12"/>
<path stroke="dimgray" stroke-linecap="round" stroke-width="1" d="M 6,6 L 0,12"/>
<path stroke="gray" stroke-linecap="round" stroke-width="1" d="M 6,6 L 12,0" />
<path stroke="gray" stroke-linecap="round" stroke-width="1" d="M 6,6 L 0,0" />
</pattern><pattern id="knurled-small" patternUnits="userSpaceOnUse" width="4" height="4">
<path stroke="dimgray" stroke-linecap="round" stroke-width="1" d="M 2,2 L 4,4"/>
<path stroke="dimgray" stroke-linecap="round" stroke-width="1" d="M 2,2 L 0,4"/>
<path stroke="gray" stroke-linecap="round" stroke-width="1" d="M 2,2 L 4,0" />
<path stroke="gray" stroke-linecap="round" stroke-width="1" d="M 2,2 L 0,0" />
</pattern><pattern id="knurled" patternUnits="userSpaceOnUse" width="8" height="8">
<path stroke="dimgray" stroke-linecap="round" stroke-width="1" d="M 4,4 L 8,8"/>
<path stroke="dimgray" stroke-linecap="round" stroke-width="1" d="M 4,4 L 0,8"/>
<path stroke="gray" stroke-linecap="round" stroke-width="1" d="M 4,4 L 8,0" />
<path stroke="gray" stroke-linecap="round" stroke-width="1" d="M 4,4 L 0,0" />
</pattern><pattern id="lined" patternUnits="userSpaceOnUse" width="3" height="3">
<path stroke="dimgray" stroke-linecap="round" stroke-width="1" d="M 0,0 L 3,0"/>
</pattern><pattern id="ridged" patternUnits="userSpaceOnUse" width="3" height="3">
<path stroke="dimgray" stroke-linecap="round" stroke-width="1" d="M 0,0 L 0,3"/>
</pattern><pattern id="spring" patternUnits="userSpaceOnUse" width="8" height="60">
<path stroke="dimgray" stroke-linecap="round" stroke-width="2" d="M 1,1 L 8,60"/>
<path stroke="white" stroke-linecap="round" stroke-width="1" d="M 1,1 L 8,60"/>
</pattern><g transform="rotate(0 0 0)">


<!-- renderSideComponent: tip -->


<!-- renderPart: cylinder -->
<path d="M151.825 88.125 L188.175 88.125 L188.175 111.875 L151.825 111.875 L151.825 88.125" stroke-width="0" stroke="none" stroke-linejoin="round" fill="silver" fill-opacity="1"/>
<path d="M151.825 88.125 L188.175 88.125 M188.175 111.875 L151.825 111.875" stroke-width="0.5" stroke="black" stroke-linejoin="round" fill="silver" fill-opacity="1"/>
<!-- !right !both --><path d="M188.175 88.125 L188.175 111.875" stroke-width="0.5" stroke="black" stroke-linejoin="round" fill="silver" fill-opacity="1"/>
<!-- !left !both --><path d="M151.825 88.125 L151.825 111.875" stroke-width="0.5" stroke="black" stroke-linejoin="round" fill="silver" fill-opacity="1"/>


<!-- renderPart: cone -->
<path d="M188.075 88.125 L194.425 79.375 L194.425 120.625 L188.075 111.875 L188.075 88.125" stroke-width="0" stroke="none" stroke-linejoin="round" fill="silver" fill-opacity="1"/>
<path d="M188.075 88.125 L194.425 79.375 M194.425 120.625 L188.075 111.875" stroke-width="0.5" stroke="black" stroke-linejoin="round" fill="silver" fill-opacity="1"/>
<!-- !right !both --><path d="M194.425 79.375 L194.425 120.625" stroke-width="0.5" stroke="black" stroke-linejoin="round" fill="silver" fill-opacity="1"/>
<!-- !left !both --><path d="M188.075 88.125 L188.075 111.875" stroke-width="0.5" stroke="black" stroke-linejoin="round" fill="silver" fill-opacity="1"/>


<!-- renderSideComponent: shaft -->


<!-- renderSideComponent: spring -->


<!-- renderSideComponent: grip -->


<!-- renderPart: cylinder -->
<path d="M194.325 77.5 L354.425 77.5 L354.425 122.5 L194.325 122.5 L194.325 77.5" stroke-width="0" stroke="none" stroke-linejoin="round" fill="silver" fill-opacity="1"/>
<path d="M194.325 77.5 L354.425 77.5 M354.425 122.5 L194.325 122.5" stroke-width="0.5" stroke="black" stroke-linejoin="round" fill="silver" fill-opacity="1"/>
<!-- !right !both --><path d="M354.425 77.5 L354.425 122.5" stroke-width="0.5" stroke="black" stroke-linejoin="round" fill="silver" fill-opacity="1"/>
<!-- !left !both --><path d="M194.325 77.5 L194.325 122.5" stroke-width="0.5" stroke="black" stroke-linejoin="round" fill="silver" fill-opacity="1"/>
<!-- DEFAULT FINISH: knurled --><path d="M194.375 77.5 L354.375 77.5 L354.375 122.5 L194.375 122.5 Z" stroke-width="0.5" stroke="black" fill="url(#knurled)"/>


<!-- renderSideComponent: body -->


<!-- renderPart: cylinder -->
<path d="M354.325 77.5 L786.925 77.5 L786.925 122.5 L354.325 122.5 L354.325 77.5" stroke-width="0" stroke="none" stroke-linejoin="round" fill="#222222" fill-opacity="1"/>
<path d="M354.325 77.5 L786.925 77.5 M786.925 122.5 L354.325 122.5" stroke-width="0.5" stroke="black" stroke-linejoin="round" fill="#222222" fill-opacity="1"/>
<!-- !right !both --><path d="M786.925 77.5 L786.925 122.5" stroke-width="0.5" stroke="black" stroke-linejoin="round" fill="#222222" fill-opacity="1"/>
<!-- !left !both --><path d="M354.325 77.5 L354.325 122.5" stroke-width="0.5" stroke="black" stroke-linejoin="round" fill="#222222" fill-opacity="1"/>


<!-- renderSideComponent: clip -->
<path d="M589 59.75 Q601.875 89.75 620.625 63.5" stroke-width="6" stroke="black" fill="none" stroke-linecap="round" />
<line x1="589" y1="58.5" x2="789.375" y2="58.5" stroke-width="5" stroke="black" fill="dimgray" stroke-linecap="round" />
<line x1="789.375" y1="58.5" x2="789.375" y2="77.25" stroke-width="6" stroke="black" fill="dimgray" stroke-linecap="round" />


<!-- renderPart: cylinder -->
<path d="M786.825 77.5 L791.925 77.5 L791.925 122.5 L786.825 122.5 L786.825 77.5" stroke-width="0" stroke="none" stroke-linejoin="round" fill="silver" fill-opacity="1"/>
<path d="M786.825 77.5 L791.925 77.5 M791.925 122.5 L786.825 122.5" stroke-width="0.5" stroke="black" stroke-linejoin="round" fill="silver" fill-opacity="1"/>
<!-- !right !both --><path d="M791.925 77.5 L791.925 122.5" stroke-width="0.5" stroke="black" stroke-linejoin="round" fill="silver" fill-opacity="1"/>
<!-- !left !both --><path d="M786.825 77.5 L786.825 122.5" stroke-width="0.5" stroke="black" stroke-linejoin="round" fill="silver" fill-opacity="1"/>
<path d="M589 59.75 Q601.875 89.75 620.625 63.5" stroke-width="5" stroke="silver" fill="none" stroke-linecap="round" />
<line x1="589" y1="58.5" x2="789.375" y2="58.5" stroke-width="4" stroke="silver" fill="silver" stroke-linecap="round" />
<line x1="789.375" y1="58.5" x2="789.375" y2="77.25" stroke-width="5" stroke="silver" fill="silver" stroke-linecap="round" />


<!-- renderSideComponent: tail -->


<!-- renderPart: cylinder -->
<path d="M791.825 78.125 L809.425 78.125 L809.425 121.875 L791.825 121.875 L791.825 78.125" stroke-width="0" stroke="none" stroke-linejoin="round" fill="#222222" fill-opacity="1"/>
<path d="M791.825 78.125 L809.425 78.125 M809.425 121.875 L791.825 121.875" stroke-width="0.5" stroke="black" stroke-linejoin="round" fill="#222222" fill-opacity="1"/>
<!-- !right !both --><path d="M809.425 78.125 L809.425 121.875" stroke-width="0.5" stroke="black" stroke-linejoin="round" fill="#222222" fill-opacity="1"/>
<!-- !left !both --><path d="M791.825 78.125 L791.825 121.875" stroke-width="0.5" stroke="black" stroke-linejoin="round" fill="#222222" fill-opacity="1"/>


<!-- renderSideComponent: cap -->


<!-- renderPart: cylinder -->
<path d="M809.325 88.125 L833.175 88.125 L833.175 111.875 L809.325 111.875 L809.325 88.125" stroke-width="0" stroke="none" stroke-linejoin="round" fill="silver" fill-opacity="1"/>
<path d="M809.325 88.125 L833.175 88.125 M833.175 111.875 L809.325 111.875" stroke-width="0.5" stroke="black" stroke-linejoin="round" fill="silver" fill-opacity="1"/>
<!-- !right !both --><path d="M833.175 88.125 L833.175 111.875" stroke-width="0.5" stroke="black" stroke-linejoin="round" fill="silver" fill-opacity="1"/>


<!-- renderPart: cylinder -->
<path d="M833.075 77.5 L848.175 77.5 L848.175 122.5 L833.075 122.5 L833.075 77.5" stroke-width="0" stroke="none" stroke-linejoin="round" fill="silver" fill-opacity="1"/>
<path d="M833.075 77.5 L848.175 77.5 M848.175 122.5 L833.075 122.5" stroke-width="0.5" stroke="black" stroke-linejoin="round" fill="silver" fill-opacity="1"/>
<!-- !right !both --><path d="M848.175 77.5 L848.175 122.5" stroke-width="0.5" stroke="black" stroke-linejoin="round" fill="silver" fill-opacity="1"/>
<!-- !left !both --><path d="M833.075 77.5 L833.075 122.5" stroke-width="0.5" stroke="black" stroke-linejoin="round" fill="silver" fill-opacity="1"/>
</g><text x="50%" y="160" font-size="1.1em" font-weight="bold" text-anchor="middle" dominant-baseline="middle">Copyright (c) // Synapticloop // The Mechanical Pencil Database (tmpdb)</text>
<text x="50%" y="180" font-size="1.1em" font-weight="bold" text-anchor="middle" dominant-baseline="middle">Licensed under Creative Commons Attribution-NonCommercial-ShareAlike 4.0 International</text>
<text x="990" y="190" font-size="0.5em" font-weight="bold" text-anchor="end" dominant-baseline="middle">SVGPencilRenderer</text>
</svg>