<svg xmlns="http://www.w3.org/2000/svg" width="1000" height="1140">
 <pattern id="knurled-large" patternUnits="userSpaceOnUse" width="12" height="12">
<path stroke="dimgray" stroke-linecap="round" stroke-width="1" d="M 6,6 L 12,12"/>
<path stroke="dimgray" stroke-linecap="round" stroke-width="1" d="M 6,6 L 0,12"/>
<path stroke="gray" stroke-linecap="round" stroke-width="1" d="M 6,6 L 12,0" />
<path stroke="gray" stroke-linecap="round" stroke-width="1" d="M 6,6 L 0,0" />
</pattern><pattern id="knurled-small" patternUnits="userSpaceOnUse" width="4" height="4">
<path stroke="dimgray" stroke-linecap="round" stroke-width="1" d="M 2,2 L 4,4"/>
<path stroke="dimgray" stroke-linecap="round" stroke-width="1" d="M 2,2 L 0,4"/>
<path stroke="gray" stroke-linecap="round" stroke-width="1" d="M 2,2 L 4,0" />
<path stroke="gray" stroke-linecap="round" stroke-width="1" d="M 2,2 L 0,0" />
</pattern><pattern id="knurled" patternUnits="userSpaceOnUse" width="8" height="8">
<path stroke="dimgray" stroke-linecap="round" stroke-width="1" d="M 4,4 L 8,8"/>
<path stroke="dimgray" stroke-linecap="round" stroke-width="1" d="M 4,4 L 0,8"/>
<path stroke="gray" stroke-linecap="round" stroke-width="1" d="M 4,4 L 8,0" />
<path stroke="gray" stroke-linecap="round" stroke-width="1" d="M 4,4 L 0,0" />
</pattern><pattern id="lined" patternUnits="userSpaceOnUse" width="3" height="3">
<path stroke="dimgray" stroke-linecap="round" stroke-width="1" d="M 0,0 L 3,0"/>
</pattern><pattern id="ridged" patternUnits="userSpaceOnUse" width="3" height="3">
<path stroke="dimgray" stroke-linecap="round" stroke-width="1" d="M 0,0 L 0,3"/>
</pattern><pattern id="spring" patternUnits="userSpaceOnUse" width="8" height="60">
<path stroke="dimgray" stroke-linecap="round" stroke-width="2" d="M 1,1 L 8,60"/>
<path stroke="white" stroke-linecap="round" stroke-width="1" d="M 1,1 L 8,60"/>
</pattern><rect x="0" y="0" width="1000" height="1140" fill="white" stroke="black" stroke-width="4" />
<rect x="2" y="2" width="996" height="1136" fill="white" stroke="dimgray" stroke-width="1" />
<g transform="rotate(0 0 0)">
<text x="30" y="50" font-size="2.0em" font-weight="bold"> Kita Boshi // Adult Pencil (Model #: OTP-580)</text>
<line x1="360" y1="124" x2="360" y2="162" stroke="black" stroke-linecap="round"  stroke-width="2" />
<line x1="240" y1="140" x2="360" y2="140" stroke-linecap="round" stroke="black"  stroke-width="2" />
<line x1="246" y1="144" x2="360" y2="144" stroke-linecap="round" stroke="black"  stroke-width="2" />
<text x="500" y="140" font-size="2.4em" font-weight="bold" text-anchor="middle" dominant-baseline="central">Measurements</text>
<line x1="640" y1="140" x2="760" y2="140" stroke-linecap="round" stroke="black"  stroke-width="2" />
<line x1="640" y1="144" x2="754" y2="144" stroke-linecap="round" stroke="black"  stroke-width="2" />
<line x1="640" y1="124" x2="640" y2="162" stroke="black" stroke-linecap="round"  stroke-width="2" />
<line x1="40" y1="300" x2="960" y2="300" stroke-linecap="round" stroke="#5f5f5f" stroke-dasharray="2" stroke-width="1" />
<line x1="20" y1="300" x2="60" y2="300" stroke-linecap="round" stroke="#000000"  stroke-width="1" />
<line x1="40" y1="280" x2="40" y2="320" stroke="#000000" stroke-linecap="round"  stroke-width="1" />
<circle r="10" cx="40" cy="300" fill="white" fill-opacity="0" stroke="#000000" stroke-width="1"  />
<line x1="940" y1="300" x2="980" y2="300" stroke-linecap="round" stroke="#000000"  stroke-width="1" />
<line x1="960" y1="280" x2="960" y2="320" stroke="#000000" stroke-linecap="round"  stroke-width="1" />
<circle r="10" cx="960" cy="300" fill="white" fill-opacity="0" stroke="#000000" stroke-width="1"  />


<!-- renderSideComponent: tip -->


<!-- renderPart: cone -->
<path d="M97.45 291.25 L162.55 280.625 L162.55 319.375 L97.45 308.75 L97.45 291.25" stroke-width="0" stroke="none" stroke-linejoin="round" fill="white" fill-opacity="1"/>
<path d="M97.45 291.25 L162.55 280.625 M162.55 319.375 L97.45 308.75" stroke-width="0.5" stroke="black" stroke-linejoin="round" fill="white" fill-opacity="1"/>
<!-- !left !both --><path d="M97.45 291.25 L97.45 308.75" stroke-width="0.5" stroke="black" stroke-linejoin="round" fill="white" fill-opacity="1"/>


<!-- renderPart: cylinder -->
<path d="M162.45 280.625 L197.55 280.625 L197.55 319.375 L162.45 319.375 L162.45 280.625" stroke-width="0" stroke="none" stroke-linejoin="round" fill="white" fill-opacity="1"/>
<path d="M162.45 280.625 L197.55 280.625 M197.55 319.375 L162.45 319.375" stroke-width="0.5" stroke="black" stroke-linejoin="round" fill="white" fill-opacity="1"/>
<!-- !right !both --><path d="M197.55 280.625 L197.55 319.375" stroke-width="0.5" stroke="black" stroke-linejoin="round" fill="white" fill-opacity="1"/>


<!-- renderSideComponent: body -->


<!-- renderPart: hexagonal -->
<path d="M197.45 280 L856.3 280 L856.3 320 L197.45 320 L197.45 280" stroke-width="0" stroke="none" stroke-linejoin="round" fill="white" fill-opacity="1"/>
<path d="M197.45 280 L856.3 280 M856.3 320 L197.45 320" stroke-width="0.5" stroke="black" stroke-linejoin="round" fill="white" fill-opacity="1"/>
<!-- !right !both --><path d="M856.3 280 L856.3 320" stroke-width="0.5" stroke="black" stroke-linejoin="round" fill="white" fill-opacity="1"/>
<!-- !left !both --><path d="M197.45 280 L197.45 320" stroke-width="0.5" stroke="black" stroke-linejoin="round" fill="white" fill-opacity="1"/>
<line x1="197.5" y1="300" x2="856.25" y2="300" stroke-width="1.5" stroke="gray" fill="gray" stroke-opacity="1.0"/>
<line x1="197.5" y1="300" x2="856.25" y2="300" stroke-width="0.5" stroke="black" fill="none" stroke-opacity="0.5"/>


<!-- renderSideComponent: cap -->


<!-- renderPart: cylinder -->
<path d="M856.2 288.75 L886.3 288.75 L886.3 311.25 L856.2 311.25 L856.2 288.75" stroke-width="0" stroke="none" stroke-linejoin="round" fill="white" fill-opacity="1"/>
<path d="M856.2 288.75 L886.3 288.75 M886.3 311.25 L856.2 311.25" stroke-width="0.5" stroke="black" stroke-linejoin="round" fill="white" fill-opacity="1"/>
<!-- !right !both --><path d="M886.3 288.75 L886.3 311.25" stroke-width="0.5" stroke="black" stroke-linejoin="round" fill="white" fill-opacity="1"/>
<!-- !left !both --><path d="M856.2 288.75 L856.2 311.25" stroke-width="0.5" stroke="black" stroke-linejoin="round" fill="white" fill-opacity="1"/>


<!-- renderPart: cylinder -->
<path d="M886.2 280.625 L900.05 280.625 L900.05 319.375 L886.2 319.375 L886.2 280.625" stroke-width="0" stroke="none" stroke-linejoin="round" fill="white" fill-opacity="1"/>
<path d="M886.2 280.625 L900.05 280.625 M900.05 319.375 L886.2 319.375" stroke-width="0.5" stroke="black" stroke-linejoin="round" fill="white" fill-opacity="1"/>
<!-- !right !both --><path d="M900.05 280.625 L900.05 319.375" stroke-width="0.5" stroke="black" stroke-linejoin="round" fill="white" fill-opacity="1"/>
<!-- !left !both --><path d="M886.2 280.625 L886.2 319.375" stroke-width="0.5" stroke="black" stroke-linejoin="round" fill="white" fill-opacity="1"/>


<!-- renderPart: convex -->
<path d="M900 280.625 Q905 299.375 900 319.375" stroke-width="0.5" stroke="black" stroke-linejoin="round" fill="white" fill-opacity="1"/>
<line x1="97.5" y1="209" x2="97.5" y2="231" stroke="black" stroke-width="1" />
<line x1="97.5" y1="220" x2="197.5" y2="220" stroke="black" stroke-width="1" />
<line x1="197.5" y1="209" x2="197.5" y2="231" stroke="black" stroke-width="1" />
<text x="147.5" y="201" font-size="1.2em" font-weight="bold" text-anchor="middle" dominant-baseline="central" fill="black"><tspan x="147.5" dy="0">20.00 mm</tspan></text>
<line x1="97.5" y1="209" x2="97.5" y2="231" stroke="black" stroke-width="1" />
<line x1="97.5" y1="220" x2="197.5" y2="220" stroke="black" stroke-width="1" />
<line x1="197.5" y1="209" x2="197.5" y2="231" stroke="black" stroke-width="1" />
<text x="147.5" y="239" font-size="1.2em" font-weight="bold" text-anchor="middle" dominant-baseline="central" fill="black"><tspan x="147.5" dy="0">tip</tspan></text>
<line x1="197.5" y1="209" x2="197.5" y2="231" stroke="black" stroke-width="1" />
<line x1="197.5" y1="220" x2="856.25" y2="220" stroke="black" stroke-width="1" />
<line x1="856.25" y1="209" x2="856.25" y2="231" stroke="black" stroke-width="1" />
<text x="526.875" y="201" font-size="1.2em" font-weight="bold" text-anchor="middle" dominant-baseline="central" fill="black"><tspan x="526.875" dy="0">131.75 mm</tspan></text>
<line x1="197.5" y1="209" x2="197.5" y2="231" stroke="black" stroke-width="1" />
<line x1="197.5" y1="220" x2="856.25" y2="220" stroke="black" stroke-width="1" />
<line x1="856.25" y1="209" x2="856.25" y2="231" stroke="black" stroke-width="1" />
<text x="526.875" y="239" font-size="1.2em" font-weight="bold" text-anchor="middle" dominant-baseline="central" fill="black"><tspan x="526.875" dy="0">body</tspan></text>
<line x1="856.25" y1="209" x2="856.25" y2="231" stroke="black" stroke-width="1" />
<line x1="856.25" y1="220" x2="902.5" y2="220" stroke="black" stroke-width="1" />
<line x1="902.5" y1="209" x2="902.5" y2="231" stroke="black" stroke-width="1" />
<text x="879.375" y="201" font-size="1.2em" font-weight="bold" text-anchor="middle" dominant-baseline="central" fill="black"><tspan x="879.375" dy="0">9.25 mm</tspan></text>
<line x1="856.25" y1="209" x2="856.25" y2="231" stroke="black" stroke-width="1" />
<line x1="856.25" y1="220" x2="902.5" y2="220" stroke="black" stroke-width="1" />
<line x1="902.5" y1="209" x2="902.5" y2="231" stroke="black" stroke-width="1" />
<text x="879.375" y="239" font-size="1.2em" font-weight="bold" text-anchor="middle" dominant-baseline="central" fill="black"><tspan x="879.375" dy="0">cap</tspan></text>
<line x1="97.5" y1="399" x2="97.5" y2="421" stroke="black" stroke-width="1" />
<line x1="97.5" y1="410" x2="902.5" y2="410" stroke="black" stroke-width="1" />
<line x1="902.5" y1="399" x2="902.5" y2="421" stroke="black" stroke-width="1" />
<text x="500" y="429" font-size="1.2em" font-weight="bold" text-anchor="middle" dominant-baseline="central" fill="black"><tspan x="500" dy="0">161.00 mm</tspan></text>
<line x1="97.5" y1="399" x2="97.5" y2="421" stroke="black" stroke-width="1" />
<line x1="97.5" y1="410" x2="902.5" y2="410" stroke="black" stroke-width="1" />
<line x1="902.5" y1="399" x2="902.5" y2="421" stroke="black" stroke-width="1" />
<text x="500" y="391" font-size="1.2em" font-weight="bold" text-anchor="middle" dominant-baseline="central" fill="black"><tspan x="500" dy="0">Total Length</tspan></text>
<line x1="414" y1="524" x2="414" y2="562" stroke="black" stroke-linecap="round"  stroke-width="2" />
<line x1="240" y1="540" x2="414" y2="540" stroke-linecap="round" stroke="black"  stroke-width="2" />
<line x1="246" y1="544" x2="414" y2="544" stroke-linecap="round" stroke="black"  stroke-width="2" />
<text x="500" y="540" font-size="2.4em" font-weight="bold" text-anchor="middle" dominant-baseline="central">Variants</text>
<line x1="586" y1="540" x2="760" y2="540" stroke-linecap="round" stroke="black"  stroke-width="2" />
<line x1="586" y1="544" x2="754" y2="544" stroke-linecap="round" stroke="black"  stroke-width="2" />
<line x1="586" y1="524" x2="586" y2="562" stroke="black" stroke-linecap="round"  stroke-width="2" />


<!-- renderSideComponent: tip -->


<!-- renderPart: cone -->
<path d="M97.45 631.25 L162.55 620.625 L162.55 659.375 L97.45 648.75 L97.45 631.25" stroke-width="0" stroke="none" stroke-linejoin="round" fill="silver" fill-opacity="1"/>
<path d="M97.45 631.25 L162.55 620.625 M162.55 659.375 L97.45 648.75" stroke-width="0.5" stroke="black" stroke-linejoin="round" fill="silver" fill-opacity="1"/>
<!-- !left !both --><path d="M97.45 631.25 L97.45 648.75" stroke-width="0.5" stroke="black" stroke-linejoin="round" fill="silver" fill-opacity="1"/>


<!-- renderPart: cylinder -->
<path d="M162.45 620.625 L197.55 620.625 L197.55 659.375 L162.45 659.375 L162.45 620.625" stroke-width="0" stroke="none" stroke-linejoin="round" fill="silver" fill-opacity="1"/>
<path d="M162.45 620.625 L197.55 620.625 M197.55 659.375 L162.45 659.375" stroke-width="0.5" stroke="black" stroke-linejoin="round" fill="silver" fill-opacity="1"/>
<!-- !right !both --><path d="M197.55 620.625 L197.55 659.375" stroke-width="0.5" stroke="black" stroke-linejoin="round" fill="silver" fill-opacity="1"/>


<!-- renderSideComponent: body -->


<!-- renderPart: hexagonal -->
<path d="M197.45 620 L856.3 620 L856.3 660 L197.45 660 L197.45 620" stroke-width="0" stroke="none" stroke-linejoin="round" fill="#c38066" fill-opacity="1"/>
<path d="M197.45 620 L856.3 620 M856.3 660 L197.45 660" stroke-width="0.5" stroke="black" stroke-linejoin="round" fill="#c38066" fill-opacity="1"/>
<!-- !right !both --><path d="M856.3 620 L856.3 660" stroke-width="0.5" stroke="black" stroke-linejoin="round" fill="#c38066" fill-opacity="1"/>
<!-- !left !both --><path d="M197.45 620 L197.45 660" stroke-width="0.5" stroke="black" stroke-linejoin="round" fill="#c38066" fill-opacity="1"/>
<line x1="197.5" y1="640" x2="856.25" y2="640" stroke-width="1.5" stroke="gray" fill="gray" stroke-opacity="1.0"/>
<line x1="197.5" y1="640" x2="856.25" y2="640" stroke-width="0.5" stroke="black" fill="none" stroke-opacity="0.5"/>


<!-- renderSideComponent: cap -->


<!-- renderPart: cylinder -->
<path d="M856.2 628.75 L886.3 628.75 L886.3 651.25 L856.2 651.25 L856.2 628.75" stroke-width="0" stroke="none" stroke-linejoin="round" fill="silver" fill-opacity="1"/>
<path d="M856.2 628.75 L886.3 628.75 M886.3 651.25 L856.2 651.25" stroke-width="0.5" stroke="black" stroke-linejoin="round" fill="silver" fill-opacity="1"/>
<!-- !right !both --><path d="M886.3 628.75 L886.3 651.25" stroke-width="0.5" stroke="black" stroke-linejoin="round" fill="silver" fill-opacity="1"/>
<!-- !left !both --><path d="M856.2 628.75 L856.2 651.25" stroke-width="0.5" stroke="black" stroke-linejoin="round" fill="silver" fill-opacity="1"/>


<!-- renderPart: cylinder -->
<path d="M886.2 620.625 L900.05 620.625 L900.05 659.375 L886.2 659.375 L886.2 620.625" stroke-width="0" stroke="none" stroke-linejoin="round" fill="silver" fill-opacity="1"/>
<path d="M886.2 620.625 L900.05 620.625 M900.05 659.375 L886.2 659.375" stroke-width="0.5" stroke="black" stroke-linejoin="round" fill="silver" fill-opacity="1"/>
<!-- !right !both --><path d="M900.05 620.625 L900.05 659.375" stroke-width="0.5" stroke="black" stroke-linejoin="round" fill="silver" fill-opacity="1"/>
<!-- !left !both --><path d="M886.2 620.625 L886.2 659.375" stroke-width="0.5" stroke="black" stroke-linejoin="round" fill="silver" fill-opacity="1"/>


<!-- renderPart: convex -->
<path d="M900 620.625 Q905 639.375 900 659.375" stroke-width="0.5" stroke="black" stroke-linejoin="round" fill="silver" fill-opacity="1"/>
<text x="500" y="690" font-size="1.2em" font-weight="bold" text-anchor="middle" dominant-baseline="central">natural (OTP-580N)</text>


<!-- renderSideComponent: tip -->


<!-- renderPart: cone -->
<path d="M97.45 751.25 L162.55 740.625 L162.55 779.375 L97.45 768.75 L97.45 751.25" stroke-width="0" stroke="none" stroke-linejoin="round" fill="silver" fill-opacity="1"/>
<path d="M97.45 751.25 L162.55 740.625 M162.55 779.375 L97.45 768.75" stroke-width="0.5" stroke="black" stroke-linejoin="round" fill="silver" fill-opacity="1"/>
<!-- !left !both --><path d="M97.45 751.25 L97.45 768.75" stroke-width="0.5" stroke="black" stroke-linejoin="round" fill="silver" fill-opacity="1"/>


<!-- renderPart: cylinder -->
<path d="M162.45 740.625 L197.55 740.625 L197.55 779.375 L162.45 779.375 L162.45 740.625" stroke-width="0" stroke="none" stroke-linejoin="round" fill="silver" fill-opacity="1"/>
<path d="M162.45 740.625 L197.55 740.625 M197.55 779.375 L162.45 779.375" stroke-width="0.5" stroke="black" stroke-linejoin="round" fill="silver" fill-opacity="1"/>
<!-- !right !both --><path d="M197.55 740.625 L197.55 779.375" stroke-width="0.5" stroke="black" stroke-linejoin="round" fill="silver" fill-opacity="1"/>


<!-- renderSideComponent: body -->


<!-- renderPart: hexagonal -->
<path d="M197.45 740 L856.3 740 L856.3 780 L197.45 780 L197.45 740" stroke-width="0" stroke="none" stroke-linejoin="round" fill="#b33835" fill-opacity="1"/>
<path d="M197.45 740 L856.3 740 M856.3 780 L197.45 780" stroke-width="0.5" stroke="black" stroke-linejoin="round" fill="#b33835" fill-opacity="1"/>
<!-- !right !both --><path d="M856.3 740 L856.3 780" stroke-width="0.5" stroke="black" stroke-linejoin="round" fill="#b33835" fill-opacity="1"/>
<!-- !left !both --><path d="M197.45 740 L197.45 780" stroke-width="0.5" stroke="black" stroke-linejoin="round" fill="#b33835" fill-opacity="1"/>
<line x1="197.5" y1="760" x2="856.25" y2="760" stroke-width="1.5" stroke="gray" fill="gray" stroke-opacity="1.0"/>
<line x1="197.5" y1="760" x2="856.25" y2="760" stroke-width="0.5" stroke="black" fill="none" stroke-opacity="0.5"/>


<!-- renderSideComponent: cap -->


<!-- renderPart: cylinder -->
<path d="M856.2 748.75 L886.3 748.75 L886.3 771.25 L856.2 771.25 L856.2 748.75" stroke-width="0" stroke="none" stroke-linejoin="round" fill="silver" fill-opacity="1"/>
<path d="M856.2 748.75 L886.3 748.75 M886.3 771.25 L856.2 771.25" stroke-width="0.5" stroke="black" stroke-linejoin="round" fill="silver" fill-opacity="1"/>
<!-- !right !both --><path d="M886.3 748.75 L886.3 771.25" stroke-width="0.5" stroke="black" stroke-linejoin="round" fill="silver" fill-opacity="1"/>
<!-- !left !both --><path d="M856.2 748.75 L856.2 771.25" stroke-width="0.5" stroke="black" stroke-linejoin="round" fill="silver" fill-opacity="1"/>


<!-- renderPart: cylinder -->
<path d="M886.2 740.625 L900.05 740.625 L900.05 779.375 L886.2 779.375 L886.2 740.625" stroke-width="0" stroke="none" stroke-linejoin="round" fill="silver" fill-opacity="1"/>
<path d="M886.2 740.625 L900.05 740.625 M900.05 779.375 L886.2 779.375" stroke-width="0.5" stroke="black" stroke-linejoin="round" fill="silver" fill-opacity="1"/>
<!-- !right !both --><path d="M900.05 740.625 L900.05 779.375" stroke-width="0.5" stroke="black" stroke-linejoin="round" fill="silver" fill-opacity="1"/>
<!-- !left !both --><path d="M886.2 740.625 L886.2 779.375" stroke-width="0.5" stroke="black" stroke-linejoin="round" fill="silver" fill-opacity="1"/>


<!-- renderPart: convex -->
<path d="M900 740.625 Q905 759.375 900 779.375" stroke-width="0.5" stroke="black" stroke-linejoin="round" fill="silver" fill-opacity="1"/>
<text x="500" y="810" font-size="1.2em" font-weight="bold" text-anchor="middle" dominant-baseline="central">red (OTP-580M)</text>


<!-- renderSideComponent: tip -->


<!-- renderPart: cone -->
<path d="M97.45 871.25 L162.55 860.625 L162.55 899.375 L97.45 888.75 L97.45 871.25" stroke-width="0" stroke="none" stroke-linejoin="round" fill="silver" fill-opacity="1"/>
<path d="M97.45 871.25 L162.55 860.625 M162.55 899.375 L97.45 888.75" stroke-width="0.5" stroke="black" stroke-linejoin="round" fill="silver" fill-opacity="1"/>
<!-- !left !both --><path d="M97.45 871.25 L97.45 888.75" stroke-width="0.5" stroke="black" stroke-linejoin="round" fill="silver" fill-opacity="1"/>


<!-- renderPart: cylinder -->
<path d="M162.45 860.625 L197.55 860.625 L197.55 899.375 L162.45 899.375 L162.45 860.625" stroke-width="0" stroke="none" stroke-linejoin="round" fill="silver" fill-opacity="1"/>
<path d="M162.45 860.625 L197.55 860.625 M197.55 899.375 L162.45 899.375" stroke-width="0.5" stroke="black" stroke-linejoin="round" fill="silver" fill-opacity="1"/>
<!-- !right !both --><path d="M197.55 860.625 L197.55 899.375" stroke-width="0.5" stroke="black" stroke-linejoin="round" fill="silver" fill-opacity="1"/>


<!-- renderSideComponent: body -->


<!-- renderPart: hexagonal -->
<path d="M197.45 860 L856.3 860 L856.3 900 L197.45 900 L197.45 860" stroke-width="0" stroke="none" stroke-linejoin="round" fill="#252936" fill-opacity="1"/>
<path d="M197.45 860 L856.3 860 M856.3 900 L197.45 900" stroke-width="0.5" stroke="black" stroke-linejoin="round" fill="#252936" fill-opacity="1"/>
<!-- !right !both --><path d="M856.3 860 L856.3 900" stroke-width="0.5" stroke="black" stroke-linejoin="round" fill="#252936" fill-opacity="1"/>
<!-- !left !both --><path d="M197.45 860 L197.45 900" stroke-width="0.5" stroke="black" stroke-linejoin="round" fill="#252936" fill-opacity="1"/>
<line x1="197.5" y1="880" x2="856.25" y2="880" stroke-width="1.5" stroke="gray" fill="gray" stroke-opacity="1.0"/>
<line x1="197.5" y1="880" x2="856.25" y2="880" stroke-width="0.5" stroke="black" fill="none" stroke-opacity="0.5"/>


<!-- renderSideComponent: cap -->


<!-- renderPart: cylinder -->
<path d="M856.2 868.75 L886.3 868.75 L886.3 891.25 L856.2 891.25 L856.2 868.75" stroke-width="0" stroke="none" stroke-linejoin="round" fill="silver" fill-opacity="1"/>
<path d="M856.2 868.75 L886.3 868.75 M886.3 891.25 L856.2 891.25" stroke-width="0.5" stroke="black" stroke-linejoin="round" fill="silver" fill-opacity="1"/>
<!-- !right !both --><path d="M886.3 868.75 L886.3 891.25" stroke-width="0.5" stroke="black" stroke-linejoin="round" fill="silver" fill-opacity="1"/>
<!-- !left !both --><path d="M856.2 868.75 L856.2 891.25" stroke-width="0.5" stroke="black" stroke-linejoin="round" fill="silver" fill-opacity="1"/>


<!-- renderPart: cylinder -->
<path d="M886.2 860.625 L900.05 860.625 L900.05 899.375 L886.2 899.375 L886.2 860.625" stroke-width="0" stroke="none" stroke-linejoin="round" fill="silver" fill-opacity="1"/>
<path d="M886.2 860.625 L900.05 860.625 M900.05 899.375 L886.2 899.375" stroke-width="0.5" stroke="black" stroke-linejoin="round" fill="silver" fill-opacity="1"/>
<!-- !right !both --><path d="M900.05 860.625 L900.05 899.375" stroke-width="0.5" stroke="black" stroke-linejoin="round" fill="silver" fill-opacity="1"/>
<!-- !left !both --><path d="M886.2 860.625 L886.2 899.375" stroke-width="0.5" stroke="black" stroke-linejoin="round" fill="silver" fill-opacity="1"/>


<!-- renderPart: convex -->
<path d="M900 860.625 Q905 879.375 900 899.375" stroke-width="0.5" stroke="black" stroke-linejoin="round" fill="silver" fill-opacity="1"/>
<text x="500" y="930" font-size="1.2em" font-weight="bold" text-anchor="middle" dominant-baseline="central">blue (OTP-580I)</text>


<!-- renderSideComponent: tip -->


<!-- renderPart: cone -->
<path d="M97.45 991.25 L162.55 980.625 L162.55 1019.375 L97.45 1008.75 L97.45 991.25" stroke-width="0" stroke="none" stroke-linejoin="round" fill="silver" fill-opacity="1"/>
<path d="M97.45 991.25 L162.55 980.625 M162.55 1019.375 L97.45 1008.75" stroke-width="0.5" stroke="black" stroke-linejoin="round" fill="silver" fill-opacity="1"/>
<!-- !left !both --><path d="M97.45 991.25 L97.45 1008.75" stroke-width="0.5" stroke="black" stroke-linejoin="round" fill="silver" fill-opacity="1"/>


<!-- renderPart: cylinder -->
<path d="M162.45 980.625 L197.55 980.625 L197.55 1019.375 L162.45 1019.375 L162.45 980.625" stroke-width="0" stroke="none" stroke-linejoin="round" fill="silver" fill-opacity="1"/>
<path d="M162.45 980.625 L197.55 980.625 M197.55 1019.375 L162.45 1019.375" stroke-width="0.5" stroke="black" stroke-linejoin="round" fill="silver" fill-opacity="1"/>
<!-- !right !both --><path d="M197.55 980.625 L197.55 1019.375" stroke-width="0.5" stroke="black" stroke-linejoin="round" fill="silver" fill-opacity="1"/>


<!-- renderSideComponent: body -->


<!-- renderPart: hexagonal -->
<path d="M197.45 980 L856.3 980 L856.3 1020 L197.45 1020 L197.45 980" stroke-width="0" stroke="none" stroke-linejoin="round" fill="#12120e" fill-opacity="1"/>
<path d="M197.45 980 L856.3 980 M856.3 1020 L197.45 1020" stroke-width="0.5" stroke="black" stroke-linejoin="round" fill="#12120e" fill-opacity="1"/>
<!-- !right !both --><path d="M856.3 980 L856.3 1020" stroke-width="0.5" stroke="black" stroke-linejoin="round" fill="#12120e" fill-opacity="1"/>
<!-- !left !both --><path d="M197.45 980 L197.45 1020" stroke-width="0.5" stroke="black" stroke-linejoin="round" fill="#12120e" fill-opacity="1"/>
<line x1="197.5" y1="1000" x2="856.25" y2="1000" stroke-width="1.5" stroke="gray" fill="gray" stroke-opacity="1.0"/>
<line x1="197.5" y1="1000" x2="856.25" y2="1000" stroke-width="0.5" stroke="black" fill="none" stroke-opacity="0.5"/>


<!-- renderSideComponent: cap -->


<!-- renderPart: cylinder -->
<path d="M856.2 988.75 L886.3 988.75 L886.3 1011.25 L856.2 1011.25 L856.2 988.75" stroke-width="0" stroke="none" stroke-linejoin="round" fill="silver" fill-opacity="1"/>
<path d="M856.2 988.75 L886.3 988.75 M886.3 1011.25 L856.2 1011.25" stroke-width="0.5" stroke="black" stroke-linejoin="round" fill="silver" fill-opacity="1"/>
<!-- !right !both --><path d="M886.3 988.75 L886.3 1011.25" stroke-width="0.5" stroke="black" stroke-linejoin="round" fill="silver" fill-opacity="1"/>
<!-- !left !both --><path d="M856.2 988.75 L856.2 1011.25" stroke-width="0.5" stroke="black" stroke-linejoin="round" fill="silver" fill-opacity="1"/>


<!-- renderPart: cylinder -->
<path d="M886.2 980.625 L900.05 980.625 L900.05 1019.375 L886.2 1019.375 L886.2 980.625" stroke-width="0" stroke="none" stroke-linejoin="round" fill="silver" fill-opacity="1"/>
<path d="M886.2 980.625 L900.05 980.625 M900.05 1019.375 L886.2 1019.375" stroke-width="0.5" stroke="black" stroke-linejoin="round" fill="silver" fill-opacity="1"/>
<!-- !right !both --><path d="M900.05 980.625 L900.05 1019.375" stroke-width="0.5" stroke="black" stroke-linejoin="round" fill="silver" fill-opacity="1"/>
<!-- !left !both --><path d="M886.2 980.625 L886.2 1019.375" stroke-width="0.5" stroke="black" stroke-linejoin="round" fill="silver" fill-opacity="1"/>


<!-- renderPart: convex -->
<path d="M900 980.625 Q905 999.375 900 1019.375" stroke-width="0.5" stroke="black" stroke-linejoin="round" fill="silver" fill-opacity="1"/>
<text x="500" y="1050" font-size="1.2em" font-weight="bold" text-anchor="middle" dominant-baseline="central">black (OTP-580B)</text>
</g><text x="50%" y="1100" font-size="1.1em" font-weight="bold" text-anchor="middle" dominant-baseline="middle">Copyright (c) // Synapticloop // The Mechanical Pencil Database (tmpdb)</text>
<text x="50%" y="1120" font-size="1.1em" font-weight="bold" text-anchor="middle" dominant-baseline="middle">Licensed under Creative Commons Attribution-NonCommercial-ShareAlike 4.0 International</text>
<text x="990" y="1130" font-size="0.5em" font-weight="bold" text-anchor="end" dominant-baseline="middle">SVGTechnicalGroupedRenderer</text>
</svg>