<svg xmlns="http://www.w3.org/2000/svg" width="1000" height="1000">
 <pattern id="knurled-large" patternUnits="userSpaceOnUse" width="12" height="12">
<path stroke="dimgray" stroke-linecap="round" stroke-width="1" d="M 6,6 L 12,12"/>
<path stroke="dimgray" stroke-linecap="round" stroke-width="1" d="M 6,6 L 0,12"/>
<path stroke="gray" stroke-linecap="round" stroke-width="1" d="M 6,6 L 12,0" />
<path stroke="gray" stroke-linecap="round" stroke-width="1" d="M 6,6 L 0,0" />
</pattern><pattern id="knurled-small" patternUnits="userSpaceOnUse" width="4" height="4">
<path stroke="dimgray" stroke-linecap="round" stroke-width="1" d="M 2,2 L 4,4"/>
<path stroke="dimgray" stroke-linecap="round" stroke-width="1" d="M 2,2 L 0,4"/>
<path stroke="gray" stroke-linecap="round" stroke-width="1" d="M 2,2 L 4,0" />
<path stroke="gray" stroke-linecap="round" stroke-width="1" d="M 2,2 L 0,0" />
</pattern><pattern id="knurled" patternUnits="userSpaceOnUse" width="8" height="8">
<path stroke="dimgray" stroke-linecap="round" stroke-width="1" d="M 4,4 L 8,8"/>
<path stroke="dimgray" stroke-linecap="round" stroke-width="1" d="M 4,4 L 0,8"/>
<path stroke="gray" stroke-linecap="round" stroke-width="1" d="M 4,4 L 8,0" />
<path stroke="gray" stroke-linecap="round" stroke-width="1" d="M 4,4 L 0,0" />
</pattern><pattern id="lined" patternUnits="userSpaceOnUse" width="3" height="3">
<path stroke="dimgray" stroke-linecap="round" stroke-width="1" d="M 0,0 L 3,0"/>
</pattern><pattern id="ridged" patternUnits="userSpaceOnUse" width="3" height="3">
<path stroke="dimgray" stroke-linecap="round" stroke-width="1" d="M 0,0 L 0,3"/>
</pattern><pattern id="spring" patternUnits="userSpaceOnUse" width="8" height="60">
<path stroke="dimgray" stroke-linecap="round" stroke-width="2" d="M 1,1 L 8,60"/>
<path stroke="white" stroke-linecap="round" stroke-width="1" d="M 1,1 L 8,60"/>
</pattern><rect x="0" y="0" width="1000" height="1000" fill="white" stroke="black" stroke-width="4" />
<rect x="2" y="2" width="996" height="996" fill="white" stroke="dimgray" stroke-width="1" />
<g transform="rotate(-45 500 500)">


<!-- renderSideComponent: jaws -->


<!-- renderPart: cone -->
<path d="M124.95 492.5 L142.55 485.625 L142.55 514.375 L124.95 507.5 Z" stroke-width="0" stroke="none" stroke-linejoin="round" fill="silver" fill-opacity="1"/>
<path d="M125 492.5 L142.5 485.625 M142.5 514.375 L125 507.5" stroke-width="0.5" stroke="black" stroke-linejoin="round" fill="silver" fill-opacity="1"/>
<!-- !right !both --><path d="M142.5 485.625 L142.5 514.375" stroke-width="0.5" stroke="black" stroke-linejoin="round" fill="silver" fill-opacity="1"/>
<!-- !left !both --><path d="M125 492.5 L125 507.5" stroke-width="0.5" stroke="black" stroke-linejoin="round" fill="silver" fill-opacity="1"/>


<!-- renderSideComponent: tip -->


<!-- renderPart: cone -->
<path d="M142.45 483.125 L215.05 481.25 L215.05 518.75 L142.45 516.875 Z" stroke-width="0" stroke="none" stroke-linejoin="round" fill="silver" fill-opacity="1"/>
<path d="M142.5 483.125 L215 481.25 M215 518.75 L142.5 516.875" stroke-width="0.5" stroke="black" stroke-linejoin="round" fill="silver" fill-opacity="1"/>
<!-- !right !both --><path d="M215 481.25 L215 518.75" stroke-width="0.5" stroke="black" stroke-linejoin="round" fill="silver" fill-opacity="1"/>
<!-- !left !both --><path d="M142.5 483.125 L142.5 516.875" stroke-width="0.5" stroke="black" stroke-linejoin="round" fill="silver" fill-opacity="1"/>


<!-- renderSideComponent: grip -->


<!-- renderPart: cylinder -->
<path d="M214.95 480 L343.8 480 L343.8 520 L214.95 520 Z" stroke-width="0" stroke="none" stroke-linejoin="round" fill="silver" fill-opacity="1"/>
<path d="M215 480 L343.75 480 M343.75 520 L215 520" stroke-width="0.5" stroke="black" stroke-linejoin="round" fill="silver" fill-opacity="1"/>
<!-- !right !both --><path d="M343.75 480 L343.75 520" stroke-width="0.5" stroke="black" stroke-linejoin="round" fill="silver" fill-opacity="1"/>
<!-- !left !both --><path d="M215 480 L215 520" stroke-width="0.5" stroke="black" stroke-linejoin="round" fill="silver" fill-opacity="1"/>
<path d="M215 480 L343.75 480 L343.75 520 L215 520 Z" stroke-width="1.0" stroke="black" fill="url(#knurled-small)"/>


<!-- renderSideComponent: body -->


<!-- renderPart: hexagonal -->
<path d="M343.7 480 L760.05 480 L760.05 520 L343.7 520 Z" stroke-width="0" stroke="none" stroke-linejoin="round" fill="#24549C" fill-opacity="1"/>
<path d="M343.75 480 L760 480 M760 520 L343.75 520" stroke-width="0.5" stroke="black" stroke-linejoin="round" fill="#24549C" fill-opacity="1"/>
<!-- !right !both --><path d="M760 480 L760 520" stroke-width="0.5" stroke="black" stroke-linejoin="round" fill="#24549C" fill-opacity="1"/>
<!-- !left !both --><path d="M343.75 480 L343.75 520" stroke-width="0.5" stroke="black" stroke-linejoin="round" fill="#24549C" fill-opacity="1"/>

<!-- shine -->
<line x1="343.75" y1="497" x2="760" y2="497" stroke-width="4" stroke-opacity="0.2" stroke="white" /><line x1="343.75" y1="498" x2="760" y2="498" stroke-width="1" stroke-opacity="0.2" stroke="white" /><line x1="343.75" y1="494" x2="760" y2="494" stroke-width="1" stroke-opacity="0.1" stroke="white" /><line x1="343.75" y1="481" x2="760" y2="481" stroke-width="2" stroke-opacity="0.3" stroke="black" /><line x1="343.75" y1="482" x2="760" y2="484" stroke-width="2" stroke-opacity="0.1" stroke="black" /><line x1="343.75" y1="503" x2="760" y2="503" stroke-width="4" stroke-opacity="0.2" stroke="white" /><line x1="343.75" y1="502" x2="760" y2="502" stroke-width="1" stroke-opacity="0.2" stroke="white" /><line x1="343.75" y1="506" x2="760" y2="506" stroke-width="1" stroke-opacity="0.1" stroke="white" /><line x1="343.75" y1="516" x2="760" y2="516" stroke-width="2" stroke-opacity="0.1" stroke="black" /><line x1="343.75" y1="519" x2="760" y2="519" stroke-width="2" stroke-opacity="0.3" stroke="black" /><line x1="343.75" y1="518" x2="760" y2="516" stroke-width="2" stroke-opacity="0.1" stroke="black" /><line x1="346.25" y1="500" x2="762.5" y2="500" stroke-width="1.5" stroke="gray" fill="gray" stroke-opacity="1.0"/>
<line x1="346.25" y1="500" x2="762.5" y2="500" stroke-width="0.5" stroke="black" fill="none" stroke-opacity="0.5"/>


<!-- renderSideComponent: indicator -->


<!-- renderPart: cone -->
<path d="M759.95 478.75 L772.55 480 L772.55 520 L759.95 521.25 Z" stroke-width="0" stroke="none" stroke-linejoin="round" fill="silver" fill-opacity="1"/>
<path d="M760 478.75 L772.5 480 M772.5 520 L760 521.25" stroke-width="0.5" stroke="black" stroke-linejoin="round" fill="silver" fill-opacity="1"/>
<!-- !right !both --><path d="M772.5 480 L772.5 520" stroke-width="0.5" stroke="black" stroke-linejoin="round" fill="silver" fill-opacity="1"/>
<!-- !left !both --><path d="M760 478.75 L760 521.25" stroke-width="0.5" stroke="black" stroke-linejoin="round" fill="silver" fill-opacity="1"/>


<!-- renderPart: cylinder -->
<path d="M772.45 480 L818.8 480 L818.8 520 L772.45 520 Z" stroke-width="0" stroke="none" stroke-linejoin="round" fill="silver" fill-opacity="1"/>
<path d="M772.5 480 L818.75 480 M818.75 520 L772.5 520" stroke-width="0.5" stroke="black" stroke-linejoin="round" fill="silver" fill-opacity="1"/>
<!-- !right !both --><path d="M818.75 480 L818.75 520" stroke-width="0.5" stroke="black" stroke-linejoin="round" fill="silver" fill-opacity="1"/>
<!-- !left !both --><path d="M772.5 480 L772.5 520" stroke-width="0.5" stroke="black" stroke-linejoin="round" fill="silver" fill-opacity="1"/>
<rect x="782.5" y="490" width="26.25" height="20" rx="3" ry="3" stroke-width="1" stroke="black" fill="silver"/>
<text x="795.625" y="500" text-anchor="middle" dominant-baseline="central"><tspan stroke="dimgray" stroke-width="0.5" font-family="sans-serif" fill="black" textLength="{this.width * 5 - 24}" > HB</tspan></text>

<!-- renderSideComponent: tail -->


<!-- renderPart: cylinder -->
<path d="M818.7 480.625 L832.55 480.625 L832.55 519.375 L818.7 519.375 Z" stroke-width="0" stroke="none" stroke-linejoin="round" fill="black" fill-opacity="1"/>
<path d="M818.75 480.625 L832.5 480.625 M832.5 519.375 L818.75 519.375" stroke-width="0.5" stroke="dimgray" stroke-linejoin="round" fill="black" fill-opacity="1"/>
<!-- !right !both --><path d="M832.5 480.625 L832.5 519.375" stroke-width="0.5" stroke="dimgray" stroke-linejoin="round" fill="black" fill-opacity="1"/>
<!-- !left !both --><path d="M818.75 480.625 L818.75 519.375" stroke-width="0.5" stroke="dimgray" stroke-linejoin="round" fill="black" fill-opacity="1"/>
<path d="M818.75 480.625 L832.5 480.625 L832.5 519.375 L818.75 519.375 Z" stroke-width="1.0" stroke="black" fill="url(#lined)"/>


<!-- renderSideComponent: cap -->


<!-- renderPart: cylinder -->
<path d="M832.45 486.25 L875.05 486.25 L875.05 513.75 L832.45 513.75 Z" stroke-width="0" stroke="none" stroke-linejoin="round" fill="silver" fill-opacity="1"/>
<path d="M832.5 486.25 L875 486.25 M875 513.75 L832.5 513.75" stroke-width="0.5" stroke="black" stroke-linejoin="round" fill="silver" fill-opacity="1"/>
<!-- !right !both --><path d="M875 486.25 L875 513.75" stroke-width="0.5" stroke="black" stroke-linejoin="round" fill="silver" fill-opacity="1"/>

<!-- TAPER START: hexagonal -->
<path d="M 343.65 480.25 L 346.25 480.25 C 343.4375 485, 343.4375 495, 346.25 500 C 343.4375 505, 343.4375 515, 346.25 519.75 L 343.65 519.75 Z" stroke-width="0" stroke="0" stroke-linecap="round" fill-opacity="1" fill="#24549C" /><path d="M 346.25 480.5 C 343.4375 485, 343.4375 495, 346.25 500 C 343.4375 505, 343.4375 515, 346.25 519.45" stroke-width="1.5" stroke="gray" stroke-linecap="round" fill-opacity="0" fill="none" /><path d="M 346.25 480.5 C 343.4375 485, 343.4375 495, 346.25 500 C 343.4375 505, 343.4375 515, 346.25 519.5" stroke-width="0.5" stroke="black" stroke-opacity="0.5" stroke-linecap="round" fill-opacity="0" fill="none" /></g><text x="50%" y="960" font-size="1.1em" font-weight="bold" text-anchor="middle" dominant-baseline="middle">Copyright (c) // Synapticloop // The Mechanical Pencil Database (tmpdb)</text>
<text x="50%" y="980" font-size="1.1em" font-weight="bold" text-anchor="middle" dominant-baseline="middle">Licensed under Creative Commons Attribution-NonCommercial-ShareAlike 4.0 International</text>
<text x="990" y="990" font-size="0.5em" font-weight="bold" text-anchor="end" dominant-baseline="middle">SVGPencil45Renderer</text>
</svg>