<svg xmlns="http://www.w3.org/2000/svg" width="1000" height="200">
 <pattern id="knurled-large" patternUnits="userSpaceOnUse" width="12" height="12">
<path stroke="dimgray" stroke-linecap="round" stroke-width="1" d="M 6,6 L 12,12"/>
<path stroke="dimgray" stroke-linecap="round" stroke-width="1" d="M 6,6 L 0,12"/>
<path stroke="gray" stroke-linecap="round" stroke-width="1" d="M 6,6 L 12,0" />
<path stroke="gray" stroke-linecap="round" stroke-width="1" d="M 6,6 L 0,0" />
</pattern><pattern id="knurled-small" patternUnits="userSpaceOnUse" width="4" height="4">
<path stroke="dimgray" stroke-linecap="round" stroke-width="1" d="M 2,2 L 4,4"/>
<path stroke="dimgray" stroke-linecap="round" stroke-width="1" d="M 2,2 L 0,4"/>
<path stroke="gray" stroke-linecap="round" stroke-width="1" d="M 2,2 L 4,0" />
<path stroke="gray" stroke-linecap="round" stroke-width="1" d="M 2,2 L 0,0" />
</pattern><pattern id="knurled" patternUnits="userSpaceOnUse" width="8" height="8">
<path stroke="dimgray" stroke-linecap="round" stroke-width="1" d="M 4,4 L 8,8"/>
<path stroke="dimgray" stroke-linecap="round" stroke-width="1" d="M 4,4 L 0,8"/>
<path stroke="gray" stroke-linecap="round" stroke-width="1" d="M 4,4 L 8,0" />
<path stroke="gray" stroke-linecap="round" stroke-width="1" d="M 4,4 L 0,0" />
</pattern><pattern id="lined" patternUnits="userSpaceOnUse" width="3" height="3">
<path stroke="dimgray" stroke-linecap="round" stroke-width="1" d="M 0,0 L 3,0"/>
</pattern><pattern id="ridged" patternUnits="userSpaceOnUse" width="3" height="3">
<path stroke="dimgray" stroke-linecap="round" stroke-width="1" d="M 0,0 L 0,3"/>
</pattern><pattern id="spring" patternUnits="userSpaceOnUse" width="8" height="60">
<path stroke="dimgray" stroke-linecap="round" stroke-width="2" d="M 1,1 L 8,60"/>
<path stroke="white" stroke-linecap="round" stroke-width="1" d="M 1,1 L 8,60"/>
</pattern><g transform="rotate(0 0 0)">


<!-- renderSideComponent: jaws -->


<!-- renderPart: cone -->
<path d="M124.95 92.5 L142.55 85.625 L142.55 114.375 L124.95 107.5 Z" stroke-width="0" stroke="none" stroke-linejoin="round" fill="silver" fill-opacity="1"/>
<path d="M125 92.5 L142.5 85.625 M142.5 114.375 L125 107.5" stroke-width="0.5" stroke="black" stroke-linejoin="round" fill="silver" fill-opacity="1"/>
<!-- !right !both --><path d="M142.5 85.625 L142.5 114.375" stroke-width="0.5" stroke="black" stroke-linejoin="round" fill="silver" fill-opacity="1"/>
<!-- !left !both --><path d="M125 92.5 L125 107.5" stroke-width="0.5" stroke="black" stroke-linejoin="round" fill="silver" fill-opacity="1"/>


<!-- renderSideComponent: tip -->


<!-- renderPart: cone -->
<path d="M142.45 83.125 L215.05 81.25 L215.05 118.75 L142.45 116.875 Z" stroke-width="0" stroke="none" stroke-linejoin="round" fill="silver" fill-opacity="1"/>
<path d="M142.5 83.125 L215 81.25 M215 118.75 L142.5 116.875" stroke-width="0.5" stroke="black" stroke-linejoin="round" fill="silver" fill-opacity="1"/>
<!-- !right !both --><path d="M215 81.25 L215 118.75" stroke-width="0.5" stroke="black" stroke-linejoin="round" fill="silver" fill-opacity="1"/>
<!-- !left !both --><path d="M142.5 83.125 L142.5 116.875" stroke-width="0.5" stroke="black" stroke-linejoin="round" fill="silver" fill-opacity="1"/>


<!-- renderSideComponent: grip -->


<!-- renderPart: cylinder -->
<path d="M214.95 80 L343.8 80 L343.8 120 L214.95 120 Z" stroke-width="0" stroke="none" stroke-linejoin="round" fill="silver" fill-opacity="1"/>
<path d="M215 80 L343.75 80 M343.75 120 L215 120" stroke-width="0.5" stroke="black" stroke-linejoin="round" fill="silver" fill-opacity="1"/>
<!-- !right !both --><path d="M343.75 80 L343.75 120" stroke-width="0.5" stroke="black" stroke-linejoin="round" fill="silver" fill-opacity="1"/>
<!-- !left !both --><path d="M215 80 L215 120" stroke-width="0.5" stroke="black" stroke-linejoin="round" fill="silver" fill-opacity="1"/>
<path d="M215 80 L343.75 80 L343.75 120 L215 120 Z" stroke-width="1.0" stroke="black" fill="url(#knurled-small)"/>


<!-- renderSideComponent: body -->


<!-- renderPart: hexagonal -->
<path d="M343.7 80 L760.05 80 L760.05 120 L343.7 120 Z" stroke-width="0" stroke="none" stroke-linejoin="round" fill="#24549C" fill-opacity="1"/>
<path d="M343.75 80 L760 80 M760 120 L343.75 120" stroke-width="0.5" stroke="black" stroke-linejoin="round" fill="#24549C" fill-opacity="1"/>
<!-- !right !both --><path d="M760 80 L760 120" stroke-width="0.5" stroke="black" stroke-linejoin="round" fill="#24549C" fill-opacity="1"/>
<!-- !left !both --><path d="M343.75 80 L343.75 120" stroke-width="0.5" stroke="black" stroke-linejoin="round" fill="#24549C" fill-opacity="1"/>

<!-- shine -->
<line x1="343.75" y1="97" x2="760" y2="97" stroke-width="4" stroke-opacity="0.2" stroke="white" /><line x1="343.75" y1="98" x2="760" y2="98" stroke-width="1" stroke-opacity="0.2" stroke="white" /><line x1="343.75" y1="94" x2="760" y2="94" stroke-width="1" stroke-opacity="0.1" stroke="white" /><line x1="343.75" y1="81" x2="760" y2="81" stroke-width="2" stroke-opacity="0.3" stroke="black" /><line x1="343.75" y1="82" x2="760" y2="84" stroke-width="2" stroke-opacity="0.1" stroke="black" /><line x1="343.75" y1="103" x2="760" y2="103" stroke-width="4" stroke-opacity="0.2" stroke="white" /><line x1="343.75" y1="102" x2="760" y2="102" stroke-width="1" stroke-opacity="0.2" stroke="white" /><line x1="343.75" y1="106" x2="760" y2="106" stroke-width="1" stroke-opacity="0.1" stroke="white" /><line x1="343.75" y1="116" x2="760" y2="116" stroke-width="2" stroke-opacity="0.1" stroke="black" /><line x1="343.75" y1="119" x2="760" y2="119" stroke-width="2" stroke-opacity="0.3" stroke="black" /><line x1="343.75" y1="118" x2="760" y2="116" stroke-width="2" stroke-opacity="0.1" stroke="black" /><line x1="346.25" y1="100" x2="762.5" y2="100" stroke-width="1.5" stroke="gray" fill="gray" stroke-opacity="1.0"/>
<line x1="346.25" y1="100" x2="762.5" y2="100" stroke-width="0.5" stroke="black" fill="none" stroke-opacity="0.5"/>


<!-- renderSideComponent: indicator -->


<!-- renderPart: cone -->
<path d="M759.95 78.75 L772.55 80 L772.55 120 L759.95 121.25 Z" stroke-width="0" stroke="none" stroke-linejoin="round" fill="silver" fill-opacity="1"/>
<path d="M760 78.75 L772.5 80 M772.5 120 L760 121.25" stroke-width="0.5" stroke="black" stroke-linejoin="round" fill="silver" fill-opacity="1"/>
<!-- !right !both --><path d="M772.5 80 L772.5 120" stroke-width="0.5" stroke="black" stroke-linejoin="round" fill="silver" fill-opacity="1"/>
<!-- !left !both --><path d="M760 78.75 L760 121.25" stroke-width="0.5" stroke="black" stroke-linejoin="round" fill="silver" fill-opacity="1"/>


<!-- renderPart: cylinder -->
<path d="M772.45 80 L818.8 80 L818.8 120 L772.45 120 Z" stroke-width="0" stroke="none" stroke-linejoin="round" fill="silver" fill-opacity="1"/>
<path d="M772.5 80 L818.75 80 M818.75 120 L772.5 120" stroke-width="0.5" stroke="black" stroke-linejoin="round" fill="silver" fill-opacity="1"/>
<!-- !right !both --><path d="M818.75 80 L818.75 120" stroke-width="0.5" stroke="black" stroke-linejoin="round" fill="silver" fill-opacity="1"/>
<!-- !left !both --><path d="M772.5 80 L772.5 120" stroke-width="0.5" stroke="black" stroke-linejoin="round" fill="silver" fill-opacity="1"/>
<rect x="782.5" y="90" width="26.25" height="20" rx="3" ry="3" stroke-width="1" stroke="black" fill="silver"/>
<text x="795.625" y="100" text-anchor="middle" dominant-baseline="central"><tspan stroke="dimgray" stroke-width="0.5" font-family="sans-serif" fill="black" textLength="{this.width * 5 - 24}" > HB</tspan></text>

<!-- renderSideComponent: tail -->


<!-- renderPart: cylinder -->
<path d="M818.7 80.625 L832.55 80.625 L832.55 119.375 L818.7 119.375 Z" stroke-width="0" stroke="none" stroke-linejoin="round" fill="black" fill-opacity="1"/>
<path d="M818.75 80.625 L832.5 80.625 M832.5 119.375 L818.75 119.375" stroke-width="0.5" stroke="dimgray" stroke-linejoin="round" fill="black" fill-opacity="1"/>
<!-- !right !both --><path d="M832.5 80.625 L832.5 119.375" stroke-width="0.5" stroke="dimgray" stroke-linejoin="round" fill="black" fill-opacity="1"/>
<!-- !left !both --><path d="M818.75 80.625 L818.75 119.375" stroke-width="0.5" stroke="dimgray" stroke-linejoin="round" fill="black" fill-opacity="1"/>
<path d="M818.75 80.625 L832.5 80.625 L832.5 119.375 L818.75 119.375 Z" stroke-width="1.0" stroke="black" fill="url(#lined)"/>


<!-- renderSideComponent: cap -->


<!-- renderPart: cylinder -->
<path d="M832.45 86.25 L875.05 86.25 L875.05 113.75 L832.45 113.75 Z" stroke-width="0" stroke="none" stroke-linejoin="round" fill="silver" fill-opacity="1"/>
<path d="M832.5 86.25 L875 86.25 M875 113.75 L832.5 113.75" stroke-width="0.5" stroke="black" stroke-linejoin="round" fill="silver" fill-opacity="1"/>
<!-- !right !both --><path d="M875 86.25 L875 113.75" stroke-width="0.5" stroke="black" stroke-linejoin="round" fill="silver" fill-opacity="1"/>

<!-- TAPER START: hexagonal -->
<path d="M 343.65 80.25 L 346.25 80.25 C 343.4375 85, 343.4375 95, 346.25 100 C 343.4375 105, 343.4375 115, 346.25 119.75 L 343.65 119.75 Z" stroke-width="0" stroke="0" stroke-linecap="round" fill-opacity="1" fill="#24549C" /><path d="M 346.25 80.5 C 343.4375 85, 343.4375 95, 346.25 100 C 343.4375 105, 343.4375 115, 346.25 119.45" stroke-width="1.5" stroke="gray" stroke-linecap="round" fill-opacity="0" fill="none" /><path d="M 346.25 80.5 C 343.4375 85, 343.4375 95, 346.25 100 C 343.4375 105, 343.4375 115, 346.25 119.5" stroke-width="0.5" stroke="black" stroke-opacity="0.5" stroke-linecap="round" fill-opacity="0" fill="none" /></g><text x="50%" y="160" font-size="1.1em" font-weight="bold" text-anchor="middle" dominant-baseline="middle">Copyright (c) // Synapticloop // The Mechanical Pencil Database (tmpdb)</text>
<text x="50%" y="180" font-size="1.1em" font-weight="bold" text-anchor="middle" dominant-baseline="middle">Licensed under Creative Commons Attribution-NonCommercial-ShareAlike 4.0 International</text>
<text x="990" y="190" font-size="0.5em" font-weight="bold" text-anchor="end" dominant-baseline="middle">SVGPencilRenderer</text>
</svg>