<svg xmlns="http://www.w3.org/2000/svg" width="1000" height="900">
 <pattern id="knurled-large" patternUnits="userSpaceOnUse" width="12" height="12">
<path stroke="dimgray" stroke-linecap="round" stroke-width="1" d="M 6,6 L 12,12"/>
<path stroke="dimgray" stroke-linecap="round" stroke-width="1" d="M 6,6 L 0,12"/>
<path stroke="gray" stroke-linecap="round" stroke-width="1" d="M 6,6 L 12,0" />
<path stroke="gray" stroke-linecap="round" stroke-width="1" d="M 6,6 L 0,0" />
</pattern><pattern id="knurled-small" patternUnits="userSpaceOnUse" width="4" height="4">
<path stroke="dimgray" stroke-linecap="round" stroke-width="1" d="M 2,2 L 4,4"/>
<path stroke="dimgray" stroke-linecap="round" stroke-width="1" d="M 2,2 L 0,4"/>
<path stroke="gray" stroke-linecap="round" stroke-width="1" d="M 2,2 L 4,0" />
<path stroke="gray" stroke-linecap="round" stroke-width="1" d="M 2,2 L 0,0" />
</pattern><pattern id="knurled" patternUnits="userSpaceOnUse" width="8" height="8">
<path stroke="dimgray" stroke-linecap="round" stroke-width="1" d="M 4,4 L 8,8"/>
<path stroke="dimgray" stroke-linecap="round" stroke-width="1" d="M 4,4 L 0,8"/>
<path stroke="gray" stroke-linecap="round" stroke-width="1" d="M 4,4 L 8,0" />
<path stroke="gray" stroke-linecap="round" stroke-width="1" d="M 4,4 L 0,0" />
</pattern><pattern id="lined" patternUnits="userSpaceOnUse" width="3" height="3">
<path stroke="dimgray" stroke-linecap="round" stroke-width="1" d="M 0,0 L 3,0"/>
</pattern><pattern id="ridged" patternUnits="userSpaceOnUse" width="3" height="3">
<path stroke="dimgray" stroke-linecap="round" stroke-width="1" d="M 0,0 L 0,3"/>
</pattern><pattern id="spring" patternUnits="userSpaceOnUse" width="8" height="100">
<path stroke="dimgray" stroke-linecap="round" stroke-width="2" d="M 1,1 L 9,99"/>
<path stroke="white" stroke-linecap="round" stroke-width="1" d="M 1,1 L 9,99"/>
</pattern><pattern id="knurled" patternUnits="userSpaceOnUse" width="8" height="8">
<path stroke="dimgray" stroke-linecap="round" stroke-width="1" d="M 4,4 L 8,8"/>
<path stroke="dimgray" stroke-linecap="round" stroke-width="1" d="M 4,4 L 0,8"/>
<path stroke="gray" stroke-linecap="round" stroke-width="1" d="M 4,4 L 8,0" />
<path stroke="gray" stroke-linecap="round" stroke-width="1" d="M 4,4 L 0,0" />
</pattern><rect x="0" y="0" width="1000" height="900" fill="white" stroke="black" stroke-width="4" />
<rect x="2" y="2" width="996" height="896" fill="white" stroke="dimgray" stroke-width="1" />
<g transform="rotate(0 0 0)">
<text x="30" y="50" font-size="2.0em" font-weight="bold"> Staedtler // Mars Technico (Model #: 780c)</text>
<line x1="360" y1="124" x2="360" y2="162" stroke="black" stroke-linecap="round"  stroke-width="2" />
<line x1="240" y1="140" x2="360" y2="140" stroke-linecap="round" stroke="black"  stroke-width="2" />
<line x1="246" y1="144" x2="360" y2="144" stroke-linecap="round" stroke="black"  stroke-width="2" />
<text x="500" y="140" font-size="2.4em" font-weight="bold" text-anchor="middle" dominant-baseline="central">Measurements</text>
<line x1="640" y1="140" x2="760" y2="140" stroke-linecap="round" stroke="black"  stroke-width="2" />
<line x1="640" y1="144" x2="754" y2="144" stroke-linecap="round" stroke="black"  stroke-width="2" />
<line x1="640" y1="124" x2="640" y2="162" stroke="black" stroke-linecap="round"  stroke-width="2" />
<line x1="40" y1="300" x2="960" y2="300" stroke-linecap="round" stroke="#5f5f5f" stroke-dasharray="2" stroke-width="1" />
<line x1="20" y1="300" x2="60" y2="300" stroke-linecap="round" stroke="#000000"  stroke-width="1" />
<line x1="40" y1="280" x2="40" y2="320" stroke="#000000" stroke-linecap="round"  stroke-width="1" />
<circle r="10" cx="40" cy="300" fill="white" fill-opacity="0" stroke="#000000" stroke-width="1"  />
<line x1="940" y1="300" x2="980" y2="300" stroke-linecap="round" stroke="#000000"  stroke-width="1" />
<line x1="960" y1="280" x2="960" y2="320" stroke="#000000" stroke-linecap="round"  stroke-width="1" />
<circle r="10" cx="960" cy="300" fill="white" fill-opacity="0" stroke="#000000" stroke-width="1"  />
<path d="M124.375 293.125 L126.875 293.125 L126.875 306.875 L124.375 306.875 Z" stroke-width="0.5" stroke="black" stroke-linejoin="round" fill="white" fill-opacity="1" />
<path d="M126.875 286.25 L173.125 282.5 L173.125 317.5 L126.875 313.75 Z" stroke-width="0.5" stroke="black" stroke-linejoin="round" fill="white" fill-opacity="1" />
<path d="M173.125 281.25 L283.125 278.75 L283.125 321.25 L173.125 318.75 Z" stroke-width="0.5" stroke="black" stroke-linejoin="round" fill="white" fill-opacity="1" />
<path d="M173.125 281.25 L283.125 278.75 L283.125 321.25 L173.125 318.75 Z" stroke-width="1.0" stroke="black" fill="url(#knurled)"/>
<path d="M283.125 280.625 L456.875 280.625 L456.875 319.375 L283.125 319.375 Z" stroke-width="0.5" stroke="black" stroke-linejoin="round" fill="white" fill-opacity="1" />
<line x1="283.125" y1="300" x2="386.875" y2="300" stroke-width="1.5" stroke="black" fill="none" stroke-opacity="0.5"/>
<line x1="283.125" y1="300" x2="386.875" y2="300" stroke-width="0.5" stroke="gray" fill="none" stroke-opacity="0.5"/>
<path d="M456.875 280.625 L750.625 280.625 L750.625 319.375 L456.875 319.375 Z" stroke-width="0.5" stroke="black" stroke-linejoin="round" fill="white" fill-opacity="1" />
<line x1="456.875" y1="280.875" x2="456.875" y2="319.125" stroke="white" stroke-opacity="1" stroke-width="3" />
<path d="M583.125 274.125 Q575.625 271.625 583.125 266.625" stroke-width="4" stroke="black" fill="none" stroke-linecap="round" />
<line x1="583.125" y1="266.625" x2="743.125" y2="266.625" stroke-width="4" stroke="black" fill="dimgray" stroke-linecap="round" />
<line x1="598.125" y1="279.125" x2="583.125" y2="274.125" stroke-width="4" stroke="black" fill="dimgray" stroke-linecap="round" />
<line x1="614.375" y1="274.125" x2="598.125" y2="279.125" stroke-width="4" stroke="black" fill="dimgray" stroke-linecap="round" />
<line x1="743.125" y1="266.625" x2="750.625" y2="281.625" stroke-width="4" stroke="black" fill="dimgray" stroke-linecap="round" />
<path d="M750.625 278.125 L780.625 278.125 L780.625 321.875 L750.625 321.875 Z" stroke-width="0.5" stroke="black" stroke-linejoin="round" fill="white" fill-opacity="1" />
<text x="765.625" y="300" text-anchor="middle" dominant-baseline="central"><tspan stroke="dimgray" stroke-width="0.5" font-family="sans-serif" fill="black" textLength="{this.width * 5 - 12}" > HB</tspan></text><path d="M583.125 274.125 Q575.625 271.625 583.125 266.625" stroke-width="3" stroke="white" fill="none" stroke-linecap="round" />
<line x1="583.125" y1="266.625" x2="743.125" y2="266.625" stroke-width="3" stroke="white" fill="white" stroke-linecap="round" />
<line x1="598.125" y1="279.125" x2="583.125" y2="274.125" stroke-width="3" stroke="white" fill="white" stroke-linecap="round" />
<line x1="614.375" y1="274.125" x2="598.125" y2="279.125" stroke-width="3" stroke="white" fill="white" stroke-linecap="round" />
<line x1="743.125" y1="266.625" x2="750.625" y2="281.625" stroke-width="3" stroke="white" fill="white" stroke-linecap="round" />
<path d="M780.625 280.625 L815.625 280.625 L815.625 319.375 L780.625 319.375 Z" stroke-width="0.5" stroke="black" stroke-linejoin="round" fill="white" fill-opacity="1" />
<path d="M815.625 285.625 L875.625 285.625 L875.625 314.375 L815.625 314.375 Z" stroke-width="0.5" stroke="black" stroke-linejoin="round" fill="white" fill-opacity="1" />
<rect x="353.125" y="280.875" width="103.25" height="38.25" rx="0" ry="0" stroke-width="0.5" stroke="none" fill="white" fill-opacity="1"/>
<path d="M 386.875 280.625 C 478.125 285.46875, 478.125 295.15625, 386.875 300" stroke-width="0.5" stroke="black" stroke-linecap="round" fill-opacity="1" fill="white" />
<path d="M 386.875 319.375 C 478.125 314.53125, 478.125 304.84375, 386.875 300" stroke-width="0.5" stroke="black" stroke-linecap="round" fill-opacity="1" fill="white" />
<line x1="124.375" y1="207.125" x2="124.375" y2="229.125" stroke="black" stroke-width="1" />
<line x1="124.375" y1="218.125" x2="173.125" y2="218.125" stroke="black" stroke-width="1" />
<line x1="173.125" y1="207.125" x2="173.125" y2="229.125" stroke="black" stroke-width="1" />
<text x="148.75" y="199.125" font-size="1.2em" font-weight="bold" text-anchor="middle" dominant-baseline="central" fill="black"><tspan x="148.75" dy="0">9.75 mm</tspan></text>
<line x1="124.375" y1="207.125" x2="124.375" y2="229.125" stroke="black" stroke-width="1" />
<line x1="124.375" y1="218.125" x2="173.125" y2="218.125" stroke="black" stroke-width="1" />
<line x1="173.125" y1="207.125" x2="173.125" y2="229.125" stroke="black" stroke-width="1" />
<text x="148.75" y="237.125" font-size="1.2em" font-weight="bold" text-anchor="middle" dominant-baseline="central" fill="black"><tspan x="148.75" dy="0">tip</tspan></text>
<line x1="173.125" y1="207.125" x2="173.125" y2="229.125" stroke="black" stroke-width="1" />
<line x1="173.125" y1="218.125" x2="815.625" y2="218.125" stroke="black" stroke-width="1" />
<line x1="815.625" y1="207.125" x2="815.625" y2="229.125" stroke="black" stroke-width="1" />
<text x="494.375" y="199.125" font-size="1.2em" font-weight="bold" text-anchor="middle" dominant-baseline="central" fill="black"><tspan x="494.375" dy="0">128.50 mm</tspan></text>
<line x1="173.125" y1="207.125" x2="173.125" y2="229.125" stroke="black" stroke-width="1" />
<line x1="173.125" y1="218.125" x2="815.625" y2="218.125" stroke="black" stroke-width="1" />
<line x1="815.625" y1="207.125" x2="815.625" y2="229.125" stroke="black" stroke-width="1" />
<text x="494.375" y="237.125" font-size="1.2em" font-weight="bold" text-anchor="middle" dominant-baseline="central" fill="black"><tspan x="494.375" dy="0">body</tspan></text>
<line x1="815.625" y1="207.125" x2="815.625" y2="229.125" stroke="black" stroke-width="1" />
<line x1="815.625" y1="218.125" x2="875.625" y2="218.125" stroke="black" stroke-width="1" />
<line x1="875.625" y1="207.125" x2="875.625" y2="229.125" stroke="black" stroke-width="1" />
<text x="845.625" y="199.125" font-size="1.2em" font-weight="bold" text-anchor="middle" dominant-baseline="central" fill="black"><tspan x="845.625" dy="0">12.00 mm</tspan></text>
<line x1="815.625" y1="207.125" x2="815.625" y2="229.125" stroke="black" stroke-width="1" />
<line x1="815.625" y1="218.125" x2="875.625" y2="218.125" stroke="black" stroke-width="1" />
<line x1="875.625" y1="207.125" x2="875.625" y2="229.125" stroke="black" stroke-width="1" />
<text x="845.625" y="237.125" font-size="1.2em" font-weight="bold" text-anchor="middle" dominant-baseline="central" fill="black"><tspan x="845.625" dy="0">cap</tspan></text>
<line x1="124.375" y1="400.875" x2="124.375" y2="422.875" stroke="black" stroke-width="1" />
<line x1="124.375" y1="411.875" x2="875.625" y2="411.875" stroke="black" stroke-width="1" />
<line x1="875.625" y1="400.875" x2="875.625" y2="422.875" stroke="black" stroke-width="1" />
<text x="500" y="430.875" font-size="1.2em" font-weight="bold" text-anchor="middle" dominant-baseline="central" fill="black"><tspan x="500" dy="0">150.25 mm</tspan></text>
<line x1="124.375" y1="400.875" x2="124.375" y2="422.875" stroke="black" stroke-width="1" />
<line x1="124.375" y1="411.875" x2="875.625" y2="411.875" stroke="black" stroke-width="1" />
<line x1="875.625" y1="400.875" x2="875.625" y2="422.875" stroke="black" stroke-width="1" />
<text x="500" y="392.875" font-size="1.2em" font-weight="bold" text-anchor="middle" dominant-baseline="central" fill="black"><tspan x="500" dy="0">Total Length</tspan></text>
<line x1="580.625" y1="340.875" x2="580.625" y2="362.875" stroke="black" stroke-width="1" />
<line x1="580.625" y1="351.875" x2="750.625" y2="351.875" stroke="black" stroke-width="1" />
<line x1="750.625" y1="340.875" x2="750.625" y2="362.875" stroke="black" stroke-width="1" />
<text x="665.625" y="332.875" font-size="1.2em" font-weight="bold" text-anchor="middle" dominant-baseline="central" fill="black"><tspan x="665.625" dy="0">34.00 mm</tspan></text>
<line x1="580.625" y1="340.875" x2="580.625" y2="362.875" stroke="black" stroke-width="1" />
<line x1="580.625" y1="351.875" x2="750.625" y2="351.875" stroke="black" stroke-width="1" />
<line x1="750.625" y1="340.875" x2="750.625" y2="362.875" stroke="black" stroke-width="1" />
<text x="665.625" y="370.875" font-size="1.2em" font-weight="bold" text-anchor="middle" dominant-baseline="central" fill="black"><tspan x="665.625" dy="0">clip</tspan></text>
<line x1="173.125" y1="340.875" x2="173.125" y2="362.875" stroke="black" stroke-width="1" />
<line x1="173.125" y1="351.875" x2="283.125" y2="351.875" stroke="black" stroke-width="1" />
<line x1="283.125" y1="340.875" x2="283.125" y2="362.875" stroke="black" stroke-width="1" />
<text x="228.125" y="332.875" font-size="1.2em" font-weight="bold" text-anchor="middle" dominant-baseline="central" fill="black"><tspan x="228.125" dy="0">6.00 mm</tspan></text>
<line x1="173.125" y1="340.875" x2="173.125" y2="362.875" stroke="black" stroke-width="1" />
<line x1="173.125" y1="351.875" x2="283.125" y2="351.875" stroke="black" stroke-width="1" />
<line x1="283.125" y1="340.875" x2="283.125" y2="362.875" stroke="black" stroke-width="1" />
<text x="228.125" y="370.875" font-size="1.2em" font-weight="bold" text-anchor="middle" dominant-baseline="central" fill="black"><tspan x="228.125" dy="0">grip</tspan></text>
<line x1="414" y1="524" x2="414" y2="562" stroke="black" stroke-linecap="round"  stroke-width="2" />
<line x1="240" y1="540" x2="414" y2="540" stroke-linecap="round" stroke="black"  stroke-width="2" />
<line x1="246" y1="544" x2="414" y2="544" stroke-linecap="round" stroke="black"  stroke-width="2" />
<text x="500" y="540" font-size="2.4em" font-weight="bold" text-anchor="middle" dominant-baseline="central">Variants</text>
<line x1="586" y1="540" x2="760" y2="540" stroke-linecap="round" stroke="black"  stroke-width="2" />
<line x1="586" y1="544" x2="754" y2="544" stroke-linecap="round" stroke="black"  stroke-width="2" />
<line x1="586" y1="524" x2="586" y2="562" stroke="black" stroke-linecap="round"  stroke-width="2" />
<path d="M124.375 633.125 L126.875 633.125 L126.875 646.875 L124.375 646.875 Z" stroke-width="0.5" stroke="black" stroke-linejoin="round" fill="white" fill-opacity="1" />
<path d="M126.875 626.25 L173.125 622.5 L173.125 657.5 L126.875 653.75 Z" stroke-width="0.5" stroke="black" stroke-linejoin="round" fill="white" fill-opacity="1" />
<path d="M173.125 621.25 L283.125 618.75 L283.125 661.25 L173.125 658.75 Z" stroke-width="0.5" stroke="black" stroke-linejoin="round" fill="white" fill-opacity="1" />
<path d="M173.125 621.25 L283.125 618.75 L283.125 661.25 L173.125 658.75 Z" stroke-width="1.0" stroke="black" fill="url(#knurled)"/>
<path d="M283.125 620.625 L456.875 620.625 L456.875 659.375 L283.125 659.375 Z" stroke-width="0.5" stroke="black" stroke-linejoin="round" fill="white" fill-opacity="1" />
<line x1="283.125" y1="640" x2="386.875" y2="640" stroke-width="1.5" stroke="black" fill="none" stroke-opacity="0.5"/>
<line x1="283.125" y1="640" x2="386.875" y2="640" stroke-width="0.5" stroke="gray" fill="none" stroke-opacity="0.5"/>
<path d="M456.875 620.625 L750.625 620.625 L750.625 659.375 L456.875 659.375 Z" stroke-width="0.5" stroke="black" stroke-linejoin="round" fill="white" fill-opacity="1" />
<line x1="456.875" y1="620.875" x2="456.875" y2="659.125" stroke="white" stroke-opacity="1" stroke-width="3" />
<path d="M583.125 614.125 Q575.625 611.625 583.125 606.625" stroke-width="4" stroke="black" fill="none" stroke-linecap="round" />
<line x1="583.125" y1="606.625" x2="743.125" y2="606.625" stroke-width="4" stroke="black" fill="dimgray" stroke-linecap="round" />
<line x1="598.125" y1="619.125" x2="583.125" y2="614.125" stroke-width="4" stroke="black" fill="dimgray" stroke-linecap="round" />
<line x1="614.375" y1="614.125" x2="598.125" y2="619.125" stroke-width="4" stroke="black" fill="dimgray" stroke-linecap="round" />
<line x1="743.125" y1="606.625" x2="750.625" y2="621.625" stroke-width="4" stroke="black" fill="dimgray" stroke-linecap="round" />
<path d="M750.625 618.125 L780.625 618.125 L780.625 661.875 L750.625 661.875 Z" stroke-width="0.5" stroke="black" stroke-linejoin="round" fill="white" fill-opacity="1" />
<text x="765.625" y="640" text-anchor="middle" dominant-baseline="central"><tspan stroke="dimgray" stroke-width="0.5" font-family="sans-serif" fill="black" textLength="{this.width * 5 - 12}" > HB</tspan></text><path d="M583.125 614.125 Q575.625 611.625 583.125 606.625" stroke-width="3" stroke="white" fill="none" stroke-linecap="round" />
<line x1="583.125" y1="606.625" x2="743.125" y2="606.625" stroke-width="3" stroke="white" fill="white" stroke-linecap="round" />
<line x1="598.125" y1="619.125" x2="583.125" y2="614.125" stroke-width="3" stroke="white" fill="white" stroke-linecap="round" />
<line x1="614.375" y1="614.125" x2="598.125" y2="619.125" stroke-width="3" stroke="white" fill="white" stroke-linecap="round" />
<line x1="743.125" y1="606.625" x2="750.625" y2="621.625" stroke-width="3" stroke="white" fill="white" stroke-linecap="round" />
<path d="M780.625 620.625 L815.625 620.625 L815.625 659.375 L780.625 659.375 Z" stroke-width="0.5" stroke="black" stroke-linejoin="round" fill="white" fill-opacity="1" />
<path d="M815.625 625.625 L875.625 625.625 L875.625 654.375 L815.625 654.375 Z" stroke-width="0.5" stroke="black" stroke-linejoin="round" fill="white" fill-opacity="1" />
<rect x="353.125" y="620.875" width="103.25" height="38.25" rx="0" ry="0" stroke-width="0.5" stroke="none" fill="white" fill-opacity="1"/>
<path d="M 386.875 620.625 C 478.125 625.46875, 478.125 635.15625, 386.875 640" stroke-width="0.5" stroke="black" stroke-linecap="round" fill-opacity="1" fill="white" />
<path d="M 386.875 659.375 C 478.125 654.53125, 478.125 644.84375, 386.875 640" stroke-width="0.5" stroke="black" stroke-linecap="round" fill-opacity="1" fill="white" />
<path d="M124.375 753.125 L126.875 753.125 L126.875 766.875 L124.375 766.875 Z" stroke-width="0.5" stroke="black" stroke-linejoin="round" fill="white" fill-opacity="1" />
<path d="M126.875 746.25 L173.125 742.5 L173.125 777.5 L126.875 773.75 Z" stroke-width="0.5" stroke="black" stroke-linejoin="round" fill="white" fill-opacity="1" />
<path d="M173.125 741.25 L283.125 738.75 L283.125 781.25 L173.125 778.75 Z" stroke-width="0.5" stroke="black" stroke-linejoin="round" fill="white" fill-opacity="1" />
<path d="M173.125 741.25 L283.125 738.75 L283.125 781.25 L173.125 778.75 Z" stroke-width="1.0" stroke="black" fill="url(#knurled)"/>
<path d="M283.125 740.625 L456.875 740.625 L456.875 779.375 L283.125 779.375 Z" stroke-width="0.5" stroke="black" stroke-linejoin="round" fill="white" fill-opacity="1" />
<line x1="283.125" y1="760" x2="386.875" y2="760" stroke-width="1.5" stroke="black" fill="none" stroke-opacity="0.5"/>
<line x1="283.125" y1="760" x2="386.875" y2="760" stroke-width="0.5" stroke="gray" fill="none" stroke-opacity="0.5"/>
<path d="M456.875 740.625 L750.625 740.625 L750.625 779.375 L456.875 779.375 Z" stroke-width="0.5" stroke="black" stroke-linejoin="round" fill="white" fill-opacity="1" />
<line x1="456.875" y1="740.875" x2="456.875" y2="779.125" stroke="white" stroke-opacity="1" stroke-width="3" />
<path d="M583.125 734.125 Q575.625 731.625 583.125 726.625" stroke-width="4" stroke="black" fill="none" stroke-linecap="round" />
<line x1="583.125" y1="726.625" x2="743.125" y2="726.625" stroke-width="4" stroke="black" fill="dimgray" stroke-linecap="round" />
<line x1="598.125" y1="739.125" x2="583.125" y2="734.125" stroke-width="4" stroke="black" fill="dimgray" stroke-linecap="round" />
<line x1="614.375" y1="734.125" x2="598.125" y2="739.125" stroke-width="4" stroke="black" fill="dimgray" stroke-linecap="round" />
<line x1="743.125" y1="726.625" x2="750.625" y2="741.625" stroke-width="4" stroke="black" fill="dimgray" stroke-linecap="round" />
<path d="M750.625 738.125 L780.625 738.125 L780.625 781.875 L750.625 781.875 Z" stroke-width="0.5" stroke="black" stroke-linejoin="round" fill="white" fill-opacity="1" />
<text x="765.625" y="760" text-anchor="middle" dominant-baseline="central"><tspan stroke="dimgray" stroke-width="0.5" font-family="sans-serif" fill="black" textLength="{this.width * 5 - 12}" > HB</tspan></text><path d="M583.125 734.125 Q575.625 731.625 583.125 726.625" stroke-width="3" stroke="white" fill="none" stroke-linecap="round" />
<line x1="583.125" y1="726.625" x2="743.125" y2="726.625" stroke-width="3" stroke="white" fill="white" stroke-linecap="round" />
<line x1="598.125" y1="739.125" x2="583.125" y2="734.125" stroke-width="3" stroke="white" fill="white" stroke-linecap="round" />
<line x1="614.375" y1="734.125" x2="598.125" y2="739.125" stroke-width="3" stroke="white" fill="white" stroke-linecap="round" />
<line x1="743.125" y1="726.625" x2="750.625" y2="741.625" stroke-width="3" stroke="white" fill="white" stroke-linecap="round" />
<path d="M780.625 740.625 L815.625 740.625 L815.625 779.375 L780.625 779.375 Z" stroke-width="0.5" stroke="black" stroke-linejoin="round" fill="white" fill-opacity="1" />
<path d="M815.625 745.625 L875.625 745.625 L875.625 774.375 L815.625 774.375 Z" stroke-width="0.5" stroke="black" stroke-linejoin="round" fill="white" fill-opacity="1" />
<rect x="353.125" y="740.875" width="103.25" height="38.25" rx="0" ry="0" stroke-width="0.5" stroke="none" fill="white" fill-opacity="1"/>
<path d="M 386.875 740.625 C 478.125 745.46875, 478.125 755.15625, 386.875 760" stroke-width="0.5" stroke="black" stroke-linecap="round" fill-opacity="1" fill="white" />
<path d="M 386.875 779.375 C 478.125 774.53125, 478.125 764.84375, 386.875 760" stroke-width="0.5" stroke="black" stroke-linecap="round" fill-opacity="1" fill="white" />
</g><text x="50%" y="860" font-size="1.1em" font-weight="bold" text-anchor="middle" dominant-baseline="middle">Copyright (c) // The Mechanical Pencil Database (tmpdb)</text>
<text x="50%" y="880" font-size="1.1em" font-weight="bold" text-anchor="middle" dominant-baseline="middle">Licensed under Creative Commons Attribution-NonCommercial-ShareAlike 4.0 International</text>
<text x="990" y="890" font-size="0.5em" font-weight="bold" text-anchor="end" dominant-baseline="middle">SVGTechnicalGroupedRenderer</text>
</svg>