<svg xmlns="http://www.w3.org/2000/svg" width="1500" height="600">
 <pattern id="diagonalHatch" patternUnits="userSpaceOnUse" width="8" height="8">
<path stroke="dimgray" stroke-linecap="round" stroke-width="1" d="M 4,4 L 8,8"/>
<path stroke="dimgray" stroke-linecap="round" stroke-width="1" d="M 4,4 L 0,8"/>
<path stroke="gray" stroke-linecap="round" stroke-width="1" d="M 4,4 L 8,0" />
<path stroke="gray" stroke-linecap="round" stroke-width="1" d="M 4,4 L 0,0" />
</pattern>
<pattern id="spring" patternUnits="userSpaceOnUse" width="8" height="100">
<path stroke="dimgray" stroke-linecap="round" stroke-width="2" d="M 0,0 L 8,100"/>
<path stroke="white" stroke-linecap="round" stroke-width="1" d="M 0,0 L 8,100"/>
</pattern>
<rect x="0" y="0" width="1500" height="600" fill="white" stroke="black" stroke-width="4" />
<rect x="2" y="2" width="1496" height="596" fill="white" stroke="dimgray" stroke-width="1" />
<g transform="rotate(0 0 0)">
<line x1="10" y1="300" x2="1490" y2="300" stroke-linecap="round" stroke="#000000" stroke-dasharray="2" stroke-width="1" />
<line x1="10" y1="300" x2="50" y2="300" stroke-linecap="round" stroke="#000000"  stroke-width="1" />
<line x1="30" y1="280" x2="30" y2="320" stroke="#000000" stroke-linecap="round"  stroke-width="1" />
<circle r="10" cx="30" cy="300" fill="white" fill-opacity="0" stroke="#000000" stroke-width="1"  />
<line x1="1450" y1="300" x2="1490" y2="300" stroke-linecap="round" stroke="#000000"  stroke-width="1" />
<line x1="1470" y1="280" x2="1470" y2="320" stroke="#000000" stroke-linecap="round"  stroke-width="1" />
<circle r="10" cx="1470" cy="300" fill="white" fill-opacity="0" stroke="#000000" stroke-width="1"  />
<line x1="160" y1="140" x2="160" y2="520" stroke="#000000" stroke-linecap="round" stroke-dasharray="2" stroke-width="1" />
<line x1="140" y1="150" x2="180" y2="150" stroke-linecap="round" stroke="#000000"  stroke-width="1" />
<line x1="160" y1="130" x2="160" y2="170" stroke="#000000" stroke-linecap="round"  stroke-width="1" />
<circle r="10" cx="160" cy="150" fill="white" fill-opacity="0" stroke="#000000" stroke-width="1"  />
<line x1="140" y1="500" x2="180" y2="500" stroke-linecap="round" stroke="#000000"  stroke-width="1" />
<line x1="160" y1="480" x2="160" y2="520" stroke="#000000" stroke-linecap="round"  stroke-width="1" />
<circle r="10" cx="160" cy="500" fill="white" fill-opacity="0" stroke="#000000" stroke-width="1"  />
<line x1="750" y1="140" x2="750" y2="520" stroke="#000000" stroke-linecap="round" stroke-dasharray="2" stroke-width="1" />
<line x1="730" y1="150" x2="770" y2="150" stroke-linecap="round" stroke="#000000"  stroke-width="1" />
<line x1="750" y1="130" x2="750" y2="170" stroke="#000000" stroke-linecap="round"  stroke-width="1" />
<circle r="10" cx="750" cy="150" fill="white" fill-opacity="0" stroke="#000000" stroke-width="1"  />
<line x1="730" y1="500" x2="770" y2="500" stroke-linecap="round" stroke="#000000"  stroke-width="1" />
<line x1="750" y1="480" x2="750" y2="520" stroke="#000000" stroke-linecap="round"  stroke-width="1" />
<circle r="10" cx="750" cy="500" fill="white" fill-opacity="0" stroke="#000000" stroke-width="1"  />
<line x1="1400" y1="140" x2="1400" y2="520" stroke="#000000" stroke-linecap="round" stroke-dasharray="2" stroke-width="1" />
<line x1="1380" y1="150" x2="1420" y2="150" stroke-linecap="round" stroke="#000000"  stroke-width="1" />
<line x1="1400" y1="130" x2="1400" y2="170" stroke="#000000" stroke-linecap="round"  stroke-width="1" />
<circle r="10" cx="1400" cy="150" fill="white" fill-opacity="0" stroke="#000000" stroke-width="1"  />
<line x1="1380" y1="500" x2="1420" y2="500" stroke-linecap="round" stroke="#000000"  stroke-width="1" />
<line x1="1400" y1="480" x2="1400" y2="520" stroke="#000000" stroke-linecap="round"  stroke-width="1" />
<circle r="10" cx="1400" cy="500" fill="white" fill-opacity="0" stroke="#000000" stroke-width="1"  />
<text x="30" y="50" font-size="2.0em" font-weight="bold"> Staedtler // Mars Technico </text>
<text x="30" y="80" font-size="1.1em"> STAEDTLER Mars technico</text>
<text x="30" y="100" font-size="1.1em"> Lead size: 2.0 mm</text>
<text x="1480" y="30" font-size="1.6em" font-weight="bold" text-anchor="end" dominant-baseline="central">Colour variants of the body</text>
<rect x="1440" y="55" width="40" rx="50%" ry="50%" height="40" stroke="black" stroke-width="2" fill="maroon" />
<text x="1460" y="100" transform="rotate(-90, 1460, 100)" font-size="1.2em" font-weight="bold" text-anchor="end" dominant-baseline="central">maroon</text>
<text x="30" y="136" font-size="1.2em" font-weight="bold" text-anchor="start" dominant-baseline="central">Materials:</text>
<text x="50" y="156" font-size="1.2em" text-anchor="start" dominant-baseline="central"> - metal</text>
<text x="50" y="176" font-size="1.2em" text-anchor="start" dominant-baseline="central"> - plastic</text>
<line x1="100" y1="258.125" x2="1400" y2="258.125" stroke-linecap="round" stroke="#cfcfcf"  stroke-width="1" />
<line x1="160" y1="278.125" x2="1400" y2="278.125" stroke-linecap="round" stroke="#cfcfcf"  stroke-width="1" />
<line x1="154.375" y1="230" x2="154.375" y2="300" stroke="#cfcfcf" stroke-linecap="round"  stroke-width="1" />
<line x1="165.625" y1="230" x2="165.625" y2="300" stroke="#cfcfcf" stroke-linecap="round"  stroke-width="1" />
<line x1="160" y1="276.875" x2="1400" y2="276.875" stroke-linecap="round" stroke="#cfcfcf"  stroke-width="1" />
<line x1="100" y1="323.125" x2="1400" y2="323.125" stroke-linecap="round" stroke="#cfcfcf"  stroke-width="1" />
<line x1="136.875" y1="300" x2="136.875" y2="343.125" stroke="#cfcfcf" stroke-linecap="round"  stroke-width="1" />
<line x1="183.125" y1="300" x2="183.125" y2="343.125" stroke="#cfcfcf" stroke-linecap="round"  stroke-width="1" />
<line x1="500" y1="180" x2="500" y2="420" stroke="#cfcfcf" stroke-linecap="round"  stroke-width="1" />
<line x1="502.5" y1="180" x2="502.5" y2="420" stroke="#cfcfcf" stroke-linecap="round"  stroke-width="1" />
<line x1="605" y1="180" x2="605" y2="420" stroke="#cfcfcf" stroke-linecap="round"  stroke-width="1" />
<line x1="732.5" y1="180" x2="732.5" y2="420" stroke="#cfcfcf" stroke-linecap="round"  stroke-width="1" />
<line x1="907.5" y1="180" x2="907.5" y2="420" stroke="#cfcfcf" stroke-linecap="round"  stroke-width="1" />
<line x1="760" y1="220" x2="760" y2="380" stroke="#cfcfcf" stroke-linecap="round"  stroke-width="1" />
<line x1="907.5" y1="220" x2="907.5" y2="380" stroke="#cfcfcf" stroke-linecap="round"  stroke-width="1" />
<line x1="941.25" y1="180" x2="941.25" y2="420" stroke="#cfcfcf" stroke-linecap="round"  stroke-width="1" />
<line x1="1000" y1="188.875" x2="1000" y2="396.875" stroke="#cfcfcf" stroke-linecap="round"  stroke-width="1" />
<text x="160" y="540" font-size="1.8em" font-weight="bold" text-anchor="middle" dominant-baseline="central">Front</text>
<text x="750" y="540" font-size="1.8em" font-weight="bold" text-anchor="middle" dominant-baseline="central">Side view</text>
<text x="1400" y="540" font-size="1.8em" font-weight="bold" text-anchor="middle" dominant-baseline="central">Back</text>
<line x1="154.375" y1="229" x2="154.375" y2="251" stroke="black" stroke-width="1" />
<line x1="154.375" y1="240" x2="165.625" y2="240" stroke="black" stroke-width="1" />
<line x1="165.625" y1="229" x2="165.625" y2="251" stroke="black" stroke-width="1" />
<text x="160" y="221" font-size="1.2em" font-weight="bold" text-anchor="middle" dominant-baseline="central" fill="black"><tspan x="160" dy="0">2.25 mm</tspan></text>
<line x1="211" y1="258.125" x2="233" y2="258.125" stroke="black" stroke-width="1" />
<line x1="222" y1="258.125" x2="222" y2="278.125" stroke="black" stroke-width="1" />
<line x1="211" y1="278.125" x2="233" y2="278.125" stroke="black" stroke-width="1" />
<text x="235" y="268.125" font-size="1.2em" font-weight="bold" text-anchor="start" dominant-baseline="central" fill="black">4.00 mm</text>
<line x1="199" y1="276.875" x2="221" y2="276.875" stroke="black" stroke-width="1" />
<line x1="210" y1="276.875" x2="210" y2="323.125" stroke="black" stroke-width="1" />
<line x1="199" y1="323.125" x2="221" y2="323.125" stroke="black" stroke-width="1" />
<text x="223" y="300" font-size="1.2em" font-weight="bold" text-anchor="start" dominant-baseline="central" fill="black">9.25 mm</text>
<line x1="99" y1="258.125" x2="121" y2="258.125" stroke="black" stroke-width="1" />
<line x1="110" y1="258.125" x2="110" y2="323.125" stroke="black" stroke-width="1" />
<line x1="99" y1="323.125" x2="121" y2="323.125" stroke="black" stroke-width="1" />
<text x="91" y="290.625" transform="rotate(-90, 91, 290.625)" font-size="1.2em" font-weight="bold" text-anchor="middle" dominant-baseline="central" fill="black">13 mm</text>
<line x1="136.875" y1="342.125" x2="136.875" y2="364.125" stroke="black" stroke-width="1" />
<line x1="136.875" y1="353.125" x2="183.125" y2="353.125" stroke="black" stroke-width="1" />
<line x1="183.125" y1="342.125" x2="183.125" y2="364.125" stroke="black" stroke-width="1" />
<text x="160" y="372.125" font-size="1.2em" font-weight="bold" text-anchor="middle" dominant-baseline="central" fill="black"><tspan x="160" dy="0">9.25 mm</tspan></text>
<line x1="500" y1="169" x2="500" y2="191" stroke="black" stroke-width="1" />
<line x1="500" y1="180" x2="502.5" y2="180" stroke="black" stroke-width="1" />
<line x1="502.5" y1="169" x2="502.5" y2="191" stroke="black" stroke-width="1" />
<text x="501.25" y="161" font-size="1.2em" transform="rotate(-90, 501.25, 161)" font-weight="bold" text-anchor="start" dominant-baseline="central" fill="black"><tspan x="501.25" dy="0">0.50 mm jaws</tspan></text>
<line x1="502.5" y1="169" x2="502.5" y2="191" stroke="black" stroke-width="1" />
<line x1="502.5" y1="180" x2="605" y2="180" stroke="black" stroke-width="1" />
<line x1="605" y1="169" x2="605" y2="191" stroke="black" stroke-width="1" />
<text x="553.75" y="161" font-size="1.2em" transform="rotate(-90, 541.75, 161)" font-weight="bold" text-anchor="start" dominant-baseline="central" fill="black"><tspan x="545.75" dy="0">20.50 mm</tspan><tspan x="545.75" dy="1em">tip</tspan></text>
<line x1="605" y1="169" x2="605" y2="191" stroke="black" stroke-width="1" />
<line x1="605" y1="180" x2="732.5" y2="180" stroke="black" stroke-width="1" />
<line x1="732.5" y1="169" x2="732.5" y2="191" stroke="black" stroke-width="1" />
<text x="668.75" y="161" font-size="1.2em" transform="rotate(-90, 656.75, 161)" font-weight="bold" text-anchor="start" dominant-baseline="central" fill="black"><tspan x="660.75" dy="0">25.50 mm</tspan><tspan x="660.75" dy="1em">grip</tspan></text>
<line x1="732.5" y1="169" x2="732.5" y2="191" stroke="black" stroke-width="1" />
<line x1="732.5" y1="180" x2="907.5" y2="180" stroke="black" stroke-width="1" />
<line x1="907.5" y1="169" x2="907.5" y2="191" stroke="black" stroke-width="1" />
<text x="820" y="161" font-size="1.2em" transform="rotate(-90, 808, 161)" font-weight="bold" text-anchor="start" dominant-baseline="central" fill="black"><tspan x="812" dy="0">35.00 mm</tspan><tspan x="812" dy="1em">body</tspan></text>
<line x1="907.5" y1="169" x2="907.5" y2="191" stroke="black" stroke-width="1" />
<line x1="907.5" y1="180" x2="941.25" y2="180" stroke="black" stroke-width="1" />
<line x1="941.25" y1="169" x2="941.25" y2="191" stroke="black" stroke-width="1" />
<text x="924.375" y="161" font-size="1.2em" transform="rotate(-90, 912.375, 161)" font-weight="bold" text-anchor="start" dominant-baseline="central" fill="black"><tspan x="916.375" dy="0">6.75 mm</tspan><tspan x="916.375" dy="1em">clip</tspan></text>
<line x1="760" y1="209" x2="760" y2="231" stroke="black" stroke-width="1" />
<line x1="760" y1="220" x2="907.5" y2="220" stroke="black" stroke-width="1" />
<line x1="907.5" y1="209" x2="907.5" y2="231" stroke="black" stroke-width="1" />
<text x="833.75" y="212" font-weight="bold" font-size="1.2em" text-anchor="middle" dominant-baseline="middle" fill="black"><tspan x="825.75" dy="0">29.50 mm</tspan><tspan x="825.75" dy="1em">clip (extra)</tspan></text>
<line x1="941.25" y1="169" x2="941.25" y2="191" stroke="black" stroke-width="1" />
<line x1="941.25" y1="180" x2="1000" y2="180" stroke="black" stroke-width="1" />
<line x1="1000" y1="169" x2="1000" y2="191" stroke="black" stroke-width="1" />
<text x="970.625" y="161" font-size="1.2em" transform="rotate(-90, 958.625, 161)" font-weight="bold" text-anchor="start" dominant-baseline="central" fill="black"><tspan x="962.625" dy="0">11.75 mm</tspan><tspan x="962.625" dy="1em">cap</tspan></text>
<line x1="500" y1="342.125" x2="500" y2="364.125" stroke="black" stroke-width="1" />
<line x1="500" y1="353.125" x2="1000" y2="353.125" stroke="black" stroke-width="1" />
<line x1="1000" y1="342.125" x2="1000" y2="364.125" stroke="black" stroke-width="1" />
<text x="750" y="353.125" font-weight="bold" font-size="1.2em" text-anchor="middle" dominant-baseline="middle" fill="black"><tspan x="750" dy="0">100.00 mm</tspan></text>
<line x1="500" y1="409" x2="500" y2="431" stroke="black" stroke-width="1" />
<line x1="500" y1="420" x2="502.5" y2="420" stroke="black" stroke-width="1" />
<line x1="502.5" y1="409" x2="502.5" y2="431" stroke="black" stroke-width="1" />
<text x="501.25" y="439" font-size="1.2em" transform="rotate(-90, 501.25, 439)"  text-anchor="end" dominant-baseline="middle" fill="black"><tspan x="501.25" dy="0">metal</tspan></text>
<line x1="502.5" y1="409" x2="502.5" y2="431" stroke="black" stroke-width="1" />
<line x1="502.5" y1="420" x2="605" y2="420" stroke="black" stroke-width="1" />
<line x1="605" y1="409" x2="605" y2="431" stroke="black" stroke-width="1" />
<text x="553.75" y="439" font-size="1.2em" transform="rotate(-90, 553.75, 439)"  text-anchor="end" dominant-baseline="middle" fill="black"><tspan x="553.75" dy="0">metal</tspan></text>
<line x1="605" y1="409" x2="605" y2="431" stroke="black" stroke-width="1" />
<line x1="605" y1="420" x2="732.5" y2="420" stroke="black" stroke-width="1" />
<line x1="732.5" y1="409" x2="732.5" y2="431" stroke="black" stroke-width="1" />
<text x="668.75" y="439" font-size="1.2em" transform="rotate(-90, 668.75, 439)"  text-anchor="end" dominant-baseline="middle" fill="black"><tspan x="668.75" dy="0">metal</tspan></text>
<line x1="732.5" y1="409" x2="732.5" y2="431" stroke="black" stroke-width="1" />
<line x1="732.5" y1="420" x2="907.5" y2="420" stroke="black" stroke-width="1" />
<line x1="907.5" y1="409" x2="907.5" y2="431" stroke="black" stroke-width="1" />
<text x="820" y="439" font-size="1.2em" transform="rotate(-90, 820, 439)"  text-anchor="end" dominant-baseline="middle" fill="black"><tspan x="820" dy="0">plastic</tspan></text>
<line x1="760" y1="369" x2="760" y2="391" stroke="black" stroke-width="1" />
<line x1="760" y1="380" x2="907.5" y2="380" stroke="black" stroke-width="1" />
<line x1="907.5" y1="369" x2="907.5" y2="391" stroke="black" stroke-width="1" />
<text x="833.75" y="399" font-size="1.2em"  text-anchor="middle" dominant-baseline="central" fill="black"><tspan x="833.75" dy="0">plastic</tspan></text>
<line x1="907.5" y1="409" x2="907.5" y2="431" stroke="black" stroke-width="1" />
<line x1="907.5" y1="420" x2="941.25" y2="420" stroke="black" stroke-width="1" />
<line x1="941.25" y1="409" x2="941.25" y2="431" stroke="black" stroke-width="1" />
<text x="924.375" y="439" font-size="1.2em" transform="rotate(-90, 924.375, 439)"  text-anchor="end" dominant-baseline="middle" fill="black"><tspan x="924.375" dy="0">plastic</tspan></text>
<line x1="941.25" y1="409" x2="941.25" y2="431" stroke="black" stroke-width="1" />
<line x1="941.25" y1="420" x2="1000" y2="420" stroke="black" stroke-width="1" />
<line x1="1000" y1="409" x2="1000" y2="431" stroke="black" stroke-width="1" />
<text x="970.625" y="439" font-size="1.2em" transform="rotate(-90, 970.625, 439)"  text-anchor="end" dominant-baseline="middle" fill="black"><tspan x="970.625" dy="0">plastic</tspan></text>
<line x1="1299" y1="278.75" x2="1321" y2="278.75" stroke="black" stroke-width="1" />
<line x1="1310" y1="278.75" x2="1310" y2="321.25" stroke="black" stroke-width="1" />
<line x1="1299" y1="321.25" x2="1321" y2="321.25" stroke="black" stroke-width="1" />
<text x="1291" y="300" transform="rotate(-90, 1291, 300)" font-size="1.2em" font-weight="bold" text-anchor="middle" dominant-baseline="central" fill="black">8.5 mm</text>
<line x1="1299" y1="278.75" x2="1321" y2="278.75" stroke="black" stroke-width="1" />
<line x1="1310" y1="278.75" x2="1310" y2="321.25" stroke="black" stroke-width="1" />
<line x1="1299" y1="321.25" x2="1321" y2="321.25" stroke="black" stroke-width="1" />
<text x="1310" y="329.25" transform="rotate(-90, 1310, 329.25)" font-weight="bold" font-size="1.2em" text-anchor="end" dominant-baseline="middle" fill="black">grip</text>
<line x1="1339" y1="280" x2="1361" y2="280" stroke="black" stroke-width="1" />
<line x1="1350" y1="280" x2="1350" y2="320" stroke="black" stroke-width="1" />
<line x1="1339" y1="320" x2="1361" y2="320" stroke="black" stroke-width="1" />
<text x="1331" y="300" transform="rotate(-90, 1331, 300)" font-size="1.2em" font-weight="bold" text-anchor="middle" dominant-baseline="central" fill="black">8 mm</text>
<line x1="1339" y1="280" x2="1361" y2="280" stroke="black" stroke-width="1" />
<line x1="1350" y1="280" x2="1350" y2="320" stroke="black" stroke-width="1" />
<line x1="1339" y1="320" x2="1361" y2="320" stroke="black" stroke-width="1" />
<text x="1350" y="328" transform="rotate(-90, 1350, 328)" font-weight="bold" font-size="1.2em" text-anchor="end" dominant-baseline="middle" fill="black">body</text>
<rect x="500" y="293.125" width="2.5" height="13.75" rx="0" ry="0" stroke-width="0.5" stroke="black" fill="silver" fill-opacity="1"/>
<path d="M502.5 286.25 L605 282.5 L605 317.5 L502.5 313.75 Z" stroke-width="0.5" stroke="black" stroke-linejoin="round" fill="silver" fill-opacity="1" />
<path d="M605 281.25 L732.5 278.75 L732.5 321.25 L605 318.75 Z" stroke-width="0.5" stroke="black" stroke-linejoin="round" fill="silver" fill-opacity="1" />
<path d="M605 281.25 L732.5 278.75 L732.5 321.25 L605 318.75 Z" stroke-width="1.0" stroke="black" fill="url(#diagonalHatch)"/>
<rect x="732.5" y="280" width="175" height="40" rx="0" ry="0" stroke-width="0.5" stroke="black" fill="maroon" fill-opacity="1"/>
<line x1="732.5" y1="300" x2="907.5" y2="300" stroke-width="1.5" stroke="black" fill="none" stroke-opacity="0.5"/>
<line x1="732.5" y1="300" x2="907.5" y2="300" stroke-width="0.5" stroke="gray" fill="none" stroke-opacity="0.5"/>
<path d="M802.5 271.625 Q780 284.125 767.5 272.875" stroke-width="4" stroke="black" fill="none" stroke-linecap="round" />
<path d="M767.5 272.875 Q760 269.125 767.5 267.875" stroke-width="4" stroke="black" fill="none" stroke-linecap="round" />
<line x1="767.5" y1="267.875" x2="902.5" y2="267.875" stroke-width="4" stroke="black" fill="dimgray" stroke-linecap="round" />
<line x1="902.5" y1="267.875" x2="907.5" y2="279.125" stroke-width="4" stroke="black" fill="dimgray" stroke-linecap="round" />
<rect x="907.5" y="276.875" width="33.75" height="46.25" rx="0" ry="0" stroke-width="0.5" stroke="black" fill="silver" fill-opacity="1"/>
<path d="M802.5 271.625 Q780 284.125 767.5 272.875" stroke-width="3" stroke="silver" fill="none" stroke-linecap="round" />
<path d="M767.5 272.875 Q760 269.125 767.5 267.875" stroke-width="3" stroke="silver" fill="none" stroke-linecap="round" />
<line x1="767.5" y1="267.875" x2="902.5" y2="267.875" stroke-width="3" stroke="silver" fill="silver" stroke-linecap="round" />
<line x1="902.5" y1="267.875" x2="907.5" y2="279.125" stroke-width="3" stroke="silver" fill="silver" stroke-linecap="round" />
<rect x="941.25" y="285" width="48.75" height="30" rx="0" ry="0" stroke-width="0.5" stroke="dimgray" fill="black" fill-opacity="1"/>
<rect x="990" y="281.25" width="10" height="37.5" rx="0" ry="0" stroke-width="0.5" stroke="dimgray" fill="black" fill-opacity="1"/>
<circle r="18.75" cx="160" cy="300" fill="black" fill-opacity="1" stroke="black" stroke-width="0.5"  />
<circle r="15" cx="160" cy="300" fill="black" fill-opacity="1" stroke="black" stroke-width="0.5"  />
<circle r="23.125" cx="160" cy="300" fill="silver" fill-opacity="1" stroke="black" stroke-width="0.5"  />
<polygon points="148.4529946162075,280 171.5470053837925,280 183.09401076758502,300 171.5470053837925,320 148.4529946162075,320 136.90598923241498,300 " stroke="black" stroke-width="0.5" fill="maroon" fill-opacity="1"/>
<circle r="18.75" cx="160" cy="300" stroke="black" stroke-width="0.5" fill="silver" fill-opacity="1"/>
<circle r="21.25" cx="160" cy="300" stroke="black" stroke-width="0.5" fill="silver" fill-opacity="1"/>
<circle r="13.75" cx="160" cy="300" stroke="black" stroke-width="0.5" fill="silver" fill-opacity="1"/>
<circle r="17.5" cx="160" cy="300" stroke="black" stroke-width="0.5" fill="silver" fill-opacity="1"/>
<circle r="6.875" cx="160" cy="300" fill="silver" fill-opacity="1" stroke="black" stroke-width="0.5"  />
<circle r="5" cx="160" cy="300" fill="white" fill-opacity="1" stroke="dimgray" stroke-width="0.5"  />
<circle r="6.875" cx="1400" cy="300" fill="silver" fill-opacity="1" stroke="black" stroke-width="0.5"  />
<circle r="13.75" cx="1400" cy="300" stroke="black" stroke-width="0.5" fill="silver" fill-opacity="1"/>
<circle r="17.5" cx="1400" cy="300" stroke="black" stroke-width="0.5" fill="silver" fill-opacity="1"/>
<circle r="18.75" cx="1400" cy="300" stroke="black" stroke-width="0.5" fill="silver" fill-opacity="1"/>
<circle r="21.25" cx="1400" cy="300" stroke="black" stroke-width="0.5" fill="silver" fill-opacity="1"/>
<polygon points="1388.4529946162074,280 1411.5470053837926,280 1423.0940107675851,300 1411.5470053837926,320 1388.4529946162074,320 1376.9059892324149,300 " stroke="black" stroke-width="0.5" fill="maroon" fill-opacity="1"/>
<circle r="23.125" cx="1400" cy="300" fill="silver" fill-opacity="1" stroke="black" stroke-width="0.5"  />
<circle r="15" cx="1400" cy="300" fill="black" fill-opacity="1" stroke="black" stroke-width="0.5"  />
<circle r="18.75" cx="1400" cy="300" fill="black" fill-opacity="1" stroke="black" stroke-width="0.5"  />
</g><text x="50%" y="580" font-size="1.1em" font-weight="bold" text-anchor="middle" dominant-baseline="middle">Copyright (c) // The Mechanical Pencil Database (tmpdb) // Licensed under Creative Commons Attribution-NonCommercial-ShareAlike 4.0 International</text>
<text x="1490" y="590" font-size="0.5em" font-weight="bold" text-anchor="end" dominant-baseline="middle">SVGTechnicalRenderer</text>
</svg>