<svg xmlns="http://www.w3.org/2000/svg" width="1000" height="900">
 <pattern id="knurled-large" patternUnits="userSpaceOnUse" width="12" height="12">
<path stroke="dimgray" stroke-linecap="round" stroke-width="1" d="M 6,6 L 12,12"/>
<path stroke="dimgray" stroke-linecap="round" stroke-width="1" d="M 6,6 L 0,12"/>
<path stroke="gray" stroke-linecap="round" stroke-width="1" d="M 6,6 L 12,0" />
<path stroke="gray" stroke-linecap="round" stroke-width="1" d="M 6,6 L 0,0" />
</pattern><pattern id="knurled-small" patternUnits="userSpaceOnUse" width="4" height="4">
<path stroke="dimgray" stroke-linecap="round" stroke-width="1" d="M 2,2 L 4,4"/>
<path stroke="dimgray" stroke-linecap="round" stroke-width="1" d="M 2,2 L 0,4"/>
<path stroke="gray" stroke-linecap="round" stroke-width="1" d="M 2,2 L 4,0" />
<path stroke="gray" stroke-linecap="round" stroke-width="1" d="M 2,2 L 0,0" />
</pattern><pattern id="knurled" patternUnits="userSpaceOnUse" width="8" height="8">
<path stroke="dimgray" stroke-linecap="round" stroke-width="1" d="M 4,4 L 8,8"/>
<path stroke="dimgray" stroke-linecap="round" stroke-width="1" d="M 4,4 L 0,8"/>
<path stroke="gray" stroke-linecap="round" stroke-width="1" d="M 4,4 L 8,0" />
<path stroke="gray" stroke-linecap="round" stroke-width="1" d="M 4,4 L 0,0" />
</pattern><pattern id="lined" patternUnits="userSpaceOnUse" width="3" height="3">
<path stroke="dimgray" stroke-linecap="round" stroke-width="1" d="M 0,0 L 3,0"/>
</pattern><pattern id="ridged" patternUnits="userSpaceOnUse" width="3" height="3">
<path stroke="dimgray" stroke-linecap="round" stroke-width="1" d="M 0,0 L 0,3"/>
</pattern><pattern id="spring" patternUnits="userSpaceOnUse" width="8" height="60">
<path stroke="dimgray" stroke-linecap="round" stroke-width="2" d="M 1,1 L 8,60"/>
<path stroke="white" stroke-linecap="round" stroke-width="1" d="M 1,1 L 8,60"/>
</pattern><rect x="0" y="0" width="1000" height="900" fill="white" stroke="black" stroke-width="4" />
<rect x="2" y="2" width="996" height="896" fill="white" stroke="dimgray" stroke-width="1" />
<g transform="rotate(0 0 0)">
<text x="30" y="50" font-size="2.0em" font-weight="bold"> Staedtler // Mars Technico (Model #: 780c)</text>
<line x1="360" y1="124" x2="360" y2="162" stroke="black" stroke-linecap="round"  stroke-width="2" />
<line x1="240" y1="140" x2="360" y2="140" stroke-linecap="round" stroke="black"  stroke-width="2" />
<line x1="246" y1="144" x2="360" y2="144" stroke-linecap="round" stroke="black"  stroke-width="2" />
<text x="500" y="140" font-size="2.4em" font-weight="bold" text-anchor="middle" dominant-baseline="central">Measurements</text>
<line x1="640" y1="140" x2="760" y2="140" stroke-linecap="round" stroke="black"  stroke-width="2" />
<line x1="640" y1="144" x2="754" y2="144" stroke-linecap="round" stroke="black"  stroke-width="2" />
<line x1="640" y1="124" x2="640" y2="162" stroke="black" stroke-linecap="round"  stroke-width="2" />
<line x1="40" y1="300" x2="960" y2="300" stroke-linecap="round" stroke="#5f5f5f" stroke-dasharray="2" stroke-width="1" />
<line x1="20" y1="300" x2="60" y2="300" stroke-linecap="round" stroke="#000000"  stroke-width="1" />
<line x1="40" y1="280" x2="40" y2="320" stroke="#000000" stroke-linecap="round"  stroke-width="1" />
<circle r="10" cx="40" cy="300" fill="white" fill-opacity="0" stroke="#000000" stroke-width="1"  />
<line x1="940" y1="300" x2="980" y2="300" stroke-linecap="round" stroke="#000000"  stroke-width="1" />
<line x1="960" y1="280" x2="960" y2="320" stroke="#000000" stroke-linecap="round"  stroke-width="1" />
<circle r="10" cx="960" cy="300" fill="white" fill-opacity="0" stroke="#000000" stroke-width="1"  />


<!-- renderSideComponent: jaws -->


<!-- renderPart: cylinder -->
<path d="M124.325 293.125 L126.925 293.125 L126.925 306.875 L124.325 306.875 L124.325 293.125" stroke-width="0" stroke="none" stroke-linejoin="round" fill="white" fill-opacity="1"/>
<path d="M124.325 293.125 L126.925 293.125 M126.925 306.875 L124.325 306.875" stroke-width="0.5" stroke="black" stroke-linejoin="round" fill="white" fill-opacity="1"/>
<!-- !right !both --><path d="M126.925 293.125 L126.925 306.875" stroke-width="0.5" stroke="black" stroke-linejoin="round" fill="white" fill-opacity="1"/>
<!-- !left !both --><path d="M124.325 293.125 L124.325 306.875" stroke-width="0.5" stroke="black" stroke-linejoin="round" fill="white" fill-opacity="1"/>


<!-- renderSideComponent: tip -->


<!-- renderPart: cone -->
<path d="M126.825 286.25 L173.175 282.5 L173.175 317.5 L126.825 313.75 L126.825 286.25" stroke-width="0" stroke="none" stroke-linejoin="round" fill="white" fill-opacity="1"/>
<path d="M126.825 286.25 L173.175 282.5 M173.175 317.5 L126.825 313.75" stroke-width="0.5" stroke="black" stroke-linejoin="round" fill="white" fill-opacity="1"/>
<!-- !right !both --><path d="M173.175 282.5 L173.175 317.5" stroke-width="0.5" stroke="black" stroke-linejoin="round" fill="white" fill-opacity="1"/>
<!-- !left !both --><path d="M126.825 286.25 L126.825 313.75" stroke-width="0.5" stroke="black" stroke-linejoin="round" fill="white" fill-opacity="1"/>


<!-- renderSideComponent: grip -->


<!-- renderPart: cone -->
<path d="M173.075 281.25 L283.175 278.75 L283.175 321.25 L173.075 318.75 L173.075 281.25" stroke-width="0" stroke="none" stroke-linejoin="round" fill="white" fill-opacity="1"/>
<path d="M173.075 281.25 L283.175 278.75 M283.175 321.25 L173.075 318.75" stroke-width="0.5" stroke="black" stroke-linejoin="round" fill="white" fill-opacity="1"/>
<!-- !right !both --><path d="M283.175 278.75 L283.175 321.25" stroke-width="0.5" stroke="black" stroke-linejoin="round" fill="white" fill-opacity="1"/>
<!-- !left !both --><path d="M173.075 281.25 L173.075 318.75" stroke-width="0.5" stroke="black" stroke-linejoin="round" fill="white" fill-opacity="1"/>
<!-- DEFAULT FINISH: knurled --><path d="M173.125 281.25 L283.125 278.75 L283.125 321.25 L173.125 318.75 Z" stroke-width="0.5" stroke="black" fill="url(#knurled)"/>


<!-- renderSideComponent: body -->


<!-- renderPart: hexagonal -->
<path d="M283.075 280.625 L456.925 280.625 L456.925 319.375 L283.075 319.375 L283.075 280.625" stroke-width="0" stroke="none" stroke-linejoin="round" fill="white" fill-opacity="1"/>
<path d="M283.075 280.625 L456.925 280.625 M456.925 319.375 L283.075 319.375" stroke-width="0.5" stroke="black" stroke-linejoin="round" fill="white" fill-opacity="1"/>
<!-- !left !both --><path d="M283.075 280.625 L283.075 319.375" stroke-width="0.5" stroke="black" stroke-linejoin="round" fill="white" fill-opacity="1"/>
<line x1="283.125" y1="300" x2="386.875" y2="300" stroke-width="1.5" stroke="gray" fill="gray" stroke-opacity="1.0"/>
<line x1="283.125" y1="300" x2="386.875" y2="300" stroke-width="0.5" stroke="black" fill="none" stroke-opacity="0.5"/>


<!-- renderPart: cylinder -->
<path d="M456.825 280.625 L750.675 280.625 L750.675 319.375 L456.825 319.375 L456.825 280.625" stroke-width="0" stroke="none" stroke-linejoin="round" fill="white" fill-opacity="1"/>
<path d="M456.825 280.625 L750.675 280.625 M750.675 319.375 L456.825 319.375" stroke-width="0.5" stroke="black" stroke-linejoin="round" fill="white" fill-opacity="1"/>
<!-- !right !both --><path d="M750.675 280.625 L750.675 319.375" stroke-width="0.5" stroke="black" stroke-linejoin="round" fill="white" fill-opacity="1"/>


<!-- renderSideComponent: clip -->
<path d="M583.125 274.125 Q575.625 271.625 583.125 266.625" stroke-width="4" stroke="black" fill="none" stroke-linecap="round" />
<line x1="583.125" y1="266.625" x2="743.125" y2="266.625" stroke-width="4" stroke="black" fill="dimgray" stroke-linecap="round" />
<line x1="598.125" y1="279.125" x2="583.125" y2="274.125" stroke-width="4" stroke="black" fill="dimgray" stroke-linecap="round" />
<line x1="614.375" y1="274.125" x2="598.125" y2="279.125" stroke-width="4" stroke="black" fill="dimgray" stroke-linecap="round" />
<line x1="743.125" y1="266.625" x2="750.625" y2="281.625" stroke-width="4" stroke="black" fill="dimgray" stroke-linecap="round" />


<!-- renderPart: cylinder -->
<path d="M750.575 278.125 L780.675 278.125 L780.675 321.875 L750.575 321.875 L750.575 278.125" stroke-width="0" stroke="none" stroke-linejoin="round" fill="white" fill-opacity="1"/>
<path d="M750.575 278.125 L780.675 278.125 M780.675 321.875 L750.575 321.875" stroke-width="0.5" stroke="black" stroke-linejoin="round" fill="white" fill-opacity="1"/>
<!-- !right !both --><path d="M780.675 278.125 L780.675 321.875" stroke-width="0.5" stroke="black" stroke-linejoin="round" fill="white" fill-opacity="1"/>
<!-- !left !both --><path d="M750.575 278.125 L750.575 321.875" stroke-width="0.5" stroke="black" stroke-linejoin="round" fill="white" fill-opacity="1"/>
<text x="765.625" y="300" text-anchor="middle" dominant-baseline="central"><tspan stroke="dimgray" stroke-width="0.5" font-family="sans-serif" fill="black" textLength="{this.width * 5 - 12}" > HB</tspan></text><path d="M583.125 274.125 Q575.625 271.625 583.125 266.625" stroke-width="3" stroke="white" fill="none" stroke-linecap="round" />
<line x1="583.125" y1="266.625" x2="743.125" y2="266.625" stroke-width="3" stroke="white" fill="white" stroke-linecap="round" />
<line x1="598.125" y1="279.125" x2="583.125" y2="274.125" stroke-width="3" stroke="white" fill="white" stroke-linecap="round" />
<line x1="614.375" y1="274.125" x2="598.125" y2="279.125" stroke-width="3" stroke="white" fill="white" stroke-linecap="round" />
<line x1="743.125" y1="266.625" x2="750.625" y2="281.625" stroke-width="3" stroke="white" fill="white" stroke-linecap="round" />


<!-- renderSideComponent: tail -->


<!-- renderPart: cylinder -->
<path d="M780.575 280.625 L815.675 280.625 L815.675 319.375 L780.575 319.375 L780.575 280.625" stroke-width="0" stroke="none" stroke-linejoin="round" fill="white" fill-opacity="1"/>
<path d="M780.575 280.625 L815.675 280.625 M815.675 319.375 L780.575 319.375" stroke-width="0.5" stroke="black" stroke-linejoin="round" fill="white" fill-opacity="1"/>
<!-- !right !both --><path d="M815.675 280.625 L815.675 319.375" stroke-width="0.5" stroke="black" stroke-linejoin="round" fill="white" fill-opacity="1"/>
<!-- !left !both --><path d="M780.575 280.625 L780.575 319.375" stroke-width="0.5" stroke="black" stroke-linejoin="round" fill="white" fill-opacity="1"/>


<!-- renderSideComponent: cap -->


<!-- renderPart: cylinder -->
<path d="M815.575 285.625 L875.675 285.625 L875.675 314.375 L815.575 314.375 L815.575 285.625" stroke-width="0" stroke="none" stroke-linejoin="round" fill="white" fill-opacity="1"/>
<path d="M815.575 285.625 L875.675 285.625 M875.675 314.375 L815.575 314.375" stroke-width="0.5" stroke="black" stroke-linejoin="round" fill="white" fill-opacity="1"/>
<!-- !right !both --><path d="M875.675 285.625 L875.675 314.375" stroke-width="0.5" stroke="black" stroke-linejoin="round" fill="white" fill-opacity="1"/>
<!-- !left !both --><path d="M815.575 285.625 L815.575 314.375" stroke-width="0.5" stroke="black" stroke-linejoin="round" fill="white" fill-opacity="1"/>

<!-- TAPER END: hexagonal -->
<path d="M 386.875 280.625 C 478.125 285.46875, 478.125 295.15625, 386.875 300" stroke-width="0.5" stroke="black" stroke-linecap="round" fill-opacity="1" fill="white" />
<path d="M 386.875 319.375 C 478.125 314.53125, 478.125 304.84375, 386.875 300" stroke-width="0.5" stroke="black" stroke-linecap="round" fill-opacity="1" fill="white" />
<line x1="124.375" y1="207.125" x2="124.375" y2="229.125" stroke="black" stroke-width="1" />
<line x1="124.375" y1="218.125" x2="173.125" y2="218.125" stroke="black" stroke-width="1" />
<line x1="173.125" y1="207.125" x2="173.125" y2="229.125" stroke="black" stroke-width="1" />
<text x="148.75" y="199.125" font-size="1.2em" font-weight="bold" text-anchor="middle" dominant-baseline="central" fill="black"><tspan x="148.75" dy="0">9.75 mm</tspan></text>
<line x1="124.375" y1="207.125" x2="124.375" y2="229.125" stroke="black" stroke-width="1" />
<line x1="124.375" y1="218.125" x2="173.125" y2="218.125" stroke="black" stroke-width="1" />
<line x1="173.125" y1="207.125" x2="173.125" y2="229.125" stroke="black" stroke-width="1" />
<text x="148.75" y="237.125" font-size="1.2em" font-weight="bold" text-anchor="middle" dominant-baseline="central" fill="black"><tspan x="148.75" dy="0">tip</tspan></text>
<line x1="173.125" y1="207.125" x2="173.125" y2="229.125" stroke="black" stroke-width="1" />
<line x1="173.125" y1="218.125" x2="815.625" y2="218.125" stroke="black" stroke-width="1" />
<line x1="815.625" y1="207.125" x2="815.625" y2="229.125" stroke="black" stroke-width="1" />
<text x="494.375" y="199.125" font-size="1.2em" font-weight="bold" text-anchor="middle" dominant-baseline="central" fill="black"><tspan x="494.375" dy="0">128.50 mm</tspan></text>
<line x1="173.125" y1="207.125" x2="173.125" y2="229.125" stroke="black" stroke-width="1" />
<line x1="173.125" y1="218.125" x2="815.625" y2="218.125" stroke="black" stroke-width="1" />
<line x1="815.625" y1="207.125" x2="815.625" y2="229.125" stroke="black" stroke-width="1" />
<text x="494.375" y="237.125" font-size="1.2em" font-weight="bold" text-anchor="middle" dominant-baseline="central" fill="black"><tspan x="494.375" dy="0">body</tspan></text>
<line x1="815.625" y1="207.125" x2="815.625" y2="229.125" stroke="black" stroke-width="1" />
<line x1="815.625" y1="218.125" x2="875.625" y2="218.125" stroke="black" stroke-width="1" />
<line x1="875.625" y1="207.125" x2="875.625" y2="229.125" stroke="black" stroke-width="1" />
<text x="845.625" y="199.125" font-size="1.2em" font-weight="bold" text-anchor="middle" dominant-baseline="central" fill="black"><tspan x="845.625" dy="0">12.00 mm</tspan></text>
<line x1="815.625" y1="207.125" x2="815.625" y2="229.125" stroke="black" stroke-width="1" />
<line x1="815.625" y1="218.125" x2="875.625" y2="218.125" stroke="black" stroke-width="1" />
<line x1="875.625" y1="207.125" x2="875.625" y2="229.125" stroke="black" stroke-width="1" />
<text x="845.625" y="237.125" font-size="1.2em" font-weight="bold" text-anchor="middle" dominant-baseline="central" fill="black"><tspan x="845.625" dy="0">cap</tspan></text>
<line x1="124.375" y1="400.875" x2="124.375" y2="422.875" stroke="black" stroke-width="1" />
<line x1="124.375" y1="411.875" x2="875.625" y2="411.875" stroke="black" stroke-width="1" />
<line x1="875.625" y1="400.875" x2="875.625" y2="422.875" stroke="black" stroke-width="1" />
<text x="500" y="430.875" font-size="1.2em" font-weight="bold" text-anchor="middle" dominant-baseline="central" fill="black"><tspan x="500" dy="0">150.25 mm</tspan></text>
<line x1="124.375" y1="400.875" x2="124.375" y2="422.875" stroke="black" stroke-width="1" />
<line x1="124.375" y1="411.875" x2="875.625" y2="411.875" stroke="black" stroke-width="1" />
<line x1="875.625" y1="400.875" x2="875.625" y2="422.875" stroke="black" stroke-width="1" />
<text x="500" y="392.875" font-size="1.2em" font-weight="bold" text-anchor="middle" dominant-baseline="central" fill="black"><tspan x="500" dy="0">Total Length</tspan></text>
<line x1="580.625" y1="340.875" x2="580.625" y2="362.875" stroke="black" stroke-width="1" />
<line x1="580.625" y1="351.875" x2="750.625" y2="351.875" stroke="black" stroke-width="1" />
<line x1="750.625" y1="340.875" x2="750.625" y2="362.875" stroke="black" stroke-width="1" />
<text x="665.625" y="332.875" font-size="1.2em" font-weight="bold" text-anchor="middle" dominant-baseline="central" fill="black"><tspan x="665.625" dy="0">34.00 mm</tspan></text>
<line x1="580.625" y1="340.875" x2="580.625" y2="362.875" stroke="black" stroke-width="1" />
<line x1="580.625" y1="351.875" x2="750.625" y2="351.875" stroke="black" stroke-width="1" />
<line x1="750.625" y1="340.875" x2="750.625" y2="362.875" stroke="black" stroke-width="1" />
<text x="665.625" y="370.875" font-size="1.2em" font-weight="bold" text-anchor="middle" dominant-baseline="central" fill="black"><tspan x="665.625" dy="0">clip</tspan></text>
<line x1="173.125" y1="340.875" x2="173.125" y2="362.875" stroke="black" stroke-width="1" />
<line x1="173.125" y1="351.875" x2="283.125" y2="351.875" stroke="black" stroke-width="1" />
<line x1="283.125" y1="340.875" x2="283.125" y2="362.875" stroke="black" stroke-width="1" />
<text x="228.125" y="332.875" font-size="1.2em" font-weight="bold" text-anchor="middle" dominant-baseline="central" fill="black"><tspan x="228.125" dy="0">22.00 mm</tspan></text>
<line x1="173.125" y1="340.875" x2="173.125" y2="362.875" stroke="black" stroke-width="1" />
<line x1="173.125" y1="351.875" x2="283.125" y2="351.875" stroke="black" stroke-width="1" />
<line x1="283.125" y1="340.875" x2="283.125" y2="362.875" stroke="black" stroke-width="1" />
<text x="228.125" y="370.875" font-size="1.2em" font-weight="bold" text-anchor="middle" dominant-baseline="central" fill="black"><tspan x="228.125" dy="0">grip</tspan></text>
<line x1="414" y1="524" x2="414" y2="562" stroke="black" stroke-linecap="round"  stroke-width="2" />
<line x1="240" y1="540" x2="414" y2="540" stroke-linecap="round" stroke="black"  stroke-width="2" />
<line x1="246" y1="544" x2="414" y2="544" stroke-linecap="round" stroke="black"  stroke-width="2" />
<text x="500" y="540" font-size="2.4em" font-weight="bold" text-anchor="middle" dominant-baseline="central">Variants</text>
<line x1="586" y1="540" x2="760" y2="540" stroke-linecap="round" stroke="black"  stroke-width="2" />
<line x1="586" y1="544" x2="754" y2="544" stroke-linecap="round" stroke="black"  stroke-width="2" />
<line x1="586" y1="524" x2="586" y2="562" stroke="black" stroke-linecap="round"  stroke-width="2" />


<!-- renderSideComponent: jaws -->


<!-- renderPart: cylinder -->
<path d="M124.325 633.125 L126.925 633.125 L126.925 646.875 L124.325 646.875 L124.325 633.125" stroke-width="0" stroke="none" stroke-linejoin="round" fill="silver" fill-opacity="1"/>
<path d="M124.325 633.125 L126.925 633.125 M126.925 646.875 L124.325 646.875" stroke-width="0.5" stroke="black" stroke-linejoin="round" fill="silver" fill-opacity="1"/>
<!-- !right !both --><path d="M126.925 633.125 L126.925 646.875" stroke-width="0.5" stroke="black" stroke-linejoin="round" fill="silver" fill-opacity="1"/>
<!-- !left !both --><path d="M124.325 633.125 L124.325 646.875" stroke-width="0.5" stroke="black" stroke-linejoin="round" fill="silver" fill-opacity="1"/>


<!-- renderSideComponent: tip -->


<!-- renderPart: cone -->
<path d="M126.825 626.25 L173.175 622.5 L173.175 657.5 L126.825 653.75 L126.825 626.25" stroke-width="0" stroke="none" stroke-linejoin="round" fill="silver" fill-opacity="1"/>
<path d="M126.825 626.25 L173.175 622.5 M173.175 657.5 L126.825 653.75" stroke-width="0.5" stroke="black" stroke-linejoin="round" fill="silver" fill-opacity="1"/>
<!-- !right !both --><path d="M173.175 622.5 L173.175 657.5" stroke-width="0.5" stroke="black" stroke-linejoin="round" fill="silver" fill-opacity="1"/>
<!-- !left !both --><path d="M126.825 626.25 L126.825 653.75" stroke-width="0.5" stroke="black" stroke-linejoin="round" fill="silver" fill-opacity="1"/>


<!-- renderSideComponent: grip -->


<!-- renderPart: cone -->
<path d="M173.075 621.25 L283.175 618.75 L283.175 661.25 L173.075 658.75 L173.075 621.25" stroke-width="0" stroke="none" stroke-linejoin="round" fill="silver" fill-opacity="1"/>
<path d="M173.075 621.25 L283.175 618.75 M283.175 661.25 L173.075 658.75" stroke-width="0.5" stroke="black" stroke-linejoin="round" fill="silver" fill-opacity="1"/>
<!-- !right !both --><path d="M283.175 618.75 L283.175 661.25" stroke-width="0.5" stroke="black" stroke-linejoin="round" fill="silver" fill-opacity="1"/>
<!-- !left !both --><path d="M173.075 621.25 L173.075 658.75" stroke-width="0.5" stroke="black" stroke-linejoin="round" fill="silver" fill-opacity="1"/>
<!-- DEFAULT FINISH: knurled --><path d="M173.125 621.25 L283.125 618.75 L283.125 661.25 L173.125 658.75 Z" stroke-width="0.5" stroke="black" fill="url(#knurled)"/>


<!-- renderSideComponent: body -->


<!-- renderPart: hexagonal -->
<path d="M283.075 620.625 L456.925 620.625 L456.925 659.375 L283.075 659.375 L283.075 620.625" stroke-width="0" stroke="none" stroke-linejoin="round" fill="black" fill-opacity="1"/>
<path d="M283.075 620.625 L456.925 620.625 M456.925 659.375 L283.075 659.375" stroke-width="0.5" stroke="dimgray" stroke-linejoin="round" fill="black" fill-opacity="1"/>
<!-- !left !both --><path d="M283.075 620.625 L283.075 659.375" stroke-width="0.5" stroke="dimgray" stroke-linejoin="round" fill="black" fill-opacity="1"/>
<line x1="283.125" y1="640" x2="386.875" y2="640" stroke-width="1.5" stroke="gray" fill="gray" stroke-opacity="1.0"/>
<line x1="283.125" y1="640" x2="386.875" y2="640" stroke-width="0.5" stroke="black" fill="none" stroke-opacity="0.5"/>


<!-- renderPart: cylinder -->
<path d="M456.825 620.625 L750.675 620.625 L750.675 659.375 L456.825 659.375 L456.825 620.625" stroke-width="0" stroke="none" stroke-linejoin="round" fill="black" fill-opacity="1"/>
<path d="M456.825 620.625 L750.675 620.625 M750.675 659.375 L456.825 659.375" stroke-width="0.5" stroke="dimgray" stroke-linejoin="round" fill="black" fill-opacity="1"/>
<!-- !right !both --><path d="M750.675 620.625 L750.675 659.375" stroke-width="0.5" stroke="dimgray" stroke-linejoin="round" fill="black" fill-opacity="1"/>


<!-- renderSideComponent: clip -->
<path d="M583.125 614.125 Q575.625 611.625 583.125 606.625" stroke-width="4" stroke="black" fill="none" stroke-linecap="round" />
<line x1="583.125" y1="606.625" x2="743.125" y2="606.625" stroke-width="4" stroke="black" fill="dimgray" stroke-linecap="round" />
<line x1="598.125" y1="619.125" x2="583.125" y2="614.125" stroke-width="4" stroke="black" fill="dimgray" stroke-linecap="round" />
<line x1="614.375" y1="614.125" x2="598.125" y2="619.125" stroke-width="4" stroke="black" fill="dimgray" stroke-linecap="round" />
<line x1="743.125" y1="606.625" x2="750.625" y2="621.625" stroke-width="4" stroke="black" fill="dimgray" stroke-linecap="round" />


<!-- renderPart: cylinder -->
<path d="M750.575 618.125 L780.675 618.125 L780.675 661.875 L750.575 661.875 L750.575 618.125" stroke-width="0" stroke="none" stroke-linejoin="round" fill="silver" fill-opacity="1"/>
<path d="M750.575 618.125 L780.675 618.125 M780.675 661.875 L750.575 661.875" stroke-width="0.5" stroke="black" stroke-linejoin="round" fill="silver" fill-opacity="1"/>
<!-- !right !both --><path d="M780.675 618.125 L780.675 661.875" stroke-width="0.5" stroke="black" stroke-linejoin="round" fill="silver" fill-opacity="1"/>
<!-- !left !both --><path d="M750.575 618.125 L750.575 661.875" stroke-width="0.5" stroke="black" stroke-linejoin="round" fill="silver" fill-opacity="1"/>
<text x="765.625" y="640" text-anchor="middle" dominant-baseline="central"><tspan stroke="dimgray" stroke-width="0.5" font-family="sans-serif" fill="black" textLength="{this.width * 5 - 12}" > HB</tspan></text><path d="M583.125 614.125 Q575.625 611.625 583.125 606.625" stroke-width="3" stroke="silver" fill="none" stroke-linecap="round" />
<line x1="583.125" y1="606.625" x2="743.125" y2="606.625" stroke-width="3" stroke="silver" fill="silver" stroke-linecap="round" />
<line x1="598.125" y1="619.125" x2="583.125" y2="614.125" stroke-width="3" stroke="silver" fill="silver" stroke-linecap="round" />
<line x1="614.375" y1="614.125" x2="598.125" y2="619.125" stroke-width="3" stroke="silver" fill="silver" stroke-linecap="round" />
<line x1="743.125" y1="606.625" x2="750.625" y2="621.625" stroke-width="3" stroke="silver" fill="silver" stroke-linecap="round" />


<!-- renderSideComponent: tail -->


<!-- renderPart: cylinder -->
<path d="M780.575 620.625 L815.675 620.625 L815.675 659.375 L780.575 659.375 L780.575 620.625" stroke-width="0" stroke="none" stroke-linejoin="round" fill="black" fill-opacity="1"/>
<path d="M780.575 620.625 L815.675 620.625 M815.675 659.375 L780.575 659.375" stroke-width="0.5" stroke="dimgray" stroke-linejoin="round" fill="black" fill-opacity="1"/>
<!-- !right !both --><path d="M815.675 620.625 L815.675 659.375" stroke-width="0.5" stroke="dimgray" stroke-linejoin="round" fill="black" fill-opacity="1"/>
<!-- !left !both --><path d="M780.575 620.625 L780.575 659.375" stroke-width="0.5" stroke="dimgray" stroke-linejoin="round" fill="black" fill-opacity="1"/>


<!-- renderSideComponent: cap -->


<!-- renderPart: cylinder -->
<path d="M815.575 625.625 L875.675 625.625 L875.675 654.375 L815.575 654.375 L815.575 625.625" stroke-width="0" stroke="none" stroke-linejoin="round" fill="silver" fill-opacity="1"/>
<path d="M815.575 625.625 L875.675 625.625 M875.675 654.375 L815.575 654.375" stroke-width="0.5" stroke="black" stroke-linejoin="round" fill="silver" fill-opacity="1"/>
<!-- !right !both --><path d="M875.675 625.625 L875.675 654.375" stroke-width="0.5" stroke="black" stroke-linejoin="round" fill="silver" fill-opacity="1"/>
<!-- !left !both --><path d="M815.575 625.625 L815.575 654.375" stroke-width="0.5" stroke="black" stroke-linejoin="round" fill="silver" fill-opacity="1"/>

<!-- TAPER END: hexagonal -->
<path d="M 386.875 620.625 C 478.125 625.46875, 478.125 635.15625, 386.875 640" stroke-width="0.5" stroke="gray" stroke-linecap="round" fill-opacity="1" fill="black" />
<path d="M 386.875 659.375 C 478.125 654.53125, 478.125 644.84375, 386.875 640" stroke-width="0.5" stroke="gray" stroke-linecap="round" fill-opacity="1" fill="black" />
<text x="500" y="690" font-size="1.2em" font-weight="bold" text-anchor="middle" dominant-baseline="central">black</text>


<!-- renderSideComponent: jaws -->


<!-- renderPart: cylinder -->
<path d="M124.325 753.125 L126.925 753.125 L126.925 766.875 L124.325 766.875 L124.325 753.125" stroke-width="0" stroke="none" stroke-linejoin="round" fill="silver" fill-opacity="1"/>
<path d="M124.325 753.125 L126.925 753.125 M126.925 766.875 L124.325 766.875" stroke-width="0.5" stroke="black" stroke-linejoin="round" fill="silver" fill-opacity="1"/>
<!-- !right !both --><path d="M126.925 753.125 L126.925 766.875" stroke-width="0.5" stroke="black" stroke-linejoin="round" fill="silver" fill-opacity="1"/>
<!-- !left !both --><path d="M124.325 753.125 L124.325 766.875" stroke-width="0.5" stroke="black" stroke-linejoin="round" fill="silver" fill-opacity="1"/>


<!-- renderSideComponent: tip -->


<!-- renderPart: cone -->
<path d="M126.825 746.25 L173.175 742.5 L173.175 777.5 L126.825 773.75 L126.825 746.25" stroke-width="0" stroke="none" stroke-linejoin="round" fill="silver" fill-opacity="1"/>
<path d="M126.825 746.25 L173.175 742.5 M173.175 777.5 L126.825 773.75" stroke-width="0.5" stroke="black" stroke-linejoin="round" fill="silver" fill-opacity="1"/>
<!-- !right !both --><path d="M173.175 742.5 L173.175 777.5" stroke-width="0.5" stroke="black" stroke-linejoin="round" fill="silver" fill-opacity="1"/>
<!-- !left !both --><path d="M126.825 746.25 L126.825 773.75" stroke-width="0.5" stroke="black" stroke-linejoin="round" fill="silver" fill-opacity="1"/>


<!-- renderSideComponent: grip -->


<!-- renderPart: cone -->
<path d="M173.075 741.25 L283.175 738.75 L283.175 781.25 L173.075 778.75 L173.075 741.25" stroke-width="0" stroke="none" stroke-linejoin="round" fill="silver" fill-opacity="1"/>
<path d="M173.075 741.25 L283.175 738.75 M283.175 781.25 L173.075 778.75" stroke-width="0.5" stroke="black" stroke-linejoin="round" fill="silver" fill-opacity="1"/>
<!-- !right !both --><path d="M283.175 738.75 L283.175 781.25" stroke-width="0.5" stroke="black" stroke-linejoin="round" fill="silver" fill-opacity="1"/>
<!-- !left !both --><path d="M173.075 741.25 L173.075 778.75" stroke-width="0.5" stroke="black" stroke-linejoin="round" fill="silver" fill-opacity="1"/>
<!-- DEFAULT FINISH: knurled --><path d="M173.125 741.25 L283.125 738.75 L283.125 781.25 L173.125 778.75 Z" stroke-width="0.5" stroke="black" fill="url(#knurled)"/>


<!-- renderSideComponent: body -->


<!-- renderPart: hexagonal -->
<path d="M283.075 740.625 L456.925 740.625 L456.925 779.375 L283.075 779.375 L283.075 740.625" stroke-width="0" stroke="none" stroke-linejoin="round" fill="blue" fill-opacity="1"/>
<path d="M283.075 740.625 L456.925 740.625 M456.925 779.375 L283.075 779.375" stroke-width="0.5" stroke="black" stroke-linejoin="round" fill="blue" fill-opacity="1"/>
<!-- !left !both --><path d="M283.075 740.625 L283.075 779.375" stroke-width="0.5" stroke="black" stroke-linejoin="round" fill="blue" fill-opacity="1"/>
<line x1="283.125" y1="760" x2="386.875" y2="760" stroke-width="1.5" stroke="gray" fill="gray" stroke-opacity="1.0"/>
<line x1="283.125" y1="760" x2="386.875" y2="760" stroke-width="0.5" stroke="black" fill="none" stroke-opacity="0.5"/>


<!-- renderPart: cylinder -->
<path d="M456.825 740.625 L750.675 740.625 L750.675 779.375 L456.825 779.375 L456.825 740.625" stroke-width="0" stroke="none" stroke-linejoin="round" fill="blue" fill-opacity="1"/>
<path d="M456.825 740.625 L750.675 740.625 M750.675 779.375 L456.825 779.375" stroke-width="0.5" stroke="black" stroke-linejoin="round" fill="blue" fill-opacity="1"/>
<!-- !right !both --><path d="M750.675 740.625 L750.675 779.375" stroke-width="0.5" stroke="black" stroke-linejoin="round" fill="blue" fill-opacity="1"/>


<!-- renderSideComponent: clip -->
<path d="M583.125 734.125 Q575.625 731.625 583.125 726.625" stroke-width="4" stroke="black" fill="none" stroke-linecap="round" />
<line x1="583.125" y1="726.625" x2="743.125" y2="726.625" stroke-width="4" stroke="black" fill="dimgray" stroke-linecap="round" />
<line x1="598.125" y1="739.125" x2="583.125" y2="734.125" stroke-width="4" stroke="black" fill="dimgray" stroke-linecap="round" />
<line x1="614.375" y1="734.125" x2="598.125" y2="739.125" stroke-width="4" stroke="black" fill="dimgray" stroke-linecap="round" />
<line x1="743.125" y1="726.625" x2="750.625" y2="741.625" stroke-width="4" stroke="black" fill="dimgray" stroke-linecap="round" />


<!-- renderPart: cylinder -->
<path d="M750.575 738.125 L780.675 738.125 L780.675 781.875 L750.575 781.875 L750.575 738.125" stroke-width="0" stroke="none" stroke-linejoin="round" fill="silver" fill-opacity="1"/>
<path d="M750.575 738.125 L780.675 738.125 M780.675 781.875 L750.575 781.875" stroke-width="0.5" stroke="black" stroke-linejoin="round" fill="silver" fill-opacity="1"/>
<!-- !right !both --><path d="M780.675 738.125 L780.675 781.875" stroke-width="0.5" stroke="black" stroke-linejoin="round" fill="silver" fill-opacity="1"/>
<!-- !left !both --><path d="M750.575 738.125 L750.575 781.875" stroke-width="0.5" stroke="black" stroke-linejoin="round" fill="silver" fill-opacity="1"/>
<text x="765.625" y="760" text-anchor="middle" dominant-baseline="central"><tspan stroke="dimgray" stroke-width="0.5" font-family="sans-serif" fill="black" textLength="{this.width * 5 - 12}" > HB</tspan></text><path d="M583.125 734.125 Q575.625 731.625 583.125 726.625" stroke-width="3" stroke="silver" fill="none" stroke-linecap="round" />
<line x1="583.125" y1="726.625" x2="743.125" y2="726.625" stroke-width="3" stroke="silver" fill="silver" stroke-linecap="round" />
<line x1="598.125" y1="739.125" x2="583.125" y2="734.125" stroke-width="3" stroke="silver" fill="silver" stroke-linecap="round" />
<line x1="614.375" y1="734.125" x2="598.125" y2="739.125" stroke-width="3" stroke="silver" fill="silver" stroke-linecap="round" />
<line x1="743.125" y1="726.625" x2="750.625" y2="741.625" stroke-width="3" stroke="silver" fill="silver" stroke-linecap="round" />


<!-- renderSideComponent: tail -->


<!-- renderPart: cylinder -->
<path d="M780.575 740.625 L815.675 740.625 L815.675 779.375 L780.575 779.375 L780.575 740.625" stroke-width="0" stroke="none" stroke-linejoin="round" fill="blue" fill-opacity="1"/>
<path d="M780.575 740.625 L815.675 740.625 M815.675 779.375 L780.575 779.375" stroke-width="0.5" stroke="black" stroke-linejoin="round" fill="blue" fill-opacity="1"/>
<!-- !right !both --><path d="M815.675 740.625 L815.675 779.375" stroke-width="0.5" stroke="black" stroke-linejoin="round" fill="blue" fill-opacity="1"/>
<!-- !left !both --><path d="M780.575 740.625 L780.575 779.375" stroke-width="0.5" stroke="black" stroke-linejoin="round" fill="blue" fill-opacity="1"/>


<!-- renderSideComponent: cap -->


<!-- renderPart: cylinder -->
<path d="M815.575 745.625 L875.675 745.625 L875.675 774.375 L815.575 774.375 L815.575 745.625" stroke-width="0" stroke="none" stroke-linejoin="round" fill="silver" fill-opacity="1"/>
<path d="M815.575 745.625 L875.675 745.625 M875.675 774.375 L815.575 774.375" stroke-width="0.5" stroke="black" stroke-linejoin="round" fill="silver" fill-opacity="1"/>
<!-- !right !both --><path d="M875.675 745.625 L875.675 774.375" stroke-width="0.5" stroke="black" stroke-linejoin="round" fill="silver" fill-opacity="1"/>
<!-- !left !both --><path d="M815.575 745.625 L815.575 774.375" stroke-width="0.5" stroke="black" stroke-linejoin="round" fill="silver" fill-opacity="1"/>

<!-- TAPER END: hexagonal -->
<path d="M 386.875 740.625 C 478.125 745.46875, 478.125 755.15625, 386.875 760" stroke-width="0.5" stroke="black" stroke-linecap="round" fill-opacity="1" fill="blue" />
<path d="M 386.875 779.375 C 478.125 774.53125, 478.125 764.84375, 386.875 760" stroke-width="0.5" stroke="black" stroke-linecap="round" fill-opacity="1" fill="blue" />
<text x="500" y="810" font-size="1.2em" font-weight="bold" text-anchor="middle" dominant-baseline="central">blue</text>
</g><text x="50%" y="860" font-size="1.1em" font-weight="bold" text-anchor="middle" dominant-baseline="middle">Copyright (c) // Synapticloop // The Mechanical Pencil Database (tmpdb)</text>
<text x="50%" y="880" font-size="1.1em" font-weight="bold" text-anchor="middle" dominant-baseline="middle">Licensed under Creative Commons Attribution-NonCommercial-ShareAlike 4.0 International</text>
<text x="990" y="890" font-size="0.5em" font-weight="bold" text-anchor="end" dominant-baseline="middle">SVGTechnicalGroupedRenderer</text>
</svg>