<svg xmlns="http://www.w3.org/2000/svg" width="1200" height="328.75">
 <pattern id="knurled-large" patternUnits="userSpaceOnUse" width="12" height="12">
<path stroke="dimgray" stroke-linecap="round" stroke-width="1" d="M 6,6 L 12,12"/>
<path stroke="dimgray" stroke-linecap="round" stroke-width="1" d="M 6,6 L 0,12"/>
<path stroke="gray" stroke-linecap="round" stroke-width="1" d="M 6,6 L 12,0" />
<path stroke="gray" stroke-linecap="round" stroke-width="1" d="M 6,6 L 0,0" />
</pattern><pattern id="knurled-small" patternUnits="userSpaceOnUse" width="4" height="4">
<path stroke="dimgray" stroke-linecap="round" stroke-width="1" d="M 2,2 L 4,4"/>
<path stroke="dimgray" stroke-linecap="round" stroke-width="1" d="M 2,2 L 0,4"/>
<path stroke="gray" stroke-linecap="round" stroke-width="1" d="M 2,2 L 4,0" />
<path stroke="gray" stroke-linecap="round" stroke-width="1" d="M 2,2 L 0,0" />
</pattern><pattern id="knurled" patternUnits="userSpaceOnUse" width="8" height="8">
<path stroke="dimgray" stroke-linecap="round" stroke-width="1" d="M 4,4 L 8,8"/>
<path stroke="dimgray" stroke-linecap="round" stroke-width="1" d="M 4,4 L 0,8"/>
<path stroke="gray" stroke-linecap="round" stroke-width="1" d="M 4,4 L 8,0" />
<path stroke="gray" stroke-linecap="round" stroke-width="1" d="M 4,4 L 0,0" />
</pattern><pattern id="lined" patternUnits="userSpaceOnUse" width="3" height="3">
<path stroke="dimgray" stroke-linecap="round" stroke-width="1" d="M 0,0 L 3,0"/>
</pattern><pattern id="ridged" patternUnits="userSpaceOnUse" width="3" height="3">
<path stroke="dimgray" stroke-linecap="round" stroke-width="1" d="M 0,0 L 0,3"/>
</pattern><pattern id="spring" patternUnits="userSpaceOnUse" width="8" height="100">
<path stroke="dimgray" stroke-linecap="round" stroke-width="2" d="M 1,1 L 9,99"/>
<path stroke="white" stroke-linecap="round" stroke-width="1" d="M 1,1 L 9,99"/>
</pattern><pattern id="knurled" patternUnits="userSpaceOnUse" width="8" height="8">
<path stroke="dimgray" stroke-linecap="round" stroke-width="1" d="M 4,4 L 8,8"/>
<path stroke="dimgray" stroke-linecap="round" stroke-width="1" d="M 4,4 L 0,8"/>
<path stroke="gray" stroke-linecap="round" stroke-width="1" d="M 4,4 L 8,0" />
<path stroke="gray" stroke-linecap="round" stroke-width="1" d="M 4,4 L 0,0" />
</pattern><rect x="0" y="0" width="1200" height="328.75" fill="white" stroke="black" stroke-width="4" />
<rect x="2" y="2" width="1196" height="324.75" fill="white" stroke="dimgray" stroke-width="1" />
<g transform="rotate(0 0 0)">
<text x="30" y="50" font-size="2.0em" font-weight="bold"> Staedtler // Mars Technico (Model #: 780c)</text>


<!-- renderExplodedSideComponents -->


<!-- renderSideComponent: jaws -->


<!-- renderPart: cylinder -->
<path d="M224.375 153.125 L226.875 153.125 L226.875 166.875 L224.375 166.875 Z" stroke-width="0.5" stroke="black" stroke-linejoin="round" fill="silver" fill-opacity="1"/>


<!-- renderSideComponent: tip -->


<!-- renderPart: cone -->
<path d="M226.875 146.25 L273.125 142.5 L273.125 177.5 L226.875 173.75 Z" stroke-width="0.5" stroke="black" stroke-linejoin="round" fill="silver" fill-opacity="1"/>


<!-- renderSideComponent: grip -->


<!-- renderPart: cone -->
<path d="M273.125 141.25 L383.125 138.75 L383.125 181.25 L273.125 178.75 Z" stroke-width="0.5" stroke="black" stroke-linejoin="round" fill="silver" fill-opacity="1"/>
<path d="M273.125 141.25 L383.125 138.75 L383.125 181.25 L273.125 178.75 Z" stroke-width="1.0" stroke="black" fill="url(#knurled)"/>


<!-- renderSideComponent: body -->


<!-- renderPart: hexagonal -->
<path d="M383.125 140.625 L556.875 140.625 L556.875 179.375 L383.125 179.375 Z" stroke-width="0.5" stroke="dimgray" stroke-linejoin="round" fill="black" fill-opacity="1"/>
<line x1="383.125" y1="160" x2="486.875" y2="160" stroke-width="1.5" stroke="gray" fill="gray" stroke-opacity="1.0"/>
<line x1="383.125" y1="160" x2="486.875" y2="160" stroke-width="0.5" stroke="black" fill="none" stroke-opacity="0.5"/>


<!-- renderPart: cylinder -->
<path d="M556.875 140.625 L850.625 140.625 L850.625 179.375 L556.875 179.375 Z" stroke-width="0.5" stroke="dimgray" stroke-linejoin="round" fill="black" fill-opacity="1"/>
<line x1="556.875" y1="140.875" x2="556.875" y2="179.125" stroke="black" stroke-opacity="1" stroke-width="3" />

<!-- TAPER END: hexagonal -->
<path d="M 486.875 140.625 C 578.125 145.46875, 578.125 155.15625, 486.875 160" stroke-width="0.5" stroke="gray" stroke-linecap="round" fill-opacity="1" fill="black" />
<path d="M 486.875 179.375 C 578.125 174.53125, 578.125 164.84375, 486.875 160" stroke-width="0.5" stroke="gray" stroke-linecap="round" fill-opacity="1" fill="black" />


<!-- renderSideComponent: clip -->
<path d="M683.125 134.125 Q675.625 131.625 683.125 126.625" stroke-width="4" stroke="black" fill="none" stroke-linecap="round" />
<line x1="683.125" y1="126.625" x2="843.125" y2="126.625" stroke-width="4" stroke="black" fill="dimgray" stroke-linecap="round" />
<line x1="698.125" y1="139.125" x2="683.125" y2="134.125" stroke-width="4" stroke="black" fill="dimgray" stroke-linecap="round" />
<line x1="714.375" y1="134.125" x2="698.125" y2="139.125" stroke-width="4" stroke="black" fill="dimgray" stroke-linecap="round" />
<line x1="843.125" y1="126.625" x2="850.625" y2="141.625" stroke-width="4" stroke="black" fill="dimgray" stroke-linecap="round" />


<!-- renderPart: cylinder -->
<path d="M850.625 138.125 L880.625 138.125 L880.625 181.875 L850.625 181.875 Z" stroke-width="0.5" stroke="black" stroke-linejoin="round" fill="silver" fill-opacity="1"/>
<text x="865.625" y="160" text-anchor="middle" dominant-baseline="central"><tspan stroke="dimgray" stroke-width="0.5" font-family="sans-serif" fill="black" textLength="{this.width * 5 - 12}" > HB</tspan></text><path d="M683.125 134.125 Q675.625 131.625 683.125 126.625" stroke-width="3" stroke="silver" fill="none" stroke-linecap="round" />
<line x1="683.125" y1="126.625" x2="843.125" y2="126.625" stroke-width="3" stroke="silver" fill="silver" stroke-linecap="round" />
<line x1="698.125" y1="139.125" x2="683.125" y2="134.125" stroke-width="3" stroke="silver" fill="silver" stroke-linecap="round" />
<line x1="714.375" y1="134.125" x2="698.125" y2="139.125" stroke-width="3" stroke="silver" fill="silver" stroke-linecap="round" />
<line x1="843.125" y1="126.625" x2="850.625" y2="141.625" stroke-width="3" stroke="silver" fill="silver" stroke-linecap="round" />


<!-- renderSideComponent: tail -->


<!-- renderPart: cylinder -->
<path d="M880.625 140.625 L915.625 140.625 L915.625 179.375 L880.625 179.375 Z" stroke-width="0.5" stroke="dimgray" stroke-linejoin="round" fill="black" fill-opacity="1"/>


<!-- DASHED JOIN -->
<path d="M 930.625 160 L 950.625 160 L 950.625 220 L 818.125 220 L 818.125 280 L 863.125 280 " fill="none" stroke="white" stroke-width="2" stroke-dasharray="8,4" stroke-linecap="round"  />
<path d="M 930.625 160 L 950.625 160 L 950.625 220 L 818.125 220 L 818.125 280 L 863.125 280 " fill="none" stroke="black" stroke-width="1" stroke-dasharray="8,4" stroke-linecap="round"  />


<!-- ARROW START -->
<line x1="920.625" y1="160" x2="927.625" y2="160" stroke-linecap="round" stroke="#ffffff" stroke-width="2.0" />
<line x1="920.625" y1="160" x2="934.625" y2="152" stroke-linecap="round" stroke="#ffffff" stroke-width="2.0" />
<line x1="934.625" y1="152" x2="927.625" y2="160" stroke-linecap="round" stroke="#ffffff" stroke-width="2.0" />
<line x1="920.625" y1="160" x2="934.625" y2="168" stroke-linecap="round" stroke="#ffffff" stroke-width="2.0" />
<line x1="934.625" y1="168" x2="927.625" y2="160" stroke-linecap="round" stroke="#ffffff" stroke-width="2.0" />
<line x1="920.625" y1="160" x2="934.625" y2="152" stroke-linecap="round" stroke="#0f0f0f" stroke-width="1.0" />
<line x1="934.625" y1="152" x2="927.625" y2="160" stroke-linecap="round" stroke="#0f0f0f" stroke-width="1.0" />
<line x1="920.625" y1="160" x2="934.625" y2="168" stroke-linecap="round" stroke="#0f0f0f" stroke-width="1.0" />
<line x1="934.625" y1="168" x2="927.625" y2="160" stroke-linecap="round" stroke="#0f0f0f" stroke-width="1.0" />


<!-- ARROW START -->
<line x1="833.125" y1="280" x2="840.125" y2="280" stroke-linecap="round" stroke="#ffffff" stroke-width="2.0" />
<line x1="833.125" y1="280" x2="847.125" y2="272" stroke-linecap="round" stroke="#ffffff" stroke-width="2.0" />
<line x1="847.125" y1="272" x2="840.125" y2="280" stroke-linecap="round" stroke="#ffffff" stroke-width="2.0" />
<line x1="833.125" y1="280" x2="847.125" y2="288" stroke-linecap="round" stroke="#ffffff" stroke-width="2.0" />
<line x1="847.125" y1="288" x2="840.125" y2="280" stroke-linecap="round" stroke="#ffffff" stroke-width="2.0" />
<line x1="833.125" y1="280" x2="847.125" y2="272" stroke-linecap="round" stroke="#0f0f0f" stroke-width="1.0" />
<line x1="847.125" y1="272" x2="840.125" y2="280" stroke-linecap="round" stroke="#0f0f0f" stroke-width="1.0" />
<line x1="833.125" y1="280" x2="847.125" y2="288" stroke-linecap="round" stroke="#0f0f0f" stroke-width="1.0" />
<line x1="847.125" y1="288" x2="840.125" y2="280" stroke-linecap="round" stroke="#0f0f0f" stroke-width="1.0" />


<!-- renderPart: cylinder -->
<path d="M863.125 265.625 L879.375 265.625 L879.375 294.375 L863.125 294.375 Z" stroke-width="0.5" stroke="dimgray" stroke-linejoin="round" fill="black" fill-opacity="1"/>


<!-- renderPart: cylinder -->
<path d="M879.375 265.625 L915.625 265.625 L915.625 294.375 L879.375 294.375 Z" stroke-width="0.5" stroke="black" stroke-linejoin="round" fill="silver" fill-opacity="1"/>
<line x1="915.625" y1="240" x2="915.625" y2="320" stroke="white" stroke-linecap="round"  stroke-width="1" />
<line x1="915.625" y1="240" x2="915.625" y2="320" stroke="black" stroke-linecap="round" stroke-dasharray="4,2" stroke-width="1" />


<!-- renderSideComponent: cap -->


<!-- renderPart: cylinder -->
<path d="M915.625 265.625 L975.625 265.625 L975.625 294.375 L915.625 294.375 Z" stroke-width="0.5" stroke="black" stroke-linejoin="round" fill="silver" fill-opacity="1"/>
</g><text x="50%" y="288.75" font-size="1.1em" font-weight="bold" text-anchor="middle" dominant-baseline="middle">Copyright (c) // Synapticloop and The Mechanical Pencil Database (tmpdb)</text>
<text x="50%" y="308.75" font-size="1.1em" font-weight="bold" text-anchor="middle" dominant-baseline="middle">Licensed under Creative Commons Attribution-NonCommercial-ShareAlike 4.0 International</text>
<text x="1190" y="318.75" font-size="0.5em" font-weight="bold" text-anchor="end" dominant-baseline="middle">SVGTechnicalExplodedRenderer</text>
</svg>