<svg xmlns="http://www.w3.org/2000/svg" width="1000" height="960">
 <pattern id="knurled-large" patternUnits="userSpaceOnUse" width="12" height="12">
<path stroke="dimgray" stroke-linecap="round" stroke-width="1" d="M 6,6 L 12,12"/>
<path stroke="dimgray" stroke-linecap="round" stroke-width="1" d="M 6,6 L 0,12"/>
<path stroke="gray" stroke-linecap="round" stroke-width="1" d="M 6,6 L 12,0" />
<path stroke="gray" stroke-linecap="round" stroke-width="1" d="M 6,6 L 0,0" />
</pattern><pattern id="knurled-small" patternUnits="userSpaceOnUse" width="4" height="4">
<path stroke="dimgray" stroke-linecap="round" stroke-width="1" d="M 2,2 L 4,4"/>
<path stroke="dimgray" stroke-linecap="round" stroke-width="1" d="M 2,2 L 0,4"/>
<path stroke="gray" stroke-linecap="round" stroke-width="1" d="M 2,2 L 4,0" />
<path stroke="gray" stroke-linecap="round" stroke-width="1" d="M 2,2 L 0,0" />
</pattern><pattern id="knurled" patternUnits="userSpaceOnUse" width="8" height="8">
<path stroke="dimgray" stroke-linecap="round" stroke-width="1" d="M 4,4 L 8,8"/>
<path stroke="dimgray" stroke-linecap="round" stroke-width="1" d="M 4,4 L 0,8"/>
<path stroke="gray" stroke-linecap="round" stroke-width="1" d="M 4,4 L 8,0" />
<path stroke="gray" stroke-linecap="round" stroke-width="1" d="M 4,4 L 0,0" />
</pattern><pattern id="lined" patternUnits="userSpaceOnUse" width="3" height="3">
<path stroke="dimgray" stroke-linecap="round" stroke-width="1" d="M 0,0 L 3,0"/>
</pattern><pattern id="ridged" patternUnits="userSpaceOnUse" width="3" height="3">
<path stroke="dimgray" stroke-linecap="round" stroke-width="1" d="M 0,0 L 0,3"/>
</pattern><pattern id="spring" patternUnits="userSpaceOnUse" width="8" height="60">
<path stroke="dimgray" stroke-linecap="round" stroke-width="2" d="M 1,1 L 8,60"/>
<path stroke="white" stroke-linecap="round" stroke-width="1" d="M 1,1 L 8,60"/>
</pattern><rect x="0" y="0" width="1000" height="960" fill="white" stroke="black" stroke-width="4" />
<rect x="2" y="2" width="996" height="956" fill="white" stroke="dimgray" stroke-width="1" />
<g transform="rotate(0 0 0)">
<text x="30" y="50" font-size="2.0em" font-weight="bold"> Koh-i-Noor // TECHNIGRAPH (Model #: 5611)</text>


<!-- renderSideComponent: jaws -->


<!-- renderPart: cone -->
<path d="M130.575 112.5 L148.175 105.625 L148.175 134.375 L130.575 127.5 L130.575 112.5" stroke-width="0" stroke="none" stroke-linejoin="round" fill="silver" fill-opacity="1"/>
<path d="M130.575 112.5 L148.175 105.625 M148.175 134.375 L130.575 127.5" stroke-width="0.5" stroke="black" stroke-linejoin="round" fill="silver" fill-opacity="1"/>
<!-- !right !both --><path d="M148.175 105.625 L148.175 134.375" stroke-width="0.5" stroke="black" stroke-linejoin="round" fill="silver" fill-opacity="1"/>
<!-- !left !both --><path d="M130.575 112.5 L130.575 127.5" stroke-width="0.5" stroke="black" stroke-linejoin="round" fill="silver" fill-opacity="1"/>


<!-- renderSideComponent: tip -->


<!-- renderPart: cone -->
<path d="M148.075 103.125 L220.675 101.25 L220.675 138.75 L148.075 136.875 L148.075 103.125" stroke-width="0" stroke="none" stroke-linejoin="round" fill="silver" fill-opacity="1"/>
<path d="M148.075 103.125 L220.675 101.25 M220.675 138.75 L148.075 136.875" stroke-width="0.5" stroke="black" stroke-linejoin="round" fill="silver" fill-opacity="1"/>
<!-- !right !both --><path d="M220.675 101.25 L220.675 138.75" stroke-width="0.5" stroke="black" stroke-linejoin="round" fill="silver" fill-opacity="1"/>
<!-- !left !both --><path d="M148.075 103.125 L148.075 136.875" stroke-width="0.5" stroke="black" stroke-linejoin="round" fill="silver" fill-opacity="1"/>


<!-- renderSideComponent: grip -->


<!-- renderPart: cylinder -->
<path d="M220.575 100 L374.425 100 L374.425 140 L220.575 140 L220.575 100" stroke-width="0" stroke="none" stroke-linejoin="round" fill="silver" fill-opacity="1"/>
<path d="M220.575 100 L374.425 100 M374.425 140 L220.575 140" stroke-width="0.5" stroke="black" stroke-linejoin="round" fill="silver" fill-opacity="1"/>
<!-- !right !both --><path d="M374.425 100 L374.425 140" stroke-width="0.5" stroke="black" stroke-linejoin="round" fill="silver" fill-opacity="1"/>
<!-- !left !both --><path d="M220.575 100 L220.575 140" stroke-width="0.5" stroke="black" stroke-linejoin="round" fill="silver" fill-opacity="1"/>
<!-- DEFAULT FINISH: knurled-small --><path d="M220.625 100 L374.375 100 L374.375 140 L220.625 140 Z" stroke-width="0.5" stroke="black" fill="url(#knurled-small)"/>


<!-- renderSideComponent: body -->


<!-- renderPart: hexagonal -->
<path d="M374.325 100 L824.425 99.375 L824.425 140.625 L374.325 140 L374.325 100" stroke-width="0" stroke="none" stroke-linejoin="round" fill="#8a3232" fill-opacity="1"/>
<path d="M374.325 100 L824.425 99.375 M824.425 140.625 L374.325 140" stroke-width="0.5" stroke="black" stroke-linejoin="round" fill="#8a3232" fill-opacity="1"/>
<!-- !right !both --><path d="M824.425 99.375 L824.425 140.625" stroke-width="0.5" stroke="black" stroke-linejoin="round" fill="#8a3232" fill-opacity="1"/>
<!-- !left !both --><path d="M374.325 100 L374.325 140" stroke-width="0.5" stroke="black" stroke-linejoin="round" fill="#8a3232" fill-opacity="1"/>
<line x1="374.375" y1="120" x2="824.375" y2="120" stroke-width="1.5" stroke="gray" fill="gray" stroke-opacity="1.0"/>
<line x1="374.375" y1="120" x2="824.375" y2="120" stroke-width="0.5" stroke="black" fill="none" stroke-opacity="0.5"/>


<!-- renderSideComponent: tail -->


<!-- renderPart: cylinder -->
<path d="M824.325 99.375 L833.175 99.375 L833.175 140.625 L824.325 140.625 L824.325 99.375" stroke-width="0" stroke="none" stroke-linejoin="round" fill="silver" fill-opacity="1"/>
<path d="M824.325 99.375 L833.175 99.375 M833.175 140.625 L824.325 140.625" stroke-width="0.5" stroke="black" stroke-linejoin="round" fill="silver" fill-opacity="1"/>
<!-- !right !both --><path d="M833.175 99.375 L833.175 140.625" stroke-width="0.5" stroke="black" stroke-linejoin="round" fill="silver" fill-opacity="1"/>
<!-- !left !both --><path d="M824.325 99.375 L824.325 140.625" stroke-width="0.5" stroke="black" stroke-linejoin="round" fill="silver" fill-opacity="1"/>


<!-- renderSideComponent: cap -->


<!-- renderPart: cylinder -->
<path d="M833.075 106.25 L869.425 106.25 L869.425 133.75 L833.075 133.75 L833.075 106.25" stroke-width="0" stroke="none" stroke-linejoin="round" fill="black" fill-opacity="1"/>
<path d="M833.075 106.25 L869.425 106.25 M869.425 133.75 L833.075 133.75" stroke-width="0.5" stroke="dimgray" stroke-linejoin="round" fill="black" fill-opacity="1"/>
<!-- !right !both --><path d="M869.425 106.25 L869.425 133.75" stroke-width="0.5" stroke="dimgray" stroke-linejoin="round" fill="black" fill-opacity="1"/>
<!-- !left !both --><path d="M833.075 106.25 L833.075 133.75" stroke-width="0.5" stroke="dimgray" stroke-linejoin="round" fill="black" fill-opacity="1"/>


<!-- renderSideComponent: jaws -->


<!-- renderPart: cone -->
<path d="M130.575 232.5 L148.175 225.625 L148.175 254.375 L130.575 247.5 L130.575 232.5" stroke-width="0" stroke="none" stroke-linejoin="round" fill="silver" fill-opacity="1"/>
<path d="M130.575 232.5 L148.175 225.625 M148.175 254.375 L130.575 247.5" stroke-width="0.5" stroke="black" stroke-linejoin="round" fill="silver" fill-opacity="1"/>
<!-- !right !both --><path d="M148.175 225.625 L148.175 254.375" stroke-width="0.5" stroke="black" stroke-linejoin="round" fill="silver" fill-opacity="1"/>
<!-- !left !both --><path d="M130.575 232.5 L130.575 247.5" stroke-width="0.5" stroke="black" stroke-linejoin="round" fill="silver" fill-opacity="1"/>


<!-- renderSideComponent: tip -->


<!-- renderPart: cone -->
<path d="M148.075 223.125 L220.675 221.25 L220.675 258.75 L148.075 256.875 L148.075 223.125" stroke-width="0" stroke="none" stroke-linejoin="round" fill="silver" fill-opacity="1"/>
<path d="M148.075 223.125 L220.675 221.25 M220.675 258.75 L148.075 256.875" stroke-width="0.5" stroke="black" stroke-linejoin="round" fill="silver" fill-opacity="1"/>
<!-- !right !both --><path d="M220.675 221.25 L220.675 258.75" stroke-width="0.5" stroke="black" stroke-linejoin="round" fill="silver" fill-opacity="1"/>
<!-- !left !both --><path d="M148.075 223.125 L148.075 256.875" stroke-width="0.5" stroke="black" stroke-linejoin="round" fill="silver" fill-opacity="1"/>


<!-- renderSideComponent: grip -->


<!-- renderPart: cylinder -->
<path d="M220.575 220 L374.425 220 L374.425 260 L220.575 260 L220.575 220" stroke-width="0" stroke="none" stroke-linejoin="round" fill="silver" fill-opacity="1"/>
<path d="M220.575 220 L374.425 220 M374.425 260 L220.575 260" stroke-width="0.5" stroke="black" stroke-linejoin="round" fill="silver" fill-opacity="1"/>
<!-- !right !both --><path d="M374.425 220 L374.425 260" stroke-width="0.5" stroke="black" stroke-linejoin="round" fill="silver" fill-opacity="1"/>
<!-- !left !both --><path d="M220.575 220 L220.575 260" stroke-width="0.5" stroke="black" stroke-linejoin="round" fill="silver" fill-opacity="1"/>
<!-- DEFAULT FINISH: knurled-small --><path d="M220.625 220 L374.375 220 L374.375 260 L220.625 260 Z" stroke-width="0.5" stroke="black" fill="url(#knurled-small)"/>


<!-- renderSideComponent: body -->


<!-- renderPart: hexagonal -->
<path d="M374.325 220 L824.425 219.375 L824.425 260.625 L374.325 260 L374.325 220" stroke-width="0" stroke="none" stroke-linejoin="round" fill="#8a3232" fill-opacity="1"/>
<path d="M374.325 220 L824.425 219.375 M824.425 260.625 L374.325 260" stroke-width="0.5" stroke="black" stroke-linejoin="round" fill="#8a3232" fill-opacity="1"/>
<!-- !right !both --><path d="M824.425 219.375 L824.425 260.625" stroke-width="0.5" stroke="black" stroke-linejoin="round" fill="#8a3232" fill-opacity="1"/>
<!-- !left !both --><path d="M374.325 220 L374.325 260" stroke-width="0.5" stroke="black" stroke-linejoin="round" fill="#8a3232" fill-opacity="1"/>
<line x1="374.375" y1="240" x2="824.375" y2="240" stroke-width="1.5" stroke="gray" fill="gray" stroke-opacity="1.0"/>
<line x1="374.375" y1="240" x2="824.375" y2="240" stroke-width="0.5" stroke="black" fill="none" stroke-opacity="0.5"/>


<!-- renderSideComponent: tail -->


<!-- renderPart: cylinder -->
<path d="M824.325 219.375 L833.175 219.375 L833.175 260.625 L824.325 260.625 L824.325 219.375" stroke-width="0" stroke="none" stroke-linejoin="round" fill="silver" fill-opacity="1"/>
<path d="M824.325 219.375 L833.175 219.375 M833.175 260.625 L824.325 260.625" stroke-width="0.5" stroke="black" stroke-linejoin="round" fill="silver" fill-opacity="1"/>
<!-- !right !both --><path d="M833.175 219.375 L833.175 260.625" stroke-width="0.5" stroke="black" stroke-linejoin="round" fill="silver" fill-opacity="1"/>
<!-- !left !both --><path d="M824.325 219.375 L824.325 260.625" stroke-width="0.5" stroke="black" stroke-linejoin="round" fill="silver" fill-opacity="1"/>


<!-- renderSideComponent: cap -->


<!-- renderPart: cylinder -->
<path d="M833.075 226.25 L869.425 226.25 L869.425 253.75 L833.075 253.75 L833.075 226.25" stroke-width="0" stroke="none" stroke-linejoin="round" fill="brows" fill-opacity="1"/>
<path d="M833.075 226.25 L869.425 226.25 M869.425 253.75 L833.075 253.75" stroke-width="0.5" stroke="black" stroke-linejoin="round" fill="brows" fill-opacity="1"/>
<!-- !right !both --><path d="M869.425 226.25 L869.425 253.75" stroke-width="0.5" stroke="black" stroke-linejoin="round" fill="brows" fill-opacity="1"/>
<!-- !left !both --><path d="M833.075 226.25 L833.075 253.75" stroke-width="0.5" stroke="black" stroke-linejoin="round" fill="brows" fill-opacity="1"/>


<!-- renderSideComponent: jaws -->


<!-- renderPart: cone -->
<path d="M130.575 352.5 L148.175 345.625 L148.175 374.375 L130.575 367.5 L130.575 352.5" stroke-width="0" stroke="none" stroke-linejoin="round" fill="silver" fill-opacity="1"/>
<path d="M130.575 352.5 L148.175 345.625 M148.175 374.375 L130.575 367.5" stroke-width="0.5" stroke="black" stroke-linejoin="round" fill="silver" fill-opacity="1"/>
<!-- !right !both --><path d="M148.175 345.625 L148.175 374.375" stroke-width="0.5" stroke="black" stroke-linejoin="round" fill="silver" fill-opacity="1"/>
<!-- !left !both --><path d="M130.575 352.5 L130.575 367.5" stroke-width="0.5" stroke="black" stroke-linejoin="round" fill="silver" fill-opacity="1"/>


<!-- renderSideComponent: tip -->


<!-- renderPart: cone -->
<path d="M148.075 343.125 L220.675 341.25 L220.675 378.75 L148.075 376.875 L148.075 343.125" stroke-width="0" stroke="none" stroke-linejoin="round" fill="silver" fill-opacity="1"/>
<path d="M148.075 343.125 L220.675 341.25 M220.675 378.75 L148.075 376.875" stroke-width="0.5" stroke="black" stroke-linejoin="round" fill="silver" fill-opacity="1"/>
<!-- !right !both --><path d="M220.675 341.25 L220.675 378.75" stroke-width="0.5" stroke="black" stroke-linejoin="round" fill="silver" fill-opacity="1"/>
<!-- !left !both --><path d="M148.075 343.125 L148.075 376.875" stroke-width="0.5" stroke="black" stroke-linejoin="round" fill="silver" fill-opacity="1"/>


<!-- renderSideComponent: grip -->


<!-- renderPart: cylinder -->
<path d="M220.575 340 L374.425 340 L374.425 380 L220.575 380 L220.575 340" stroke-width="0" stroke="none" stroke-linejoin="round" fill="silver" fill-opacity="1"/>
<path d="M220.575 340 L374.425 340 M374.425 380 L220.575 380" stroke-width="0.5" stroke="black" stroke-linejoin="round" fill="silver" fill-opacity="1"/>
<!-- !right !both --><path d="M374.425 340 L374.425 380" stroke-width="0.5" stroke="black" stroke-linejoin="round" fill="silver" fill-opacity="1"/>
<!-- !left !both --><path d="M220.575 340 L220.575 380" stroke-width="0.5" stroke="black" stroke-linejoin="round" fill="silver" fill-opacity="1"/>
<!-- DEFAULT FINISH: knurled-small --><path d="M220.625 340 L374.375 340 L374.375 380 L220.625 380 Z" stroke-width="0.5" stroke="black" fill="url(#knurled-small)"/>


<!-- renderSideComponent: body -->


<!-- renderPart: hexagonal -->
<path d="M374.325 340 L824.425 339.375 L824.425 380.625 L374.325 380 L374.325 340" stroke-width="0" stroke="none" stroke-linejoin="round" fill="#8a3232" fill-opacity="1"/>
<path d="M374.325 340 L824.425 339.375 M824.425 380.625 L374.325 380" stroke-width="0.5" stroke="black" stroke-linejoin="round" fill="#8a3232" fill-opacity="1"/>
<!-- !right !both --><path d="M824.425 339.375 L824.425 380.625" stroke-width="0.5" stroke="black" stroke-linejoin="round" fill="#8a3232" fill-opacity="1"/>
<!-- !left !both --><path d="M374.325 340 L374.325 380" stroke-width="0.5" stroke="black" stroke-linejoin="round" fill="#8a3232" fill-opacity="1"/>
<line x1="374.375" y1="360" x2="824.375" y2="360" stroke-width="1.5" stroke="gray" fill="gray" stroke-opacity="1.0"/>
<line x1="374.375" y1="360" x2="824.375" y2="360" stroke-width="0.5" stroke="black" fill="none" stroke-opacity="0.5"/>


<!-- renderSideComponent: tail -->


<!-- renderPart: cylinder -->
<path d="M824.325 339.375 L833.175 339.375 L833.175 380.625 L824.325 380.625 L824.325 339.375" stroke-width="0" stroke="none" stroke-linejoin="round" fill="silver" fill-opacity="1"/>
<path d="M824.325 339.375 L833.175 339.375 M833.175 380.625 L824.325 380.625" stroke-width="0.5" stroke="black" stroke-linejoin="round" fill="silver" fill-opacity="1"/>
<!-- !right !both --><path d="M833.175 339.375 L833.175 380.625" stroke-width="0.5" stroke="black" stroke-linejoin="round" fill="silver" fill-opacity="1"/>
<!-- !left !both --><path d="M824.325 339.375 L824.325 380.625" stroke-width="0.5" stroke="black" stroke-linejoin="round" fill="silver" fill-opacity="1"/>


<!-- renderSideComponent: cap -->


<!-- renderPart: cylinder -->
<path d="M833.075 346.25 L869.425 346.25 L869.425 373.75 L833.075 373.75 L833.075 346.25" stroke-width="0" stroke="none" stroke-linejoin="round" fill="green" fill-opacity="1"/>
<path d="M833.075 346.25 L869.425 346.25 M869.425 373.75 L833.075 373.75" stroke-width="0.5" stroke="black" stroke-linejoin="round" fill="green" fill-opacity="1"/>
<!-- !right !both --><path d="M869.425 346.25 L869.425 373.75" stroke-width="0.5" stroke="black" stroke-linejoin="round" fill="green" fill-opacity="1"/>
<!-- !left !both --><path d="M833.075 346.25 L833.075 373.75" stroke-width="0.5" stroke="black" stroke-linejoin="round" fill="green" fill-opacity="1"/>


<!-- renderSideComponent: jaws -->


<!-- renderPart: cone -->
<path d="M130.575 472.5 L148.175 465.625 L148.175 494.375 L130.575 487.5 L130.575 472.5" stroke-width="0" stroke="none" stroke-linejoin="round" fill="silver" fill-opacity="1"/>
<path d="M130.575 472.5 L148.175 465.625 M148.175 494.375 L130.575 487.5" stroke-width="0.5" stroke="black" stroke-linejoin="round" fill="silver" fill-opacity="1"/>
<!-- !right !both --><path d="M148.175 465.625 L148.175 494.375" stroke-width="0.5" stroke="black" stroke-linejoin="round" fill="silver" fill-opacity="1"/>
<!-- !left !both --><path d="M130.575 472.5 L130.575 487.5" stroke-width="0.5" stroke="black" stroke-linejoin="round" fill="silver" fill-opacity="1"/>


<!-- renderSideComponent: tip -->


<!-- renderPart: cone -->
<path d="M148.075 463.125 L220.675 461.25 L220.675 498.75 L148.075 496.875 L148.075 463.125" stroke-width="0" stroke="none" stroke-linejoin="round" fill="silver" fill-opacity="1"/>
<path d="M148.075 463.125 L220.675 461.25 M220.675 498.75 L148.075 496.875" stroke-width="0.5" stroke="black" stroke-linejoin="round" fill="silver" fill-opacity="1"/>
<!-- !right !both --><path d="M220.675 461.25 L220.675 498.75" stroke-width="0.5" stroke="black" stroke-linejoin="round" fill="silver" fill-opacity="1"/>
<!-- !left !both --><path d="M148.075 463.125 L148.075 496.875" stroke-width="0.5" stroke="black" stroke-linejoin="round" fill="silver" fill-opacity="1"/>


<!-- renderSideComponent: grip -->


<!-- renderPart: cylinder -->
<path d="M220.575 460 L374.425 460 L374.425 500 L220.575 500 L220.575 460" stroke-width="0" stroke="none" stroke-linejoin="round" fill="silver" fill-opacity="1"/>
<path d="M220.575 460 L374.425 460 M374.425 500 L220.575 500" stroke-width="0.5" stroke="black" stroke-linejoin="round" fill="silver" fill-opacity="1"/>
<!-- !right !both --><path d="M374.425 460 L374.425 500" stroke-width="0.5" stroke="black" stroke-linejoin="round" fill="silver" fill-opacity="1"/>
<!-- !left !both --><path d="M220.575 460 L220.575 500" stroke-width="0.5" stroke="black" stroke-linejoin="round" fill="silver" fill-opacity="1"/>
<!-- DEFAULT FINISH: knurled-small --><path d="M220.625 460 L374.375 460 L374.375 500 L220.625 500 Z" stroke-width="0.5" stroke="black" fill="url(#knurled-small)"/>


<!-- renderSideComponent: body -->


<!-- renderPart: hexagonal -->
<path d="M374.325 460 L824.425 459.375 L824.425 500.625 L374.325 500 L374.325 460" stroke-width="0" stroke="none" stroke-linejoin="round" fill="#8a3232" fill-opacity="1"/>
<path d="M374.325 460 L824.425 459.375 M824.425 500.625 L374.325 500" stroke-width="0.5" stroke="black" stroke-linejoin="round" fill="#8a3232" fill-opacity="1"/>
<!-- !right !both --><path d="M824.425 459.375 L824.425 500.625" stroke-width="0.5" stroke="black" stroke-linejoin="round" fill="#8a3232" fill-opacity="1"/>
<!-- !left !both --><path d="M374.325 460 L374.325 500" stroke-width="0.5" stroke="black" stroke-linejoin="round" fill="#8a3232" fill-opacity="1"/>
<line x1="374.375" y1="480" x2="824.375" y2="480" stroke-width="1.5" stroke="gray" fill="gray" stroke-opacity="1.0"/>
<line x1="374.375" y1="480" x2="824.375" y2="480" stroke-width="0.5" stroke="black" fill="none" stroke-opacity="0.5"/>


<!-- renderSideComponent: tail -->


<!-- renderPart: cylinder -->
<path d="M824.325 459.375 L833.175 459.375 L833.175 500.625 L824.325 500.625 L824.325 459.375" stroke-width="0" stroke="none" stroke-linejoin="round" fill="silver" fill-opacity="1"/>
<path d="M824.325 459.375 L833.175 459.375 M833.175 500.625 L824.325 500.625" stroke-width="0.5" stroke="black" stroke-linejoin="round" fill="silver" fill-opacity="1"/>
<!-- !right !both --><path d="M833.175 459.375 L833.175 500.625" stroke-width="0.5" stroke="black" stroke-linejoin="round" fill="silver" fill-opacity="1"/>
<!-- !left !both --><path d="M824.325 459.375 L824.325 500.625" stroke-width="0.5" stroke="black" stroke-linejoin="round" fill="silver" fill-opacity="1"/>


<!-- renderSideComponent: cap -->


<!-- renderPart: cylinder -->
<path d="M833.075 466.25 L869.425 466.25 L869.425 493.75 L833.075 493.75 L833.075 466.25" stroke-width="0" stroke="none" stroke-linejoin="round" fill="silver" fill-opacity="1"/>
<path d="M833.075 466.25 L869.425 466.25 M869.425 493.75 L833.075 493.75" stroke-width="0.5" stroke="black" stroke-linejoin="round" fill="silver" fill-opacity="1"/>
<!-- !right !both --><path d="M869.425 466.25 L869.425 493.75" stroke-width="0.5" stroke="black" stroke-linejoin="round" fill="silver" fill-opacity="1"/>
<!-- !left !both --><path d="M833.075 466.25 L833.075 493.75" stroke-width="0.5" stroke="black" stroke-linejoin="round" fill="silver" fill-opacity="1"/>


<!-- renderSideComponent: jaws -->


<!-- renderPart: cone -->
<path d="M130.575 592.5 L148.175 585.625 L148.175 614.375 L130.575 607.5 L130.575 592.5" stroke-width="0" stroke="none" stroke-linejoin="round" fill="silver" fill-opacity="1"/>
<path d="M130.575 592.5 L148.175 585.625 M148.175 614.375 L130.575 607.5" stroke-width="0.5" stroke="black" stroke-linejoin="round" fill="silver" fill-opacity="1"/>
<!-- !right !both --><path d="M148.175 585.625 L148.175 614.375" stroke-width="0.5" stroke="black" stroke-linejoin="round" fill="silver" fill-opacity="1"/>
<!-- !left !both --><path d="M130.575 592.5 L130.575 607.5" stroke-width="0.5" stroke="black" stroke-linejoin="round" fill="silver" fill-opacity="1"/>


<!-- renderSideComponent: tip -->


<!-- renderPart: cone -->
<path d="M148.075 583.125 L220.675 581.25 L220.675 618.75 L148.075 616.875 L148.075 583.125" stroke-width="0" stroke="none" stroke-linejoin="round" fill="silver" fill-opacity="1"/>
<path d="M148.075 583.125 L220.675 581.25 M220.675 618.75 L148.075 616.875" stroke-width="0.5" stroke="black" stroke-linejoin="round" fill="silver" fill-opacity="1"/>
<!-- !right !both --><path d="M220.675 581.25 L220.675 618.75" stroke-width="0.5" stroke="black" stroke-linejoin="round" fill="silver" fill-opacity="1"/>
<!-- !left !both --><path d="M148.075 583.125 L148.075 616.875" stroke-width="0.5" stroke="black" stroke-linejoin="round" fill="silver" fill-opacity="1"/>


<!-- renderSideComponent: grip -->


<!-- renderPart: cylinder -->
<path d="M220.575 580 L374.425 580 L374.425 620 L220.575 620 L220.575 580" stroke-width="0" stroke="none" stroke-linejoin="round" fill="silver" fill-opacity="1"/>
<path d="M220.575 580 L374.425 580 M374.425 620 L220.575 620" stroke-width="0.5" stroke="black" stroke-linejoin="round" fill="silver" fill-opacity="1"/>
<!-- !right !both --><path d="M374.425 580 L374.425 620" stroke-width="0.5" stroke="black" stroke-linejoin="round" fill="silver" fill-opacity="1"/>
<!-- !left !both --><path d="M220.575 580 L220.575 620" stroke-width="0.5" stroke="black" stroke-linejoin="round" fill="silver" fill-opacity="1"/>
<!-- DEFAULT FINISH: knurled-small --><path d="M220.625 580 L374.375 580 L374.375 620 L220.625 620 Z" stroke-width="0.5" stroke="black" fill="url(#knurled-small)"/>


<!-- renderSideComponent: body -->


<!-- renderPart: hexagonal -->
<path d="M374.325 580 L824.425 579.375 L824.425 620.625 L374.325 620 L374.325 580" stroke-width="0" stroke="none" stroke-linejoin="round" fill="#8a3232" fill-opacity="1"/>
<path d="M374.325 580 L824.425 579.375 M824.425 620.625 L374.325 620" stroke-width="0.5" stroke="black" stroke-linejoin="round" fill="#8a3232" fill-opacity="1"/>
<!-- !right !both --><path d="M824.425 579.375 L824.425 620.625" stroke-width="0.5" stroke="black" stroke-linejoin="round" fill="#8a3232" fill-opacity="1"/>
<!-- !left !both --><path d="M374.325 580 L374.325 620" stroke-width="0.5" stroke="black" stroke-linejoin="round" fill="#8a3232" fill-opacity="1"/>
<line x1="374.375" y1="600" x2="824.375" y2="600" stroke-width="1.5" stroke="gray" fill="gray" stroke-opacity="1.0"/>
<line x1="374.375" y1="600" x2="824.375" y2="600" stroke-width="0.5" stroke="black" fill="none" stroke-opacity="0.5"/>


<!-- renderSideComponent: tail -->


<!-- renderPart: cylinder -->
<path d="M824.325 579.375 L833.175 579.375 L833.175 620.625 L824.325 620.625 L824.325 579.375" stroke-width="0" stroke="none" stroke-linejoin="round" fill="silver" fill-opacity="1"/>
<path d="M824.325 579.375 L833.175 579.375 M833.175 620.625 L824.325 620.625" stroke-width="0.5" stroke="black" stroke-linejoin="round" fill="silver" fill-opacity="1"/>
<!-- !right !both --><path d="M833.175 579.375 L833.175 620.625" stroke-width="0.5" stroke="black" stroke-linejoin="round" fill="silver" fill-opacity="1"/>
<!-- !left !both --><path d="M824.325 579.375 L824.325 620.625" stroke-width="0.5" stroke="black" stroke-linejoin="round" fill="silver" fill-opacity="1"/>


<!-- renderSideComponent: cap -->


<!-- renderPart: cylinder -->
<path d="M833.075 586.25 L869.425 586.25 L869.425 613.75 L833.075 613.75 L833.075 586.25" stroke-width="0" stroke="none" stroke-linejoin="round" fill="pink" fill-opacity="1"/>
<path d="M833.075 586.25 L869.425 586.25 M869.425 613.75 L833.075 613.75" stroke-width="0.5" stroke="black" stroke-linejoin="round" fill="pink" fill-opacity="1"/>
<!-- !right !both --><path d="M869.425 586.25 L869.425 613.75" stroke-width="0.5" stroke="black" stroke-linejoin="round" fill="pink" fill-opacity="1"/>
<!-- !left !both --><path d="M833.075 586.25 L833.075 613.75" stroke-width="0.5" stroke="black" stroke-linejoin="round" fill="pink" fill-opacity="1"/>


<!-- renderSideComponent: jaws -->


<!-- renderPart: cone -->
<path d="M130.575 712.5 L148.175 705.625 L148.175 734.375 L130.575 727.5 L130.575 712.5" stroke-width="0" stroke="none" stroke-linejoin="round" fill="silver" fill-opacity="1"/>
<path d="M130.575 712.5 L148.175 705.625 M148.175 734.375 L130.575 727.5" stroke-width="0.5" stroke="black" stroke-linejoin="round" fill="silver" fill-opacity="1"/>
<!-- !right !both --><path d="M148.175 705.625 L148.175 734.375" stroke-width="0.5" stroke="black" stroke-linejoin="round" fill="silver" fill-opacity="1"/>
<!-- !left !both --><path d="M130.575 712.5 L130.575 727.5" stroke-width="0.5" stroke="black" stroke-linejoin="round" fill="silver" fill-opacity="1"/>


<!-- renderSideComponent: tip -->


<!-- renderPart: cone -->
<path d="M148.075 703.125 L220.675 701.25 L220.675 738.75 L148.075 736.875 L148.075 703.125" stroke-width="0" stroke="none" stroke-linejoin="round" fill="silver" fill-opacity="1"/>
<path d="M148.075 703.125 L220.675 701.25 M220.675 738.75 L148.075 736.875" stroke-width="0.5" stroke="black" stroke-linejoin="round" fill="silver" fill-opacity="1"/>
<!-- !right !both --><path d="M220.675 701.25 L220.675 738.75" stroke-width="0.5" stroke="black" stroke-linejoin="round" fill="silver" fill-opacity="1"/>
<!-- !left !both --><path d="M148.075 703.125 L148.075 736.875" stroke-width="0.5" stroke="black" stroke-linejoin="round" fill="silver" fill-opacity="1"/>


<!-- renderSideComponent: grip -->


<!-- renderPart: cylinder -->
<path d="M220.575 700 L374.425 700 L374.425 740 L220.575 740 L220.575 700" stroke-width="0" stroke="none" stroke-linejoin="round" fill="silver" fill-opacity="1"/>
<path d="M220.575 700 L374.425 700 M374.425 740 L220.575 740" stroke-width="0.5" stroke="black" stroke-linejoin="round" fill="silver" fill-opacity="1"/>
<!-- !right !both --><path d="M374.425 700 L374.425 740" stroke-width="0.5" stroke="black" stroke-linejoin="round" fill="silver" fill-opacity="1"/>
<!-- !left !both --><path d="M220.575 700 L220.575 740" stroke-width="0.5" stroke="black" stroke-linejoin="round" fill="silver" fill-opacity="1"/>
<!-- DEFAULT FINISH: knurled-small --><path d="M220.625 700 L374.375 700 L374.375 740 L220.625 740 Z" stroke-width="0.5" stroke="black" fill="url(#knurled-small)"/>


<!-- renderSideComponent: body -->


<!-- renderPart: hexagonal -->
<path d="M374.325 700 L824.425 699.375 L824.425 740.625 L374.325 740 L374.325 700" stroke-width="0" stroke="none" stroke-linejoin="round" fill="#8a3232" fill-opacity="1"/>
<path d="M374.325 700 L824.425 699.375 M824.425 740.625 L374.325 740" stroke-width="0.5" stroke="black" stroke-linejoin="round" fill="#8a3232" fill-opacity="1"/>
<!-- !right !both --><path d="M824.425 699.375 L824.425 740.625" stroke-width="0.5" stroke="black" stroke-linejoin="round" fill="#8a3232" fill-opacity="1"/>
<!-- !left !both --><path d="M374.325 700 L374.325 740" stroke-width="0.5" stroke="black" stroke-linejoin="round" fill="#8a3232" fill-opacity="1"/>
<line x1="374.375" y1="720" x2="824.375" y2="720" stroke-width="1.5" stroke="gray" fill="gray" stroke-opacity="1.0"/>
<line x1="374.375" y1="720" x2="824.375" y2="720" stroke-width="0.5" stroke="black" fill="none" stroke-opacity="0.5"/>


<!-- renderSideComponent: tail -->


<!-- renderPart: cylinder -->
<path d="M824.325 699.375 L833.175 699.375 L833.175 740.625 L824.325 740.625 L824.325 699.375" stroke-width="0" stroke="none" stroke-linejoin="round" fill="silver" fill-opacity="1"/>
<path d="M824.325 699.375 L833.175 699.375 M833.175 740.625 L824.325 740.625" stroke-width="0.5" stroke="black" stroke-linejoin="round" fill="silver" fill-opacity="1"/>
<!-- !right !both --><path d="M833.175 699.375 L833.175 740.625" stroke-width="0.5" stroke="black" stroke-linejoin="round" fill="silver" fill-opacity="1"/>
<!-- !left !both --><path d="M824.325 699.375 L824.325 740.625" stroke-width="0.5" stroke="black" stroke-linejoin="round" fill="silver" fill-opacity="1"/>


<!-- renderSideComponent: cap -->


<!-- renderPart: cylinder -->
<path d="M833.075 706.25 L869.425 706.25 L869.425 733.75 L833.075 733.75 L833.075 706.25" stroke-width="0" stroke="none" stroke-linejoin="round" fill="red" fill-opacity="1"/>
<path d="M833.075 706.25 L869.425 706.25 M869.425 733.75 L833.075 733.75" stroke-width="0.5" stroke="black" stroke-linejoin="round" fill="red" fill-opacity="1"/>
<!-- !right !both --><path d="M869.425 706.25 L869.425 733.75" stroke-width="0.5" stroke="black" stroke-linejoin="round" fill="red" fill-opacity="1"/>
<!-- !left !both --><path d="M833.075 706.25 L833.075 733.75" stroke-width="0.5" stroke="black" stroke-linejoin="round" fill="red" fill-opacity="1"/>


<!-- renderSideComponent: jaws -->


<!-- renderPart: cone -->
<path d="M130.575 832.5 L148.175 825.625 L148.175 854.375 L130.575 847.5 L130.575 832.5" stroke-width="0" stroke="none" stroke-linejoin="round" fill="silver" fill-opacity="1"/>
<path d="M130.575 832.5 L148.175 825.625 M148.175 854.375 L130.575 847.5" stroke-width="0.5" stroke="black" stroke-linejoin="round" fill="silver" fill-opacity="1"/>
<!-- !right !both --><path d="M148.175 825.625 L148.175 854.375" stroke-width="0.5" stroke="black" stroke-linejoin="round" fill="silver" fill-opacity="1"/>
<!-- !left !both --><path d="M130.575 832.5 L130.575 847.5" stroke-width="0.5" stroke="black" stroke-linejoin="round" fill="silver" fill-opacity="1"/>


<!-- renderSideComponent: tip -->


<!-- renderPart: cone -->
<path d="M148.075 823.125 L220.675 821.25 L220.675 858.75 L148.075 856.875 L148.075 823.125" stroke-width="0" stroke="none" stroke-linejoin="round" fill="silver" fill-opacity="1"/>
<path d="M148.075 823.125 L220.675 821.25 M220.675 858.75 L148.075 856.875" stroke-width="0.5" stroke="black" stroke-linejoin="round" fill="silver" fill-opacity="1"/>
<!-- !right !both --><path d="M220.675 821.25 L220.675 858.75" stroke-width="0.5" stroke="black" stroke-linejoin="round" fill="silver" fill-opacity="1"/>
<!-- !left !both --><path d="M148.075 823.125 L148.075 856.875" stroke-width="0.5" stroke="black" stroke-linejoin="round" fill="silver" fill-opacity="1"/>


<!-- renderSideComponent: grip -->


<!-- renderPart: cylinder -->
<path d="M220.575 820 L374.425 820 L374.425 860 L220.575 860 L220.575 820" stroke-width="0" stroke="none" stroke-linejoin="round" fill="silver" fill-opacity="1"/>
<path d="M220.575 820 L374.425 820 M374.425 860 L220.575 860" stroke-width="0.5" stroke="black" stroke-linejoin="round" fill="silver" fill-opacity="1"/>
<!-- !right !both --><path d="M374.425 820 L374.425 860" stroke-width="0.5" stroke="black" stroke-linejoin="round" fill="silver" fill-opacity="1"/>
<!-- !left !both --><path d="M220.575 820 L220.575 860" stroke-width="0.5" stroke="black" stroke-linejoin="round" fill="silver" fill-opacity="1"/>
<!-- DEFAULT FINISH: knurled-small --><path d="M220.625 820 L374.375 820 L374.375 860 L220.625 860 Z" stroke-width="0.5" stroke="black" fill="url(#knurled-small)"/>


<!-- renderSideComponent: body -->


<!-- renderPart: hexagonal -->
<path d="M374.325 820 L824.425 819.375 L824.425 860.625 L374.325 860 L374.325 820" stroke-width="0" stroke="none" stroke-linejoin="round" fill="#8a3232" fill-opacity="1"/>
<path d="M374.325 820 L824.425 819.375 M824.425 860.625 L374.325 860" stroke-width="0.5" stroke="black" stroke-linejoin="round" fill="#8a3232" fill-opacity="1"/>
<!-- !right !both --><path d="M824.425 819.375 L824.425 860.625" stroke-width="0.5" stroke="black" stroke-linejoin="round" fill="#8a3232" fill-opacity="1"/>
<!-- !left !both --><path d="M374.325 820 L374.325 860" stroke-width="0.5" stroke="black" stroke-linejoin="round" fill="#8a3232" fill-opacity="1"/>
<line x1="374.375" y1="840" x2="824.375" y2="840" stroke-width="1.5" stroke="gray" fill="gray" stroke-opacity="1.0"/>
<line x1="374.375" y1="840" x2="824.375" y2="840" stroke-width="0.5" stroke="black" fill="none" stroke-opacity="0.5"/>


<!-- renderSideComponent: tail -->


<!-- renderPart: cylinder -->
<path d="M824.325 819.375 L833.175 819.375 L833.175 860.625 L824.325 860.625 L824.325 819.375" stroke-width="0" stroke="none" stroke-linejoin="round" fill="silver" fill-opacity="1"/>
<path d="M824.325 819.375 L833.175 819.375 M833.175 860.625 L824.325 860.625" stroke-width="0.5" stroke="black" stroke-linejoin="round" fill="silver" fill-opacity="1"/>
<!-- !right !both --><path d="M833.175 819.375 L833.175 860.625" stroke-width="0.5" stroke="black" stroke-linejoin="round" fill="silver" fill-opacity="1"/>
<!-- !left !both --><path d="M824.325 819.375 L824.325 860.625" stroke-width="0.5" stroke="black" stroke-linejoin="round" fill="silver" fill-opacity="1"/>


<!-- renderSideComponent: cap -->


<!-- renderPart: cylinder -->
<path d="M833.075 826.25 L869.425 826.25 L869.425 853.75 L833.075 853.75 L833.075 826.25" stroke-width="0" stroke="none" stroke-linejoin="round" fill="brass" fill-opacity="1"/>
<path d="M833.075 826.25 L869.425 826.25 M869.425 853.75 L833.075 853.75" stroke-width="0.5" stroke="black" stroke-linejoin="round" fill="brass" fill-opacity="1"/>
<!-- !right !both --><path d="M869.425 826.25 L869.425 853.75" stroke-width="0.5" stroke="black" stroke-linejoin="round" fill="brass" fill-opacity="1"/>
<!-- !left !both --><path d="M833.075 826.25 L833.075 853.75" stroke-width="0.5" stroke="black" stroke-linejoin="round" fill="brass" fill-opacity="1"/>
</g><text x="50%" y="920" font-size="1.1em" font-weight="bold" text-anchor="middle" dominant-baseline="middle">Copyright (c) // Synapticloop // The Mechanical Pencil Database (tmpdb)</text>
<text x="50%" y="940" font-size="1.1em" font-weight="bold" text-anchor="middle" dominant-baseline="middle">Licensed under Creative Commons Attribution-NonCommercial-ShareAlike 4.0 International</text>
<text x="990" y="950" font-size="0.5em" font-weight="bold" text-anchor="end" dominant-baseline="middle">SVGPencilAllRenderer</text>
</svg>