<svg xmlns="http://www.w3.org/2000/svg" width="1000" height="200">
 <pattern id="knurled-large" patternUnits="userSpaceOnUse" width="12" height="12">
<path stroke="dimgray" stroke-linecap="round" stroke-width="1" d="M 6,6 L 12,12"/>
<path stroke="dimgray" stroke-linecap="round" stroke-width="1" d="M 6,6 L 0,12"/>
<path stroke="gray" stroke-linecap="round" stroke-width="1" d="M 6,6 L 12,0" />
<path stroke="gray" stroke-linecap="round" stroke-width="1" d="M 6,6 L 0,0" />
</pattern><pattern id="knurled-small" patternUnits="userSpaceOnUse" width="4" height="4">
<path stroke="dimgray" stroke-linecap="round" stroke-width="1" d="M 2,2 L 4,4"/>
<path stroke="dimgray" stroke-linecap="round" stroke-width="1" d="M 2,2 L 0,4"/>
<path stroke="gray" stroke-linecap="round" stroke-width="1" d="M 2,2 L 4,0" />
<path stroke="gray" stroke-linecap="round" stroke-width="1" d="M 2,2 L 0,0" />
</pattern><pattern id="knurled" patternUnits="userSpaceOnUse" width="8" height="8">
<path stroke="dimgray" stroke-linecap="round" stroke-width="1" d="M 4,4 L 8,8"/>
<path stroke="dimgray" stroke-linecap="round" stroke-width="1" d="M 4,4 L 0,8"/>
<path stroke="gray" stroke-linecap="round" stroke-width="1" d="M 4,4 L 8,0" />
<path stroke="gray" stroke-linecap="round" stroke-width="1" d="M 4,4 L 0,0" />
</pattern><pattern id="lined" patternUnits="userSpaceOnUse" width="3" height="3">
<path stroke="dimgray" stroke-linecap="round" stroke-width="1" d="M 0,0 L 3,0"/>
</pattern><pattern id="ridged" patternUnits="userSpaceOnUse" width="3" height="3">
<path stroke="dimgray" stroke-linecap="round" stroke-width="1" d="M 0,0 L 0,3"/>
</pattern><pattern id="spring" patternUnits="userSpaceOnUse" width="8" height="60">
<path stroke="dimgray" stroke-linecap="round" stroke-width="2" d="M 1,1 L 8,60"/>
<path stroke="white" stroke-linecap="round" stroke-width="1" d="M 1,1 L 8,60"/>
</pattern><g transform="rotate(0 0 0)">


<!-- renderSideComponent: jaws -->


<!-- renderPart: cone -->
<path d="M145.575 92.5 L156.925 91.25 L156.925 108.75 L145.575 107.5 L145.575 92.5" stroke-width="0" stroke="none" stroke-linejoin="round" fill="silver" fill-opacity="1"/>
<path d="M145.575 92.5 L156.925 91.25 M156.925 108.75 L145.575 107.5" stroke-width="0.5" stroke="black" stroke-linejoin="round" fill="silver" fill-opacity="1"/>
<!-- !right !both --><path d="M156.925 91.25 L156.925 108.75" stroke-width="0.5" stroke="black" stroke-linejoin="round" fill="silver" fill-opacity="1"/>
<!-- !left !both --><path d="M145.575 92.5 L145.575 107.5" stroke-width="0.5" stroke="black" stroke-linejoin="round" fill="silver" fill-opacity="1"/>


<!-- renderSideComponent: tip -->


<!-- renderPart: cone -->
<path d="M156.825 86.875 L205.675 80.625 L205.675 119.375 L156.825 113.125 L156.825 86.875" stroke-width="0" stroke="none" stroke-linejoin="round" fill="silver" fill-opacity="1"/>
<path d="M156.825 86.875 L205.675 80.625 M205.675 119.375 L156.825 113.125" stroke-width="0.5" stroke="black" stroke-linejoin="round" fill="silver" fill-opacity="1"/>
<!-- !right !both --><path d="M205.675 80.625 L205.675 119.375" stroke-width="0.5" stroke="black" stroke-linejoin="round" fill="silver" fill-opacity="1"/>
<!-- !left !both --><path d="M156.825 86.875 L156.825 113.125" stroke-width="0.5" stroke="black" stroke-linejoin="round" fill="silver" fill-opacity="1"/>


<!-- renderSideComponent: head -->


<!-- renderPart: hexagonal -->
<path d="M205.575 80.625 L238.175 80 L238.175 120 L205.575 119.375 L205.575 80.625" stroke-width="0" stroke="none" stroke-linejoin="round" fill="silver" fill-opacity="1"/>
<path d="M205.575 80.625 L238.175 80 M238.175 120 L205.575 119.375" stroke-width="0.5" stroke="black" stroke-linejoin="round" fill="silver" fill-opacity="1"/>
<!-- !right !both --><path d="M238.175 80 L238.175 120" stroke-width="0.5" stroke="black" stroke-linejoin="round" fill="silver" fill-opacity="1"/>
<!-- !left !both --><path d="M205.575 80.625 L205.575 119.375" stroke-width="0.5" stroke="black" stroke-linejoin="round" fill="silver" fill-opacity="1"/>
<line x1="228.125" y1="100" x2="260.625" y2="100" stroke-width="1.5" stroke="gray" fill="gray" stroke-opacity="1.0"/>
<line x1="228.125" y1="100" x2="260.625" y2="100" stroke-width="0.5" stroke="black" fill="none" stroke-opacity="0.5"/>


<!-- renderSideComponent: grip -->


<!-- renderPart: hexagonal -->
<path d="M238.075 80 L244.425 80 L244.425 120 L238.075 120 L238.075 80" stroke-width="0" stroke="none" stroke-linejoin="round" fill="silver" fill-opacity="1"/>
<path d="M238.075 80 L244.425 80 M244.425 120 L238.075 120" stroke-width="0.5" stroke="black" stroke-linejoin="round" fill="silver" fill-opacity="1"/>
<!-- !right !both --><path d="M244.425 80 L244.425 120" stroke-width="0.5" stroke="black" stroke-linejoin="round" fill="silver" fill-opacity="1"/>
<!-- !left !both --><path d="M238.075 80 L238.075 120" stroke-width="0.5" stroke="black" stroke-linejoin="round" fill="silver" fill-opacity="1"/>
<line x1="238.125" y1="100" x2="244.375" y2="100" stroke-width="1.5" stroke="gray" fill="gray" stroke-opacity="1.0"/>
<line x1="238.125" y1="100" x2="244.375" y2="100" stroke-width="0.5" stroke="black" fill="none" stroke-opacity="0.5"/>


<!-- renderPart: hexagonal -->
<path d="M244.325 80.625 L250.675 80.625 L250.675 119.375 L244.325 119.375 L244.325 80.625" stroke-width="0" stroke="none" stroke-linejoin="round" fill="silver" fill-opacity="1"/>
<path d="M244.325 80.625 L250.675 80.625 M250.675 119.375 L244.325 119.375" stroke-width="0.5" stroke="black" stroke-linejoin="round" fill="silver" fill-opacity="1"/>
<!-- !right !both --><path d="M250.675 80.625 L250.675 119.375" stroke-width="0.5" stroke="black" stroke-linejoin="round" fill="silver" fill-opacity="1"/>
<!-- !left !both --><path d="M244.325 80.625 L244.325 119.375" stroke-width="0.5" stroke="black" stroke-linejoin="round" fill="silver" fill-opacity="1"/>
<line x1="244.375" y1="100" x2="250.625" y2="100" stroke-width="1.5" stroke="gray" fill="gray" stroke-opacity="1.0"/>
<line x1="244.375" y1="100" x2="250.625" y2="100" stroke-width="0.5" stroke="black" fill="none" stroke-opacity="0.5"/>


<!-- renderPart: hexagonal -->
<path d="M250.575 80 L256.925 80 L256.925 120 L250.575 120 L250.575 80" stroke-width="0" stroke="none" stroke-linejoin="round" fill="silver" fill-opacity="1"/>
<path d="M250.575 80 L256.925 80 M256.925 120 L250.575 120" stroke-width="0.5" stroke="black" stroke-linejoin="round" fill="silver" fill-opacity="1"/>
<!-- !right !both --><path d="M256.925 80 L256.925 120" stroke-width="0.5" stroke="black" stroke-linejoin="round" fill="silver" fill-opacity="1"/>
<!-- !left !both --><path d="M250.575 80 L250.575 120" stroke-width="0.5" stroke="black" stroke-linejoin="round" fill="silver" fill-opacity="1"/>
<line x1="250.625" y1="100" x2="256.875" y2="100" stroke-width="1.5" stroke="gray" fill="gray" stroke-opacity="1.0"/>
<line x1="250.625" y1="100" x2="256.875" y2="100" stroke-width="0.5" stroke="black" fill="none" stroke-opacity="0.5"/>


<!-- renderPart: hexagonal -->
<path d="M256.825 80.625 L263.175 80.625 L263.175 119.375 L256.825 119.375 L256.825 80.625" stroke-width="0" stroke="none" stroke-linejoin="round" fill="silver" fill-opacity="1"/>
<path d="M256.825 80.625 L263.175 80.625 M263.175 119.375 L256.825 119.375" stroke-width="0.5" stroke="black" stroke-linejoin="round" fill="silver" fill-opacity="1"/>
<!-- !right !both --><path d="M263.175 80.625 L263.175 119.375" stroke-width="0.5" stroke="black" stroke-linejoin="round" fill="silver" fill-opacity="1"/>
<!-- !left !both --><path d="M256.825 80.625 L256.825 119.375" stroke-width="0.5" stroke="black" stroke-linejoin="round" fill="silver" fill-opacity="1"/>
<line x1="256.875" y1="100" x2="263.125" y2="100" stroke-width="1.5" stroke="gray" fill="gray" stroke-opacity="1.0"/>
<line x1="256.875" y1="100" x2="263.125" y2="100" stroke-width="0.5" stroke="black" fill="none" stroke-opacity="0.5"/>


<!-- renderPart: hexagonal -->
<path d="M263.075 80 L269.425 80 L269.425 120 L263.075 120 L263.075 80" stroke-width="0" stroke="none" stroke-linejoin="round" fill="silver" fill-opacity="1"/>
<path d="M263.075 80 L269.425 80 M269.425 120 L263.075 120" stroke-width="0.5" stroke="black" stroke-linejoin="round" fill="silver" fill-opacity="1"/>
<!-- !right !both --><path d="M269.425 80 L269.425 120" stroke-width="0.5" stroke="black" stroke-linejoin="round" fill="silver" fill-opacity="1"/>
<!-- !left !both --><path d="M263.075 80 L263.075 120" stroke-width="0.5" stroke="black" stroke-linejoin="round" fill="silver" fill-opacity="1"/>
<line x1="263.125" y1="100" x2="269.375" y2="100" stroke-width="1.5" stroke="gray" fill="gray" stroke-opacity="1.0"/>
<line x1="263.125" y1="100" x2="269.375" y2="100" stroke-width="0.5" stroke="black" fill="none" stroke-opacity="0.5"/>


<!-- renderPart: hexagonal -->
<path d="M269.325 80.625 L275.675 80.625 L275.675 119.375 L269.325 119.375 L269.325 80.625" stroke-width="0" stroke="none" stroke-linejoin="round" fill="silver" fill-opacity="1"/>
<path d="M269.325 80.625 L275.675 80.625 M275.675 119.375 L269.325 119.375" stroke-width="0.5" stroke="black" stroke-linejoin="round" fill="silver" fill-opacity="1"/>
<!-- !right !both --><path d="M275.675 80.625 L275.675 119.375" stroke-width="0.5" stroke="black" stroke-linejoin="round" fill="silver" fill-opacity="1"/>
<!-- !left !both --><path d="M269.325 80.625 L269.325 119.375" stroke-width="0.5" stroke="black" stroke-linejoin="round" fill="silver" fill-opacity="1"/>
<line x1="269.375" y1="100" x2="275.625" y2="100" stroke-width="1.5" stroke="gray" fill="gray" stroke-opacity="1.0"/>
<line x1="269.375" y1="100" x2="275.625" y2="100" stroke-width="0.5" stroke="black" fill="none" stroke-opacity="0.5"/>


<!-- renderPart: hexagonal -->
<path d="M275.575 80 L281.925 80 L281.925 120 L275.575 120 L275.575 80" stroke-width="0" stroke="none" stroke-linejoin="round" fill="silver" fill-opacity="1"/>
<path d="M275.575 80 L281.925 80 M281.925 120 L275.575 120" stroke-width="0.5" stroke="black" stroke-linejoin="round" fill="silver" fill-opacity="1"/>
<!-- !right !both --><path d="M281.925 80 L281.925 120" stroke-width="0.5" stroke="black" stroke-linejoin="round" fill="silver" fill-opacity="1"/>
<!-- !left !both --><path d="M275.575 80 L275.575 120" stroke-width="0.5" stroke="black" stroke-linejoin="round" fill="silver" fill-opacity="1"/>
<line x1="275.625" y1="100" x2="281.875" y2="100" stroke-width="1.5" stroke="gray" fill="gray" stroke-opacity="1.0"/>
<line x1="275.625" y1="100" x2="281.875" y2="100" stroke-width="0.5" stroke="black" fill="none" stroke-opacity="0.5"/>


<!-- renderPart: hexagonal -->
<path d="M281.825 80.625 L288.175 80.625 L288.175 119.375 L281.825 119.375 L281.825 80.625" stroke-width="0" stroke="none" stroke-linejoin="round" fill="silver" fill-opacity="1"/>
<path d="M281.825 80.625 L288.175 80.625 M288.175 119.375 L281.825 119.375" stroke-width="0.5" stroke="black" stroke-linejoin="round" fill="silver" fill-opacity="1"/>
<!-- !right !both --><path d="M288.175 80.625 L288.175 119.375" stroke-width="0.5" stroke="black" stroke-linejoin="round" fill="silver" fill-opacity="1"/>
<!-- !left !both --><path d="M281.825 80.625 L281.825 119.375" stroke-width="0.5" stroke="black" stroke-linejoin="round" fill="silver" fill-opacity="1"/>
<line x1="281.875" y1="100" x2="288.125" y2="100" stroke-width="1.5" stroke="gray" fill="gray" stroke-opacity="1.0"/>
<line x1="281.875" y1="100" x2="288.125" y2="100" stroke-width="0.5" stroke="black" fill="none" stroke-opacity="0.5"/>


<!-- renderPart: hexagonal -->
<path d="M288.075 80 L294.425 80 L294.425 120 L288.075 120 L288.075 80" stroke-width="0" stroke="none" stroke-linejoin="round" fill="silver" fill-opacity="1"/>
<path d="M288.075 80 L294.425 80 M294.425 120 L288.075 120" stroke-width="0.5" stroke="black" stroke-linejoin="round" fill="silver" fill-opacity="1"/>
<!-- !right !both --><path d="M294.425 80 L294.425 120" stroke-width="0.5" stroke="black" stroke-linejoin="round" fill="silver" fill-opacity="1"/>
<!-- !left !both --><path d="M288.075 80 L288.075 120" stroke-width="0.5" stroke="black" stroke-linejoin="round" fill="silver" fill-opacity="1"/>
<line x1="288.125" y1="100" x2="294.375" y2="100" stroke-width="1.5" stroke="gray" fill="gray" stroke-opacity="1.0"/>
<line x1="288.125" y1="100" x2="294.375" y2="100" stroke-width="0.5" stroke="black" fill="none" stroke-opacity="0.5"/>


<!-- renderPart: hexagonal -->
<path d="M294.325 80.625 L300.675 80.625 L300.675 119.375 L294.325 119.375 L294.325 80.625" stroke-width="0" stroke="none" stroke-linejoin="round" fill="silver" fill-opacity="1"/>
<path d="M294.325 80.625 L300.675 80.625 M300.675 119.375 L294.325 119.375" stroke-width="0.5" stroke="black" stroke-linejoin="round" fill="silver" fill-opacity="1"/>
<!-- !right !both --><path d="M300.675 80.625 L300.675 119.375" stroke-width="0.5" stroke="black" stroke-linejoin="round" fill="silver" fill-opacity="1"/>
<!-- !left !both --><path d="M294.325 80.625 L294.325 119.375" stroke-width="0.5" stroke="black" stroke-linejoin="round" fill="silver" fill-opacity="1"/>
<line x1="294.375" y1="100" x2="300.625" y2="100" stroke-width="1.5" stroke="gray" fill="gray" stroke-opacity="1.0"/>
<line x1="294.375" y1="100" x2="300.625" y2="100" stroke-width="0.5" stroke="black" fill="none" stroke-opacity="0.5"/>


<!-- renderPart: hexagonal -->
<path d="M300.575 80 L306.925 80 L306.925 120 L300.575 120 L300.575 80" stroke-width="0" stroke="none" stroke-linejoin="round" fill="silver" fill-opacity="1"/>
<path d="M300.575 80 L306.925 80 M306.925 120 L300.575 120" stroke-width="0.5" stroke="black" stroke-linejoin="round" fill="silver" fill-opacity="1"/>
<!-- !right !both --><path d="M306.925 80 L306.925 120" stroke-width="0.5" stroke="black" stroke-linejoin="round" fill="silver" fill-opacity="1"/>
<!-- !left !both --><path d="M300.575 80 L300.575 120" stroke-width="0.5" stroke="black" stroke-linejoin="round" fill="silver" fill-opacity="1"/>
<line x1="300.625" y1="100" x2="306.875" y2="100" stroke-width="1.5" stroke="gray" fill="gray" stroke-opacity="1.0"/>
<line x1="300.625" y1="100" x2="306.875" y2="100" stroke-width="0.5" stroke="black" fill="none" stroke-opacity="0.5"/>


<!-- renderPart: hexagonal -->
<path d="M306.825 80.625 L313.175 80.625 L313.175 119.375 L306.825 119.375 L306.825 80.625" stroke-width="0" stroke="none" stroke-linejoin="round" fill="silver" fill-opacity="1"/>
<path d="M306.825 80.625 L313.175 80.625 M313.175 119.375 L306.825 119.375" stroke-width="0.5" stroke="black" stroke-linejoin="round" fill="silver" fill-opacity="1"/>
<!-- !right !both --><path d="M313.175 80.625 L313.175 119.375" stroke-width="0.5" stroke="black" stroke-linejoin="round" fill="silver" fill-opacity="1"/>
<!-- !left !both --><path d="M306.825 80.625 L306.825 119.375" stroke-width="0.5" stroke="black" stroke-linejoin="round" fill="silver" fill-opacity="1"/>
<line x1="306.875" y1="100" x2="313.125" y2="100" stroke-width="1.5" stroke="gray" fill="gray" stroke-opacity="1.0"/>
<line x1="306.875" y1="100" x2="313.125" y2="100" stroke-width="0.5" stroke="black" fill="none" stroke-opacity="0.5"/>


<!-- renderPart: hexagonal -->
<path d="M313.075 80 L319.425 80 L319.425 120 L313.075 120 L313.075 80" stroke-width="0" stroke="none" stroke-linejoin="round" fill="silver" fill-opacity="1"/>
<path d="M313.075 80 L319.425 80 M319.425 120 L313.075 120" stroke-width="0.5" stroke="black" stroke-linejoin="round" fill="silver" fill-opacity="1"/>
<!-- !right !both --><path d="M319.425 80 L319.425 120" stroke-width="0.5" stroke="black" stroke-linejoin="round" fill="silver" fill-opacity="1"/>
<!-- !left !both --><path d="M313.075 80 L313.075 120" stroke-width="0.5" stroke="black" stroke-linejoin="round" fill="silver" fill-opacity="1"/>
<line x1="313.125" y1="100" x2="319.375" y2="100" stroke-width="1.5" stroke="gray" fill="gray" stroke-opacity="1.0"/>
<line x1="313.125" y1="100" x2="319.375" y2="100" stroke-width="0.5" stroke="black" fill="none" stroke-opacity="0.5"/>


<!-- renderPart: hexagonal -->
<path d="M319.325 80.625 L325.675 80.625 L325.675 119.375 L319.325 119.375 L319.325 80.625" stroke-width="0" stroke="none" stroke-linejoin="round" fill="silver" fill-opacity="1"/>
<path d="M319.325 80.625 L325.675 80.625 M325.675 119.375 L319.325 119.375" stroke-width="0.5" stroke="black" stroke-linejoin="round" fill="silver" fill-opacity="1"/>
<!-- !right !both --><path d="M325.675 80.625 L325.675 119.375" stroke-width="0.5" stroke="black" stroke-linejoin="round" fill="silver" fill-opacity="1"/>
<!-- !left !both --><path d="M319.325 80.625 L319.325 119.375" stroke-width="0.5" stroke="black" stroke-linejoin="round" fill="silver" fill-opacity="1"/>
<line x1="319.375" y1="100" x2="325.625" y2="100" stroke-width="1.5" stroke="gray" fill="gray" stroke-opacity="1.0"/>
<line x1="319.375" y1="100" x2="325.625" y2="100" stroke-width="0.5" stroke="black" fill="none" stroke-opacity="0.5"/>


<!-- renderPart: hexagonal -->
<path d="M325.575 80 L331.925 80 L331.925 120 L325.575 120 L325.575 80" stroke-width="0" stroke="none" stroke-linejoin="round" fill="silver" fill-opacity="1"/>
<path d="M325.575 80 L331.925 80 M331.925 120 L325.575 120" stroke-width="0.5" stroke="black" stroke-linejoin="round" fill="silver" fill-opacity="1"/>
<!-- !right !both --><path d="M331.925 80 L331.925 120" stroke-width="0.5" stroke="black" stroke-linejoin="round" fill="silver" fill-opacity="1"/>
<!-- !left !both --><path d="M325.575 80 L325.575 120" stroke-width="0.5" stroke="black" stroke-linejoin="round" fill="silver" fill-opacity="1"/>
<line x1="325.625" y1="100" x2="331.875" y2="100" stroke-width="1.5" stroke="gray" fill="gray" stroke-opacity="1.0"/>
<line x1="325.625" y1="100" x2="331.875" y2="100" stroke-width="0.5" stroke="black" fill="none" stroke-opacity="0.5"/>


<!-- renderPart: hexagonal -->
<path d="M331.825 80.625 L338.175 80.625 L338.175 119.375 L331.825 119.375 L331.825 80.625" stroke-width="0" stroke="none" stroke-linejoin="round" fill="silver" fill-opacity="1"/>
<path d="M331.825 80.625 L338.175 80.625 M338.175 119.375 L331.825 119.375" stroke-width="0.5" stroke="black" stroke-linejoin="round" fill="silver" fill-opacity="1"/>
<!-- !right !both --><path d="M338.175 80.625 L338.175 119.375" stroke-width="0.5" stroke="black" stroke-linejoin="round" fill="silver" fill-opacity="1"/>
<!-- !left !both --><path d="M331.825 80.625 L331.825 119.375" stroke-width="0.5" stroke="black" stroke-linejoin="round" fill="silver" fill-opacity="1"/>
<line x1="331.875" y1="100" x2="338.125" y2="100" stroke-width="1.5" stroke="gray" fill="gray" stroke-opacity="1.0"/>
<line x1="331.875" y1="100" x2="338.125" y2="100" stroke-width="0.5" stroke="black" fill="none" stroke-opacity="0.5"/>


<!-- renderPart: hexagonal -->
<path d="M338.075 80 L344.425 80 L344.425 120 L338.075 120 L338.075 80" stroke-width="0" stroke="none" stroke-linejoin="round" fill="silver" fill-opacity="1"/>
<path d="M338.075 80 L344.425 80 M344.425 120 L338.075 120" stroke-width="0.5" stroke="black" stroke-linejoin="round" fill="silver" fill-opacity="1"/>
<!-- !right !both --><path d="M344.425 80 L344.425 120" stroke-width="0.5" stroke="black" stroke-linejoin="round" fill="silver" fill-opacity="1"/>
<!-- !left !both --><path d="M338.075 80 L338.075 120" stroke-width="0.5" stroke="black" stroke-linejoin="round" fill="silver" fill-opacity="1"/>
<line x1="338.125" y1="100" x2="344.375" y2="100" stroke-width="1.5" stroke="gray" fill="gray" stroke-opacity="1.0"/>
<line x1="338.125" y1="100" x2="344.375" y2="100" stroke-width="0.5" stroke="black" fill="none" stroke-opacity="0.5"/>


<!-- renderPart: hexagonal -->
<path d="M344.325 80.625 L350.675 80.625 L350.675 119.375 L344.325 119.375 L344.325 80.625" stroke-width="0" stroke="none" stroke-linejoin="round" fill="silver" fill-opacity="1"/>
<path d="M344.325 80.625 L350.675 80.625 M350.675 119.375 L344.325 119.375" stroke-width="0.5" stroke="black" stroke-linejoin="round" fill="silver" fill-opacity="1"/>
<!-- !right !both --><path d="M350.675 80.625 L350.675 119.375" stroke-width="0.5" stroke="black" stroke-linejoin="round" fill="silver" fill-opacity="1"/>
<!-- !left !both --><path d="M344.325 80.625 L344.325 119.375" stroke-width="0.5" stroke="black" stroke-linejoin="round" fill="silver" fill-opacity="1"/>
<line x1="344.375" y1="100" x2="350.625" y2="100" stroke-width="1.5" stroke="gray" fill="gray" stroke-opacity="1.0"/>
<line x1="344.375" y1="100" x2="350.625" y2="100" stroke-width="0.5" stroke="black" fill="none" stroke-opacity="0.5"/>


<!-- renderPart: hexagonal -->
<path d="M350.575 80 L356.925 80 L356.925 120 L350.575 120 L350.575 80" stroke-width="0" stroke="none" stroke-linejoin="round" fill="silver" fill-opacity="1"/>
<path d="M350.575 80 L356.925 80 M356.925 120 L350.575 120" stroke-width="0.5" stroke="black" stroke-linejoin="round" fill="silver" fill-opacity="1"/>
<!-- !right !both --><path d="M356.925 80 L356.925 120" stroke-width="0.5" stroke="black" stroke-linejoin="round" fill="silver" fill-opacity="1"/>
<!-- !left !both --><path d="M350.575 80 L350.575 120" stroke-width="0.5" stroke="black" stroke-linejoin="round" fill="silver" fill-opacity="1"/>
<line x1="350.625" y1="100" x2="356.875" y2="100" stroke-width="1.5" stroke="gray" fill="gray" stroke-opacity="1.0"/>
<line x1="350.625" y1="100" x2="356.875" y2="100" stroke-width="0.5" stroke="black" fill="none" stroke-opacity="0.5"/>


<!-- renderPart: hexagonal -->
<path d="M356.825 80.625 L363.175 80.625 L363.175 119.375 L356.825 119.375 L356.825 80.625" stroke-width="0" stroke="none" stroke-linejoin="round" fill="silver" fill-opacity="1"/>
<path d="M356.825 80.625 L363.175 80.625 M363.175 119.375 L356.825 119.375" stroke-width="0.5" stroke="black" stroke-linejoin="round" fill="silver" fill-opacity="1"/>
<!-- !right !both --><path d="M363.175 80.625 L363.175 119.375" stroke-width="0.5" stroke="black" stroke-linejoin="round" fill="silver" fill-opacity="1"/>
<!-- !left !both --><path d="M356.825 80.625 L356.825 119.375" stroke-width="0.5" stroke="black" stroke-linejoin="round" fill="silver" fill-opacity="1"/>
<line x1="356.875" y1="100" x2="363.125" y2="100" stroke-width="1.5" stroke="gray" fill="gray" stroke-opacity="1.0"/>
<line x1="356.875" y1="100" x2="363.125" y2="100" stroke-width="0.5" stroke="black" fill="none" stroke-opacity="0.5"/>


<!-- renderPart: hexagonal -->
<path d="M363.075 80 L369.425 80 L369.425 120 L363.075 120 L363.075 80" stroke-width="0" stroke="none" stroke-linejoin="round" fill="silver" fill-opacity="1"/>
<path d="M363.075 80 L369.425 80 M369.425 120 L363.075 120" stroke-width="0.5" stroke="black" stroke-linejoin="round" fill="silver" fill-opacity="1"/>
<!-- !right !both --><path d="M369.425 80 L369.425 120" stroke-width="0.5" stroke="black" stroke-linejoin="round" fill="silver" fill-opacity="1"/>
<!-- !left !both --><path d="M363.075 80 L363.075 120" stroke-width="0.5" stroke="black" stroke-linejoin="round" fill="silver" fill-opacity="1"/>
<line x1="363.125" y1="100" x2="369.375" y2="100" stroke-width="1.5" stroke="gray" fill="gray" stroke-opacity="1.0"/>
<line x1="363.125" y1="100" x2="369.375" y2="100" stroke-width="0.5" stroke="black" fill="none" stroke-opacity="0.5"/>


<!-- renderPart: hexagonal -->
<path d="M369.325 80.625 L375.675 80.625 L375.675 119.375 L369.325 119.375 L369.325 80.625" stroke-width="0" stroke="none" stroke-linejoin="round" fill="silver" fill-opacity="1"/>
<path d="M369.325 80.625 L375.675 80.625 M375.675 119.375 L369.325 119.375" stroke-width="0.5" stroke="black" stroke-linejoin="round" fill="silver" fill-opacity="1"/>
<!-- !right !both --><path d="M375.675 80.625 L375.675 119.375" stroke-width="0.5" stroke="black" stroke-linejoin="round" fill="silver" fill-opacity="1"/>
<!-- !left !both --><path d="M369.325 80.625 L369.325 119.375" stroke-width="0.5" stroke="black" stroke-linejoin="round" fill="silver" fill-opacity="1"/>
<line x1="369.375" y1="100" x2="375.625" y2="100" stroke-width="1.5" stroke="gray" fill="gray" stroke-opacity="1.0"/>
<line x1="369.375" y1="100" x2="375.625" y2="100" stroke-width="0.5" stroke="black" fill="none" stroke-opacity="0.5"/>


<!-- renderPart: hexagonal -->
<path d="M375.575 80 L381.925 80 L381.925 120 L375.575 120 L375.575 80" stroke-width="0" stroke="none" stroke-linejoin="round" fill="silver" fill-opacity="1"/>
<path d="M375.575 80 L381.925 80 M381.925 120 L375.575 120" stroke-width="0.5" stroke="black" stroke-linejoin="round" fill="silver" fill-opacity="1"/>
<!-- !right !both --><path d="M381.925 80 L381.925 120" stroke-width="0.5" stroke="black" stroke-linejoin="round" fill="silver" fill-opacity="1"/>
<!-- !left !both --><path d="M375.575 80 L375.575 120" stroke-width="0.5" stroke="black" stroke-linejoin="round" fill="silver" fill-opacity="1"/>
<line x1="375.625" y1="100" x2="381.875" y2="100" stroke-width="1.5" stroke="gray" fill="gray" stroke-opacity="1.0"/>
<line x1="375.625" y1="100" x2="381.875" y2="100" stroke-width="0.5" stroke="black" fill="none" stroke-opacity="0.5"/>


<!-- renderPart: hexagonal -->
<path d="M381.825 80.625 L388.175 80.625 L388.175 119.375 L381.825 119.375 L381.825 80.625" stroke-width="0" stroke="none" stroke-linejoin="round" fill="silver" fill-opacity="1"/>
<path d="M381.825 80.625 L388.175 80.625 M388.175 119.375 L381.825 119.375" stroke-width="0.5" stroke="black" stroke-linejoin="round" fill="silver" fill-opacity="1"/>
<!-- !right !both --><path d="M388.175 80.625 L388.175 119.375" stroke-width="0.5" stroke="black" stroke-linejoin="round" fill="silver" fill-opacity="1"/>
<!-- !left !both --><path d="M381.825 80.625 L381.825 119.375" stroke-width="0.5" stroke="black" stroke-linejoin="round" fill="silver" fill-opacity="1"/>
<line x1="381.875" y1="100" x2="388.125" y2="100" stroke-width="1.5" stroke="gray" fill="gray" stroke-opacity="1.0"/>
<line x1="381.875" y1="100" x2="388.125" y2="100" stroke-width="0.5" stroke="black" fill="none" stroke-opacity="0.5"/>


<!-- renderPart: hexagonal -->
<path d="M388.075 80 L394.425 80 L394.425 120 L388.075 120 L388.075 80" stroke-width="0" stroke="none" stroke-linejoin="round" fill="silver" fill-opacity="1"/>
<path d="M388.075 80 L394.425 80 M394.425 120 L388.075 120" stroke-width="0.5" stroke="black" stroke-linejoin="round" fill="silver" fill-opacity="1"/>
<!-- !right !both --><path d="M394.425 80 L394.425 120" stroke-width="0.5" stroke="black" stroke-linejoin="round" fill="silver" fill-opacity="1"/>
<!-- !left !both --><path d="M388.075 80 L388.075 120" stroke-width="0.5" stroke="black" stroke-linejoin="round" fill="silver" fill-opacity="1"/>
<line x1="388.125" y1="100" x2="394.375" y2="100" stroke-width="1.5" stroke="gray" fill="gray" stroke-opacity="1.0"/>
<line x1="388.125" y1="100" x2="394.375" y2="100" stroke-width="0.5" stroke="black" fill="none" stroke-opacity="0.5"/>


<!-- renderPart: hexagonal -->
<path d="M394.325 80.625 L400.675 80.625 L400.675 119.375 L394.325 119.375 L394.325 80.625" stroke-width="0" stroke="none" stroke-linejoin="round" fill="silver" fill-opacity="1"/>
<path d="M394.325 80.625 L400.675 80.625 M400.675 119.375 L394.325 119.375" stroke-width="0.5" stroke="black" stroke-linejoin="round" fill="silver" fill-opacity="1"/>
<!-- !right !both --><path d="M400.675 80.625 L400.675 119.375" stroke-width="0.5" stroke="black" stroke-linejoin="round" fill="silver" fill-opacity="1"/>
<!-- !left !both --><path d="M394.325 80.625 L394.325 119.375" stroke-width="0.5" stroke="black" stroke-linejoin="round" fill="silver" fill-opacity="1"/>
<line x1="394.375" y1="100" x2="400.625" y2="100" stroke-width="1.5" stroke="gray" fill="gray" stroke-opacity="1.0"/>
<line x1="394.375" y1="100" x2="400.625" y2="100" stroke-width="0.5" stroke="black" fill="none" stroke-opacity="0.5"/>


<!-- renderSideComponent: body -->


<!-- renderPart: hexagonal -->
<path d="M400.575 80 L720.675 80 L720.675 120 L400.575 120 L400.575 80" stroke-width="0" stroke="none" stroke-linejoin="round" fill="silver" fill-opacity="1"/>
<path d="M400.575 80 L720.675 80 M720.675 120 L400.575 120" stroke-width="0.5" stroke="black" stroke-linejoin="round" fill="silver" fill-opacity="1"/>
<!-- !right !both --><path d="M720.675 80 L720.675 120" stroke-width="0.5" stroke="black" stroke-linejoin="round" fill="silver" fill-opacity="1"/>
<!-- !left !both --><path d="M400.575 80 L400.575 120" stroke-width="0.5" stroke="black" stroke-linejoin="round" fill="silver" fill-opacity="1"/>
<line x1="400.625" y1="100" x2="720.625" y2="100" stroke-width="1.5" stroke="gray" fill="gray" stroke-opacity="1.0"/>
<line x1="400.625" y1="100" x2="720.625" y2="100" stroke-width="0.5" stroke="black" fill="none" stroke-opacity="0.5"/>


<!-- renderSideComponent: clip -->
<path d="M585.625 72.25 Q608.125 88.5 618.125 68.5" stroke-width="4" stroke="black" fill="none" stroke-linecap="round" />
<path d="M585.625 71 Q675.625 58.5 768.125 71" stroke-width="4" stroke="black" fill="none" stroke-linecap="round" />
<path d="M768.125 71 Q773.125 74.75 768.125 78.5" stroke-width="4" stroke="black" fill="none" stroke-linecap="round" />
<line x1="768.125" y1="78.5" x2="753.125" y2="78.5" stroke-width="4" stroke="black" fill="dimgray" stroke-linecap="round" />


<!-- renderPart: hexagonal -->
<path d="M720.575 77.5 L754.425 77.5 L754.425 122.5 L720.575 122.5 L720.575 77.5" stroke-width="0" stroke="none" stroke-linejoin="round" fill="silver" fill-opacity="1"/>
<path d="M720.575 77.5 L754.425 77.5 M754.425 122.5 L720.575 122.5" stroke-width="0.5" stroke="black" stroke-linejoin="round" fill="silver" fill-opacity="1"/>
<!-- !right !both --><path d="M754.425 77.5 L754.425 122.5" stroke-width="0.5" stroke="black" stroke-linejoin="round" fill="silver" fill-opacity="1"/>
<!-- !left !both --><path d="M720.575 77.5 L720.575 122.5" stroke-width="0.5" stroke="black" stroke-linejoin="round" fill="silver" fill-opacity="1"/>
<line x1="720.625" y1="100" x2="754.375" y2="100" stroke-width="1.5" stroke="gray" fill="gray" stroke-opacity="1.0"/>
<line x1="720.625" y1="100" x2="754.375" y2="100" stroke-width="0.5" stroke="black" fill="none" stroke-opacity="0.5"/>
<path d="M585.625 72.25 Q608.125 88.5 618.125 68.5" stroke-width="3" stroke="silver" fill="none" stroke-linecap="round" />
<path d="M585.625 71 Q675.625 58.5 768.125 71" stroke-width="3" stroke="silver" fill="none" stroke-linecap="round" />
<path d="M768.125 71 Q773.125 74.75 768.125 78.5" stroke-width="3" stroke="silver" fill="none" stroke-linecap="round" />
<line x1="768.125" y1="78.5" x2="753.125" y2="78.5" stroke-width="3" stroke="silver" fill="silver" stroke-linecap="round" />


<!-- renderSideComponent: tail -->


<!-- renderPart: hexagonal -->
<path d="M754.325 80 L810.675 80 L810.675 120 L754.325 120 L754.325 80" stroke-width="0" stroke="none" stroke-linejoin="round" fill="silver" fill-opacity="1"/>
<path d="M754.325 80 L810.675 80 M810.675 120 L754.325 120" stroke-width="0.5" stroke="black" stroke-linejoin="round" fill="silver" fill-opacity="1"/>
<!-- !right !both --><path d="M810.675 80 L810.675 120" stroke-width="0.5" stroke="black" stroke-linejoin="round" fill="silver" fill-opacity="1"/>
<!-- !left !both --><path d="M754.325 80 L754.325 120" stroke-width="0.5" stroke="black" stroke-linejoin="round" fill="silver" fill-opacity="1"/>
<line x1="754.375" y1="100" x2="810.625" y2="100" stroke-width="1.5" stroke="gray" fill="gray" stroke-opacity="1.0"/>
<line x1="754.375" y1="100" x2="810.625" y2="100" stroke-width="0.5" stroke="black" fill="none" stroke-opacity="0.5"/>


<!-- renderSideComponent: eraser -->


<!-- renderSideComponent: cap -->


<!-- renderPart: cylinder -->
<path d="M810.575 83.75 L843.175 83.75 L843.175 116.25 L810.575 116.25 L810.575 83.75" stroke-width="0" stroke="none" stroke-linejoin="round" fill="silver" fill-opacity="1"/>
<path d="M810.575 83.75 L843.175 83.75 M843.175 116.25 L810.575 116.25" stroke-width="0.5" stroke="black" stroke-linejoin="round" fill="silver" fill-opacity="1"/>
<!-- !right !both --><path d="M843.175 83.75 L843.175 116.25" stroke-width="0.5" stroke="black" stroke-linejoin="round" fill="silver" fill-opacity="1"/>
<!-- !left !both --><path d="M810.575 83.75 L810.575 116.25" stroke-width="0.5" stroke="black" stroke-linejoin="round" fill="silver" fill-opacity="1"/>


<!-- renderPart: cylinder -->
<path d="M843.075 85 L848.175 85 L848.175 115 L843.075 115 L843.075 85" stroke-width="0" stroke="none" stroke-linejoin="round" fill="silver" fill-opacity="1"/>
<path d="M843.075 85 L848.175 85 M848.175 115 L843.075 115" stroke-width="0.5" stroke="black" stroke-linejoin="round" fill="silver" fill-opacity="1"/>
<!-- !right !both --><path d="M848.175 85 L848.175 115" stroke-width="0.5" stroke="black" stroke-linejoin="round" fill="silver" fill-opacity="1"/>
<!-- !left !both --><path d="M843.075 85 L843.075 115" stroke-width="0.5" stroke="black" stroke-linejoin="round" fill="silver" fill-opacity="1"/>


<!-- renderPart: cylinder -->
<path d="M848.075 83.75 L853.175 83.75 L853.175 116.25 L848.075 116.25 L848.075 83.75" stroke-width="0" stroke="none" stroke-linejoin="round" fill="silver" fill-opacity="1"/>
<path d="M848.075 83.75 L853.175 83.75 M853.175 116.25 L848.075 116.25" stroke-width="0.5" stroke="black" stroke-linejoin="round" fill="silver" fill-opacity="1"/>
<!-- !right !both --><path d="M853.175 83.75 L853.175 116.25" stroke-width="0.5" stroke="black" stroke-linejoin="round" fill="silver" fill-opacity="1"/>
<!-- !left !both --><path d="M848.075 83.75 L848.075 116.25" stroke-width="0.5" stroke="black" stroke-linejoin="round" fill="silver" fill-opacity="1"/>
<!-- DEFAULT FINISH: lined --><path d="M848.125 83.75 L853.125 83.75 L853.125 116.25 L848.125 116.25 Z" stroke-width="0.5" stroke="black" fill="url(#lined)"/>


<!-- renderPart: cylinder -->
<path d="M853.075 89.375 L854.425 89.375 L854.425 110.625 L853.075 110.625 L853.075 89.375" stroke-width="0" stroke="none" stroke-linejoin="round" fill="silver" fill-opacity="1"/>
<path d="M853.075 89.375 L854.425 89.375 M854.425 110.625 L853.075 110.625" stroke-width="0.5" stroke="black" stroke-linejoin="round" fill="silver" fill-opacity="1"/>
<!-- !right !both --><path d="M854.425 89.375 L854.425 110.625" stroke-width="0.5" stroke="black" stroke-linejoin="round" fill="silver" fill-opacity="1"/>
<!-- !left !both --><path d="M853.075 89.375 L853.075 110.625" stroke-width="0.5" stroke="black" stroke-linejoin="round" fill="silver" fill-opacity="1"/>

<!-- TAPER START: hexagonal -->
<path d="M 205.525 80.25 L 228.125 80.25 C 198.3125 85, 198.3125 95, 228.125 100 C 198.3125 105, 198.3125 115, 228.125 119.75 L 205.525 119.75 Z" stroke-width="0" stroke="0" stroke-linecap="round" fill-opacity="1" fill="silver" /><path d="M 228.125 80.5 C 198.3125 85, 198.3125 95, 228.125 100 C 198.3125 105, 198.3125 115, 228.125 119.45" stroke-width="1.5" stroke="gray" stroke-linecap="round" fill-opacity="0" fill="none" /><path d="M 228.125 80.5 C 198.3125 85, 198.3125 95, 228.125 100 C 198.3125 105, 198.3125 115, 228.125 119.5" stroke-width="0.5" stroke="black" stroke-opacity="0.5" stroke-linecap="round" fill-opacity="0" fill="none" /></g><text x="50%" y="160" font-size="1.1em" font-weight="bold" text-anchor="middle" dominant-baseline="middle">Copyright (c) // Synapticloop // The Mechanical Pencil Database (tmpdb)</text>
<text x="50%" y="180" font-size="1.1em" font-weight="bold" text-anchor="middle" dominant-baseline="middle">Licensed under Creative Commons Attribution-NonCommercial-ShareAlike 4.0 International</text>
<text x="990" y="190" font-size="0.5em" font-weight="bold" text-anchor="end" dominant-baseline="middle">SVGPencilRenderer</text>
</svg>