<svg xmlns="http://www.w3.org/2000/svg" width="1200" height="740">
 <pattern id="knurled-large" patternUnits="userSpaceOnUse" width="12" height="12">
<path stroke="dimgray" stroke-linecap="round" stroke-width="1" d="M 6,6 L 12,12"/>
<path stroke="dimgray" stroke-linecap="round" stroke-width="1" d="M 6,6 L 0,12"/>
<path stroke="gray" stroke-linecap="round" stroke-width="1" d="M 6,6 L 12,0" />
<path stroke="gray" stroke-linecap="round" stroke-width="1" d="M 6,6 L 0,0" />
</pattern><pattern id="knurled-small" patternUnits="userSpaceOnUse" width="4" height="4">
<path stroke="dimgray" stroke-linecap="round" stroke-width="1" d="M 2,2 L 4,4"/>
<path stroke="dimgray" stroke-linecap="round" stroke-width="1" d="M 2,2 L 0,4"/>
<path stroke="gray" stroke-linecap="round" stroke-width="1" d="M 2,2 L 4,0" />
<path stroke="gray" stroke-linecap="round" stroke-width="1" d="M 2,2 L 0,0" />
</pattern><pattern id="knurled" patternUnits="userSpaceOnUse" width="8" height="8">
<path stroke="dimgray" stroke-linecap="round" stroke-width="1" d="M 4,4 L 8,8"/>
<path stroke="dimgray" stroke-linecap="round" stroke-width="1" d="M 4,4 L 0,8"/>
<path stroke="gray" stroke-linecap="round" stroke-width="1" d="M 4,4 L 8,0" />
<path stroke="gray" stroke-linecap="round" stroke-width="1" d="M 4,4 L 0,0" />
</pattern><pattern id="lined" patternUnits="userSpaceOnUse" width="3" height="3">
<path stroke="dimgray" stroke-linecap="round" stroke-width="1" d="M 0,0 L 3,0"/>
</pattern><pattern id="ridged" patternUnits="userSpaceOnUse" width="3" height="3">
<path stroke="dimgray" stroke-linecap="round" stroke-width="1" d="M 0,0 L 0,3"/>
</pattern><pattern id="spring" patternUnits="userSpaceOnUse" width="8" height="60">
<path stroke="dimgray" stroke-linecap="round" stroke-width="2" d="M 1,1 L 8,60"/>
<path stroke="white" stroke-linecap="round" stroke-width="1" d="M 1,1 L 8,60"/>
</pattern><pattern id="tk12-grip-1" x="0" y="0" patternUnits="objectBoundingBox" width="1" height="1">
<path d="M 0 5 C 0 15 28 15 28 5 L 28 46 L 0 46 L 0 5" stroke-width="0.5" stroke="black" fill="none" />
<path d="M 56 5 C 56 15 84 15 84 5 L 84 46 L 56 46 L 56 5" stroke-width="0.5" stroke="black" fill="none" />
<path d="M 112 5 C 112 15 140 15 140 5 L 140 46 L 112 46 L 112 5" stroke-width="0.5" stroke="black" fill="none" />
<path d="M 28 41 C 28 31 56 31 56 41 L 56 0 L 28 0 L 28 41" stroke-width="0.5" stroke="black" fill="none" />
<path d="M 84 41 C 84 31 112 31 112 41 L 112 0 L 84 0 L 84 41" stroke-width="0.5" stroke="black" fill="none" />
<path d="M 140 41 C 140 31 168 31 168 41 L 168 0 L 140 0 L 140 41" stroke-width="0.5" stroke="black" fill="none" />
</pattern><pattern id="tk12-grip" x="0" y="0" patternUnits="objectBoundingBox" width="1" height="1">
<path d="M 0 5 C 0 15 28 15 28 5 L 28 46 L 0 46 L 0 5" stroke-width="1" stroke="black" fill="#656f74" />
<path d="M 56 5 C 56 15 84 15 84 5 L 84 46 L 56 46 L 56 5" stroke-width="1" stroke="black" fill="#656f74" />
<path d="M 112 5 C 112 15 140 15 140 5 L 140 46 L 112 46 L 112 5" stroke-width="1" stroke="black" fill="#656f74" />
<path d="M 28 41 C 28 31 56 31 56 41 L 56 0 L 28 0 L 28 41" stroke-width="1" stroke="black" fill="#656f74" />
<path d="M 84 41 C 84 31 112 31 112 41 L 112 0 L 84 0 L 84 41" stroke-width="1" stroke="black" fill="#656f74" />
<path d="M 140 41 C 140 31 168 31 168 41 L 168 0 L 140 0 L 140 41" stroke-width="1" stroke="black" fill="#656f74" />
</pattern><rect x="0" y="0" width="1200" height="740" fill="white" stroke="black" stroke-width="4" />
<rect x="2" y="2" width="1196" height="736" fill="white" stroke="dimgray" stroke-width="1" />
<g transform="rotate(0 0 0)">
<line x1="40" y1="300" x2="1160" y2="300" stroke-linecap="round" stroke="#5f5f5f" stroke-dasharray="2" stroke-width="1" />
<line x1="20" y1="300" x2="60" y2="300" stroke-linecap="round" stroke="#000000"  stroke-width="1" />
<line x1="40" y1="280" x2="40" y2="320" stroke="#000000" stroke-linecap="round"  stroke-width="1" />
<circle r="10" cx="40" cy="300" fill="white" fill-opacity="0" stroke="#000000" stroke-width="1"  />
<line x1="1140" y1="300" x2="1180" y2="300" stroke-linecap="round" stroke="#000000"  stroke-width="1" />
<line x1="1160" y1="280" x2="1160" y2="320" stroke="#000000" stroke-linecap="round"  stroke-width="1" />
<circle r="10" cx="1160" cy="300" fill="white" fill-opacity="0" stroke="#000000" stroke-width="1"  />
<line x1="40" y1="500" x2="1160" y2="500" stroke-linecap="round" stroke="#5f5f5f" stroke-dasharray="2" stroke-width="1" />
<line x1="20" y1="500" x2="60" y2="500" stroke-linecap="round" stroke="#000000"  stroke-width="1" />
<line x1="40" y1="480" x2="40" y2="520" stroke="#000000" stroke-linecap="round"  stroke-width="1" />
<circle r="10" cx="40" cy="500" fill="white" fill-opacity="0" stroke="#000000" stroke-width="1"  />
<line x1="1140" y1="500" x2="1180" y2="500" stroke-linecap="round" stroke="#000000"  stroke-width="1" />
<line x1="1160" y1="480" x2="1160" y2="520" stroke="#000000" stroke-linecap="round"  stroke-width="1" />
<circle r="10" cx="1160" cy="500" fill="white" fill-opacity="0" stroke="#000000" stroke-width="1"  />
<line x1="600" y1="90" x2="600" y2="650" stroke="#5f5f5f" stroke-linecap="round" stroke-dasharray="2" stroke-width="1" />
<line x1="580" y1="90" x2="620" y2="90" stroke-linecap="round" stroke="#000000"  stroke-width="1" />
<line x1="600" y1="70" x2="600" y2="110" stroke="#000000" stroke-linecap="round"  stroke-width="1" />
<circle r="10" cx="600" cy="90" fill="white" fill-opacity="0" stroke="#000000" stroke-width="1"  />
<line x1="580" y1="650" x2="620" y2="650" stroke-linecap="round" stroke="#000000"  stroke-width="1" />
<line x1="600" y1="630" x2="600" y2="670" stroke="#000000" stroke-linecap="round"  stroke-width="1" />
<circle r="10" cx="600" cy="650" fill="white" fill-opacity="0" stroke="#000000" stroke-width="1"  />
<text x="30" y="50" font-size="2.0em" font-weight="bold"> rOtring // Tikky (Model #: TK12)</text>
<line x1="243.75" y1="188.25" x2="243.75" y2="300" stroke="#cfcfcf" stroke-linecap="round"  stroke-width="1" />
<line x1="243.75" y1="180" x2="243.75" y2="300" stroke="#cfcfcf" stroke-linecap="round"  stroke-width="1" />
<line x1="263.75" y1="180" x2="263.75" y2="300" stroke="#cfcfcf" stroke-linecap="round"  stroke-width="1" />
<line x1="332.5" y1="180" x2="332.5" y2="300" stroke="#cfcfcf" stroke-linecap="round"  stroke-width="1" />
<line x1="332.5" y1="180" x2="332.5" y2="300" stroke="#cfcfcf" stroke-linecap="round"  stroke-width="1" />
<line x1="332.5" y1="180" x2="332.5" y2="300" stroke="#cfcfcf" stroke-linecap="round"  stroke-width="1" />
<line x1="332.5" y1="180" x2="332.5" y2="300" stroke="#cfcfcf" stroke-linecap="round"  stroke-width="1" />
<line x1="342.5" y1="180" x2="342.5" y2="300" stroke="#cfcfcf" stroke-linecap="round"  stroke-width="1" />
<line x1="527.5" y1="180" x2="527.5" y2="300" stroke="#cfcfcf" stroke-linecap="round"  stroke-width="1" />
<line x1="850" y1="180" x2="850" y2="300" stroke="#cfcfcf" stroke-linecap="round"  stroke-width="1" />
<line x1="647.5" y1="220" x2="647.5" y2="300" stroke="#cfcfcf" stroke-linecap="round"  stroke-width="1" />
<line x1="876.25" y1="220" x2="876.25" y2="300" stroke="#cfcfcf" stroke-linecap="round"  stroke-width="1" />
<line x1="873.75" y1="180" x2="873.75" y2="300" stroke="#cfcfcf" stroke-linecap="round"  stroke-width="1" />
<line x1="890" y1="180" x2="890" y2="300" stroke="#cfcfcf" stroke-linecap="round"  stroke-width="1" />
<line x1="956.25" y1="188.25" x2="956.25" y2="300" stroke="#cfcfcf" stroke-linecap="round"  stroke-width="1" />
<line x1="243.75" y1="169" x2="243.75" y2="191" stroke="black" stroke-width="1" />
<line x1="243.75" y1="180" x2="263.75" y2="180" stroke="black" stroke-width="1" />
<line x1="263.75" y1="169" x2="263.75" y2="191" stroke="black" stroke-width="1" />
<text x="253.75" y="161" font-size="1.2em" transform="rotate(-90, 253.75, 161)" font-weight="bold" text-anchor="start" dominant-baseline="central" fill="black"><tspan x="253.75" dy="0">4.00 mm lead guide</tspan></text>
<line x1="263.75" y1="169" x2="263.75" y2="191" stroke="black" stroke-width="1" />
<line x1="263.75" y1="180" x2="332.5" y2="180" stroke="black" stroke-width="1" />
<line x1="332.5" y1="169" x2="332.5" y2="191" stroke="black" stroke-width="1" />
<text x="298.125" y="161" font-size="1.2em" transform="rotate(-90, 286.125, 161)" font-weight="bold" text-anchor="start" dominant-baseline="central" fill="black"><tspan x="290.125" dy="0">13.75 mm</tspan><tspan x="290.125" dy="1em">tip</tspan></text>
<line x1="332.5" y1="169" x2="332.5" y2="191" stroke="black" stroke-width="1" />
<line x1="332.5" y1="180" x2="342.5" y2="180" stroke="black" stroke-width="1" />
<line x1="342.5" y1="169" x2="342.5" y2="191" stroke="black" stroke-width="1" />
<text x="337.5" y="161" font-size="1.2em" transform="rotate(-90, 337.5, 161)" font-weight="bold" text-anchor="start" dominant-baseline="central" fill="black"><tspan x="337.5" dy="0">2.00 mm head</tspan></text>
<line x1="342.5" y1="169" x2="342.5" y2="191" stroke="black" stroke-width="1" />
<line x1="342.5" y1="180" x2="527.5" y2="180" stroke="black" stroke-width="1" />
<line x1="527.5" y1="169" x2="527.5" y2="191" stroke="black" stroke-width="1" />
<text x="435" y="161" font-size="1.2em" transform="rotate(-90, 423, 161)" font-weight="bold" text-anchor="start" dominant-baseline="central" fill="black"><tspan x="427" dy="0">37.00 mm</tspan><tspan x="427" dy="1em">grip</tspan></text>
<line x1="527.5" y1="169" x2="527.5" y2="191" stroke="black" stroke-width="1" />
<line x1="527.5" y1="180" x2="850" y2="180" stroke="black" stroke-width="1" />
<line x1="850" y1="169" x2="850" y2="191" stroke="black" stroke-width="1" />
<text x="688.75" y="161" font-size="1.2em" transform="rotate(-90, 676.75, 161)" font-weight="bold" text-anchor="start" dominant-baseline="central" fill="black"><tspan x="680.75" dy="0">64.50 mm</tspan><tspan x="680.75" dy="1em">body</tspan></text>
<line x1="850" y1="169" x2="850" y2="191" stroke="black" stroke-width="1" />
<line x1="850" y1="180" x2="873.75" y2="180" stroke="black" stroke-width="1" />
<line x1="873.75" y1="169" x2="873.75" y2="191" stroke="black" stroke-width="1" />
<text x="861.875" y="161" font-size="1.2em" transform="rotate(-90, 861.875, 161)" font-weight="bold" text-anchor="start" dominant-baseline="central" fill="black"><tspan x="861.875" dy="0">4.75 mm clip</tspan></text>
<line x1="647.5" y1="209" x2="647.5" y2="231" stroke="black" stroke-width="1" />
<line x1="647.5" y1="220" x2="876.25" y2="220" stroke="black" stroke-width="1" />
<line x1="876.25" y1="209" x2="876.25" y2="231" stroke="black" stroke-width="1" />
<text x="761.875" y="212" font-weight="bold" font-size="1.2em" stroke="white" stroke-width="0.25" text-anchor="middle" dominant-baseline="middle" fill="black"><tspan x="753.875" dy="0">45.75 mm</tspan><tspan x="753.875" dy="1em">clip (extra)</tspan></text>
<line x1="873.75" y1="169" x2="873.75" y2="191" stroke="black" stroke-width="1" />
<line x1="873.75" y1="180" x2="890" y2="180" stroke="black" stroke-width="1" />
<line x1="890" y1="169" x2="890" y2="191" stroke="black" stroke-width="1" />
<text x="881.875" y="161" font-size="1.2em" transform="rotate(-90, 881.875, 161)" font-weight="bold" text-anchor="start" dominant-baseline="central" fill="black"><tspan x="881.875" dy="0">3.25 mm tail</tspan></text>
<line x1="890" y1="169" x2="890" y2="191" stroke="black" stroke-width="1" />
<line x1="890" y1="180" x2="956.25" y2="180" stroke="black" stroke-width="1" />
<line x1="956.25" y1="169" x2="956.25" y2="191" stroke="black" stroke-width="1" />
<text x="923.125" y="161" font-size="1.2em" transform="rotate(-90, 911.125, 161)" font-weight="bold" text-anchor="start" dominant-baseline="central" fill="black"><tspan x="915.125" dy="0">13.25 mm</tspan><tspan x="915.125" dy="1em">cap</tspan></text>


<!-- renderSideComponent: lead guide -->


<!-- renderPart: cylinder -->
<path d="M243.7 296.875 L263.8 296.875 L263.8 303.125 L243.7 303.125 L243.7 296.875" stroke-width="0" stroke="none" stroke-linejoin="round" fill="white" fill-opacity="1"/>
<path d="M243.7 296.875 L263.8 296.875 M263.8 303.125 L243.7 303.125" stroke-width="0.5" stroke="black" stroke-linejoin="round" fill="white" fill-opacity="1"/>
<!-- !right !both --><path d="M263.8 296.875 L263.8 303.125" stroke-width="0.5" stroke="black" stroke-linejoin="round" fill="white" fill-opacity="1"/>
<!-- !left !both --><path d="M243.7 296.875 L243.7 303.125" stroke-width="0.5" stroke="black" stroke-linejoin="round" fill="white" fill-opacity="1"/>


<!-- renderSideComponent: tip -->


<!-- renderPart: cone -->
<path d="M263.7 293.75 L332.55 276.875 L332.55 323.125 L263.7 306.25 L263.7 293.75" stroke-width="0" stroke="none" stroke-linejoin="round" fill="white" fill-opacity="1"/>
<path d="M263.7 293.75 L332.55 276.875 M332.55 323.125 L263.7 306.25" stroke-width="0.5" stroke="black" stroke-linejoin="round" fill="white" fill-opacity="1"/>
<!-- !right !both --><path d="M332.55 276.875 L332.55 323.125" stroke-width="0.5" stroke="black" stroke-linejoin="round" fill="white" fill-opacity="1"/>
<!-- !left !both --><path d="M263.7 293.75 L263.7 306.25" stroke-width="0.5" stroke="black" stroke-linejoin="round" fill="white" fill-opacity="1"/>


<!-- renderSideComponent: shaft -->


<!-- renderSideComponent: eraser clip -->


<!-- renderSideComponent: eraser -->


<!-- renderSideComponent: head -->


<!-- renderPart: cylinder -->
<path d="M332.45 276.875 L342.55 276.875 L342.55 323.125 L332.45 323.125 L332.45 276.875" stroke-width="0" stroke="none" stroke-linejoin="round" fill="white" fill-opacity="1"/>
<path d="M332.45 276.875 L342.55 276.875 M342.55 323.125 L332.45 323.125" stroke-width="0.5" stroke="black" stroke-linejoin="round" fill="white" fill-opacity="1"/>
<!-- !right !both --><path d="M342.55 276.875 L342.55 323.125" stroke-width="0.5" stroke="black" stroke-linejoin="round" fill="white" fill-opacity="1"/>
<!-- !left !both --><path d="M332.45 276.875 L332.45 323.125" stroke-width="0.5" stroke="black" stroke-linejoin="round" fill="white" fill-opacity="1"/>


<!-- renderSideComponent: grip -->


<!-- renderPart: cylinder -->
<path d="M342.45 276.875 L347.55 276.875 L347.55 323.125 L342.45 323.125 L342.45 276.875" stroke-width="0" stroke="none" stroke-linejoin="round" fill="white" fill-opacity="1"/>
<path d="M342.45 276.875 L347.55 276.875 M347.55 323.125 L342.45 323.125" stroke-width="0.5" stroke="black" stroke-linejoin="round" fill="white" fill-opacity="1"/>
<!-- !right !both --><path d="M347.55 276.875 L347.55 323.125" stroke-width="0.5" stroke="black" stroke-linejoin="round" fill="white" fill-opacity="1"/>
<!-- !left !both --><path d="M342.45 276.875 L342.45 323.125" stroke-width="0.5" stroke="black" stroke-linejoin="round" fill="white" fill-opacity="1"/>


<!-- renderPart: cylinder -->
<path d="M347.45 276.875 L516.3 276.875 L516.3 323.125 L347.45 323.125 L347.45 276.875" stroke-width="0" stroke="none" stroke-linejoin="round" fill="white" fill-opacity="1"/>
<path d="M347.45 276.875 L516.3 276.875 M516.3 323.125 L347.45 323.125" stroke-width="0.5" stroke="black" stroke-linejoin="round" fill="white" fill-opacity="1"/>
<!-- !right !both --><path d="M516.3 276.875 L516.3 323.125" stroke-width="0.5" stroke="black" stroke-linejoin="round" fill="white" fill-opacity="1"/>
<!-- !left !both --><path d="M347.45 276.875 L347.45 323.125" stroke-width="0.5" stroke="black" stroke-linejoin="round" fill="white" fill-opacity="1"/>
<!-- CUSTOM FINISH: tk12-grip-1 --><path d="M347.5 276.875 L516.25 276.875 L516.25 323.125 L347.5 323.125 Z" stroke-width="0.5" stroke="black" fill="url(#tk12-grip-1)"/>


<!-- renderPart: cylinder -->
<path d="M516.2 276.875 L527.55 276.875 L527.55 323.125 L516.2 323.125 L516.2 276.875" stroke-width="0" stroke="none" stroke-linejoin="round" fill="white" fill-opacity="1"/>
<path d="M516.2 276.875 L527.55 276.875 M527.55 323.125 L516.2 323.125" stroke-width="0.5" stroke="black" stroke-linejoin="round" fill="white" fill-opacity="1"/>
<!-- !right !both --><path d="M527.55 276.875 L527.55 323.125" stroke-width="0.5" stroke="black" stroke-linejoin="round" fill="white" fill-opacity="1"/>
<!-- !left !both --><path d="M516.2 276.875 L516.2 323.125" stroke-width="0.5" stroke="black" stroke-linejoin="round" fill="white" fill-opacity="1"/>


<!-- renderSideComponent: body -->


<!-- renderPart: cylinder -->
<path d="M527.45 276.875 L538.8 276.875 L538.8 323.125 L527.45 323.125 L527.45 276.875" stroke-width="0" stroke="none" stroke-linejoin="round" fill="white" fill-opacity="1"/>
<path d="M527.45 276.875 L538.8 276.875 M538.8 323.125 L527.45 323.125" stroke-width="0.5" stroke="black" stroke-linejoin="round" fill="white" fill-opacity="1"/>
<!-- !right !both --><path d="M538.8 276.875 L538.8 323.125" stroke-width="0.5" stroke="black" stroke-linejoin="round" fill="white" fill-opacity="1"/>
<!-- !left !both --><path d="M527.45 276.875 L527.45 323.125" stroke-width="0.5" stroke="black" stroke-linejoin="round" fill="white" fill-opacity="1"/>


<!-- renderPart: cylinder -->
<path d="M538.7 276.25 L550.05 276.25 L550.05 323.75 L538.7 323.75 L538.7 276.25" stroke-width="0" stroke="none" stroke-linejoin="round" fill="white" fill-opacity="1"/>
<path d="M538.7 276.25 L550.05 276.25 M550.05 323.75 L538.7 323.75" stroke-width="0.5" stroke="black" stroke-linejoin="round" fill="white" fill-opacity="1"/>
<!-- !right !both --><path d="M550.05 276.25 L550.05 323.75" stroke-width="0.5" stroke="black" stroke-linejoin="round" fill="white" fill-opacity="1"/>
<!-- !left !both --><path d="M538.7 276.25 L538.7 323.75" stroke-width="0.5" stroke="black" stroke-linejoin="round" fill="white" fill-opacity="1"/>


<!-- renderPart: cylinder -->
<path d="M549.95 276.875 L850.05 276.875 L850.05 323.125 L549.95 323.125 L549.95 276.875" stroke-width="0" stroke="none" stroke-linejoin="round" fill="white" fill-opacity="1"/>
<path d="M549.95 276.875 L850.05 276.875 M850.05 323.125 L549.95 323.125" stroke-width="0.5" stroke="black" stroke-linejoin="round" fill="white" fill-opacity="1"/>
<!-- !right !both --><path d="M850.05 276.875 L850.05 323.125" stroke-width="0.5" stroke="black" stroke-linejoin="round" fill="white" fill-opacity="1"/>
<!-- !left !both --><path d="M549.95 276.875 L549.95 323.125" stroke-width="0.5" stroke="black" stroke-linejoin="round" fill="white" fill-opacity="1"/>


<!-- renderSideComponent: clip -->
<path d="M647.5 270 Q682.5 286 707.5 265.5 Z" stroke-width="4" stroke="black" fill="dimgray" stroke-linecap="round" />
<path d="M647.5 268.75 Q766.25 256 871.25 268.75" stroke-width="6" stroke="black" fill="none" stroke-linecap="round" />
<rect x="851.75" y="270" width="20.25" height="8.75" stroke-width="4" stroke="black" fill="dimgray" stroke-linecap="round" />


<!-- renderPart: cylinder -->
<path d="M849.95 276.875 L873.8 276.875 L873.8 323.125 L849.95 323.125 L849.95 276.875" stroke-width="0" stroke="none" stroke-linejoin="round" fill="white" fill-opacity="1"/>
<path d="M849.95 276.875 L873.8 276.875 M873.8 323.125 L849.95 323.125" stroke-width="0.5" stroke="black" stroke-linejoin="round" fill="white" fill-opacity="1"/>
<!-- !right !both --><path d="M873.8 276.875 L873.8 323.125" stroke-width="0.5" stroke="black" stroke-linejoin="round" fill="white" fill-opacity="1"/>
<!-- !left !both --><path d="M849.95 276.875 L849.95 323.125" stroke-width="0.5" stroke="black" stroke-linejoin="round" fill="white" fill-opacity="1"/>
<path d="M647.5 270 Q682.5 285 707.5 265.5 Z" stroke-width="3" stroke="white" fill="white" stroke-linecap="round" />
<rect x="647.5" y="270" width="60" height="-14.5" stroke-width="3" stroke="white" fill="white" stroke-linecap="round" />
<path d="M647.5 268.75 Q766.25 256 871.25 268.75" stroke-width="5" stroke="white" fill="none" stroke-linecap="round" />
<rect x="851.75" y="270" width="20.25" height="8.75" stroke-width="3" stroke="white" fill="white" stroke-linecap="round" />


<!-- renderSideComponent: tail -->


<!-- renderPart: cylinder-rectangle -->
<path d="M873.7 276.875 L890.05 276.875 L902.55 323.125 L873.7 323.125 L873.7 276.875" stroke-width="0" stroke="none" stroke-linejoin="round" fill="white" fill-opacity="1"/>
<path d="M873.7 276.875 L890.05 276.875 M902.55 323.125 L873.7 323.125" stroke-width="0.5" stroke="black" stroke-linejoin="round" fill="white" fill-opacity="1"/>
<!-- !right !both --><path d="M890.05 276.875 L902.55 323.125" stroke-width="0.5" stroke="black" stroke-linejoin="round" fill="white" fill-opacity="1"/>
<!-- !left !both --><path d="M873.7 276.875 L873.7 323.125" stroke-width="0.5" stroke="black" stroke-linejoin="round" fill="white" fill-opacity="1"/>


<!-- renderSideComponent: cap -->


<!-- renderPart: cylinder -->
<path d="M892.45 285.625 L951.3 285.625 L951.3 314.375 L900.2 314.375 L892.45 285.625" stroke-width="0" stroke="none" stroke-linejoin="round" fill="white" fill-opacity="1"/>
<path d="M892.45 285.625 L951.3 285.625 M951.3 314.375 L900.2 314.375" stroke-width="0.5" stroke="black" stroke-linejoin="round" fill="white" fill-opacity="1"/>
<!-- !right !both --><path d="M951.3 285.625 L951.3 314.375" stroke-width="0.5" stroke="black" stroke-linejoin="round" fill="white" fill-opacity="1"/>


<!-- renderPart: concave -->
<path d="M951.25 285.625 Q956.25 300 951.25 314.375" stroke-width="0.5" stroke="black" stroke-linejoin="round" fill="white" fill-opacity="1"/>


<!-- renderPart: cylinder -->
<path d="M322.45 488.75 L332.55 488.75 L332.55 511.25 L322.45 511.25 L322.45 488.75" stroke-width="0" stroke="none" stroke-linejoin="round" fill="white" fill-opacity="1"/>
<path d="M322.45 488.75 L332.55 488.75 M332.55 511.25 L322.45 511.25" stroke-width="0.5" stroke="black" stroke-linejoin="round" fill="white" fill-opacity="1"/>
<!-- !right !both --><path d="M332.55 488.75 L332.55 511.25" stroke-width="0.5" stroke="black" stroke-linejoin="round" fill="white" fill-opacity="1"/>
<!-- !left !both --><path d="M322.45 488.75 L322.45 511.25" stroke-width="0.5" stroke="black" stroke-linejoin="round" fill="white" fill-opacity="1"/>


<!-- renderPart: cylinder -->
<path d="M332.45 488.125 L338.8 488.125 L338.8 511.875 L332.45 511.875 L332.45 488.125" stroke-width="0" stroke="none" stroke-linejoin="round" fill="white" fill-opacity="1"/>
<path d="M332.45 488.125 L338.8 488.125 M338.8 511.875 L332.45 511.875" stroke-width="0.5" stroke="black" stroke-linejoin="round" fill="white" fill-opacity="1"/>
<!-- !right !both --><path d="M338.8 488.125 L338.8 511.875" stroke-width="0.5" stroke="black" stroke-linejoin="round" fill="white" fill-opacity="1"/>
<!-- !left !both --><path d="M332.45 488.125 L332.45 511.875" stroke-width="0.5" stroke="black" stroke-linejoin="round" fill="white" fill-opacity="1"/>
<line x1="332.5" y1="488.125" x2="337.5" y2="511.875" stroke="dimgray" stroke-linecap="round" stroke-width="2" />
<line x1="332.5" y1="488.125" x2="337.5" y2="511.875" stroke="[object Object]" stroke-linecap="round" stroke-width="1" />


<!-- renderPart: cylinder -->
<path d="M338.7 488.125 L357.55 488.125 L357.55 511.875 L338.7 511.875 L338.7 488.125" stroke-width="0" stroke="none" stroke-linejoin="round" fill="white" fill-opacity="1"/>
<path d="M338.7 488.125 L357.55 488.125 M357.55 511.875 L338.7 511.875" stroke-width="0.5" stroke="black" stroke-linejoin="round" fill="white" fill-opacity="1"/>
<!-- !right !both --><path d="M357.55 488.125 L357.55 511.875" stroke-width="0.5" stroke="black" stroke-linejoin="round" fill="white" fill-opacity="1"/>
<!-- !left !both --><path d="M338.7 488.125 L338.7 511.875" stroke-width="0.5" stroke="black" stroke-linejoin="round" fill="white" fill-opacity="1"/>
<line x1="338.75" y1="488.125" x2="343.75" y2="511.875" stroke="dimgray" stroke-linecap="round" stroke-width="2" />
<line x1="338.75" y1="488.125" x2="343.75" y2="511.875" stroke="[object Object]" stroke-linecap="round" stroke-width="1" />
<line x1="343.75" y1="488.125" x2="348.75" y2="511.875" stroke="dimgray" stroke-linecap="round" stroke-width="2" />
<line x1="343.75" y1="488.125" x2="348.75" y2="511.875" stroke="[object Object]" stroke-linecap="round" stroke-width="1" />
<line x1="348.75" y1="488.125" x2="353.75" y2="511.875" stroke="dimgray" stroke-linecap="round" stroke-width="2" />
<line x1="348.75" y1="488.125" x2="353.75" y2="511.875" stroke="[object Object]" stroke-linecap="round" stroke-width="1" />


<!-- renderPart: cylinder -->
<path d="M357.45 482.5 L378.8 482.5 L378.8 517.5 L357.45 517.5 L357.45 482.5" stroke-width="0" stroke="none" stroke-linejoin="round" fill="white" fill-opacity="1"/>
<path d="M357.45 482.5 L378.8 482.5 M378.8 517.5 L357.45 517.5" stroke-width="0.5" stroke="black" stroke-linejoin="round" fill="white" fill-opacity="1"/>
<!-- !right !both --><path d="M378.8 482.5 L378.8 517.5" stroke-width="0.5" stroke="black" stroke-linejoin="round" fill="white" fill-opacity="1"/>
<!-- !left !both --><path d="M357.45 482.5 L357.45 517.5" stroke-width="0.5" stroke="black" stroke-linejoin="round" fill="white" fill-opacity="1"/>
<line x1="357.5" y1="482.5" x2="362.5" y2="517.5" stroke="dimgray" stroke-linecap="round" stroke-width="2" />
<line x1="357.5" y1="482.5" x2="362.5" y2="517.5" stroke="[object Object]" stroke-linecap="round" stroke-width="1" />
<line x1="362.5" y1="482.5" x2="367.5" y2="517.5" stroke="dimgray" stroke-linecap="round" stroke-width="2" />
<line x1="362.5" y1="482.5" x2="367.5" y2="517.5" stroke="[object Object]" stroke-linecap="round" stroke-width="1" />
<line x1="367.5" y1="482.5" x2="372.5" y2="517.5" stroke="dimgray" stroke-linecap="round" stroke-width="2" />
<line x1="367.5" y1="482.5" x2="372.5" y2="517.5" stroke="[object Object]" stroke-linecap="round" stroke-width="1" />
<line x1="372.5" y1="482.5" x2="377.5" y2="517.5" stroke="dimgray" stroke-linecap="round" stroke-width="2" />
<line x1="372.5" y1="482.5" x2="377.5" y2="517.5" stroke="[object Object]" stroke-linecap="round" stroke-width="1" />


<!-- renderPart: cylinder -->
<path d="M378.7 484.375 L448.8 484.375 L448.8 515.625 L378.7 515.625 L378.7 484.375" stroke-width="0" stroke="none" stroke-linejoin="round" fill="white" fill-opacity="1"/>
<path d="M378.7 484.375 L448.8 484.375 M448.8 515.625 L378.7 515.625" stroke-width="0.5" stroke="black" stroke-linejoin="round" fill="white" fill-opacity="1"/>
<!-- !right !both --><path d="M448.8 484.375 L448.8 515.625" stroke-width="0.5" stroke="black" stroke-linejoin="round" fill="white" fill-opacity="1"/>
<!-- !left !both --><path d="M378.7 484.375 L378.7 515.625" stroke-width="0.5" stroke="black" stroke-linejoin="round" fill="white" fill-opacity="1"/>


<!-- renderPart: cylinder -->
<path d="M448.7 487.5 L851.3 487.5 L851.3 512.5 L448.7 512.5 L448.7 487.5" stroke-width="0" stroke="none" stroke-linejoin="round" fill="white" fill-opacity="1"/>
<path d="M448.7 487.5 L851.3 487.5 M851.3 512.5 L448.7 512.5" stroke-width="0.5" stroke="black" stroke-linejoin="round" fill="white" fill-opacity="1"/>
<!-- !right !both --><path d="M851.3 487.5 L851.3 512.5" stroke-width="0.5" stroke="black" stroke-linejoin="round" fill="white" fill-opacity="1"/>
<!-- !left !both --><path d="M448.7 487.5 L448.7 512.5" stroke-width="0.5" stroke="black" stroke-linejoin="round" fill="white" fill-opacity="1"/>


<!-- renderPart: cylinder -->
<path d="M851.2 486.25 L857.55 486.25 L857.55 513.75 L851.2 513.75 L851.2 486.25" stroke-width="0" stroke="none" stroke-linejoin="round" fill="white" fill-opacity="1"/>
<path d="M851.2 486.25 L857.55 486.25 M857.55 513.75 L851.2 513.75" stroke-width="0.5" stroke="black" stroke-linejoin="round" fill="white" fill-opacity="1"/>
<!-- !right !both --><path d="M857.55 486.25 L857.55 513.75" stroke-width="0.5" stroke="black" stroke-linejoin="round" fill="white" fill-opacity="1"/>
<!-- !left !both --><path d="M851.2 486.25 L851.2 513.75" stroke-width="0.5" stroke="black" stroke-linejoin="round" fill="white" fill-opacity="1"/>


<!-- renderPart: cylinder -->
<path d="M857.45 487.5 L901.3 487.5 L901.3 512.5 L857.45 512.5 L857.45 487.5" stroke-width="0" stroke="none" stroke-linejoin="round" fill="white" fill-opacity="1"/>
<path d="M857.45 487.5 L901.3 487.5 M901.3 512.5 L857.45 512.5" stroke-width="0.5" stroke="black" stroke-linejoin="round" fill="white" fill-opacity="1"/>
<!-- !right !both --><path d="M901.3 487.5 L901.3 512.5" stroke-width="0.5" stroke="black" stroke-linejoin="round" fill="white" fill-opacity="1"/>
<!-- !left !both --><path d="M857.45 487.5 L857.45 512.5" stroke-width="0.5" stroke="black" stroke-linejoin="round" fill="white" fill-opacity="1"/>


<!-- renderPart: cylinder -->
<path d="M1469.95 490 L1491.3 490 L1491.3 510 L1469.95 510 L1469.95 490" stroke-width="0" stroke="none" stroke-linejoin="round" fill="white" fill-opacity="1"/>
<path d="M1469.95 490 L1491.3 490 M1491.3 510 L1469.95 510" stroke-width="0.5" stroke="black" stroke-linejoin="round" fill="white" fill-opacity="1"/>
<!-- !left !both --><path d="M1469.95 490 L1469.95 510" stroke-width="0.5" stroke="black" stroke-linejoin="round" fill="white" fill-opacity="1"/>


<!-- renderPart: cylinder -->
<path d="M922.45 490 L928.8 490 L928.8 510 L922.45 510 L922.45 490" stroke-width="0" stroke="none" stroke-linejoin="round" fill="white" fill-opacity="1"/>
<path d="M922.45 490 L928.8 490 M928.8 510 L922.45 510" stroke-width="0.5" stroke="black" stroke-linejoin="round" fill="white" fill-opacity="1"/>
<!-- DEFAULT FINISH: lined --><path d="M922.5 490 L928.75 490 L928.75 510 L922.5 510 Z" stroke-width="0.5" stroke="black" fill="url(#lined)"/>


<!-- renderPart: cylinder -->
<path d="M928.7 490 L935.05 490 L935.05 510 L928.7 510 L928.7 490" stroke-width="0" stroke="none" stroke-linejoin="round" fill="white" fill-opacity="1"/>
<path d="M928.7 490 L935.05 490 M935.05 510 L928.7 510" stroke-width="0.5" stroke="black" stroke-linejoin="round" fill="white" fill-opacity="1"/>
<!-- !right !both --><path d="M935.05 490 L935.05 510" stroke-width="0.5" stroke="black" stroke-linejoin="round" fill="white" fill-opacity="1"/>


<!-- renderPart: cylinder -->
<path d="M934.95 490 L945.05 490 L945.05 510 L934.95 510 L934.95 490" stroke-width="0" stroke="none" stroke-linejoin="round" fill="white" fill-opacity="1"/>
<path d="M934.95 490 L945.05 490 M945.05 510 L934.95 510" stroke-width="0.5" stroke="black" stroke-linejoin="round" fill="white" fill-opacity="1"/>
<!-- !right !both --><path d="M945.05 490 L945.05 510" stroke-width="0.5" stroke="black" stroke-linejoin="round" fill="white" fill-opacity="1"/>
<!-- !left !both --><path d="M934.95 490 L934.95 510" stroke-width="0.5" stroke="black" stroke-linejoin="round" fill="white" fill-opacity="1"/>
<!-- DEFAULT FINISH: lined --><path d="M935 490 L945 490 L945 510 L935 510 Z" stroke-width="0.5" stroke="black" fill="url(#lined)"/>


<!-- renderPart: cylinder -->
<path d="M1523.7 490.625 L1557.55 490.625 L1557.55 509.375 L1523.7 509.375 L1523.7 490.625" stroke-width="0" stroke="none" stroke-linejoin="round" fill="white" fill-opacity="1"/>
<path d="M1523.7 490.625 L1557.55 490.625 M1557.55 509.375 L1523.7 509.375" stroke-width="0.5" stroke="black" stroke-linejoin="round" fill="white" fill-opacity="1"/>
<!-- !right !both --><path d="M1557.55 490.625 L1557.55 509.375" stroke-width="0.5" stroke="black" stroke-linejoin="round" fill="white" fill-opacity="1"/>
<!-- !left !both --><path d="M1523.7 490.625 L1523.7 509.375" stroke-width="0.5" stroke="black" stroke-linejoin="round" fill="white" fill-opacity="1"/>


<!-- renderPart: cylinder -->
<path d="M978.7 490 L996.3 490 L996.3 510 L978.7 510 L978.7 490" stroke-width="0" stroke="none" stroke-linejoin="round" fill="white" fill-opacity="1"/>
<path d="M978.7 490 L996.3 490 M996.3 510 L978.7 510" stroke-width="0.5" stroke="black" stroke-linejoin="round" fill="white" fill-opacity="1"/>
<!-- !right !both --><path d="M996.3 490 L996.3 510" stroke-width="0.5" stroke="black" stroke-linejoin="round" fill="white" fill-opacity="1"/>
<!-- !left !both --><path d="M978.7 490 L978.7 510" stroke-width="0.5" stroke="black" stroke-linejoin="round" fill="white" fill-opacity="1"/>
</g><text x="50%" y="700" font-size="1.1em" font-weight="bold" text-anchor="middle" dominant-baseline="middle">Copyright (c) // Synapticloop // The Mechanical Pencil Database (tmpdb)</text>
<text x="50%" y="720" font-size="1.1em" font-weight="bold" text-anchor="middle" dominant-baseline="middle">Licensed under Creative Commons Attribution-NonCommercial-ShareAlike 4.0 International</text>
<text x="1190" y="730" font-size="0.5em" font-weight="bold" text-anchor="end" dominant-baseline="middle">SVGTechnicalComponentRenderer</text>
</svg>