<svg xmlns="http://www.w3.org/2000/svg" width="1500" height="800">
 <pattern id="knurled-large" patternUnits="userSpaceOnUse" width="12" height="12">
<path stroke="dimgray" stroke-linecap="round" stroke-width="1" d="M 6,6 L 12,12"/>
<path stroke="dimgray" stroke-linecap="round" stroke-width="1" d="M 6,6 L 0,12"/>
<path stroke="gray" stroke-linecap="round" stroke-width="1" d="M 6,6 L 12,0" />
<path stroke="gray" stroke-linecap="round" stroke-width="1" d="M 6,6 L 0,0" />
</pattern><pattern id="knurled-small" patternUnits="userSpaceOnUse" width="4" height="4">
<path stroke="dimgray" stroke-linecap="round" stroke-width="1" d="M 2,2 L 4,4"/>
<path stroke="dimgray" stroke-linecap="round" stroke-width="1" d="M 2,2 L 0,4"/>
<path stroke="gray" stroke-linecap="round" stroke-width="1" d="M 2,2 L 4,0" />
<path stroke="gray" stroke-linecap="round" stroke-width="1" d="M 2,2 L 0,0" />
</pattern><pattern id="knurled" patternUnits="userSpaceOnUse" width="8" height="8">
<path stroke="dimgray" stroke-linecap="round" stroke-width="1" d="M 4,4 L 8,8"/>
<path stroke="dimgray" stroke-linecap="round" stroke-width="1" d="M 4,4 L 0,8"/>
<path stroke="gray" stroke-linecap="round" stroke-width="1" d="M 4,4 L 8,0" />
<path stroke="gray" stroke-linecap="round" stroke-width="1" d="M 4,4 L 0,0" />
</pattern><pattern id="lined" patternUnits="userSpaceOnUse" width="3" height="3">
<path stroke="dimgray" stroke-linecap="round" stroke-width="1" d="M 0,0 L 3,0"/>
</pattern><pattern id="ridged" patternUnits="userSpaceOnUse" width="3" height="3">
<path stroke="dimgray" stroke-linecap="round" stroke-width="1" d="M 0,0 L 0,3"/>
</pattern><pattern id="spring" patternUnits="userSpaceOnUse" width="8" height="60">
<path stroke="dimgray" stroke-linecap="round" stroke-width="2" d="M 1,1 L 8,60"/>
<path stroke="white" stroke-linecap="round" stroke-width="1" d="M 1,1 L 8,60"/>
</pattern><rect x="0" y="0" width="1500" height="800" fill="white" stroke="black" stroke-width="4" />
<rect x="2" y="2" width="1496" height="796" fill="white" stroke="dimgray" stroke-width="1" />
<g transform="rotate(0 0 0)">
<line x1="40" y1="500" x2="1460" y2="500" stroke-linecap="round" stroke="#5f5f5f" stroke-dasharray="2" stroke-width="1" />
<line x1="20" y1="500" x2="60" y2="500" stroke-linecap="round" stroke="#000000"  stroke-width="1" />
<line x1="40" y1="480" x2="40" y2="520" stroke="#000000" stroke-linecap="round"  stroke-width="1" />
<circle r="10" cx="40" cy="500" fill="white" fill-opacity="0" stroke="#000000" stroke-width="1"  />
<line x1="1440" y1="500" x2="1480" y2="500" stroke-linecap="round" stroke="#000000"  stroke-width="1" />
<line x1="1460" y1="480" x2="1460" y2="520" stroke="#000000" stroke-linecap="round"  stroke-width="1" />
<circle r="10" cx="1460" cy="500" fill="white" fill-opacity="0" stroke="#000000" stroke-width="1"  />
<line x1="750" y1="90" x2="750" y2="710" stroke="#5f5f5f" stroke-linecap="round" stroke-dasharray="2" stroke-width="1" />
<line x1="730" y1="90" x2="770" y2="90" stroke-linecap="round" stroke="#000000"  stroke-width="1" />
<line x1="750" y1="70" x2="750" y2="110" stroke="#000000" stroke-linecap="round"  stroke-width="1" />
<circle r="10" cx="750" cy="90" fill="white" fill-opacity="0" stroke="#000000" stroke-width="1"  />
<line x1="730" y1="710" x2="770" y2="710" stroke-linecap="round" stroke="#000000"  stroke-width="1" />
<line x1="750" y1="690" x2="750" y2="730" stroke="#000000" stroke-linecap="round"  stroke-width="1" />
<circle r="10" cx="750" cy="710" fill="white" fill-opacity="0" stroke="#000000" stroke-width="1"  />
<line x1="160" y1="150" x2="160" y2="710" stroke="#5f5f5f" stroke-linecap="round" stroke-dasharray="2" stroke-width="1" />
<line x1="140" y1="150" x2="180" y2="150" stroke-linecap="round" stroke="#000000"  stroke-width="1" />
<line x1="160" y1="130" x2="160" y2="170" stroke="#000000" stroke-linecap="round"  stroke-width="1" />
<circle r="10" cx="160" cy="150" fill="white" fill-opacity="0" stroke="#000000" stroke-width="1"  />
<line x1="140" y1="710" x2="180" y2="710" stroke-linecap="round" stroke="#000000"  stroke-width="1" />
<line x1="160" y1="690" x2="160" y2="730" stroke="#000000" stroke-linecap="round"  stroke-width="1" />
<circle r="10" cx="160" cy="710" fill="white" fill-opacity="0" stroke="#000000" stroke-width="1"  />
<line x1="1400" y1="150" x2="1400" y2="710" stroke="#5f5f5f" stroke-linecap="round" stroke-dasharray="2" stroke-width="1" />
<line x1="1380" y1="150" x2="1420" y2="150" stroke-linecap="round" stroke="#000000"  stroke-width="1" />
<line x1="1400" y1="130" x2="1400" y2="170" stroke="#000000" stroke-linecap="round"  stroke-width="1" />
<circle r="10" cx="1400" cy="150" fill="white" fill-opacity="0" stroke="#000000" stroke-width="1"  />
<line x1="1380" y1="710" x2="1420" y2="710" stroke-linecap="round" stroke="#000000"  stroke-width="1" />
<line x1="1400" y1="690" x2="1400" y2="730" stroke="#000000" stroke-linecap="round"  stroke-width="1" />
<circle r="10" cx="1400" cy="710" fill="white" fill-opacity="0" stroke="#000000" stroke-width="1"  />
<text x="30" y="50" font-size="2.0em" font-weight="bold"> Flair // Tri-o </text>
<text x="30" y="80" font-size="1.1em"> Flair TIR-O 2.0</text>
<text x="30" y="100" font-size="1.1em"> Lead size: 2 mm</text>
<text x="1480" y="30" font-size="1.6em" font-weight="bold" text-anchor="end" dominant-baseline="central">Colour variants of the body</text>
<rect x="1440" y="55" width="40" rx="50%" ry="50%" height="40" stroke="black" stroke-width="2" fill="#01bfd0" fill-opacity="1"/>
<text x="1460" y="100" transform="rotate(-90, 1460, 100)" font-size="1.2em" font-weight="bold" text-anchor="end" dominant-baseline="central">light blue</text>
<rect x="1380" y="55" width="40" rx="50%" ry="50%" height="40" stroke="black" stroke-width="2" fill="#c42330" fill-opacity="1"/>
<text x="1400" y="100" transform="rotate(-90, 1400, 100)" font-size="1.2em" font-weight="bold" text-anchor="end" dominant-baseline="central">red</text>
<rect x="1320" y="55" width="40" rx="50%" ry="50%" height="40" stroke="black" stroke-width="2" fill="#f4e005" fill-opacity="1"/>
<text x="1340" y="100" transform="rotate(-90, 1340, 100)" font-size="1.2em" font-weight="bold" text-anchor="end" dominant-baseline="central">yellow</text>
<rect x="1260" y="55" width="40" rx="50%" ry="50%" height="40" stroke="black" stroke-width="2" fill="#9ba2aa" fill-opacity="1"/>
<text x="1280" y="100" transform="rotate(-90, 1280, 100)" font-size="1.2em" font-weight="bold" text-anchor="end" dominant-baseline="central">gray</text>
<rect x="1200" y="55" width="40" rx="50%" ry="50%" height="40" stroke="black" stroke-width="2" fill="#1c51a1" fill-opacity="1"/>
<text x="1220" y="100" transform="rotate(-90, 1220, 100)" font-size="1.2em" font-weight="bold" text-anchor="end" dominant-baseline="central">blue</text>
<text x="30" y="136" font-size="1.2em" font-weight="bold" text-anchor="start" dominant-baseline="central">Materials:</text>
<text x="50" y="156" font-size="1.2em" text-anchor="start" dominant-baseline="central"> - </text>
<line x1="100" y1="500" x2="1400" y2="500" stroke-linecap="round" stroke="#cfcfcf"  stroke-width="1" />
<line x1="100" y1="500" x2="1400" y2="500" stroke-linecap="round" stroke="#cfcfcf"  stroke-width="1" />
<line x1="160" y1="500" x2="160" y2="520" stroke="#cfcfcf" stroke-linecap="round"  stroke-width="1" />
<line x1="160" y1="500" x2="160" y2="520" stroke="#cfcfcf" stroke-linecap="round"  stroke-width="1" />
<line x1="750" y1="380" x2="750" y2="620" stroke="#cfcfcf" stroke-linecap="round"  stroke-width="1" />
<line x1="750" y1="412" x2="750" y2="620" stroke="#cfcfcf" stroke-linecap="round"  stroke-width="1" />
<text x="160" y="740" font-size="1.8em" font-weight="bold" text-anchor="middle" dominant-baseline="central">Front</text>
<text x="750" y="740" font-size="1.8em" font-weight="bold" text-anchor="middle" dominant-baseline="central">Side view</text>
<text x="1400" y="740" font-size="1.8em" font-weight="bold" text-anchor="middle" dominant-baseline="central">Back</text>
<line x1="99" y1="500" x2="121" y2="500" stroke="black" stroke-width="1" />
<line x1="110" y1="500" x2="110" y2="500" stroke="black" stroke-width="1" />
<line x1="99" y1="500" x2="121" y2="500" stroke="black" stroke-width="1" />
<text x="91" y="500" transform="rotate(-90, 91, 500)" font-size="1.2em" font-weight="bold" text-anchor="middle" dominant-baseline="central" fill="black">0.00 mm</text>
<line x1="160" y1="519" x2="160" y2="541" stroke="black" stroke-width="1" />
<line x1="160" y1="530" x2="160" y2="530" stroke="black" stroke-width="1" />
<line x1="160" y1="519" x2="160" y2="541" stroke="black" stroke-width="1" />
<text x="160" y="549" font-size="1.2em" font-weight="bold" text-anchor="middle" dominant-baseline="central" fill="black"><tspan x="160" dy="0">0.00 mm</tspan></text>
<line x1="750" y1="369" x2="750" y2="391" stroke="black" stroke-width="1" />
<line x1="750" y1="380" x2="750" y2="380" stroke="black" stroke-width="1" />
<line x1="750" y1="369" x2="750" y2="391" stroke="black" stroke-width="1" />
<text x="750" y="361" font-size="1.2em" transform="rotate(-90, 750, 361)" font-weight="bold" text-anchor="start" dominant-baseline="central" fill="black"><tspan x="750" dy="0">0.00 mm </tspan></text>
<line x1="750" y1="519" x2="750" y2="541" stroke="black" stroke-width="1" />
<line x1="750" y1="530" x2="750" y2="530" stroke="black" stroke-width="1" />
<line x1="750" y1="519" x2="750" y2="541" stroke="black" stroke-width="1" />
<text x="750" y="530" font-weight="bold" font-size="1.2em" stroke="white" stroke-width="0.25" text-anchor="middle" dominant-baseline="middle" fill="black"><tspan x="750" dy="0">0.00 mm</tspan></text>
<line x1="750" y1="609" x2="750" y2="631" stroke="black" stroke-width="1" />
<line x1="750" y1="620" x2="750" y2="620" stroke="black" stroke-width="1" />
<line x1="750" y1="609" x2="750" y2="631" stroke="black" stroke-width="1" />


<!-- renderSideComponent:  -->

<!-- FRONT COMPONENT:  -->
</g><text x="50%" y="780" font-size="1.1em" font-weight="bold" text-anchor="middle" dominant-baseline="middle">Copyright (c) // Synapticloop // The Mechanical Pencil Database (tmpdb) // Licensed under Creative Commons Attribution-NonCommercial-ShareAlike 4.0 International</text>
<text x="1490" y="790" font-size="0.5em" font-weight="bold" text-anchor="end" dominant-baseline="middle">SVGTechnicalRenderer</text>
</svg>