<svg xmlns="http://www.w3.org/2000/svg" xmlns:xlink="http://www.w3.org/1999/xlink" width="1200" height="300"> <pattern id="diagonalHatch" patternUnits="userSpaceOnUse" width="8" height="8"><rect width="6" height="6" fill='none'/> <path stroke="dimgray" stroke-linecap="round" stroke-width="1" d="M 4,4 L 8,8"/> <path stroke="dimgray" stroke-linecap="round" stroke-width="1" d="M 4,4 L 0,8"/> <path stroke="gray" stroke-linecap="round" stroke-width="1" d="M 4,4 L 8,0" /> <path stroke="gray" stroke-linecap="round" stroke-width="1" d="M 4,4 L 0,0" /> </pattern><rect x="0" y="0" width="1200" height="300" fill="white" stroke="black" stroke-width="4" /><rect x="2" y="2" width="1196" height="296" fill="white" stroke="orange" stroke-width="1" /><text x="30" y="40" font-weight="bold" font-size="2em">OHTO // WN03 (2.0mm)</text><text x="30" y="60" font-weight="bold" font-size="1.1em">OHTO JAPAN WN03 Mechanical Pencil 2.0</text><line x1="40" y1="124.375" x2="60" y2="124.375" stroke="black" stroke-width="1" /><line x1="40" y1="175.625" x2="60" y2="175.625" stroke="black" stroke-width="1" /><line x1="50" y1="124.375" x2="50" y2="175.625" stroke="black" stroke-width="1" /><text x="30" y="150" transform="rotate(-90, 30, 150)" font-size="1.2em" font-weight="bold" text-anchor="middle" dominant-baseline="central">10.25 mm</text><line x1="70.41079870403168" y1="205.625" x2="129.5892012959683" y2="205.625" stroke="black" stroke-width="1" /><line x1="70.41079870403168" y1="195.625" x2="70.41079870403168" y2="215.625" stroke="black" stroke-width="1" /><line x1="129.5892012959683" y1="195.625" x2="129.5892012959683" y2="215.625" stroke="black" stroke-width="1" /><text x="100" y="225.625" font-size="1.2em" font-weight="bold" text-anchor="middle" dominant-baseline="middle">11.84 mm</text><line x1="258.75" y1="205.625" x2="941.25" y2="205.625" stroke="black" stroke-width="1" /><line x1="258.75" y1="195.625" x2="258.75" y2="215.625" stroke="black" stroke-width="1" /><line x1="941.25" y1="195.625" x2="941.25" y2="215.625" stroke="black" stroke-width="1" /><text x="600" y="225.625" font-size="1.2em" font-weight="bold" text-anchor="middle" dominant-baseline="middle">136.50 mm</text>
<!-- RENDERING - component: tip -->
<circle r="8.125" cx="1100" cy="150" stroke="dimgray" stroke-width="1" fill="white" />
<circle r="18.75" cx="1100" cy="150" stroke="dimgray" stroke-width="1" fill="white" /><circle r="8.125" cx="1100" cy="150" stroke="dimgray" stroke-width="1" fill="white" />

<!-- RENDERING - component: head -->
<circle r="25.625" cx="1100" cy="150" stroke="dimgray" stroke-width="1" fill="white" /><circle r="20" cx="1100" cy="150" stroke="dimgray" stroke-width="1" fill="white" />

<!-- RENDERING - component: body -->
<polygon points="1085.2053993520158,124.375 1114.7946006479842,124.375 1129.5892012959682,150 1114.7946006479842,175.625 1085.2053993520158,175.625 1070.4107987040318,150 " stroke="dimgray" stroke-width="1" fill="white"/> 

<!-- RENDERING - component: ferrule -->
<circle r="25.625" cx="1100" cy="150" stroke="dimgray" stroke-width="1" fill="white" />

<!-- RENDERING - component: cap -->
<circle r="23.125" cx="1100" cy="150" stroke="dimgray" stroke-width="1" fill="white" />
<circle r="25" cx="1100" cy="150" stroke="dimgray" stroke-width="1" fill="white" />

<!-- RENDERING - component: eraser -->
<circle r="23.125" cx="1100" cy="150" stroke="dimgray" stroke-width="1" fill="white" />
<circle r="23.125" cx="100" cy="150" stroke="dimgray" stroke-width="1" fill="white" />

<!-- RENDERING - component: eraser -->
<circle r="25" cx="100" cy="150" stroke="dimgray" stroke-width="1" fill="white" />
<circle r="23.125" cx="100" cy="150" stroke="dimgray" stroke-width="1" fill="white" />

<!-- RENDERING - component: cap -->
<circle r="25.625" cx="100" cy="150" stroke="dimgray" stroke-width="1" fill="white" />

<!-- RENDERING - component: ferrule -->
<polygon points="85.20539935201585,124.375 114.79460064798415,124.375 129.5892012959683,150 114.79460064798415,175.625 85.20539935201585,175.625 70.41079870403168,150 " stroke="dimgray" stroke-width="1" fill="white"/> 

<!-- RENDERING - component: body -->
<circle r="25.625" cx="100" cy="150" stroke="dimgray" stroke-width="1" fill="white" /><circle r="20" cx="100" cy="150" stroke="dimgray" stroke-width="1" fill="white" />

<!-- RENDERING - component: head -->
<circle r="18.75" cx="100" cy="150" stroke="dimgray" stroke-width="1" fill="white" /><circle r="8.125" cx="100" cy="150" stroke="dimgray" stroke-width="1" fill="white" />
<circle r="8.125" cx="100" cy="150" stroke="dimgray" stroke-width="1" fill="white" />

<!-- RENDERING - component: tip -->

<!-- RENDERING - component: tip -->
<!-- RENDERING - part: cylinder -->
<rect x="258.75" y="141.875" width="12.5" height="16.25" rx="1" ry="1" stroke-width="0.5" stroke="black" fill="white"/>

<!-- RENDERING - part: cone -->
<path d="M271.25 141.875 L296.25 131.25 L296.25 168.75 L271.25 158.125 Z" stroke-width="0.5" stroke="black" fill="white" />


<!-- RENDERING - component: head -->
<!-- RENDERING - part: cone -->
<path d="M296.25 130 L321.25 124.375 L321.25 175.625 L296.25 170 Z" stroke-width="0.5" stroke="black" fill="white" />


<!-- RENDERING - component: body -->
<!-- RENDERING - part: hexagonal -->
<rect x="321.25" y="124.375" width="490" height="51.25" rx="1" ry="1" stroke-width="0.5" stroke="black" fill="white"/>
<line x1="321.25" y1="150" x2="811.25" y2="150" stroke-width="1.5" stroke="black" fill="none"/>
<line x1="321.25" y1="150" x2="811.25" y2="150" stroke-width="0.5" stroke="gray" fill="none" />


<!-- RENDERING - component: ferrule -->
<!-- RENDERING - part: cylinder -->
<rect x="811.25" y="124.375" width="70" height="51.25" rx="1" ry="1" stroke-width="0.5" stroke="black" fill="white"/>
<line x1="819.3269230769231" y1="125.375" x2="819.3269230769231" y2="174.625" stroke-width="1" stroke="gray" />
<line x1="824.7115384615385" y1="125.375" x2="824.7115384615385" y2="174.625" stroke-width="1" stroke="gray" />
<line x1="830.0961538461538" y1="125.375" x2="830.0961538461538" y2="174.625" stroke-width="1" stroke="gray" />
<line x1="835.4807692307693" y1="125.375" x2="835.4807692307693" y2="174.625" stroke-width="1" stroke="gray" />
<line x1="840.8653846153846" y1="125.375" x2="840.8653846153846" y2="174.625" stroke-width="1" stroke="gray" />
<line x1="851.6346153846154" y1="125.375" x2="851.6346153846154" y2="174.625" stroke-width="1" stroke="gray" />
<line x1="857.0192307692307" y1="125.375" x2="857.0192307692307" y2="174.625" stroke-width="1" stroke="gray" />
<line x1="862.4038461538462" y1="125.375" x2="862.4038461538462" y2="174.625" stroke-width="1" stroke="gray" />
<line x1="867.7884615384615" y1="125.375" x2="867.7884615384615" y2="174.625" stroke-width="1" stroke="gray" />
<line x1="873.1730769230769" y1="125.375" x2="873.1730769230769" y2="174.625" stroke-width="1" stroke="gray" />
<circle r="4" cx="826.25" cy="137.1875" stroke-width="1" stroke="gray" fill="dimgray" />

<!-- RENDERING - component: cap -->
<!-- RENDERING - part: cylinder -->
<rect x="881.25" y="126.875" width="25" height="46.25" rx="1" ry="1" stroke-width="0.5" stroke="black" fill="white"/>

<!-- RENDERING - part: cylinder -->
<rect x="906.25" y="125" width="10" height="50" rx="1" ry="1" stroke-width="0.5" stroke="black" fill="white"/>


<!-- RENDERING - component: eraser -->
<!-- RENDERING - part: cylinder -->
<rect x="916.25" y="126.875" width="25" height="46.25" rx="1" ry="1" stroke-width="0.5" stroke="black" fill="white"/>

<text x="50%" y="280" font-size="1.1em" font-weight="bold" text-anchor="middle" dominant-baseline="middle">Copyright (c) // The Mechanical Pencil Database (tmpdb) // Licensed under Creative Commons Attribution-NonCommercial-ShareAlike 4.0 International</text></svg>