<svg xmlns="http://www.w3.org/2000/svg" width="1200" height="500">
 <pattern id="diagonalHatch" patternUnits="userSpaceOnUse" width="8" height="8">
<path stroke="dimgray" stroke-linecap="round" stroke-width="1" d="M 4,4 L 8,8"/>
<path stroke="dimgray" stroke-linecap="round" stroke-width="1" d="M 4,4 L 0,8"/>
<path stroke="gray" stroke-linecap="round" stroke-width="1" d="M 4,4 L 8,0" />
<path stroke="gray" stroke-linecap="round" stroke-width="1" d="M 4,4 L 0,0" />
</pattern>
<pattern id="spring" patternUnits="userSpaceOnUse" width="8" height="100">
<path stroke="dimgray" stroke-linecap="round" stroke-width="2" d="M 0,0 L 8,100"/>
<path stroke="white" stroke-linecap="round" stroke-width="1" d="M 0,0 L 8,100"/>
</pattern>
<rect x="0" y="0" width="1200" height="500" fill="white" stroke="black" stroke-width="4" />
<rect x="2" y="2" width="1196" height="496" fill="white" stroke="dimgray" stroke-width="1" />
<g transform="rotate(0 0 0)">
<line x1="10" y1="250" x2="1190" y2="250" stroke-linecap="round" stroke="#000000" stroke-dasharray="2" stroke-width="1" />
<line x1="10" y1="250" x2="50" y2="250" stroke-linecap="round" stroke="#000000"  stroke-width="1" />
<line x1="30" y1="230" x2="30" y2="270" stroke="#000000" stroke-linecap="round"  stroke-width="1" />
<circle r="10" cx="30" cy="250" fill="none" stroke="#000000" stroke-width="1"  />
<line x1="1150" y1="250" x2="1190" y2="250" stroke-linecap="round" stroke="#000000"  stroke-width="1" />
<line x1="1170" y1="230" x2="1170" y2="270" stroke="#000000" stroke-linecap="round"  stroke-width="1" />
<circle r="10" cx="1170" cy="250" fill="none" stroke="#000000" stroke-width="1"  />
<line x1="600" y1="140" x2="600" y2="420" stroke="#000000" stroke-linecap="round" stroke-dasharray="2" stroke-width="1" />
<line x1="580" y1="150" x2="620" y2="150" stroke-linecap="round" stroke="#000000"  stroke-width="1" />
<line x1="600" y1="130" x2="600" y2="170" stroke="#000000" stroke-linecap="round"  stroke-width="1" />
<circle r="10" cx="600" cy="150" fill="none" stroke="#000000" stroke-width="1"  />
<line x1="580" y1="400" x2="620" y2="400" stroke-linecap="round" stroke="#000000"  stroke-width="1" />
<line x1="600" y1="380" x2="600" y2="420" stroke="#000000" stroke-linecap="round"  stroke-width="1" />
<circle r="10" cx="600" cy="400" fill="none" stroke="#000000" stroke-width="1"  />
<text x="30" y="50" font-size="2.0em" font-weight="bold"> Pacific Arc // H-1309 </text>
<line x1="131.25" y1="139.5" x2="131.25" y2="250" stroke="#cfcfcf" stroke-linecap="round"  stroke-width="1" />
<line x1="131.25" y1="130" x2="131.25" y2="250" stroke="#cfcfcf" stroke-linecap="round"  stroke-width="1" />
<line x1="142.5" y1="130" x2="142.5" y2="250" stroke="#cfcfcf" stroke-linecap="round"  stroke-width="1" />
<line x1="211.25" y1="130" x2="211.25" y2="250" stroke="#cfcfcf" stroke-linecap="round"  stroke-width="1" />
<line x1="358.75" y1="130" x2="358.75" y2="250" stroke="#cfcfcf" stroke-linecap="round"  stroke-width="1" />
<line x1="696.25" y1="130" x2="696.25" y2="250" stroke="#cfcfcf" stroke-linecap="round"  stroke-width="1" />
<line x1="918.75" y1="130" x2="918.75" y2="250" stroke="#cfcfcf" stroke-linecap="round"  stroke-width="1" />
<line x1="938.75" y1="130" x2="938.75" y2="250" stroke="#cfcfcf" stroke-linecap="round"  stroke-width="1" />
<line x1="986.25" y1="130" x2="986.25" y2="250" stroke="#cfcfcf" stroke-linecap="round"  stroke-width="1" />
<line x1="991.25" y1="130" x2="991.25" y2="250" stroke="#cfcfcf" stroke-linecap="round"  stroke-width="1" />
<line x1="997.5" y1="130" x2="997.5" y2="250" stroke="#cfcfcf" stroke-linecap="round"  stroke-width="1" />
<line x1="1003.75" y1="130" x2="1003.75" y2="250" stroke="#cfcfcf" stroke-linecap="round"  stroke-width="1" />
<line x1="1068.75" y1="139.5" x2="1068.75" y2="250" stroke="#cfcfcf" stroke-linecap="round"  stroke-width="1" />
<line x1="131.25" y1="119" x2="131.25" y2="141" stroke="black" stroke-width="1" />
<line x1="131.25" y1="130" x2="142.5" y2="130" stroke="black" stroke-width="1" />
<line x1="142.5" y1="119" x2="142.5" y2="141" stroke="black" stroke-width="1" />
<text x="136.875" y="111" font-size="1.2em" transform="rotate(-90, 136.875, 111)" font-weight="bold" text-anchor="start" dominant-baseline="central" fill="black"><tspan x="136.875" dy="0">2.25 mm jaws</tspan></text>
<line x1="142.5" y1="119" x2="142.5" y2="141" stroke="black" stroke-width="1" />
<line x1="142.5" y1="130" x2="211.25" y2="130" stroke="black" stroke-width="1" />
<line x1="211.25" y1="119" x2="211.25" y2="141" stroke="black" stroke-width="1" />
<text x="176.875" y="111" font-size="1.2em" transform="rotate(-90, 164.875, 111)" font-weight="bold" text-anchor="start" dominant-baseline="central" fill="black"><tspan x="168.875" dy="0">13.75 mm</tspan><tspan x="168.875" dy="1em">tip</tspan></text>
<line x1="211.25" y1="119" x2="211.25" y2="141" stroke="black" stroke-width="1" />
<line x1="211.25" y1="130" x2="358.75" y2="130" stroke="black" stroke-width="1" />
<line x1="358.75" y1="119" x2="358.75" y2="141" stroke="black" stroke-width="1" />
<text x="285" y="111" font-size="1.2em" transform="rotate(-90, 273, 111)" font-weight="bold" text-anchor="start" dominant-baseline="central" fill="black"><tspan x="277" dy="0">29.50 mm</tspan><tspan x="277" dy="1em">grip</tspan></text>
<line x1="358.75" y1="119" x2="358.75" y2="141" stroke="black" stroke-width="1" />
<line x1="358.75" y1="130" x2="696.25" y2="130" stroke="black" stroke-width="1" />
<line x1="696.25" y1="119" x2="696.25" y2="141" stroke="black" stroke-width="1" />
<text x="527.5" y="111" font-size="1.2em" transform="rotate(-90, 515.5, 111)" font-weight="bold" text-anchor="start" dominant-baseline="central" fill="black"><tspan x="519.5" dy="0">67.50 mm</tspan><tspan x="519.5" dy="1em">body</tspan></text>
<line x1="696.25" y1="119" x2="696.25" y2="141" stroke="black" stroke-width="1" />
<line x1="696.25" y1="130" x2="918.75" y2="130" stroke="black" stroke-width="1" />
<line x1="918.75" y1="119" x2="918.75" y2="141" stroke="black" stroke-width="1" />
<text x="807.5" y="111" font-size="1.2em" transform="rotate(-90, 795.5, 111)" font-weight="bold" text-anchor="start" dominant-baseline="central" fill="black"><tspan x="799.5" dy="0">44.50 mm</tspan><tspan x="799.5" dy="1em">clip</tspan></text>
<line x1="918.75" y1="119" x2="918.75" y2="141" stroke="black" stroke-width="1" />
<line x1="918.75" y1="130" x2="938.75" y2="130" stroke="black" stroke-width="1" />
<line x1="938.75" y1="119" x2="938.75" y2="141" stroke="black" stroke-width="1" />
<text x="928.75" y="111" font-size="1.2em" transform="rotate(-90, 928.75, 111)" font-weight="bold" text-anchor="start" dominant-baseline="central" fill="black"><tspan x="928.75" dy="0">4.00 mm tail</tspan></text>
<line x1="938.75" y1="119" x2="938.75" y2="141" stroke="black" stroke-width="1" />
<line x1="938.75" y1="130" x2="986.25" y2="130" stroke="black" stroke-width="1" />
<line x1="986.25" y1="119" x2="986.25" y2="141" stroke="black" stroke-width="1" />
<text x="962.5" y="111" font-size="1.2em" transform="rotate(-90, 950.5, 111)" font-weight="bold" text-anchor="start" dominant-baseline="central" fill="black"><tspan x="954.5" dy="0">9.50 mm</tspan><tspan x="954.5" dy="1em">indicator</tspan></text>
<line x1="986.25" y1="119" x2="986.25" y2="141" stroke="black" stroke-width="1" />
<line x1="986.25" y1="130" x2="991.25" y2="130" stroke="black" stroke-width="1" />
<line x1="991.25" y1="119" x2="991.25" y2="141" stroke="black" stroke-width="1" />
<text x="988.75" y="111" font-size="1.2em" transform="rotate(-90, 988.75, 111)" font-weight="bold" text-anchor="start" dominant-baseline="central" fill="black"><tspan x="988.75" dy="0">1.00 mm foot</tspan></text>
<line x1="991.25" y1="119" x2="991.25" y2="141" stroke="black" stroke-width="1" />
<line x1="991.25" y1="130" x2="997.5" y2="130" stroke="black" stroke-width="1" />
<line x1="997.5" y1="119" x2="997.5" y2="141" stroke="black" stroke-width="1" />
<text x="994.375" y="111" font-size="1.2em" transform="rotate(-90, 994.375, 111)" font-weight="bold" text-anchor="start" dominant-baseline="central" fill="black"><tspan x="994.375" dy="0">1.25 mm ring</tspan></text>
<line x1="997.5" y1="119" x2="997.5" y2="141" stroke="black" stroke-width="1" />
<line x1="997.5" y1="130" x2="1003.75" y2="130" stroke="black" stroke-width="1" />
<line x1="1003.75" y1="119" x2="1003.75" y2="141" stroke="black" stroke-width="1" />
<text x="1000.625" y="111" font-size="1.2em" transform="rotate(-90, 1000.625, 111)" font-weight="bold" text-anchor="start" dominant-baseline="central" fill="black"><tspan x="1000.625" dy="0">1.25 mm foot</tspan></text>
<line x1="1003.75" y1="119" x2="1003.75" y2="141" stroke="black" stroke-width="1" />
<line x1="1003.75" y1="130" x2="1068.75" y2="130" stroke="black" stroke-width="1" />
<line x1="1068.75" y1="119" x2="1068.75" y2="141" stroke="black" stroke-width="1" />
<text x="1036.25" y="111" font-size="1.2em" transform="rotate(-90, 1024.25, 111)" font-weight="bold" text-anchor="start" dominant-baseline="central" fill="black"><tspan x="1028.25" dy="0">13.00 mm</tspan><tspan x="1028.25" dy="1em">cap</tspan></text>
<rect x="211.25" y="229.375" width="147.5" height="41.25" rx="1" ry="1" stroke-width="0.5" stroke="black" fill="url(#diagonalHatch)"/>
<rect x="938.75" y="229.375" width="47.5" height="41.25" rx="1" ry="1" stroke-width="0.5" stroke="black" fill="url(#diagonalHatch)"/>
</g><text x="50%" y="480" font-size="1.1em" font-weight="bold" text-anchor="middle" dominant-baseline="middle">Copyright (c) // The Mechanical Pencil Database (tmpdb) // Licensed under Creative Commons Attribution-NonCommercial-ShareAlike 4.0 International</text>
<text x="1190" y="490" font-size="0.5em" font-weight="bold" text-anchor="end" dominant-baseline="middle">SVGTechnicalComponentRenderer</text>
</svg>