<svg xmlns="http://www.w3.org/2000/svg" width="1200" height="569">
 <pattern id="knurled-large" patternUnits="userSpaceOnUse" width="12" height="12">
<path stroke="dimgray" stroke-linecap="round" stroke-width="1" d="M 6,6 L 12,12"/>
<path stroke="dimgray" stroke-linecap="round" stroke-width="1" d="M 6,6 L 0,12"/>
<path stroke="gray" stroke-linecap="round" stroke-width="1" d="M 6,6 L 12,0" />
<path stroke="gray" stroke-linecap="round" stroke-width="1" d="M 6,6 L 0,0" />
</pattern><pattern id="knurled-small" patternUnits="userSpaceOnUse" width="4" height="4">
<path stroke="dimgray" stroke-linecap="round" stroke-width="1" d="M 2,2 L 4,4"/>
<path stroke="dimgray" stroke-linecap="round" stroke-width="1" d="M 2,2 L 0,4"/>
<path stroke="gray" stroke-linecap="round" stroke-width="1" d="M 2,2 L 4,0" />
<path stroke="gray" stroke-linecap="round" stroke-width="1" d="M 2,2 L 0,0" />
</pattern><pattern id="knurled" patternUnits="userSpaceOnUse" width="8" height="8">
<path stroke="dimgray" stroke-linecap="round" stroke-width="1" d="M 4,4 L 8,8"/>
<path stroke="dimgray" stroke-linecap="round" stroke-width="1" d="M 4,4 L 0,8"/>
<path stroke="gray" stroke-linecap="round" stroke-width="1" d="M 4,4 L 8,0" />
<path stroke="gray" stroke-linecap="round" stroke-width="1" d="M 4,4 L 0,0" />
</pattern><pattern id="lined" patternUnits="userSpaceOnUse" width="3" height="3">
<path stroke="dimgray" stroke-linecap="round" stroke-width="1" d="M 0,0 L 3,0"/>
</pattern><pattern id="ridged" patternUnits="userSpaceOnUse" width="3" height="3">
<path stroke="dimgray" stroke-linecap="round" stroke-width="1" d="M 0,0 L 0,3"/>
</pattern><pattern id="spring" patternUnits="userSpaceOnUse" width="8" height="100">
<path stroke="dimgray" stroke-linecap="round" stroke-width="2" d="M 1,1 L 9,99"/>
<path stroke="white" stroke-linecap="round" stroke-width="1" d="M 1,1 L 9,99"/>
</pattern><pattern id="knurled" patternUnits="userSpaceOnUse" width="8" height="8">
<path stroke="dimgray" stroke-linecap="round" stroke-width="1" d="M 4,4 L 8,8"/>
<path stroke="dimgray" stroke-linecap="round" stroke-width="1" d="M 4,4 L 0,8"/>
<path stroke="gray" stroke-linecap="round" stroke-width="1" d="M 4,4 L 8,0" />
<path stroke="gray" stroke-linecap="round" stroke-width="1" d="M 4,4 L 0,0" />
</pattern><rect x="0" y="0" width="1200" height="569" fill="white" stroke="black" stroke-width="4" />
<rect x="2" y="2" width="1196" height="565" fill="white" stroke="dimgray" stroke-width="1" />
<g transform="rotate(0 0 0)">
<text x="30" y="50" font-size="2.0em" font-weight="bold"> Pacific Arc // TECH PRO (Model #: H-1305)</text>


<!-- renderExplodedSideComponents -->


<!-- renderSideComponent: jaws -->


<!-- renderPart: cone -->
<path d="M230 151.875 L241.25 150 L241.25 170 L230 168.125 Z" stroke-width="0.5" stroke="black" stroke-linejoin="round" fill="#b4b8b9" fill-opacity="1"/>


<!-- renderPart: cylinder -->
<path d="M241.25 150 L322.55 150 L322.55 170 L241.25 170 Z" stroke-width="0.5" stroke="black" stroke-linejoin="round" fill="#b4b8b9" fill-opacity="1"/>


<!-- renderPart: cylinder -->
<path d="M322.55 150 L453.8 150 L453.8 170 L322.55 170 Z" stroke-width="0.5" stroke="black" stroke-linejoin="round" fill="#e1c16e" fill-opacity="1"/>
<path d="M322.55 150 L453.8 150 L453.8 170 L322.55 170 Z" stroke-width="1.0" stroke="black" fill="url(#spring)"/>
<rect x="327.55" y="145" width="121.25" height="30" stroke-width="0.0" stroke="black" fill="url(#spring)"/>
<line x1="323.05" y1="145" x2="323.05" y2="175" stroke="dimgray" stroke-linecap="round" stroke-width="2" />
<line x1="323.05" y1="145" x2="323.05" y2="175" stroke="white" stroke-linecap="round" stroke-width="1" />
<line x1="453.3" y1="145" x2="453.3" y2="175" stroke="dimgray" stroke-linecap="round" stroke-width="2" />
<line x1="453.3" y1="145" x2="453.3" y2="175" stroke="white" stroke-linecap="round" stroke-width="1" />
<line x1="325.05" y1="145" x2="325.05" y2="175" stroke="dimgray" stroke-linecap="round" stroke-width="2" />
<line x1="325.05" y1="145" x2="325.05" y2="175" stroke="white" stroke-linecap="round" stroke-width="1" />
<line x1="451.3" y1="145" x2="451.3" y2="175" stroke="dimgray" stroke-linecap="round" stroke-width="2" />
<line x1="451.3" y1="145" x2="451.3" y2="175" stroke="white" stroke-linecap="round" stroke-width="1" />
<line x1="327.05" y1="145" x2="327.05" y2="175" stroke="dimgray" stroke-linecap="round" stroke-width="2" />
<line x1="327.05" y1="145" x2="327.05" y2="175" stroke="white" stroke-linecap="round" stroke-width="1" />
<line x1="449.3" y1="145" x2="449.3" y2="175" stroke="dimgray" stroke-linecap="round" stroke-width="2" />
<line x1="449.3" y1="145" x2="449.3" y2="175" stroke="white" stroke-linecap="round" stroke-width="1" />
<line x1="329.05" y1="145" x2="329.05" y2="175" stroke="dimgray" stroke-linecap="round" stroke-width="2" />
<line x1="329.05" y1="145" x2="329.05" y2="175" stroke="white" stroke-linecap="round" stroke-width="1" />
<line x1="447.3" y1="145" x2="447.3" y2="175" stroke="dimgray" stroke-linecap="round" stroke-width="2" />
<line x1="447.3" y1="145" x2="447.3" y2="175" stroke="white" stroke-linecap="round" stroke-width="1" />


<!-- renderPart: cylinder -->
<path d="M453.8 146.25 L457.55 146.25 L457.55 173.75 L453.8 173.75 Z" stroke-width="0.5" stroke="black" stroke-linejoin="round" fill="#e1c16e" fill-opacity="1"/>


<!-- renderPart: cylinder -->
<path d="M457.55 150 L925.05 150 L925.05 170 L457.55 170 Z" stroke-width="0.5" stroke="black" stroke-linejoin="round" fill="#e1c16e" fill-opacity="1"/>
<line x1="241.25" y1="120" x2="241.25" y2="200" stroke="white" stroke-linecap="round"  stroke-width="1" />
<line x1="241.25" y1="120" x2="241.25" y2="200" stroke="black" stroke-linecap="round" stroke-dasharray="4,2" stroke-width="1" />


<!-- DASHED JOIN -->
<path d="M 251.25 160 L 955.05 160 L 955.05 220 L 191.25 220 L 191.25 280 L 236.25 280 " fill="none" stroke="white" stroke-width="2" stroke-dasharray="8,4" stroke-linecap="round"  />
<path d="M 251.25 160 L 955.05 160 L 955.05 220 L 191.25 220 L 191.25 280 L 236.25 280 " fill="none" stroke="black" stroke-width="1" stroke-dasharray="8,4" stroke-linecap="round"  />


<!-- ARROW START -->
<line x1="251.25" y1="160" x2="258.25" y2="160" stroke-linecap="round" stroke="#ffffff" stroke-width="2.0" />
<line x1="251.25" y1="160" x2="265.25" y2="152" stroke-linecap="round" stroke="#ffffff" stroke-width="2.0" />
<line x1="265.25" y1="152" x2="258.25" y2="160" stroke-linecap="round" stroke="#ffffff" stroke-width="2.0" />
<line x1="251.25" y1="160" x2="265.25" y2="168" stroke-linecap="round" stroke="#ffffff" stroke-width="2.0" />
<line x1="265.25" y1="168" x2="258.25" y2="160" stroke-linecap="round" stroke="#ffffff" stroke-width="2.0" />
<line x1="251.25" y1="160" x2="265.25" y2="152" stroke-linecap="round" stroke="#0f0f0f" stroke-width="1.0" />
<line x1="265.25" y1="152" x2="258.25" y2="160" stroke-linecap="round" stroke="#0f0f0f" stroke-width="1.0" />
<line x1="251.25" y1="160" x2="265.25" y2="168" stroke-linecap="round" stroke="#0f0f0f" stroke-width="1.0" />
<line x1="265.25" y1="168" x2="258.25" y2="160" stroke-linecap="round" stroke="#0f0f0f" stroke-width="1.0" />


<!-- ARROW START -->
<line x1="211.25" y1="280" x2="218.25" y2="280" stroke-linecap="round" stroke="#ffffff" stroke-width="2.0" />
<line x1="211.25" y1="280" x2="225.25" y2="272" stroke-linecap="round" stroke="#ffffff" stroke-width="2.0" />
<line x1="225.25" y1="272" x2="218.25" y2="280" stroke-linecap="round" stroke="#ffffff" stroke-width="2.0" />
<line x1="211.25" y1="280" x2="225.25" y2="288" stroke-linecap="round" stroke="#ffffff" stroke-width="2.0" />
<line x1="225.25" y1="288" x2="218.25" y2="280" stroke-linecap="round" stroke="#ffffff" stroke-width="2.0" />
<line x1="211.25" y1="280" x2="225.25" y2="272" stroke-linecap="round" stroke="#0f0f0f" stroke-width="1.0" />
<line x1="225.25" y1="272" x2="218.25" y2="280" stroke-linecap="round" stroke="#0f0f0f" stroke-width="1.0" />
<line x1="211.25" y1="280" x2="225.25" y2="288" stroke-linecap="round" stroke="#0f0f0f" stroke-width="1.0" />
<line x1="225.25" y1="288" x2="218.25" y2="280" stroke-linecap="round" stroke="#0f0f0f" stroke-width="1.0" />


<!-- renderSideComponent: tip -->


<!-- renderPart: cone -->
<path d="M241.25 266.875 L310 259.375 L310 300.625 L241.25 293.125 Z" stroke-width="0.5" stroke="black" stroke-linejoin="round" fill="#b4b8b9" fill-opacity="1"/>


<!-- renderSideComponent: grip -->


<!-- renderPart: cylinder -->
<path d="M310 259.375 L457.5 259.375 L457.5 300.625 L310 300.625 Z" stroke-width="0.5" stroke="black" stroke-linejoin="round" fill="#b4b8b9" fill-opacity="1"/>
<path d="M310 259.375 L457.5 259.375 L457.5 300.625 L310 300.625 Z" stroke-width="1.0" stroke="black" fill="url(#knurled)"/>


<!-- DASHED JOIN -->
<path d="M 472.5 280 L 492.5 280 L 492.5 340 L 383.75 340 L 383.75 400 L 428.75 400 " fill="none" stroke="white" stroke-width="2" stroke-dasharray="8,4" stroke-linecap="round"  />
<path d="M 472.5 280 L 492.5 280 L 492.5 340 L 383.75 340 L 383.75 400 L 428.75 400 " fill="none" stroke="black" stroke-width="1" stroke-dasharray="8,4" stroke-linecap="round"  />


<!-- ARROW START -->
<line x1="462.5" y1="280" x2="469.5" y2="280" stroke-linecap="round" stroke="#ffffff" stroke-width="2.0" />
<line x1="462.5" y1="280" x2="476.5" y2="272" stroke-linecap="round" stroke="#ffffff" stroke-width="2.0" />
<line x1="476.5" y1="272" x2="469.5" y2="280" stroke-linecap="round" stroke="#ffffff" stroke-width="2.0" />
<line x1="462.5" y1="280" x2="476.5" y2="288" stroke-linecap="round" stroke="#ffffff" stroke-width="2.0" />
<line x1="476.5" y1="288" x2="469.5" y2="280" stroke-linecap="round" stroke="#ffffff" stroke-width="2.0" />
<line x1="462.5" y1="280" x2="476.5" y2="272" stroke-linecap="round" stroke="#0f0f0f" stroke-width="1.0" />
<line x1="476.5" y1="272" x2="469.5" y2="280" stroke-linecap="round" stroke="#0f0f0f" stroke-width="1.0" />
<line x1="462.5" y1="280" x2="476.5" y2="288" stroke-linecap="round" stroke="#0f0f0f" stroke-width="1.0" />
<line x1="476.5" y1="288" x2="469.5" y2="280" stroke-linecap="round" stroke="#0f0f0f" stroke-width="1.0" />


<!-- ARROW START -->
<line x1="398.75" y1="400" x2="405.75" y2="400" stroke-linecap="round" stroke="#ffffff" stroke-width="2.0" />
<line x1="398.75" y1="400" x2="412.75" y2="392" stroke-linecap="round" stroke="#ffffff" stroke-width="2.0" />
<line x1="412.75" y1="392" x2="405.75" y2="400" stroke-linecap="round" stroke="#ffffff" stroke-width="2.0" />
<line x1="398.75" y1="400" x2="412.75" y2="408" stroke-linecap="round" stroke="#ffffff" stroke-width="2.0" />
<line x1="412.75" y1="408" x2="405.75" y2="400" stroke-linecap="round" stroke="#ffffff" stroke-width="2.0" />
<line x1="398.75" y1="400" x2="412.75" y2="392" stroke-linecap="round" stroke="#0f0f0f" stroke-width="1.0" />
<line x1="412.75" y1="392" x2="405.75" y2="400" stroke-linecap="round" stroke="#0f0f0f" stroke-width="1.0" />
<line x1="398.75" y1="400" x2="412.75" y2="408" stroke-linecap="round" stroke="#0f0f0f" stroke-width="1.0" />
<line x1="412.75" y1="408" x2="405.75" y2="400" stroke-linecap="round" stroke="#0f0f0f" stroke-width="1.0" />


<!-- renderPart: cylinder -->
<path d="M428.75 383.75 L457.5 383.75 L457.5 416.25 L428.75 416.25 Z" stroke-width="0.5" stroke="black" stroke-linejoin="round" fill="#404f4c" fill-opacity="1"/>
<path d="M428.75 383.75 L457.5 383.75 L457.5 416.25 L428.75 416.25 Z" stroke-width="1.0" stroke="black" fill="url(#threaded)"/>
<line x1="428.75" y1="381.75" x2="433.75" y2="418.25" stroke="dimgray" stroke-linecap="round" stroke-width="2" />
<line x1="428.75" y1="381.75" x2="433.75" y2="418.25" stroke="[object Object]" stroke-linecap="round" stroke-width="1" />
<line x1="433.75" y1="381.75" x2="438.75" y2="418.25" stroke="dimgray" stroke-linecap="round" stroke-width="2" />
<line x1="433.75" y1="381.75" x2="438.75" y2="418.25" stroke="[object Object]" stroke-linecap="round" stroke-width="1" />
<line x1="438.75" y1="381.75" x2="443.75" y2="418.25" stroke="dimgray" stroke-linecap="round" stroke-width="2" />
<line x1="438.75" y1="381.75" x2="443.75" y2="418.25" stroke="[object Object]" stroke-linecap="round" stroke-width="1" />
<line x1="443.75" y1="381.75" x2="448.75" y2="418.25" stroke="dimgray" stroke-linecap="round" stroke-width="2" />
<line x1="443.75" y1="381.75" x2="448.75" y2="418.25" stroke="[object Object]" stroke-linecap="round" stroke-width="1" />
<line x1="448.75" y1="381.75" x2="453.75" y2="418.25" stroke="dimgray" stroke-linecap="round" stroke-width="2" />
<line x1="448.75" y1="381.75" x2="453.75" y2="418.25" stroke="[object Object]" stroke-linecap="round" stroke-width="1" />
<line x1="457.5" y1="360" x2="457.5" y2="440" stroke="white" stroke-linecap="round"  stroke-width="1" />
<line x1="457.5" y1="360" x2="457.5" y2="440" stroke="black" stroke-linecap="round" stroke-dasharray="4,2" stroke-width="1" />


<!-- renderSideComponent: body -->


<!-- renderPart: hexagonal -->
<path d="M457.5 380 L795 380 L795 420 L457.5 420 Z" stroke-width="0.5" stroke="black" stroke-linejoin="round" fill="#404f4c" fill-opacity="1"/>
<line x1="457.5" y1="400" x2="795" y2="400" stroke-width="1.5" stroke="gray" fill="gray" stroke-opacity="1.0"/>
<line x1="457.5" y1="400" x2="795" y2="400" stroke-width="0.5" stroke="black" fill="none" stroke-opacity="0.5"/>


<!-- renderSideComponent: clip -->
<path d="M639.75 365.875 Q662.5 389.375 672.5 365.875 Z" stroke-width="4" stroke="black" fill="dimgray" stroke-linecap="round" />
<line x1="637.5" y1="364.375" x2="820" y2="364.375" stroke-width="4" stroke="black" fill="dimgray" stroke-linecap="round" />
<path d="M820 364.375 Q840 371.875 820 378.125" stroke-width="4" stroke="black" fill="none" stroke-linecap="round" />


<!-- renderPart: cylinder -->
<path d="M795 377.5 L822.5 377.5 L822.5 422.5 L795 422.5 Z" stroke-width="0.5" stroke="black" stroke-linejoin="round" fill="#b4b8b9" fill-opacity="1"/>
<path d="M639.75 365.875 Q662.5 388.375 672.5 365.875 Z" stroke-width="3" stroke="#b4b8b9" fill="#b4b8b9" stroke-linecap="round" />
<line x1="637.5" y1="364.375" x2="820" y2="364.375" stroke-width="3" stroke="#b4b8b9" fill="#b4b8b9" stroke-linecap="round" />
<path d="M820 364.375 Q840 371.875 820 378.125" stroke-width="3" stroke="#b4b8b9" fill="none" stroke-linecap="round" />


<!-- renderSideComponent: tail -->


<!-- renderPart: cylinder -->
<path d="M822.5 380 L842.5 380 L842.5 420 L822.5 420 Z" stroke-width="0.5" stroke="black" stroke-linejoin="round" fill="#b4b8b9" fill-opacity="1"/>


<!-- renderSideComponent: indicator -->


<!-- renderPart: cylinder -->
<path d="M842.5 379.375 L890 379.375 L890 420.625 L842.5 420.625 Z" stroke-width="0.5" stroke="black" stroke-linejoin="round" fill="#b4b8b9" fill-opacity="1"/>
<path d="M842.5 379.375 L890 379.375 L890 420.625 L842.5 420.625 Z" stroke-width="1.0" stroke="black" fill="url(#knurled)"/>
<rect x="852.5" y="389.6875" width="27.5" height="20.625" rx="3" ry="3" stroke-width="1" stroke="black" fill="#b4b8b9"/>
<text x="866.25" y="400" text-anchor="middle" dominant-baseline="central"><tspan stroke="dimgray" stroke-width="0.5" font-family="sans-serif" fill="black" textLength="{this.width * 5 - 24}" > HB</tspan></text>

<!-- renderSideComponent: foot -->


<!-- renderPart: cylinder -->
<path d="M890 380 L905 380 L905 420 L890 420 Z" stroke-width="0.5" stroke="black" stroke-linejoin="round" fill="#b4b8b9" fill-opacity="1"/>


<!-- DASHED JOIN -->
<path d="M 920 400 L 940 400 L 940 460 L 758.75 460 L 758.75 520 L 803.75 520 " fill="none" stroke="white" stroke-width="2" stroke-dasharray="8,4" stroke-linecap="round"  />
<path d="M 920 400 L 940 400 L 940 460 L 758.75 460 L 758.75 520 L 803.75 520 " fill="none" stroke="black" stroke-width="1" stroke-dasharray="8,4" stroke-linecap="round"  />


<!-- ARROW START -->
<line x1="910" y1="400" x2="917" y2="400" stroke-linecap="round" stroke="#ffffff" stroke-width="2.0" />
<line x1="910" y1="400" x2="924" y2="392" stroke-linecap="round" stroke="#ffffff" stroke-width="2.0" />
<line x1="924" y1="392" x2="917" y2="400" stroke-linecap="round" stroke="#ffffff" stroke-width="2.0" />
<line x1="910" y1="400" x2="924" y2="408" stroke-linecap="round" stroke="#ffffff" stroke-width="2.0" />
<line x1="924" y1="408" x2="917" y2="400" stroke-linecap="round" stroke="#ffffff" stroke-width="2.0" />
<line x1="910" y1="400" x2="924" y2="392" stroke-linecap="round" stroke="#0f0f0f" stroke-width="1.0" />
<line x1="924" y1="392" x2="917" y2="400" stroke-linecap="round" stroke="#0f0f0f" stroke-width="1.0" />
<line x1="910" y1="400" x2="924" y2="408" stroke-linecap="round" stroke="#0f0f0f" stroke-width="1.0" />
<line x1="924" y1="408" x2="917" y2="400" stroke-linecap="round" stroke="#0f0f0f" stroke-width="1.0" />


<!-- ARROW START -->
<line x1="773.75" y1="520" x2="780.75" y2="520" stroke-linecap="round" stroke="#ffffff" stroke-width="2.0" />
<line x1="773.75" y1="520" x2="787.75" y2="512" stroke-linecap="round" stroke="#ffffff" stroke-width="2.0" />
<line x1="787.75" y1="512" x2="780.75" y2="520" stroke-linecap="round" stroke="#ffffff" stroke-width="2.0" />
<line x1="773.75" y1="520" x2="787.75" y2="528" stroke-linecap="round" stroke="#ffffff" stroke-width="2.0" />
<line x1="787.75" y1="528" x2="780.75" y2="520" stroke-linecap="round" stroke="#ffffff" stroke-width="2.0" />
<line x1="773.75" y1="520" x2="787.75" y2="512" stroke-linecap="round" stroke="#0f0f0f" stroke-width="1.0" />
<line x1="787.75" y1="512" x2="780.75" y2="520" stroke-linecap="round" stroke="#0f0f0f" stroke-width="1.0" />
<line x1="773.75" y1="520" x2="787.75" y2="528" stroke-linecap="round" stroke="#0f0f0f" stroke-width="1.0" />
<line x1="787.75" y1="528" x2="780.75" y2="520" stroke-linecap="round" stroke="#0f0f0f" stroke-width="1.0" />


<!-- renderPart: cylinder -->
<path d="M803.75 506.25 L876.25 506.25 L876.25 533.75 L803.75 533.75 Z" stroke-width="0.5" stroke="dimgray" stroke-linejoin="round" fill="black" fill-opacity="1"/>


<!-- renderPart: cylinder -->
<path d="M876.25 506.25 L905 506.25 L905 533.75 L876.25 533.75 Z" stroke-width="0.5" stroke="black" stroke-linejoin="round" fill="#b4b8b9" fill-opacity="1"/>
<line x1="905" y1="480" x2="905" y2="560" stroke="white" stroke-linecap="round"  stroke-width="1" />
<line x1="905" y1="480" x2="905" y2="560" stroke="black" stroke-linecap="round" stroke-dasharray="4,2" stroke-width="1" />


<!-- renderSideComponent: cap -->


<!-- renderPart: cylinder -->
<path d="M905 506.25 L935 506.25 L935 533.75 L905 533.75 Z" stroke-width="0.5" stroke="black" stroke-linejoin="round" fill="#b4b8b9" fill-opacity="1"/>


<!-- renderPart: cylinder -->
<path d="M935 507.5 L938.75 507.5 L938.75 532.5 L935 532.5 Z" stroke-width="0.5" stroke="black" stroke-linejoin="round" fill="#b4b8b9" fill-opacity="1"/>


<!-- renderPart: cylinder -->
<path d="M938.75 506.25 L946.25 506.25 L946.25 533.75 L938.75 533.75 Z" stroke-width="0.5" stroke="black" stroke-linejoin="round" fill="#b4b8b9" fill-opacity="1"/>


<!-- renderPart: cylinder -->
<path d="M946.25 507.5 L950 507.5 L950 532.5 L946.25 532.5 Z" stroke-width="0.5" stroke="black" stroke-linejoin="round" fill="#b4b8b9" fill-opacity="1"/>


<!-- renderPart: cylinder -->
<path d="M950 506.25 L957.5 506.25 L957.5 533.75 L950 533.75 Z" stroke-width="0.5" stroke="black" stroke-linejoin="round" fill="#b4b8b9" fill-opacity="1"/>


<!-- renderPart: cylinder -->
<path d="M957.5 507.5 L961.25 507.5 L961.25 532.5 L957.5 532.5 Z" stroke-width="0.5" stroke="black" stroke-linejoin="round" fill="#b4b8b9" fill-opacity="1"/>


<!-- renderPart: cylinder -->
<path d="M961.25 506.25 L970 506.25 L970 533.75 L961.25 533.75 Z" stroke-width="0.5" stroke="black" stroke-linejoin="round" fill="#b4b8b9" fill-opacity="1"/>
</g><text x="50%" y="529" font-size="1.1em" font-weight="bold" text-anchor="middle" dominant-baseline="middle">Copyright (c) // Synapticloop and The Mechanical Pencil Database (tmpdb)</text>
<text x="50%" y="549" font-size="1.1em" font-weight="bold" text-anchor="middle" dominant-baseline="middle">Licensed under Creative Commons Attribution-NonCommercial-ShareAlike 4.0 International</text>
<text x="1190" y="559" font-size="0.5em" font-weight="bold" text-anchor="end" dominant-baseline="middle">SVGTechnicalExplodedRenderer</text>
</svg>