<svg xmlns="http://www.w3.org/2000/svg" width="1200" height="209">
 <pattern id="diagonalHatch" patternUnits="userSpaceOnUse" width="8" height="8">
<path stroke="dimgray" stroke-linecap="round" stroke-width="1" d="M 4,4 L 8,8"/>
<path stroke="dimgray" stroke-linecap="round" stroke-width="1" d="M 4,4 L 0,8"/>
<path stroke="gray" stroke-linecap="round" stroke-width="1" d="M 4,4 L 8,0" />
<path stroke="gray" stroke-linecap="round" stroke-width="1" d="M 4,4 L 0,0" />
</pattern>
<pattern id="ridged" patternUnits="userSpaceOnUse" width="3" height="3">
<path stroke="dimgray" stroke-linecap="round" stroke-width="1" d="M 0,0 L 0,3"/>
</pattern>
<pattern id="lined" patternUnits="userSpaceOnUse" width="3" height="3">
<path stroke="dimgray" stroke-linecap="round" stroke-width="1" d="M 0,0 L 3,0"/>
</pattern>
<pattern id="spring" patternUnits="userSpaceOnUse" width="8" height="100">
<path stroke="dimgray" stroke-linecap="round" stroke-width="2" d="M 0,0 L 8,100"/>
<path stroke="white" stroke-linecap="round" stroke-width="1" d="M 0,0 L 8,100"/>
</pattern>
<rect x="0" y="0" width="1200" height="209" fill="white" stroke="black" stroke-width="4" />
<rect x="2" y="2" width="1196" height="205" fill="white" stroke="dimgray" stroke-width="1" />
<g transform="rotate(0 0 0)">
<text x="30" y="50" font-size="2.0em" font-weight="bold"> Pacific Arc // Premium (Model #: H-1309)</text>
<path d="M228.75 111.875 L240 110 L240 130 L228.75 128.125 Z" stroke-width="0.5" stroke="black" stroke-linejoin="round" fill="#000000" fill-opacity="1" />
<path d="M240 106.875 L308.75 99.375 L308.75 140.625 L240 133.125 Z" stroke-width="0.5" stroke="black" stroke-linejoin="round" fill="#000000" fill-opacity="1" />
<path d="M308.75 99.375 L456.25 99.375 L456.25 140.625 L308.75 140.625 Z" stroke-width="0.5" stroke="black" stroke-linejoin="round" fill="#000000" fill-opacity="1" />
<path d="M308.75 99.375 L456.25 99.375 L456.25 140.625 L308.75 140.625 Z" stroke-width="1.0" stroke="black" fill="url(#diagonalHatch)"/>
<path d="M456.25 100 L793.75 100 L793.75 140 L456.25 140 Z" stroke-width="0.5" stroke="black" stroke-linejoin="round" fill="#000000" fill-opacity="1" />
<line x1="456.25" y1="120" x2="793.75" y2="120" stroke-width="1.5" stroke="black" fill="none" stroke-opacity="0.5"/>
<line x1="456.25" y1="120" x2="793.75" y2="120" stroke-width="0.5" stroke="gray" fill="none" stroke-opacity="0.5"/>
<path d="M638.5 85.875 Q661.25 109.375 671.25 85.875 Z" stroke-width="4" stroke="black" fill="dimgray" stroke-linecap="round" />
<line x1="636.25" y1="84.375" x2="818.75" y2="84.375" stroke-width="4" stroke="black" fill="dimgray" stroke-linecap="round" />
<path d="M818.75 84.375 Q838.75 91.875 818.75 99.375" stroke-width="4" stroke="black" fill="none" stroke-linecap="round" />
<path d="M793.75 97.5 L821.25 97.5 L821.25 142.5 L793.75 142.5 Z" stroke-width="0.5" stroke="black" stroke-linejoin="round" fill="#000000" fill-opacity="1" />
<path d="M638.5 85.875 Q661.25 108.375 671.25 85.875 Z" stroke-width="3" stroke="#000000" fill="#000000" stroke-linecap="round" />
<line x1="636.25" y1="84.375" x2="818.75" y2="84.375" stroke-width="3" stroke="#000000" fill="#000000" stroke-linecap="round" />
<path d="M818.75 84.375 Q838.75 91.875 818.75 99.375" stroke-width="3" stroke="#000000" fill="none" stroke-linecap="round" />
<path d="M821.25 100 L841.25 100 L841.25 140 L821.25 140 Z" stroke-width="0.5" stroke="black" stroke-linejoin="round" fill="#000000" fill-opacity="1" />
<path d="M841.25 99.375 L888.75 99.375 L888.75 140.625 L841.25 140.625 Z" stroke-width="0.5" stroke="black" stroke-linejoin="round" fill="#000000" fill-opacity="1" />
<path d="M841.25 99.375 L888.75 99.375 L888.75 140.625 L841.25 140.625 Z" stroke-width="1.0" stroke="black" fill="url(#diagonalHatch)"/>
<rect x="851.25" y="109.6875" width="27.5" height="20.625" rx="3" ry="3" stroke-width="1" stroke="black" fill="#000000"/>
<text x="865" y="120" text-anchor="middle" dominant-baseline="central"><tspan stroke="dimgray" stroke-width="0.5" font-family="sans-serif" fill="black" textLength="{this.width * 5 - 24}" > HB</tspan></text><path d="M888.75 100 L893.75 100 L893.75 140 L888.75 140 Z" stroke-width="0.5" stroke="black" stroke-linejoin="round" fill="#000000" fill-opacity="1" />
<path d="M893.75 100 L900 100 L900 140 L893.75 140 Z" stroke-width="0.5" stroke="black" stroke-linejoin="round" fill="white" fill-opacity="1" />
<path d="M900 100 L906.25 100 L906.25 140 L900 140 Z" stroke-width="0.5" stroke="black" stroke-linejoin="round" fill="#000000" fill-opacity="1" />
<path d="M906.25 106.25 L936.25 106.25 L936.25 133.75 L906.25 133.75 Z" stroke-width="0.5" stroke="black" stroke-linejoin="round" fill="#000000" fill-opacity="1" />
<path d="M936.25 107.5 L940 107.5 L940 132.5 L936.25 132.5 Z" stroke-width="0.5" stroke="black" stroke-linejoin="round" fill="#000000" fill-opacity="1" />
<path d="M940 106.25 L947.5 106.25 L947.5 133.75 L940 133.75 Z" stroke-width="0.5" stroke="black" stroke-linejoin="round" fill="#000000" fill-opacity="1" />
<path d="M947.5 107.5 L951.25 107.5 L951.25 132.5 L947.5 132.5 Z" stroke-width="0.5" stroke="black" stroke-linejoin="round" fill="#000000" fill-opacity="1" />
<path d="M951.25 106.25 L958.75 106.25 L958.75 133.75 L951.25 133.75 Z" stroke-width="0.5" stroke="black" stroke-linejoin="round" fill="#000000" fill-opacity="1" />
<path d="M958.75 107.5 L962.5 107.5 L962.5 132.5 L958.75 132.5 Z" stroke-width="0.5" stroke="black" stroke-linejoin="round" fill="#000000" fill-opacity="1" />
<path d="M962.5 106.25 L971.25 106.25 L971.25 133.75 L962.5 133.75 Z" stroke-width="0.5" stroke="black" stroke-linejoin="round" fill="#000000" fill-opacity="1" />
</g><text x="50%" y="189" font-size="1.1em" font-weight="bold" text-anchor="middle" dominant-baseline="middle">Copyright (c) // The Mechanical Pencil Database (tmpdb) // Licensed under Creative Commons Attribution-NonCommercial-ShareAlike 4.0 International</text>
<text x="1190" y="199" font-size="0.5em" font-weight="bold" text-anchor="end" dominant-baseline="middle">SVGTechnicalExplodedRenderer</text>
</svg>