<svg xmlns="http://www.w3.org/2000/svg" width="1200" height="500">
 <pattern id="diagonalHatch" patternUnits="userSpaceOnUse" width="8" height="8">
<path stroke="dimgray" stroke-linecap="round" stroke-width="1" d="M 4,4 L 8,8"/>
<path stroke="dimgray" stroke-linecap="round" stroke-width="1" d="M 4,4 L 0,8"/>
<path stroke="gray" stroke-linecap="round" stroke-width="1" d="M 4,4 L 8,0" />
<path stroke="gray" stroke-linecap="round" stroke-width="1" d="M 4,4 L 0,0" />
</pattern>
<pattern id="spring" patternUnits="userSpaceOnUse" width="8" height="100">
<path stroke="dimgray" stroke-linecap="round" stroke-width="2" d="M 0,0 L 8,100"/>
<path stroke="white" stroke-linecap="round" stroke-width="1" d="M 0,0 L 8,100"/>
</pattern>
<rect x="0" y="0" width="1200" height="500" fill="white" stroke="black" stroke-width="4" />
<rect x="2" y="2" width="1196" height="496" fill="white" stroke="dimgray" stroke-width="1" />
<g transform="rotate(0 0 0)">
<line x1="10" y1="250" x2="1190" y2="250" stroke-linecap="round" stroke="#000000" stroke-dasharray="2" stroke-width="1" />
<line x1="10" y1="250" x2="50" y2="250" stroke-linecap="round" stroke="#000000"  stroke-width="1" />
<line x1="30" y1="230" x2="30" y2="270" stroke="#000000" stroke-linecap="round"  stroke-width="1" />
<circle r="10" cx="30" cy="250" fill="none" stroke="#000000" stroke-width="1"  />
<line x1="1150" y1="250" x2="1190" y2="250" stroke-linecap="round" stroke="#000000"  stroke-width="1" />
<line x1="1170" y1="230" x2="1170" y2="270" stroke="#000000" stroke-linecap="round"  stroke-width="1" />
<circle r="10" cx="1170" cy="250" fill="none" stroke="#000000" stroke-width="1"  />
<line x1="600" y1="140" x2="600" y2="420" stroke="#000000" stroke-linecap="round" stroke-dasharray="2" stroke-width="1" />
<line x1="580" y1="150" x2="620" y2="150" stroke-linecap="round" stroke="#000000"  stroke-width="1" />
<line x1="600" y1="130" x2="600" y2="170" stroke="#000000" stroke-linecap="round"  stroke-width="1" />
<circle r="10" cx="600" cy="150" fill="none" stroke="#000000" stroke-width="1"  />
<line x1="580" y1="400" x2="620" y2="400" stroke-linecap="round" stroke="#000000"  stroke-width="1" />
<line x1="600" y1="380" x2="600" y2="420" stroke="#000000" stroke-linecap="round"  stroke-width="1" />
<circle r="10" cx="600" cy="400" fill="none" stroke="#000000" stroke-width="1"  />
<text x="30" y="50" font-size="2.0em" font-weight="bold"> Pacific Arc // H-1309 </text>
<line x1="228.75" y1="139.5" x2="228.75" y2="302" stroke="#cfcfcf" stroke-linecap="round"  stroke-width="1" />
<line x1="228.75" y1="130" x2="228.75" y2="250" stroke="#cfcfcf" stroke-linecap="round"  stroke-width="1" />
<line x1="240" y1="130" x2="240" y2="250" stroke="#cfcfcf" stroke-linecap="round"  stroke-width="1" />
<line x1="308.75" y1="130" x2="308.75" y2="250" stroke="#cfcfcf" stroke-linecap="round"  stroke-width="1" />
<line x1="456.25" y1="130" x2="456.25" y2="250" stroke="#cfcfcf" stroke-linecap="round"  stroke-width="1" />
<line x1="793.75" y1="130" x2="793.75" y2="250" stroke="#cfcfcf" stroke-linecap="round"  stroke-width="1" />
<line x1="638.75" y1="170" x2="638.75" y2="250" stroke="#cfcfcf" stroke-linecap="round"  stroke-width="1" />
<line x1="833.75" y1="170" x2="833.75" y2="250" stroke="#cfcfcf" stroke-linecap="round"  stroke-width="1" />
<line x1="821.25" y1="130" x2="821.25" y2="250" stroke="#cfcfcf" stroke-linecap="round"  stroke-width="1" />
<line x1="841.25" y1="130" x2="841.25" y2="250" stroke="#cfcfcf" stroke-linecap="round"  stroke-width="1" />
<line x1="888.75" y1="130" x2="888.75" y2="250" stroke="#cfcfcf" stroke-linecap="round"  stroke-width="1" />
<line x1="893.75" y1="130" x2="893.75" y2="250" stroke="#cfcfcf" stroke-linecap="round"  stroke-width="1" />
<line x1="900" y1="130" x2="900" y2="250" stroke="#cfcfcf" stroke-linecap="round"  stroke-width="1" />
<line x1="906.25" y1="130" x2="906.25" y2="250" stroke="#cfcfcf" stroke-linecap="round"  stroke-width="1" />
<line x1="971.25" y1="139.5" x2="971.25" y2="302" stroke="#cfcfcf" stroke-linecap="round"  stroke-width="1" />
<line x1="228.75" y1="119" x2="228.75" y2="141" stroke="black" stroke-width="1" />
<line x1="228.75" y1="130" x2="240" y2="130" stroke="black" stroke-width="1" />
<line x1="240" y1="119" x2="240" y2="141" stroke="black" stroke-width="1" />
<text x="234.375" y="111" font-size="1.2em" transform="rotate(-90, 234.375, 111)" font-weight="bold" text-anchor="start" dominant-baseline="central" fill="black"><tspan x="234.375" dy="0">jaws</tspan></text>
<line x1="240" y1="119" x2="240" y2="141" stroke="black" stroke-width="1" />
<line x1="240" y1="130" x2="308.75" y2="130" stroke="black" stroke-width="1" />
<line x1="308.75" y1="119" x2="308.75" y2="141" stroke="black" stroke-width="1" />
<text x="274.375" y="111" font-size="1.2em" transform="rotate(-90, 274.375, 111)" font-weight="bold" text-anchor="start" dominant-baseline="central" fill="black"><tspan x="274.375" dy="0">tip</tspan></text>
<line x1="308.75" y1="119" x2="308.75" y2="141" stroke="black" stroke-width="1" />
<line x1="308.75" y1="130" x2="456.25" y2="130" stroke="black" stroke-width="1" />
<line x1="456.25" y1="119" x2="456.25" y2="141" stroke="black" stroke-width="1" />
<text x="382.5" y="111" font-size="1.2em" transform="rotate(-90, 382.5, 111)" font-weight="bold" text-anchor="start" dominant-baseline="central" fill="black"><tspan x="382.5" dy="0">grip</tspan></text>
<line x1="456.25" y1="119" x2="456.25" y2="141" stroke="black" stroke-width="1" />
<line x1="456.25" y1="130" x2="793.75" y2="130" stroke="black" stroke-width="1" />
<line x1="793.75" y1="119" x2="793.75" y2="141" stroke="black" stroke-width="1" />
<text x="625" y="111" font-size="1.2em" transform="rotate(-90, 625, 111)" font-weight="bold" text-anchor="start" dominant-baseline="central" fill="black"><tspan x="625" dy="0">body</tspan></text>
<line x1="793.75" y1="119" x2="793.75" y2="141" stroke="black" stroke-width="1" />
<line x1="793.75" y1="130" x2="821.25" y2="130" stroke="black" stroke-width="1" />
<line x1="821.25" y1="119" x2="821.25" y2="141" stroke="black" stroke-width="1" />
<text x="807.5" y="111" font-size="1.2em" transform="rotate(-90, 807.5, 111)" font-weight="bold" text-anchor="start" dominant-baseline="central" fill="black"><tspan x="807.5" dy="0">clip</tspan></text>
<line x1="611.25" y1="159" x2="611.25" y2="181" stroke="black" stroke-width="1" />
<line x1="611.25" y1="170" x2="806.25" y2="170" stroke="black" stroke-width="1" />
<line x1="806.25" y1="159" x2="806.25" y2="181" stroke="black" stroke-width="1" />
<text x="708.75" y="151" font-size="1.2em" font-weight="bold" text-anchor="middle" dominant-baseline="central" fill="black"><tspan x="708.75" dy="0">clip (extra)</tspan></text>
<line x1="821.25" y1="119" x2="821.25" y2="141" stroke="black" stroke-width="1" />
<line x1="821.25" y1="130" x2="841.25" y2="130" stroke="black" stroke-width="1" />
<line x1="841.25" y1="119" x2="841.25" y2="141" stroke="black" stroke-width="1" />
<text x="831.25" y="111" font-size="1.2em" transform="rotate(-90, 831.25, 111)" font-weight="bold" text-anchor="start" dominant-baseline="central" fill="black"><tspan x="831.25" dy="0">tail</tspan></text>
<line x1="841.25" y1="119" x2="841.25" y2="141" stroke="black" stroke-width="1" />
<line x1="841.25" y1="130" x2="888.75" y2="130" stroke="black" stroke-width="1" />
<line x1="888.75" y1="119" x2="888.75" y2="141" stroke="black" stroke-width="1" />
<text x="865" y="111" font-size="1.2em" transform="rotate(-90, 865, 111)" font-weight="bold" text-anchor="start" dominant-baseline="central" fill="black"><tspan x="865" dy="0">indicator</tspan></text>
<line x1="888.75" y1="119" x2="888.75" y2="141" stroke="black" stroke-width="1" />
<line x1="888.75" y1="130" x2="893.75" y2="130" stroke="black" stroke-width="1" />
<line x1="893.75" y1="119" x2="893.75" y2="141" stroke="black" stroke-width="1" />
<text x="891.25" y="111" font-size="1.2em" transform="rotate(-90, 891.25, 111)" font-weight="bold" text-anchor="start" dominant-baseline="central" fill="black"><tspan x="891.25" dy="0">foot</tspan></text>
<line x1="893.75" y1="119" x2="893.75" y2="141" stroke="black" stroke-width="1" />
<line x1="893.75" y1="130" x2="900" y2="130" stroke="black" stroke-width="1" />
<line x1="900" y1="119" x2="900" y2="141" stroke="black" stroke-width="1" />
<text x="896.875" y="111" font-size="1.2em" transform="rotate(-90, 896.875, 111)" font-weight="bold" text-anchor="start" dominant-baseline="central" fill="black"><tspan x="896.875" dy="0">ring</tspan></text>
<line x1="900" y1="119" x2="900" y2="141" stroke="black" stroke-width="1" />
<line x1="900" y1="130" x2="906.25" y2="130" stroke="black" stroke-width="1" />
<line x1="906.25" y1="119" x2="906.25" y2="141" stroke="black" stroke-width="1" />
<text x="903.125" y="111" font-size="1.2em" transform="rotate(-90, 903.125, 111)" font-weight="bold" text-anchor="start" dominant-baseline="central" fill="black"><tspan x="903.125" dy="0">foot</tspan></text>
<line x1="906.25" y1="119" x2="906.25" y2="141" stroke="black" stroke-width="1" />
<line x1="906.25" y1="130" x2="971.25" y2="130" stroke="black" stroke-width="1" />
<line x1="971.25" y1="119" x2="971.25" y2="141" stroke="black" stroke-width="1" />
<text x="938.75" y="111" font-size="1.2em" transform="rotate(-90, 938.75, 111)" font-weight="bold" text-anchor="start" dominant-baseline="central" fill="black"><tspan x="938.75" dy="0">cap</tspan></text>
<line x1="228.75" y1="291.5" x2="228.75" y2="313.5" stroke="black" stroke-width="1" />
<line x1="228.75" y1="302.5" x2="971.25" y2="302.5" stroke="black" stroke-width="1" />
<line x1="971.25" y1="291.5" x2="971.25" y2="313.5" stroke="black" stroke-width="1" />
<path d="M228.75 241.875 L240 240 L240 260 L228.75 258.125 Z" stroke-width="0.5" stroke="#888888" stroke-linejoin="round" fill="white" />
<path d="M240 236.875 L308.75 229.375 L308.75 270.625 L240 263.125 Z" stroke-width="0.5" stroke="#888888" stroke-linejoin="round" fill="white" />
<rect x="308.75" y="229.375" width="147.5" height="41.25" rx="1" ry="1" stroke-width="0.5" stroke="#888888" fill="white"/>
<rect x="308.75" y="229.375" width="147.5" height="41.25" rx="1" ry="1" stroke-width="0.5" stroke="black" fill="url(#diagonalHatch)"/>
<rect x="456.25" y="230" width="337.5" height="40" rx="1" ry="1" stroke-width="0.5" stroke="#888888" fill="white"/>
<line x1="456.25" y1="250" x2="793.75" y2="250" stroke-width="1.5" stroke="black" fill="none" stroke-opacity="0.5"/>
<line x1="456.25" y1="250" x2="793.75" y2="250" stroke-width="0.5" stroke="gray" fill="none" stroke-opacity="0.5"/>
<rect x="793.75" y="227.5" width="27.5" height="45" rx="1" ry="1" stroke-width="0.5" stroke="#888888" fill="white"/>
<path d="M641 216.25 Q663.75 239.75 673.75 216.25 Z" stroke-width="3" stroke="black" fill="dimgray" stroke-linecap="round" />
<line x1="638.75" y1="214.75" x2="821.25" y2="214.75" stroke-width="3" stroke="black" fill="dimgray" stroke-linecap="round" />
/><path d="M821.25 214.75 Q841.25 222.25 821.25 229.75" stroke-width="3" stroke="black" fill="none" stroke-linecap="round" />
<path d="M641 216.25 Q663.75 238.75 673.75 216.25 Z" stroke-width="2" stroke="white" fill="white" stroke-linecap="round" />
<line x1="638.75" y1="214.75" x2="821.25" y2="214.75" stroke-width="2" stroke="white" fill="white" stroke-linecap="round" />
/><path d="M821.25 214.75 Q841.25 222.25 821.25 229.75" stroke-width="2" stroke="white" fill="none" stroke-linecap="round" />
<rect x="821.25" y="230" width="20" height="40" rx="1" ry="1" stroke-width="0.5" stroke="#888888" fill="white"/>
<rect x="841.25" y="229.375" width="47.5" height="41.25" rx="1" ry="1" stroke-width="0.5" stroke="#888888" fill="white"/>
<rect x="841.25" y="229.375" width="47.5" height="41.25" rx="1" ry="1" stroke-width="0.5" stroke="black" fill="url(#diagonalHatch)"/>
<rect x="851.25" y="239.6875" width="27.5" height="20.625" rx="1" ry="1" stroke-width="2" stroke="black" fill="white"/>
<text x="865" y="250" text-anchor="middle" dominant-baseline="central"><tspan stroke="dimgray" stroke-width="0.5" font-family="sans-serif" fill="black" textLength="{this.width * 5 - 24}" > HB</tspan></text><rect x="888.75" y="230" width="5" height="40" rx="1" ry="1" stroke-width="0.5" stroke="#888888" fill="white"/>
<rect x="893.75" y="230" width="6.25" height="40" rx="1" ry="1" stroke-width="0.5" stroke="black" fill="white"/>
<rect x="900" y="230" width="6.25" height="40" rx="1" ry="1" stroke-width="0.5" stroke="#888888" fill="white"/>
<rect x="906.25" y="236.25" width="30" height="27.5" rx="1" ry="1" stroke-width="0.5" stroke="#888888" fill="white"/>
<rect x="936.25" y="237.5" width="3.75" height="25" rx="1" ry="1" stroke-width="0.5" stroke="#888888" fill="white"/>
<rect x="940" y="236.25" width="7.5" height="27.5" rx="1" ry="1" stroke-width="0.5" stroke="#888888" fill="white"/>
<rect x="947.5" y="237.5" width="3.75" height="25" rx="1" ry="1" stroke-width="0.5" stroke="#888888" fill="white"/>
<rect x="951.25" y="236.25" width="7.5" height="27.5" rx="1" ry="1" stroke-width="0.5" stroke="#888888" fill="white"/>
<rect x="958.75" y="237.5" width="3.75" height="25" rx="1" ry="1" stroke-width="0.5" stroke="#888888" fill="white"/>
<rect x="962.5" y="236.25" width="8.75" height="27.5" rx="1" ry="1" stroke-width="0.5" stroke="#888888" fill="white"/>
</g><text x="50%" y="480" font-size="1.1em" font-weight="bold" text-anchor="middle" dominant-baseline="middle">Copyright (c) // The Mechanical Pencil Database (tmpdb) // Licensed under Creative Commons Attribution-NonCommercial-ShareAlike 4.0 International</text>
<text x="1190" y="490" font-size="0.5em" font-weight="bold" text-anchor="end" dominant-baseline="middle"></text>
</svg>