<svg xmlns="http://www.w3.org/2000/svg" width="1500" height="600">
 <pattern id="diagonalHatch" patternUnits="userSpaceOnUse" width="8" height="8">
<path stroke="dimgray" stroke-linecap="round" stroke-width="1" d="M 4,4 L 8,8"/>
<path stroke="dimgray" stroke-linecap="round" stroke-width="1" d="M 4,4 L 0,8"/>
<path stroke="gray" stroke-linecap="round" stroke-width="1" d="M 4,4 L 8,0" />
<path stroke="gray" stroke-linecap="round" stroke-width="1" d="M 4,4 L 0,0" />
</pattern>
<pattern id="spring" patternUnits="userSpaceOnUse" width="8" height="100">
<path stroke="dimgray" stroke-linecap="round" stroke-width="2" d="M 0,0 L 8,100"/>
<path stroke="white" stroke-linecap="round" stroke-width="1" d="M 0,0 L 8,100"/>
</pattern>
<rect x="0" y="0" width="1500" height="600" fill="white" stroke="black" stroke-width="4" />
<rect x="2" y="2" width="1496" height="596" fill="white" stroke="dimgray" stroke-width="1" />
<g transform="rotate(0 0 0)">
<line x1="10" y1="300" x2="1490" y2="300" stroke-linecap="round" stroke="#000000" stroke-dasharray="2" stroke-width="1" />
<line x1="10" y1="300" x2="50" y2="300" stroke-linecap="round" stroke="#000000"  stroke-width="1" />
<line x1="30" y1="280" x2="30" y2="320" stroke="#000000" stroke-linecap="round"  stroke-width="1" />
<circle r="10" cx="30" cy="300" fill="none" stroke="#000000" stroke-width="1"  />
<line x1="1450" y1="300" x2="1490" y2="300" stroke-linecap="round" stroke="#000000"  stroke-width="1" />
<line x1="1470" y1="280" x2="1470" y2="320" stroke="#000000" stroke-linecap="round"  stroke-width="1" />
<circle r="10" cx="1470" cy="300" fill="none" stroke="#000000" stroke-width="1"  />
<line x1="160" y1="140" x2="160" y2="520" stroke="#000000" stroke-linecap="round" stroke-dasharray="2" stroke-width="1" />
<line x1="140" y1="150" x2="180" y2="150" stroke-linecap="round" stroke="#000000"  stroke-width="1" />
<line x1="160" y1="130" x2="160" y2="170" stroke="#000000" stroke-linecap="round"  stroke-width="1" />
<circle r="10" cx="160" cy="150" fill="none" stroke="#000000" stroke-width="1"  />
<line x1="140" y1="500" x2="180" y2="500" stroke-linecap="round" stroke="#000000"  stroke-width="1" />
<line x1="160" y1="480" x2="160" y2="520" stroke="#000000" stroke-linecap="round"  stroke-width="1" />
<circle r="10" cx="160" cy="500" fill="none" stroke="#000000" stroke-width="1"  />
<line x1="750" y1="140" x2="750" y2="520" stroke="#000000" stroke-linecap="round" stroke-dasharray="2" stroke-width="1" />
<line x1="730" y1="150" x2="770" y2="150" stroke-linecap="round" stroke="#000000"  stroke-width="1" />
<line x1="750" y1="130" x2="750" y2="170" stroke="#000000" stroke-linecap="round"  stroke-width="1" />
<circle r="10" cx="750" cy="150" fill="none" stroke="#000000" stroke-width="1"  />
<line x1="730" y1="500" x2="770" y2="500" stroke-linecap="round" stroke="#000000"  stroke-width="1" />
<line x1="750" y1="480" x2="750" y2="520" stroke="#000000" stroke-linecap="round"  stroke-width="1" />
<circle r="10" cx="750" cy="500" fill="none" stroke="#000000" stroke-width="1"  />
<line x1="1400" y1="140" x2="1400" y2="520" stroke="#000000" stroke-linecap="round" stroke-dasharray="2" stroke-width="1" />
<line x1="1380" y1="150" x2="1420" y2="150" stroke-linecap="round" stroke="#000000"  stroke-width="1" />
<line x1="1400" y1="130" x2="1400" y2="170" stroke="#000000" stroke-linecap="round"  stroke-width="1" />
<circle r="10" cx="1400" cy="150" fill="none" stroke="#000000" stroke-width="1"  />
<line x1="1380" y1="500" x2="1420" y2="500" stroke-linecap="round" stroke="#000000"  stroke-width="1" />
<line x1="1400" y1="480" x2="1400" y2="520" stroke="#000000" stroke-linecap="round"  stroke-width="1" />
<circle r="10" cx="1400" cy="500" fill="none" stroke="#000000" stroke-width="1"  />
<text x="30" y="50" font-size="2.0em" font-weight="bold"> Pacific Arc // H-1309 </text>
<text x="30" y="80" font-size="1.1em"> PACIFIC ARC H-1309</text>
<text x="30" y="100" font-size="1.1em"> Lead size: 2.0 mm</text>
<text x="1480" y="30" font-size="1.6em" font-weight="bold" text-anchor="end" dominant-baseline="central">Colour variants of the body</text>
<rect x="1440" y="55" width="40" rx="50%" ry="50%" height="40" stroke="black" stroke-width="2" fill="#000000" />
<text x="1460" y="100" transform="rotate(-90, 1460, 100)" font-size="1.2em" font-weight="bold" text-anchor="end" dominant-baseline="central">black</text>
<rect x="1380" y="55" width="40" rx="50%" ry="50%" height="40" stroke="black" stroke-width="2" fill="#b4b8b9" />
<text x="1400" y="100" transform="rotate(-90, 1400, 100)" font-size="1.2em" font-weight="bold" text-anchor="end" dominant-baseline="central">silver</text>
<text x="30" y="136" font-size="1.2em" font-weight="bold" text-anchor="start" dominant-baseline="central">Materials:</text>
<text x="50" y="156" font-size="1.2em" text-anchor="start" dominant-baseline="central"> - metal</text>
<text x="50" y="176" font-size="1.2em" text-anchor="start" dominant-baseline="central"> - plastic</text>
<text x="50" y="196" font-size="1.2em" text-anchor="start" dominant-baseline="central"> - rubber</text>
<line x1="100" y1="277.5" x2="1400" y2="277.5" stroke-linecap="round" stroke="#cfcfcf"  stroke-width="1" />
<line x1="100" y1="322.5" x2="1400" y2="322.5" stroke-linecap="round" stroke="#cfcfcf"  stroke-width="1" />
<line x1="137.5" y1="300" x2="137.5" y2="342.5" stroke="#cfcfcf" stroke-linecap="round"  stroke-width="1" />
<line x1="182.5" y1="300" x2="182.5" y2="342.5" stroke="#cfcfcf" stroke-linecap="round"  stroke-width="1" />
<line x1="281.25" y1="180" x2="281.25" y2="420" stroke="#cfcfcf" stroke-linecap="round"  stroke-width="1" />
<line x1="292.5" y1="180" x2="292.5" y2="420" stroke="#cfcfcf" stroke-linecap="round"  stroke-width="1" />
<line x1="361.25" y1="180" x2="361.25" y2="420" stroke="#cfcfcf" stroke-linecap="round"  stroke-width="1" />
<line x1="508.75" y1="180" x2="508.75" y2="420" stroke="#cfcfcf" stroke-linecap="round"  stroke-width="1" />
<line x1="846.25" y1="180" x2="846.25" y2="420" stroke="#cfcfcf" stroke-linecap="round"  stroke-width="1" />
<line x1="1068.75" y1="180" x2="1068.75" y2="420" stroke="#cfcfcf" stroke-linecap="round"  stroke-width="1" />
<line x1="1088.75" y1="180" x2="1088.75" y2="420" stroke="#cfcfcf" stroke-linecap="round"  stroke-width="1" />
<line x1="1136.25" y1="180" x2="1136.25" y2="420" stroke="#cfcfcf" stroke-linecap="round"  stroke-width="1" />
<line x1="1141.25" y1="180" x2="1141.25" y2="420" stroke="#cfcfcf" stroke-linecap="round"  stroke-width="1" />
<line x1="1147.5" y1="180" x2="1147.5" y2="420" stroke="#cfcfcf" stroke-linecap="round"  stroke-width="1" />
<line x1="1153.75" y1="180" x2="1153.75" y2="420" stroke="#cfcfcf" stroke-linecap="round"  stroke-width="1" />
<line x1="1218.75" y1="189.5" x2="1218.75" y2="397.5" stroke="#cfcfcf" stroke-linecap="round"  stroke-width="1" />
<text x="160" y="540" font-size="1.8em" font-weight="bold" text-anchor="middle" dominant-baseline="central">Front</text>
<text x="750" y="540" font-size="1.8em" font-weight="bold" text-anchor="middle" dominant-baseline="central">Side view</text>
<text x="1400" y="540" font-size="1.8em" font-weight="bold" text-anchor="middle" dominant-baseline="central">Back</text>
<line x1="99" y1="277.5" x2="121" y2="277.5" stroke="black" stroke-width="1" />
<line x1="110" y1="277.5" x2="110" y2="322.5" stroke="black" stroke-width="1" />
<line x1="99" y1="322.5" x2="121" y2="322.5" stroke="black" stroke-width="1" />
<text x="91" y="300" transform="rotate(-90, 91, 300)" font-size="1.2em" font-weight="bold" text-anchor="middle" dominant-baseline="central" fill="black">9.00 mm</text>
<line x1="137.5" y1="341.5" x2="137.5" y2="363.5" stroke="black" stroke-width="1" />
<line x1="137.5" y1="352.5" x2="182.5" y2="352.5" stroke="black" stroke-width="1" />
<line x1="182.5" y1="341.5" x2="182.5" y2="363.5" stroke="black" stroke-width="1" />
<text x="160" y="371.5" font-size="1.2em" font-weight="bold" text-anchor="middle" dominant-baseline="central" fill="black"><tspan x="160" dy="0">9.00 mm</tspan></text>
<line x1="281.25" y1="169" x2="281.25" y2="191" stroke="black" stroke-width="1" />
<line x1="281.25" y1="180" x2="292.5" y2="180" stroke="black" stroke-width="1" />
<line x1="292.5" y1="169" x2="292.5" y2="191" stroke="black" stroke-width="1" />
<text x="286.875" y="161" font-size="1.2em" transform="rotate(-90, 286.875, 161)" font-weight="bold" text-anchor="start" dominant-baseline="central" fill="black"><tspan x="286.875" dy="0">2.25 mm jaws</tspan></text>
<line x1="292.5" y1="169" x2="292.5" y2="191" stroke="black" stroke-width="1" />
<line x1="292.5" y1="180" x2="361.25" y2="180" stroke="black" stroke-width="1" />
<line x1="361.25" y1="169" x2="361.25" y2="191" stroke="black" stroke-width="1" />
<text x="326.875" y="161" font-size="1.2em" transform="rotate(-90, 314.875, 161)" font-weight="bold" text-anchor="start" dominant-baseline="central" fill="black"><tspan x="318.875" dy="0">13.75 mm</tspan><tspan x="318.875" dy="1em">tip</tspan></text>
<line x1="361.25" y1="169" x2="361.25" y2="191" stroke="black" stroke-width="1" />
<line x1="361.25" y1="180" x2="508.75" y2="180" stroke="black" stroke-width="1" />
<line x1="508.75" y1="169" x2="508.75" y2="191" stroke="black" stroke-width="1" />
<text x="435" y="161" font-size="1.2em" transform="rotate(-90, 423, 161)" font-weight="bold" text-anchor="start" dominant-baseline="central" fill="black"><tspan x="427" dy="0">29.50 mm</tspan><tspan x="427" dy="1em">grip</tspan></text>
<line x1="508.75" y1="169" x2="508.75" y2="191" stroke="black" stroke-width="1" />
<line x1="508.75" y1="180" x2="846.25" y2="180" stroke="black" stroke-width="1" />
<line x1="846.25" y1="169" x2="846.25" y2="191" stroke="black" stroke-width="1" />
<text x="677.5" y="161" font-size="1.2em" transform="rotate(-90, 665.5, 161)" font-weight="bold" text-anchor="start" dominant-baseline="central" fill="black"><tspan x="669.5" dy="0">67.50 mm</tspan><tspan x="669.5" dy="1em">body</tspan></text>
<line x1="846.25" y1="169" x2="846.25" y2="191" stroke="black" stroke-width="1" />
<line x1="846.25" y1="180" x2="1068.75" y2="180" stroke="black" stroke-width="1" />
<line x1="1068.75" y1="169" x2="1068.75" y2="191" stroke="black" stroke-width="1" />
<text x="957.5" y="161" font-size="1.2em" transform="rotate(-90, 945.5, 161)" font-weight="bold" text-anchor="start" dominant-baseline="central" fill="black"><tspan x="949.5" dy="0">44.50 mm</tspan><tspan x="949.5" dy="1em">clip</tspan></text>
<line x1="1068.75" y1="169" x2="1068.75" y2="191" stroke="black" stroke-width="1" />
<line x1="1068.75" y1="180" x2="1088.75" y2="180" stroke="black" stroke-width="1" />
<line x1="1088.75" y1="169" x2="1088.75" y2="191" stroke="black" stroke-width="1" />
<text x="1078.75" y="161" font-size="1.2em" transform="rotate(-90, 1078.75, 161)" font-weight="bold" text-anchor="start" dominant-baseline="central" fill="black"><tspan x="1078.75" dy="0">4.00 mm tail</tspan></text>
<line x1="1088.75" y1="169" x2="1088.75" y2="191" stroke="black" stroke-width="1" />
<line x1="1088.75" y1="180" x2="1136.25" y2="180" stroke="black" stroke-width="1" />
<line x1="1136.25" y1="169" x2="1136.25" y2="191" stroke="black" stroke-width="1" />
<text x="1112.5" y="161" font-size="1.2em" transform="rotate(-90, 1100.5, 161)" font-weight="bold" text-anchor="start" dominant-baseline="central" fill="black"><tspan x="1104.5" dy="0">9.50 mm</tspan><tspan x="1104.5" dy="1em">indicator</tspan></text>
<line x1="1136.25" y1="169" x2="1136.25" y2="191" stroke="black" stroke-width="1" />
<line x1="1136.25" y1="180" x2="1141.25" y2="180" stroke="black" stroke-width="1" />
<line x1="1141.25" y1="169" x2="1141.25" y2="191" stroke="black" stroke-width="1" />
<text x="1138.75" y="161" font-size="1.2em" transform="rotate(-90, 1138.75, 161)" font-weight="bold" text-anchor="start" dominant-baseline="central" fill="black"><tspan x="1138.75" dy="0">1.00 mm foot</tspan></text>
<line x1="1141.25" y1="169" x2="1141.25" y2="191" stroke="black" stroke-width="1" />
<line x1="1141.25" y1="180" x2="1147.5" y2="180" stroke="black" stroke-width="1" />
<line x1="1147.5" y1="169" x2="1147.5" y2="191" stroke="black" stroke-width="1" />
<text x="1144.375" y="161" font-size="1.2em" transform="rotate(-90, 1144.375, 161)" font-weight="bold" text-anchor="start" dominant-baseline="central" fill="black"><tspan x="1144.375" dy="0">1.25 mm ring</tspan></text>
<line x1="1147.5" y1="169" x2="1147.5" y2="191" stroke="black" stroke-width="1" />
<line x1="1147.5" y1="180" x2="1153.75" y2="180" stroke="black" stroke-width="1" />
<line x1="1153.75" y1="169" x2="1153.75" y2="191" stroke="black" stroke-width="1" />
<text x="1150.625" y="161" font-size="1.2em" transform="rotate(-90, 1150.625, 161)" font-weight="bold" text-anchor="start" dominant-baseline="central" fill="black"><tspan x="1150.625" dy="0">1.25 mm foot</tspan></text>
<line x1="1153.75" y1="169" x2="1153.75" y2="191" stroke="black" stroke-width="1" />
<line x1="1153.75" y1="180" x2="1218.75" y2="180" stroke="black" stroke-width="1" />
<line x1="1218.75" y1="169" x2="1218.75" y2="191" stroke="black" stroke-width="1" />
<text x="1186.25" y="161" font-size="1.2em" transform="rotate(-90, 1174.25, 161)" font-weight="bold" text-anchor="start" dominant-baseline="central" fill="black"><tspan x="1178.25" dy="0">13.00 mm</tspan><tspan x="1178.25" dy="1em">cap</tspan></text>
<line x1="281.25" y1="341.5" x2="281.25" y2="363.5" stroke="black" stroke-width="1" />
<line x1="281.25" y1="352.5" x2="1218.75" y2="352.5" stroke="black" stroke-width="1" />
<line x1="1218.75" y1="341.5" x2="1218.75" y2="363.5" stroke="black" stroke-width="1" />
<text x="750" y="352.5" font-weight="bold" font-size="1.2em" text-anchor="middle" dominant-baseline="middle" fill="black"><tspan x="750" dy="0">187.50 mm</tspan></text>
<line x1="281.25" y1="409" x2="281.25" y2="431" stroke="black" stroke-width="1" />
<line x1="281.25" y1="420" x2="292.5" y2="420" stroke="black" stroke-width="1" />
<line x1="292.5" y1="409" x2="292.5" y2="431" stroke="black" stroke-width="1" />
<text x="286.875" y="439" font-size="1.2em" transform="rotate(-90, 286.875, 439)"  text-anchor="end" dominant-baseline="middle" fill="black"><tspan x="286.875" dy="0">metal</tspan></text>
<line x1="292.5" y1="409" x2="292.5" y2="431" stroke="black" stroke-width="1" />
<line x1="292.5" y1="420" x2="361.25" y2="420" stroke="black" stroke-width="1" />
<line x1="361.25" y1="409" x2="361.25" y2="431" stroke="black" stroke-width="1" />
<text x="326.875" y="439" font-size="1.2em" transform="rotate(-90, 326.875, 439)"  text-anchor="end" dominant-baseline="middle" fill="black"><tspan x="326.875" dy="0">metal</tspan></text>
<line x1="361.25" y1="409" x2="361.25" y2="431" stroke="black" stroke-width="1" />
<line x1="361.25" y1="420" x2="508.75" y2="420" stroke="black" stroke-width="1" />
<line x1="508.75" y1="409" x2="508.75" y2="431" stroke="black" stroke-width="1" />
<text x="435" y="439" font-size="1.2em" transform="rotate(-90, 435, 439)"  text-anchor="end" dominant-baseline="middle" fill="black"><tspan x="435" dy="0">metal</tspan></text>
<line x1="508.75" y1="409" x2="508.75" y2="431" stroke="black" stroke-width="1" />
<line x1="508.75" y1="420" x2="846.25" y2="420" stroke="black" stroke-width="1" />
<line x1="846.25" y1="409" x2="846.25" y2="431" stroke="black" stroke-width="1" />
<text x="677.5" y="439" font-size="1.2em" transform="rotate(-90, 677.5, 439)"  text-anchor="end" dominant-baseline="middle" fill="black"><tspan x="677.5" dy="0">metal</tspan></text>
<line x1="846.25" y1="409" x2="846.25" y2="431" stroke="black" stroke-width="1" />
<line x1="846.25" y1="420" x2="1068.75" y2="420" stroke="black" stroke-width="1" />
<line x1="1068.75" y1="409" x2="1068.75" y2="431" stroke="black" stroke-width="1" />
<text x="957.5" y="439" font-size="1.2em" transform="rotate(-90, 957.5, 439)"  text-anchor="end" dominant-baseline="middle" fill="black"><tspan x="957.5" dy="0">metal</tspan></text>
<line x1="1068.75" y1="409" x2="1068.75" y2="431" stroke="black" stroke-width="1" />
<line x1="1068.75" y1="420" x2="1088.75" y2="420" stroke="black" stroke-width="1" />
<line x1="1088.75" y1="409" x2="1088.75" y2="431" stroke="black" stroke-width="1" />
<text x="1078.75" y="439" font-size="1.2em" transform="rotate(-90, 1078.75, 439)"  text-anchor="end" dominant-baseline="middle" fill="black"><tspan x="1078.75" dy="0">metal</tspan></text>
<line x1="1088.75" y1="409" x2="1088.75" y2="431" stroke="black" stroke-width="1" />
<line x1="1088.75" y1="420" x2="1136.25" y2="420" stroke="black" stroke-width="1" />
<line x1="1136.25" y1="409" x2="1136.25" y2="431" stroke="black" stroke-width="1" />
<text x="1112.5" y="439" font-size="1.2em" transform="rotate(-90, 1112.5, 439)"  text-anchor="end" dominant-baseline="middle" fill="black"><tspan x="1112.5" dy="0">plastic</tspan></text>
<line x1="1136.25" y1="409" x2="1136.25" y2="431" stroke="black" stroke-width="1" />
<line x1="1136.25" y1="420" x2="1141.25" y2="420" stroke="black" stroke-width="1" />
<line x1="1141.25" y1="409" x2="1141.25" y2="431" stroke="black" stroke-width="1" />
<text x="1138.75" y="439" font-size="1.2em" transform="rotate(-90, 1138.75, 439)"  text-anchor="end" dominant-baseline="middle" fill="black"><tspan x="1138.75" dy="0">metal</tspan></text>
<line x1="1141.25" y1="409" x2="1141.25" y2="431" stroke="black" stroke-width="1" />
<line x1="1141.25" y1="420" x2="1147.5" y2="420" stroke="black" stroke-width="1" />
<line x1="1147.5" y1="409" x2="1147.5" y2="431" stroke="black" stroke-width="1" />
<text x="1144.375" y="439" font-size="1.2em" transform="rotate(-90, 1144.375, 439)"  text-anchor="end" dominant-baseline="middle" fill="black"><tspan x="1144.375" dy="0">rubber</tspan></text>
<line x1="1147.5" y1="409" x2="1147.5" y2="431" stroke="black" stroke-width="1" />
<line x1="1147.5" y1="420" x2="1153.75" y2="420" stroke="black" stroke-width="1" />
<line x1="1153.75" y1="409" x2="1153.75" y2="431" stroke="black" stroke-width="1" />
<text x="1150.625" y="439" font-size="1.2em" transform="rotate(-90, 1150.625, 439)"  text-anchor="end" dominant-baseline="middle" fill="black"><tspan x="1150.625" dy="0">metal</tspan></text>
<line x1="1153.75" y1="409" x2="1153.75" y2="431" stroke="black" stroke-width="1" />
<line x1="1153.75" y1="420" x2="1218.75" y2="420" stroke="black" stroke-width="1" />
<line x1="1218.75" y1="409" x2="1218.75" y2="431" stroke="black" stroke-width="1" />
<text x="1186.25" y="439" font-size="1.2em" transform="rotate(-90, 1186.25, 439)"  text-anchor="end" dominant-baseline="middle" fill="black"><tspan x="1186.25" dy="0">plastic</tspan></text>
<line x1="1299" y1="279.375" x2="1321" y2="279.375" stroke="black" stroke-width="1" />
<line x1="1310" y1="279.375" x2="1310" y2="320.625" stroke="black" stroke-width="1" />
<line x1="1299" y1="320.625" x2="1321" y2="320.625" stroke="black" stroke-width="1" />
<text x="1291" y="300" transform="rotate(-90, 1291, 300)" font-size="1.2em" font-weight="bold" text-anchor="middle" dominant-baseline="central" fill="black">8.25 mm</text>
<line x1="1299" y1="279.375" x2="1321" y2="279.375" stroke="black" stroke-width="1" />
<line x1="1310" y1="279.375" x2="1310" y2="320.625" stroke="black" stroke-width="1" />
<line x1="1299" y1="320.625" x2="1321" y2="320.625" stroke="black" stroke-width="1" />
<text x="1310" y="328.625" transform="rotate(-90, 1310, 328.625)" font-weight="bold" font-size="1.2em" text-anchor="end" dominant-baseline="middle" fill="black">grip</text>
<line x1="1339" y1="280" x2="1361" y2="280" stroke="black" stroke-width="1" />
<line x1="1350" y1="280" x2="1350" y2="320" stroke="black" stroke-width="1" />
<line x1="1339" y1="320" x2="1361" y2="320" stroke="black" stroke-width="1" />
<text x="1331" y="300" transform="rotate(-90, 1331, 300)" font-size="1.2em" font-weight="bold" text-anchor="middle" dominant-baseline="central" fill="black">8 mm</text>
<line x1="1339" y1="280" x2="1361" y2="280" stroke="black" stroke-width="1" />
<line x1="1350" y1="280" x2="1350" y2="320" stroke="black" stroke-width="1" />
<line x1="1339" y1="320" x2="1361" y2="320" stroke="black" stroke-width="1" />
<text x="1350" y="328" transform="rotate(-90, 1350, 328)" font-weight="bold" font-size="1.2em" text-anchor="end" dominant-baseline="middle" fill="black">body</text>
<rect x="361.25" y="279.375" width="147.5" height="41.25" rx="1" ry="1" stroke-width="0.5" stroke="black" fill="url(#diagonalHatch)"/>
<rect x="1088.75" y="279.375" width="47.5" height="41.25" rx="1" ry="1" stroke-width="0.5" stroke="black" fill="url(#diagonalHatch)"/>
<circle r="5" cx="160" cy="300" fill="black" stroke="dimgray" stroke-width="0.5"  />
</g><text x="50%" y="580" font-size="1.1em" font-weight="bold" text-anchor="middle" dominant-baseline="middle">Copyright (c) // The Mechanical Pencil Database (tmpdb) // Licensed under Creative Commons Attribution-NonCommercial-ShareAlike 4.0 International</text>
<text x="1490" y="590" font-size="0.5em" font-weight="bold" text-anchor="end" dominant-baseline="middle">SVGTechnicalRenderer</text>
</svg>