<svg xmlns="http://www.w3.org/2000/svg" width="1000" height="200">
 <pattern id="diagonalHatch" patternUnits="userSpaceOnUse" width="8" height="8">
<path stroke="dimgray" stroke-linecap="round" stroke-width="1" d="M 4,4 L 8,8"/>
<path stroke="dimgray" stroke-linecap="round" stroke-width="1" d="M 4,4 L 0,8"/>
<path stroke="gray" stroke-linecap="round" stroke-width="1" d="M 4,4 L 8,0" />
<path stroke="gray" stroke-linecap="round" stroke-width="1" d="M 4,4 L 0,0" />
</pattern>
<pattern id="spring" patternUnits="userSpaceOnUse" width="8" height="100">
<path stroke="dimgray" stroke-linecap="round" stroke-width="2" d="M 0,0 L 8,100"/>
<path stroke="white" stroke-linecap="round" stroke-width="1" d="M 0,0 L 8,100"/>
</pattern>
<g transform="rotate(0 0 0)">
<path d="M128.75 91.875 L140 90 L140 110 L128.75 108.125 Z" stroke-width="0.5" stroke="black" stroke-linejoin="round" fill="white" />
<path d="M140 86.875 L208.75 79.375 L208.75 120.625 L140 113.125 Z" stroke-width="0.5" stroke="black" stroke-linejoin="round" fill="white" />
<rect x="208.75" y="79.375" width="147.5" height="41.25" rx="1" ry="1" stroke-width="0.5" stroke="black" fill="white"/>
<rect x="208.75" y="79.375" width="147.5" height="41.25" rx="1" ry="1" stroke-width="0.5" stroke="black" fill="url(#diagonalHatch)"/>
<rect x="356.25" y="80" width="337.5" height="40" rx="1" ry="1" stroke-width="0.5" stroke="black" fill="white"/>
<line x1="356.25" y1="100" x2="693.75" y2="100" stroke-width="1.5" stroke="black" fill="none" stroke-opacity="0.5"/>
<line x1="356.25" y1="100" x2="693.75" y2="100" stroke-width="0.5" stroke="gray" fill="none" stroke-opacity="0.5"/>
<rect x="693.75" y="77.5" width="27.5" height="45" rx="1" ry="1" stroke-width="0.5" stroke="black" fill="white"/>
<path d="M541 65.875 Q563.75 89.375 573.75 65.875 Z" stroke-width="3" stroke="black" fill="dimgray" stroke-linecap="round" />
<line x1="538.75" y1="64.375" x2="721.25" y2="64.375" stroke-width="3" stroke="black" fill="dimgray" stroke-linecap="round" />
/><path d="M721.25 64.375 Q741.25 71.875 721.25 78.125" stroke-width="3" stroke="black" fill="none" stroke-linecap="round" />
<path d="M541 65.875 Q563.75 88.375 573.75 65.875 Z" stroke-width="2" stroke="white" fill="white" stroke-linecap="round" />
<line x1="538.75" y1="64.375" x2="721.25" y2="64.375" stroke-width="2" stroke="white" fill="white" stroke-linecap="round" />
/><path d="M721.25 64.375 Q741.25 71.875 721.25 78.125" stroke-width="2" stroke="white" fill="none" stroke-linecap="round" />
<rect x="721.25" y="80" width="20" height="40" rx="1" ry="1" stroke-width="0.5" stroke="black" fill="white"/>
<rect x="741.25" y="79.375" width="47.5" height="41.25" rx="1" ry="1" stroke-width="0.5" stroke="black" fill="white"/>
<rect x="741.25" y="79.375" width="47.5" height="41.25" rx="1" ry="1" stroke-width="0.5" stroke="black" fill="url(#diagonalHatch)"/>
<rect x="751.25" y="89.6875" width="27.5" height="20.625" rx="1" ry="1" stroke-width="2" stroke="black" fill="white"/>
<text x="765" y="100" text-anchor="middle" dominant-baseline="central"><tspan stroke="dimgray" stroke-width="0.5" font-family="sans-serif" fill="black" textLength="{this.width * 5 - 24}" > HB</tspan></text><rect x="788.75" y="80" width="5" height="40" rx="1" ry="1" stroke-width="0.5" stroke="black" fill="white"/>
<rect x="793.75" y="80" width="6.25" height="40" rx="1" ry="1" stroke-width="0.5" stroke="black" fill="white"/>
<rect x="800" y="80" width="6.25" height="40" rx="1" ry="1" stroke-width="0.5" stroke="black" fill="white"/>
<rect x="806.25" y="86.25" width="30" height="27.5" rx="1" ry="1" stroke-width="0.5" stroke="black" fill="white"/>
<rect x="836.25" y="87.5" width="3.75" height="25" rx="1" ry="1" stroke-width="0.5" stroke="black" fill="white"/>
<rect x="840" y="86.25" width="7.5" height="27.5" rx="1" ry="1" stroke-width="0.5" stroke="black" fill="white"/>
<rect x="847.5" y="87.5" width="3.75" height="25" rx="1" ry="1" stroke-width="0.5" stroke="black" fill="white"/>
<rect x="851.25" y="86.25" width="7.5" height="27.5" rx="1" ry="1" stroke-width="0.5" stroke="black" fill="white"/>
<rect x="858.75" y="87.5" width="3.75" height="25" rx="1" ry="1" stroke-width="0.5" stroke="black" fill="white"/>
<rect x="862.5" y="86.25" width="8.75" height="27.5" rx="1" ry="1" stroke-width="0.5" stroke="black" fill="white"/>
</g><text x="50%" y="160" font-size="1.1em" font-weight="bold" text-anchor="middle" dominant-baseline="middle">Copyright (c) // The Mechanical Pencil Database (tmpdb)</text>
<text x="50%" y="180" font-size="1.1em" font-weight="bold" text-anchor="middle" dominant-baseline="middle">Licensed under Creative Commons Attribution-NonCommercial-ShareAlike 4.0 International</text>
<text x="990" y="190" font-size="0.5em" font-weight="bold" text-anchor="end" dominant-baseline="middle">SVGPencilRenderer</text>
</svg>