<svg xmlns="http://www.w3.org/2000/svg" width="1000" height="240">
 <pattern id="diagonalHatch" patternUnits="userSpaceOnUse" width="8" height="8">
<path stroke="dimgray" stroke-linecap="round" stroke-width="1" d="M 4,4 L 8,8"/>
<path stroke="dimgray" stroke-linecap="round" stroke-width="1" d="M 4,4 L 0,8"/>
<path stroke="gray" stroke-linecap="round" stroke-width="1" d="M 4,4 L 8,0" />
<path stroke="gray" stroke-linecap="round" stroke-width="1" d="M 4,4 L 0,0" />
</pattern>
<pattern id="spring" patternUnits="userSpaceOnUse" width="8" height="100">
<path stroke="dimgray" stroke-linecap="round" stroke-width="2" d="M 0,0 L 8,100"/>
<path stroke="white" stroke-linecap="round" stroke-width="1" d="M 0,0 L 8,100"/>
</pattern>
<rect x="0" y="0" width="1000" height="240" fill="white" stroke="black" stroke-width="4" />
<rect x="2" y="2" width="996" height="236" fill="white" stroke="dimgray" stroke-width="1" />
<g transform="rotate(0 0 0)">
<text x="30" y="50" font-size="2.0em" font-weight="bold"> Küelox // 3308 </text>
<path d="M128.75 111.875 L140 110 L140 130 L128.75 128.125 Z" stroke-width="0.5" stroke="black" stroke-linejoin="round" fill="#b4b8b9" fill-opacity="1" />
<path d="M140 106.875 L208.75 99.375 L208.75 140.625 L140 133.125 Z" stroke-width="0.5" stroke="black" stroke-linejoin="round" fill="#b4b8b9" fill-opacity="1" />
<!-- julian --><rect x="208.75" y="99.375" width="147.5" height="41.25" rx="1" ry="1" stroke-width="0.5" stroke="black" fill="#b4b8b9" fill-opacity="1"/>
<rect x="208.75" y="99.375" width="147.5" height="41.25" rx="1" ry="1" stroke-width="0.5" stroke="black" fill="url(#diagonalHatch)"/>
<!-- julian --><rect x="356.25" y="100" width="337.5" height="40" rx="1" ry="1" stroke-width="0.5" stroke="black" fill="#b4b8b9" fill-opacity="1"/>
<line x1="356.25" y1="120" x2="693.75" y2="120" stroke-width="1.5" stroke="black" fill="none" stroke-opacity="0.5"/>
<line x1="356.25" y1="120" x2="693.75" y2="120" stroke-width="0.5" stroke="gray" fill="none" stroke-opacity="0.5"/>
<path d="M513.5 85.875 Q536.25 109.375 546.25 85.875 Z" stroke-width="4" stroke="black" fill="dimgray" stroke-linecap="round" />
<line x1="511.25" y1="84.375" x2="693.75" y2="84.375" stroke-width="4" stroke="black" fill="dimgray" stroke-linecap="round" />
<path d="M693.75 84.375 Q713.75 91.875 693.75 98.125" stroke-width="4" stroke="black" fill="none" stroke-linecap="round" />
<!-- julian --><rect x="693.75" y="97.5" width="27.5" height="45" rx="1" ry="1" stroke-width="0.5" stroke="black" fill="#b4b8b9" fill-opacity="1"/>
<path d="M513.5 85.875 Q536.25 108.375 546.25 85.875 Z" stroke-width="3" stroke="#b4b8b9" fill="#b4b8b9" stroke-linecap="round" />
<line x1="511.25" y1="84.375" x2="693.75" y2="84.375" stroke-width="3" stroke="#b4b8b9" fill="#b4b8b9" stroke-linecap="round" />
<path d="M693.75 84.375 Q713.75 91.875 693.75 98.125" stroke-width="3" stroke="#b4b8b9" fill="none" stroke-linecap="round" />
<!-- julian --><rect x="721.25" y="100" width="20" height="40" rx="1" ry="1" stroke-width="0.5" stroke="black" fill="#b4b8b9" fill-opacity="1"/>
<!-- julian --><rect x="741.25" y="99.375" width="47.5" height="41.25" rx="1" ry="1" stroke-width="0.5" stroke="black" fill="#b4b8b9" fill-opacity="1"/>
<rect x="741.25" y="99.375" width="47.5" height="41.25" rx="1" ry="1" stroke-width="0.5" stroke="black" fill="url(#diagonalHatch)"/>
<!-- julian --><rect x="788.75" y="100" width="5" height="40" rx="1" ry="1" stroke-width="0.5" stroke="black" fill="#b4b8b9" fill-opacity="1"/>
<!-- julian --><rect x="793.75" y="100" width="6.25" height="40" rx="1" ry="1" stroke-width="0.5" stroke="black" fill="red" fill-opacity="1"/>
<!-- julian --><rect x="800" y="100" width="6.25" height="40" rx="1" ry="1" stroke-width="0.5" stroke="black" fill="#b4b8b9" fill-opacity="1"/>
<!-- julian --><rect x="806.25" y="106.25" width="30" height="27.5" rx="1" ry="1" stroke-width="0.5" stroke="black" fill="#b4b8b9" fill-opacity="1"/>
<!-- julian --><rect x="836.25" y="107.5" width="3.75" height="25" rx="1" ry="1" stroke-width="0.5" stroke="black" fill="#b4b8b9" fill-opacity="1"/>
<!-- julian --><rect x="840" y="106.25" width="7.5" height="27.5" rx="1" ry="1" stroke-width="0.5" stroke="black" fill="#b4b8b9" fill-opacity="1"/>
<!-- julian --><rect x="847.5" y="107.5" width="3.75" height="25" rx="1" ry="1" stroke-width="0.5" stroke="black" fill="#b4b8b9" fill-opacity="1"/>
<!-- julian --><rect x="851.25" y="106.25" width="7.5" height="27.5" rx="1" ry="1" stroke-width="0.5" stroke="black" fill="#b4b8b9" fill-opacity="1"/>
<!-- julian --><rect x="858.75" y="107.5" width="3.75" height="25" rx="1" ry="1" stroke-width="0.5" stroke="black" fill="#b4b8b9" fill-opacity="1"/>
<!-- julian --><rect x="862.5" y="106.25" width="8.75" height="27.5" rx="1" ry="1" stroke-width="0.5" stroke="black" fill="#b4b8b9" fill-opacity="1"/>
</g><text x="50%" y="200" font-size="1.1em" font-weight="bold" text-anchor="middle" dominant-baseline="middle">Copyright (c) // The Mechanical Pencil Database (tmpdb)</text>
<text x="50%" y="220" font-size="1.1em" font-weight="bold" text-anchor="middle" dominant-baseline="middle">Licensed under Creative Commons Attribution-NonCommercial-ShareAlike 4.0 International</text>
<text x="990" y="230" font-size="0.5em" font-weight="bold" text-anchor="end" dominant-baseline="middle">SVGPencilAllRenderer</text>
</svg>