<svg xmlns="http://www.w3.org/2000/svg" width="1000" height="360">
 <pattern id="knurled-large" patternUnits="userSpaceOnUse" width="12" height="12">
<path stroke="dimgray" stroke-linecap="round" stroke-width="1" d="M 6,6 L 12,12"/>
<path stroke="dimgray" stroke-linecap="round" stroke-width="1" d="M 6,6 L 0,12"/>
<path stroke="gray" stroke-linecap="round" stroke-width="1" d="M 6,6 L 12,0" />
<path stroke="gray" stroke-linecap="round" stroke-width="1" d="M 6,6 L 0,0" />
</pattern><pattern id="knurled-small" patternUnits="userSpaceOnUse" width="4" height="4">
<path stroke="dimgray" stroke-linecap="round" stroke-width="1" d="M 2,2 L 4,4"/>
<path stroke="dimgray" stroke-linecap="round" stroke-width="1" d="M 2,2 L 0,4"/>
<path stroke="gray" stroke-linecap="round" stroke-width="1" d="M 2,2 L 4,0" />
<path stroke="gray" stroke-linecap="round" stroke-width="1" d="M 2,2 L 0,0" />
</pattern><pattern id="knurled" patternUnits="userSpaceOnUse" width="8" height="8">
<path stroke="dimgray" stroke-linecap="round" stroke-width="1" d="M 4,4 L 8,8"/>
<path stroke="dimgray" stroke-linecap="round" stroke-width="1" d="M 4,4 L 0,8"/>
<path stroke="gray" stroke-linecap="round" stroke-width="1" d="M 4,4 L 8,0" />
<path stroke="gray" stroke-linecap="round" stroke-width="1" d="M 4,4 L 0,0" />
</pattern><pattern id="lined" patternUnits="userSpaceOnUse" width="3" height="3">
<path stroke="dimgray" stroke-linecap="round" stroke-width="1" d="M 0,0 L 3,0"/>
</pattern><pattern id="ridged" patternUnits="userSpaceOnUse" width="3" height="3">
<path stroke="dimgray" stroke-linecap="round" stroke-width="1" d="M 0,0 L 0,3"/>
</pattern><pattern id="spring" patternUnits="userSpaceOnUse" width="8" height="60">
<path stroke="dimgray" stroke-linecap="round" stroke-width="2" d="M 1,1 L 8,60"/>
<path stroke="white" stroke-linecap="round" stroke-width="1" d="M 1,1 L 8,60"/>
</pattern><rect x="0" y="0" width="1000" height="360" fill="white" stroke="black" stroke-width="4" />
<rect x="2" y="2" width="996" height="356" fill="white" stroke="dimgray" stroke-width="1" />
<g transform="rotate(0 0 0)">
<text x="30" y="50" font-size="2.0em" font-weight="bold"> Daiso // 2mm Mechanical Pencil (Model #: unknown)</text>


<!-- renderSideComponent: tip -->


<!-- renderPart: cylinder -->
<path d="M141.825 110.625 L154.425 110.625 L154.425 129.375 L141.825 129.375 L141.825 110.625" stroke-width="0" stroke="none" stroke-linejoin="round" fill="silver" fill-opacity="1"/>
<path d="M141.825 110.625 L154.425 110.625 M154.425 129.375 L141.825 129.375" stroke-width="0.5" stroke="black" stroke-linejoin="round" fill="silver" fill-opacity="1"/>
<!-- !right !both --><path d="M154.425 110.625 L154.425 129.375" stroke-width="0.5" stroke="black" stroke-linejoin="round" fill="silver" fill-opacity="1"/>
<!-- !left !both --><path d="M141.825 110.625 L141.825 129.375" stroke-width="0.5" stroke="black" stroke-linejoin="round" fill="silver" fill-opacity="1"/>


<!-- renderPart: cone -->
<path d="M154.325 110 L195.675 101.25 L195.675 138.75 L154.325 130 L154.325 110" stroke-width="0" stroke="none" stroke-linejoin="round" fill="silver" fill-opacity="1"/>
<path d="M154.325 110 L195.675 101.25 M195.675 138.75 L154.325 130" stroke-width="0.5" stroke="black" stroke-linejoin="round" fill="silver" fill-opacity="1"/>
<!-- !right !both --><path d="M195.675 101.25 L195.675 138.75" stroke-width="0.5" stroke="black" stroke-linejoin="round" fill="silver" fill-opacity="1"/>
<!-- !left !both --><path d="M154.325 110 L154.325 130" stroke-width="0.5" stroke="black" stroke-linejoin="round" fill="silver" fill-opacity="1"/>


<!-- renderPart: cylinder -->
<path d="M195.575 101.25 L210.675 101.25 L210.675 138.75 L195.575 138.75 L195.575 101.25" stroke-width="0" stroke="none" stroke-linejoin="round" fill="silver" fill-opacity="1"/>
<path d="M195.575 101.25 L210.675 101.25 M210.675 138.75 L195.575 138.75" stroke-width="0.5" stroke="black" stroke-linejoin="round" fill="silver" fill-opacity="1"/>
<!-- !right !both --><path d="M210.675 101.25 L210.675 138.75" stroke-width="0.5" stroke="black" stroke-linejoin="round" fill="silver" fill-opacity="1"/>
<!-- !left !both --><path d="M195.575 101.25 L195.575 138.75" stroke-width="0.5" stroke="black" stroke-linejoin="round" fill="silver" fill-opacity="1"/>


<!-- renderPart: cylinder -->
<path d="M210.575 99.375 L240.675 99.375 L240.675 140.625 L210.575 140.625 L210.575 99.375" stroke-width="0" stroke="none" stroke-linejoin="round" fill="silver" fill-opacity="1"/>
<path d="M210.575 99.375 L240.675 99.375 M240.675 140.625 L210.575 140.625" stroke-width="0.5" stroke="black" stroke-linejoin="round" fill="silver" fill-opacity="1"/>
<!-- !right !both --><path d="M240.675 99.375 L240.675 140.625" stroke-width="0.5" stroke="black" stroke-linejoin="round" fill="silver" fill-opacity="1"/>
<!-- !left !both --><path d="M210.575 99.375 L210.575 140.625" stroke-width="0.5" stroke="black" stroke-linejoin="round" fill="silver" fill-opacity="1"/>


<!-- renderSideComponent: body -->


<!-- renderPart: hexagonal -->
<path d="M240.575 100 L739.425 100 L739.425 140 L240.575 140 L240.575 100" stroke-width="0" stroke="none" stroke-linejoin="round" fill="#000000" fill-opacity="1"/>
<path d="M240.575 100 L739.425 100 M739.425 140 L240.575 140" stroke-width="0.5" stroke="black" stroke-linejoin="round" fill="#000000" fill-opacity="1"/>
<!-- !right !both --><path d="M739.425 100 L739.425 140" stroke-width="0.5" stroke="black" stroke-linejoin="round" fill="#000000" fill-opacity="1"/>
<!-- !left !both --><path d="M240.575 100 L240.575 140" stroke-width="0.5" stroke="black" stroke-linejoin="round" fill="#000000" fill-opacity="1"/>
<line x1="245.625" y1="120" x2="744.375" y2="120" stroke-width="1.5" stroke="gray" fill="gray" stroke-opacity="1.0"/>
<line x1="245.625" y1="120" x2="744.375" y2="120" stroke-width="0.5" stroke="black" fill="none" stroke-opacity="0.5"/>


<!-- renderSideComponent: clip -->
<line x1="560.625" y1="89.375" x2="575.625" y2="89.375" stroke-width="4" stroke="black" fill="dimgray" stroke-linecap="round" />
<line x1="575.625" y1="89.375" x2="595.625" y2="98.125" stroke-width="4" stroke="black" fill="dimgray" stroke-linecap="round" />
<line x1="595.625" y1="98.125" x2="615.625" y2="89.375" stroke-width="4" stroke="black" fill="dimgray" stroke-linecap="round" />
<line x1="615.625" y1="89.375" x2="755.625" y2="89.375" stroke-width="4" stroke="black" fill="dimgray" stroke-linecap="round" />
<path d="M755.625 89.375 Q775.625 94.375 755.625 99.375" stroke-width="4" stroke="black" fill="none" stroke-linecap="round" />


<!-- renderPart: cylinder -->
<path d="M739.325 96.875 L763.175 96.875 L763.175 143.125 L739.325 143.125 L739.325 96.875" stroke-width="0" stroke="none" stroke-linejoin="round" fill="silver" fill-opacity="1"/>
<path d="M739.325 96.875 L763.175 96.875 M763.175 143.125 L739.325 143.125" stroke-width="0.5" stroke="black" stroke-linejoin="round" fill="silver" fill-opacity="1"/>
<!-- !right !both --><path d="M763.175 96.875 L763.175 143.125" stroke-width="0.5" stroke="black" stroke-linejoin="round" fill="silver" fill-opacity="1"/>
<!-- !left !both --><path d="M739.325 96.875 L739.325 143.125" stroke-width="0.5" stroke="black" stroke-linejoin="round" fill="silver" fill-opacity="1"/>
<line x1="560.625" y1="89.375" x2="575.625" y2="89.375" stroke-width="3" stroke="silver" fill="silver" stroke-linecap="round" />
<line x1="575.625" y1="89.375" x2="595.625" y2="98.125" stroke-width="3" stroke="silver" fill="silver" stroke-linecap="round" />
<line x1="595.625" y1="98.125" x2="615.625" y2="89.375" stroke-width="3" stroke="silver" fill="silver" stroke-linecap="round" />
<line x1="615.625" y1="89.375" x2="755.625" y2="89.375" stroke-width="3" stroke="silver" fill="silver" stroke-linecap="round" />
<path d="M755.625 89.375 Q775.625 94.375 755.625 99.375" stroke-width="3" stroke="silver" fill="none" stroke-linecap="round" />


<!-- renderSideComponent: tail -->


<!-- renderPart: cone -->
<path d="M763.075 100 L771.925 100.625 L771.925 139.375 L763.075 140 L763.075 100" stroke-width="0" stroke="none" stroke-linejoin="round" fill="#000000" fill-opacity="1"/>
<path d="M763.075 100 L771.925 100.625 M771.925 139.375 L763.075 140" stroke-width="0.5" stroke="black" stroke-linejoin="round" fill="#000000" fill-opacity="1"/>
<!-- !right !both --><path d="M771.925 100.625 L771.925 139.375" stroke-width="0.5" stroke="black" stroke-linejoin="round" fill="#000000" fill-opacity="1"/>
<!-- !left !both --><path d="M763.075 100 L763.075 140" stroke-width="0.5" stroke="black" stroke-linejoin="round" fill="#000000" fill-opacity="1"/>


<!-- renderPart: cylinder -->
<path d="M771.825 100.625 L780.675 100.625 L780.675 139.375 L771.825 139.375 L771.825 100.625" stroke-width="0" stroke="none" stroke-linejoin="round" fill="#000000" fill-opacity="1"/>
<path d="M771.825 100.625 L780.675 100.625 M780.675 139.375 L771.825 139.375" stroke-width="0.5" stroke="black" stroke-linejoin="round" fill="#000000" fill-opacity="1"/>
<!-- !right !both --><path d="M780.675 100.625 L780.675 139.375" stroke-width="0.5" stroke="black" stroke-linejoin="round" fill="#000000" fill-opacity="1"/>
<!-- !left !both --><path d="M771.825 100.625 L771.825 139.375" stroke-width="0.5" stroke="black" stroke-linejoin="round" fill="#000000" fill-opacity="1"/>


<!-- renderSideComponent: cap -->


<!-- renderPart: cylinder -->
<path d="M780.575 105 L801.925 105 L801.925 135 L780.575 135 L780.575 105" stroke-width="0" stroke="none" stroke-linejoin="round" fill="#000000" fill-opacity="1"/>
<path d="M780.575 105 L801.925 105 M801.925 135 L780.575 135" stroke-width="0.5" stroke="black" stroke-linejoin="round" fill="#000000" fill-opacity="1"/>
<!-- !right !both --><path d="M801.925 105 L801.925 135" stroke-width="0.5" stroke="black" stroke-linejoin="round" fill="#000000" fill-opacity="1"/>
<!-- !left !both --><path d="M780.575 105 L780.575 135" stroke-width="0.5" stroke="black" stroke-linejoin="round" fill="#000000" fill-opacity="1"/>


<!-- renderPart: octagonal -->
<path d="M801.825 100 L848.175 100 L848.175 140 L801.825 140 L801.825 100" stroke-width="0" stroke="none" stroke-linejoin="round" fill="#000000" fill-opacity="1"/>
<path d="M801.825 100 L848.175 100 M848.175 140 L801.825 140" stroke-width="0.5" stroke="black" stroke-linejoin="round" fill="#000000" fill-opacity="1"/>
<!-- !right !both --><path d="M848.175 100 L848.175 140" stroke-width="0.5" stroke="black" stroke-linejoin="round" fill="#000000" fill-opacity="1"/>
<!-- !left !both --><path d="M801.825 100 L801.825 140" stroke-width="0.5" stroke="black" stroke-linejoin="round" fill="#000000" fill-opacity="1"/>
<line x1="801.875" y1="108.57142857142857" x2="848.125" y2="108.57142857142857" stroke-width="1.5" stroke="gray" fill="gray" stroke-opacity="1.0"/>
<line x1="801.875" y1="108.57142857142857" x2="848.125" y2="108.57142857142857" stroke-width="0.5" stroke="black" fill="none" stroke-opacity="0.5"/>
<line x1="801.875" y1="131.42857142857142" x2="848.125" y2="131.42857142857142" stroke-width="1.5" stroke="gray" fill="gray" stroke-opacity="1.0"/>
<line x1="801.875" y1="131.42857142857142" x2="848.125" y2="131.42857142857142" stroke-width="0.5" stroke="black" fill="none" stroke-opacity="0.5"/>


<!-- renderPart: cylinder -->
<path d="M848.075 98.75 L854.425 98.75 L854.425 141.25 L848.075 141.25 L848.075 98.75" stroke-width="0" stroke="none" stroke-linejoin="round" fill="#000000" fill-opacity="1"/>
<path d="M848.075 98.75 L854.425 98.75 M854.425 141.25 L848.075 141.25" stroke-width="0.5" stroke="black" stroke-linejoin="round" fill="#000000" fill-opacity="1"/>
<!-- !right !both --><path d="M854.425 98.75 L854.425 141.25" stroke-width="0.5" stroke="black" stroke-linejoin="round" fill="#000000" fill-opacity="1"/>
<!-- !left !both --><path d="M848.075 98.75 L848.075 141.25" stroke-width="0.5" stroke="black" stroke-linejoin="round" fill="#000000" fill-opacity="1"/>


<!-- renderPart: convex -->
<path d="M854.375 98.75 Q861.875 120 854.375 141.25" stroke-width="0.5" stroke="black" stroke-linejoin="round" fill="#000000" fill-opacity="1"/>

<!-- TAPER START: hexagonal -->
<path d="M 240.525 100.25 L 245.625 100.25 C 239.375 105, 239.375 115, 245.625 120 C 239.375 125, 239.375 135, 245.625 139.75 L 240.525 139.75 Z" stroke-width="0" stroke="0" stroke-linecap="round" fill-opacity="1" fill="#000000" /><path d="M 245.625 100.5 C 239.375 105, 239.375 115, 245.625 120 C 239.375 125, 239.375 135, 245.625 139.45" stroke-width="1.5" stroke="gray" stroke-linecap="round" fill-opacity="0" fill="none" /><path d="M 245.625 100.5 C 239.375 105, 239.375 115, 245.625 120 C 239.375 125, 239.375 135, 245.625 139.5" stroke-width="0.5" stroke="black" stroke-opacity="0.5" stroke-linecap="round" fill-opacity="0" fill="none" />

<!-- renderSideComponent: tip -->


<!-- renderPart: cylinder -->
<path d="M141.825 230.625 L154.425 230.625 L154.425 249.375 L141.825 249.375 L141.825 230.625" stroke-width="0" stroke="none" stroke-linejoin="round" fill="silver" fill-opacity="1"/>
<path d="M141.825 230.625 L154.425 230.625 M154.425 249.375 L141.825 249.375" stroke-width="0.5" stroke="black" stroke-linejoin="round" fill="silver" fill-opacity="1"/>
<!-- !right !both --><path d="M154.425 230.625 L154.425 249.375" stroke-width="0.5" stroke="black" stroke-linejoin="round" fill="silver" fill-opacity="1"/>
<!-- !left !both --><path d="M141.825 230.625 L141.825 249.375" stroke-width="0.5" stroke="black" stroke-linejoin="round" fill="silver" fill-opacity="1"/>


<!-- renderPart: cone -->
<path d="M154.325 230 L195.675 221.25 L195.675 258.75 L154.325 250 L154.325 230" stroke-width="0" stroke="none" stroke-linejoin="round" fill="silver" fill-opacity="1"/>
<path d="M154.325 230 L195.675 221.25 M195.675 258.75 L154.325 250" stroke-width="0.5" stroke="black" stroke-linejoin="round" fill="silver" fill-opacity="1"/>
<!-- !right !both --><path d="M195.675 221.25 L195.675 258.75" stroke-width="0.5" stroke="black" stroke-linejoin="round" fill="silver" fill-opacity="1"/>
<!-- !left !both --><path d="M154.325 230 L154.325 250" stroke-width="0.5" stroke="black" stroke-linejoin="round" fill="silver" fill-opacity="1"/>


<!-- renderPart: cylinder -->
<path d="M195.575 221.25 L210.675 221.25 L210.675 258.75 L195.575 258.75 L195.575 221.25" stroke-width="0" stroke="none" stroke-linejoin="round" fill="silver" fill-opacity="1"/>
<path d="M195.575 221.25 L210.675 221.25 M210.675 258.75 L195.575 258.75" stroke-width="0.5" stroke="black" stroke-linejoin="round" fill="silver" fill-opacity="1"/>
<!-- !right !both --><path d="M210.675 221.25 L210.675 258.75" stroke-width="0.5" stroke="black" stroke-linejoin="round" fill="silver" fill-opacity="1"/>
<!-- !left !both --><path d="M195.575 221.25 L195.575 258.75" stroke-width="0.5" stroke="black" stroke-linejoin="round" fill="silver" fill-opacity="1"/>


<!-- renderPart: cylinder -->
<path d="M210.575 219.375 L240.675 219.375 L240.675 260.625 L210.575 260.625 L210.575 219.375" stroke-width="0" stroke="none" stroke-linejoin="round" fill="silver" fill-opacity="1"/>
<path d="M210.575 219.375 L240.675 219.375 M240.675 260.625 L210.575 260.625" stroke-width="0.5" stroke="black" stroke-linejoin="round" fill="silver" fill-opacity="1"/>
<!-- !right !both --><path d="M240.675 219.375 L240.675 260.625" stroke-width="0.5" stroke="black" stroke-linejoin="round" fill="silver" fill-opacity="1"/>
<!-- !left !both --><path d="M210.575 219.375 L210.575 260.625" stroke-width="0.5" stroke="black" stroke-linejoin="round" fill="silver" fill-opacity="1"/>


<!-- renderSideComponent: body -->


<!-- renderPart: hexagonal -->
<path d="M240.575 220 L739.425 220 L739.425 260 L240.575 260 L240.575 220" stroke-width="0" stroke="none" stroke-linejoin="round" fill=" #171e2a" fill-opacity="1"/>
<path d="M240.575 220 L739.425 220 M739.425 260 L240.575 260" stroke-width="0.5" stroke="black" stroke-linejoin="round" fill=" #171e2a" fill-opacity="1"/>
<!-- !right !both --><path d="M739.425 220 L739.425 260" stroke-width="0.5" stroke="black" stroke-linejoin="round" fill=" #171e2a" fill-opacity="1"/>
<!-- !left !both --><path d="M240.575 220 L240.575 260" stroke-width="0.5" stroke="black" stroke-linejoin="round" fill=" #171e2a" fill-opacity="1"/>
<line x1="245.625" y1="240" x2="744.375" y2="240" stroke-width="1.5" stroke="gray" fill="gray" stroke-opacity="1.0"/>
<line x1="245.625" y1="240" x2="744.375" y2="240" stroke-width="0.5" stroke="black" fill="none" stroke-opacity="0.5"/>


<!-- renderSideComponent: clip -->
<line x1="560.625" y1="209.375" x2="575.625" y2="209.375" stroke-width="4" stroke="black" fill="dimgray" stroke-linecap="round" />
<line x1="575.625" y1="209.375" x2="595.625" y2="218.125" stroke-width="4" stroke="black" fill="dimgray" stroke-linecap="round" />
<line x1="595.625" y1="218.125" x2="615.625" y2="209.375" stroke-width="4" stroke="black" fill="dimgray" stroke-linecap="round" />
<line x1="615.625" y1="209.375" x2="755.625" y2="209.375" stroke-width="4" stroke="black" fill="dimgray" stroke-linecap="round" />
<path d="M755.625 209.375 Q775.625 214.375 755.625 219.375" stroke-width="4" stroke="black" fill="none" stroke-linecap="round" />


<!-- renderPart: cylinder -->
<path d="M739.325 216.875 L763.175 216.875 L763.175 263.125 L739.325 263.125 L739.325 216.875" stroke-width="0" stroke="none" stroke-linejoin="round" fill="silver" fill-opacity="1"/>
<path d="M739.325 216.875 L763.175 216.875 M763.175 263.125 L739.325 263.125" stroke-width="0.5" stroke="black" stroke-linejoin="round" fill="silver" fill-opacity="1"/>
<!-- !right !both --><path d="M763.175 216.875 L763.175 263.125" stroke-width="0.5" stroke="black" stroke-linejoin="round" fill="silver" fill-opacity="1"/>
<!-- !left !both --><path d="M739.325 216.875 L739.325 263.125" stroke-width="0.5" stroke="black" stroke-linejoin="round" fill="silver" fill-opacity="1"/>
<line x1="560.625" y1="209.375" x2="575.625" y2="209.375" stroke-width="3" stroke="silver" fill="silver" stroke-linecap="round" />
<line x1="575.625" y1="209.375" x2="595.625" y2="218.125" stroke-width="3" stroke="silver" fill="silver" stroke-linecap="round" />
<line x1="595.625" y1="218.125" x2="615.625" y2="209.375" stroke-width="3" stroke="silver" fill="silver" stroke-linecap="round" />
<line x1="615.625" y1="209.375" x2="755.625" y2="209.375" stroke-width="3" stroke="silver" fill="silver" stroke-linecap="round" />
<path d="M755.625 209.375 Q775.625 214.375 755.625 219.375" stroke-width="3" stroke="silver" fill="none" stroke-linecap="round" />


<!-- renderSideComponent: tail -->


<!-- renderPart: cone -->
<path d="M763.075 220 L771.925 220.625 L771.925 259.375 L763.075 260 L763.075 220" stroke-width="0" stroke="none" stroke-linejoin="round" fill=" #171e2a" fill-opacity="1"/>
<path d="M763.075 220 L771.925 220.625 M771.925 259.375 L763.075 260" stroke-width="0.5" stroke="black" stroke-linejoin="round" fill=" #171e2a" fill-opacity="1"/>
<!-- !right !both --><path d="M771.925 220.625 L771.925 259.375" stroke-width="0.5" stroke="black" stroke-linejoin="round" fill=" #171e2a" fill-opacity="1"/>
<!-- !left !both --><path d="M763.075 220 L763.075 260" stroke-width="0.5" stroke="black" stroke-linejoin="round" fill=" #171e2a" fill-opacity="1"/>


<!-- renderPart: cylinder -->
<path d="M771.825 220.625 L780.675 220.625 L780.675 259.375 L771.825 259.375 L771.825 220.625" stroke-width="0" stroke="none" stroke-linejoin="round" fill=" #171e2a" fill-opacity="1"/>
<path d="M771.825 220.625 L780.675 220.625 M780.675 259.375 L771.825 259.375" stroke-width="0.5" stroke="black" stroke-linejoin="round" fill=" #171e2a" fill-opacity="1"/>
<!-- !right !both --><path d="M780.675 220.625 L780.675 259.375" stroke-width="0.5" stroke="black" stroke-linejoin="round" fill=" #171e2a" fill-opacity="1"/>
<!-- !left !both --><path d="M771.825 220.625 L771.825 259.375" stroke-width="0.5" stroke="black" stroke-linejoin="round" fill=" #171e2a" fill-opacity="1"/>


<!-- renderSideComponent: cap -->


<!-- renderPart: cylinder -->
<path d="M780.575 225 L801.925 225 L801.925 255 L780.575 255 L780.575 225" stroke-width="0" stroke="none" stroke-linejoin="round" fill=" #171e2a" fill-opacity="1"/>
<path d="M780.575 225 L801.925 225 M801.925 255 L780.575 255" stroke-width="0.5" stroke="black" stroke-linejoin="round" fill=" #171e2a" fill-opacity="1"/>
<!-- !right !both --><path d="M801.925 225 L801.925 255" stroke-width="0.5" stroke="black" stroke-linejoin="round" fill=" #171e2a" fill-opacity="1"/>
<!-- !left !both --><path d="M780.575 225 L780.575 255" stroke-width="0.5" stroke="black" stroke-linejoin="round" fill=" #171e2a" fill-opacity="1"/>


<!-- renderPart: octagonal -->
<path d="M801.825 220 L848.175 220 L848.175 260 L801.825 260 L801.825 220" stroke-width="0" stroke="none" stroke-linejoin="round" fill=" #171e2a" fill-opacity="1"/>
<path d="M801.825 220 L848.175 220 M848.175 260 L801.825 260" stroke-width="0.5" stroke="black" stroke-linejoin="round" fill=" #171e2a" fill-opacity="1"/>
<!-- !right !both --><path d="M848.175 220 L848.175 260" stroke-width="0.5" stroke="black" stroke-linejoin="round" fill=" #171e2a" fill-opacity="1"/>
<!-- !left !both --><path d="M801.825 220 L801.825 260" stroke-width="0.5" stroke="black" stroke-linejoin="round" fill=" #171e2a" fill-opacity="1"/>
<line x1="801.875" y1="228.57142857142858" x2="848.125" y2="228.57142857142858" stroke-width="1.5" stroke="gray" fill="gray" stroke-opacity="1.0"/>
<line x1="801.875" y1="228.57142857142858" x2="848.125" y2="228.57142857142858" stroke-width="0.5" stroke="black" fill="none" stroke-opacity="0.5"/>
<line x1="801.875" y1="251.42857142857142" x2="848.125" y2="251.42857142857142" stroke-width="1.5" stroke="gray" fill="gray" stroke-opacity="1.0"/>
<line x1="801.875" y1="251.42857142857142" x2="848.125" y2="251.42857142857142" stroke-width="0.5" stroke="black" fill="none" stroke-opacity="0.5"/>


<!-- renderPart: cylinder -->
<path d="M848.075 218.75 L854.425 218.75 L854.425 261.25 L848.075 261.25 L848.075 218.75" stroke-width="0" stroke="none" stroke-linejoin="round" fill=" #171e2a" fill-opacity="1"/>
<path d="M848.075 218.75 L854.425 218.75 M854.425 261.25 L848.075 261.25" stroke-width="0.5" stroke="black" stroke-linejoin="round" fill=" #171e2a" fill-opacity="1"/>
<!-- !right !both --><path d="M854.425 218.75 L854.425 261.25" stroke-width="0.5" stroke="black" stroke-linejoin="round" fill=" #171e2a" fill-opacity="1"/>
<!-- !left !both --><path d="M848.075 218.75 L848.075 261.25" stroke-width="0.5" stroke="black" stroke-linejoin="round" fill=" #171e2a" fill-opacity="1"/>


<!-- renderPart: convex -->
<path d="M854.375 218.75 Q861.875 240 854.375 261.25" stroke-width="0.5" stroke="black" stroke-linejoin="round" fill=" #171e2a" fill-opacity="1"/>

<!-- TAPER START: hexagonal -->
<path d="M 240.525 220.25 L 245.625 220.25 C 239.375 225, 239.375 235, 245.625 240 C 239.375 245, 239.375 255, 245.625 259.75 L 240.525 259.75 Z" stroke-width="0" stroke="0" stroke-linecap="round" fill-opacity="1" fill=" #171e2a" /><path d="M 245.625 220.5 C 239.375 225, 239.375 235, 245.625 240 C 239.375 245, 239.375 255, 245.625 259.45" stroke-width="1.5" stroke="gray" stroke-linecap="round" fill-opacity="0" fill="none" /><path d="M 245.625 220.5 C 239.375 225, 239.375 235, 245.625 240 C 239.375 245, 239.375 255, 245.625 259.5" stroke-width="0.5" stroke="black" stroke-opacity="0.5" stroke-linecap="round" fill-opacity="0" fill="none" /></g><text x="50%" y="320" font-size="1.1em" font-weight="bold" text-anchor="middle" dominant-baseline="middle">Copyright (c) // Synapticloop // The Mechanical Pencil Database (tmpdb)</text>
<text x="50%" y="340" font-size="1.1em" font-weight="bold" text-anchor="middle" dominant-baseline="middle">Licensed under Creative Commons Attribution-NonCommercial-ShareAlike 4.0 International</text>
<text x="990" y="350" font-size="0.5em" font-weight="bold" text-anchor="end" dominant-baseline="middle">SVGPencilAllRenderer</text>
</svg>