<svg xmlns="http://www.w3.org/2000/svg" width="1000" height="900">
 <pattern id="diagonalHatch" patternUnits="userSpaceOnUse" width="8" height="8">
<path stroke="dimgray" stroke-linecap="round" stroke-width="1" d="M 4,4 L 8,8"/>
<path stroke="dimgray" stroke-linecap="round" stroke-width="1" d="M 4,4 L 0,8"/>
<path stroke="gray" stroke-linecap="round" stroke-width="1" d="M 4,4 L 8,0" />
<path stroke="gray" stroke-linecap="round" stroke-width="1" d="M 4,4 L 0,0" />
</pattern>
<pattern id="ridged" patternUnits="userSpaceOnUse" width="3" height="3">
<path stroke="dimgray" stroke-linecap="round" stroke-width="1" d="M 0,0 L 0,3"/>
</pattern>
<pattern id="lined" patternUnits="userSpaceOnUse" width="3" height="3">
<path stroke="dimgray" stroke-linecap="round" stroke-width="1" d="M 0,0 L 3,0"/>
</pattern>
<pattern id="spring" patternUnits="userSpaceOnUse" width="8" height="100">
<path stroke="dimgray" stroke-linecap="round" stroke-width="2" d="M 0,0 L 8,100"/>
<path stroke="white" stroke-linecap="round" stroke-width="1" d="M 0,0 L 8,100"/>
</pattern>
<rect x="0" y="0" width="1000" height="900" fill="white" stroke="black" stroke-width="4" />
<rect x="2" y="2" width="996" height="896" fill="white" stroke="dimgray" stroke-width="1" />
<g transform="rotate(0 0 0)">
<text x="30" y="50" font-size="2.0em" font-weight="bold"> Pacific Arc // Premium (Model #: H-1309)</text>
<line x1="360" y1="124" x2="360" y2="162" stroke="black" stroke-linecap="round"  stroke-width="2" />
<line x1="240" y1="140" x2="360" y2="140" stroke-linecap="round" stroke="black"  stroke-width="2" />
<line x1="246" y1="144" x2="360" y2="144" stroke-linecap="round" stroke="black"  stroke-width="2" />
<text x="500" y="140" font-size="2.4em" font-weight="bold" text-anchor="middle" dominant-baseline="central">Measurements</text>
<line x1="640" y1="140" x2="760" y2="140" stroke-linecap="round" stroke="black"  stroke-width="2" />
<line x1="640" y1="144" x2="754" y2="144" stroke-linecap="round" stroke="black"  stroke-width="2" />
<line x1="640" y1="124" x2="640" y2="162" stroke="black" stroke-linecap="round"  stroke-width="2" />
<line x1="40" y1="300" x2="960" y2="300" stroke-linecap="round" stroke="#5f5f5f" stroke-dasharray="2" stroke-width="1" />
<line x1="20" y1="300" x2="60" y2="300" stroke-linecap="round" stroke="#000000"  stroke-width="1" />
<line x1="40" y1="280" x2="40" y2="320" stroke="#000000" stroke-linecap="round"  stroke-width="1" />
<circle r="10" cx="40" cy="300" fill="white" fill-opacity="0" stroke="#000000" stroke-width="1"  />
<line x1="940" y1="300" x2="980" y2="300" stroke-linecap="round" stroke="#000000"  stroke-width="1" />
<line x1="960" y1="280" x2="960" y2="320" stroke="#000000" stroke-linecap="round"  stroke-width="1" />
<circle r="10" cx="960" cy="300" fill="white" fill-opacity="0" stroke="#000000" stroke-width="1"  />
<path d="M128.75 291.875 L140 290 L140 310 L128.75 308.125 Z" stroke-width="0.5" stroke="black" stroke-linejoin="round" fill="white" fill-opacity="1" />
<path d="M140 286.875 L208.75 279.375 L208.75 320.625 L140 313.125 Z" stroke-width="0.5" stroke="black" stroke-linejoin="round" fill="white" fill-opacity="1" />
<path d="M208.75 279.375 L356.25 279.375 L356.25 320.625 L208.75 320.625 Z" stroke-width="0.5" stroke="black" stroke-linejoin="round" fill="white" fill-opacity="1" />
<path d="M208.75 279.375 L356.25 279.375 L356.25 320.625 L208.75 320.625 Z" stroke-width="1.0" stroke="black" fill="url(#diagonalHatch)"/>
<path d="M356.25 280 L693.75 280 L693.75 320 L356.25 320 Z" stroke-width="0.5" stroke="black" stroke-linejoin="round" fill="white" fill-opacity="1" />
<line x1="356.25" y1="300" x2="693.75" y2="300" stroke-width="1.5" stroke="black" fill="none" stroke-opacity="0.5"/>
<line x1="356.25" y1="300" x2="693.75" y2="300" stroke-width="0.5" stroke="gray" fill="none" stroke-opacity="0.5"/>
<path d="M538.5 265.875 Q561.25 289.375 571.25 265.875 Z" stroke-width="4" stroke="black" fill="dimgray" stroke-linecap="round" />
<line x1="536.25" y1="264.375" x2="718.75" y2="264.375" stroke-width="4" stroke="black" fill="dimgray" stroke-linecap="round" />
<path d="M718.75 264.375 Q738.75 271.875 718.75 279.375" stroke-width="4" stroke="black" fill="none" stroke-linecap="round" />
<path d="M693.75 277.5 L721.25 277.5 L721.25 322.5 L693.75 322.5 Z" stroke-width="0.5" stroke="black" stroke-linejoin="round" fill="white" fill-opacity="1" />
<path d="M538.5 265.875 Q561.25 288.375 571.25 265.875 Z" stroke-width="3" stroke="white" fill="white" stroke-linecap="round" />
<line x1="536.25" y1="264.375" x2="718.75" y2="264.375" stroke-width="3" stroke="white" fill="white" stroke-linecap="round" />
<path d="M718.75 264.375 Q738.75 271.875 718.75 279.375" stroke-width="3" stroke="white" fill="none" stroke-linecap="round" />
<path d="M721.25 280 L741.25 280 L741.25 320 L721.25 320 Z" stroke-width="0.5" stroke="black" stroke-linejoin="round" fill="white" fill-opacity="1" />
<path d="M741.25 279.375 L788.75 279.375 L788.75 320.625 L741.25 320.625 Z" stroke-width="0.5" stroke="black" stroke-linejoin="round" fill="white" fill-opacity="1" />
<path d="M741.25 279.375 L788.75 279.375 L788.75 320.625 L741.25 320.625 Z" stroke-width="1.0" stroke="black" fill="url(#diagonalHatch)"/>
<rect x="751.25" y="289.6875" width="27.5" height="20.625" rx="3" ry="3" stroke-width="1" stroke="black" fill="white"/>
<text x="765" y="300" text-anchor="middle" dominant-baseline="central"><tspan stroke="dimgray" stroke-width="0.5" font-family="sans-serif" fill="black" textLength="{this.width * 5 - 24}" > HB</tspan></text><path d="M788.75 280 L793.75 280 L793.75 320 L788.75 320 Z" stroke-width="0.5" stroke="black" stroke-linejoin="round" fill="white" fill-opacity="1" />
<path d="M793.75 280 L800 280 L800 320 L793.75 320 Z" stroke-width="0.5" stroke="black" stroke-linejoin="round" fill="white" fill-opacity="1" />
<path d="M800 280 L806.25 280 L806.25 320 L800 320 Z" stroke-width="0.5" stroke="black" stroke-linejoin="round" fill="white" fill-opacity="1" />
<path d="M806.25 286.25 L836.25 286.25 L836.25 313.75 L806.25 313.75 Z" stroke-width="0.5" stroke="black" stroke-linejoin="round" fill="white" fill-opacity="1" />
<path d="M836.25 287.5 L840 287.5 L840 312.5 L836.25 312.5 Z" stroke-width="0.5" stroke="black" stroke-linejoin="round" fill="white" fill-opacity="1" />
<path d="M840 286.25 L847.5 286.25 L847.5 313.75 L840 313.75 Z" stroke-width="0.5" stroke="black" stroke-linejoin="round" fill="white" fill-opacity="1" />
<path d="M847.5 287.5 L851.25 287.5 L851.25 312.5 L847.5 312.5 Z" stroke-width="0.5" stroke="black" stroke-linejoin="round" fill="white" fill-opacity="1" />
<path d="M851.25 286.25 L858.75 286.25 L858.75 313.75 L851.25 313.75 Z" stroke-width="0.5" stroke="black" stroke-linejoin="round" fill="white" fill-opacity="1" />
<path d="M858.75 287.5 L862.5 287.5 L862.5 312.5 L858.75 312.5 Z" stroke-width="0.5" stroke="black" stroke-linejoin="round" fill="white" fill-opacity="1" />
<path d="M862.5 286.25 L871.25 286.25 L871.25 313.75 L862.5 313.75 Z" stroke-width="0.5" stroke="black" stroke-linejoin="round" fill="white" fill-opacity="1" />
<line x1="128.75" y1="206.5" x2="128.75" y2="228.5" stroke="black" stroke-width="1" />
<line x1="128.75" y1="217.5" x2="208.75" y2="217.5" stroke="black" stroke-width="1" />
<line x1="208.75" y1="206.5" x2="208.75" y2="228.5" stroke="black" stroke-width="1" />
<text x="168.75" y="198.5" font-size="1.2em" font-weight="bold" text-anchor="middle" dominant-baseline="central" fill="black"><tspan x="168.75" dy="0">16.00 mm</tspan></text>
<line x1="128.75" y1="206.5" x2="128.75" y2="228.5" stroke="black" stroke-width="1" />
<line x1="128.75" y1="217.5" x2="208.75" y2="217.5" stroke="black" stroke-width="1" />
<line x1="208.75" y1="206.5" x2="208.75" y2="228.5" stroke="black" stroke-width="1" />
<text x="168.75" y="236.5" font-size="1.2em" font-weight="bold" text-anchor="middle" dominant-baseline="central" fill="black"><tspan x="168.75" dy="0">tip</tspan></text>
<line x1="208.75" y1="206.5" x2="208.75" y2="228.5" stroke="black" stroke-width="1" />
<line x1="208.75" y1="217.5" x2="806.25" y2="217.5" stroke="black" stroke-width="1" />
<line x1="806.25" y1="206.5" x2="806.25" y2="228.5" stroke="black" stroke-width="1" />
<text x="507.5" y="198.5" font-size="1.2em" font-weight="bold" text-anchor="middle" dominant-baseline="central" fill="black"><tspan x="507.5" dy="0">119.50 mm</tspan></text>
<line x1="208.75" y1="206.5" x2="208.75" y2="228.5" stroke="black" stroke-width="1" />
<line x1="208.75" y1="217.5" x2="806.25" y2="217.5" stroke="black" stroke-width="1" />
<line x1="806.25" y1="206.5" x2="806.25" y2="228.5" stroke="black" stroke-width="1" />
<text x="507.5" y="236.5" font-size="1.2em" font-weight="bold" text-anchor="middle" dominant-baseline="central" fill="black"><tspan x="507.5" dy="0">body</tspan></text>
<line x1="806.25" y1="206.5" x2="806.25" y2="228.5" stroke="black" stroke-width="1" />
<line x1="806.25" y1="217.5" x2="871.25" y2="217.5" stroke="black" stroke-width="1" />
<line x1="871.25" y1="206.5" x2="871.25" y2="228.5" stroke="black" stroke-width="1" />
<text x="838.75" y="198.5" font-size="1.2em" font-weight="bold" text-anchor="middle" dominant-baseline="central" fill="black"><tspan x="838.75" dy="0">13.00 mm</tspan></text>
<line x1="806.25" y1="206.5" x2="806.25" y2="228.5" stroke="black" stroke-width="1" />
<line x1="806.25" y1="217.5" x2="871.25" y2="217.5" stroke="black" stroke-width="1" />
<line x1="871.25" y1="206.5" x2="871.25" y2="228.5" stroke="black" stroke-width="1" />
<text x="838.75" y="236.5" font-size="1.2em" font-weight="bold" text-anchor="middle" dominant-baseline="central" fill="black"><tspan x="838.75" dy="0">cap</tspan></text>
<line x1="128.75" y1="401.5" x2="128.75" y2="423.5" stroke="black" stroke-width="1" />
<line x1="128.75" y1="412.5" x2="871.25" y2="412.5" stroke="black" stroke-width="1" />
<line x1="871.25" y1="401.5" x2="871.25" y2="423.5" stroke="black" stroke-width="1" />
<text x="500" y="431.5" font-size="1.2em" font-weight="bold" text-anchor="middle" dominant-baseline="central" fill="black"><tspan x="500" dy="0">148.50 mm</tspan></text>
<line x1="128.75" y1="401.5" x2="128.75" y2="423.5" stroke="black" stroke-width="1" />
<line x1="128.75" y1="412.5" x2="871.25" y2="412.5" stroke="black" stroke-width="1" />
<line x1="871.25" y1="401.5" x2="871.25" y2="423.5" stroke="black" stroke-width="1" />
<text x="500" y="393.5" font-size="1.2em" font-weight="bold" text-anchor="middle" dominant-baseline="central" fill="black"><tspan x="500" dy="0">Total Length</tspan></text>
<line x1="536.25" y1="341.5" x2="536.25" y2="363.5" stroke="black" stroke-width="1" />
<line x1="536.25" y1="352.5" x2="731.25" y2="352.5" stroke="black" stroke-width="1" />
<line x1="731.25" y1="341.5" x2="731.25" y2="363.5" stroke="black" stroke-width="1" />
<text x="633.75" y="333.5" font-size="1.2em" font-weight="bold" text-anchor="middle" dominant-baseline="central" fill="black"><tspan x="633.75" dy="0">39.00 mm</tspan></text>
<line x1="536.25" y1="341.5" x2="536.25" y2="363.5" stroke="black" stroke-width="1" />
<line x1="536.25" y1="352.5" x2="731.25" y2="352.5" stroke="black" stroke-width="1" />
<line x1="731.25" y1="341.5" x2="731.25" y2="363.5" stroke="black" stroke-width="1" />
<text x="633.75" y="371.5" font-size="1.2em" font-weight="bold" text-anchor="middle" dominant-baseline="central" fill="black"><tspan x="633.75" dy="0">clip</tspan></text>
<line x1="208.75" y1="341.5" x2="208.75" y2="363.5" stroke="black" stroke-width="1" />
<line x1="208.75" y1="352.5" x2="356.25" y2="352.5" stroke="black" stroke-width="1" />
<line x1="356.25" y1="341.5" x2="356.25" y2="363.5" stroke="black" stroke-width="1" />
<text x="282.5" y="333.5" font-size="1.2em" font-weight="bold" text-anchor="middle" dominant-baseline="central" fill="black"><tspan x="282.5" dy="0">5.50 mm</tspan></text>
<line x1="208.75" y1="341.5" x2="208.75" y2="363.5" stroke="black" stroke-width="1" />
<line x1="208.75" y1="352.5" x2="356.25" y2="352.5" stroke="black" stroke-width="1" />
<line x1="356.25" y1="341.5" x2="356.25" y2="363.5" stroke="black" stroke-width="1" />
<text x="282.5" y="371.5" font-size="1.2em" font-weight="bold" text-anchor="middle" dominant-baseline="central" fill="black"><tspan x="282.5" dy="0">grip</tspan></text>
<line x1="414" y1="524" x2="414" y2="562" stroke="black" stroke-linecap="round"  stroke-width="2" />
<line x1="240" y1="540" x2="414" y2="540" stroke-linecap="round" stroke="black"  stroke-width="2" />
<line x1="246" y1="544" x2="414" y2="544" stroke-linecap="round" stroke="black"  stroke-width="2" />
<text x="500" y="540" font-size="2.4em" font-weight="bold" text-anchor="middle" dominant-baseline="central">Variants</text>
<line x1="586" y1="540" x2="760" y2="540" stroke-linecap="round" stroke="black"  stroke-width="2" />
<line x1="586" y1="544" x2="754" y2="544" stroke-linecap="round" stroke="black"  stroke-width="2" />
<line x1="586" y1="524" x2="586" y2="562" stroke="black" stroke-linecap="round"  stroke-width="2" />
<path d="M128.75 631.875 L140 630 L140 650 L128.75 648.125 Z" stroke-width="0.5" stroke="black" stroke-linejoin="round" fill="#b4b8b9" fill-opacity="1" />
<path d="M140 626.875 L208.75 619.375 L208.75 660.625 L140 653.125 Z" stroke-width="0.5" stroke="black" stroke-linejoin="round" fill="#b4b8b9" fill-opacity="1" />
<path d="M208.75 619.375 L356.25 619.375 L356.25 660.625 L208.75 660.625 Z" stroke-width="0.5" stroke="black" stroke-linejoin="round" fill="#b4b8b9" fill-opacity="1" />
<path d="M208.75 619.375 L356.25 619.375 L356.25 660.625 L208.75 660.625 Z" stroke-width="1.0" stroke="black" fill="url(#diagonalHatch)"/>
<path d="M356.25 620 L693.75 620 L693.75 660 L356.25 660 Z" stroke-width="0.5" stroke="black" stroke-linejoin="round" fill="#b4b8b9" fill-opacity="1" />
<line x1="356.25" y1="640" x2="693.75" y2="640" stroke-width="1.5" stroke="black" fill="none" stroke-opacity="0.5"/>
<line x1="356.25" y1="640" x2="693.75" y2="640" stroke-width="0.5" stroke="gray" fill="none" stroke-opacity="0.5"/>
<path d="M538.5 605.875 Q561.25 629.375 571.25 605.875 Z" stroke-width="4" stroke="black" fill="dimgray" stroke-linecap="round" />
<line x1="536.25" y1="604.375" x2="718.75" y2="604.375" stroke-width="4" stroke="black" fill="dimgray" stroke-linecap="round" />
<path d="M718.75 604.375 Q738.75 611.875 718.75 619.375" stroke-width="4" stroke="black" fill="none" stroke-linecap="round" />
<path d="M693.75 617.5 L721.25 617.5 L721.25 662.5 L693.75 662.5 Z" stroke-width="0.5" stroke="black" stroke-linejoin="round" fill="#b4b8b9" fill-opacity="1" />
<path d="M538.5 605.875 Q561.25 628.375 571.25 605.875 Z" stroke-width="3" stroke="#b4b8b9" fill="#b4b8b9" stroke-linecap="round" />
<line x1="536.25" y1="604.375" x2="718.75" y2="604.375" stroke-width="3" stroke="#b4b8b9" fill="#b4b8b9" stroke-linecap="round" />
<path d="M718.75 604.375 Q738.75 611.875 718.75 619.375" stroke-width="3" stroke="#b4b8b9" fill="none" stroke-linecap="round" />
<path d="M721.25 620 L741.25 620 L741.25 660 L721.25 660 Z" stroke-width="0.5" stroke="black" stroke-linejoin="round" fill="#b4b8b9" fill-opacity="1" />
<path d="M741.25 619.375 L788.75 619.375 L788.75 660.625 L741.25 660.625 Z" stroke-width="0.5" stroke="black" stroke-linejoin="round" fill="#b4b8b9" fill-opacity="1" />
<path d="M741.25 619.375 L788.75 619.375 L788.75 660.625 L741.25 660.625 Z" stroke-width="1.0" stroke="black" fill="url(#diagonalHatch)"/>
<rect x="751.25" y="629.6875" width="27.5" height="20.625" rx="3" ry="3" stroke-width="1" stroke="black" fill="#b4b8b9"/>
<text x="765" y="640" text-anchor="middle" dominant-baseline="central"><tspan stroke="dimgray" stroke-width="0.5" font-family="sans-serif" fill="black" textLength="{this.width * 5 - 24}" > HB</tspan></text><path d="M788.75 620 L793.75 620 L793.75 660 L788.75 660 Z" stroke-width="0.5" stroke="black" stroke-linejoin="round" fill="#b4b8b9" fill-opacity="1" />
<path d="M793.75 620 L800 620 L800 660 L793.75 660 Z" stroke-width="0.5" stroke="black" stroke-linejoin="round" fill="red" fill-opacity="1" />
<path d="M800 620 L806.25 620 L806.25 660 L800 660 Z" stroke-width="0.5" stroke="black" stroke-linejoin="round" fill="#b4b8b9" fill-opacity="1" />
<path d="M806.25 626.25 L836.25 626.25 L836.25 653.75 L806.25 653.75 Z" stroke-width="0.5" stroke="black" stroke-linejoin="round" fill="#b4b8b9" fill-opacity="1" />
<path d="M836.25 627.5 L840 627.5 L840 652.5 L836.25 652.5 Z" stroke-width="0.5" stroke="black" stroke-linejoin="round" fill="#b4b8b9" fill-opacity="1" />
<path d="M840 626.25 L847.5 626.25 L847.5 653.75 L840 653.75 Z" stroke-width="0.5" stroke="black" stroke-linejoin="round" fill="#b4b8b9" fill-opacity="1" />
<path d="M847.5 627.5 L851.25 627.5 L851.25 652.5 L847.5 652.5 Z" stroke-width="0.5" stroke="black" stroke-linejoin="round" fill="#b4b8b9" fill-opacity="1" />
<path d="M851.25 626.25 L858.75 626.25 L858.75 653.75 L851.25 653.75 Z" stroke-width="0.5" stroke="black" stroke-linejoin="round" fill="#b4b8b9" fill-opacity="1" />
<path d="M858.75 627.5 L862.5 627.5 L862.5 652.5 L858.75 652.5 Z" stroke-width="0.5" stroke="black" stroke-linejoin="round" fill="#b4b8b9" fill-opacity="1" />
<path d="M862.5 626.25 L871.25 626.25 L871.25 653.75 L862.5 653.75 Z" stroke-width="0.5" stroke="black" stroke-linejoin="round" fill="#b4b8b9" fill-opacity="1" />
<path d="M128.75 751.875 L140 750 L140 770 L128.75 768.125 Z" stroke-width="0.5" stroke="black" stroke-linejoin="round" fill="#000000" fill-opacity="1" />
<path d="M140 746.875 L208.75 739.375 L208.75 780.625 L140 773.125 Z" stroke-width="0.5" stroke="black" stroke-linejoin="round" fill="#000000" fill-opacity="1" />
<path d="M208.75 739.375 L356.25 739.375 L356.25 780.625 L208.75 780.625 Z" stroke-width="0.5" stroke="black" stroke-linejoin="round" fill="#000000" fill-opacity="1" />
<path d="M208.75 739.375 L356.25 739.375 L356.25 780.625 L208.75 780.625 Z" stroke-width="1.0" stroke="black" fill="url(#diagonalHatch)"/>
<path d="M356.25 740 L693.75 740 L693.75 780 L356.25 780 Z" stroke-width="0.5" stroke="black" stroke-linejoin="round" fill="#000000" fill-opacity="1" />
<line x1="356.25" y1="760" x2="693.75" y2="760" stroke-width="1.5" stroke="black" fill="none" stroke-opacity="0.5"/>
<line x1="356.25" y1="760" x2="693.75" y2="760" stroke-width="0.5" stroke="gray" fill="none" stroke-opacity="0.5"/>
<path d="M538.5 725.875 Q561.25 749.375 571.25 725.875 Z" stroke-width="4" stroke="black" fill="dimgray" stroke-linecap="round" />
<line x1="536.25" y1="724.375" x2="718.75" y2="724.375" stroke-width="4" stroke="black" fill="dimgray" stroke-linecap="round" />
<path d="M718.75 724.375 Q738.75 731.875 718.75 739.375" stroke-width="4" stroke="black" fill="none" stroke-linecap="round" />
<path d="M693.75 737.5 L721.25 737.5 L721.25 782.5 L693.75 782.5 Z" stroke-width="0.5" stroke="black" stroke-linejoin="round" fill="#000000" fill-opacity="1" />
<path d="M538.5 725.875 Q561.25 748.375 571.25 725.875 Z" stroke-width="3" stroke="#000000" fill="#000000" stroke-linecap="round" />
<line x1="536.25" y1="724.375" x2="718.75" y2="724.375" stroke-width="3" stroke="#000000" fill="#000000" stroke-linecap="round" />
<path d="M718.75 724.375 Q738.75 731.875 718.75 739.375" stroke-width="3" stroke="#000000" fill="none" stroke-linecap="round" />
<path d="M721.25 740 L741.25 740 L741.25 780 L721.25 780 Z" stroke-width="0.5" stroke="black" stroke-linejoin="round" fill="#000000" fill-opacity="1" />
<path d="M741.25 739.375 L788.75 739.375 L788.75 780.625 L741.25 780.625 Z" stroke-width="0.5" stroke="black" stroke-linejoin="round" fill="#000000" fill-opacity="1" />
<path d="M741.25 739.375 L788.75 739.375 L788.75 780.625 L741.25 780.625 Z" stroke-width="1.0" stroke="black" fill="url(#diagonalHatch)"/>
<rect x="751.25" y="749.6875" width="27.5" height="20.625" rx="3" ry="3" stroke-width="1" stroke="black" fill="#000000"/>
<text x="765" y="760" text-anchor="middle" dominant-baseline="central"><tspan stroke="dimgray" stroke-width="0.5" font-family="sans-serif" fill="black" textLength="{this.width * 5 - 24}" > HB</tspan></text><path d="M788.75 740 L793.75 740 L793.75 780 L788.75 780 Z" stroke-width="0.5" stroke="black" stroke-linejoin="round" fill="#000000" fill-opacity="1" />
<path d="M793.75 740 L800 740 L800 780 L793.75 780 Z" stroke-width="0.5" stroke="black" stroke-linejoin="round" fill="white" fill-opacity="1" />
<path d="M800 740 L806.25 740 L806.25 780 L800 780 Z" stroke-width="0.5" stroke="black" stroke-linejoin="round" fill="#000000" fill-opacity="1" />
<path d="M806.25 746.25 L836.25 746.25 L836.25 773.75 L806.25 773.75 Z" stroke-width="0.5" stroke="black" stroke-linejoin="round" fill="#000000" fill-opacity="1" />
<path d="M836.25 747.5 L840 747.5 L840 772.5 L836.25 772.5 Z" stroke-width="0.5" stroke="black" stroke-linejoin="round" fill="#000000" fill-opacity="1" />
<path d="M840 746.25 L847.5 746.25 L847.5 773.75 L840 773.75 Z" stroke-width="0.5" stroke="black" stroke-linejoin="round" fill="#000000" fill-opacity="1" />
<path d="M847.5 747.5 L851.25 747.5 L851.25 772.5 L847.5 772.5 Z" stroke-width="0.5" stroke="black" stroke-linejoin="round" fill="#000000" fill-opacity="1" />
<path d="M851.25 746.25 L858.75 746.25 L858.75 773.75 L851.25 773.75 Z" stroke-width="0.5" stroke="black" stroke-linejoin="round" fill="#000000" fill-opacity="1" />
<path d="M858.75 747.5 L862.5 747.5 L862.5 772.5 L858.75 772.5 Z" stroke-width="0.5" stroke="black" stroke-linejoin="round" fill="#000000" fill-opacity="1" />
<path d="M862.5 746.25 L871.25 746.25 L871.25 773.75 L862.5 773.75 Z" stroke-width="0.5" stroke="black" stroke-linejoin="round" fill="#000000" fill-opacity="1" />
</g><text x="50%" y="860" font-size="1.1em" font-weight="bold" text-anchor="middle" dominant-baseline="middle">Copyright (c) // The Mechanical Pencil Database (tmpdb)</text>
<text x="50%" y="880" font-size="1.1em" font-weight="bold" text-anchor="middle" dominant-baseline="middle">Licensed under Creative Commons Attribution-NonCommercial-ShareAlike 4.0 International</text>
<text x="990" y="890" font-size="0.5em" font-weight="bold" text-anchor="end" dominant-baseline="middle">SVGTechnicalGroupedRenderer</text>
</svg>