<svg xmlns="http://www.w3.org/2000/svg" width="1200" height="449.25">
 <pattern id="diagonalHatch" patternUnits="userSpaceOnUse" width="8" height="8">
<path stroke="dimgray" stroke-linecap="round" stroke-width="1" d="M 4,4 L 8,8"/>
<path stroke="dimgray" stroke-linecap="round" stroke-width="1" d="M 4,4 L 0,8"/>
<path stroke="gray" stroke-linecap="round" stroke-width="1" d="M 4,4 L 8,0" />
<path stroke="gray" stroke-linecap="round" stroke-width="1" d="M 4,4 L 0,0" />
</pattern>
<pattern id="spring" patternUnits="userSpaceOnUse" width="8" height="100">
<path stroke="dimgray" stroke-linecap="round" stroke-width="2" d="M 0,0 L 8,100"/>
<path stroke="white" stroke-linecap="round" stroke-width="1" d="M 0,0 L 8,100"/>
</pattern>
<rect x="0" y="0" width="1200" height="449.25" fill="white" stroke="black" stroke-width="4" />
<rect x="2" y="2" width="1196" height="445.25" fill="white" stroke="dimgray" stroke-width="1" />
<g transform="rotate(0 0 0)">
<text x="30" y="50" font-size="2.0em" font-weight="bold"> Mitsubishi // uni (Model #: MH-500)</text>
<rect x="248.75" y="111.875" width="5" height="16.25" rx="1" ry="1" stroke-width="0.5" stroke="black" fill="white"/>
<path d="M253.75 106.875 L311.25 101.25 L311.25 138.75 L253.75 133.125 Z" stroke-width="0.5" stroke="black" stroke-linejoin="round" fill="white" />
<rect x="311.25" y="100" width="127.5" height="40" rx="1" ry="1" stroke-width="0.5" stroke="black" fill="white"/>
<rect x="311.25" y="100" width="127.5" height="40" rx="1" ry="1" stroke-width="0.5" stroke="black" fill="url(#diagonalHatch)"/>
<rect x="438.75" y="199.375" width="420" height="41.25" rx="1" ry="1" stroke-width="0.5" stroke="black" fill="white"/>
<line x1="438.75" y1="220" x2="858.75" y2="220" stroke-width="1.5" stroke="black" fill="none" stroke-opacity="0.5"/>
<line x1="438.75" y1="220" x2="858.75" y2="220" stroke-width="0.5" stroke="gray" fill="none" stroke-opacity="0.5"/>
<line x1="367.5" y1="220" x2="397.5" y2="220" stroke-linecap="round" stroke="#0f0f0f"  stroke-width="1.0" />
<line x1="377.5" y1="220" x2="387.5" y2="210" stroke-linecap="round" stroke="#0f0f0f" stroke-width="1.0" />
<line x1="377.5" y1="220" x2="387.5" y2="230" stroke-linecap="round" stroke="#0f0f0f" stroke-width="1.0" />
<line x1="367.5" y1="170" x2="367.5" y2="220" stroke="#0f0f0f" stroke-linecap="round"  stroke-width="1.0" />
<rect x="407.5" y="204.375" width="10" height="31.25" rx="1" ry="1" stroke-width="0.5" stroke="black" fill="white"/>
<rect x="417.5" y="202.5" width="21.25" height="35" rx="1" ry="1" stroke-width="0.5" stroke="black" fill="white"/>
<line x1="417.5" y1="200.5" x2="422.5" y2="239.5" stroke="dimgray" stroke-linecap="round" stroke-width="2" />
<line x1="417.5" y1="200.5" x2="422.5" y2="239.5" stroke="white" stroke-linecap="round" stroke-width="1" />
<line x1="422.5" y1="200.5" x2="427.5" y2="239.5" stroke="dimgray" stroke-linecap="round" stroke-width="2" />
<line x1="422.5" y1="200.5" x2="427.5" y2="239.5" stroke="white" stroke-linecap="round" stroke-width="1" />
<line x1="427.5" y1="200.5" x2="432.5" y2="239.5" stroke="dimgray" stroke-linecap="round" stroke-width="2" />
<line x1="427.5" y1="200.5" x2="432.5" y2="239.5" stroke="white" stroke-linecap="round" stroke-width="1" />
<line x1="432.5" y1="200.5" x2="437.5" y2="239.5" stroke="dimgray" stroke-linecap="round" stroke-width="2" />
<line x1="432.5" y1="200.5" x2="437.5" y2="239.5" stroke="white" stroke-linecap="round" stroke-width="1" />
<line x1="367.5" y1="170" x2="478.75" y2="170" stroke-linecap="round" stroke="#0f0f0f" stroke-width="1.0" />
<line x1="438.75" y1="180" x2="438.75" y2="260" stroke="white" stroke-linecap="round"  stroke-width="1.0" />
<line x1="438.75" y1="180" x2="438.75" y2="260" stroke="black" stroke-linecap="round" stroke-dasharray="2,3" stroke-width="1.0" />
<line x1="478.75" y1="120" x2="478.75" y2="170" stroke="#0f0f0f" stroke-linecap="round"  stroke-width="1.0" />
<line x1="448.75" y1="120" x2="478.75" y2="120" stroke-linecap="round" stroke="#0f0f0f"  stroke-width="1.0" />
<line x1="448.75" y1="120" x2="458.75" y2="110" stroke-linecap="round" stroke="#0f0f0f" stroke-width="1.0" />
<line x1="448.75" y1="120" x2="458.75" y2="130" stroke-linecap="round" stroke="#0f0f0f" stroke-width="1.0" />
<path d="M753.75 191.625 Q731.25 204.125 718.75 192.875" stroke-width="3" stroke="black" fill="none" stroke-linecap="round" />
<path d="M718.75 192.875 Q711.25 189.125 718.75 187.875" stroke-width="3" stroke="black" fill="none" stroke-linecap="round" />
<line x1="718.75" y1="187.875" x2="853.75" y2="187.875" stroke-width="3" stroke="black" fill="dimgray" stroke-linecap="round" />
/><line x1="853.75" y1="187.875" x2="858.75" y2="199.125" stroke-width="3" stroke="black" fill="dimgray" stroke-linecap="round" />
/><path d="M753.75 191.625 Q731.25 204.125 718.75 192.875" stroke-width="2" stroke="white" fill="none" stroke-linecap="round" />
<path d="M718.75 192.875 Q711.25 189.125 718.75 187.875" stroke-width="2" stroke="white" fill="none" stroke-linecap="round" />
<line x1="718.75" y1="187.875" x2="853.75" y2="187.875" stroke-width="2" stroke="white" fill="white" stroke-linecap="round" />
/><line x1="853.75" y1="187.875" x2="858.75" y2="199.125" stroke-width="2" stroke="white" fill="white" stroke-linecap="round" />
/><rect x="858.75" y="196.875" width="33.75" height="46.25" rx="1" ry="1" stroke-width="0.5" stroke="black" fill="white"/>
<rect x="892.5" y="305" width="48.75" height="30" rx="1" ry="1" stroke-width="0.5" stroke="#888888" fill="white"/>
<rect x="941.25" y="301.25" width="10" height="37.5" rx="1" ry="1" stroke-width="0.5" stroke="#888888" fill="white"/>
<line x1="826.25" y1="320" x2="856.25" y2="320" stroke-linecap="round" stroke="#0f0f0f"  stroke-width="1.0" />
<line x1="836.25" y1="320" x2="846.25" y2="310" stroke-linecap="round" stroke="#0f0f0f" stroke-width="1.0" />
<line x1="836.25" y1="320" x2="846.25" y2="330" stroke-linecap="round" stroke="#0f0f0f" stroke-width="1.0" />
<line x1="826.25" y1="270" x2="826.25" y2="320" stroke="#0f0f0f" stroke-linecap="round"  stroke-width="1.0" />
<rect x="866.25" y="305" width="21.25" height="30" rx="1" ry="1" stroke-width="0.5" stroke="#888888" fill="white"/>
<rect x="887.5" y="304.375" width="5" height="31.25" rx="1" ry="1" stroke-width="0.5" stroke="#888888" fill="white"/>
<line x1="826.25" y1="270" x2="932.5" y2="270" stroke-linecap="round" stroke="#0f0f0f" stroke-width="1.0" />
<line x1="892.5" y1="280" x2="892.5" y2="360" stroke="white" stroke-linecap="round"  stroke-width="1.0" />
<line x1="892.5" y1="280" x2="892.5" y2="360" stroke="black" stroke-linecap="round" stroke-dasharray="2,3" stroke-width="1.0" />
<line x1="932.5" y1="220" x2="932.5" y2="270" stroke="#0f0f0f" stroke-linecap="round"  stroke-width="1.0" />
<line x1="902.5" y1="220" x2="932.5" y2="220" stroke-linecap="round" stroke="#0f0f0f"  stroke-width="1.0" />
<line x1="902.5" y1="220" x2="912.5" y2="210" stroke-linecap="round" stroke="#0f0f0f" stroke-width="1.0" />
<line x1="902.5" y1="220" x2="912.5" y2="230" stroke-linecap="round" stroke="#0f0f0f" stroke-width="1.0" />
</g><text x="50%" y="429.25" font-size="1.1em" font-weight="bold" text-anchor="middle" dominant-baseline="middle">Copyright (c) // The Mechanical Pencil Database (tmpdb) // Licensed under Creative Commons Attribution-NonCommercial-ShareAlike 4.0 International</text>
<text x="1190" y="439.25" font-size="0.5em" font-weight="bold" text-anchor="end" dominant-baseline="middle"></text>
</svg>