<svg xmlns="http://www.w3.org/2000/svg" width="1200" height="500">
 <pattern id="knurled-large" patternUnits="userSpaceOnUse" width="12" height="12">
<path stroke="dimgray" stroke-linecap="round" stroke-width="1" d="M 6,6 L 12,12"/>
<path stroke="dimgray" stroke-linecap="round" stroke-width="1" d="M 6,6 L 0,12"/>
<path stroke="gray" stroke-linecap="round" stroke-width="1" d="M 6,6 L 12,0" />
<path stroke="gray" stroke-linecap="round" stroke-width="1" d="M 6,6 L 0,0" />
</pattern><pattern id="knurled-small" patternUnits="userSpaceOnUse" width="4" height="4">
<path stroke="dimgray" stroke-linecap="round" stroke-width="1" d="M 2,2 L 4,4"/>
<path stroke="dimgray" stroke-linecap="round" stroke-width="1" d="M 2,2 L 0,4"/>
<path stroke="gray" stroke-linecap="round" stroke-width="1" d="M 2,2 L 4,0" />
<path stroke="gray" stroke-linecap="round" stroke-width="1" d="M 2,2 L 0,0" />
</pattern><pattern id="knurled" patternUnits="userSpaceOnUse" width="8" height="8">
<path stroke="dimgray" stroke-linecap="round" stroke-width="1" d="M 4,4 L 8,8"/>
<path stroke="dimgray" stroke-linecap="round" stroke-width="1" d="M 4,4 L 0,8"/>
<path stroke="gray" stroke-linecap="round" stroke-width="1" d="M 4,4 L 8,0" />
<path stroke="gray" stroke-linecap="round" stroke-width="1" d="M 4,4 L 0,0" />
</pattern><pattern id="lined" patternUnits="userSpaceOnUse" width="3" height="3">
<path stroke="dimgray" stroke-linecap="round" stroke-width="1" d="M 0,0 L 3,0"/>
</pattern><pattern id="ridged" patternUnits="userSpaceOnUse" width="3" height="3">
<path stroke="dimgray" stroke-linecap="round" stroke-width="1" d="M 0,0 L 0,3"/>
</pattern><pattern id="spring" patternUnits="userSpaceOnUse" width="8" height="60">
<path stroke="dimgray" stroke-linecap="round" stroke-width="2" d="M 1,1 L 8,60"/>
<path stroke="white" stroke-linecap="round" stroke-width="1" d="M 1,1 L 8,60"/>
</pattern><rect x="0" y="0" width="1200" height="500" fill="white" stroke="black" stroke-width="4" />
<rect x="2" y="2" width="1196" height="496" fill="white" stroke="dimgray" stroke-width="1" />
<g transform="rotate(0 0 0)">
<line x1="40" y1="300" x2="1160" y2="300" stroke-linecap="round" stroke="#5f5f5f" stroke-dasharray="2" stroke-width="1" />
<line x1="20" y1="300" x2="60" y2="300" stroke-linecap="round" stroke="#000000"  stroke-width="1" />
<line x1="40" y1="280" x2="40" y2="320" stroke="#000000" stroke-linecap="round"  stroke-width="1" />
<circle r="10" cx="40" cy="300" fill="white" fill-opacity="0" stroke="#000000" stroke-width="1"  />
<line x1="1140" y1="300" x2="1180" y2="300" stroke-linecap="round" stroke="#000000"  stroke-width="1" />
<line x1="1160" y1="280" x2="1160" y2="320" stroke="#000000" stroke-linecap="round"  stroke-width="1" />
<circle r="10" cx="1160" cy="300" fill="white" fill-opacity="0" stroke="#000000" stroke-width="1"  />
<line x1="600" y1="90" x2="600" y2="410" stroke="#5f5f5f" stroke-linecap="round" stroke-dasharray="2" stroke-width="1" />
<line x1="580" y1="90" x2="620" y2="90" stroke-linecap="round" stroke="#000000"  stroke-width="1" />
<line x1="600" y1="70" x2="600" y2="110" stroke="#000000" stroke-linecap="round"  stroke-width="1" />
<circle r="10" cx="600" cy="90" fill="white" fill-opacity="0" stroke="#000000" stroke-width="1"  />
<line x1="580" y1="410" x2="620" y2="410" stroke-linecap="round" stroke="#000000"  stroke-width="1" />
<line x1="600" y1="390" x2="600" y2="430" stroke="#000000" stroke-linecap="round"  stroke-width="1" />
<circle r="10" cx="600" cy="410" fill="white" fill-opacity="0" stroke="#000000" stroke-width="1"  />
<text x="30" y="50" font-size="2.0em" font-weight="bold"> Mitsubishi // uni (Model #: MH-500)</text>
<line x1="248.75" y1="188.875" x2="248.75" y2="300" stroke="#cfcfcf" stroke-linecap="round"  stroke-width="1" />
<line x1="248.75" y1="180" x2="248.75" y2="300" stroke="#cfcfcf" stroke-linecap="round"  stroke-width="1" />
<line x1="253.75" y1="180" x2="253.75" y2="300" stroke="#cfcfcf" stroke-linecap="round"  stroke-width="1" />
<line x1="311.25" y1="180" x2="311.25" y2="300" stroke="#cfcfcf" stroke-linecap="round"  stroke-width="1" />
<line x1="438.75" y1="180" x2="438.75" y2="300" stroke="#cfcfcf" stroke-linecap="round"  stroke-width="1" />
<line x1="858.75" y1="180" x2="858.75" y2="300" stroke="#cfcfcf" stroke-linecap="round"  stroke-width="1" />
<line x1="711.25" y1="220" x2="711.25" y2="300" stroke="#cfcfcf" stroke-linecap="round"  stroke-width="1" />
<line x1="858.75" y1="220" x2="858.75" y2="300" stroke="#cfcfcf" stroke-linecap="round"  stroke-width="1" />
<line x1="892.5" y1="180" x2="892.5" y2="300" stroke="#cfcfcf" stroke-linecap="round"  stroke-width="1" />
<line x1="951.25" y1="188.875" x2="951.25" y2="300" stroke="#cfcfcf" stroke-linecap="round"  stroke-width="1" />
<line x1="248.75" y1="169" x2="248.75" y2="191" stroke="black" stroke-width="1" />
<line x1="248.75" y1="180" x2="253.75" y2="180" stroke="black" stroke-width="1" />
<line x1="253.75" y1="169" x2="253.75" y2="191" stroke="black" stroke-width="1" />
<text x="251.25" y="161" font-size="1.2em" transform="rotate(-90, 251.25, 161)" font-weight="bold" text-anchor="start" dominant-baseline="central" fill="black"><tspan x="251.25" dy="0">1.00 mm jaws</tspan></text>
<line x1="253.75" y1="169" x2="253.75" y2="191" stroke="black" stroke-width="1" />
<line x1="253.75" y1="180" x2="311.25" y2="180" stroke="black" stroke-width="1" />
<line x1="311.25" y1="169" x2="311.25" y2="191" stroke="black" stroke-width="1" />
<text x="282.5" y="161" font-size="1.2em" transform="rotate(-90, 270.5, 161)" font-weight="bold" text-anchor="start" dominant-baseline="central" fill="black"><tspan x="274.5" dy="0">11.50 mm</tspan><tspan x="274.5" dy="1em">tip</tspan></text>
<line x1="311.25" y1="169" x2="311.25" y2="191" stroke="black" stroke-width="1" />
<line x1="311.25" y1="180" x2="438.75" y2="180" stroke="black" stroke-width="1" />
<line x1="438.75" y1="169" x2="438.75" y2="191" stroke="black" stroke-width="1" />
<text x="375" y="161" font-size="1.2em" transform="rotate(-90, 363, 161)" font-weight="bold" text-anchor="start" dominant-baseline="central" fill="black"><tspan x="367" dy="0">25.50 mm</tspan><tspan x="367" dy="1em">grip</tspan></text>
<line x1="438.75" y1="169" x2="438.75" y2="191" stroke="black" stroke-width="1" />
<line x1="438.75" y1="180" x2="858.75" y2="180" stroke="black" stroke-width="1" />
<line x1="858.75" y1="169" x2="858.75" y2="191" stroke="black" stroke-width="1" />
<text x="648.75" y="161" font-size="1.2em" transform="rotate(-90, 636.75, 161)" font-weight="bold" text-anchor="start" dominant-baseline="central" fill="black"><tspan x="640.75" dy="0">84.00 mm</tspan><tspan x="640.75" dy="1em">body</tspan></text>
<line x1="858.75" y1="169" x2="858.75" y2="191" stroke="black" stroke-width="1" />
<line x1="858.75" y1="180" x2="892.5" y2="180" stroke="black" stroke-width="1" />
<line x1="892.5" y1="169" x2="892.5" y2="191" stroke="black" stroke-width="1" />
<text x="875.625" y="161" font-size="1.2em" transform="rotate(-90, 863.625, 161)" font-weight="bold" text-anchor="start" dominant-baseline="central" fill="black"><tspan x="867.625" dy="0">6.75 mm</tspan><tspan x="867.625" dy="1em">clip</tspan></text>
<line x1="711.25" y1="209" x2="711.25" y2="231" stroke="black" stroke-width="1" />
<line x1="711.25" y1="220" x2="858.75" y2="220" stroke="black" stroke-width="1" />
<line x1="858.75" y1="209" x2="858.75" y2="231" stroke="black" stroke-width="1" />
<text x="785" y="212" font-weight="bold" font-size="1.2em" stroke="white" stroke-width="0.25" text-anchor="middle" dominant-baseline="middle" fill="black"><tspan x="777" dy="0">29.50 mm</tspan><tspan x="777" dy="1em">clip (extra)</tspan></text>
<line x1="892.5" y1="169" x2="892.5" y2="191" stroke="black" stroke-width="1" />
<line x1="892.5" y1="180" x2="951.25" y2="180" stroke="black" stroke-width="1" />
<line x1="951.25" y1="169" x2="951.25" y2="191" stroke="black" stroke-width="1" />
<text x="921.875" y="161" font-size="1.2em" transform="rotate(-90, 909.875, 161)" font-weight="bold" text-anchor="start" dominant-baseline="central" fill="black"><tspan x="913.875" dy="0">11.75 mm</tspan><tspan x="913.875" dy="1em">cap</tspan></text>


<!-- renderSideComponent: jaws -->


<!-- renderPart: cone -->
<path d="M248.7 293.125 L253.8 289.375 L253.8 310.625 L248.7 306.875 L248.7 293.125" stroke-width="0" stroke="none" stroke-linejoin="round" fill="white" fill-opacity="1"/>
<path d="M248.7 293.125 L253.8 289.375 M253.8 310.625 L248.7 306.875" stroke-width="0.5" stroke="black" stroke-linejoin="round" fill="white" fill-opacity="1"/>
<!-- !right !both --><path d="M253.8 289.375 L253.8 310.625" stroke-width="0.5" stroke="black" stroke-linejoin="round" fill="white" fill-opacity="1"/>
<!-- !left !both --><path d="M248.7 293.125 L248.7 306.875" stroke-width="0.5" stroke="black" stroke-linejoin="round" fill="white" fill-opacity="1"/>


<!-- renderSideComponent: tip -->


<!-- renderPart: cone -->
<path d="M253.7 286.875 L311.3 281.25 L311.3 318.75 L253.7 313.125 L253.7 286.875" stroke-width="0" stroke="none" stroke-linejoin="round" fill="white" fill-opacity="1"/>
<path d="M253.7 286.875 L311.3 281.25 M311.3 318.75 L253.7 313.125" stroke-width="0.5" stroke="black" stroke-linejoin="round" fill="white" fill-opacity="1"/>
<!-- !right !both --><path d="M311.3 281.25 L311.3 318.75" stroke-width="0.5" stroke="black" stroke-linejoin="round" fill="white" fill-opacity="1"/>
<!-- !left !both --><path d="M253.7 286.875 L253.7 313.125" stroke-width="0.5" stroke="black" stroke-linejoin="round" fill="white" fill-opacity="1"/>


<!-- renderSideComponent: grip -->


<!-- renderPart: cylinder -->
<path d="M311.2 280 L438.8 280 L438.8 320 L311.2 320 L311.2 280" stroke-width="0" stroke="none" stroke-linejoin="round" fill="white" fill-opacity="1"/>
<path d="M311.2 280 L438.8 280 M438.8 320 L311.2 320" stroke-width="0.5" stroke="black" stroke-linejoin="round" fill="white" fill-opacity="1"/>
<!-- !right !both --><path d="M438.8 280 L438.8 320" stroke-width="0.5" stroke="black" stroke-linejoin="round" fill="white" fill-opacity="1"/>
<!-- !left !both --><path d="M311.2 280 L311.2 320" stroke-width="0.5" stroke="black" stroke-linejoin="round" fill="white" fill-opacity="1"/>
<!-- DEFAULT FINISH: knurled --><path d="M311.25 280 L438.75 280 L438.75 320 L311.25 320 Z" stroke-width="0.5" stroke="black" fill="url(#knurled)"/>


<!-- renderSideComponent: body -->


<!-- renderPart: hexagonal -->
<path d="M438.7 279.375 L858.8 279.375 L858.8 320.625 L438.7 320.625 L438.7 279.375" stroke-width="0" stroke="none" stroke-linejoin="round" fill="white" fill-opacity="1"/>
<path d="M438.7 279.375 L858.8 279.375 M858.8 320.625 L438.7 320.625" stroke-width="0.5" stroke="black" stroke-linejoin="round" fill="white" fill-opacity="1"/>
<!-- !right !both --><path d="M858.8 279.375 L858.8 320.625" stroke-width="0.5" stroke="black" stroke-linejoin="round" fill="white" fill-opacity="1"/>
<!-- !left !both --><path d="M438.7 279.375 L438.7 320.625" stroke-width="0.5" stroke="black" stroke-linejoin="round" fill="white" fill-opacity="1"/>
<line x1="438.75" y1="300" x2="858.75" y2="300" stroke-width="1.5" stroke="gray" fill="gray" stroke-opacity="1.0"/>
<line x1="438.75" y1="300" x2="858.75" y2="300" stroke-width="0.5" stroke="black" fill="none" stroke-opacity="0.5"/>


<!-- renderSideComponent: clip -->
<path d="M753.75 271.625 Q731.25 284.125 718.75 272.875" stroke-width="4" stroke="black" fill="none" stroke-linecap="round" />
<path d="M718.75 272.875 Q711.25 269.125 718.75 267.875" stroke-width="4" stroke="black" fill="none" stroke-linecap="round" />
<line x1="718.75" y1="267.875" x2="853.75" y2="267.875" stroke-width="4" stroke="black" fill="dimgray" stroke-linecap="round" />
<line x1="853.75" y1="267.875" x2="858.75" y2="279.125" stroke-width="4" stroke="black" fill="dimgray" stroke-linecap="round" />


<!-- renderPart: cylinder -->
<path d="M858.7 276.875 L892.55 276.875 L892.55 323.125 L858.7 323.125 L858.7 276.875" stroke-width="0" stroke="none" stroke-linejoin="round" fill="white" fill-opacity="1"/>
<path d="M858.7 276.875 L892.55 276.875 M892.55 323.125 L858.7 323.125" stroke-width="0.5" stroke="black" stroke-linejoin="round" fill="white" fill-opacity="1"/>
<!-- !right !both --><path d="M892.55 276.875 L892.55 323.125" stroke-width="0.5" stroke="black" stroke-linejoin="round" fill="white" fill-opacity="1"/>
<!-- !left !both --><path d="M858.7 276.875 L858.7 323.125" stroke-width="0.5" stroke="black" stroke-linejoin="round" fill="white" fill-opacity="1"/>
<path d="M753.75 271.625 Q731.25 284.125 718.75 272.875" stroke-width="3" stroke="white" fill="none" stroke-linecap="round" />
<path d="M718.75 272.875 Q711.25 269.125 718.75 267.875" stroke-width="3" stroke="white" fill="none" stroke-linecap="round" />
<line x1="718.75" y1="267.875" x2="853.75" y2="267.875" stroke-width="3" stroke="white" fill="white" stroke-linecap="round" />
<line x1="853.75" y1="267.875" x2="858.75" y2="279.125" stroke-width="3" stroke="white" fill="white" stroke-linecap="round" />


<!-- renderSideComponent: cap -->


<!-- renderPart: cylinder -->
<path d="M892.45 285 L941.3 285 L941.3 315 L892.45 315 L892.45 285" stroke-width="0" stroke="none" stroke-linejoin="round" fill="white" fill-opacity="1"/>
<path d="M892.45 285 L941.3 285 M941.3 315 L892.45 315" stroke-width="0.5" stroke="black" stroke-linejoin="round" fill="white" fill-opacity="1"/>
<!-- !right !both --><path d="M941.3 285 L941.3 315" stroke-width="0.5" stroke="black" stroke-linejoin="round" fill="white" fill-opacity="1"/>
<!-- !left !both --><path d="M892.45 285 L892.45 315" stroke-width="0.5" stroke="black" stroke-linejoin="round" fill="white" fill-opacity="1"/>


<!-- renderPart: cylinder -->
<path d="M941.2 281.25 L951.3 281.25 L951.3 318.75 L941.2 318.75 L941.2 281.25" stroke-width="0" stroke="none" stroke-linejoin="round" fill="white" fill-opacity="1"/>
<path d="M941.2 281.25 L951.3 281.25 M951.3 318.75 L941.2 318.75" stroke-width="0.5" stroke="black" stroke-linejoin="round" fill="white" fill-opacity="1"/>
<!-- !right !both --><path d="M951.3 281.25 L951.3 318.75" stroke-width="0.5" stroke="black" stroke-linejoin="round" fill="white" fill-opacity="1"/>
<!-- !left !both --><path d="M941.2 281.25 L941.2 318.75" stroke-width="0.5" stroke="black" stroke-linejoin="round" fill="white" fill-opacity="1"/>
</g><text x="50%" y="460" font-size="1.1em" font-weight="bold" text-anchor="middle" dominant-baseline="middle">Copyright (c) // Synapticloop // The Mechanical Pencil Database (tmpdb)</text>
<text x="50%" y="480" font-size="1.1em" font-weight="bold" text-anchor="middle" dominant-baseline="middle">Licensed under Creative Commons Attribution-NonCommercial-ShareAlike 4.0 International</text>
<text x="1190" y="490" font-size="0.5em" font-weight="bold" text-anchor="end" dominant-baseline="middle">SVGTechnicalComponentRenderer</text>
</svg>