<svg xmlns="http://www.w3.org/2000/svg" width="1200" height="569.25">
 <pattern id="diagonalHatch" patternUnits="userSpaceOnUse" width="8" height="8">
<path stroke="dimgray" stroke-linecap="round" stroke-width="1" d="M 4,4 L 8,8"/>
<path stroke="dimgray" stroke-linecap="round" stroke-width="1" d="M 4,4 L 0,8"/>
<path stroke="gray" stroke-linecap="round" stroke-width="1" d="M 4,4 L 8,0" />
<path stroke="gray" stroke-linecap="round" stroke-width="1" d="M 4,4 L 0,0" />
</pattern>
<pattern id="ridged" patternUnits="userSpaceOnUse" width="3" height="3">
<path stroke="dimgray" stroke-linecap="round" stroke-width="1" d="M 0,0 L 0,3"/>
</pattern>
<pattern id="lined" patternUnits="userSpaceOnUse" width="3" height="3">
<path stroke="dimgray" stroke-linecap="round" stroke-width="1" d="M 0,0 L 3,0"/>
</pattern>
<pattern id="spring" patternUnits="userSpaceOnUse" width="8" height="100">
<path stroke="dimgray" stroke-linecap="round" stroke-width="2" d="M 0,0 L 8,100"/>
<path stroke="white" stroke-linecap="round" stroke-width="1" d="M 0,0 L 8,100"/>
</pattern>
<rect x="0" y="0" width="1200" height="569.25" fill="white" stroke="black" stroke-width="4" />
<rect x="2" y="2" width="1196" height="565.25" fill="white" stroke="dimgray" stroke-width="1" />
<g transform="rotate(0 0 0)">
<text x="30" y="50" font-size="2.0em" font-weight="bold"> Mitsubishi // uni (Model #: MH-500)</text>
<path d="M248.75 113.125 L253.75 109.375 L253.75 130.625 L248.75 126.875 Z" stroke-width="0.5" stroke="black" stroke-linejoin="round" fill="white" fill-opacity="1" />
<!-- here --><path d="M253.75 109.375 L280 111.25 L280 128.75 L253.75 130.625 Z" stroke-width="0.5" stroke="black" stroke-linejoin="round" fill="white" fill-opacity="1" />
<!-- here --><path d="M280 111.875 L337.5 111.875 L337.5 128.125 L280 128.125 Z" stroke-width="0.5" stroke="black" stroke-linejoin="round" fill="white" fill-opacity="1" />
<rect x="285" y="106.875" width="47.5" height="26.25" stroke-width="0.0" stroke="black" fill="url(#spring)"/>
<line x1="280.5" y1="106.875" x2="280.5" y2="133.125" stroke="dimgray" stroke-linecap="round" stroke-width="2" />
<line x1="280.5" y1="106.875" x2="280.5" y2="133.125" stroke="white" stroke-linecap="round" stroke-width="1" />
<line x1="337" y1="106.875" x2="337" y2="133.125" stroke="dimgray" stroke-linecap="round" stroke-width="2" />
<line x1="337" y1="106.875" x2="337" y2="133.125" stroke="white" stroke-linecap="round" stroke-width="1" />
<line x1="282.5" y1="106.875" x2="282.5" y2="133.125" stroke="dimgray" stroke-linecap="round" stroke-width="2" />
<line x1="282.5" y1="106.875" x2="282.5" y2="133.125" stroke="white" stroke-linecap="round" stroke-width="1" />
<line x1="335" y1="106.875" x2="335" y2="133.125" stroke="dimgray" stroke-linecap="round" stroke-width="2" />
<line x1="335" y1="106.875" x2="335" y2="133.125" stroke="white" stroke-linecap="round" stroke-width="1" />
<line x1="284.5" y1="106.875" x2="284.5" y2="133.125" stroke="dimgray" stroke-linecap="round" stroke-width="2" />
<line x1="284.5" y1="106.875" x2="284.5" y2="133.125" stroke="white" stroke-linecap="round" stroke-width="1" />
<line x1="333" y1="106.875" x2="333" y2="133.125" stroke="dimgray" stroke-linecap="round" stroke-width="2" />
<line x1="333" y1="106.875" x2="333" y2="133.125" stroke="white" stroke-linecap="round" stroke-width="1" />
<line x1="286.5" y1="106.875" x2="286.5" y2="133.125" stroke="dimgray" stroke-linecap="round" stroke-width="2" />
<line x1="286.5" y1="106.875" x2="286.5" y2="133.125" stroke="white" stroke-linecap="round" stroke-width="1" />
<line x1="331" y1="106.875" x2="331" y2="133.125" stroke="dimgray" stroke-linecap="round" stroke-width="2" />
<line x1="331" y1="106.875" x2="331" y2="133.125" stroke="white" stroke-linecap="round" stroke-width="1" />
<!-- here --><path d="M337.5 110 L353.75 110 L353.75 130 L337.5 130 Z" stroke-width="0.5" stroke="black" stroke-linejoin="round" fill="white" fill-opacity="1" />
<!-- here --><path d="M353.75 105 L388.75 105 L388.75 135 L353.75 135 Z" stroke-width="0.5" stroke="black" stroke-linejoin="round" fill="white" fill-opacity="1" />
<!-- here --><path d="M388.75 107.5 L912.5 107.5 L912.5 132.5 L388.75 132.5 Z" stroke-width="0.5" stroke="black" stroke-linejoin="round" fill="white" fill-opacity="1" />
<line x1="253.75" y1="80" x2="253.75" y2="160" stroke="white" stroke-linecap="round"  stroke-width="1.0" />
<line x1="253.75" y1="80" x2="253.75" y2="160" stroke="black" stroke-linecap="round" stroke-dasharray="2,3" stroke-width="1.0" />
<line x1="263.75" y1="120" x2="952.5" y2="120" stroke-linecap="round" stroke="white"  stroke-width="2.0" />
<line x1="263.75" y1="120" x2="952.5" y2="120" stroke-linecap="round" stroke="#0f0f0f"  stroke-width="1.0" />
<line x1="263.75" y1="120" x2="270.75" y2="120" stroke-linecap="round" stroke="#ffffff" stroke-width="2.0" />
<line x1="263.75" y1="120" x2="277.75" y2="112" stroke-linecap="round" stroke="#ffffff" stroke-width="2.0" />
<line x1="277.75" y1="112" x2="270.75" y2="120" stroke-linecap="round" stroke="#ffffff" stroke-width="2.0" />
<line x1="263.75" y1="120" x2="277.75" y2="128" stroke-linecap="round" stroke="#ffffff" stroke-width="2.0" />
<line x1="277.75" y1="128" x2="270.75" y2="120" stroke-linecap="round" stroke="#ffffff" stroke-width="2.0" />
<line x1="263.75" y1="120" x2="277.75" y2="112" stroke-linecap="round" stroke="#0f0f0f" stroke-width="1.0" />
<line x1="277.75" y1="112" x2="270.75" y2="120" stroke-linecap="round" stroke="#0f0f0f" stroke-width="1.0" />
<line x1="263.75" y1="120" x2="277.75" y2="128" stroke-linecap="round" stroke="#0f0f0f" stroke-width="1.0" />
<line x1="277.75" y1="128" x2="270.75" y2="120" stroke-linecap="round" stroke="#0f0f0f" stroke-width="1.0" />
<line x1="952.5" y1="120" x2="952.5" y2="170" stroke="white" stroke-linecap="round"  stroke-width="2.0" />
<line x1="952.5" y1="120" x2="952.5" y2="170" stroke="#0f0f0f" stroke-linecap="round"  stroke-width="1.0" />
<line x1="213.75" y1="170" x2="952.5" y2="170" stroke-linecap="round" stroke="white"  stroke-width="2.0" />
<line x1="213.75" y1="170" x2="952.5" y2="170" stroke-linecap="round" stroke="#0f0f0f"  stroke-width="1.0" />
<line x1="213.75" y1="220" x2="243.75" y2="220" stroke-linecap="round" stroke="white"  stroke-width="2.0" />
<line x1="213.75" y1="220" x2="243.75" y2="220" stroke-linecap="round" stroke="#0f0f0f"  stroke-width="1.0" />
<line x1="223.75" y1="220" x2="230.75" y2="220" stroke-linecap="round" stroke="#ffffff" stroke-width="2.0" />
<line x1="223.75" y1="220" x2="237.75" y2="212" stroke-linecap="round" stroke="#ffffff" stroke-width="2.0" />
<line x1="237.75" y1="212" x2="230.75" y2="220" stroke-linecap="round" stroke="#ffffff" stroke-width="2.0" />
<line x1="223.75" y1="220" x2="237.75" y2="228" stroke-linecap="round" stroke="#ffffff" stroke-width="2.0" />
<line x1="237.75" y1="228" x2="230.75" y2="220" stroke-linecap="round" stroke="#ffffff" stroke-width="2.0" />
<line x1="223.75" y1="220" x2="237.75" y2="212" stroke-linecap="round" stroke="#0f0f0f" stroke-width="1.0" />
<line x1="237.75" y1="212" x2="230.75" y2="220" stroke-linecap="round" stroke="#0f0f0f" stroke-width="1.0" />
<line x1="223.75" y1="220" x2="237.75" y2="228" stroke-linecap="round" stroke="#0f0f0f" stroke-width="1.0" />
<line x1="237.75" y1="228" x2="230.75" y2="220" stroke-linecap="round" stroke="#0f0f0f" stroke-width="1.0" />
<line x1="213.75" y1="170" x2="213.75" y2="220" stroke="white" stroke-linecap="round"  stroke-width="2.0" />
<line x1="213.75" y1="170" x2="213.75" y2="220" stroke="#0f0f0f" stroke-linecap="round"  stroke-width="1.0" />
<path d="M253.75 206.875 L311.25 201.25 L311.25 238.75 L253.75 233.125 Z" stroke-width="0.5" stroke="black" stroke-linejoin="round" fill="white" fill-opacity="1" />
<path d="M311.25 200 L438.75 200 L438.75 240 L311.25 240 Z" stroke-width="0.5" stroke="black" stroke-linejoin="round" fill="white" fill-opacity="1" />
<path d="M311.25 200 L438.75 200 L438.75 240 L311.25 240 Z" stroke-width="1.0" stroke="black" fill="url(#diagonalHatch)"/>
<path d="M438.75 299.375 L858.75 299.375 L858.75 340.625 L438.75 340.625 Z" stroke-width="0.5" stroke="black" stroke-linejoin="round" fill="white" fill-opacity="1" />
<line x1="438.75" y1="320" x2="858.75" y2="320" stroke-width="1.5" stroke="black" fill="none" stroke-opacity="0.5"/>
<line x1="438.75" y1="320" x2="858.75" y2="320" stroke-width="0.5" stroke="gray" fill="none" stroke-opacity="0.5"/>
<line x1="367.5" y1="320" x2="397.5" y2="320" stroke-linecap="round" stroke="white"  stroke-width="2.0" />
<line x1="367.5" y1="320" x2="397.5" y2="320" stroke-linecap="round" stroke="#0f0f0f"  stroke-width="1.0" />
<line x1="377.5" y1="320" x2="384.5" y2="320" stroke-linecap="round" stroke="#ffffff" stroke-width="2.0" />
<line x1="377.5" y1="320" x2="391.5" y2="312" stroke-linecap="round" stroke="#ffffff" stroke-width="2.0" />
<line x1="391.5" y1="312" x2="384.5" y2="320" stroke-linecap="round" stroke="#ffffff" stroke-width="2.0" />
<line x1="377.5" y1="320" x2="391.5" y2="328" stroke-linecap="round" stroke="#ffffff" stroke-width="2.0" />
<line x1="391.5" y1="328" x2="384.5" y2="320" stroke-linecap="round" stroke="#ffffff" stroke-width="2.0" />
<line x1="377.5" y1="320" x2="391.5" y2="312" stroke-linecap="round" stroke="#0f0f0f" stroke-width="1.0" />
<line x1="391.5" y1="312" x2="384.5" y2="320" stroke-linecap="round" stroke="#0f0f0f" stroke-width="1.0" />
<line x1="377.5" y1="320" x2="391.5" y2="328" stroke-linecap="round" stroke="#0f0f0f" stroke-width="1.0" />
<line x1="391.5" y1="328" x2="384.5" y2="320" stroke-linecap="round" stroke="#0f0f0f" stroke-width="1.0" />
<line x1="367.5" y1="270" x2="367.5" y2="320" stroke="white" stroke-linecap="round"  stroke-width="2.0" />
<line x1="367.5" y1="270" x2="367.5" y2="320" stroke="#0f0f0f" stroke-linecap="round"  stroke-width="1.0" />
<path d="M407.5 304.375 L417.5 304.375 L417.5 335.625 L407.5 335.625 Z" stroke-width="0.5" stroke="black" stroke-linejoin="round" fill="white" fill-opacity="1" />
<path d="M417.5 302.5 L438.75 302.5 L438.75 337.5 L417.5 337.5 Z" stroke-width="0.5" stroke="black" stroke-linejoin="round" fill="white" fill-opacity="1" />
<line x1="417.5" y1="300.5" x2="422.5" y2="339.5" stroke="dimgray" stroke-linecap="round" stroke-width="2" />
<line x1="417.5" y1="300.5" x2="422.5" y2="339.5" stroke="[object Object]" stroke-linecap="round" stroke-width="1" />
<line x1="422.5" y1="300.5" x2="427.5" y2="339.5" stroke="dimgray" stroke-linecap="round" stroke-width="2" />
<line x1="422.5" y1="300.5" x2="427.5" y2="339.5" stroke="[object Object]" stroke-linecap="round" stroke-width="1" />
<line x1="427.5" y1="300.5" x2="432.5" y2="339.5" stroke="dimgray" stroke-linecap="round" stroke-width="2" />
<line x1="427.5" y1="300.5" x2="432.5" y2="339.5" stroke="[object Object]" stroke-linecap="round" stroke-width="1" />
<line x1="432.5" y1="300.5" x2="437.5" y2="339.5" stroke="dimgray" stroke-linecap="round" stroke-width="2" />
<line x1="432.5" y1="300.5" x2="437.5" y2="339.5" stroke="[object Object]" stroke-linecap="round" stroke-width="1" />
<line x1="367.5" y1="270" x2="478.75" y2="270" stroke-linecap="round" stroke="white"  stroke-width="2.0" />
<line x1="367.5" y1="270" x2="478.75" y2="270" stroke-linecap="round" stroke="#0f0f0f"  stroke-width="1.0" />
<line x1="438.75" y1="280" x2="438.75" y2="360" stroke="white" stroke-linecap="round"  stroke-width="1.0" />
<line x1="438.75" y1="280" x2="438.75" y2="360" stroke="black" stroke-linecap="round" stroke-dasharray="2,3" stroke-width="1.0" />
<line x1="478.75" y1="220" x2="478.75" y2="270" stroke="#ffffff" stroke-linecap="round"  stroke-width="2.0" />
<line x1="478.75" y1="220" x2="478.75" y2="270" stroke="#0f0f0f" stroke-linecap="round"  stroke-width="1.0" />
<line x1="448.75" y1="220" x2="478.75" y2="220" stroke-linecap="round" stroke="#0f0f0f"  stroke-width="1.0" />
<line x1="448.75" y1="220" x2="455.75" y2="220" stroke-linecap="round" stroke="#ffffff" stroke-width="2.0" />
<line x1="448.75" y1="220" x2="462.75" y2="212" stroke-linecap="round" stroke="#ffffff" stroke-width="2.0" />
<line x1="462.75" y1="212" x2="455.75" y2="220" stroke-linecap="round" stroke="#ffffff" stroke-width="2.0" />
<line x1="448.75" y1="220" x2="462.75" y2="228" stroke-linecap="round" stroke="#ffffff" stroke-width="2.0" />
<line x1="462.75" y1="228" x2="455.75" y2="220" stroke-linecap="round" stroke="#ffffff" stroke-width="2.0" />
<line x1="448.75" y1="220" x2="462.75" y2="212" stroke-linecap="round" stroke="#0f0f0f" stroke-width="1.0" />
<line x1="462.75" y1="212" x2="455.75" y2="220" stroke-linecap="round" stroke="#0f0f0f" stroke-width="1.0" />
<line x1="448.75" y1="220" x2="462.75" y2="228" stroke-linecap="round" stroke="#0f0f0f" stroke-width="1.0" />
<line x1="462.75" y1="228" x2="455.75" y2="220" stroke-linecap="round" stroke="#0f0f0f" stroke-width="1.0" />
<path d="M753.75 291.625 Q731.25 304.125 718.75 292.875" stroke-width="4" stroke="black" fill="none" stroke-linecap="round" />
<path d="M718.75 292.875 Q711.25 289.125 718.75 287.875" stroke-width="4" stroke="black" fill="none" stroke-linecap="round" />
<line x1="718.75" y1="287.875" x2="853.75" y2="287.875" stroke-width="4" stroke="black" fill="dimgray" stroke-linecap="round" />
<line x1="853.75" y1="287.875" x2="858.75" y2="299.125" stroke-width="4" stroke="black" fill="dimgray" stroke-linecap="round" />
<path d="M858.75 296.875 L892.5 296.875 L892.5 343.125 L858.75 343.125 Z" stroke-width="0.5" stroke="black" stroke-linejoin="round" fill="white" fill-opacity="1" />
<path d="M753.75 291.625 Q731.25 304.125 718.75 292.875" stroke-width="3" stroke="white" fill="none" stroke-linecap="round" />
<path d="M718.75 292.875 Q711.25 289.125 718.75 287.875" stroke-width="3" stroke="white" fill="none" stroke-linecap="round" />
<line x1="718.75" y1="287.875" x2="853.75" y2="287.875" stroke-width="3" stroke="white" fill="white" stroke-linecap="round" />
<line x1="853.75" y1="287.875" x2="858.75" y2="299.125" stroke-width="3" stroke="white" fill="white" stroke-linecap="round" />
<path d="M892.5 405 L941.25 405 L941.25 435 L892.5 435 Z" stroke-width="0.5" stroke="black" stroke-linejoin="round" fill="white" fill-opacity="1" />
<path d="M941.25 401.25 L951.25 401.25 L951.25 438.75 L941.25 438.75 Z" stroke-width="0.5" stroke="black" stroke-linejoin="round" fill="white" fill-opacity="1" />
<line x1="826.25" y1="420" x2="856.25" y2="420" stroke-linecap="round" stroke="white"  stroke-width="2.0" />
<line x1="826.25" y1="420" x2="856.25" y2="420" stroke-linecap="round" stroke="#0f0f0f"  stroke-width="1.0" />
<line x1="836.25" y1="420" x2="843.25" y2="420" stroke-linecap="round" stroke="#ffffff" stroke-width="2.0" />
<line x1="836.25" y1="420" x2="850.25" y2="412" stroke-linecap="round" stroke="#ffffff" stroke-width="2.0" />
<line x1="850.25" y1="412" x2="843.25" y2="420" stroke-linecap="round" stroke="#ffffff" stroke-width="2.0" />
<line x1="836.25" y1="420" x2="850.25" y2="428" stroke-linecap="round" stroke="#ffffff" stroke-width="2.0" />
<line x1="850.25" y1="428" x2="843.25" y2="420" stroke-linecap="round" stroke="#ffffff" stroke-width="2.0" />
<line x1="836.25" y1="420" x2="850.25" y2="412" stroke-linecap="round" stroke="#0f0f0f" stroke-width="1.0" />
<line x1="850.25" y1="412" x2="843.25" y2="420" stroke-linecap="round" stroke="#0f0f0f" stroke-width="1.0" />
<line x1="836.25" y1="420" x2="850.25" y2="428" stroke-linecap="round" stroke="#0f0f0f" stroke-width="1.0" />
<line x1="850.25" y1="428" x2="843.25" y2="420" stroke-linecap="round" stroke="#0f0f0f" stroke-width="1.0" />
<line x1="826.25" y1="370" x2="826.25" y2="420" stroke="white" stroke-linecap="round"  stroke-width="2.0" />
<line x1="826.25" y1="370" x2="826.25" y2="420" stroke="#0f0f0f" stroke-linecap="round"  stroke-width="1.0" />
<path d="M866.25 405 L887.5 405 L887.5 435 L866.25 435 Z" stroke-width="0.5" stroke="black" stroke-linejoin="round" fill="white" fill-opacity="1" />
<path d="M887.5 404.375 L892.5 404.375 L892.5 435.625 L887.5 435.625 Z" stroke-width="0.5" stroke="black" stroke-linejoin="round" fill="white" fill-opacity="1" />
<line x1="826.25" y1="370" x2="932.5" y2="370" stroke-linecap="round" stroke="white"  stroke-width="2.0" />
<line x1="826.25" y1="370" x2="932.5" y2="370" stroke-linecap="round" stroke="#0f0f0f"  stroke-width="1.0" />
<line x1="892.5" y1="380" x2="892.5" y2="460" stroke="white" stroke-linecap="round"  stroke-width="1.0" />
<line x1="892.5" y1="380" x2="892.5" y2="460" stroke="black" stroke-linecap="round" stroke-dasharray="2,3" stroke-width="1.0" />
<line x1="932.5" y1="320" x2="932.5" y2="370" stroke="#ffffff" stroke-linecap="round"  stroke-width="2.0" />
<line x1="932.5" y1="320" x2="932.5" y2="370" stroke="#0f0f0f" stroke-linecap="round"  stroke-width="1.0" />
<line x1="902.5" y1="320" x2="932.5" y2="320" stroke-linecap="round" stroke="#0f0f0f"  stroke-width="1.0" />
<line x1="902.5" y1="320" x2="909.5" y2="320" stroke-linecap="round" stroke="#ffffff" stroke-width="2.0" />
<line x1="902.5" y1="320" x2="916.5" y2="312" stroke-linecap="round" stroke="#ffffff" stroke-width="2.0" />
<line x1="916.5" y1="312" x2="909.5" y2="320" stroke-linecap="round" stroke="#ffffff" stroke-width="2.0" />
<line x1="902.5" y1="320" x2="916.5" y2="328" stroke-linecap="round" stroke="#ffffff" stroke-width="2.0" />
<line x1="916.5" y1="328" x2="909.5" y2="320" stroke-linecap="round" stroke="#ffffff" stroke-width="2.0" />
<line x1="902.5" y1="320" x2="916.5" y2="312" stroke-linecap="round" stroke="#0f0f0f" stroke-width="1.0" />
<line x1="916.5" y1="312" x2="909.5" y2="320" stroke-linecap="round" stroke="#0f0f0f" stroke-width="1.0" />
<line x1="902.5" y1="320" x2="916.5" y2="328" stroke-linecap="round" stroke="#0f0f0f" stroke-width="1.0" />
<line x1="916.5" y1="328" x2="909.5" y2="320" stroke-linecap="round" stroke="#0f0f0f" stroke-width="1.0" />
</g><text x="50%" y="549.25" font-size="1.1em" font-weight="bold" text-anchor="middle" dominant-baseline="middle">Copyright (c) // The Mechanical Pencil Database (tmpdb) // Licensed under Creative Commons Attribution-NonCommercial-ShareAlike 4.0 International</text>
<text x="1190" y="559.25" font-size="0.5em" font-weight="bold" text-anchor="end" dominant-baseline="middle">SVGTechnicalExplodedRenderer</text>
</svg>