<svg xmlns="http://www.w3.org/2000/svg" width="1500" height="600">
 <pattern id="knurled-large" patternUnits="userSpaceOnUse" width="12" height="12">
<path stroke="dimgray" stroke-linecap="round" stroke-width="1" d="M 6,6 L 12,12"/>
<path stroke="dimgray" stroke-linecap="round" stroke-width="1" d="M 6,6 L 0,12"/>
<path stroke="gray" stroke-linecap="round" stroke-width="1" d="M 6,6 L 12,0" />
<path stroke="gray" stroke-linecap="round" stroke-width="1" d="M 6,6 L 0,0" />
</pattern><pattern id="knurled-small" patternUnits="userSpaceOnUse" width="4" height="4">
<path stroke="dimgray" stroke-linecap="round" stroke-width="1" d="M 2,2 L 4,4"/>
<path stroke="dimgray" stroke-linecap="round" stroke-width="1" d="M 2,2 L 0,4"/>
<path stroke="gray" stroke-linecap="round" stroke-width="1" d="M 2,2 L 4,0" />
<path stroke="gray" stroke-linecap="round" stroke-width="1" d="M 2,2 L 0,0" />
</pattern><pattern id="knurled" patternUnits="userSpaceOnUse" width="8" height="8">
<path stroke="dimgray" stroke-linecap="round" stroke-width="1" d="M 4,4 L 8,8"/>
<path stroke="dimgray" stroke-linecap="round" stroke-width="1" d="M 4,4 L 0,8"/>
<path stroke="gray" stroke-linecap="round" stroke-width="1" d="M 4,4 L 8,0" />
<path stroke="gray" stroke-linecap="round" stroke-width="1" d="M 4,4 L 0,0" />
</pattern><pattern id="lined" patternUnits="userSpaceOnUse" width="3" height="3">
<path stroke="dimgray" stroke-linecap="round" stroke-width="1" d="M 0,0 L 3,0"/>
</pattern><pattern id="ridged" patternUnits="userSpaceOnUse" width="3" height="3">
<path stroke="dimgray" stroke-linecap="round" stroke-width="1" d="M 0,0 L 0,3"/>
</pattern><rect x="0" y="0" width="1500" height="600" fill="white" stroke="black" stroke-width="4" />
<rect x="2" y="2" width="1496" height="596" fill="white" stroke="dimgray" stroke-width="1" />
<g transform="rotate(0 0 0)">
<line x1="40" y1="300" x2="1460" y2="300" stroke-linecap="round" stroke="#5f5f5f" stroke-dasharray="2" stroke-width="1" />
<line x1="20" y1="300" x2="60" y2="300" stroke-linecap="round" stroke="#000000"  stroke-width="1" />
<line x1="40" y1="280" x2="40" y2="320" stroke="#000000" stroke-linecap="round"  stroke-width="1" />
<circle r="10" cx="40" cy="300" fill="white" fill-opacity="0" stroke="#000000" stroke-width="1"  />
<line x1="1440" y1="300" x2="1480" y2="300" stroke-linecap="round" stroke="#000000"  stroke-width="1" />
<line x1="1460" y1="280" x2="1460" y2="320" stroke="#000000" stroke-linecap="round"  stroke-width="1" />
<circle r="10" cx="1460" cy="300" fill="white" fill-opacity="0" stroke="#000000" stroke-width="1"  />
<line x1="750" y1="90" x2="750" y2="510" stroke="#5f5f5f" stroke-linecap="round" stroke-dasharray="2" stroke-width="1" />
<line x1="730" y1="90" x2="770" y2="90" stroke-linecap="round" stroke="#000000"  stroke-width="1" />
<line x1="750" y1="70" x2="750" y2="110" stroke="#000000" stroke-linecap="round"  stroke-width="1" />
<circle r="10" cx="750" cy="90" fill="white" fill-opacity="0" stroke="#000000" stroke-width="1"  />
<line x1="730" y1="510" x2="770" y2="510" stroke-linecap="round" stroke="#000000"  stroke-width="1" />
<line x1="750" y1="490" x2="750" y2="530" stroke="#000000" stroke-linecap="round"  stroke-width="1" />
<circle r="10" cx="750" cy="510" fill="white" fill-opacity="0" stroke="#000000" stroke-width="1"  />
<line x1="160" y1="150" x2="160" y2="510" stroke="#5f5f5f" stroke-linecap="round" stroke-dasharray="2" stroke-width="1" />
<line x1="140" y1="150" x2="180" y2="150" stroke-linecap="round" stroke="#000000"  stroke-width="1" />
<line x1="160" y1="130" x2="160" y2="170" stroke="#000000" stroke-linecap="round"  stroke-width="1" />
<circle r="10" cx="160" cy="150" fill="white" fill-opacity="0" stroke="#000000" stroke-width="1"  />
<line x1="140" y1="510" x2="180" y2="510" stroke-linecap="round" stroke="#000000"  stroke-width="1" />
<line x1="160" y1="490" x2="160" y2="530" stroke="#000000" stroke-linecap="round"  stroke-width="1" />
<circle r="10" cx="160" cy="510" fill="white" fill-opacity="0" stroke="#000000" stroke-width="1"  />
<line x1="1400" y1="150" x2="1400" y2="510" stroke="#5f5f5f" stroke-linecap="round" stroke-dasharray="2" stroke-width="1" />
<line x1="1380" y1="150" x2="1420" y2="150" stroke-linecap="round" stroke="#000000"  stroke-width="1" />
<line x1="1400" y1="130" x2="1400" y2="170" stroke="#000000" stroke-linecap="round"  stroke-width="1" />
<circle r="10" cx="1400" cy="150" fill="white" fill-opacity="0" stroke="#000000" stroke-width="1"  />
<line x1="1380" y1="510" x2="1420" y2="510" stroke-linecap="round" stroke="#000000"  stroke-width="1" />
<line x1="1400" y1="490" x2="1400" y2="530" stroke="#000000" stroke-linecap="round"  stroke-width="1" />
<circle r="10" cx="1400" cy="510" fill="white" fill-opacity="0" stroke="#000000" stroke-width="1"  />
<text x="30" y="50" font-size="2.0em" font-weight="bold"> Mitsubishi // uni (Model #: MH-500)</text>
<text x="30" y="80" font-size="1.1em"> MITSUBISHI / uni /</text>
<text x="30" y="100" font-size="1.1em"> Lead size: 2 mm</text>
<text x="30" y="120" font-size="1.1em"> Weight: 11g</text>
<text x="1480" y="30" font-size="1.6em" font-weight="bold" text-anchor="end" dominant-baseline="central">Colour variants of the body</text>
<rect x="1440" y="55" width="40" rx="50%" ry="50%" height="40" stroke="black" stroke-width="2" fill="maroon" fill-opacity="1"/>
<text x="1460" y="100" transform="rotate(-90, 1460, 100)" font-size="1.2em" font-weight="bold" text-anchor="end" dominant-baseline="central">maroon</text>
<text x="30" y="136" font-size="1.2em" font-weight="bold" text-anchor="start" dominant-baseline="central">Materials:</text>
<text x="50" y="156" font-size="1.2em" text-anchor="start" dominant-baseline="central"> - metal</text>
<text x="50" y="176" font-size="1.2em" text-anchor="start" dominant-baseline="central"> - plastic</text>
<line x1="100" y1="266.875" x2="1400" y2="266.875" stroke-linecap="round" stroke="#cfcfcf"  stroke-width="1" />
<line x1="160" y1="278.125" x2="1400" y2="278.125" stroke-linecap="round" stroke="#cfcfcf"  stroke-width="1" />
<line x1="150" y1="230" x2="150" y2="300" stroke="#cfcfcf" stroke-linecap="round"  stroke-width="1" />
<line x1="170" y1="230" x2="170" y2="300" stroke="#cfcfcf" stroke-linecap="round"  stroke-width="1" />
<line x1="160" y1="276.875" x2="1400" y2="276.875" stroke-linecap="round" stroke="#cfcfcf"  stroke-width="1" />
<line x1="100" y1="323.125" x2="1400" y2="323.125" stroke-linecap="round" stroke="#cfcfcf"  stroke-width="1" />
<line x1="136.18430139592795" y1="300" x2="136.18430139592795" y2="343.125" stroke="#cfcfcf" stroke-linecap="round"  stroke-width="1" />
<line x1="183.81569860407205" y1="300" x2="183.81569860407205" y2="343.125" stroke="#cfcfcf" stroke-linecap="round"  stroke-width="1" />
<line x1="398.75" y1="180" x2="398.75" y2="420" stroke="#cfcfcf" stroke-linecap="round"  stroke-width="1" />
<line x1="403.75" y1="180" x2="403.75" y2="420" stroke="#cfcfcf" stroke-linecap="round"  stroke-width="1" />
<line x1="461.25" y1="180" x2="461.25" y2="420" stroke="#cfcfcf" stroke-linecap="round"  stroke-width="1" />
<line x1="588.75" y1="180" x2="588.75" y2="420" stroke="#cfcfcf" stroke-linecap="round"  stroke-width="1" />
<line x1="1008.75" y1="180" x2="1008.75" y2="420" stroke="#cfcfcf" stroke-linecap="round"  stroke-width="1" />
<line x1="861.25" y1="220" x2="861.25" y2="380" stroke="#cfcfcf" stroke-linecap="round"  stroke-width="1" />
<line x1="1008.75" y1="220" x2="1008.75" y2="380" stroke="#cfcfcf" stroke-linecap="round"  stroke-width="1" />
<line x1="1042.5" y1="180" x2="1042.5" y2="420" stroke="#cfcfcf" stroke-linecap="round"  stroke-width="1" />
<line x1="1101.25" y1="188.875" x2="1101.25" y2="396.875" stroke="#cfcfcf" stroke-linecap="round"  stroke-width="1" />
<text x="160" y="540" font-size="1.8em" font-weight="bold" text-anchor="middle" dominant-baseline="central">Front</text>
<text x="750" y="540" font-size="1.8em" font-weight="bold" text-anchor="middle" dominant-baseline="central">Side view</text>
<text x="1400" y="540" font-size="1.8em" font-weight="bold" text-anchor="middle" dominant-baseline="central">Back</text>
<line x1="150" y1="229" x2="150" y2="251" stroke="black" stroke-width="1" />
<line x1="150" y1="240" x2="170" y2="240" stroke="black" stroke-width="1" />
<line x1="170" y1="229" x2="170" y2="251" stroke="black" stroke-width="1" />
<text x="160" y="221" font-size="1.2em" font-weight="bold" text-anchor="middle" dominant-baseline="central" fill="black"><tspan x="160" dy="0">4.00 mm</tspan></text>
<line x1="211" y1="266.875" x2="233" y2="266.875" stroke="black" stroke-width="1" />
<line x1="222" y1="266.875" x2="222" y2="278.125" stroke="black" stroke-width="1" />
<line x1="211" y1="278.125" x2="233" y2="278.125" stroke="black" stroke-width="1" />
<text x="235" y="272.5" font-size="1.2em" font-weight="bold" text-anchor="start" dominant-baseline="central" fill="black">2.25 mm</text>
<line x1="199" y1="276.875" x2="221" y2="276.875" stroke="black" stroke-width="1" />
<line x1="210" y1="276.875" x2="210" y2="323.125" stroke="black" stroke-width="1" />
<line x1="199" y1="323.125" x2="221" y2="323.125" stroke="black" stroke-width="1" />
<text x="223" y="300" font-size="1.2em" font-weight="bold" text-anchor="start" dominant-baseline="central" fill="black">9.25 mm</text>
<line x1="99" y1="266.875" x2="121" y2="266.875" stroke="black" stroke-width="1" />
<line x1="110" y1="266.875" x2="110" y2="323.125" stroke="black" stroke-width="1" />
<line x1="99" y1="323.125" x2="121" y2="323.125" stroke="black" stroke-width="1" />
<text x="91" y="295" transform="rotate(-90, 91, 295)" font-size="1.2em" font-weight="bold" text-anchor="middle" dominant-baseline="central" fill="black">11.25 mm</text>
<line x1="136.18430139592795" y1="342.125" x2="136.18430139592795" y2="364.125" stroke="black" stroke-width="1" />
<line x1="136.18430139592795" y1="353.125" x2="183.81569860407205" y2="353.125" stroke="black" stroke-width="1" />
<line x1="183.81569860407205" y1="342.125" x2="183.81569860407205" y2="364.125" stroke="black" stroke-width="1" />
<text x="160" y="372.125" font-size="1.2em" font-weight="bold" text-anchor="middle" dominant-baseline="central" fill="black"><tspan x="160" dy="0">9.53 mm</tspan></text>
<line x1="398.75" y1="169" x2="398.75" y2="191" stroke="black" stroke-width="1" />
<line x1="398.75" y1="180" x2="403.75" y2="180" stroke="black" stroke-width="1" />
<line x1="403.75" y1="169" x2="403.75" y2="191" stroke="black" stroke-width="1" />
<text x="401.25" y="161" font-size="1.2em" transform="rotate(-90, 401.25, 161)" font-weight="bold" text-anchor="start" dominant-baseline="central" fill="black"><tspan x="401.25" dy="0">1.00 mm jaws</tspan></text>
<line x1="403.75" y1="169" x2="403.75" y2="191" stroke="black" stroke-width="1" />
<line x1="403.75" y1="180" x2="461.25" y2="180" stroke="black" stroke-width="1" />
<line x1="461.25" y1="169" x2="461.25" y2="191" stroke="black" stroke-width="1" />
<text x="432.5" y="161" font-size="1.2em" transform="rotate(-90, 420.5, 161)" font-weight="bold" text-anchor="start" dominant-baseline="central" fill="black"><tspan x="424.5" dy="0">11.50 mm</tspan><tspan x="424.5" dy="1em">tip</tspan></text>
<line x1="461.25" y1="169" x2="461.25" y2="191" stroke="black" stroke-width="1" />
<line x1="461.25" y1="180" x2="588.75" y2="180" stroke="black" stroke-width="1" />
<line x1="588.75" y1="169" x2="588.75" y2="191" stroke="black" stroke-width="1" />
<text x="525" y="161" font-size="1.2em" transform="rotate(-90, 513, 161)" font-weight="bold" text-anchor="start" dominant-baseline="central" fill="black"><tspan x="517" dy="0">25.50 mm</tspan><tspan x="517" dy="1em">grip</tspan></text>
<line x1="588.75" y1="169" x2="588.75" y2="191" stroke="black" stroke-width="1" />
<line x1="588.75" y1="180" x2="1008.75" y2="180" stroke="black" stroke-width="1" />
<line x1="1008.75" y1="169" x2="1008.75" y2="191" stroke="black" stroke-width="1" />
<text x="798.75" y="161" font-size="1.2em" transform="rotate(-90, 786.75, 161)" font-weight="bold" text-anchor="start" dominant-baseline="central" fill="black"><tspan x="790.75" dy="0">84.00 mm</tspan><tspan x="790.75" dy="1em">body</tspan></text>
<line x1="1008.75" y1="169" x2="1008.75" y2="191" stroke="black" stroke-width="1" />
<line x1="1008.75" y1="180" x2="1042.5" y2="180" stroke="black" stroke-width="1" />
<line x1="1042.5" y1="169" x2="1042.5" y2="191" stroke="black" stroke-width="1" />
<text x="1025.625" y="161" font-size="1.2em" transform="rotate(-90, 1013.625, 161)" font-weight="bold" text-anchor="start" dominant-baseline="central" fill="black"><tspan x="1017.625" dy="0">6.75 mm</tspan><tspan x="1017.625" dy="1em">clip</tspan></text>
<line x1="861.25" y1="209" x2="861.25" y2="231" stroke="black" stroke-width="1" />
<line x1="861.25" y1="220" x2="1008.75" y2="220" stroke="black" stroke-width="1" />
<line x1="1008.75" y1="209" x2="1008.75" y2="231" stroke="black" stroke-width="1" />
<text x="935" y="212" font-weight="bold" font-size="1.2em" stroke="white" stroke-width="0.25" text-anchor="middle" dominant-baseline="middle" fill="black"><tspan x="927" dy="0">29.50 mm</tspan><tspan x="927" dy="1em">clip (extra)</tspan></text>
<line x1="1042.5" y1="169" x2="1042.5" y2="191" stroke="black" stroke-width="1" />
<line x1="1042.5" y1="180" x2="1101.25" y2="180" stroke="black" stroke-width="1" />
<line x1="1101.25" y1="169" x2="1101.25" y2="191" stroke="black" stroke-width="1" />
<text x="1071.875" y="161" font-size="1.2em" transform="rotate(-90, 1059.875, 161)" font-weight="bold" text-anchor="start" dominant-baseline="central" fill="black"><tspan x="1063.875" dy="0">11.75 mm</tspan><tspan x="1063.875" dy="1em">cap</tspan></text>
<line x1="1299" y1="280" x2="1321" y2="280" stroke="black" stroke-width="1" />
<line x1="1310" y1="280" x2="1310" y2="320" stroke="black" stroke-width="1" />
<line x1="1299" y1="320" x2="1321" y2="320" stroke="black" stroke-width="1" />
<text x="1291" y="300" transform="rotate(-90, 1291, 300)" font-size="1.2em" font-weight="bold" text-anchor="middle" dominant-baseline="central" fill="black">8 mm</text>
<line x1="1299" y1="280" x2="1321" y2="280" stroke="black" stroke-width="1" />
<line x1="1310" y1="280" x2="1310" y2="320" stroke="black" stroke-width="1" />
<line x1="1299" y1="320" x2="1321" y2="320" stroke="black" stroke-width="1" />
<text x="1310" y="328" transform="rotate(-90, 1310, 328)" font-weight="bold" font-size="1.2em" text-anchor="end" dominant-baseline="middle" fill="black">grip</text>
<line x1="1339" y1="279.375" x2="1361" y2="279.375" stroke="black" stroke-width="1" />
<line x1="1350" y1="279.375" x2="1350" y2="320.625" stroke="black" stroke-width="1" />
<line x1="1339" y1="320.625" x2="1361" y2="320.625" stroke="black" stroke-width="1" />
<text x="1331" y="300" transform="rotate(-90, 1331, 300)" font-size="1.2em" font-weight="bold" text-anchor="middle" dominant-baseline="central" fill="black">8.25 mm</text>
<line x1="1339" y1="279.375" x2="1361" y2="279.375" stroke="black" stroke-width="1" />
<line x1="1350" y1="279.375" x2="1350" y2="320.625" stroke="black" stroke-width="1" />
<line x1="1339" y1="320.625" x2="1361" y2="320.625" stroke="black" stroke-width="1" />
<text x="1350" y="328.625" transform="rotate(-90, 1350, 328.625)" font-weight="bold" font-size="1.2em" text-anchor="end" dominant-baseline="middle" fill="black">body</text>
<line x1="398.75" y1="342.125" x2="398.75" y2="364.125" stroke="black" stroke-width="1" />
<line x1="398.75" y1="353.125" x2="1101.25" y2="353.125" stroke="black" stroke-width="1" />
<line x1="1101.25" y1="342.125" x2="1101.25" y2="364.125" stroke="black" stroke-width="1" />
<text x="750" y="353.125" font-weight="bold" font-size="1.2em" stroke="white" stroke-width="0.25" text-anchor="middle" dominant-baseline="middle" fill="black"><tspan x="750" dy="0">140.50 mm</tspan></text>
<line x1="398.75" y1="409" x2="398.75" y2="431" stroke="black" stroke-width="1" />
<line x1="398.75" y1="420" x2="403.75" y2="420" stroke="black" stroke-width="1" />
<line x1="403.75" y1="409" x2="403.75" y2="431" stroke="black" stroke-width="1" />
<text x="401.25" y="439" font-size="1.2em" transform="rotate(-90, 401.25, 439)"  text-anchor="end" dominant-baseline="middle" fill="black"><tspan x="401.25" dy="0">metal</tspan></text>
<line x1="403.75" y1="409" x2="403.75" y2="431" stroke="black" stroke-width="1" />
<line x1="403.75" y1="420" x2="461.25" y2="420" stroke="black" stroke-width="1" />
<line x1="461.25" y1="409" x2="461.25" y2="431" stroke="black" stroke-width="1" />
<text x="432.5" y="439" font-size="1.2em" transform="rotate(-90, 432.5, 439)"  text-anchor="end" dominant-baseline="middle" fill="black"><tspan x="432.5" dy="0">metal</tspan></text>
<line x1="461.25" y1="409" x2="461.25" y2="431" stroke="black" stroke-width="1" />
<line x1="461.25" y1="420" x2="588.75" y2="420" stroke="black" stroke-width="1" />
<line x1="588.75" y1="409" x2="588.75" y2="431" stroke="black" stroke-width="1" />
<text x="525" y="439" font-size="1.2em" transform="rotate(-90, 525, 439)"  text-anchor="end" dominant-baseline="middle" fill="black"><tspan x="525" dy="0">metal</tspan></text>
<line x1="588.75" y1="409" x2="588.75" y2="431" stroke="black" stroke-width="1" />
<line x1="588.75" y1="420" x2="1008.75" y2="420" stroke="black" stroke-width="1" />
<line x1="1008.75" y1="409" x2="1008.75" y2="431" stroke="black" stroke-width="1" />
<text x="798.75" y="439" font-size="1.2em" transform="rotate(-90, 798.75, 439)"  text-anchor="end" dominant-baseline="middle" fill="black"><tspan x="798.75" dy="0">plastic</tspan></text>
<line x1="861.25" y1="369" x2="861.25" y2="391" stroke="black" stroke-width="1" />
<line x1="861.25" y1="380" x2="1008.75" y2="380" stroke="black" stroke-width="1" />
<line x1="1008.75" y1="369" x2="1008.75" y2="391" stroke="black" stroke-width="1" />
<text x="935" y="399" font-size="1.2em"  text-anchor="middle" dominant-baseline="central" fill="black"><tspan x="935" dy="0">plastic</tspan></text>
<line x1="1008.75" y1="409" x2="1008.75" y2="431" stroke="black" stroke-width="1" />
<line x1="1008.75" y1="420" x2="1042.5" y2="420" stroke="black" stroke-width="1" />
<line x1="1042.5" y1="409" x2="1042.5" y2="431" stroke="black" stroke-width="1" />
<text x="1025.625" y="439" font-size="1.2em" transform="rotate(-90, 1025.625, 439)"  text-anchor="end" dominant-baseline="middle" fill="black"><tspan x="1025.625" dy="0">plastic</tspan></text>
<line x1="1042.5" y1="409" x2="1042.5" y2="431" stroke="black" stroke-width="1" />
<line x1="1042.5" y1="420" x2="1101.25" y2="420" stroke="black" stroke-width="1" />
<line x1="1101.25" y1="409" x2="1101.25" y2="431" stroke="black" stroke-width="1" />
<text x="1071.875" y="439" font-size="1.2em" transform="rotate(-90, 1071.875, 439)"  text-anchor="end" dominant-baseline="middle" fill="black"><tspan x="1071.875" dy="0">plastic</tspan></text>


<!-- renderSideComponent: jaws -->


<!-- renderPart: cone -->
<path d="M398.7 293.125 L403.8 289.375 L403.8 310.625 L398.7 306.875 Z" stroke-width="0" stroke="none" stroke-linejoin="round" fill="white" fill-opacity="1"/>
<path d="M398.75 293.125 L403.75 289.375 M403.75 310.625 L398.75 306.875" stroke-width="0.5" stroke="black" stroke-linejoin="round" fill="white" fill-opacity="1"/>
<!-- !left !both--><path d="M398.75 293.125 L398.75 306.875" stroke-width="0.5" stroke="black" stroke-linejoin="round" fill="white" fill-opacity="1"/>
<!-- !right !both --><path d="M403.75 289.375 L403.75 310.625" stroke-width="0.5" stroke="black" stroke-linejoin="round" fill="white" fill-opacity="1"/>


<!-- renderSideComponent: tip -->


<!-- renderPart: cone -->
<path d="M403.7 286.875 L461.3 281.25 L461.3 318.75 L403.7 313.125 Z" stroke-width="0" stroke="none" stroke-linejoin="round" fill="white" fill-opacity="1"/>
<path d="M403.75 286.875 L461.25 281.25 M461.25 318.75 L403.75 313.125" stroke-width="0.5" stroke="black" stroke-linejoin="round" fill="white" fill-opacity="1"/>
<!-- !left !both--><path d="M403.75 286.875 L403.75 313.125" stroke-width="0.5" stroke="black" stroke-linejoin="round" fill="white" fill-opacity="1"/>
<!-- !right !both --><path d="M461.25 281.25 L461.25 318.75" stroke-width="0.5" stroke="black" stroke-linejoin="round" fill="white" fill-opacity="1"/>


<!-- renderSideComponent: grip -->


<!-- renderPart: cylinder -->
<path d="M461.2 280 L588.8 280 L588.8 320 L461.2 320 Z" stroke-width="0" stroke="none" stroke-linejoin="round" fill="white" fill-opacity="1"/>
<path d="M461.25 280 L588.75 280 M588.75 320 L461.25 320" stroke-width="0.5" stroke="black" stroke-linejoin="round" fill="white" fill-opacity="1"/>
<!-- !left !both--><path d="M461.25 280 L461.25 320" stroke-width="0.5" stroke="black" stroke-linejoin="round" fill="white" fill-opacity="1"/>
<!-- !right !both --><path d="M588.75 280 L588.75 320" stroke-width="0.5" stroke="black" stroke-linejoin="round" fill="white" fill-opacity="1"/>
<path d="M461.25 280 L588.75 280 L588.75 320 L461.25 320 Z" stroke-width="1.0" stroke="black" fill="url(#knurled)"/>


<!-- renderSideComponent: body -->


<!-- renderPart: hexagonal -->
<path d="M588.7 279.375 L1008.8 279.375 L1008.8 320.625 L588.7 320.625 Z" stroke-width="0" stroke="none" stroke-linejoin="round" fill="white" fill-opacity="1"/>
<path d="M588.75 279.375 L1008.75 279.375 M1008.75 320.625 L588.75 320.625" stroke-width="0.5" stroke="black" stroke-linejoin="round" fill="white" fill-opacity="1"/>
<!-- !left !both--><path d="M588.75 279.375 L588.75 320.625" stroke-width="0.5" stroke="black" stroke-linejoin="round" fill="white" fill-opacity="1"/>
<!-- !right !both --><path d="M1008.75 279.375 L1008.75 320.625" stroke-width="0.5" stroke="black" stroke-linejoin="round" fill="white" fill-opacity="1"/>
<line x1="588.75" y1="300" x2="1008.75" y2="300" stroke-width="1.5" stroke="gray" fill="gray" stroke-opacity="1.0"/>
<line x1="588.75" y1="300" x2="1008.75" y2="300" stroke-width="0.5" stroke="black" fill="none" stroke-opacity="0.5"/>


<!-- renderSideComponent: clip -->
<path d="M903.75 271.625 Q881.25 284.125 868.75 272.875" stroke-width="4" stroke="black" fill="none" stroke-linecap="round" />
<path d="M868.75 272.875 Q861.25 269.125 868.75 267.875" stroke-width="4" stroke="black" fill="none" stroke-linecap="round" />
<line x1="868.75" y1="267.875" x2="1003.75" y2="267.875" stroke-width="4" stroke="black" fill="dimgray" stroke-linecap="round" />
<line x1="1003.75" y1="267.875" x2="1008.75" y2="279.125" stroke-width="4" stroke="black" fill="dimgray" stroke-linecap="round" />


<!-- renderPart: cylinder -->
<path d="M1008.7 276.875 L1042.55 276.875 L1042.55 323.125 L1008.7 323.125 Z" stroke-width="0" stroke="none" stroke-linejoin="round" fill="white" fill-opacity="1"/>
<path d="M1008.75 276.875 L1042.5 276.875 M1042.5 323.125 L1008.75 323.125" stroke-width="0.5" stroke="black" stroke-linejoin="round" fill="white" fill-opacity="1"/>
<!-- !left !both--><path d="M1008.75 276.875 L1008.75 323.125" stroke-width="0.5" stroke="black" stroke-linejoin="round" fill="white" fill-opacity="1"/>
<!-- !right !both --><path d="M1042.5 276.875 L1042.5 323.125" stroke-width="0.5" stroke="black" stroke-linejoin="round" fill="white" fill-opacity="1"/>
<path d="M903.75 271.625 Q881.25 284.125 868.75 272.875" stroke-width="3" stroke="white" fill="none" stroke-linecap="round" />
<path d="M868.75 272.875 Q861.25 269.125 868.75 267.875" stroke-width="3" stroke="white" fill="none" stroke-linecap="round" />
<line x1="868.75" y1="267.875" x2="1003.75" y2="267.875" stroke-width="3" stroke="white" fill="white" stroke-linecap="round" />
<line x1="1003.75" y1="267.875" x2="1008.75" y2="279.125" stroke-width="3" stroke="white" fill="white" stroke-linecap="round" />


<!-- renderSideComponent: cap -->


<!-- renderPart: cylinder -->
<path d="M1042.45 285 L1091.3 285 L1091.3 315 L1042.45 315 Z" stroke-width="0" stroke="none" stroke-linejoin="round" fill="white" fill-opacity="1"/>
<path d="M1042.5 285 L1091.25 285 M1091.25 315 L1042.5 315" stroke-width="0.5" stroke="black" stroke-linejoin="round" fill="white" fill-opacity="1"/>
<!-- !left !both--><path d="M1042.5 285 L1042.5 315" stroke-width="0.5" stroke="black" stroke-linejoin="round" fill="white" fill-opacity="1"/>
<!-- !right !both --><path d="M1091.25 285 L1091.25 315" stroke-width="0.5" stroke="black" stroke-linejoin="round" fill="white" fill-opacity="1"/>


<!-- renderPart: cylinder -->
<path d="M1091.2 281.25 L1101.3 281.25 L1101.3 318.75 L1091.2 318.75 Z" stroke-width="0" stroke="none" stroke-linejoin="round" fill="white" fill-opacity="1"/>
<path d="M1091.25 281.25 L1101.25 281.25 M1101.25 318.75 L1091.25 318.75" stroke-width="0.5" stroke="black" stroke-linejoin="round" fill="white" fill-opacity="1"/>
<!-- !left !both--><path d="M1091.25 281.25 L1091.25 318.75" stroke-width="0.5" stroke="black" stroke-linejoin="round" fill="white" fill-opacity="1"/>
<!-- !right !both --><path d="M1101.25 281.25 L1101.25 318.75" stroke-width="0.5" stroke="black" stroke-linejoin="round" fill="white" fill-opacity="1"/>

<!-- FRONT COMPONENT: cap -->
<circle r="18.75" cx="160" cy="300" fill="white" fill-opacity="1" stroke="black" stroke-width="0.5"  />
<circle r="15" cx="160" cy="300" fill="white" fill-opacity="1" stroke="black" stroke-width="0.5"  />

<!-- FRONT COMPONENT: clip -->
<circle r="23.125" cx="160" cy="300" fill="white" fill-opacity="1" stroke="black" stroke-width="0.5"  />
<!-- WxH 4 2.25 --><rect x="150" y="266.875" width="20" height="11.25" rx="0" ry="0" stroke-width="1.0" stroke="dimgray" fill="white"/>
<rect x="150" y="266.875" width="20" height="11.25" rx="0" ry="0" stroke-width="1.0" stroke="dimgray" fill="none"/>
<!-- WxH 4 0.6 --><rect x="150" y="275.125" width="20" height="3" rx="0" ry="0" stroke-width="1.0" stroke="dimgray" fill="white"/>
<rect x="150" y="275.125" width="20" height="3" rx="0" ry="0" stroke-width="1.0" stroke="dimgray" fill="none"/>
<!-- WxH 4 1 --><rect x="150" y="273.125" width="20" height="5" rx="0" ry="0" stroke-width="1.0" stroke="dimgray" fill="white"/>
<rect x="150" y="273.125" width="20" height="5" rx="0" ry="0" stroke-width="1.0" stroke="dimgray" fill="none"/>
<!-- WxH 4 0.25 --><rect x="150" y="276.875" width="20" height="1.25" rx="0" ry="0" stroke-width="1.0" stroke="dimgray" fill="white"/>
<rect x="150" y="276.875" width="20" height="1.25" rx="0" ry="0" stroke-width="1.0" stroke="dimgray" fill="none"/>

<!-- FRONT COMPONENT: body -->
<polygon points="148.09215069796397,279.375 171.90784930203603,279.375 183.81569860407205,300 171.90784930203603,320.625 148.09215069796397,320.625 136.18430139592795,300 " stroke="black" stroke-width="0.5" fill="white" fill-opacity="1"/>

<!-- FRONT COMPONENT: grip -->
<circle r="20" cx="160" cy="300" fill="white" fill-opacity="1" stroke="black" stroke-width="0.5"  />

<!-- FRONT COMPONENT: tip -->
<circle r="13.125" cx="160" cy="300" stroke="black" stroke-width="0.5" fill="white" fill-opacity="1"/>
<circle r="18.75" cx="160" cy="300" stroke="black" stroke-width="0.5" fill="white" fill-opacity="1"/>

<!-- FRONT COMPONENT: jaws -->
<circle r="6.875" cx="160" cy="300" stroke="black" stroke-width="0.5" fill="white" fill-opacity="1"/>
<circle r="10.625" cx="160" cy="300" stroke="black" stroke-width="0.5" fill="white" fill-opacity="1"/>
<circle r="5" cx="160" cy="300" fill="white" fill-opacity="1" stroke="dimgray" stroke-width="0.5"  />
<circle r="6.875" cx="1400" cy="300" stroke="black" stroke-width="0.5" fill="white" fill-opacity="1"/>
<circle r="10.625" cx="1400" cy="300" stroke="black" stroke-width="0.5" fill="white" fill-opacity="1"/>
<circle r="13.125" cx="1400" cy="300" stroke="black" stroke-width="0.5" fill="white" fill-opacity="1"/>
<circle r="18.75" cx="1400" cy="300" stroke="black" stroke-width="0.5" fill="white" fill-opacity="1"/>
<circle r="20" cx="1400" cy="300" fill="white" fill-opacity="1" stroke="black" stroke-width="0.5"  />
<polygon points="1388.092150697964,279.375 1411.907849302036,279.375 1423.8156986040722,300 1411.907849302036,320.625 1388.092150697964,320.625 1376.1843013959278,300 " stroke="black" stroke-width="0.5" fill="white" fill-opacity="1"/>
<circle r="23.125" cx="1400" cy="300" fill="white" fill-opacity="1" stroke="black" stroke-width="0.5"  />
<!-- WxH 4 0.25 --><rect x="1390" y="276.875" width="20" height="1.25" rx="0" ry="0" stroke-width="1.0" stroke="dimgray" fill="white"/>
<rect x="1390" y="276.875" width="20" height="1.25" rx="0" ry="0" stroke-width="1.0" stroke="dimgray" fill="none"/>
<!-- WxH 4 1 --><rect x="1390" y="273.125" width="20" height="5" rx="0" ry="0" stroke-width="1.0" stroke="dimgray" fill="white"/>
<rect x="1390" y="273.125" width="20" height="5" rx="0" ry="0" stroke-width="1.0" stroke="dimgray" fill="none"/>
<!-- WxH 4 0.6 --><rect x="1390" y="275.125" width="20" height="3" rx="0" ry="0" stroke-width="1.0" stroke="dimgray" fill="white"/>
<rect x="1390" y="275.125" width="20" height="3" rx="0" ry="0" stroke-width="1.0" stroke="dimgray" fill="none"/>
<!-- WxH 4 2.25 --><rect x="1390" y="266.875" width="20" height="11.25" rx="0" ry="0" stroke-width="1.0" stroke="dimgray" fill="white"/>
<rect x="1390" y="266.875" width="20" height="11.25" rx="0" ry="0" stroke-width="1.0" stroke="dimgray" fill="none"/>
<circle r="15" cx="1400" cy="300" fill="white" fill-opacity="1" stroke="black" stroke-width="0.5"  />
<circle r="18.75" cx="1400" cy="300" fill="white" fill-opacity="1" stroke="black" stroke-width="0.5"  />
</g><text x="50%" y="580" font-size="1.1em" font-weight="bold" text-anchor="middle" dominant-baseline="middle">Copyright (c) // Synapticloop // The Mechanical Pencil Database (tmpdb) // Licensed under Creative Commons Attribution-NonCommercial-ShareAlike 4.0 International</text>
<text x="1490" y="590" font-size="0.5em" font-weight="bold" text-anchor="end" dominant-baseline="middle">SVGTechnicalRenderer</text>
</svg>