<svg xmlns="http://www.w3.org/2000/svg" width="1200" height="569.25">
 <pattern id="knurled-large" patternUnits="userSpaceOnUse" width="12" height="12">
<path stroke="dimgray" stroke-linecap="round" stroke-width="1" d="M 6,6 L 12,12"/>
<path stroke="dimgray" stroke-linecap="round" stroke-width="1" d="M 6,6 L 0,12"/>
<path stroke="gray" stroke-linecap="round" stroke-width="1" d="M 6,6 L 12,0" />
<path stroke="gray" stroke-linecap="round" stroke-width="1" d="M 6,6 L 0,0" />
</pattern><pattern id="knurled-small" patternUnits="userSpaceOnUse" width="4" height="4">
<path stroke="dimgray" stroke-linecap="round" stroke-width="1" d="M 2,2 L 4,4"/>
<path stroke="dimgray" stroke-linecap="round" stroke-width="1" d="M 2,2 L 0,4"/>
<path stroke="gray" stroke-linecap="round" stroke-width="1" d="M 2,2 L 4,0" />
<path stroke="gray" stroke-linecap="round" stroke-width="1" d="M 2,2 L 0,0" />
</pattern><pattern id="knurled" patternUnits="userSpaceOnUse" width="8" height="8">
<path stroke="dimgray" stroke-linecap="round" stroke-width="1" d="M 4,4 L 8,8"/>
<path stroke="dimgray" stroke-linecap="round" stroke-width="1" d="M 4,4 L 0,8"/>
<path stroke="gray" stroke-linecap="round" stroke-width="1" d="M 4,4 L 8,0" />
<path stroke="gray" stroke-linecap="round" stroke-width="1" d="M 4,4 L 0,0" />
</pattern><pattern id="lined" patternUnits="userSpaceOnUse" width="3" height="3">
<path stroke="dimgray" stroke-linecap="round" stroke-width="1" d="M 0,0 L 3,0"/>
</pattern><pattern id="ridged" patternUnits="userSpaceOnUse" width="3" height="3">
<path stroke="dimgray" stroke-linecap="round" stroke-width="1" d="M 0,0 L 0,3"/>
</pattern><pattern id="spring" patternUnits="userSpaceOnUse" width="8" height="100">
<path stroke="dimgray" stroke-linecap="round" stroke-width="2" d="M 1,1 L 9,99"/>
<path stroke="white" stroke-linecap="round" stroke-width="1" d="M 1,1 L 9,99"/>
</pattern><pattern id="knurled" patternUnits="userSpaceOnUse" width="8" height="8">
<path stroke="dimgray" stroke-linecap="round" stroke-width="1" d="M 4,4 L 8,8"/>
<path stroke="dimgray" stroke-linecap="round" stroke-width="1" d="M 4,4 L 0,8"/>
<path stroke="gray" stroke-linecap="round" stroke-width="1" d="M 4,4 L 8,0" />
<path stroke="gray" stroke-linecap="round" stroke-width="1" d="M 4,4 L 0,0" />
</pattern><rect x="0" y="0" width="1200" height="569.25" fill="white" stroke="black" stroke-width="4" />
<rect x="2" y="2" width="1196" height="565.25" fill="white" stroke="dimgray" stroke-width="1" />
<g transform="rotate(0 0 0)">
<text x="30" y="50" font-size="2.0em" font-weight="bold"> Mitsubishi // uni (Model #: MH-500)</text>


<!-- renderExplodedSideComponents -->


<!-- renderSideComponent: jaws -->


<!-- renderPart: cone -->
<path d="M248.75 113.125 L253.75 109.375 L253.75 130.625 L248.75 126.875 Z" stroke-width="0.5" stroke="black" stroke-linejoin="round" fill="white" fill-opacity="1"/>


<!-- renderPart: cone -->
<path d="M253.75 109.375 L280 111.25 L280 128.75 L253.75 130.625 Z" stroke-width="0.5" stroke="black" stroke-linejoin="round" fill="white" fill-opacity="1"/>


<!-- renderPart: cylinder -->
<path d="M280 111.875 L337.5 111.875 L337.5 128.125 L280 128.125 Z" stroke-width="0.5" stroke="black" stroke-linejoin="round" fill="white" fill-opacity="1"/>
<path d="M280 111.875 L337.5 111.875 L337.5 128.125 L280 128.125 Z" stroke-width="1.0" stroke="black" fill="url(#spring)"/>
<rect x="285" y="106.875" width="47.5" height="26.25" stroke-width="0.0" stroke="black" fill="url(#spring)"/>
<line x1="280.5" y1="106.875" x2="280.5" y2="133.125" stroke="dimgray" stroke-linecap="round" stroke-width="2" />
<line x1="280.5" y1="106.875" x2="280.5" y2="133.125" stroke="white" stroke-linecap="round" stroke-width="1" />
<line x1="337" y1="106.875" x2="337" y2="133.125" stroke="dimgray" stroke-linecap="round" stroke-width="2" />
<line x1="337" y1="106.875" x2="337" y2="133.125" stroke="white" stroke-linecap="round" stroke-width="1" />
<line x1="282.5" y1="106.875" x2="282.5" y2="133.125" stroke="dimgray" stroke-linecap="round" stroke-width="2" />
<line x1="282.5" y1="106.875" x2="282.5" y2="133.125" stroke="white" stroke-linecap="round" stroke-width="1" />
<line x1="335" y1="106.875" x2="335" y2="133.125" stroke="dimgray" stroke-linecap="round" stroke-width="2" />
<line x1="335" y1="106.875" x2="335" y2="133.125" stroke="white" stroke-linecap="round" stroke-width="1" />
<line x1="284.5" y1="106.875" x2="284.5" y2="133.125" stroke="dimgray" stroke-linecap="round" stroke-width="2" />
<line x1="284.5" y1="106.875" x2="284.5" y2="133.125" stroke="white" stroke-linecap="round" stroke-width="1" />
<line x1="333" y1="106.875" x2="333" y2="133.125" stroke="dimgray" stroke-linecap="round" stroke-width="2" />
<line x1="333" y1="106.875" x2="333" y2="133.125" stroke="white" stroke-linecap="round" stroke-width="1" />
<line x1="286.5" y1="106.875" x2="286.5" y2="133.125" stroke="dimgray" stroke-linecap="round" stroke-width="2" />
<line x1="286.5" y1="106.875" x2="286.5" y2="133.125" stroke="white" stroke-linecap="round" stroke-width="1" />
<line x1="331" y1="106.875" x2="331" y2="133.125" stroke="dimgray" stroke-linecap="round" stroke-width="2" />
<line x1="331" y1="106.875" x2="331" y2="133.125" stroke="white" stroke-linecap="round" stroke-width="1" />


<!-- renderPart: cylinder -->
<path d="M337.5 110 L353.75 110 L353.75 130 L337.5 130 Z" stroke-width="0.5" stroke="black" stroke-linejoin="round" fill="white" fill-opacity="1"/>


<!-- renderPart: cylinder -->
<path d="M353.75 105 L388.75 105 L388.75 135 L353.75 135 Z" stroke-width="0.5" stroke="black" stroke-linejoin="round" fill="white" fill-opacity="1"/>


<!-- renderPart: cylinder -->
<path d="M388.75 107.5 L912.5 107.5 L912.5 132.5 L388.75 132.5 Z" stroke-width="0.5" stroke="black" stroke-linejoin="round" fill="white" fill-opacity="1"/>


<!-- renderSideComponent: tip -->


<!-- renderPart: cone -->
<path d="M253.75 226.875 L311.25 221.25 L311.25 258.75 L253.75 253.125 Z" stroke-width="0.5" stroke="black" stroke-linejoin="round" fill="white" fill-opacity="1"/>


<!-- renderSideComponent: grip -->


<!-- renderPart: cylinder -->
<path d="M311.25 220 L438.75 220 L438.75 260 L311.25 260 Z" stroke-width="0.5" stroke="black" stroke-linejoin="round" fill="white" fill-opacity="1"/>
<path d="M311.25 220 L438.75 220 L438.75 260 L311.25 260 Z" stroke-width="1.0" stroke="black" fill="url(#knurled)"/>


<!-- renderPart: cylinder -->
<path d="M407.5 344.375 L417.5 344.375 L417.5 375.625 L407.5 375.625 Z" stroke-width="0.5" stroke="black" stroke-linejoin="round" fill="white" fill-opacity="1"/>


<!-- renderPart: cylinder -->
<path d="M417.5 342.5 L438.75 342.5 L438.75 377.5 L417.5 377.5 Z" stroke-width="0.5" stroke="black" stroke-linejoin="round" fill="white" fill-opacity="1"/>
<path d="M417.5 342.5 L438.75 342.5 L438.75 377.5 L417.5 377.5 Z" stroke-width="1.0" stroke="black" fill="url(#threaded)"/>
<line x1="417.5" y1="340.5" x2="422.5" y2="379.5" stroke="dimgray" stroke-linecap="round" stroke-width="2" />
<line x1="417.5" y1="340.5" x2="422.5" y2="379.5" stroke="[object Object]" stroke-linecap="round" stroke-width="1" />
<line x1="422.5" y1="340.5" x2="427.5" y2="379.5" stroke="dimgray" stroke-linecap="round" stroke-width="2" />
<line x1="422.5" y1="340.5" x2="427.5" y2="379.5" stroke="[object Object]" stroke-linecap="round" stroke-width="1" />
<line x1="427.5" y1="340.5" x2="432.5" y2="379.5" stroke="dimgray" stroke-linecap="round" stroke-width="2" />
<line x1="427.5" y1="340.5" x2="432.5" y2="379.5" stroke="[object Object]" stroke-linecap="round" stroke-width="1" />
<line x1="432.5" y1="340.5" x2="437.5" y2="379.5" stroke="dimgray" stroke-linecap="round" stroke-width="2" />
<line x1="432.5" y1="340.5" x2="437.5" y2="379.5" stroke="[object Object]" stroke-linecap="round" stroke-width="1" />


<!-- renderSideComponent: body -->


<!-- renderPart: hexagonal -->
<path d="M438.75 339.375 L858.75 339.375 L858.75 380.625 L438.75 380.625 Z" stroke-width="0.5" stroke="black" stroke-linejoin="round" fill="white" fill-opacity="1"/>
<line x1="438.75" y1="360" x2="858.75" y2="360" stroke-width="1.5" stroke="black" fill="none" stroke-opacity="0.5"/>
<line x1="438.75" y1="360" x2="858.75" y2="360" stroke-width="0.5" stroke="gray" fill="none" stroke-opacity="0.5"/>


<!-- renderSideComponent: clip -->
<path d="M753.75 331.625 Q731.25 344.125 718.75 332.875" stroke-width="4" stroke="black" fill="none" stroke-linecap="round" />
<path d="M718.75 332.875 Q711.25 329.125 718.75 327.875" stroke-width="4" stroke="black" fill="none" stroke-linecap="round" />
<line x1="718.75" y1="327.875" x2="853.75" y2="327.875" stroke-width="4" stroke="black" fill="dimgray" stroke-linecap="round" />
<line x1="853.75" y1="327.875" x2="858.75" y2="339.125" stroke-width="4" stroke="black" fill="dimgray" stroke-linecap="round" />


<!-- renderPart: cylinder -->
<path d="M858.75 336.875 L892.5 336.875 L892.5 383.125 L858.75 383.125 Z" stroke-width="0.5" stroke="black" stroke-linejoin="round" fill="white" fill-opacity="1"/>
<path d="M753.75 331.625 Q731.25 344.125 718.75 332.875" stroke-width="3" stroke="white" fill="none" stroke-linecap="round" />
<path d="M718.75 332.875 Q711.25 329.125 718.75 327.875" stroke-width="3" stroke="white" fill="none" stroke-linecap="round" />
<line x1="718.75" y1="327.875" x2="853.75" y2="327.875" stroke-width="3" stroke="white" fill="white" stroke-linecap="round" />
<line x1="853.75" y1="327.875" x2="858.75" y2="339.125" stroke-width="3" stroke="white" fill="white" stroke-linecap="round" />


<!-- renderPart: cylinder -->
<path d="M866.25 465 L887.5 465 L887.5 495 L866.25 495 Z" stroke-width="0.5" stroke="black" stroke-linejoin="round" fill="white" fill-opacity="1"/>


<!-- renderPart: cylinder -->
<path d="M887.5 464.375 L892.5 464.375 L892.5 495.625 L887.5 495.625 Z" stroke-width="0.5" stroke="black" stroke-linejoin="round" fill="white" fill-opacity="1"/>


<!-- renderSideComponent: cap -->


<!-- renderPart: cylinder -->
<path d="M892.5 465 L941.25 465 L941.25 495 L892.5 495 Z" stroke-width="0.5" stroke="black" stroke-linejoin="round" fill="white" fill-opacity="1"/>


<!-- renderPart: cylinder -->
<path d="M941.25 461.25 L951.25 461.25 L951.25 498.75 L941.25 498.75 Z" stroke-width="0.5" stroke="black" stroke-linejoin="round" fill="white" fill-opacity="1"/>
<line x1="248.75" y1="200" x2="248.75" y2="280" stroke="white" stroke-linecap="round"  stroke-width="1.0" />
<line x1="248.75" y1="200" x2="248.75" y2="280" stroke="black" stroke-linecap="round" stroke-dasharray="2,3" stroke-width="1.0" />


<!-- EXPLODED LINE -->
<line x1="268.75" y1="240" x2="293.75" y2="240" stroke-linecap="round" stroke="green"  stroke-width="1.0" />
<line x1="438.75" y1="320" x2="438.75" y2="400" stroke="white" stroke-linecap="round"  stroke-width="1.0" />
<line x1="438.75" y1="320" x2="438.75" y2="400" stroke="black" stroke-linecap="round" stroke-dasharray="2,3" stroke-width="1.0" />


<!-- EXPLODED LINE -->
<line x1="458.75" y1="360" x2="2558.75" y2="360" stroke-linecap="round" stroke="green"  stroke-width="1.0" />
<line x1="892.5" y1="440" x2="892.5" y2="520" stroke="white" stroke-linecap="round"  stroke-width="1.0" />
<line x1="892.5" y1="440" x2="892.5" y2="520" stroke="black" stroke-linecap="round" stroke-dasharray="2,3" stroke-width="1.0" />


<!-- EXPLODED LINE -->
<line x1="912.5" y1="480" x2="1206.25" y2="480" stroke-linecap="round" stroke="green"  stroke-width="1.0" />
</g><text x="50%" y="549.25" font-size="1.1em" font-weight="bold" text-anchor="middle" dominant-baseline="middle">Copyright (c) // The Mechanical Pencil Database (tmpdb) // Licensed under Creative Commons Attribution-NonCommercial-ShareAlike 4.0 International</text>
<text x="1190" y="559.25" font-size="0.5em" font-weight="bold" text-anchor="end" dominant-baseline="middle">SVGTechnicalExplodedRenderer</text>
</svg>