<svg xmlns="http://www.w3.org/2000/svg" width="1200" height="569.25">
 <pattern id="knurled-large" patternUnits="userSpaceOnUse" width="12" height="12">
<path stroke="dimgray" stroke-linecap="round" stroke-width="1" d="M 6,6 L 12,12"/>
<path stroke="dimgray" stroke-linecap="round" stroke-width="1" d="M 6,6 L 0,12"/>
<path stroke="gray" stroke-linecap="round" stroke-width="1" d="M 6,6 L 12,0" />
<path stroke="gray" stroke-linecap="round" stroke-width="1" d="M 6,6 L 0,0" />
</pattern><pattern id="knurled-small" patternUnits="userSpaceOnUse" width="4" height="4">
<path stroke="dimgray" stroke-linecap="round" stroke-width="1" d="M 2,2 L 4,4"/>
<path stroke="dimgray" stroke-linecap="round" stroke-width="1" d="M 2,2 L 0,4"/>
<path stroke="gray" stroke-linecap="round" stroke-width="1" d="M 2,2 L 4,0" />
<path stroke="gray" stroke-linecap="round" stroke-width="1" d="M 2,2 L 0,0" />
</pattern><pattern id="knurled" patternUnits="userSpaceOnUse" width="8" height="8">
<path stroke="dimgray" stroke-linecap="round" stroke-width="1" d="M 4,4 L 8,8"/>
<path stroke="dimgray" stroke-linecap="round" stroke-width="1" d="M 4,4 L 0,8"/>
<path stroke="gray" stroke-linecap="round" stroke-width="1" d="M 4,4 L 8,0" />
<path stroke="gray" stroke-linecap="round" stroke-width="1" d="M 4,4 L 0,0" />
</pattern><pattern id="lined" patternUnits="userSpaceOnUse" width="3" height="3">
<path stroke="dimgray" stroke-linecap="round" stroke-width="1" d="M 0,0 L 3,0"/>
</pattern><pattern id="ridged" patternUnits="userSpaceOnUse" width="3" height="3">
<path stroke="dimgray" stroke-linecap="round" stroke-width="1" d="M 0,0 L 0,3"/>
</pattern><pattern id="spring" patternUnits="userSpaceOnUse" width="8" height="100">
<path stroke="dimgray" stroke-linecap="round" stroke-width="2" d="M 1,1 L 9,99"/>
<path stroke="white" stroke-linecap="round" stroke-width="1" d="M 1,1 L 9,99"/>
</pattern><pattern id="knurled" patternUnits="userSpaceOnUse" width="8" height="8">
<path stroke="dimgray" stroke-linecap="round" stroke-width="1" d="M 4,4 L 8,8"/>
<path stroke="dimgray" stroke-linecap="round" stroke-width="1" d="M 4,4 L 0,8"/>
<path stroke="gray" stroke-linecap="round" stroke-width="1" d="M 4,4 L 8,0" />
<path stroke="gray" stroke-linecap="round" stroke-width="1" d="M 4,4 L 0,0" />
</pattern><rect x="0" y="0" width="1200" height="569.25" fill="white" stroke="black" stroke-width="4" />
<rect x="2" y="2" width="1196" height="565.25" fill="white" stroke="dimgray" stroke-width="1" />
<g transform="rotate(0 0 0)">
<text x="30" y="50" font-size="2.0em" font-weight="bold"> Mitsubishi // uni (Model #: MH-500)</text>


<!-- renderExplodedSideComponents -->


<!-- renderSideComponent: jaws -->


<!-- renderPart: cone -->
<path d="M248.75 153.125 L253.75 149.375 L253.75 170.625 L248.75 166.875 Z" stroke-width="0.5" stroke="black" stroke-linejoin="round" fill="silver" fill-opacity="1"/>


<!-- renderPart: cone -->
<path d="M253.75 149.375 L280 151.25 L280 168.75 L253.75 170.625 Z" stroke-width="0.5" stroke="black" stroke-linejoin="round" fill="silver" fill-opacity="1"/>


<!-- renderPart: cylinder -->
<path d="M280 151.875 L337.5 151.875 L337.5 168.125 L280 168.125 Z" stroke-width="0.5" stroke="black" stroke-linejoin="round" fill="silver" fill-opacity="1"/>
<path d="M280 151.875 L337.5 151.875 L337.5 168.125 L280 168.125 Z" stroke-width="1.0" stroke="black" fill="url(#spring)"/>
<rect x="285" y="146.875" width="47.5" height="26.25" stroke-width="0.0" stroke="black" fill="url(#spring)"/>
<line x1="280.5" y1="146.875" x2="280.5" y2="173.125" stroke="dimgray" stroke-linecap="round" stroke-width="2" />
<line x1="280.5" y1="146.875" x2="280.5" y2="173.125" stroke="white" stroke-linecap="round" stroke-width="1" />
<line x1="337" y1="146.875" x2="337" y2="173.125" stroke="dimgray" stroke-linecap="round" stroke-width="2" />
<line x1="337" y1="146.875" x2="337" y2="173.125" stroke="white" stroke-linecap="round" stroke-width="1" />
<line x1="282.5" y1="146.875" x2="282.5" y2="173.125" stroke="dimgray" stroke-linecap="round" stroke-width="2" />
<line x1="282.5" y1="146.875" x2="282.5" y2="173.125" stroke="white" stroke-linecap="round" stroke-width="1" />
<line x1="335" y1="146.875" x2="335" y2="173.125" stroke="dimgray" stroke-linecap="round" stroke-width="2" />
<line x1="335" y1="146.875" x2="335" y2="173.125" stroke="white" stroke-linecap="round" stroke-width="1" />
<line x1="284.5" y1="146.875" x2="284.5" y2="173.125" stroke="dimgray" stroke-linecap="round" stroke-width="2" />
<line x1="284.5" y1="146.875" x2="284.5" y2="173.125" stroke="white" stroke-linecap="round" stroke-width="1" />
<line x1="333" y1="146.875" x2="333" y2="173.125" stroke="dimgray" stroke-linecap="round" stroke-width="2" />
<line x1="333" y1="146.875" x2="333" y2="173.125" stroke="white" stroke-linecap="round" stroke-width="1" />
<line x1="286.5" y1="146.875" x2="286.5" y2="173.125" stroke="dimgray" stroke-linecap="round" stroke-width="2" />
<line x1="286.5" y1="146.875" x2="286.5" y2="173.125" stroke="white" stroke-linecap="round" stroke-width="1" />
<line x1="331" y1="146.875" x2="331" y2="173.125" stroke="dimgray" stroke-linecap="round" stroke-width="2" />
<line x1="331" y1="146.875" x2="331" y2="173.125" stroke="white" stroke-linecap="round" stroke-width="1" />


<!-- renderPart: cylinder -->
<path d="M337.5 150 L353.75 150 L353.75 170 L337.5 170 Z" stroke-width="0.5" stroke="black" stroke-linejoin="round" fill="silver" fill-opacity="1"/>


<!-- renderPart: cylinder -->
<path d="M353.75 145 L388.75 145 L388.75 175 L353.75 175 Z" stroke-width="0.5" stroke="dimgray" stroke-linejoin="round" fill="black" fill-opacity="1"/>


<!-- renderPart: cylinder -->
<path d="M388.75 147.5 L912.5 147.5 L912.5 172.5 L388.75 172.5 Z" stroke-width="0.5" stroke="dimgray" stroke-linejoin="round" fill="black" fill-opacity="1"/>
<line x1="253.75" y1="120" x2="253.75" y2="200" stroke="white" stroke-linecap="round"  stroke-width="1" />
<line x1="253.75" y1="120" x2="253.75" y2="200" stroke="black" stroke-linecap="round" stroke-dasharray="4,2" stroke-width="1" />


<!-- DASHED JOIN -->
<path d="M 263.75 160 L 942.5 160 L 942.5 220 L 203.75 220 L 203.75 280 L 248.75 280 " fill="none" stroke="white" stroke-width="2" stroke-dasharray="8,4" stroke-linecap="round"  />
<path d="M 263.75 160 L 942.5 160 L 942.5 220 L 203.75 220 L 203.75 280 L 248.75 280 " fill="none" stroke="black" stroke-width="1" stroke-dasharray="8,4" stroke-linecap="round"  />


<!-- ARROW START -->
<line x1="263.75" y1="160" x2="270.75" y2="160" stroke-linecap="round" stroke="#ffffff" stroke-width="2.0" />
<line x1="263.75" y1="160" x2="277.75" y2="152" stroke-linecap="round" stroke="#ffffff" stroke-width="2.0" />
<line x1="277.75" y1="152" x2="270.75" y2="160" stroke-linecap="round" stroke="#ffffff" stroke-width="2.0" />
<line x1="263.75" y1="160" x2="277.75" y2="168" stroke-linecap="round" stroke="#ffffff" stroke-width="2.0" />
<line x1="277.75" y1="168" x2="270.75" y2="160" stroke-linecap="round" stroke="#ffffff" stroke-width="2.0" />
<line x1="263.75" y1="160" x2="277.75" y2="152" stroke-linecap="round" stroke="#0f0f0f" stroke-width="1.0" />
<line x1="277.75" y1="152" x2="270.75" y2="160" stroke-linecap="round" stroke="#0f0f0f" stroke-width="1.0" />
<line x1="263.75" y1="160" x2="277.75" y2="168" stroke-linecap="round" stroke="#0f0f0f" stroke-width="1.0" />
<line x1="277.75" y1="168" x2="270.75" y2="160" stroke-linecap="round" stroke="#0f0f0f" stroke-width="1.0" />


<!-- ARROW START -->
<line x1="223.75" y1="280" x2="230.75" y2="280" stroke-linecap="round" stroke="#ffffff" stroke-width="2.0" />
<line x1="223.75" y1="280" x2="237.75" y2="272" stroke-linecap="round" stroke="#ffffff" stroke-width="2.0" />
<line x1="237.75" y1="272" x2="230.75" y2="280" stroke-linecap="round" stroke="#ffffff" stroke-width="2.0" />
<line x1="223.75" y1="280" x2="237.75" y2="288" stroke-linecap="round" stroke="#ffffff" stroke-width="2.0" />
<line x1="237.75" y1="288" x2="230.75" y2="280" stroke-linecap="round" stroke="#ffffff" stroke-width="2.0" />
<line x1="223.75" y1="280" x2="237.75" y2="272" stroke-linecap="round" stroke="#0f0f0f" stroke-width="1.0" />
<line x1="237.75" y1="272" x2="230.75" y2="280" stroke-linecap="round" stroke="#0f0f0f" stroke-width="1.0" />
<line x1="223.75" y1="280" x2="237.75" y2="288" stroke-linecap="round" stroke="#0f0f0f" stroke-width="1.0" />
<line x1="237.75" y1="288" x2="230.75" y2="280" stroke-linecap="round" stroke="#0f0f0f" stroke-width="1.0" />


<!-- renderSideComponent: tip -->


<!-- renderPart: cone -->
<path d="M253.75 266.875 L311.25 261.25 L311.25 298.75 L253.75 293.125 Z" stroke-width="0.5" stroke="black" stroke-linejoin="round" fill="silver" fill-opacity="1"/>


<!-- renderSideComponent: grip -->


<!-- renderPart: cylinder -->
<path d="M311.25 260 L438.75 260 L438.75 300 L311.25 300 Z" stroke-width="0.5" stroke="black" stroke-linejoin="round" fill="silver" fill-opacity="1"/>
<path d="M311.25 260 L438.75 260 L438.75 300 L311.25 300 Z" stroke-width="1.0" stroke="black" fill="url(#knurled)"/>


<!-- DASHED JOIN -->
<path d="M 453.75 280 L 473.75 280 L 473.75 340 L 362.5 340 L 362.5 400 L 407.5 400 " fill="none" stroke="white" stroke-width="2" stroke-dasharray="8,4" stroke-linecap="round"  />
<path d="M 453.75 280 L 473.75 280 L 473.75 340 L 362.5 340 L 362.5 400 L 407.5 400 " fill="none" stroke="black" stroke-width="1" stroke-dasharray="8,4" stroke-linecap="round"  />


<!-- ARROW START -->
<line x1="443.75" y1="280" x2="450.75" y2="280" stroke-linecap="round" stroke="#ffffff" stroke-width="2.0" />
<line x1="443.75" y1="280" x2="457.75" y2="272" stroke-linecap="round" stroke="#ffffff" stroke-width="2.0" />
<line x1="457.75" y1="272" x2="450.75" y2="280" stroke-linecap="round" stroke="#ffffff" stroke-width="2.0" />
<line x1="443.75" y1="280" x2="457.75" y2="288" stroke-linecap="round" stroke="#ffffff" stroke-width="2.0" />
<line x1="457.75" y1="288" x2="450.75" y2="280" stroke-linecap="round" stroke="#ffffff" stroke-width="2.0" />
<line x1="443.75" y1="280" x2="457.75" y2="272" stroke-linecap="round" stroke="#0f0f0f" stroke-width="1.0" />
<line x1="457.75" y1="272" x2="450.75" y2="280" stroke-linecap="round" stroke="#0f0f0f" stroke-width="1.0" />
<line x1="443.75" y1="280" x2="457.75" y2="288" stroke-linecap="round" stroke="#0f0f0f" stroke-width="1.0" />
<line x1="457.75" y1="288" x2="450.75" y2="280" stroke-linecap="round" stroke="#0f0f0f" stroke-width="1.0" />


<!-- ARROW START -->
<line x1="377.5" y1="400" x2="384.5" y2="400" stroke-linecap="round" stroke="#ffffff" stroke-width="2.0" />
<line x1="377.5" y1="400" x2="391.5" y2="392" stroke-linecap="round" stroke="#ffffff" stroke-width="2.0" />
<line x1="391.5" y1="392" x2="384.5" y2="400" stroke-linecap="round" stroke="#ffffff" stroke-width="2.0" />
<line x1="377.5" y1="400" x2="391.5" y2="408" stroke-linecap="round" stroke="#ffffff" stroke-width="2.0" />
<line x1="391.5" y1="408" x2="384.5" y2="400" stroke-linecap="round" stroke="#ffffff" stroke-width="2.0" />
<line x1="377.5" y1="400" x2="391.5" y2="392" stroke-linecap="round" stroke="#0f0f0f" stroke-width="1.0" />
<line x1="391.5" y1="392" x2="384.5" y2="400" stroke-linecap="round" stroke="#0f0f0f" stroke-width="1.0" />
<line x1="377.5" y1="400" x2="391.5" y2="408" stroke-linecap="round" stroke="#0f0f0f" stroke-width="1.0" />
<line x1="391.5" y1="408" x2="384.5" y2="400" stroke-linecap="round" stroke="#0f0f0f" stroke-width="1.0" />


<!-- renderPart: cylinder -->
<path d="M407.5 384.375 L417.5 384.375 L417.5 415.625 L407.5 415.625 Z" stroke-width="0.5" stroke="black" stroke-linejoin="round" fill="maroon" fill-opacity="1"/>


<!-- renderPart: cylinder -->
<path d="M417.5 382.5 L438.75 382.5 L438.75 417.5 L417.5 417.5 Z" stroke-width="0.5" stroke="black" stroke-linejoin="round" fill="maroon" fill-opacity="1"/>
<path d="M417.5 382.5 L438.75 382.5 L438.75 417.5 L417.5 417.5 Z" stroke-width="1.0" stroke="black" fill="url(#threaded)"/>
<line x1="417.5" y1="380.5" x2="422.5" y2="419.5" stroke="dimgray" stroke-linecap="round" stroke-width="2" />
<line x1="417.5" y1="380.5" x2="422.5" y2="419.5" stroke="[object Object]" stroke-linecap="round" stroke-width="1" />
<line x1="422.5" y1="380.5" x2="427.5" y2="419.5" stroke="dimgray" stroke-linecap="round" stroke-width="2" />
<line x1="422.5" y1="380.5" x2="427.5" y2="419.5" stroke="[object Object]" stroke-linecap="round" stroke-width="1" />
<line x1="427.5" y1="380.5" x2="432.5" y2="419.5" stroke="dimgray" stroke-linecap="round" stroke-width="2" />
<line x1="427.5" y1="380.5" x2="432.5" y2="419.5" stroke="[object Object]" stroke-linecap="round" stroke-width="1" />
<line x1="432.5" y1="380.5" x2="437.5" y2="419.5" stroke="dimgray" stroke-linecap="round" stroke-width="2" />
<line x1="432.5" y1="380.5" x2="437.5" y2="419.5" stroke="[object Object]" stroke-linecap="round" stroke-width="1" />
<line x1="438.75" y1="360" x2="438.75" y2="440" stroke="white" stroke-linecap="round"  stroke-width="1" />
<line x1="438.75" y1="360" x2="438.75" y2="440" stroke="black" stroke-linecap="round" stroke-dasharray="4,2" stroke-width="1" />


<!-- renderSideComponent: body -->


<!-- renderPart: hexagonal -->
<path d="M438.75 379.375 L858.75 379.375 L858.75 420.625 L438.75 420.625 Z" stroke-width="0.5" stroke="black" stroke-linejoin="round" fill="maroon" fill-opacity="1"/>
<line x1="438.75" y1="400" x2="858.75" y2="400" stroke-width="1.5" stroke="gray" fill="gray" stroke-opacity="1.0"/>
<line x1="438.75" y1="400" x2="858.75" y2="400" stroke-width="0.5" stroke="black" fill="none" stroke-opacity="0.5"/>


<!-- renderSideComponent: clip -->
<path d="M753.75 371.625 Q731.25 384.125 718.75 372.875" stroke-width="4" stroke="black" fill="none" stroke-linecap="round" />
<path d="M718.75 372.875 Q711.25 369.125 718.75 367.875" stroke-width="4" stroke="black" fill="none" stroke-linecap="round" />
<line x1="718.75" y1="367.875" x2="853.75" y2="367.875" stroke-width="4" stroke="black" fill="dimgray" stroke-linecap="round" />
<line x1="853.75" y1="367.875" x2="858.75" y2="379.125" stroke-width="4" stroke="black" fill="dimgray" stroke-linecap="round" />


<!-- renderPart: cylinder -->
<path d="M858.75 376.875 L892.5 376.875 L892.5 423.125 L858.75 423.125 Z" stroke-width="0.5" stroke="black" stroke-linejoin="round" fill="silver" fill-opacity="1"/>
<path d="M753.75 371.625 Q731.25 384.125 718.75 372.875" stroke-width="3" stroke="silver" fill="none" stroke-linecap="round" />
<path d="M718.75 372.875 Q711.25 369.125 718.75 367.875" stroke-width="3" stroke="silver" fill="none" stroke-linecap="round" />
<line x1="718.75" y1="367.875" x2="853.75" y2="367.875" stroke-width="3" stroke="silver" fill="silver" stroke-linecap="round" />
<line x1="853.75" y1="367.875" x2="858.75" y2="379.125" stroke-width="3" stroke="silver" fill="silver" stroke-linecap="round" />


<!-- DASHED JOIN -->
<path d="M 907.5 400 L 927.5 400 L 927.5 460 L 821.25 460 L 821.25 520 L 866.25 520 " fill="none" stroke="white" stroke-width="2" stroke-dasharray="8,4" stroke-linecap="round"  />
<path d="M 907.5 400 L 927.5 400 L 927.5 460 L 821.25 460 L 821.25 520 L 866.25 520 " fill="none" stroke="black" stroke-width="1" stroke-dasharray="8,4" stroke-linecap="round"  />


<!-- ARROW START -->
<line x1="897.5" y1="400" x2="904.5" y2="400" stroke-linecap="round" stroke="#ffffff" stroke-width="2.0" />
<line x1="897.5" y1="400" x2="911.5" y2="392" stroke-linecap="round" stroke="#ffffff" stroke-width="2.0" />
<line x1="911.5" y1="392" x2="904.5" y2="400" stroke-linecap="round" stroke="#ffffff" stroke-width="2.0" />
<line x1="897.5" y1="400" x2="911.5" y2="408" stroke-linecap="round" stroke="#ffffff" stroke-width="2.0" />
<line x1="911.5" y1="408" x2="904.5" y2="400" stroke-linecap="round" stroke="#ffffff" stroke-width="2.0" />
<line x1="897.5" y1="400" x2="911.5" y2="392" stroke-linecap="round" stroke="#0f0f0f" stroke-width="1.0" />
<line x1="911.5" y1="392" x2="904.5" y2="400" stroke-linecap="round" stroke="#0f0f0f" stroke-width="1.0" />
<line x1="897.5" y1="400" x2="911.5" y2="408" stroke-linecap="round" stroke="#0f0f0f" stroke-width="1.0" />
<line x1="911.5" y1="408" x2="904.5" y2="400" stroke-linecap="round" stroke="#0f0f0f" stroke-width="1.0" />


<!-- ARROW START -->
<line x1="836.25" y1="520" x2="843.25" y2="520" stroke-linecap="round" stroke="#ffffff" stroke-width="2.0" />
<line x1="836.25" y1="520" x2="850.25" y2="512" stroke-linecap="round" stroke="#ffffff" stroke-width="2.0" />
<line x1="850.25" y1="512" x2="843.25" y2="520" stroke-linecap="round" stroke="#ffffff" stroke-width="2.0" />
<line x1="836.25" y1="520" x2="850.25" y2="528" stroke-linecap="round" stroke="#ffffff" stroke-width="2.0" />
<line x1="850.25" y1="528" x2="843.25" y2="520" stroke-linecap="round" stroke="#ffffff" stroke-width="2.0" />
<line x1="836.25" y1="520" x2="850.25" y2="512" stroke-linecap="round" stroke="#0f0f0f" stroke-width="1.0" />
<line x1="850.25" y1="512" x2="843.25" y2="520" stroke-linecap="round" stroke="#0f0f0f" stroke-width="1.0" />
<line x1="836.25" y1="520" x2="850.25" y2="528" stroke-linecap="round" stroke="#0f0f0f" stroke-width="1.0" />
<line x1="850.25" y1="528" x2="843.25" y2="520" stroke-linecap="round" stroke="#0f0f0f" stroke-width="1.0" />


<!-- renderPart: cylinder -->
<path d="M866.25 505 L887.5 505 L887.5 535 L866.25 535 Z" stroke-width="0.5" stroke="dimgray" stroke-linejoin="round" fill="black" fill-opacity="1"/>


<!-- renderPart: cylinder -->
<path d="M887.5 504.375 L892.5 504.375 L892.5 535.625 L887.5 535.625 Z" stroke-width="0.5" stroke="dimgray" stroke-linejoin="round" fill="black" fill-opacity="1"/>
<line x1="892.5" y1="480" x2="892.5" y2="560" stroke="white" stroke-linecap="round"  stroke-width="1" />
<line x1="892.5" y1="480" x2="892.5" y2="560" stroke="black" stroke-linecap="round" stroke-dasharray="4,2" stroke-width="1" />


<!-- renderSideComponent: cap -->


<!-- renderPart: cylinder -->
<path d="M892.5 505 L941.25 505 L941.25 535 L892.5 535 Z" stroke-width="0.5" stroke="dimgray" stroke-linejoin="round" fill="black" fill-opacity="1"/>


<!-- renderPart: cylinder -->
<path d="M941.25 501.25 L951.25 501.25 L951.25 538.75 L941.25 538.75 Z" stroke-width="0.5" stroke="dimgray" stroke-linejoin="round" fill="black" fill-opacity="1"/>
</g><text x="50%" y="529.25" font-size="1.1em" font-weight="bold" text-anchor="middle" dominant-baseline="middle">Copyright (c) // Synapticloop and The Mechanical Pencil Database (tmpdb)</text>
<text x="50%" y="549.25" font-size="1.1em" font-weight="bold" text-anchor="middle" dominant-baseline="middle">Licensed under Creative Commons Attribution-NonCommercial-ShareAlike 4.0 International</text>
<text x="1190" y="559.25" font-size="0.5em" font-weight="bold" text-anchor="end" dominant-baseline="middle">SVGTechnicalExplodedRenderer</text>
</svg>