<svg xmlns="http://www.w3.org/2000/svg" width="1200" height="480">
 <pattern id="knurled-large" patternUnits="userSpaceOnUse" width="12" height="12">
<path stroke="dimgray" stroke-linecap="round" stroke-width="1" d="M 6,6 L 12,12"/>
<path stroke="dimgray" stroke-linecap="round" stroke-width="1" d="M 6,6 L 0,12"/>
<path stroke="gray" stroke-linecap="round" stroke-width="1" d="M 6,6 L 12,0" />
<path stroke="gray" stroke-linecap="round" stroke-width="1" d="M 6,6 L 0,0" />
</pattern><pattern id="knurled-small" patternUnits="userSpaceOnUse" width="4" height="4">
<path stroke="dimgray" stroke-linecap="round" stroke-width="1" d="M 2,2 L 4,4"/>
<path stroke="dimgray" stroke-linecap="round" stroke-width="1" d="M 2,2 L 0,4"/>
<path stroke="gray" stroke-linecap="round" stroke-width="1" d="M 2,2 L 4,0" />
<path stroke="gray" stroke-linecap="round" stroke-width="1" d="M 2,2 L 0,0" />
</pattern><pattern id="knurled" patternUnits="userSpaceOnUse" width="8" height="8">
<path stroke="dimgray" stroke-linecap="round" stroke-width="1" d="M 4,4 L 8,8"/>
<path stroke="dimgray" stroke-linecap="round" stroke-width="1" d="M 4,4 L 0,8"/>
<path stroke="gray" stroke-linecap="round" stroke-width="1" d="M 4,4 L 8,0" />
<path stroke="gray" stroke-linecap="round" stroke-width="1" d="M 4,4 L 0,0" />
</pattern><pattern id="lined" patternUnits="userSpaceOnUse" width="3" height="3">
<path stroke="dimgray" stroke-linecap="round" stroke-width="1" d="M 0,0 L 3,0"/>
</pattern><pattern id="ridged" patternUnits="userSpaceOnUse" width="3" height="3">
<path stroke="dimgray" stroke-linecap="round" stroke-width="1" d="M 0,0 L 0,3"/>
</pattern><rect x="0" y="0" width="1200" height="480" fill="white" stroke="black" stroke-width="4" />
<rect x="2" y="2" width="1196" height="476" fill="white" stroke="dimgray" stroke-width="1" />
<g transform="rotate(0 0 0)">
<text x="30" y="50" font-size="2.0em" font-weight="bold"> M &amp; G // Easy Come Easy Go! (Model #: amp-35601)</text>


<!-- renderExplodedSideComponents -->


<!-- renderSideComponent: tip -->


<!-- renderPart: cylinder -->
<path d="M241.825 110.625 L254.425 110.625 L254.425 129.375 L241.825 129.375 Z" stroke-width="0" stroke="none" stroke-linejoin="round" fill="silver" fill-opacity="1"/>
<path d="M241.875 110.625 L254.375 110.625 M254.375 129.375 L241.875 129.375" stroke-width="0.5" stroke="black" stroke-linejoin="round" fill="silver" fill-opacity="1"/>
<!-- !left !both--><path d="M241.875 110.625 L241.875 129.375" stroke-width="0.5" stroke="black" stroke-linejoin="round" fill="silver" fill-opacity="1"/>
<!-- !right !both --><path d="M254.375 110.625 L254.375 129.375" stroke-width="0.5" stroke="black" stroke-linejoin="round" fill="silver" fill-opacity="1"/>


<!-- renderPart: cone -->
<path d="M254.325 110 L295.675 101.25 L295.675 138.75 L254.325 130 Z" stroke-width="0" stroke="none" stroke-linejoin="round" fill="silver" fill-opacity="1"/>
<path d="M254.375 110 L295.625 101.25 M295.625 138.75 L254.375 130" stroke-width="0.5" stroke="black" stroke-linejoin="round" fill="silver" fill-opacity="1"/>
<!-- !left !both--><path d="M254.375 110 L254.375 130" stroke-width="0.5" stroke="black" stroke-linejoin="round" fill="silver" fill-opacity="1"/>
<!-- !right !both --><path d="M295.625 101.25 L295.625 138.75" stroke-width="0.5" stroke="black" stroke-linejoin="round" fill="silver" fill-opacity="1"/>


<!-- renderPart: cylinder -->
<path d="M295.575 101.25 L310.675 101.25 L310.675 138.75 L295.575 138.75 Z" stroke-width="0" stroke="none" stroke-linejoin="round" fill="silver" fill-opacity="1"/>
<path d="M295.625 101.25 L310.625 101.25 M310.625 138.75 L295.625 138.75" stroke-width="0.5" stroke="black" stroke-linejoin="round" fill="silver" fill-opacity="1"/>
<!-- !left !both--><path d="M295.625 101.25 L295.625 138.75" stroke-width="0.5" stroke="black" stroke-linejoin="round" fill="silver" fill-opacity="1"/>
<!-- !right !both --><path d="M310.625 101.25 L310.625 138.75" stroke-width="0.5" stroke="black" stroke-linejoin="round" fill="silver" fill-opacity="1"/>


<!-- renderPart: cylinder -->
<path d="M310.575 99.375 L340.675 99.375 L340.675 140.625 L310.575 140.625 Z" stroke-width="0" stroke="none" stroke-linejoin="round" fill="silver" fill-opacity="1"/>
<path d="M310.625 99.375 L340.625 99.375 M340.625 140.625 L310.625 140.625" stroke-width="0.5" stroke="black" stroke-linejoin="round" fill="silver" fill-opacity="1"/>
<!-- !left !both--><path d="M310.625 99.375 L310.625 140.625" stroke-width="0.5" stroke="black" stroke-linejoin="round" fill="silver" fill-opacity="1"/>
<!-- !right !both --><path d="M340.625 99.375 L340.625 140.625" stroke-width="0.5" stroke="black" stroke-linejoin="round" fill="silver" fill-opacity="1"/>


<!-- renderPart: cylinder -->
<path d="M320.575 223.75 L340.675 223.75 L340.675 256.25 L320.575 256.25 Z" stroke-width="0" stroke="none" stroke-linejoin="round" fill="#000000" fill-opacity="1"/>
<path d="M320.625 223.75 L340.625 223.75 M340.625 256.25 L320.625 256.25" stroke-width="0.5" stroke="black" stroke-linejoin="round" fill="#000000" fill-opacity="1"/>
<!-- !left !both--><path d="M320.625 223.75 L320.625 256.25" stroke-width="0.5" stroke="black" stroke-linejoin="round" fill="#000000" fill-opacity="1"/>
<!-- !right !both --><path d="M340.625 223.75 L340.625 256.25" stroke-width="0.5" stroke="black" stroke-linejoin="round" fill="#000000" fill-opacity="1"/>
<line x1="320.625" y1="223.75" x2="325.625" y2="256.25" stroke="dimgray" stroke-linecap="round" stroke-width="2" />
<line x1="320.625" y1="223.75" x2="325.625" y2="256.25" stroke="[object Object]" stroke-linecap="round" stroke-width="1" />
<line x1="325.625" y1="223.75" x2="330.625" y2="256.25" stroke="dimgray" stroke-linecap="round" stroke-width="2" />
<line x1="325.625" y1="223.75" x2="330.625" y2="256.25" stroke="[object Object]" stroke-linecap="round" stroke-width="1" />
<line x1="330.625" y1="223.75" x2="335.625" y2="256.25" stroke="dimgray" stroke-linecap="round" stroke-width="2" />
<line x1="330.625" y1="223.75" x2="335.625" y2="256.25" stroke="[object Object]" stroke-linecap="round" stroke-width="1" />
<line x1="335.625" y1="223.75" x2="340.625" y2="256.25" stroke="dimgray" stroke-linecap="round" stroke-width="2" />
<line x1="335.625" y1="223.75" x2="340.625" y2="256.25" stroke="[object Object]" stroke-linecap="round" stroke-width="1" />


<!-- renderSideComponent: body -->


<!-- renderPart: hexagonal -->
<path d="M340.575 220 L839.425 220 L839.425 260 L340.575 260 Z" stroke-width="0" stroke="none" stroke-linejoin="round" fill="#000000" fill-opacity="1"/>
<path d="M340.625 220 L839.375 220 M839.375 260 L340.625 260" stroke-width="0.5" stroke="black" stroke-linejoin="round" fill="#000000" fill-opacity="1"/>
<!-- !left !both--><path d="M340.625 220 L340.625 260" stroke-width="0.5" stroke="black" stroke-linejoin="round" fill="#000000" fill-opacity="1"/>
<!-- !right !both --><path d="M839.375 220 L839.375 260" stroke-width="0.5" stroke="black" stroke-linejoin="round" fill="#000000" fill-opacity="1"/>
<line x1="345.625" y1="240" x2="844.375" y2="240" stroke-width="1.5" stroke="gray" fill="gray" stroke-opacity="1.0"/>
<line x1="345.625" y1="240" x2="844.375" y2="240" stroke-width="0.5" stroke="black" fill="none" stroke-opacity="0.5"/>

<!-- TAPER START: hexagonal -->
<path d="M 340.625 220.25 L 345.625 220.25 C 339.375 225, 339.375 235, 345.625 240 C 339.375 245, 339.375 255, 345.625 259.75 L 340.625 259.75 Z" stroke-width="0" stroke="0" stroke-linecap="round" fill-opacity="1" fill="#000000" /><path d="M 345.625 220.5 C 339.375 225, 339.375 235, 345.625 240 C 339.375 245, 339.375 255, 345.625 259.45" stroke-width="1.5" stroke="gray" stroke-linecap="round" fill-opacity="0" fill="none" /><path d="M 345.625 220.5 C 339.375 225, 339.375 235, 345.625 240 C 339.375 245, 339.375 255, 345.625 259.5" stroke-width="0.5" stroke="black" stroke-opacity="0.5" stroke-linecap="round" fill-opacity="0" fill="none" />

<!-- renderSideComponent: clip -->
<line x1="660.625" y1="209.375" x2="675.625" y2="209.375" stroke-width="4" stroke="black" fill="dimgray" stroke-linecap="round" />
<line x1="675.625" y1="209.375" x2="695.625" y2="218.125" stroke-width="4" stroke="black" fill="dimgray" stroke-linecap="round" />
<line x1="695.625" y1="218.125" x2="715.625" y2="209.375" stroke-width="4" stroke="black" fill="dimgray" stroke-linecap="round" />
<line x1="715.625" y1="209.375" x2="855.625" y2="209.375" stroke-width="4" stroke="black" fill="dimgray" stroke-linecap="round" />
<path d="M855.625 209.375 Q875.625 214.375 855.625 219.375" stroke-width="4" stroke="black" fill="none" stroke-linecap="round" />


<!-- renderPart: cylinder -->
<path d="M839.325 216.875 L863.175 216.875 L863.175 263.125 L839.325 263.125 Z" stroke-width="0" stroke="none" stroke-linejoin="round" fill="silver" fill-opacity="1"/>
<path d="M839.375 216.875 L863.125 216.875 M863.125 263.125 L839.375 263.125" stroke-width="0.5" stroke="black" stroke-linejoin="round" fill="silver" fill-opacity="1"/>
<!-- !left !both--><path d="M839.375 216.875 L839.375 263.125" stroke-width="0.5" stroke="black" stroke-linejoin="round" fill="silver" fill-opacity="1"/>
<!-- !right !both --><path d="M863.125 216.875 L863.125 263.125" stroke-width="0.5" stroke="black" stroke-linejoin="round" fill="silver" fill-opacity="1"/>
<line x1="660.625" y1="209.375" x2="675.625" y2="209.375" stroke-width="3" stroke="silver" fill="silver" stroke-linecap="round" />
<line x1="675.625" y1="209.375" x2="695.625" y2="218.125" stroke-width="3" stroke="silver" fill="silver" stroke-linecap="round" />
<line x1="695.625" y1="218.125" x2="715.625" y2="209.375" stroke-width="3" stroke="silver" fill="silver" stroke-linecap="round" />
<line x1="715.625" y1="209.375" x2="855.625" y2="209.375" stroke-width="3" stroke="silver" fill="silver" stroke-linecap="round" />
<path d="M855.625 209.375 Q875.625 214.375 855.625 219.375" stroke-width="3" stroke="silver" fill="none" stroke-linecap="round" />


<!-- renderSideComponent: tail -->


<!-- renderPart: cone -->
<path d="M863.075 220 L871.925 220.625 L871.925 259.375 L863.075 260 Z" stroke-width="0" stroke="none" stroke-linejoin="round" fill="#000000" fill-opacity="1"/>
<path d="M863.125 220 L871.875 220.625 M871.875 259.375 L863.125 260" stroke-width="0.5" stroke="black" stroke-linejoin="round" fill="#000000" fill-opacity="1"/>
<!-- !left !both--><path d="M863.125 220 L863.125 260" stroke-width="0.5" stroke="black" stroke-linejoin="round" fill="#000000" fill-opacity="1"/>
<!-- !right !both --><path d="M871.875 220.625 L871.875 259.375" stroke-width="0.5" stroke="black" stroke-linejoin="round" fill="#000000" fill-opacity="1"/>


<!-- renderPart: cylinder -->
<path d="M871.825 220.625 L880.675 220.625 L880.675 259.375 L871.825 259.375 Z" stroke-width="0" stroke="none" stroke-linejoin="round" fill="#000000" fill-opacity="1"/>
<path d="M871.875 220.625 L880.625 220.625 M880.625 259.375 L871.875 259.375" stroke-width="0.5" stroke="black" stroke-linejoin="round" fill="#000000" fill-opacity="1"/>
<!-- !left !both--><path d="M871.875 220.625 L871.875 259.375" stroke-width="0.5" stroke="black" stroke-linejoin="round" fill="#000000" fill-opacity="1"/>
<!-- !right !both --><path d="M880.625 220.625 L880.625 259.375" stroke-width="0.5" stroke="black" stroke-linejoin="round" fill="#000000" fill-opacity="1"/>


<!-- renderPart: cylinder -->
<path d="M846.825 345 L880.675 345 L880.675 375 L846.825 375 Z" stroke-width="0" stroke="none" stroke-linejoin="round" fill="#000000" fill-opacity="1"/>
<path d="M846.875 345 L880.625 345 M880.625 375 L846.875 375" stroke-width="0.5" stroke="black" stroke-linejoin="round" fill="#000000" fill-opacity="1"/>
<!-- !left !both--><path d="M846.875 345 L846.875 375" stroke-width="0.5" stroke="black" stroke-linejoin="round" fill="#000000" fill-opacity="1"/>
<!-- !right !both --><path d="M880.625 345 L880.625 375" stroke-width="0.5" stroke="black" stroke-linejoin="round" fill="#000000" fill-opacity="1"/>


<!-- renderSideComponent: cap -->


<!-- renderPart: cylinder -->
<path d="M880.575 345 L901.925 345 L901.925 375 L880.575 375 Z" stroke-width="0" stroke="none" stroke-linejoin="round" fill="#000000" fill-opacity="1"/>
<path d="M880.625 345 L901.875 345 M901.875 375 L880.625 375" stroke-width="0.5" stroke="black" stroke-linejoin="round" fill="#000000" fill-opacity="1"/>
<!-- !left !both--><path d="M880.625 345 L880.625 375" stroke-width="0.5" stroke="black" stroke-linejoin="round" fill="#000000" fill-opacity="1"/>
<!-- !right !both --><path d="M901.875 345 L901.875 375" stroke-width="0.5" stroke="black" stroke-linejoin="round" fill="#000000" fill-opacity="1"/>


<!-- renderPart: octagonal -->
<path d="M901.825 340 L948.175 340 L948.175 380 L901.825 380 Z" stroke-width="0" stroke="none" stroke-linejoin="round" fill="#000000" fill-opacity="1"/>
<path d="M901.875 340 L948.125 340 M948.125 380 L901.875 380" stroke-width="0.5" stroke="black" stroke-linejoin="round" fill="#000000" fill-opacity="1"/>
<!-- !left !both--><path d="M901.875 340 L901.875 380" stroke-width="0.5" stroke="black" stroke-linejoin="round" fill="#000000" fill-opacity="1"/>
<!-- !right !both --><path d="M948.125 340 L948.125 380" stroke-width="0.5" stroke="black" stroke-linejoin="round" fill="#000000" fill-opacity="1"/>
<line x1="901.875" y1="348.57142857142856" x2="948.125" y2="348.57142857142856" stroke-width="1.5" stroke="gray" fill="gray" stroke-opacity="1.0"/>
<line x1="901.875" y1="348.57142857142856" x2="948.125" y2="348.57142857142856" stroke-width="0.5" stroke="black" fill="none" stroke-opacity="0.5"/>
<line x1="901.875" y1="371.42857142857144" x2="948.125" y2="371.42857142857144" stroke-width="1.5" stroke="gray" fill="gray" stroke-opacity="1.0"/>
<line x1="901.875" y1="371.42857142857144" x2="948.125" y2="371.42857142857144" stroke-width="0.5" stroke="black" fill="none" stroke-opacity="0.5"/>


<!-- renderPart: cylinder -->
<path d="M948.075 338.75 L954.425 338.75 L954.425 381.25 L948.075 381.25 Z" stroke-width="0" stroke="none" stroke-linejoin="round" fill="#000000" fill-opacity="1"/>
<path d="M948.125 338.75 L954.375 338.75 M954.375 381.25 L948.125 381.25" stroke-width="0.5" stroke="black" stroke-linejoin="round" fill="#000000" fill-opacity="1"/>
<!-- !left !both--><path d="M948.125 338.75 L948.125 381.25" stroke-width="0.5" stroke="black" stroke-linejoin="round" fill="#000000" fill-opacity="1"/>
<!-- !right !both --><path d="M954.375 338.75 L954.375 381.25" stroke-width="0.5" stroke="black" stroke-linejoin="round" fill="#000000" fill-opacity="1"/>


<!-- renderPart: convex -->
<path d="M954.375 338.75 Q961.875 360 954.375 381.25" stroke-width="0.5" stroke="black" stroke-linejoin="round" fill="#000000" fill-opacity="1"/>


<!-- DASHED JOIN -->
<path d="M 340.625 120 L 380.625 120 L 380.625 180 L 280.625 180 L 280.625 240 L 340.625 240 " fill="none" stroke="white" stroke-width="1" stroke-linecap="round"  />
<path d="M 340.625 120 L 380.625 120 L 380.625 180 L 280.625 180 L 280.625 240 L 340.625 240 " fill="none" stroke="black" stroke-width="1" stroke-dasharray="8,4" stroke-linecap="round"  />


<!-- ARROW START -->
<line x1="345.625" y1="120" x2="352.625" y2="120" stroke-linecap="round" stroke="#ffffff" stroke-width="2.0" />
<line x1="345.625" y1="120" x2="359.625" y2="112" stroke-linecap="round" stroke="#ffffff" stroke-width="2.0" />
<line x1="359.625" y1="112" x2="352.625" y2="120" stroke-linecap="round" stroke="#ffffff" stroke-width="2.0" />
<line x1="345.625" y1="120" x2="359.625" y2="128" stroke-linecap="round" stroke="#ffffff" stroke-width="2.0" />
<line x1="359.625" y1="128" x2="352.625" y2="120" stroke-linecap="round" stroke="#ffffff" stroke-width="2.0" />
<line x1="345.625" y1="120" x2="359.625" y2="112" stroke-linecap="round" stroke="#0f0f0f" stroke-width="1.0" />
<line x1="359.625" y1="112" x2="352.625" y2="120" stroke-linecap="round" stroke="#0f0f0f" stroke-width="1.0" />
<line x1="345.625" y1="120" x2="359.625" y2="128" stroke-linecap="round" stroke="#0f0f0f" stroke-width="1.0" />
<line x1="359.625" y1="128" x2="352.625" y2="120" stroke-linecap="round" stroke="#0f0f0f" stroke-width="1.0" />


<!-- ARROW START -->
<line x1="300.625" y1="240" x2="307.625" y2="240" stroke-linecap="round" stroke="#ffffff" stroke-width="2.0" />
<line x1="300.625" y1="240" x2="314.625" y2="232" stroke-linecap="round" stroke="#ffffff" stroke-width="2.0" />
<line x1="314.625" y1="232" x2="307.625" y2="240" stroke-linecap="round" stroke="#ffffff" stroke-width="2.0" />
<line x1="300.625" y1="240" x2="314.625" y2="248" stroke-linecap="round" stroke="#ffffff" stroke-width="2.0" />
<line x1="314.625" y1="248" x2="307.625" y2="240" stroke-linecap="round" stroke="#ffffff" stroke-width="2.0" />
<line x1="300.625" y1="240" x2="314.625" y2="232" stroke-linecap="round" stroke="#0f0f0f" stroke-width="1.0" />
<line x1="314.625" y1="232" x2="307.625" y2="240" stroke-linecap="round" stroke="#0f0f0f" stroke-width="1.0" />
<line x1="300.625" y1="240" x2="314.625" y2="248" stroke-linecap="round" stroke="#0f0f0f" stroke-width="1.0" />
<line x1="314.625" y1="248" x2="307.625" y2="240" stroke-linecap="round" stroke="#0f0f0f" stroke-width="1.0" />
<line x1="340.625" y1="200" x2="340.625" y2="280" stroke="white" stroke-linecap="round"  stroke-width="1" />
<line x1="340.625" y1="200" x2="340.625" y2="280" stroke="dimgray" stroke-linecap="round" stroke-dasharray="3,3" stroke-width="1" />


<!-- DASHED JOIN -->
<path d="M 880.625 240 L 920.625 240 L 920.625 300 L 806.875 300 L 806.875 360 L 880.625 360 " fill="none" stroke="white" stroke-width="1" stroke-linecap="round"  />
<path d="M 880.625 240 L 920.625 240 L 920.625 300 L 806.875 300 L 806.875 360 L 880.625 360 " fill="none" stroke="black" stroke-width="1" stroke-dasharray="8,4" stroke-linecap="round"  />


<!-- ARROW START -->
<line x1="885.625" y1="240" x2="892.625" y2="240" stroke-linecap="round" stroke="#ffffff" stroke-width="2.0" />
<line x1="885.625" y1="240" x2="899.625" y2="232" stroke-linecap="round" stroke="#ffffff" stroke-width="2.0" />
<line x1="899.625" y1="232" x2="892.625" y2="240" stroke-linecap="round" stroke="#ffffff" stroke-width="2.0" />
<line x1="885.625" y1="240" x2="899.625" y2="248" stroke-linecap="round" stroke="#ffffff" stroke-width="2.0" />
<line x1="899.625" y1="248" x2="892.625" y2="240" stroke-linecap="round" stroke="#ffffff" stroke-width="2.0" />
<line x1="885.625" y1="240" x2="899.625" y2="232" stroke-linecap="round" stroke="#0f0f0f" stroke-width="1.0" />
<line x1="899.625" y1="232" x2="892.625" y2="240" stroke-linecap="round" stroke="#0f0f0f" stroke-width="1.0" />
<line x1="885.625" y1="240" x2="899.625" y2="248" stroke-linecap="round" stroke="#0f0f0f" stroke-width="1.0" />
<line x1="899.625" y1="248" x2="892.625" y2="240" stroke-linecap="round" stroke="#0f0f0f" stroke-width="1.0" />


<!-- ARROW START -->
<line x1="826.875" y1="360" x2="833.875" y2="360" stroke-linecap="round" stroke="#ffffff" stroke-width="2.0" />
<line x1="826.875" y1="360" x2="840.875" y2="352" stroke-linecap="round" stroke="#ffffff" stroke-width="2.0" />
<line x1="840.875" y1="352" x2="833.875" y2="360" stroke-linecap="round" stroke="#ffffff" stroke-width="2.0" />
<line x1="826.875" y1="360" x2="840.875" y2="368" stroke-linecap="round" stroke="#ffffff" stroke-width="2.0" />
<line x1="840.875" y1="368" x2="833.875" y2="360" stroke-linecap="round" stroke="#ffffff" stroke-width="2.0" />
<line x1="826.875" y1="360" x2="840.875" y2="352" stroke-linecap="round" stroke="#0f0f0f" stroke-width="1.0" />
<line x1="840.875" y1="352" x2="833.875" y2="360" stroke-linecap="round" stroke="#0f0f0f" stroke-width="1.0" />
<line x1="826.875" y1="360" x2="840.875" y2="368" stroke-linecap="round" stroke="#0f0f0f" stroke-width="1.0" />
<line x1="840.875" y1="368" x2="833.875" y2="360" stroke-linecap="round" stroke="#0f0f0f" stroke-width="1.0" />
<line x1="880.625" y1="320" x2="880.625" y2="400" stroke="white" stroke-linecap="round"  stroke-width="1" />
<line x1="880.625" y1="320" x2="880.625" y2="400" stroke="dimgray" stroke-linecap="round" stroke-dasharray="3,3" stroke-width="1" />
</g><text x="50%" y="440" font-size="1.1em" font-weight="bold" text-anchor="middle" dominant-baseline="middle">Copyright (c) // Synapticloop // The Mechanical Pencil Database (tmpdb)</text>
<text x="50%" y="460" font-size="1.1em" font-weight="bold" text-anchor="middle" dominant-baseline="middle">Licensed under Creative Commons Attribution-NonCommercial-ShareAlike 4.0 International</text>
<text x="1190" y="470" font-size="0.5em" font-weight="bold" text-anchor="end" dominant-baseline="middle">SVGTechnicalExplodedRenderer</text>
</svg>