<svg xmlns="http://www.w3.org/2000/svg" width="1500" height="600">
 <pattern id="knurled-large" patternUnits="userSpaceOnUse" width="12" height="12">
<path stroke="dimgray" stroke-linecap="round" stroke-width="1" d="M 6,6 L 12,12"/>
<path stroke="dimgray" stroke-linecap="round" stroke-width="1" d="M 6,6 L 0,12"/>
<path stroke="gray" stroke-linecap="round" stroke-width="1" d="M 6,6 L 12,0" />
<path stroke="gray" stroke-linecap="round" stroke-width="1" d="M 6,6 L 0,0" />
</pattern><pattern id="knurled-small" patternUnits="userSpaceOnUse" width="4" height="4">
<path stroke="dimgray" stroke-linecap="round" stroke-width="1" d="M 2,2 L 4,4"/>
<path stroke="dimgray" stroke-linecap="round" stroke-width="1" d="M 2,2 L 0,4"/>
<path stroke="gray" stroke-linecap="round" stroke-width="1" d="M 2,2 L 4,0" />
<path stroke="gray" stroke-linecap="round" stroke-width="1" d="M 2,2 L 0,0" />
</pattern><pattern id="knurled" patternUnits="userSpaceOnUse" width="8" height="8">
<path stroke="dimgray" stroke-linecap="round" stroke-width="1" d="M 4,4 L 8,8"/>
<path stroke="dimgray" stroke-linecap="round" stroke-width="1" d="M 4,4 L 0,8"/>
<path stroke="gray" stroke-linecap="round" stroke-width="1" d="M 4,4 L 8,0" />
<path stroke="gray" stroke-linecap="round" stroke-width="1" d="M 4,4 L 0,0" />
</pattern><pattern id="lined" patternUnits="userSpaceOnUse" width="3" height="3">
<path stroke="dimgray" stroke-linecap="round" stroke-width="1" d="M 0,0 L 3,0"/>
</pattern><pattern id="ridged" patternUnits="userSpaceOnUse" width="3" height="3">
<path stroke="dimgray" stroke-linecap="round" stroke-width="1" d="M 0,0 L 0,3"/>
</pattern><pattern id="spring" patternUnits="userSpaceOnUse" width="8" height="60">
<path stroke="dimgray" stroke-linecap="round" stroke-width="2" d="M 1,1 L 8,60"/>
<path stroke="white" stroke-linecap="round" stroke-width="1" d="M 1,1 L 8,60"/>
</pattern><rect x="0" y="0" width="1500" height="600" fill="white" stroke="black" stroke-width="4" />
<rect x="2" y="2" width="1496" height="596" fill="white" stroke="dimgray" stroke-width="1" />
<g transform="rotate(0 0 0)">
<line x1="40" y1="300" x2="1460" y2="300" stroke-linecap="round" stroke="#5f5f5f" stroke-dasharray="2" stroke-width="1" />
<line x1="20" y1="300" x2="60" y2="300" stroke-linecap="round" stroke="#000000"  stroke-width="1" />
<line x1="40" y1="280" x2="40" y2="320" stroke="#000000" stroke-linecap="round"  stroke-width="1" />
<circle r="10" cx="40" cy="300" fill="white" fill-opacity="0" stroke="#000000" stroke-width="1"  />
<line x1="1440" y1="300" x2="1480" y2="300" stroke-linecap="round" stroke="#000000"  stroke-width="1" />
<line x1="1460" y1="280" x2="1460" y2="320" stroke="#000000" stroke-linecap="round"  stroke-width="1" />
<circle r="10" cx="1460" cy="300" fill="white" fill-opacity="0" stroke="#000000" stroke-width="1"  />
<line x1="750" y1="90" x2="750" y2="510" stroke="#5f5f5f" stroke-linecap="round" stroke-dasharray="2" stroke-width="1" />
<line x1="730" y1="90" x2="770" y2="90" stroke-linecap="round" stroke="#000000"  stroke-width="1" />
<line x1="750" y1="70" x2="750" y2="110" stroke="#000000" stroke-linecap="round"  stroke-width="1" />
<circle r="10" cx="750" cy="90" fill="white" fill-opacity="0" stroke="#000000" stroke-width="1"  />
<line x1="730" y1="510" x2="770" y2="510" stroke-linecap="round" stroke="#000000"  stroke-width="1" />
<line x1="750" y1="490" x2="750" y2="530" stroke="#000000" stroke-linecap="round"  stroke-width="1" />
<circle r="10" cx="750" cy="510" fill="white" fill-opacity="0" stroke="#000000" stroke-width="1"  />
<line x1="160" y1="150" x2="160" y2="510" stroke="#5f5f5f" stroke-linecap="round" stroke-dasharray="2" stroke-width="1" />
<line x1="140" y1="150" x2="180" y2="150" stroke-linecap="round" stroke="#000000"  stroke-width="1" />
<line x1="160" y1="130" x2="160" y2="170" stroke="#000000" stroke-linecap="round"  stroke-width="1" />
<circle r="10" cx="160" cy="150" fill="white" fill-opacity="0" stroke="#000000" stroke-width="1"  />
<line x1="140" y1="510" x2="180" y2="510" stroke-linecap="round" stroke="#000000"  stroke-width="1" />
<line x1="160" y1="490" x2="160" y2="530" stroke="#000000" stroke-linecap="round"  stroke-width="1" />
<circle r="10" cx="160" cy="510" fill="white" fill-opacity="0" stroke="#000000" stroke-width="1"  />
<line x1="1400" y1="150" x2="1400" y2="510" stroke="#5f5f5f" stroke-linecap="round" stroke-dasharray="2" stroke-width="1" />
<line x1="1380" y1="150" x2="1420" y2="150" stroke-linecap="round" stroke="#000000"  stroke-width="1" />
<line x1="1400" y1="130" x2="1400" y2="170" stroke="#000000" stroke-linecap="round"  stroke-width="1" />
<circle r="10" cx="1400" cy="150" fill="white" fill-opacity="0" stroke="#000000" stroke-width="1"  />
<line x1="1380" y1="510" x2="1420" y2="510" stroke-linecap="round" stroke="#000000"  stroke-width="1" />
<line x1="1400" y1="490" x2="1400" y2="530" stroke="#000000" stroke-linecap="round"  stroke-width="1" />
<circle r="10" cx="1400" cy="510" fill="white" fill-opacity="0" stroke="#000000" stroke-width="1"  />
<text x="30" y="50" font-size="2.0em" font-weight="bold"> Mr. Pen // 2.0 (Model #: 2.0)</text>
<text x="30" y="80" font-size="1.1em"> [LOGO] Mr. Pen (R) 2.0</text>
<text x="30" y="100" font-size="1.1em"> Lead size: 2 mm</text>
<text x="1480" y="30" font-size="1.6em" font-weight="bold" text-anchor="end" dominant-baseline="central">Colour variants of the body</text>
<rect x="1440" y="55" width="40" rx="50%" ry="50%" height="40" stroke="black" stroke-width="2" fill="#b4b8b9" fill-opacity="1"/>
<text x="1460" y="100" transform="rotate(-90, 1460, 100)" font-size="1.2em" font-weight="bold" text-anchor="end" dominant-baseline="central">silver</text>
<text x="30" y="136" font-size="1.2em" font-weight="bold" text-anchor="start" dominant-baseline="central">Materials:</text>
<text x="50" y="156" font-size="1.2em" text-anchor="start" dominant-baseline="central"> - metal</text>
<text x="50" y="176" font-size="1.2em" text-anchor="start" dominant-baseline="central"> - plastic</text>
<text x="50" y="196" font-size="1.2em" text-anchor="start" dominant-baseline="central"> - rubber</text>
<line x1="100" y1="278.75" x2="1400" y2="278.75" stroke-linecap="round" stroke="#cfcfcf"  stroke-width="1" />
<line x1="100" y1="321.25" x2="1400" y2="321.25" stroke-linecap="round" stroke="#cfcfcf"  stroke-width="1" />
<line x1="138.75" y1="300" x2="138.75" y2="341.25" stroke="#cfcfcf" stroke-linecap="round"  stroke-width="1" />
<line x1="181.25" y1="300" x2="181.25" y2="341.25" stroke="#cfcfcf" stroke-linecap="round"  stroke-width="1" />
<line x1="365.625" y1="180" x2="365.625" y2="420" stroke="#cfcfcf" stroke-linecap="round"  stroke-width="1" />
<line x1="468.125" y1="180" x2="468.125" y2="420" stroke="#cfcfcf" stroke-linecap="round"  stroke-width="1" />
<line x1="468.125" y1="180" x2="468.125" y2="420" stroke="#cfcfcf" stroke-linecap="round"  stroke-width="1" />
<line x1="468.125" y1="180" x2="468.125" y2="420" stroke="#cfcfcf" stroke-linecap="round"  stroke-width="1" />
<line x1="468.125" y1="180" x2="468.125" y2="420" stroke="#cfcfcf" stroke-linecap="round"  stroke-width="1" />
<line x1="623.125" y1="180" x2="623.125" y2="420" stroke="#cfcfcf" stroke-linecap="round"  stroke-width="1" />
<line x1="954.375" y1="180" x2="954.375" y2="420" stroke="#cfcfcf" stroke-linecap="round"  stroke-width="1" />
<line x1="954.375" y1="180" x2="954.375" y2="420" stroke="#cfcfcf" stroke-linecap="round"  stroke-width="1" />
<line x1="1056.875" y1="180" x2="1056.875" y2="420" stroke="#cfcfcf" stroke-linecap="round"  stroke-width="1" />
<line x1="1134.375" y1="190.75" x2="1134.375" y2="398.75" stroke="#cfcfcf" stroke-linecap="round"  stroke-width="1" />
<text x="160" y="540" font-size="1.8em" font-weight="bold" text-anchor="middle" dominant-baseline="central">Front</text>
<text x="750" y="540" font-size="1.8em" font-weight="bold" text-anchor="middle" dominant-baseline="central">Side view</text>
<text x="1400" y="540" font-size="1.8em" font-weight="bold" text-anchor="middle" dominant-baseline="central">Back</text>
<line x1="99" y1="278.75" x2="121" y2="278.75" stroke="black" stroke-width="1" />
<line x1="110" y1="278.75" x2="110" y2="321.25" stroke="black" stroke-width="1" />
<line x1="99" y1="321.25" x2="121" y2="321.25" stroke="black" stroke-width="1" />
<text x="91" y="300" transform="rotate(-90, 91, 300)" font-size="1.2em" font-weight="bold" text-anchor="middle" dominant-baseline="central" fill="black">8.50 mm</text>
<line x1="138.75" y1="340.25" x2="138.75" y2="362.25" stroke="black" stroke-width="1" />
<line x1="138.75" y1="351.25" x2="181.25" y2="351.25" stroke="black" stroke-width="1" />
<line x1="181.25" y1="340.25" x2="181.25" y2="362.25" stroke="black" stroke-width="1" />
<text x="160" y="370.25" font-size="1.2em" font-weight="bold" text-anchor="middle" dominant-baseline="central" fill="black"><tspan x="160" dy="0">8.50 mm</tspan></text>
<line x1="365.625" y1="169" x2="365.625" y2="191" stroke="black" stroke-width="1" />
<line x1="365.625" y1="180" x2="468.125" y2="180" stroke="black" stroke-width="1" />
<line x1="468.125" y1="169" x2="468.125" y2="191" stroke="black" stroke-width="1" />
<text x="416.875" y="161" font-size="1.2em" transform="rotate(-90, 404.875, 161)" font-weight="bold" text-anchor="start" dominant-baseline="central" fill="black"><tspan x="408.875" dy="0">20.50 mm</tspan><tspan x="408.875" dy="1em">tip</tspan></text>
<line x1="468.125" y1="169" x2="468.125" y2="191" stroke="black" stroke-width="1" />
<line x1="468.125" y1="180" x2="623.125" y2="180" stroke="black" stroke-width="1" />
<line x1="623.125" y1="169" x2="623.125" y2="191" stroke="black" stroke-width="1" />
<text x="545.625" y="161" font-size="1.2em" transform="rotate(-90, 533.625, 161)" font-weight="bold" text-anchor="start" dominant-baseline="central" fill="black"><tspan x="537.625" dy="0">31.00 mm</tspan><tspan x="537.625" dy="1em">grip</tspan></text>
<line x1="623.125" y1="169" x2="623.125" y2="191" stroke="black" stroke-width="1" />
<line x1="623.125" y1="180" x2="954.375" y2="180" stroke="black" stroke-width="1" />
<line x1="954.375" y1="169" x2="954.375" y2="191" stroke="black" stroke-width="1" />
<text x="788.75" y="161" font-size="1.2em" transform="rotate(-90, 776.75, 161)" font-weight="bold" text-anchor="start" dominant-baseline="central" fill="black"><tspan x="780.75" dy="0">66.25 mm</tspan><tspan x="780.75" dy="1em">body</tspan></text>
<line x1="954.375" y1="169" x2="954.375" y2="191" stroke="black" stroke-width="1" />
<line x1="954.375" y1="180" x2="954.375" y2="180" stroke="black" stroke-width="1" />
<line x1="954.375" y1="169" x2="954.375" y2="191" stroke="black" stroke-width="1" />
<text x="954.375" y="161" font-size="1.2em" transform="rotate(-90, 954.375, 161)" font-weight="bold" text-anchor="start" dominant-baseline="central" fill="black"><tspan x="954.375" dy="0">0.00 mm clip</tspan></text>
<line x1="954.375" y1="169" x2="954.375" y2="191" stroke="black" stroke-width="1" />
<line x1="954.375" y1="180" x2="1056.875" y2="180" stroke="black" stroke-width="1" />
<line x1="1056.875" y1="169" x2="1056.875" y2="191" stroke="black" stroke-width="1" />
<text x="1005.625" y="161" font-size="1.2em" transform="rotate(-90, 993.625, 161)" font-weight="bold" text-anchor="start" dominant-baseline="central" fill="black"><tspan x="997.625" dy="0">20.50 mm</tspan><tspan x="997.625" dy="1em">tail</tspan></text>
<line x1="1056.875" y1="169" x2="1056.875" y2="191" stroke="black" stroke-width="1" />
<line x1="1056.875" y1="180" x2="1134.375" y2="180" stroke="black" stroke-width="1" />
<line x1="1134.375" y1="169" x2="1134.375" y2="191" stroke="black" stroke-width="1" />
<text x="1095.625" y="161" font-size="1.2em" transform="rotate(-90, 1083.625, 161)" font-weight="bold" text-anchor="start" dominant-baseline="central" fill="black"><tspan x="1087.625" dy="0">15.50 mm</tspan><tspan x="1087.625" dy="1em">cap</tspan></text>
<line x1="1299" y1="278.75" x2="1321" y2="278.75" stroke="black" stroke-width="1" />
<line x1="1310" y1="278.75" x2="1310" y2="321.25" stroke="black" stroke-width="1" />
<line x1="1299" y1="321.25" x2="1321" y2="321.25" stroke="black" stroke-width="1" />
<text x="1291" y="300" transform="rotate(-90, 1291, 300)" font-size="1.2em" font-weight="bold" text-anchor="middle" dominant-baseline="central" fill="black">8.5 mm</text>
<line x1="1299" y1="278.75" x2="1321" y2="278.75" stroke="black" stroke-width="1" />
<line x1="1310" y1="278.75" x2="1310" y2="321.25" stroke="black" stroke-width="1" />
<line x1="1299" y1="321.25" x2="1321" y2="321.25" stroke="black" stroke-width="1" />
<text x="1310" y="329.25" transform="rotate(-90, 1310, 329.25)" font-weight="bold" font-size="1.2em" text-anchor="end" dominant-baseline="middle" fill="black">grip</text>
<line x1="1339" y1="279.375" x2="1361" y2="279.375" stroke="black" stroke-width="1" />
<line x1="1350" y1="279.375" x2="1350" y2="320.625" stroke="black" stroke-width="1" />
<line x1="1339" y1="320.625" x2="1361" y2="320.625" stroke="black" stroke-width="1" />
<text x="1331" y="300" transform="rotate(-90, 1331, 300)" font-size="1.2em" font-weight="bold" text-anchor="middle" dominant-baseline="central" fill="black">8.25 mm</text>
<line x1="1339" y1="279.375" x2="1361" y2="279.375" stroke="black" stroke-width="1" />
<line x1="1350" y1="279.375" x2="1350" y2="320.625" stroke="black" stroke-width="1" />
<line x1="1339" y1="320.625" x2="1361" y2="320.625" stroke="black" stroke-width="1" />
<text x="1350" y="328.625" transform="rotate(-90, 1350, 328.625)" font-weight="bold" font-size="1.2em" text-anchor="end" dominant-baseline="middle" fill="black">body</text>
<line x1="365.625" y1="340.25" x2="365.625" y2="362.25" stroke="black" stroke-width="1" />
<line x1="365.625" y1="351.25" x2="1134.375" y2="351.25" stroke="black" stroke-width="1" />
<line x1="1134.375" y1="340.25" x2="1134.375" y2="362.25" stroke="black" stroke-width="1" />
<text x="750" y="351.25" font-weight="bold" font-size="1.2em" stroke="white" stroke-width="0.25" text-anchor="middle" dominant-baseline="middle" fill="black"><tspan x="750" dy="0">153.75 mm</tspan></text>
<line x1="365.625" y1="409" x2="365.625" y2="431" stroke="black" stroke-width="1" />
<line x1="365.625" y1="420" x2="468.125" y2="420" stroke="black" stroke-width="1" />
<line x1="468.125" y1="409" x2="468.125" y2="431" stroke="black" stroke-width="1" />
<text x="416.875" y="439" font-size="1.2em" transform="rotate(-90, 416.875, 439)"  text-anchor="end" dominant-baseline="middle" fill="black"><tspan x="416.875" dy="0">metal</tspan></text>
<line x1="468.125" y1="409" x2="468.125" y2="431" stroke="black" stroke-width="1" />
<line x1="468.125" y1="420" x2="623.125" y2="420" stroke="black" stroke-width="1" />
<line x1="623.125" y1="409" x2="623.125" y2="431" stroke="black" stroke-width="1" />
<text x="545.625" y="439" font-size="1.2em" transform="rotate(-90, 545.625, 439)"  text-anchor="end" dominant-baseline="middle" fill="black"><tspan x="545.625" dy="0">metal</tspan></text>
<line x1="623.125" y1="409" x2="623.125" y2="431" stroke="black" stroke-width="1" />
<line x1="623.125" y1="420" x2="954.375" y2="420" stroke="black" stroke-width="1" />
<line x1="954.375" y1="409" x2="954.375" y2="431" stroke="black" stroke-width="1" />
<text x="788.75" y="439" font-size="1.2em" transform="rotate(-90, 788.75, 439)"  text-anchor="end" dominant-baseline="middle" fill="black"><tspan x="788.75" dy="0">metal</tspan></text>
<line x1="954.375" y1="409" x2="954.375" y2="431" stroke="black" stroke-width="1" />
<line x1="954.375" y1="420" x2="954.375" y2="420" stroke="black" stroke-width="1" />
<line x1="954.375" y1="409" x2="954.375" y2="431" stroke="black" stroke-width="1" />
<text x="954.375" y="439" font-size="1.2em" transform="rotate(-90, 954.375, 439)"  text-anchor="end" dominant-baseline="middle" fill="black"><tspan x="954.375" dy="0">metal</tspan></text>
<line x1="954.375" y1="409" x2="954.375" y2="431" stroke="black" stroke-width="1" />
<line x1="954.375" y1="420" x2="1056.875" y2="420" stroke="black" stroke-width="1" />
<line x1="1056.875" y1="409" x2="1056.875" y2="431" stroke="black" stroke-width="1" />
<text x="1005.625" y="439" font-size="1.2em" transform="rotate(-90, 1005.625, 439)"  text-anchor="end" dominant-baseline="middle" fill="black"><tspan x="1005.625" dy="0">metal</tspan></text>
<line x1="1056.875" y1="409" x2="1056.875" y2="431" stroke="black" stroke-width="1" />
<line x1="1056.875" y1="420" x2="1134.375" y2="420" stroke="black" stroke-width="1" />
<line x1="1134.375" y1="409" x2="1134.375" y2="431" stroke="black" stroke-width="1" />
<text x="1095.625" y="439" font-size="1.2em" transform="rotate(-90, 1095.625, 439)"  text-anchor="end" dominant-baseline="middle" fill="black"><tspan x="1095.625" dy="0">metal</tspan></text>


<!-- renderSideComponent: tip -->


<!-- renderPart: cone -->
<path d="M365.575 291.25 L440.675 281.875 L440.675 318.125 L365.575 308.75 Z" stroke-width="0" stroke="none" stroke-linejoin="round" fill="#b4b8b9" fill-opacity="1"/>
<path d="M365.625 291.25 L440.625 281.875 M440.625 318.125 L365.625 308.75" stroke-width="0.5" stroke="black" stroke-linejoin="round" fill="#b4b8b9" fill-opacity="1"/>
<!-- !right !both --><path d="M440.625 281.875 L440.625 318.125" stroke-width="0.5" stroke="black" stroke-linejoin="round" fill="#b4b8b9" fill-opacity="1"/>
<!-- !left !both --><path d="M365.625 291.25 L365.625 308.75" stroke-width="0.5" stroke="black" stroke-linejoin="round" fill="#b4b8b9" fill-opacity="1"/>


<!-- renderPart: cone -->
<path d="M440.575 280.625 L468.175 279.375 L468.175 320.625 L440.575 319.375 Z" stroke-width="0" stroke="none" stroke-linejoin="round" fill="#b4b8b9" fill-opacity="1"/>
<path d="M440.625 280.625 L468.125 279.375 M468.125 320.625 L440.625 319.375" stroke-width="0.5" stroke="black" stroke-linejoin="round" fill="#b4b8b9" fill-opacity="1"/>
<!-- !right !both --><path d="M468.125 279.375 L468.125 320.625" stroke-width="0.5" stroke="black" stroke-linejoin="round" fill="#b4b8b9" fill-opacity="1"/>
<!-- !left !both --><path d="M440.625 280.625 L440.625 319.375" stroke-width="0.5" stroke="black" stroke-linejoin="round" fill="#b4b8b9" fill-opacity="1"/>


<!-- renderSideComponent: shaft -->


<!-- renderSideComponent: shaft cap -->


<!-- renderSideComponent: shaft eraser -->


<!-- renderSideComponent: grip -->


<!-- renderPart: cylinder -->
<path d="M468.075 278.75 L623.175 278.75 L623.175 321.25 L468.075 321.25 Z" stroke-width="0" stroke="none" stroke-linejoin="round" fill="#b4b8b9" fill-opacity="1"/>
<path d="M468.125 278.75 L623.125 278.75 M623.125 321.25 L468.125 321.25" stroke-width="0.5" stroke="black" stroke-linejoin="round" fill="#b4b8b9" fill-opacity="1"/>
<!-- !right !both --><path d="M623.125 278.75 L623.125 321.25" stroke-width="0.5" stroke="black" stroke-linejoin="round" fill="#b4b8b9" fill-opacity="1"/>
<!-- !left !both --><path d="M468.125 278.75 L468.125 321.25" stroke-width="0.5" stroke="black" stroke-linejoin="round" fill="#b4b8b9" fill-opacity="1"/>
<path d="M468.125 278.75 L623.125 278.75 L623.125 321.25 L468.125 321.25 Z" stroke-width="1.0" stroke="black" fill="url(#knurled)"/>


<!-- renderSideComponent: body -->


<!-- renderPart: cylinder -->
<path d="M623.075 279.375 L954.425 279.375 L954.425 320.625 L623.075 320.625 Z" stroke-width="0" stroke="none" stroke-linejoin="round" fill="#b4b8b9" fill-opacity="1"/>
<path d="M623.125 279.375 L954.375 279.375 M954.375 320.625 L623.125 320.625" stroke-width="0.5" stroke="black" stroke-linejoin="round" fill="#b4b8b9" fill-opacity="1"/>
<!-- !left !both --><path d="M623.125 279.375 L623.125 320.625" stroke-width="0.5" stroke="black" stroke-linejoin="round" fill="#b4b8b9" fill-opacity="1"/>


<!-- renderSideComponent: clip -->


<!-- renderSideComponent: tail -->


<!-- renderPart: cylinder -->
<path d="M954.325 279.375 L1040.675 279.375 L1040.675 320.625 L954.325 320.625 Z" stroke-width="0" stroke="none" stroke-linejoin="round" fill="#b4b8b9" fill-opacity="1"/>
<path d="M954.375 279.375 L1040.625 279.375 M1040.625 320.625 L954.375 320.625" stroke-width="0.5" stroke="black" stroke-linejoin="round" fill="#b4b8b9" fill-opacity="1"/>
<!-- !right !both --><path d="M1040.625 279.375 L1040.625 320.625" stroke-width="0.5" stroke="black" stroke-linejoin="round" fill="#b4b8b9" fill-opacity="1"/>


<!-- renderPart: cylinder -->
<path d="M1040.575 280 L1056.925 280 L1056.925 320 L1040.575 320 Z" stroke-width="0" stroke="none" stroke-linejoin="round" fill="#b4b8b9" fill-opacity="1"/>
<path d="M1040.625 280 L1056.875 280 M1056.875 320 L1040.625 320" stroke-width="0.5" stroke="black" stroke-linejoin="round" fill="#b4b8b9" fill-opacity="1"/>
<!-- !right !both --><path d="M1056.875 280 L1056.875 320" stroke-width="0.5" stroke="black" stroke-linejoin="round" fill="#b4b8b9" fill-opacity="1"/>
<!-- !left !both --><path d="M1040.625 280 L1040.625 320" stroke-width="0.5" stroke="black" stroke-linejoin="round" fill="#b4b8b9" fill-opacity="1"/>


<!-- renderSideComponent: cap -->


<!-- renderPart: cylinder -->
<path d="M1056.825 284.375 L1134.425 284.375 L1134.425 315.625 L1056.825 315.625 Z" stroke-width="0" stroke="none" stroke-linejoin="round" fill="#b4b8b9" fill-opacity="1"/>
<path d="M1056.875 284.375 L1134.375 284.375 M1134.375 315.625 L1056.875 315.625" stroke-width="0.5" stroke="black" stroke-linejoin="round" fill="#b4b8b9" fill-opacity="1"/>
<!-- !right !both --><path d="M1134.375 284.375 L1134.375 315.625" stroke-width="0.5" stroke="black" stroke-linejoin="round" fill="#b4b8b9" fill-opacity="1"/>
<!-- !left !both --><path d="M1056.875 284.375 L1056.875 315.625" stroke-width="0.5" stroke="black" stroke-linejoin="round" fill="#b4b8b9" fill-opacity="1"/>

<!-- FRONT COMPONENTS: cap -->
<circle r="15.625" cx="160" cy="300" fill="#b4b8b9" fill-opacity="1" stroke="black" stroke-width="0.5"  />

<!-- FRONT COMPONENTS: tail -->
<circle r="20" cx="160" cy="300" fill="#b4b8b9" fill-opacity="1" stroke="black" stroke-width="0.5"  />
<circle r="20.625" cx="160" cy="300" fill="#b4b8b9" fill-opacity="1" stroke="black" stroke-width="0.5"  />

<!-- FRONT COMPONENTS: clip -->

<!-- FRONT COMPONENTS: body -->
<circle r="20.625" cx="160" cy="300" fill="#b4b8b9" fill-opacity="1" stroke="black" stroke-width="0.5"  />

<!-- FRONT COMPONENTS: grip -->
<circle r="21.25" cx="160" cy="300" fill="#b4b8b9" fill-opacity="1" stroke="black" stroke-width="0.5"  />

<!-- FRONT COMPONENTS: shaft eraser -->

<!-- FRONT COMPONENTS: shaft cap -->

<!-- FRONT COMPONENTS: shaft -->

<!-- FRONT COMPONENTS: tip -->
<circle r="20.625" cx="160" cy="300" stroke="black" stroke-width="0.5" fill="#b4b8b9" fill-opacity="1"/>
<circle r="19.375" cx="160" cy="300" stroke="black" stroke-width="0.5" fill="#b4b8b9" fill-opacity="1"/>
<circle r="18.125" cx="160" cy="300" stroke="black" stroke-width="0.5" fill="#b4b8b9" fill-opacity="1"/>
<circle r="8.75" cx="160" cy="300" stroke="black" stroke-width="0.5" fill="#b4b8b9" fill-opacity="1"/>
<circle r="5" cx="160" cy="300" fill="black" fill-opacity="1" stroke="dimgray" stroke-width="0.5"  />
<circle r="8.75" cx="1400" cy="300" stroke="black" stroke-width="0.5" fill="#b4b8b9" fill-opacity="1"/>
<circle r="18.125" cx="1400" cy="300" stroke="black" stroke-width="0.5" fill="#b4b8b9" fill-opacity="1"/>
<circle r="19.375" cx="1400" cy="300" stroke="black" stroke-width="0.5" fill="#b4b8b9" fill-opacity="1"/>
<circle r="20.625" cx="1400" cy="300" stroke="black" stroke-width="0.5" fill="#b4b8b9" fill-opacity="1"/>
<circle r="21.25" cx="1400" cy="300" fill="#b4b8b9" fill-opacity="1" stroke="black" stroke-width="0.5"  />
<circle r="20.625" cx="1400" cy="300" fill="#b4b8b9" fill-opacity="1" stroke="black" stroke-width="0.5"  />
<circle r="20.625" cx="1400" cy="300" fill="#b4b8b9" fill-opacity="1" stroke="black" stroke-width="0.5"  />
<circle r="20" cx="1400" cy="300" fill="#b4b8b9" fill-opacity="1" stroke="black" stroke-width="0.5"  />
<circle r="15.625" cx="1400" cy="300" fill="#b4b8b9" fill-opacity="1" stroke="black" stroke-width="0.5"  />
<circle r="5" cx="1400" cy="300" fill="black" fill-opacity="1" stroke="dimgray" stroke-width="1"  />
</g><text x="50%" y="580" font-size="1.1em" font-weight="bold" text-anchor="middle" dominant-baseline="middle">Copyright (c) // Synapticloop // The Mechanical Pencil Database (tmpdb) // Licensed under Creative Commons Attribution-NonCommercial-ShareAlike 4.0 International</text>
<text x="1490" y="590" font-size="0.5em" font-weight="bold" text-anchor="end" dominant-baseline="middle">SVGTechnicalRenderer</text>
</svg>