<svg xmlns="http://www.w3.org/2000/svg" width="1200" height="1048.5">
 <pattern id="knurled-large" patternUnits="userSpaceOnUse" width="12" height="12">
<path stroke="dimgray" stroke-linecap="round" stroke-width="1" d="M 6,6 L 12,12"/>
<path stroke="dimgray" stroke-linecap="round" stroke-width="1" d="M 6,6 L 0,12"/>
<path stroke="gray" stroke-linecap="round" stroke-width="1" d="M 6,6 L 12,0" />
<path stroke="gray" stroke-linecap="round" stroke-width="1" d="M 6,6 L 0,0" />
</pattern><pattern id="knurled-small" patternUnits="userSpaceOnUse" width="4" height="4">
<path stroke="dimgray" stroke-linecap="round" stroke-width="1" d="M 2,2 L 4,4"/>
<path stroke="dimgray" stroke-linecap="round" stroke-width="1" d="M 2,2 L 0,4"/>
<path stroke="gray" stroke-linecap="round" stroke-width="1" d="M 2,2 L 4,0" />
<path stroke="gray" stroke-linecap="round" stroke-width="1" d="M 2,2 L 0,0" />
</pattern><pattern id="knurled" patternUnits="userSpaceOnUse" width="8" height="8">
<path stroke="dimgray" stroke-linecap="round" stroke-width="1" d="M 4,4 L 8,8"/>
<path stroke="dimgray" stroke-linecap="round" stroke-width="1" d="M 4,4 L 0,8"/>
<path stroke="gray" stroke-linecap="round" stroke-width="1" d="M 4,4 L 8,0" />
<path stroke="gray" stroke-linecap="round" stroke-width="1" d="M 4,4 L 0,0" />
</pattern><pattern id="lined" patternUnits="userSpaceOnUse" width="3" height="3">
<path stroke="dimgray" stroke-linecap="round" stroke-width="1" d="M 0,0 L 3,0"/>
</pattern><pattern id="ridged" patternUnits="userSpaceOnUse" width="3" height="3">
<path stroke="dimgray" stroke-linecap="round" stroke-width="1" d="M 0,0 L 0,3"/>
</pattern><pattern id="spring" patternUnits="userSpaceOnUse" width="8" height="100">
<path stroke="dimgray" stroke-linecap="round" stroke-width="2" d="M 1,1 L 9,99"/>
<path stroke="white" stroke-linecap="round" stroke-width="1" d="M 1,1 L 9,99"/>
</pattern><pattern id="knurled" patternUnits="userSpaceOnUse" width="8" height="8">
<path stroke="dimgray" stroke-linecap="round" stroke-width="1" d="M 4,4 L 8,8"/>
<path stroke="dimgray" stroke-linecap="round" stroke-width="1" d="M 4,4 L 0,8"/>
<path stroke="gray" stroke-linecap="round" stroke-width="1" d="M 4,4 L 8,0" />
<path stroke="gray" stroke-linecap="round" stroke-width="1" d="M 4,4 L 0,0" />
</pattern><rect x="0" y="0" width="1200" height="1048.5" fill="white" stroke="black" stroke-width="4" />
<rect x="2" y="2" width="1196" height="1044.5" fill="white" stroke="dimgray" stroke-width="1" />
<g transform="rotate(0 0 0)">
<text x="30" y="50" font-size="2.0em" font-weight="bold"> Mr. Pen // 2.0 (Model #: 2.0)</text>


<!-- renderExplodedSideComponents -->


<!-- renderSideComponent: tip -->


<!-- renderPart: cone -->
<path d="M215.625 111.25 L290.625 101.875 L290.625 138.125 L215.625 128.75 Z" stroke-width="0.5" stroke="black" stroke-linejoin="round" fill="white" fill-opacity="1"/>


<!-- renderPart: cone -->
<path d="M290.625 100.625 L318.125 99.375 L318.125 140.625 L290.625 139.375 Z" stroke-width="0.5" stroke="black" stroke-linejoin="round" fill="white" fill-opacity="1"/>


<!-- renderPart: cylinder -->
<path d="M301.875 223.125 L318.125 223.125 L318.125 256.875 L301.875 256.875 Z" stroke-width="0.5" stroke="black" stroke-linejoin="round" fill="white" fill-opacity="1"/>
<path d="M301.875 223.125 L318.125 223.125 L318.125 256.875 L301.875 256.875 Z" stroke-width="1.0" stroke="black" fill="url(#threaded)"/>
<line x1="301.875" y1="221.125" x2="306.875" y2="258.875" stroke="dimgray" stroke-linecap="round" stroke-width="2" />
<line x1="301.875" y1="221.125" x2="306.875" y2="258.875" stroke="[object Object]" stroke-linecap="round" stroke-width="1" />
<line x1="306.875" y1="221.125" x2="311.875" y2="258.875" stroke="dimgray" stroke-linecap="round" stroke-width="2" />
<line x1="306.875" y1="221.125" x2="311.875" y2="258.875" stroke="[object Object]" stroke-linecap="round" stroke-width="1" />
<line x1="311.875" y1="221.125" x2="316.875" y2="258.875" stroke="dimgray" stroke-linecap="round" stroke-width="2" />
<line x1="311.875" y1="221.125" x2="316.875" y2="258.875" stroke="[object Object]" stroke-linecap="round" stroke-width="1" />
<line x1="318.125" y1="200" x2="318.125" y2="280" stroke="white" stroke-linecap="round"  stroke-width="1" />
<line x1="318.125" y1="200" x2="318.125" y2="280" stroke="dimgray" stroke-linecap="round" stroke-dasharray="3,3" stroke-width="1" />


<!-- renderSideComponent: shaft -->


<!-- renderPart: cylinder -->
<path d="M318.125 225 L325.625 225 L325.625 255 L318.125 255 Z" stroke-width="0.5" stroke="black" stroke-linejoin="round" fill="white" fill-opacity="1"/>


<!-- renderPart: cylinder -->
<path d="M325.625 221.875 L329.375 221.875 L329.375 258.125 L325.625 258.125 Z" stroke-width="0.5" stroke="black" stroke-linejoin="round" fill="white" fill-opacity="1"/>


<!-- renderPart: cylinder -->
<path d="M329.375 225 L336.875 225 L336.875 255 L329.375 255 Z" stroke-width="0.5" stroke="black" stroke-linejoin="round" fill="white" fill-opacity="1"/>


<!-- renderPart: cylinder -->
<path d="M336.875 221.875 L354.375 221.875 L354.375 258.125 L336.875 258.125 Z" stroke-width="0.5" stroke="black" stroke-linejoin="round" fill="white" fill-opacity="1"/>
<path d="M336.875 221.875 L354.375 221.875 L354.375 258.125 L336.875 258.125 Z" stroke-width="1.0" stroke="black" fill="url(#threaded)"/>
<line x1="336.875" y1="219.875" x2="341.875" y2="260.125" stroke="dimgray" stroke-linecap="round" stroke-width="2" />
<line x1="336.875" y1="219.875" x2="341.875" y2="260.125" stroke="[object Object]" stroke-linecap="round" stroke-width="1" />
<line x1="341.875" y1="219.875" x2="346.875" y2="260.125" stroke="dimgray" stroke-linecap="round" stroke-width="2" />
<line x1="341.875" y1="219.875" x2="346.875" y2="260.125" stroke="[object Object]" stroke-linecap="round" stroke-width="1" />
<line x1="346.875" y1="219.875" x2="351.875" y2="260.125" stroke="dimgray" stroke-linecap="round" stroke-width="2" />
<line x1="346.875" y1="219.875" x2="351.875" y2="260.125" stroke="[object Object]" stroke-linecap="round" stroke-width="1" />


<!-- renderPart: cylinder -->
<path d="M354.375 225 L384.375 225 L384.375 255 L354.375 255 Z" stroke-width="0.5" stroke="black" stroke-linejoin="round" fill="white" fill-opacity="1"/>


<!-- renderPart: cylinder -->
<path d="M384.375 232.5 L391.875 232.5 L391.875 247.5 L384.375 247.5 Z" stroke-width="0.5" stroke="black" stroke-linejoin="round" fill="white" fill-opacity="1"/>


<!-- renderPart: cylinder -->
<path d="M384.375 230 L876.875 230 L876.875 250 L384.375 250 Z" stroke-width="0.5" stroke="black" stroke-linejoin="round" fill="white" fill-opacity="1"/>


<!-- Previous part white -->


<!-- renderPart: cylinder -->
<path d="M384.375 232.5 L391.875 232.5 L391.875 247.5 L384.375 247.5 Z" stroke-width="0.5" stroke="black" stroke-linejoin="round" fill="white" fill-opacity="1"/>


<!-- renderPart: cylinder -->
<path d="M815.625 345 L880.625 345 L880.625 375 L815.625 375 Z" stroke-width="0.5" stroke="black" stroke-linejoin="round" fill="white" fill-opacity="1"/>
<line x1="880.625" y1="320" x2="880.625" y2="400" stroke="white" stroke-linecap="round"  stroke-width="1" />
<line x1="880.625" y1="320" x2="880.625" y2="400" stroke="dimgray" stroke-linecap="round" stroke-dasharray="3,3" stroke-width="1" />


<!-- renderSideComponent: shaft cap -->


<!-- renderPart: cylinder -->
<path d="M880.625 346.25 L911.875 346.25 L911.875 373.75 L880.625 373.75 Z" stroke-width="0.5" stroke="black" stroke-linejoin="round" fill="white" fill-opacity="1"/>


<!-- renderPart: cylinder -->
<path d="M886.875 468.75 L913.125 468.75 L913.125 491.25 L886.875 491.25 Z" stroke-width="0.5" stroke="black" stroke-linejoin="round" fill="white" fill-opacity="1"/>
<line x1="913.125" y1="440" x2="913.125" y2="520" stroke="white" stroke-linecap="round"  stroke-width="1" />
<line x1="913.125" y1="440" x2="913.125" y2="520" stroke="dimgray" stroke-linecap="round" stroke-dasharray="3,3" stroke-width="1" />


<!-- renderSideComponent: shaft eraser -->


<!-- renderPart: cylinder -->
<path d="M913.125 468.75 L943.125 468.75 L943.125 491.25 L913.125 491.25 Z" stroke-width="0.5" stroke="black" stroke-linejoin="round" fill="white" fill-opacity="1"/>


<!-- renderSideComponent: grip -->


<!-- renderPart: cylinder -->
<path d="M318.125 578.75 L473.125 578.75 L473.125 621.25 L318.125 621.25 Z" stroke-width="0.5" stroke="black" stroke-linejoin="round" fill="white" fill-opacity="1"/>
<path d="M318.125 578.75 L473.125 578.75 L473.125 621.25 L318.125 621.25 Z" stroke-width="1.0" stroke="black" fill="url(#knurled)"/>


<!-- renderSideComponent: body -->


<!-- renderPart: cylinder -->
<path d="M473.125 579.375 L804.375 579.375 L804.375 620.625 L473.125 620.625 Z" stroke-width="0.5" stroke="black" stroke-linejoin="round" fill="white" fill-opacity="1"/>


<!-- renderSideComponent: clip -->


<!-- renderSideComponent: tail -->


<!-- renderPart: cylinder -->
<path d="M804.375 579.375 L890.625 579.375 L890.625 620.625 L804.375 620.625 Z" stroke-width="0.5" stroke="black" stroke-linejoin="round" fill="white" fill-opacity="1"/>


<!-- renderPart: cylinder -->
<path d="M890.625 580 L906.875 580 L906.875 620 L890.625 620 Z" stroke-width="0.5" stroke="black" stroke-linejoin="round" fill="white" fill-opacity="1"/>


<!-- renderPart: cylinder -->
<path d="M884.375 704.375 L906.875 704.375 L906.875 735.625 L884.375 735.625 Z" stroke-width="0.5" stroke="black" stroke-linejoin="round" fill="white" fill-opacity="1"/>
<line x1="906.875" y1="680" x2="906.875" y2="760" stroke="white" stroke-linecap="round"  stroke-width="1" />
<line x1="906.875" y1="680" x2="906.875" y2="760" stroke="dimgray" stroke-linecap="round" stroke-dasharray="3,3" stroke-width="1" />


<!-- renderSideComponent: cap -->


<!-- renderPart: cylinder -->
<path d="M906.875 704.375 L984.375 704.375 L984.375 735.625 L906.875 735.625 Z" stroke-width="0.5" stroke="black" stroke-linejoin="round" fill="white" fill-opacity="1"/>
<line x1="318.125" y1="120" x2="338.125" y2="120" stroke-linecap="round" stroke="pink"  stroke-width="5" />
<line x1="318.125" y1="240" x2="338.125" y2="240" stroke-linecap="round" stroke="pink"  stroke-width="5" />


<!-- DASHED JOIN -->
<path d="M 328.125 120 L 384.375 120 L 384.375 180 L 156.375 180 L 156.375 240 L 313.125 240 " fill="none" stroke="black" stroke-width="1" stroke-dasharray="8,4" stroke-linecap="round"  />
<line x1="318.125" y1="240" x2="338.125" y2="240" stroke-linecap="round" stroke="pink"  stroke-width="5" />
<line x1="880.625" y1="360" x2="900.625" y2="360" stroke-linecap="round" stroke="pink"  stroke-width="5" />


<!-- DASHED JOIN -->
<path d="M 328.125 240 L 384.375 240 L 384.375 300 L 824.375 300 L 824.375 360 L 875.625 360 " fill="none" stroke="black" stroke-width="1" stroke-dasharray="8,4" stroke-linecap="round"  />
<line x1="880.625" y1="360" x2="900.625" y2="360" stroke-linecap="round" stroke="pink"  stroke-width="5" />
<line x1="913.125" y1="480" x2="933.125" y2="480" stroke-linecap="round" stroke="pink"  stroke-width="5" />


<!-- DASHED JOIN -->
<path d="M 890.625 360 L 995.625 360 L 995.625 420 L 857.125 420 L 857.125 480 L 908.125 480 " fill="none" stroke="black" stroke-width="1" stroke-dasharray="8,4" stroke-linecap="round"  />
<line x1="913.125" y1="480" x2="933.125" y2="480" stroke-linecap="round" stroke="pink"  stroke-width="5" />
<line x1="318.125" y1="600" x2="338.125" y2="600" stroke-linecap="round" stroke="pink"  stroke-width="5" />


<!-- DASHED JOIN -->
<path d="M 923.125 480 L 989.375 480 L 989.375 540 L 268.125 540 L 268.125 600 L 313.125 600 " fill="none" stroke="black" stroke-width="1" stroke-dasharray="8,4" stroke-linecap="round"  />
<line x1="318.125" y1="600" x2="338.125" y2="600" stroke-linecap="round" stroke="pink"  stroke-width="5" />
<line x1="906.875" y1="600" x2="926.875" y2="600" stroke-linecap="round" stroke="pink"  stroke-width="5" />
<line x1="906.875" y1="600" x2="926.875" y2="600" stroke-linecap="round" stroke="pink"  stroke-width="5" />
<line x1="906.875" y1="720" x2="926.875" y2="720" stroke-linecap="round" stroke="pink"  stroke-width="5" />


<!-- DASHED JOIN -->
<path d="M 916.875 600 L 979.375 600 L 979.375 660 L 856.875 660 L 856.875 720 L 901.875 720 " fill="none" stroke="black" stroke-width="1" stroke-dasharray="8,4" stroke-linecap="round"  />
<line x1="906.875" y1="720" x2="926.875" y2="720" stroke-linecap="round" stroke="pink"  stroke-width="5" />
</g><text x="50%" y="1008.5" font-size="1.1em" font-weight="bold" text-anchor="middle" dominant-baseline="middle">Copyright (c) // Synapticloop and The Mechanical Pencil Database (tmpdb)</text>
<text x="50%" y="1028.5" font-size="1.1em" font-weight="bold" text-anchor="middle" dominant-baseline="middle">Licensed under Creative Commons Attribution-NonCommercial-ShareAlike 4.0 International</text>
<text x="1190" y="1038.5" font-size="0.5em" font-weight="bold" text-anchor="end" dominant-baseline="middle">SVGTechnicalExplodedRenderer</text>
</svg>