<svg xmlns="http://www.w3.org/2000/svg" width="1200" height="1529.25">
 <pattern id="knurled-large" patternUnits="userSpaceOnUse" width="12" height="12">
<path stroke="dimgray" stroke-linecap="round" stroke-width="1" d="M 6,6 L 12,12"/>
<path stroke="dimgray" stroke-linecap="round" stroke-width="1" d="M 6,6 L 0,12"/>
<path stroke="gray" stroke-linecap="round" stroke-width="1" d="M 6,6 L 12,0" />
<path stroke="gray" stroke-linecap="round" stroke-width="1" d="M 6,6 L 0,0" />
</pattern><pattern id="knurled-small" patternUnits="userSpaceOnUse" width="4" height="4">
<path stroke="dimgray" stroke-linecap="round" stroke-width="1" d="M 2,2 L 4,4"/>
<path stroke="dimgray" stroke-linecap="round" stroke-width="1" d="M 2,2 L 0,4"/>
<path stroke="gray" stroke-linecap="round" stroke-width="1" d="M 2,2 L 4,0" />
<path stroke="gray" stroke-linecap="round" stroke-width="1" d="M 2,2 L 0,0" />
</pattern><pattern id="knurled" patternUnits="userSpaceOnUse" width="8" height="8">
<path stroke="dimgray" stroke-linecap="round" stroke-width="1" d="M 4,4 L 8,8"/>
<path stroke="dimgray" stroke-linecap="round" stroke-width="1" d="M 4,4 L 0,8"/>
<path stroke="gray" stroke-linecap="round" stroke-width="1" d="M 4,4 L 8,0" />
<path stroke="gray" stroke-linecap="round" stroke-width="1" d="M 4,4 L 0,0" />
</pattern><pattern id="lined" patternUnits="userSpaceOnUse" width="3" height="3">
<path stroke="dimgray" stroke-linecap="round" stroke-width="1" d="M 0,0 L 3,0"/>
</pattern><pattern id="ridged" patternUnits="userSpaceOnUse" width="3" height="3">
<path stroke="dimgray" stroke-linecap="round" stroke-width="1" d="M 0,0 L 0,3"/>
</pattern><pattern id="spring" patternUnits="userSpaceOnUse" width="8" height="100">
<path stroke="dimgray" stroke-linecap="round" stroke-width="2" d="M 1,1 L 9,99"/>
<path stroke="white" stroke-linecap="round" stroke-width="1" d="M 1,1 L 9,99"/>
</pattern><pattern id="knurled" patternUnits="userSpaceOnUse" width="8" height="8">
<path stroke="dimgray" stroke-linecap="round" stroke-width="1" d="M 4,4 L 8,8"/>
<path stroke="dimgray" stroke-linecap="round" stroke-width="1" d="M 4,4 L 0,8"/>
<path stroke="gray" stroke-linecap="round" stroke-width="1" d="M 4,4 L 8,0" />
<path stroke="gray" stroke-linecap="round" stroke-width="1" d="M 4,4 L 0,0" />
</pattern><rect x="0" y="0" width="1200" height="1529.25" fill="white" stroke="black" stroke-width="4" />
<rect x="2" y="2" width="1196" height="1525.25" fill="white" stroke="dimgray" stroke-width="1" />
<g transform="rotate(0 0 0)">
<text x="30" y="50" font-size="2.0em" font-weight="bold"> Mr. Pen // 2.0 (Model #: 2.0)</text>


<!-- renderExplodedSideComponents -->


<!-- renderSideComponent: tip -->


<!-- renderPart: cone -->
<path d="M216.25 151.25 L291.25 141.875 L291.25 178.125 L216.25 168.75 Z" stroke-width="0.5" stroke="black" stroke-linejoin="round" fill="white" fill-opacity="1"/>


<!-- renderPart: cone -->
<path d="M291.25 140.625 L318.75 139.375 L318.75 180.625 L291.25 179.375 Z" stroke-width="0.5" stroke="black" stroke-linejoin="round" fill="white" fill-opacity="1"/>


<!-- DASHED JOIN -->
<path d="M 333.75 160 L 353.75 160 L 353.75 220 L 257.5 220 L 257.5 280 L 302.5 280 " fill="none" stroke="white" stroke-width="2" stroke-dasharray="8,4" stroke-linecap="round"  />
<path d="M 333.75 160 L 353.75 160 L 353.75 220 L 257.5 220 L 257.5 280 L 302.5 280 " fill="none" stroke="black" stroke-width="1" stroke-dasharray="8,4" stroke-linecap="round"  />


<!-- ARROW START -->
<line x1="323.75" y1="160" x2="330.75" y2="160" stroke-linecap="round" stroke="#ffffff" stroke-width="2.0" />
<line x1="323.75" y1="160" x2="337.75" y2="152" stroke-linecap="round" stroke="#ffffff" stroke-width="2.0" />
<line x1="337.75" y1="152" x2="330.75" y2="160" stroke-linecap="round" stroke="#ffffff" stroke-width="2.0" />
<line x1="323.75" y1="160" x2="337.75" y2="168" stroke-linecap="round" stroke="#ffffff" stroke-width="2.0" />
<line x1="337.75" y1="168" x2="330.75" y2="160" stroke-linecap="round" stroke="#ffffff" stroke-width="2.0" />
<line x1="323.75" y1="160" x2="337.75" y2="152" stroke-linecap="round" stroke="#0f0f0f" stroke-width="1.0" />
<line x1="337.75" y1="152" x2="330.75" y2="160" stroke-linecap="round" stroke="#0f0f0f" stroke-width="1.0" />
<line x1="323.75" y1="160" x2="337.75" y2="168" stroke-linecap="round" stroke="#0f0f0f" stroke-width="1.0" />
<line x1="337.75" y1="168" x2="330.75" y2="160" stroke-linecap="round" stroke="#0f0f0f" stroke-width="1.0" />


<!-- ARROW START -->
<line x1="272.5" y1="280" x2="279.5" y2="280" stroke-linecap="round" stroke="#ffffff" stroke-width="2.0" />
<line x1="272.5" y1="280" x2="286.5" y2="272" stroke-linecap="round" stroke="#ffffff" stroke-width="2.0" />
<line x1="286.5" y1="272" x2="279.5" y2="280" stroke-linecap="round" stroke="#ffffff" stroke-width="2.0" />
<line x1="272.5" y1="280" x2="286.5" y2="288" stroke-linecap="round" stroke="#ffffff" stroke-width="2.0" />
<line x1="286.5" y1="288" x2="279.5" y2="280" stroke-linecap="round" stroke="#ffffff" stroke-width="2.0" />
<line x1="272.5" y1="280" x2="286.5" y2="272" stroke-linecap="round" stroke="#0f0f0f" stroke-width="1.0" />
<line x1="286.5" y1="272" x2="279.5" y2="280" stroke-linecap="round" stroke="#0f0f0f" stroke-width="1.0" />
<line x1="272.5" y1="280" x2="286.5" y2="288" stroke-linecap="round" stroke="#0f0f0f" stroke-width="1.0" />
<line x1="286.5" y1="288" x2="279.5" y2="280" stroke-linecap="round" stroke="#0f0f0f" stroke-width="1.0" />


<!-- renderPart: cylinder -->
<path d="M302.5 263.125 L318.75 263.125 L318.75 296.875 L302.5 296.875 Z" stroke-width="0.5" stroke="black" stroke-linejoin="round" fill="white" fill-opacity="1"/>
<path d="M302.5 263.125 L318.75 263.125 L318.75 296.875 L302.5 296.875 Z" stroke-width="1.0" stroke="black" fill="url(#threaded)"/>
<line x1="302.5" y1="261.125" x2="307.5" y2="298.875" stroke="dimgray" stroke-linecap="round" stroke-width="2" />
<line x1="302.5" y1="261.125" x2="307.5" y2="298.875" stroke="[object Object]" stroke-linecap="round" stroke-width="1" />
<line x1="307.5" y1="261.125" x2="312.5" y2="298.875" stroke="dimgray" stroke-linecap="round" stroke-width="2" />
<line x1="307.5" y1="261.125" x2="312.5" y2="298.875" stroke="[object Object]" stroke-linecap="round" stroke-width="1" />
<line x1="312.5" y1="261.125" x2="317.5" y2="298.875" stroke="dimgray" stroke-linecap="round" stroke-width="2" />
<line x1="312.5" y1="261.125" x2="317.5" y2="298.875" stroke="[object Object]" stroke-linecap="round" stroke-width="1" />
<line x1="318.75" y1="240" x2="318.75" y2="320" stroke="white" stroke-linecap="round"  stroke-width="1" />
<line x1="318.75" y1="240" x2="318.75" y2="320" stroke="black" stroke-linecap="round" stroke-dasharray="4,2" stroke-width="1" />


<!-- renderSideComponent: shaft -->


<!-- renderPart: cylinder -->
<path d="M318.75 265 L326.25 265 L326.25 295 L318.75 295 Z" stroke-width="0.5" stroke="black" stroke-linejoin="round" fill="white" fill-opacity="1"/>


<!-- renderPart: cylinder -->
<path d="M326.25 261.875 L330 261.875 L330 298.125 L326.25 298.125 Z" stroke-width="0.5" stroke="black" stroke-linejoin="round" fill="white" fill-opacity="1"/>


<!-- renderPart: cylinder -->
<path d="M330 265 L337.5 265 L337.5 295 L330 295 Z" stroke-width="0.5" stroke="black" stroke-linejoin="round" fill="white" fill-opacity="1"/>


<!-- renderPart: cylinder -->
<path d="M337.5 261.875 L355 261.875 L355 298.125 L337.5 298.125 Z" stroke-width="0.5" stroke="black" stroke-linejoin="round" fill="white" fill-opacity="1"/>
<path d="M337.5 261.875 L355 261.875 L355 298.125 L337.5 298.125 Z" stroke-width="1.0" stroke="black" fill="url(#threaded)"/>
<line x1="337.5" y1="259.875" x2="342.5" y2="300.125" stroke="dimgray" stroke-linecap="round" stroke-width="2" />
<line x1="337.5" y1="259.875" x2="342.5" y2="300.125" stroke="[object Object]" stroke-linecap="round" stroke-width="1" />
<line x1="342.5" y1="259.875" x2="347.5" y2="300.125" stroke="dimgray" stroke-linecap="round" stroke-width="2" />
<line x1="342.5" y1="259.875" x2="347.5" y2="300.125" stroke="[object Object]" stroke-linecap="round" stroke-width="1" />
<line x1="347.5" y1="259.875" x2="352.5" y2="300.125" stroke="dimgray" stroke-linecap="round" stroke-width="2" />
<line x1="347.5" y1="259.875" x2="352.5" y2="300.125" stroke="[object Object]" stroke-linecap="round" stroke-width="1" />


<!-- renderPart: cylinder -->
<path d="M355 265 L385 265 L385 295 L355 295 Z" stroke-width="0.5" stroke="black" stroke-linejoin="round" fill="white" fill-opacity="1"/>


<!-- renderPart: cylinder -->
<path d="M385 272.5 L392.5 272.5 L392.5 287.5 L385 287.5 Z" stroke-width="0.5" stroke="black" stroke-linejoin="round" fill="white" fill-opacity="1"/>


<!-- renderPart: cylinder -->
<path d="M385 270 L877.5 270 L877.5 290 L385 290 Z" stroke-width="0.5" stroke="black" stroke-linejoin="round" fill="white" fill-opacity="1"/>


<!-- Previous part white -->


<!-- renderPart: cylinder -->
<path d="M385 272.5 L392.5 272.5 L392.5 287.5 L385 287.5 Z" stroke-width="0.5" stroke="black" stroke-linejoin="round" fill="white" fill-opacity="1"/>
<line x1="318.75" y1="240" x2="318.75" y2="320" stroke="white" stroke-linecap="round"  stroke-width="1" />
<line x1="318.75" y1="240" x2="318.75" y2="320" stroke="black" stroke-linecap="round" stroke-dasharray="4,2" stroke-width="1" />


<!-- DASHED JOIN -->
<path d="M 328.75 280 L 907.5 280 L 907.5 340 L 268.75 340 L 268.75 400 L 313.75 400 " fill="none" stroke="white" stroke-width="2" stroke-dasharray="8,4" stroke-linecap="round"  />
<path d="M 328.75 280 L 907.5 280 L 907.5 340 L 268.75 340 L 268.75 400 L 313.75 400 " fill="none" stroke="black" stroke-width="1" stroke-dasharray="8,4" stroke-linecap="round"  />


<!-- ARROW START -->
<line x1="328.75" y1="280" x2="335.75" y2="280" stroke-linecap="round" stroke="#ffffff" stroke-width="2.0" />
<line x1="328.75" y1="280" x2="342.75" y2="272" stroke-linecap="round" stroke="#ffffff" stroke-width="2.0" />
<line x1="342.75" y1="272" x2="335.75" y2="280" stroke-linecap="round" stroke="#ffffff" stroke-width="2.0" />
<line x1="328.75" y1="280" x2="342.75" y2="288" stroke-linecap="round" stroke="#ffffff" stroke-width="2.0" />
<line x1="342.75" y1="288" x2="335.75" y2="280" stroke-linecap="round" stroke="#ffffff" stroke-width="2.0" />
<line x1="328.75" y1="280" x2="342.75" y2="272" stroke-linecap="round" stroke="#0f0f0f" stroke-width="1.0" />
<line x1="342.75" y1="272" x2="335.75" y2="280" stroke-linecap="round" stroke="#0f0f0f" stroke-width="1.0" />
<line x1="328.75" y1="280" x2="342.75" y2="288" stroke-linecap="round" stroke="#0f0f0f" stroke-width="1.0" />
<line x1="342.75" y1="288" x2="335.75" y2="280" stroke-linecap="round" stroke="#0f0f0f" stroke-width="1.0" />


<!-- renderSideComponent: shaft cap -->


<!-- renderPart: cylinder -->
<path d="M813.75 385 L878.75 385 L878.75 415 L813.75 415 Z" stroke-width="0.5" stroke="black" stroke-linejoin="round" fill="white" fill-opacity="1"/>


<!-- renderPart: cylinder -->
<path d="M878.75 386.25 L910 386.25 L910 413.75 L878.75 413.75 Z" stroke-width="0.5" stroke="black" stroke-linejoin="round" fill="white" fill-opacity="1"/>
<line x1="318.75" y1="360" x2="318.75" y2="440" stroke="white" stroke-linecap="round"  stroke-width="1" />
<line x1="318.75" y1="360" x2="318.75" y2="440" stroke="black" stroke-linecap="round" stroke-dasharray="4,2" stroke-width="1" />


<!-- DASHED JOIN -->
<path d="M 328.75 400 L 940 400 L 940 460 L 268.75 460 L 268.75 520 L 313.75 520 " fill="none" stroke="white" stroke-width="2" stroke-dasharray="8,4" stroke-linecap="round"  />
<path d="M 328.75 400 L 940 400 L 940 460 L 268.75 460 L 268.75 520 L 313.75 520 " fill="none" stroke="black" stroke-width="1" stroke-dasharray="8,4" stroke-linecap="round"  />


<!-- ARROW START -->
<line x1="328.75" y1="400" x2="335.75" y2="400" stroke-linecap="round" stroke="#ffffff" stroke-width="2.0" />
<line x1="328.75" y1="400" x2="342.75" y2="392" stroke-linecap="round" stroke="#ffffff" stroke-width="2.0" />
<line x1="342.75" y1="392" x2="335.75" y2="400" stroke-linecap="round" stroke="#ffffff" stroke-width="2.0" />
<line x1="328.75" y1="400" x2="342.75" y2="408" stroke-linecap="round" stroke="#ffffff" stroke-width="2.0" />
<line x1="342.75" y1="408" x2="335.75" y2="400" stroke-linecap="round" stroke="#ffffff" stroke-width="2.0" />
<line x1="328.75" y1="400" x2="342.75" y2="392" stroke-linecap="round" stroke="#0f0f0f" stroke-width="1.0" />
<line x1="342.75" y1="392" x2="335.75" y2="400" stroke-linecap="round" stroke="#0f0f0f" stroke-width="1.0" />
<line x1="328.75" y1="400" x2="342.75" y2="408" stroke-linecap="round" stroke="#0f0f0f" stroke-width="1.0" />
<line x1="342.75" y1="408" x2="335.75" y2="400" stroke-linecap="round" stroke="#0f0f0f" stroke-width="1.0" />


<!-- renderPart: cylinder -->
<path d="M292.5 508.75 L318.75 508.75 L318.75 531.25 L292.5 531.25 Z" stroke-width="0.5" stroke="black" stroke-linejoin="round" fill="white" fill-opacity="1"/>
<line x1="318.75" y1="480" x2="318.75" y2="560" stroke="white" stroke-linecap="round"  stroke-width="1" />
<line x1="318.75" y1="480" x2="318.75" y2="560" stroke="black" stroke-linecap="round" stroke-dasharray="4,2" stroke-width="1" />


<!-- renderSideComponent: shaft eraser -->


<!-- renderPart: cylinder -->
<path d="M848.75 508.75 L878.75 508.75 L878.75 531.25 L848.75 531.25 Z" stroke-width="0.5" stroke="black" stroke-linejoin="round" fill="white" fill-opacity="1"/>
<line x1="318.75" y1="480" x2="318.75" y2="560" stroke="white" stroke-linecap="round"  stroke-width="1" />
<line x1="318.75" y1="480" x2="318.75" y2="560" stroke="black" stroke-linecap="round" stroke-dasharray="4,2" stroke-width="1" />


<!-- DASHED JOIN -->
<path d="M 328.75 520 L 908.75 520 L 908.75 580 L 268.75 580 L 268.75 640 L 313.75 640 " fill="none" stroke="white" stroke-width="2" stroke-dasharray="8,4" stroke-linecap="round"  />
<path d="M 328.75 520 L 908.75 520 L 908.75 580 L 268.75 580 L 268.75 640 L 313.75 640 " fill="none" stroke="black" stroke-width="1" stroke-dasharray="8,4" stroke-linecap="round"  />


<!-- ARROW START -->
<line x1="328.75" y1="520" x2="335.75" y2="520" stroke-linecap="round" stroke="#ffffff" stroke-width="2.0" />
<line x1="328.75" y1="520" x2="342.75" y2="512" stroke-linecap="round" stroke="#ffffff" stroke-width="2.0" />
<line x1="342.75" y1="512" x2="335.75" y2="520" stroke-linecap="round" stroke="#ffffff" stroke-width="2.0" />
<line x1="328.75" y1="520" x2="342.75" y2="528" stroke-linecap="round" stroke="#ffffff" stroke-width="2.0" />
<line x1="342.75" y1="528" x2="335.75" y2="520" stroke-linecap="round" stroke="#ffffff" stroke-width="2.0" />
<line x1="328.75" y1="520" x2="342.75" y2="512" stroke-linecap="round" stroke="#0f0f0f" stroke-width="1.0" />
<line x1="342.75" y1="512" x2="335.75" y2="520" stroke-linecap="round" stroke="#0f0f0f" stroke-width="1.0" />
<line x1="328.75" y1="520" x2="342.75" y2="528" stroke-linecap="round" stroke="#0f0f0f" stroke-width="1.0" />
<line x1="342.75" y1="528" x2="335.75" y2="520" stroke-linecap="round" stroke="#0f0f0f" stroke-width="1.0" />


<!-- renderSideComponent: grip -->


<!-- renderPart: cylinder -->
<path d="M318.75 618.75 L473.75 618.75 L473.75 661.25 L318.75 661.25 Z" stroke-width="0.5" stroke="black" stroke-linejoin="round" fill="white" fill-opacity="1"/>
<path d="M318.75 618.75 L473.75 618.75 L473.75 661.25 L318.75 661.25 Z" stroke-width="1.0" stroke="black" fill="url(#knurled)"/>


<!-- DASHED JOIN -->
<path d="M 488.75 640 L 508.75 640 L 508.75 700 L 402.5 700 L 402.5 760 L 447.5 760 " fill="none" stroke="white" stroke-width="2" stroke-dasharray="8,4" stroke-linecap="round"  />
<path d="M 488.75 640 L 508.75 640 L 508.75 700 L 402.5 700 L 402.5 760 L 447.5 760 " fill="none" stroke="black" stroke-width="1" stroke-dasharray="8,4" stroke-linecap="round"  />


<!-- ARROW START -->
<line x1="478.75" y1="640" x2="485.75" y2="640" stroke-linecap="round" stroke="#ffffff" stroke-width="2.0" />
<line x1="478.75" y1="640" x2="492.75" y2="632" stroke-linecap="round" stroke="#ffffff" stroke-width="2.0" />
<line x1="492.75" y1="632" x2="485.75" y2="640" stroke-linecap="round" stroke="#ffffff" stroke-width="2.0" />
<line x1="478.75" y1="640" x2="492.75" y2="648" stroke-linecap="round" stroke="#ffffff" stroke-width="2.0" />
<line x1="492.75" y1="648" x2="485.75" y2="640" stroke-linecap="round" stroke="#ffffff" stroke-width="2.0" />
<line x1="478.75" y1="640" x2="492.75" y2="632" stroke-linecap="round" stroke="#0f0f0f" stroke-width="1.0" />
<line x1="492.75" y1="632" x2="485.75" y2="640" stroke-linecap="round" stroke="#0f0f0f" stroke-width="1.0" />
<line x1="478.75" y1="640" x2="492.75" y2="648" stroke-linecap="round" stroke="#0f0f0f" stroke-width="1.0" />
<line x1="492.75" y1="648" x2="485.75" y2="640" stroke-linecap="round" stroke="#0f0f0f" stroke-width="1.0" />


<!-- ARROW START -->
<line x1="417.5" y1="760" x2="424.5" y2="760" stroke-linecap="round" stroke="#ffffff" stroke-width="2.0" />
<line x1="417.5" y1="760" x2="431.5" y2="752" stroke-linecap="round" stroke="#ffffff" stroke-width="2.0" />
<line x1="431.5" y1="752" x2="424.5" y2="760" stroke-linecap="round" stroke="#ffffff" stroke-width="2.0" />
<line x1="417.5" y1="760" x2="431.5" y2="768" stroke-linecap="round" stroke="#ffffff" stroke-width="2.0" />
<line x1="431.5" y1="768" x2="424.5" y2="760" stroke-linecap="round" stroke="#ffffff" stroke-width="2.0" />
<line x1="417.5" y1="760" x2="431.5" y2="752" stroke-linecap="round" stroke="#0f0f0f" stroke-width="1.0" />
<line x1="431.5" y1="752" x2="424.5" y2="760" stroke-linecap="round" stroke="#0f0f0f" stroke-width="1.0" />
<line x1="417.5" y1="760" x2="431.5" y2="768" stroke-linecap="round" stroke="#0f0f0f" stroke-width="1.0" />
<line x1="431.5" y1="768" x2="424.5" y2="760" stroke-linecap="round" stroke="#0f0f0f" stroke-width="1.0" />


<!-- renderPart: cylinder -->
<path d="M447.5 741.25 L473.75 741.25 L473.75 778.75 L447.5 778.75 Z" stroke-width="0.5" stroke="black" stroke-linejoin="round" fill="white" fill-opacity="1"/>
<path d="M447.5 741.25 L473.75 741.25 L473.75 778.75 L447.5 778.75 Z" stroke-width="1.0" stroke="black" fill="url(#threaded)"/>
<line x1="447.5" y1="739.25" x2="452.5" y2="780.75" stroke="dimgray" stroke-linecap="round" stroke-width="2" />
<line x1="447.5" y1="739.25" x2="452.5" y2="780.75" stroke="[object Object]" stroke-linecap="round" stroke-width="1" />
<line x1="452.5" y1="739.25" x2="457.5" y2="780.75" stroke="dimgray" stroke-linecap="round" stroke-width="2" />
<line x1="452.5" y1="739.25" x2="457.5" y2="780.75" stroke="[object Object]" stroke-linecap="round" stroke-width="1" />
<line x1="457.5" y1="739.25" x2="462.5" y2="780.75" stroke="dimgray" stroke-linecap="round" stroke-width="2" />
<line x1="457.5" y1="739.25" x2="462.5" y2="780.75" stroke="[object Object]" stroke-linecap="round" stroke-width="1" />
<line x1="462.5" y1="739.25" x2="467.5" y2="780.75" stroke="dimgray" stroke-linecap="round" stroke-width="2" />
<line x1="462.5" y1="739.25" x2="467.5" y2="780.75" stroke="[object Object]" stroke-linecap="round" stroke-width="1" />
<line x1="467.5" y1="739.25" x2="472.5" y2="780.75" stroke="dimgray" stroke-linecap="round" stroke-width="2" />
<line x1="467.5" y1="739.25" x2="472.5" y2="780.75" stroke="[object Object]" stroke-linecap="round" stroke-width="1" />
<line x1="473.75" y1="720" x2="473.75" y2="800" stroke="white" stroke-linecap="round"  stroke-width="1" />
<line x1="473.75" y1="720" x2="473.75" y2="800" stroke="black" stroke-linecap="round" stroke-dasharray="4,2" stroke-width="1" />


<!-- renderSideComponent: body -->


<!-- renderPart: hexagonal -->
<path d="M473.75 740 L807.5 740 L807.5 780 L473.75 780 Z" stroke-width="0.5" stroke="black" stroke-linejoin="round" fill="white" fill-opacity="1"/>
<line x1="473.75" y1="760" x2="807.5" y2="760" stroke-width="1.5" stroke="gray" fill="gray" stroke-opacity="1.0"/>
<line x1="473.75" y1="760" x2="807.5" y2="760" stroke-width="0.5" stroke="black" fill="none" stroke-opacity="0.5"/>


<!-- renderSideComponent: clip -->
<path d="M656.25 726.875 Q681.25 749.375 693.75 726.875" stroke-width="4" stroke="black" fill="none" stroke-linecap="round" />
<line x1="656.25" y1="725.625" x2="835" y2="725.625" stroke-width="4" stroke="black" fill="dimgray" stroke-linecap="round" />
<path d="M835 725.625 Q848.75 732.5 835 738.125" stroke-width="4" stroke="black" fill="none" stroke-linecap="round" />


<!-- renderPart: cylinder -->
<path d="M807.5 736.875 L835 736.875 L835 783.125 L807.5 783.125 Z" stroke-width="0.5" stroke="black" stroke-linejoin="round" fill="white" fill-opacity="1"/>
<path d="M656.25 726.875 Q681.25 749.375 693.75 726.875" stroke-width="3" stroke="white" fill="none" stroke-linecap="round" />
<line x1="656.25" y1="725.625" x2="835" y2="725.625" stroke-width="3" stroke="white" fill="white" stroke-linecap="round" />
<path d="M835 725.625 Q848.75 732.5 835 738.125" stroke-width="3" stroke="white" fill="none" stroke-linecap="round" />


<!-- renderSideComponent: tail -->


<!-- renderPart: cylinder -->
<path d="M835 740 L860 740 L860 780 L835 780 Z" stroke-width="0.5" stroke="black" stroke-linejoin="round" fill="white" fill-opacity="1"/>


<!-- renderSideComponent: indicator -->


<!-- renderPart: cylinder -->
<path d="M860 740 L907.5 740 L907.5 780 L860 780 Z" stroke-width="0.5" stroke="black" stroke-linejoin="round" fill="white" fill-opacity="1"/>
<path d="M860 740 L907.5 740 L907.5 780 L860 780 Z" stroke-width="1.0" stroke="black" fill="url(#knurled-small)"/>
<rect x="870" y="750" width="27.5" height="20" rx="3" ry="3" stroke-width="1" stroke="black" fill="white"/>
<text x="883.75" y="760" text-anchor="middle" dominant-baseline="central"><tspan stroke="dimgray" stroke-width="0.5" font-family="sans-serif" fill="black" textLength="{this.width * 5 - 24}" > HB</tspan></text>

<!-- renderSideComponent: foot -->


<!-- renderPart: cylinder -->
<path d="M907.5 740 L911.25 740 L911.25 780 L907.5 780 Z" stroke-width="0.5" stroke="black" stroke-linejoin="round" fill="white" fill-opacity="1"/>


<!-- renderPart: cylinder -->
<path d="M911.25 739.375 L920 739.375 L920 780.625 L911.25 780.625 Z" stroke-width="0.5" stroke="black" stroke-linejoin="round" fill="white" fill-opacity="1"/>


<!-- renderPart: cylinder -->
<path d="M920 740 L923.75 740 L923.75 780 L920 780 Z" stroke-width="0.5" stroke="black" stroke-linejoin="round" fill="white" fill-opacity="1"/>


<!-- DASHED JOIN -->
<path d="M 938.75 760 L 958.75 760 L 958.75 820 L 822.5 820 L 822.5 880 L 867.5 880 " fill="none" stroke="white" stroke-width="2" stroke-dasharray="8,4" stroke-linecap="round"  />
<path d="M 938.75 760 L 958.75 760 L 958.75 820 L 822.5 820 L 822.5 880 L 867.5 880 " fill="none" stroke="black" stroke-width="1" stroke-dasharray="8,4" stroke-linecap="round"  />


<!-- ARROW START -->
<line x1="928.75" y1="760" x2="935.75" y2="760" stroke-linecap="round" stroke="#ffffff" stroke-width="2.0" />
<line x1="928.75" y1="760" x2="942.75" y2="752" stroke-linecap="round" stroke="#ffffff" stroke-width="2.0" />
<line x1="942.75" y1="752" x2="935.75" y2="760" stroke-linecap="round" stroke="#ffffff" stroke-width="2.0" />
<line x1="928.75" y1="760" x2="942.75" y2="768" stroke-linecap="round" stroke="#ffffff" stroke-width="2.0" />
<line x1="942.75" y1="768" x2="935.75" y2="760" stroke-linecap="round" stroke="#ffffff" stroke-width="2.0" />
<line x1="928.75" y1="760" x2="942.75" y2="752" stroke-linecap="round" stroke="#0f0f0f" stroke-width="1.0" />
<line x1="942.75" y1="752" x2="935.75" y2="760" stroke-linecap="round" stroke="#0f0f0f" stroke-width="1.0" />
<line x1="928.75" y1="760" x2="942.75" y2="768" stroke-linecap="round" stroke="#0f0f0f" stroke-width="1.0" />
<line x1="942.75" y1="768" x2="935.75" y2="760" stroke-linecap="round" stroke="#0f0f0f" stroke-width="1.0" />


<!-- ARROW START -->
<line x1="837.5" y1="880" x2="844.5" y2="880" stroke-linecap="round" stroke="#ffffff" stroke-width="2.0" />
<line x1="837.5" y1="880" x2="851.5" y2="872" stroke-linecap="round" stroke="#ffffff" stroke-width="2.0" />
<line x1="851.5" y1="872" x2="844.5" y2="880" stroke-linecap="round" stroke="#ffffff" stroke-width="2.0" />
<line x1="837.5" y1="880" x2="851.5" y2="888" stroke-linecap="round" stroke="#ffffff" stroke-width="2.0" />
<line x1="851.5" y1="888" x2="844.5" y2="880" stroke-linecap="round" stroke="#ffffff" stroke-width="2.0" />
<line x1="837.5" y1="880" x2="851.5" y2="872" stroke-linecap="round" stroke="#0f0f0f" stroke-width="1.0" />
<line x1="851.5" y1="872" x2="844.5" y2="880" stroke-linecap="round" stroke="#0f0f0f" stroke-width="1.0" />
<line x1="837.5" y1="880" x2="851.5" y2="888" stroke-linecap="round" stroke="#0f0f0f" stroke-width="1.0" />
<line x1="851.5" y1="888" x2="844.5" y2="880" stroke-linecap="round" stroke="#0f0f0f" stroke-width="1.0" />


<!-- renderPart: cylinder -->
<path d="M867.5 868.125 L911.25 868.125 L911.25 891.875 L867.5 891.875 Z" stroke-width="0.5" stroke="black" stroke-linejoin="round" fill="white" fill-opacity="1"/>


<!-- renderPart: cylinder -->
<path d="M911.25 866.25 L923.75 866.25 L923.75 893.75 L911.25 893.75 Z" stroke-width="0.5" stroke="black" stroke-linejoin="round" fill="white" fill-opacity="1"/>
<line x1="923.75" y1="840" x2="923.75" y2="920" stroke="white" stroke-linecap="round"  stroke-width="1" />
<line x1="923.75" y1="840" x2="923.75" y2="920" stroke="black" stroke-linecap="round" stroke-dasharray="4,2" stroke-width="1" />


<!-- renderSideComponent: cap -->


<!-- renderPart: cylinder -->
<path d="M923.75 866.25 L983.75 866.25 L983.75 893.75 L923.75 893.75 Z" stroke-width="0.5" stroke="black" stroke-linejoin="round" fill="white" fill-opacity="1"/>
</g><text x="50%" y="1489.25" font-size="1.1em" font-weight="bold" text-anchor="middle" dominant-baseline="middle">Copyright (c) // Synapticloop and The Mechanical Pencil Database (tmpdb)</text>
<text x="50%" y="1509.25" font-size="1.1em" font-weight="bold" text-anchor="middle" dominant-baseline="middle">Licensed under Creative Commons Attribution-NonCommercial-ShareAlike 4.0 International</text>
<text x="1190" y="1519.25" font-size="0.5em" font-weight="bold" text-anchor="end" dominant-baseline="middle">SVGTechnicalExplodedRenderer</text>
</svg>