<svg xmlns="http://www.w3.org/2000/svg" width="1200" height="840">
 <pattern id="knurled-large" patternUnits="userSpaceOnUse" width="12" height="12">
<path stroke="dimgray" stroke-linecap="round" stroke-width="1" d="M 6,6 L 12,12"/>
<path stroke="dimgray" stroke-linecap="round" stroke-width="1" d="M 6,6 L 0,12"/>
<path stroke="gray" stroke-linecap="round" stroke-width="1" d="M 6,6 L 12,0" />
<path stroke="gray" stroke-linecap="round" stroke-width="1" d="M 6,6 L 0,0" />
</pattern><pattern id="knurled-small" patternUnits="userSpaceOnUse" width="4" height="4">
<path stroke="dimgray" stroke-linecap="round" stroke-width="1" d="M 2,2 L 4,4"/>
<path stroke="dimgray" stroke-linecap="round" stroke-width="1" d="M 2,2 L 0,4"/>
<path stroke="gray" stroke-linecap="round" stroke-width="1" d="M 2,2 L 4,0" />
<path stroke="gray" stroke-linecap="round" stroke-width="1" d="M 2,2 L 0,0" />
</pattern><pattern id="knurled" patternUnits="userSpaceOnUse" width="8" height="8">
<path stroke="dimgray" stroke-linecap="round" stroke-width="1" d="M 4,4 L 8,8"/>
<path stroke="dimgray" stroke-linecap="round" stroke-width="1" d="M 4,4 L 0,8"/>
<path stroke="gray" stroke-linecap="round" stroke-width="1" d="M 4,4 L 8,0" />
<path stroke="gray" stroke-linecap="round" stroke-width="1" d="M 4,4 L 0,0" />
</pattern><pattern id="lined" patternUnits="userSpaceOnUse" width="3" height="3">
<path stroke="dimgray" stroke-linecap="round" stroke-width="1" d="M 0,0 L 3,0"/>
</pattern><pattern id="ridged" patternUnits="userSpaceOnUse" width="3" height="3">
<path stroke="dimgray" stroke-linecap="round" stroke-width="1" d="M 0,0 L 0,3"/>
</pattern><pattern id="spring" patternUnits="userSpaceOnUse" width="8" height="60">
<path stroke="dimgray" stroke-linecap="round" stroke-width="2" d="M 1,1 L 8,60"/>
<path stroke="white" stroke-linecap="round" stroke-width="1" d="M 1,1 L 8,60"/>
</pattern><rect x="0" y="0" width="1200" height="840" fill="white" stroke="black" stroke-width="4" />
<rect x="2" y="2" width="1196" height="836" fill="white" stroke="dimgray" stroke-width="1" />
<g transform="rotate(0 0 0)">
<text x="30" y="50" font-size="2.0em" font-weight="bold"> Mr. Pen // 2.0 (Model #: 2.0)</text>


<!-- renderExplodedSideComponents -->


<!-- renderSideComponent: tip -->


<!-- renderPart: cone -->
<path d="M215.575 111.25 L290.675 101.875 L290.675 138.125 L215.575 128.75 L215.575 111.25" stroke-width="0" stroke="none" stroke-linejoin="round" fill="white" fill-opacity="1"/>
<path d="M215.575 111.25 L290.675 101.875 M290.675 138.125 L215.575 128.75" stroke-width="0.5" stroke="black" stroke-linejoin="round" fill="white" fill-opacity="1"/>
<!-- !right !both --><path d="M290.675 101.875 L290.675 138.125" stroke-width="0.5" stroke="black" stroke-linejoin="round" fill="white" fill-opacity="1"/>
<!-- !left !both --><path d="M215.575 111.25 L215.575 128.75" stroke-width="0.5" stroke="black" stroke-linejoin="round" fill="white" fill-opacity="1"/>


<!-- renderPart: cone -->
<path d="M290.575 100.625 L318.175 99.375 L318.175 140.625 L290.575 139.375 L290.575 100.625" stroke-width="0" stroke="none" stroke-linejoin="round" fill="white" fill-opacity="1"/>
<path d="M290.575 100.625 L318.175 99.375 M318.175 140.625 L290.575 139.375" stroke-width="0.5" stroke="black" stroke-linejoin="round" fill="white" fill-opacity="1"/>
<!-- !right !both --><path d="M318.175 99.375 L318.175 140.625" stroke-width="0.5" stroke="black" stroke-linejoin="round" fill="white" fill-opacity="1"/>
<!-- !left !both --><path d="M290.575 100.625 L290.575 139.375" stroke-width="0.5" stroke="black" stroke-linejoin="round" fill="white" fill-opacity="1"/>
<line x1="318.125" y1="120" x2="358.125" y2="120" stroke-linecap="round" stroke="orange"  stroke-width="5" />
<line x1="358.125" y1="120" x2="358.125" y2="180" stroke="orange" stroke-linecap="round"  stroke-width="5" />


<!-- renderPart: cylinder -->
<path d="M301.825 223.125 L318.175 223.125 L318.175 256.875 L301.825 256.875 L301.825 223.125" stroke-width="0" stroke="none" stroke-linejoin="round" fill="white" fill-opacity="1"/>
<path d="M301.825 223.125 L318.175 223.125 M318.175 256.875 L301.825 256.875" stroke-width="0.5" stroke="black" stroke-linejoin="round" fill="white" fill-opacity="1"/>
<!-- !right !both --><path d="M318.175 223.125 L318.175 256.875" stroke-width="0.5" stroke="black" stroke-linejoin="round" fill="white" fill-opacity="1"/>
<!-- !left !both --><path d="M301.825 223.125 L301.825 256.875" stroke-width="0.5" stroke="black" stroke-linejoin="round" fill="white" fill-opacity="1"/>
<line x1="301.875" y1="223.125" x2="306.875" y2="256.875" stroke="dimgray" stroke-linecap="round" stroke-width="2" />
<line x1="301.875" y1="223.125" x2="306.875" y2="256.875" stroke="[object Object]" stroke-linecap="round" stroke-width="1" />
<line x1="306.875" y1="223.125" x2="311.875" y2="256.875" stroke="dimgray" stroke-linecap="round" stroke-width="2" />
<line x1="306.875" y1="223.125" x2="311.875" y2="256.875" stroke="[object Object]" stroke-linecap="round" stroke-width="1" />
<line x1="311.875" y1="223.125" x2="316.875" y2="256.875" stroke="dimgray" stroke-linecap="round" stroke-width="2" />
<line x1="311.875" y1="223.125" x2="316.875" y2="256.875" stroke="[object Object]" stroke-linecap="round" stroke-width="1" />
<line x1="318.125" y1="240" x2="261.875" y2="240" stroke-linecap="round" stroke="green"  stroke-width="2" />
<line x1="261.875" y1="240" x2="261.875" y2="180" stroke="green" stroke-linecap="round"  stroke-width="2" />


<!-- renderSideComponent: shaft -->


<!-- renderPart: cylinder -->
<path d="M318.075 225 L325.675 225 L325.675 255 L318.075 255 L318.075 225" stroke-width="0" stroke="none" stroke-linejoin="round" fill="white" fill-opacity="1"/>
<path d="M318.075 225 L325.675 225 M325.675 255 L318.075 255" stroke-width="0.5" stroke="black" stroke-linejoin="round" fill="white" fill-opacity="1"/>
<!-- !right !both --><path d="M325.675 225 L325.675 255" stroke-width="0.5" stroke="black" stroke-linejoin="round" fill="white" fill-opacity="1"/>
<!-- !left !both --><path d="M318.075 225 L318.075 255" stroke-width="0.5" stroke="black" stroke-linejoin="round" fill="white" fill-opacity="1"/>


<!-- renderPart: cylinder -->
<path d="M325.575 221.875 L329.425 221.875 L329.425 258.125 L325.575 258.125 L325.575 221.875" stroke-width="0" stroke="none" stroke-linejoin="round" fill="white" fill-opacity="1"/>
<path d="M325.575 221.875 L329.425 221.875 M329.425 258.125 L325.575 258.125" stroke-width="0.5" stroke="black" stroke-linejoin="round" fill="white" fill-opacity="1"/>
<!-- !right !both --><path d="M329.425 221.875 L329.425 258.125" stroke-width="0.5" stroke="black" stroke-linejoin="round" fill="white" fill-opacity="1"/>
<!-- !left !both --><path d="M325.575 221.875 L325.575 258.125" stroke-width="0.5" stroke="black" stroke-linejoin="round" fill="white" fill-opacity="1"/>


<!-- renderPart: cylinder -->
<path d="M329.325 225 L336.925 225 L336.925 255 L329.325 255 L329.325 225" stroke-width="0" stroke="none" stroke-linejoin="round" fill="white" fill-opacity="1"/>
<path d="M329.325 225 L336.925 225 M336.925 255 L329.325 255" stroke-width="0.5" stroke="black" stroke-linejoin="round" fill="white" fill-opacity="1"/>
<!-- !right !both --><path d="M336.925 225 L336.925 255" stroke-width="0.5" stroke="black" stroke-linejoin="round" fill="white" fill-opacity="1"/>
<!-- !left !both --><path d="M329.325 225 L329.325 255" stroke-width="0.5" stroke="black" stroke-linejoin="round" fill="white" fill-opacity="1"/>


<!-- renderPart: cylinder -->
<path d="M336.825 221.875 L354.425 221.875 L354.425 258.125 L336.825 258.125 L336.825 221.875" stroke-width="0" stroke="none" stroke-linejoin="round" fill="white" fill-opacity="1"/>
<path d="M336.825 221.875 L354.425 221.875 M354.425 258.125 L336.825 258.125" stroke-width="0.5" stroke="black" stroke-linejoin="round" fill="white" fill-opacity="1"/>
<!-- !right !both --><path d="M354.425 221.875 L354.425 258.125" stroke-width="0.5" stroke="black" stroke-linejoin="round" fill="white" fill-opacity="1"/>
<!-- !left !both --><path d="M336.825 221.875 L336.825 258.125" stroke-width="0.5" stroke="black" stroke-linejoin="round" fill="white" fill-opacity="1"/>
<line x1="336.875" y1="221.875" x2="341.875" y2="258.125" stroke="dimgray" stroke-linecap="round" stroke-width="2" />
<line x1="336.875" y1="221.875" x2="341.875" y2="258.125" stroke="[object Object]" stroke-linecap="round" stroke-width="1" />
<line x1="341.875" y1="221.875" x2="346.875" y2="258.125" stroke="dimgray" stroke-linecap="round" stroke-width="2" />
<line x1="341.875" y1="221.875" x2="346.875" y2="258.125" stroke="[object Object]" stroke-linecap="round" stroke-width="1" />
<line x1="346.875" y1="221.875" x2="351.875" y2="258.125" stroke="dimgray" stroke-linecap="round" stroke-width="2" />
<line x1="346.875" y1="221.875" x2="351.875" y2="258.125" stroke="[object Object]" stroke-linecap="round" stroke-width="1" />


<!-- renderPart: cylinder -->
<path d="M354.325 225 L384.425 225 L384.425 255 L354.325 255 L354.325 225" stroke-width="0" stroke="none" stroke-linejoin="round" fill="white" fill-opacity="1"/>
<path d="M354.325 225 L384.425 225 M384.425 255 L354.325 255" stroke-width="0.5" stroke="black" stroke-linejoin="round" fill="white" fill-opacity="1"/>
<!-- !right !both --><path d="M384.425 225 L384.425 255" stroke-width="0.5" stroke="black" stroke-linejoin="round" fill="white" fill-opacity="1"/>
<!-- !left !both --><path d="M354.325 225 L354.325 255" stroke-width="0.5" stroke="black" stroke-linejoin="round" fill="white" fill-opacity="1"/>


<!-- renderPart: cylinder -->
<path d="M384.325 232.5 L391.925 232.5 L391.925 247.5 L384.325 247.5 L384.325 232.5" stroke-width="0" stroke="none" stroke-linejoin="round" fill="white" fill-opacity="1"/>
<path d="M384.325 232.5 L391.925 232.5 M391.925 247.5 L384.325 247.5" stroke-width="0.5" stroke="black" stroke-linejoin="round" fill="white" fill-opacity="1"/>
<!-- !right !both --><path d="M391.925 232.5 L391.925 247.5" stroke-width="0.5" stroke="black" stroke-linejoin="round" fill="white" fill-opacity="1"/>
<!-- !left !both --><path d="M384.325 232.5 L384.325 247.5" stroke-width="0.5" stroke="black" stroke-linejoin="round" fill="white" fill-opacity="1"/>


<!-- renderPart: cylinder -->
<path d="M384.325 230 L876.925 230 L876.925 250 L384.325 250 L384.325 230" stroke-width="0" stroke="none" stroke-linejoin="round" fill="white" fill-opacity="1"/>
<path d="M384.325 230 L876.925 230 M876.925 250 L384.325 250" stroke-width="0.5" stroke="black" stroke-linejoin="round" fill="white" fill-opacity="1"/>
<!-- !right !both --><path d="M876.925 230 L876.925 250" stroke-width="0.5" stroke="black" stroke-linejoin="round" fill="white" fill-opacity="1"/>
<!-- !left !both --><path d="M384.325 230 L384.325 250" stroke-width="0.5" stroke="black" stroke-linejoin="round" fill="white" fill-opacity="1"/>


<!-- Previous part white -->


<!-- renderPart: cylinder -->
<path d="M384.325 232.5 L391.925 232.5 L391.925 247.5 L384.325 247.5 L384.325 232.5" stroke-width="0" stroke="none" stroke-linejoin="round" fill="white" fill-opacity="1"/>
<path d="M384.325 232.5 L391.925 232.5 M391.925 247.5 L384.325 247.5" stroke-width="0.5" stroke="black" stroke-linejoin="round" fill="white" fill-opacity="1"/>
<!-- !right !both --><path d="M391.925 232.5 L391.925 247.5" stroke-width="0.5" stroke="black" stroke-linejoin="round" fill="white" fill-opacity="1"/>
<!-- !left !both --><path d="M384.325 232.5 L384.325 247.5" stroke-width="0.5" stroke="black" stroke-linejoin="round" fill="white" fill-opacity="1"/>
<line x1="318.125" y1="240" x2="916.875" y2="240" stroke-linecap="round" stroke="blue"  stroke-width="2" />
<line x1="916.875" y1="240" x2="916.875" y2="300" stroke="blue" stroke-linecap="round"  stroke-width="2" />


<!-- renderPart: cylinder -->
<path d="M815.575 345 L880.675 345 L880.675 375 L815.575 375 L815.575 345" stroke-width="0" stroke="none" stroke-linejoin="round" fill="white" fill-opacity="1"/>
<path d="M815.575 345 L880.675 345 M880.675 375 L815.575 375" stroke-width="0.5" stroke="black" stroke-linejoin="round" fill="white" fill-opacity="1"/>
<!-- !right !both --><path d="M880.675 345 L880.675 375" stroke-width="0.5" stroke="black" stroke-linejoin="round" fill="white" fill-opacity="1"/>
<!-- !left !both --><path d="M815.575 345 L815.575 375" stroke-width="0.5" stroke="black" stroke-linejoin="round" fill="white" fill-opacity="1"/>
<line x1="880.625" y1="360" x2="775.625" y2="360" stroke-linecap="round" stroke="green"  stroke-width="2" />
<line x1="775.625" y1="360" x2="775.625" y2="300" stroke="green" stroke-linecap="round"  stroke-width="2" />


<!-- renderSideComponent: shaft cap -->


<!-- renderPart: cylinder -->
<path d="M880.575 346.25 L911.925 346.25 L911.925 373.75 L880.575 373.75 L880.575 346.25" stroke-width="0" stroke="none" stroke-linejoin="round" fill="white" fill-opacity="1"/>
<path d="M880.575 346.25 L911.925 346.25 M911.925 373.75 L880.575 373.75" stroke-width="0.5" stroke="black" stroke-linejoin="round" fill="white" fill-opacity="1"/>
<!-- !right !both --><path d="M911.925 346.25 L911.925 373.75" stroke-width="0.5" stroke="black" stroke-linejoin="round" fill="white" fill-opacity="1"/>
<!-- !left !both --><path d="M880.575 346.25 L880.575 373.75" stroke-width="0.5" stroke="black" stroke-linejoin="round" fill="white" fill-opacity="1"/>
<line x1="880.625" y1="360" x2="951.875" y2="360" stroke-linecap="round" stroke="blue"  stroke-width="2" />
<line x1="951.875" y1="360" x2="951.875" y2="420" stroke="blue" stroke-linecap="round"  stroke-width="2" />


<!-- renderPart: cylinder -->
<path d="M886.825 468.75 L913.175 468.75 L913.175 491.25 L886.825 491.25 L886.825 468.75" stroke-width="0" stroke="none" stroke-linejoin="round" fill="white" fill-opacity="1"/>
<path d="M886.825 468.75 L913.175 468.75 M913.175 491.25 L886.825 491.25" stroke-width="0.5" stroke="black" stroke-linejoin="round" fill="white" fill-opacity="1"/>
<!-- !right !both --><path d="M913.175 468.75 L913.175 491.25" stroke-width="0.5" stroke="black" stroke-linejoin="round" fill="white" fill-opacity="1"/>
<!-- !left !both --><path d="M886.825 468.75 L886.825 491.25" stroke-width="0.5" stroke="black" stroke-linejoin="round" fill="white" fill-opacity="1"/>
<line x1="913.125" y1="480" x2="846.875" y2="480" stroke-linecap="round" stroke="green"  stroke-width="2" />
<line x1="846.875" y1="480" x2="846.875" y2="420" stroke="green" stroke-linecap="round"  stroke-width="2" />


<!-- renderSideComponent: shaft eraser -->


<!-- renderPart: cylinder -->
<path d="M913.075 468.75 L943.175 468.75 L943.175 491.25 L913.075 491.25 L913.075 468.75" stroke-width="0" stroke="none" stroke-linejoin="round" fill="white" fill-opacity="1"/>
<path d="M913.075 468.75 L943.175 468.75 M943.175 491.25 L913.075 491.25" stroke-width="0.5" stroke="black" stroke-linejoin="round" fill="white" fill-opacity="1"/>
<!-- !right !both --><path d="M943.175 468.75 L943.175 491.25" stroke-width="0.5" stroke="black" stroke-linejoin="round" fill="white" fill-opacity="1"/>
<!-- !left !both --><path d="M913.075 468.75 L913.075 491.25" stroke-width="0.5" stroke="black" stroke-linejoin="round" fill="white" fill-opacity="1"/>
<line x1="913.125" y1="480" x2="983.125" y2="480" stroke-linecap="round" stroke="blue"  stroke-width="2" />
<line x1="983.125" y1="480" x2="983.125" y2="540" stroke="blue" stroke-linecap="round"  stroke-width="2" />
<line x1="278.125" y1="600" x2="318.125" y2="600" stroke-linecap="round" stroke="purple"  stroke-width="2" />
<line x1="278.125" y1="600" x2="278.125" y2="540" stroke="purple" stroke-linecap="round"  stroke-width="2" />


<!-- renderSideComponent: grip -->


<!-- renderPart: cylinder -->
<path d="M318.075 578.75 L473.175 578.75 L473.175 621.25 L318.075 621.25 L318.075 578.75" stroke-width="0" stroke="none" stroke-linejoin="round" fill="white" fill-opacity="1"/>
<path d="M318.075 578.75 L473.175 578.75 M473.175 621.25 L318.075 621.25" stroke-width="0.5" stroke="black" stroke-linejoin="round" fill="white" fill-opacity="1"/>
<!-- !right !both --><path d="M473.175 578.75 L473.175 621.25" stroke-width="0.5" stroke="black" stroke-linejoin="round" fill="white" fill-opacity="1"/>
<!-- !left !both --><path d="M318.075 578.75 L318.075 621.25" stroke-width="0.5" stroke="black" stroke-linejoin="round" fill="white" fill-opacity="1"/>
<!-- DEFAULT FINISH: knurled --><path d="M318.125 578.75 L473.125 578.75 L473.125 621.25 L318.125 621.25 Z" stroke-width="0.5" stroke="black" fill="url(#knurled)"/>


<!-- renderSideComponent: body -->


<!-- renderPart: cylinder -->
<path d="M473.075 579.375 L804.425 579.375 L804.425 620.625 L473.075 620.625 L473.075 579.375" stroke-width="0" stroke="none" stroke-linejoin="round" fill="white" fill-opacity="1"/>
<path d="M473.075 579.375 L804.425 579.375 M804.425 620.625 L473.075 620.625" stroke-width="0.5" stroke="black" stroke-linejoin="round" fill="white" fill-opacity="1"/>
<!-- !left !both --><path d="M473.075 579.375 L473.075 620.625" stroke-width="0.5" stroke="black" stroke-linejoin="round" fill="white" fill-opacity="1"/>


<!-- renderSideComponent: clip -->


<!-- renderSideComponent: tail -->


<!-- renderPart: cylinder -->
<path d="M804.325 579.375 L890.675 579.375 L890.675 620.625 L804.325 620.625 L804.325 579.375" stroke-width="0" stroke="none" stroke-linejoin="round" fill="white" fill-opacity="1"/>
<path d="M804.325 579.375 L890.675 579.375 M890.675 620.625 L804.325 620.625" stroke-width="0.5" stroke="black" stroke-linejoin="round" fill="white" fill-opacity="1"/>
<!-- !right !both --><path d="M890.675 579.375 L890.675 620.625" stroke-width="0.5" stroke="black" stroke-linejoin="round" fill="white" fill-opacity="1"/>


<!-- renderPart: cylinder -->
<path d="M890.575 580 L906.925 580 L906.925 620 L890.575 620 L890.575 580" stroke-width="0" stroke="none" stroke-linejoin="round" fill="white" fill-opacity="1"/>
<path d="M890.575 580 L906.925 580 M906.925 620 L890.575 620" stroke-width="0.5" stroke="black" stroke-linejoin="round" fill="white" fill-opacity="1"/>
<!-- !right !both --><path d="M906.925 580 L906.925 620" stroke-width="0.5" stroke="black" stroke-linejoin="round" fill="white" fill-opacity="1"/>
<!-- !left !both --><path d="M890.575 580 L890.575 620" stroke-width="0.5" stroke="black" stroke-linejoin="round" fill="white" fill-opacity="1"/>
<line x1="906.875" y1="600" x2="946.875" y2="600" stroke-linecap="round" stroke="orange"  stroke-width="5" />
<line x1="946.875" y1="600" x2="946.875" y2="660" stroke="orange" stroke-linecap="round"  stroke-width="5" />


<!-- renderPart: cylinder -->
<path d="M884.325 704.375 L906.925 704.375 L906.925 735.625 L884.325 735.625 L884.325 704.375" stroke-width="0" stroke="none" stroke-linejoin="round" fill="white" fill-opacity="1"/>
<path d="M884.325 704.375 L906.925 704.375 M906.925 735.625 L884.325 735.625" stroke-width="0.5" stroke="black" stroke-linejoin="round" fill="white" fill-opacity="1"/>
<!-- !right !both --><path d="M906.925 704.375 L906.925 735.625" stroke-width="0.5" stroke="black" stroke-linejoin="round" fill="white" fill-opacity="1"/>
<!-- !left !both --><path d="M884.325 704.375 L884.325 735.625" stroke-width="0.5" stroke="black" stroke-linejoin="round" fill="white" fill-opacity="1"/>
<line x1="906.875" y1="720" x2="844.375" y2="720" stroke-linecap="round" stroke="green"  stroke-width="2" />
<line x1="844.375" y1="720" x2="844.375" y2="660" stroke="green" stroke-linecap="round"  stroke-width="2" />


<!-- renderSideComponent: cap -->


<!-- renderPart: cylinder -->
<path d="M906.825 704.375 L984.425 704.375 L984.425 735.625 L906.825 735.625 L906.825 704.375" stroke-width="0" stroke="none" stroke-linejoin="round" fill="white" fill-opacity="1"/>
<path d="M906.825 704.375 L984.425 704.375 M984.425 735.625 L906.825 735.625" stroke-width="0.5" stroke="black" stroke-linejoin="round" fill="white" fill-opacity="1"/>
<!-- !right !both --><path d="M984.425 704.375 L984.425 735.625" stroke-width="0.5" stroke="black" stroke-linejoin="round" fill="white" fill-opacity="1"/>
<!-- !left !both --><path d="M906.825 704.375 L906.825 735.625" stroke-width="0.5" stroke="black" stroke-linejoin="round" fill="white" fill-opacity="1"/>


<!-- DASHED JOIN -->
<path d="M 318.125 120 L 358.125 120 L 358.125 180 L 261.875 180 L 261.875 240 L 318.125 240 " fill="none" stroke="white" stroke-width="1" stroke-linecap="round"  />
<path d="M 318.125 120 L 358.125 120 L 358.125 180 L 261.875 180 L 261.875 240 L 318.125 240 " fill="none" stroke="black" stroke-width="1" stroke-dasharray="8,4" stroke-linecap="round"  />


<!-- ARROW START -->
<line x1="323.125" y1="120" x2="330.125" y2="120" stroke-linecap="round" stroke="#ffffff" stroke-width="2.0" />
<line x1="323.125" y1="120" x2="337.125" y2="112" stroke-linecap="round" stroke="#ffffff" stroke-width="2.0" />
<line x1="337.125" y1="112" x2="330.125" y2="120" stroke-linecap="round" stroke="#ffffff" stroke-width="2.0" />
<line x1="323.125" y1="120" x2="337.125" y2="128" stroke-linecap="round" stroke="#ffffff" stroke-width="2.0" />
<line x1="337.125" y1="128" x2="330.125" y2="120" stroke-linecap="round" stroke="#ffffff" stroke-width="2.0" />
<line x1="323.125" y1="120" x2="337.125" y2="112" stroke-linecap="round" stroke="#0f0f0f" stroke-width="1.0" />
<line x1="337.125" y1="112" x2="330.125" y2="120" stroke-linecap="round" stroke="#0f0f0f" stroke-width="1.0" />
<line x1="323.125" y1="120" x2="337.125" y2="128" stroke-linecap="round" stroke="#0f0f0f" stroke-width="1.0" />
<line x1="337.125" y1="128" x2="330.125" y2="120" stroke-linecap="round" stroke="#0f0f0f" stroke-width="1.0" />


<!-- ARROW START -->
<line x1="281.875" y1="240" x2="288.875" y2="240" stroke-linecap="round" stroke="#ffffff" stroke-width="2.0" />
<line x1="281.875" y1="240" x2="295.875" y2="232" stroke-linecap="round" stroke="#ffffff" stroke-width="2.0" />
<line x1="295.875" y1="232" x2="288.875" y2="240" stroke-linecap="round" stroke="#ffffff" stroke-width="2.0" />
<line x1="281.875" y1="240" x2="295.875" y2="248" stroke-linecap="round" stroke="#ffffff" stroke-width="2.0" />
<line x1="295.875" y1="248" x2="288.875" y2="240" stroke-linecap="round" stroke="#ffffff" stroke-width="2.0" />
<line x1="281.875" y1="240" x2="295.875" y2="232" stroke-linecap="round" stroke="#0f0f0f" stroke-width="1.0" />
<line x1="295.875" y1="232" x2="288.875" y2="240" stroke-linecap="round" stroke="#0f0f0f" stroke-width="1.0" />
<line x1="281.875" y1="240" x2="295.875" y2="248" stroke-linecap="round" stroke="#0f0f0f" stroke-width="1.0" />
<line x1="295.875" y1="248" x2="288.875" y2="240" stroke-linecap="round" stroke="#0f0f0f" stroke-width="1.0" />
<line x1="318.125" y1="200" x2="318.125" y2="280" stroke="white" stroke-linecap="round"  stroke-width="1" />
<line x1="318.125" y1="200" x2="318.125" y2="280" stroke="dimgray" stroke-linecap="round" stroke-dasharray="3,3" stroke-width="1" />


<!-- DASHED JOIN -->
<path d="M 318.125 240 L 916.875 240 L 916.875 300 L 775.625 300 L 775.625 360 L 880.625 360 " fill="none" stroke="white" stroke-width="1" stroke-linecap="round"  />
<path d="M 318.125 240 L 916.875 240 L 916.875 300 L 775.625 300 L 775.625 360 L 880.625 360 " fill="none" stroke="black" stroke-width="1" stroke-dasharray="8,4" stroke-linecap="round"  />


<!-- ARROW START -->
<line x1="323.125" y1="240" x2="330.125" y2="240" stroke-linecap="round" stroke="#ffffff" stroke-width="2.0" />
<line x1="323.125" y1="240" x2="337.125" y2="232" stroke-linecap="round" stroke="#ffffff" stroke-width="2.0" />
<line x1="337.125" y1="232" x2="330.125" y2="240" stroke-linecap="round" stroke="#ffffff" stroke-width="2.0" />
<line x1="323.125" y1="240" x2="337.125" y2="248" stroke-linecap="round" stroke="#ffffff" stroke-width="2.0" />
<line x1="337.125" y1="248" x2="330.125" y2="240" stroke-linecap="round" stroke="#ffffff" stroke-width="2.0" />
<line x1="323.125" y1="240" x2="337.125" y2="232" stroke-linecap="round" stroke="#0f0f0f" stroke-width="1.0" />
<line x1="337.125" y1="232" x2="330.125" y2="240" stroke-linecap="round" stroke="#0f0f0f" stroke-width="1.0" />
<line x1="323.125" y1="240" x2="337.125" y2="248" stroke-linecap="round" stroke="#0f0f0f" stroke-width="1.0" />
<line x1="337.125" y1="248" x2="330.125" y2="240" stroke-linecap="round" stroke="#0f0f0f" stroke-width="1.0" />


<!-- ARROW START -->
<line x1="795.625" y1="360" x2="802.625" y2="360" stroke-linecap="round" stroke="#ffffff" stroke-width="2.0" />
<line x1="795.625" y1="360" x2="809.625" y2="352" stroke-linecap="round" stroke="#ffffff" stroke-width="2.0" />
<line x1="809.625" y1="352" x2="802.625" y2="360" stroke-linecap="round" stroke="#ffffff" stroke-width="2.0" />
<line x1="795.625" y1="360" x2="809.625" y2="368" stroke-linecap="round" stroke="#ffffff" stroke-width="2.0" />
<line x1="809.625" y1="368" x2="802.625" y2="360" stroke-linecap="round" stroke="#ffffff" stroke-width="2.0" />
<line x1="795.625" y1="360" x2="809.625" y2="352" stroke-linecap="round" stroke="#0f0f0f" stroke-width="1.0" />
<line x1="809.625" y1="352" x2="802.625" y2="360" stroke-linecap="round" stroke="#0f0f0f" stroke-width="1.0" />
<line x1="795.625" y1="360" x2="809.625" y2="368" stroke-linecap="round" stroke="#0f0f0f" stroke-width="1.0" />
<line x1="809.625" y1="368" x2="802.625" y2="360" stroke-linecap="round" stroke="#0f0f0f" stroke-width="1.0" />
<line x1="880.625" y1="320" x2="880.625" y2="400" stroke="white" stroke-linecap="round"  stroke-width="1" />
<line x1="880.625" y1="320" x2="880.625" y2="400" stroke="dimgray" stroke-linecap="round" stroke-dasharray="3,3" stroke-width="1" />


<!-- DASHED JOIN -->
<path d="M 880.625 360 L 951.875 360 L 951.875 420 L 846.875 420 L 846.875 480 L 913.125 480 " fill="none" stroke="white" stroke-width="1" stroke-linecap="round"  />
<path d="M 880.625 360 L 951.875 360 L 951.875 420 L 846.875 420 L 846.875 480 L 913.125 480 " fill="none" stroke="black" stroke-width="1" stroke-dasharray="8,4" stroke-linecap="round"  />


<!-- ARROW START -->
<line x1="885.625" y1="360" x2="892.625" y2="360" stroke-linecap="round" stroke="#ffffff" stroke-width="2.0" />
<line x1="885.625" y1="360" x2="899.625" y2="352" stroke-linecap="round" stroke="#ffffff" stroke-width="2.0" />
<line x1="899.625" y1="352" x2="892.625" y2="360" stroke-linecap="round" stroke="#ffffff" stroke-width="2.0" />
<line x1="885.625" y1="360" x2="899.625" y2="368" stroke-linecap="round" stroke="#ffffff" stroke-width="2.0" />
<line x1="899.625" y1="368" x2="892.625" y2="360" stroke-linecap="round" stroke="#ffffff" stroke-width="2.0" />
<line x1="885.625" y1="360" x2="899.625" y2="352" stroke-linecap="round" stroke="#0f0f0f" stroke-width="1.0" />
<line x1="899.625" y1="352" x2="892.625" y2="360" stroke-linecap="round" stroke="#0f0f0f" stroke-width="1.0" />
<line x1="885.625" y1="360" x2="899.625" y2="368" stroke-linecap="round" stroke="#0f0f0f" stroke-width="1.0" />
<line x1="899.625" y1="368" x2="892.625" y2="360" stroke-linecap="round" stroke="#0f0f0f" stroke-width="1.0" />


<!-- ARROW START -->
<line x1="866.875" y1="480" x2="873.875" y2="480" stroke-linecap="round" stroke="#ffffff" stroke-width="2.0" />
<line x1="866.875" y1="480" x2="880.875" y2="472" stroke-linecap="round" stroke="#ffffff" stroke-width="2.0" />
<line x1="880.875" y1="472" x2="873.875" y2="480" stroke-linecap="round" stroke="#ffffff" stroke-width="2.0" />
<line x1="866.875" y1="480" x2="880.875" y2="488" stroke-linecap="round" stroke="#ffffff" stroke-width="2.0" />
<line x1="880.875" y1="488" x2="873.875" y2="480" stroke-linecap="round" stroke="#ffffff" stroke-width="2.0" />
<line x1="866.875" y1="480" x2="880.875" y2="472" stroke-linecap="round" stroke="#0f0f0f" stroke-width="1.0" />
<line x1="880.875" y1="472" x2="873.875" y2="480" stroke-linecap="round" stroke="#0f0f0f" stroke-width="1.0" />
<line x1="866.875" y1="480" x2="880.875" y2="488" stroke-linecap="round" stroke="#0f0f0f" stroke-width="1.0" />
<line x1="880.875" y1="488" x2="873.875" y2="480" stroke-linecap="round" stroke="#0f0f0f" stroke-width="1.0" />
<line x1="913.125" y1="440" x2="913.125" y2="520" stroke="white" stroke-linecap="round"  stroke-width="1" />
<line x1="913.125" y1="440" x2="913.125" y2="520" stroke="dimgray" stroke-linecap="round" stroke-dasharray="3,3" stroke-width="1" />


<!-- DASHED JOIN -->
<path d="M 913.125 480 L 983.125 480 L 983.125 540 L 278.125 540 L 278.125 600 L 318.125 600 " fill="none" stroke="white" stroke-width="1" stroke-linecap="round"  />
<path d="M 913.125 480 L 983.125 480 L 983.125 540 L 278.125 540 L 278.125 600 L 318.125 600 " fill="none" stroke="black" stroke-width="1" stroke-dasharray="8,4" stroke-linecap="round"  />


<!-- ARROW START -->
<line x1="918.125" y1="480" x2="925.125" y2="480" stroke-linecap="round" stroke="#ffffff" stroke-width="2.0" />
<line x1="918.125" y1="480" x2="932.125" y2="472" stroke-linecap="round" stroke="#ffffff" stroke-width="2.0" />
<line x1="932.125" y1="472" x2="925.125" y2="480" stroke-linecap="round" stroke="#ffffff" stroke-width="2.0" />
<line x1="918.125" y1="480" x2="932.125" y2="488" stroke-linecap="round" stroke="#ffffff" stroke-width="2.0" />
<line x1="932.125" y1="488" x2="925.125" y2="480" stroke-linecap="round" stroke="#ffffff" stroke-width="2.0" />
<line x1="918.125" y1="480" x2="932.125" y2="472" stroke-linecap="round" stroke="#0f0f0f" stroke-width="1.0" />
<line x1="932.125" y1="472" x2="925.125" y2="480" stroke-linecap="round" stroke="#0f0f0f" stroke-width="1.0" />
<line x1="918.125" y1="480" x2="932.125" y2="488" stroke-linecap="round" stroke="#0f0f0f" stroke-width="1.0" />
<line x1="932.125" y1="488" x2="925.125" y2="480" stroke-linecap="round" stroke="#0f0f0f" stroke-width="1.0" />


<!-- ARROW START -->
<line x1="298.125" y1="600" x2="305.125" y2="600" stroke-linecap="round" stroke="#ffffff" stroke-width="2.0" />
<line x1="298.125" y1="600" x2="312.125" y2="592" stroke-linecap="round" stroke="#ffffff" stroke-width="2.0" />
<line x1="312.125" y1="592" x2="305.125" y2="600" stroke-linecap="round" stroke="#ffffff" stroke-width="2.0" />
<line x1="298.125" y1="600" x2="312.125" y2="608" stroke-linecap="round" stroke="#ffffff" stroke-width="2.0" />
<line x1="312.125" y1="608" x2="305.125" y2="600" stroke-linecap="round" stroke="#ffffff" stroke-width="2.0" />
<line x1="298.125" y1="600" x2="312.125" y2="592" stroke-linecap="round" stroke="#0f0f0f" stroke-width="1.0" />
<line x1="312.125" y1="592" x2="305.125" y2="600" stroke-linecap="round" stroke="#0f0f0f" stroke-width="1.0" />
<line x1="298.125" y1="600" x2="312.125" y2="608" stroke-linecap="round" stroke="#0f0f0f" stroke-width="1.0" />
<line x1="312.125" y1="608" x2="305.125" y2="600" stroke-linecap="round" stroke="#0f0f0f" stroke-width="1.0" />


<!-- DASHED JOIN -->
<path d="M 906.875 600 L 946.875 600 L 946.875 660 L 844.375 660 L 844.375 720 L 906.875 720 " fill="none" stroke="white" stroke-width="1" stroke-linecap="round"  />
<path d="M 906.875 600 L 946.875 600 L 946.875 660 L 844.375 660 L 844.375 720 L 906.875 720 " fill="none" stroke="black" stroke-width="1" stroke-dasharray="8,4" stroke-linecap="round"  />


<!-- ARROW START -->
<line x1="911.875" y1="600" x2="918.875" y2="600" stroke-linecap="round" stroke="#ffffff" stroke-width="2.0" />
<line x1="911.875" y1="600" x2="925.875" y2="592" stroke-linecap="round" stroke="#ffffff" stroke-width="2.0" />
<line x1="925.875" y1="592" x2="918.875" y2="600" stroke-linecap="round" stroke="#ffffff" stroke-width="2.0" />
<line x1="911.875" y1="600" x2="925.875" y2="608" stroke-linecap="round" stroke="#ffffff" stroke-width="2.0" />
<line x1="925.875" y1="608" x2="918.875" y2="600" stroke-linecap="round" stroke="#ffffff" stroke-width="2.0" />
<line x1="911.875" y1="600" x2="925.875" y2="592" stroke-linecap="round" stroke="#0f0f0f" stroke-width="1.0" />
<line x1="925.875" y1="592" x2="918.875" y2="600" stroke-linecap="round" stroke="#0f0f0f" stroke-width="1.0" />
<line x1="911.875" y1="600" x2="925.875" y2="608" stroke-linecap="round" stroke="#0f0f0f" stroke-width="1.0" />
<line x1="925.875" y1="608" x2="918.875" y2="600" stroke-linecap="round" stroke="#0f0f0f" stroke-width="1.0" />


<!-- ARROW START -->
<line x1="864.375" y1="720" x2="871.375" y2="720" stroke-linecap="round" stroke="#ffffff" stroke-width="2.0" />
<line x1="864.375" y1="720" x2="878.375" y2="712" stroke-linecap="round" stroke="#ffffff" stroke-width="2.0" />
<line x1="878.375" y1="712" x2="871.375" y2="720" stroke-linecap="round" stroke="#ffffff" stroke-width="2.0" />
<line x1="864.375" y1="720" x2="878.375" y2="728" stroke-linecap="round" stroke="#ffffff" stroke-width="2.0" />
<line x1="878.375" y1="728" x2="871.375" y2="720" stroke-linecap="round" stroke="#ffffff" stroke-width="2.0" />
<line x1="864.375" y1="720" x2="878.375" y2="712" stroke-linecap="round" stroke="#0f0f0f" stroke-width="1.0" />
<line x1="878.375" y1="712" x2="871.375" y2="720" stroke-linecap="round" stroke="#0f0f0f" stroke-width="1.0" />
<line x1="864.375" y1="720" x2="878.375" y2="728" stroke-linecap="round" stroke="#0f0f0f" stroke-width="1.0" />
<line x1="878.375" y1="728" x2="871.375" y2="720" stroke-linecap="round" stroke="#0f0f0f" stroke-width="1.0" />
<line x1="906.875" y1="680" x2="906.875" y2="760" stroke="white" stroke-linecap="round"  stroke-width="1" />
<line x1="906.875" y1="680" x2="906.875" y2="760" stroke="dimgray" stroke-linecap="round" stroke-dasharray="3,3" stroke-width="1" />
</g><text x="50%" y="800" font-size="1.1em" font-weight="bold" text-anchor="middle" dominant-baseline="middle">Copyright (c) // Synapticloop // The Mechanical Pencil Database (tmpdb)</text>
<text x="50%" y="820" font-size="1.1em" font-weight="bold" text-anchor="middle" dominant-baseline="middle">Licensed under Creative Commons Attribution-NonCommercial-ShareAlike 4.0 International</text>
<text x="1190" y="830" font-size="0.5em" font-weight="bold" text-anchor="end" dominant-baseline="middle">SVGTechnicalExplodedRenderer</text>
</svg>