<svg xmlns="http://www.w3.org/2000/svg" width="1500" height="600">
<pattern id="diagonalHatch" patternUnits="userSpaceOnUse" width="8" height="8">
<rect width="6" height="6" fill='none'/>
<path stroke="dimgray" stroke-linecap="round" stroke-width="1" d="M 4,4 L 8,8"/>
<path stroke="dimgray" stroke-linecap="round" stroke-width="1" d="M 4,4 L 0,8"/>
<path stroke="gray" stroke-linecap="round" stroke-width="1" d="M 4,4 L 8,0" />
<path stroke="gray" stroke-linecap="round" stroke-width="1" d="M 4,4 L 0,0" />
</pattern>
<rect x="0" y="0" width="1500" height="600" fill="white" stroke="black" stroke-width="4" />
<rect x="2" y="2" width="1496" height="596" fill="white" stroke="orange" stroke-width="1" />
<text x="30" y="50" font-size="2.0em" font-weight="bold"> OHTO // Sharp Pencil 2.0 (Model #: APS-680E)</text>
<text x="30" y="80" font-size="1.1em"> OHTO Sharp Pencil 2.0 JAPAN</text>
<line x1="100" y1="272.5" x2="1400" y2="272.5" stroke="#cfcfcf" stroke-width="1" />
<line x1="100" y1="327.5" x2="1400" y2="327.5" stroke="#cfcfcf" stroke-width="1" />
<line x1="128.24573519457059" y1="347.5" x2="128.24573519457059" y2="300" stroke="#cfcfcf" stroke-width="1" />
<line x1="191.75426480542941" y1="347.5" x2="191.75426480542941" y2="300" stroke="#cfcfcf" stroke-width="1" />
<line x1="408.75" y1="184.5" x2="408.75" y2="447.5" stroke="#cfcfcf" stroke-width="1" />
<line x1="446.25" y1="184.5" x2="446.25" y2="447.5" stroke="#cfcfcf" stroke-width="1" />
<line x1="471.25" y1="184.5" x2="471.25" y2="447.5" stroke="#cfcfcf" stroke-width="1" />
<line x1="961.25" y1="184.5" x2="961.25" y2="447.5" stroke="#cfcfcf" stroke-width="1" />
<line x1="1031.25" y1="184.5" x2="1031.25" y2="447.5" stroke="#cfcfcf" stroke-width="1" />
<line x1="1066.25" y1="184.5" x2="1066.25" y2="447.5" stroke="#cfcfcf" stroke-width="1" />
<line x1="1091.25" y1="184.5" x2="1091.25" y2="427.5" stroke="#cfcfcf" stroke-width="1" />
<line x1="100" y1="272.5" x2="120" y2="272.5" stroke="black" stroke-width="1" />
<line x1="100" y1="327.5" x2="120" y2="327.5" stroke="black" stroke-width="1" />
<line x1="110" y1="327.5" x2="110" y2="272.5" stroke="black" stroke-width="1" />
<text x="90" y="300" transform="rotate(-90, 90, 300)" font-size="1.2em" font-weight="bold" text-anchor="middle" dominant-baseline="central">11.00 mm</text>
<text x="160" y="540" font-size="1.8em" font-weight="bold" text-anchor="middle" dominant-baseline="central">Front</text>
<line x1="128.24573519457059" y1="357.5" x2="191.75426480542941" y2="357.5" stroke="black" stroke-width="1" />
<line x1="128.24573519457059" y1="347.5" x2="128.24573519457059" y2="367.5" stroke="black" stroke-width="1" />
<line x1="191.75426480542941" y1="347.5" x2="191.75426480542941" y2="367.5" stroke="black" stroke-width="1" />
<text x="160" y="377.5" font-size="1.2em" font-weight="bold" text-anchor="middle" dominant-baseline="central">12.70 mm</text>
<line x1="408.75" y1="173.5" x2="408.75" y2="195.5" stroke="black" stroke-width="1" /><text x="427.5" y="170.5" transform="rotate(-90, 427.5, 170.5)" font-size="1.2em" font-weight="bold" dominant-baseline="middle">7.50 mm tip</text>
<line x1="446.25" y1="173.5" x2="446.25" y2="195.5" stroke="black" stroke-width="1" /><text x="458.75" y="170.5" transform="rotate(-90, 458.75, 170.5)" font-size="1.2em" font-weight="bold" dominant-baseline="middle">5.00 mm head</text>
<line x1="471.25" y1="173.5" x2="471.25" y2="195.5" stroke="black" stroke-width="1" /><text x="713.25" y="170.5" transform="rotate(-90, 713.25, 170.5)" font-size="1.2em" font-weight="bold" dominant-baseline="auto">98.00 mm</text>
<text x="719.25" y="170.5" transform="rotate(-90, 719.25, 170.5)" font-size="1.2em" font-weight="bold" dominant-baseline="hanging">body</text>
<line x1="961.25" y1="173.5" x2="961.25" y2="195.5" stroke="black" stroke-width="1" /><text x="993.25" y="170.5" transform="rotate(-90, 993.25, 170.5)" font-size="1.2em" font-weight="bold" dominant-baseline="auto">14.00 mm</text>
<text x="999.25" y="170.5" transform="rotate(-90, 999.25, 170.5)" font-size="1.2em" font-weight="bold" dominant-baseline="hanging">ferrule</text>
<line x1="1031.25" y1="173.5" x2="1031.25" y2="195.5" stroke="black" stroke-width="1" /><text x="1048.75" y="170.5" transform="rotate(-90, 1048.75, 170.5)" font-size="1.2em" font-weight="bold" dominant-baseline="middle">7.00 mm cap</text>
<line x1="1066.25" y1="173.5" x2="1066.25" y2="195.5" stroke="black" stroke-width="1" /><text x="1078.75" y="170.5" transform="rotate(-90, 1078.75, 170.5)" font-size="1.2em" font-weight="bold" dominant-baseline="middle">5.00 mm eraser</text>
<line x1="1091.25" y1="195.5" x2="1091.25" y2="173.5" stroke="black" stroke-width="1" />
<line x1="408.75" y1="184.5" x2="1091.25" y2="184.5" stroke="black" stroke-width="1" />
<line x1="408.75" y1="357.5" x2="1091.25" y2="357.5" stroke="black" stroke-width="1" />
<line x1="408.75" y1="347.5" x2="408.75" y2="367.5" stroke="black" stroke-width="1" />
<line x1="1091.25" y1="347.5" x2="1091.25" y2="367.5" stroke="black" stroke-width="1" />
<text x="750" y="377.5" font-size="1.2em" font-weight="bold" text-anchor="middle" dominant-baseline="central">136.50 mm</text>
<text x="750" y="540" font-size="1.8em" font-weight="bold" text-anchor="middle" dominant-baseline="central">Side view</text>
<text x="1400" y="540" font-size="1.8em" font-weight="bold" text-anchor="middle" dominant-baseline="central">Back</text>
<line x1="408.75" y1="427.5" x2="408.75" y2="451.5" stroke="black" stroke-width="1" />
<text x="427.5" y="453.5" transform="rotate(-90, 427.5, 453.5)" font-size="1.2em" text-anchor="end" dominant-baseline="middle">metal</text>
<line x1="446.25" y1="427.5" x2="446.25" y2="451.5" stroke="black" stroke-width="1" />
<text x="458.75" y="453.5" transform="rotate(-90, 458.75, 453.5)" font-size="1.2em" text-anchor="end" dominant-baseline="middle">wood</text>
<line x1="471.25" y1="427.5" x2="471.25" y2="451.5" stroke="black" stroke-width="1" />
<text x="716.25" y="453.5" transform="rotate(-90, 716.25, 453.5)" font-size="1.2em" text-anchor="end" dominant-baseline="middle">wood</text>
<line x1="961.25" y1="427.5" x2="961.25" y2="451.5" stroke="black" stroke-width="1" />
<text x="996.25" y="453.5" transform="rotate(-90, 996.25, 453.5)" font-size="1.2em" text-anchor="end" dominant-baseline="middle">metal</text>
<line x1="1031.25" y1="427.5" x2="1031.25" y2="451.5" stroke="black" stroke-width="1" />
<text x="1048.75" y="453.5" transform="rotate(-90, 1048.75, 453.5)" font-size="1.2em" text-anchor="end" dominant-baseline="middle">metal</text>
<line x1="1066.25" y1="427.5" x2="1066.25" y2="451.5" stroke="black" stroke-width="1" />
<text x="1078.75" y="453.5" transform="rotate(-90, 1078.75, 453.5)" font-size="1.2em" text-anchor="end" dominant-baseline="middle">rubber</text>
<line x1="1091.25" y1="427.5" x2="1091.25" y2="451.5" stroke="black" stroke-width="1" />
<line x1="408.75" y1="439.5" x2="1091.25" y2="439.5" stroke="black" stroke-width="1" />

<!-- RENDERING - component: tip -->
<circle r="8.125" cx="1400" cy="300" stroke="dimgray" stroke-width="1" fill="#E1C16E" />

<circle r="18.75" cx="1400" cy="300" stroke="dimgray" stroke-width="1" fill="#E1C16E" />
<circle r="8.125" cx="1400" cy="300" stroke="dimgray" stroke-width="1" fill="#E1C16E" />


<!-- RENDERING - component: head -->
<circle r="27.5" cx="1400" cy="300" stroke="dimgray" stroke-width="1" fill="#b88160" />
<circle r="20" cx="1400" cy="300" stroke="dimgray" stroke-width="1" fill="#b88160" />


<!-- RENDERING - component: body -->
<polygon points="1384.1228675972852,272.5 1415.8771324027148,272.5 1431.7542648054293,300 1415.8771324027148,327.5 1384.1228675972852,327.5 1368.2457351945707,300 " stroke="dimgray" stroke-width="1" fill="#5d191d"/>


<!-- RENDERING - component: ferrule -->
<circle r="25.625" cx="1400" cy="300" stroke="dimgray" stroke-width="1" fill="#E1C16E" />


<!-- RENDERING - component: cap -->
<circle r="23.125" cx="1400" cy="300" stroke="dimgray" stroke-width="1" fill="#E1C16E" />

<circle r="25" cx="1400" cy="300" stroke="dimgray" stroke-width="1" fill="#E1C16E" />


<!-- RENDERING - component: eraser -->
<circle r="23.125" cx="1400" cy="300" stroke="dimgray" stroke-width="1" fill="#db756d" />

<circle r="23.125" cx="160" cy="300" stroke="dimgray" stroke-width="1" fill="#db756d" />


<!-- RENDERING - component: eraser -->
<circle r="25" cx="160" cy="300" stroke="dimgray" stroke-width="1" fill="#E1C16E" />

<circle r="23.125" cx="160" cy="300" stroke="dimgray" stroke-width="1" fill="#E1C16E" />


<!-- RENDERING - component: cap -->
<circle r="25.625" cx="160" cy="300" stroke="dimgray" stroke-width="1" fill="#E1C16E" />


<!-- RENDERING - component: ferrule -->
<polygon points="144.12286759728528,272.5 175.87713240271472,272.5 191.75426480542941,300 175.87713240271472,327.5 144.12286759728528,327.5 128.24573519457059,300 " stroke="dimgray" stroke-width="1" fill="#5d191d"/>


<!-- RENDERING - component: body -->
<circle r="20" cx="160" cy="300" stroke="dimgray" stroke-width="1" fill="#b88160" />
<circle r="27.5" cx="160" cy="300" stroke="dimgray" stroke-width="1" fill="#b88160" />


<!-- RENDERING - component: head -->
<circle r="8.125" cx="160" cy="300" stroke="dimgray" stroke-width="1" fill="#E1C16E" />
<circle r="18.75" cx="160" cy="300" stroke="dimgray" stroke-width="1" fill="#E1C16E" />

<circle r="8.125" cx="160" cy="300" stroke="dimgray" stroke-width="1" fill="#E1C16E" />


<!-- RENDERING - component: tip -->
<circle cx="160" cy="300" r="5" stroke="dimgray" stroke-width="0.5" fill="black" />
<!-- RENDERING - component: tip -->
<!-- RENDERING - part: cylinder -->
<rect x="408.75" y="291.875" width="12.5" height="16.25" rx="1" ry="1" stroke-width="0.5" stroke="black" fill="#E1C16E"/>

<!-- RENDERING - part: cone -->
<path d="M421.25 291.875 L446.25 281.25 L446.25 318.75 L421.25 308.125 Z" stroke-width="0.5" stroke="black" fill="#E1C16E" />


<!-- RENDERING - component: head -->
<!-- RENDERING - part: cone -->
<path d="M446.25 280 L471.25 272.5 L471.25 327.5 L446.25 320 Z" stroke-width="0.5" stroke="black" fill="#b88160" />


<!-- RENDERING - component: body -->
<!-- RENDERING - part: hexagonal -->
<rect x="471.25" y="272.5" width="490" height="55" rx="1" ry="1" stroke-width="0.5" stroke="black" fill="#5d191d"/>
<line x1="471.25" y1="300" x2="961.25" y2="300" stroke-width="1.5" stroke="black" fill="none" stroke-opacity="0.5"/>
<line x1="471.25" y1="300" x2="961.25" y2="300" stroke-width="0.5" stroke="gray" fill="none" stroke-opacity="0.5"/>


<!-- RENDERING - component: ferrule -->
<!-- RENDERING - part: cylinder -->
<rect x="961.25" y="274.375" width="70" height="51.25" rx="1" ry="1" stroke-width="0.5" stroke="black" fill="#E1C16E"/>
<line x1="969.3269230769231" y1="275.375" x2="969.3269230769231" y2="324.625" stroke-width="1" stroke="gray" />
<line x1="974.7115384615385" y1="275.375" x2="974.7115384615385" y2="324.625" stroke-width="1" stroke="gray" />
<line x1="980.0961538461538" y1="275.375" x2="980.0961538461538" y2="324.625" stroke-width="1" stroke="gray" />
<line x1="985.4807692307693" y1="275.375" x2="985.4807692307693" y2="324.625" stroke-width="1" stroke="gray" />
<line x1="990.8653846153846" y1="275.375" x2="990.8653846153846" y2="324.625" stroke-width="1" stroke="gray" />
<line x1="1001.6346153846154" y1="275.375" x2="1001.6346153846154" y2="324.625" stroke-width="1" stroke="gray" />
<line x1="1007.0192307692307" y1="275.375" x2="1007.0192307692307" y2="324.625" stroke-width="1" stroke="gray" />
<line x1="1012.4038461538462" y1="275.375" x2="1012.4038461538462" y2="324.625" stroke-width="1" stroke="gray" />
<line x1="1017.7884615384615" y1="275.375" x2="1017.7884615384615" y2="324.625" stroke-width="1" stroke="gray" />
<line x1="1023.1730769230769" y1="275.375" x2="1023.1730769230769" y2="324.625" stroke-width="1" stroke="gray" />
<circle r="4" cx="976.25" cy="287.1875" stroke="dimgray" stroke-width="1" fill="dimGray" />


<!-- RENDERING - component: cap -->
<!-- RENDERING - part: cylinder -->
<rect x="1031.25" y="276.875" width="25" height="46.25" rx="1" ry="1" stroke-width="0.5" stroke="black" fill="#E1C16E"/>

<!-- RENDERING - part: cylinder -->
<rect x="1056.25" y="275" width="10" height="50" rx="1" ry="1" stroke-width="0.5" stroke="black" fill="#E1C16E"/>


<!-- RENDERING - component: eraser -->
<!-- RENDERING - part: cylinder -->
<rect x="1066.25" y="276.875" width="25" height="46.25" rx="1" ry="1" stroke-width="0.5" stroke="black" fill="#db756d"/>

<text x="1480" y="30" font-size="1.6em" font-weight="bold" text-anchor="end" dominant-baseline="central">'body' colour variants</text>
<rect x="1440" y="55" width="40" rx="50%" ry="50%" height="40" stroke="black" stroke-width="2" fill="#e38f0f" />
<text x="1460" y="100" transform="rotate(-90, 1460, 100)" font-size="1.2em" font-weight="bold" text-anchor="end" dominant-baseline="central">yellow</text>
<rect x="1380" y="55" width="40" rx="50%" ry="50%" height="40" stroke="black" stroke-width="2" fill="#1a4b88" />
<text x="1400" y="100" transform="rotate(-90, 1400, 100)" font-size="1.2em" font-weight="bold" text-anchor="end" dominant-baseline="central">blue</text>
<rect x="1320" y="55" width="40" rx="50%" ry="50%" height="40" stroke="black" stroke-width="2" fill="#053439" />
<text x="1340" y="100" transform="rotate(-90, 1340, 100)" font-size="1.2em" font-weight="bold" text-anchor="end" dominant-baseline="central">green</text>
<rect x="1260" y="55" width="40" rx="50%" ry="50%" height="40" stroke="black" stroke-width="2" fill="#5d191d" />
<text x="1280" y="100" transform="rotate(-90, 1280, 100)" font-size="1.2em" font-weight="bold" text-anchor="end" dominant-baseline="central">red</text>
<rect x="1200" y="55" width="40" rx="50%" ry="50%" height="40" stroke="black" stroke-width="2" fill="#b88160" />
<text x="1220" y="100" transform="rotate(-90, 1220, 100)" font-size="1.2em" font-weight="bold" text-anchor="end" dominant-baseline="central">wood</text>
<rect x="1140" y="55" width="40" rx="50%" ry="50%" height="40" stroke="black" stroke-width="2" fill="black" />
<text x="1160" y="100" transform="rotate(-90, 1160, 100)" font-size="1.2em" font-weight="bold" text-anchor="end" dominant-baseline="central">black</text>
<text x="30" y="106" font-size="1.2em" font-weight="bold" text-anchor="start" dominant-baseline="central">Materials:</text>
<text x="50" y="126" font-size="1.2em" text-anchor="start" dominant-baseline="central"> - metal</text>
<text x="50" y="146" font-size="1.2em" text-anchor="start" dominant-baseline="central"> - wood</text>
<text x="50" y="166" font-size="1.2em" text-anchor="start" dominant-baseline="central"> - rubber</text>
<text x="50%" y="580" font-size="1.1em" font-weight="bold" text-anchor="middle" dominant-baseline="middle">Copyright (c) // The Mechanical Pencil Database (tmpdb) // Licensed under Creative Commons Attribution-NonCommercial-ShareAlike 4.0 International</text>
</svg>
