<svg xmlns="http://www.w3.org/2000/svg" width="1200" height="480">
 <pattern id="knurled-large" patternUnits="userSpaceOnUse" width="12" height="12">
<path stroke="dimgray" stroke-linecap="round" stroke-width="1" d="M 6,6 L 12,12"/>
<path stroke="dimgray" stroke-linecap="round" stroke-width="1" d="M 6,6 L 0,12"/>
<path stroke="gray" stroke-linecap="round" stroke-width="1" d="M 6,6 L 12,0" />
<path stroke="gray" stroke-linecap="round" stroke-width="1" d="M 6,6 L 0,0" />
</pattern><pattern id="knurled-small" patternUnits="userSpaceOnUse" width="4" height="4">
<path stroke="dimgray" stroke-linecap="round" stroke-width="1" d="M 2,2 L 4,4"/>
<path stroke="dimgray" stroke-linecap="round" stroke-width="1" d="M 2,2 L 0,4"/>
<path stroke="gray" stroke-linecap="round" stroke-width="1" d="M 2,2 L 4,0" />
<path stroke="gray" stroke-linecap="round" stroke-width="1" d="M 2,2 L 0,0" />
</pattern><pattern id="knurled" patternUnits="userSpaceOnUse" width="8" height="8">
<path stroke="dimgray" stroke-linecap="round" stroke-width="1" d="M 4,4 L 8,8"/>
<path stroke="dimgray" stroke-linecap="round" stroke-width="1" d="M 4,4 L 0,8"/>
<path stroke="gray" stroke-linecap="round" stroke-width="1" d="M 4,4 L 8,0" />
<path stroke="gray" stroke-linecap="round" stroke-width="1" d="M 4,4 L 0,0" />
</pattern><pattern id="lined" patternUnits="userSpaceOnUse" width="3" height="3">
<path stroke="dimgray" stroke-linecap="round" stroke-width="1" d="M 0,0 L 3,0"/>
</pattern><pattern id="ridged" patternUnits="userSpaceOnUse" width="3" height="3">
<path stroke="dimgray" stroke-linecap="round" stroke-width="1" d="M 0,0 L 0,3"/>
</pattern><rect x="0" y="0" width="1200" height="480" fill="white" stroke="black" stroke-width="4" />
<rect x="2" y="2" width="1196" height="476" fill="white" stroke="dimgray" stroke-width="1" />
<g transform="rotate(0 0 0)">
<text x="30" y="50" font-size="2.0em" font-weight="bold"> Pacific Arc // COLLEGIATE (Model #: H-1301)</text>


<!-- renderExplodedSideComponents -->


<!-- renderSideComponent: tip -->


<!-- renderPart: cylinder -->
<path d="M238.075 111.25 L256.925 111.25 L256.925 128.75 L238.075 128.75 Z" stroke-width="0" stroke="none" stroke-linejoin="round" fill="white" fill-opacity="1"/>
<path d="M238.125 111.25 L256.875 111.25 M256.875 128.75 L238.125 128.75" stroke-width="0.5" stroke="black" stroke-linejoin="round" fill="white" fill-opacity="1"/>
<!-- !left !both--><path d="M238.125 111.25 L238.125 128.75" stroke-width="0.5" stroke="black" stroke-linejoin="round" fill="white" fill-opacity="1"/>
<!-- !right !both --><path d="M256.875 111.25 L256.875 128.75" stroke-width="0.5" stroke="black" stroke-linejoin="round" fill="white" fill-opacity="1"/>


<!-- renderPart: cone -->
<path d="M256.825 107.5 L281.925 101.25 L281.925 138.75 L256.825 132.5 Z" stroke-width="0" stroke="none" stroke-linejoin="round" fill="white" fill-opacity="1"/>
<path d="M256.875 107.5 L281.875 101.25 M281.875 138.75 L256.875 132.5" stroke-width="0.5" stroke="black" stroke-linejoin="round" fill="white" fill-opacity="1"/>
<!-- !left !both--><path d="M256.875 107.5 L256.875 132.5" stroke-width="0.5" stroke="black" stroke-linejoin="round" fill="white" fill-opacity="1"/>
<!-- !right !both --><path d="M281.875 101.25 L281.875 138.75" stroke-width="0.5" stroke="black" stroke-linejoin="round" fill="white" fill-opacity="1"/>


<!-- renderPart: cylinder -->
<path d="M281.825 101.25 L303.175 101.25 L303.175 138.75 L281.825 138.75 Z" stroke-width="0" stroke="none" stroke-linejoin="round" fill="white" fill-opacity="1"/>
<path d="M281.875 101.25 L303.125 101.25 M303.125 138.75 L281.875 138.75" stroke-width="0.5" stroke="black" stroke-linejoin="round" fill="white" fill-opacity="1"/>
<!-- !left !both--><path d="M281.875 101.25 L281.875 138.75" stroke-width="0.5" stroke="black" stroke-linejoin="round" fill="white" fill-opacity="1"/>
<!-- !right !both --><path d="M303.125 101.25 L303.125 138.75" stroke-width="0.5" stroke="black" stroke-linejoin="round" fill="white" fill-opacity="1"/>


<!-- renderPart: cylinder -->
<path d="M303.075 100 L319.425 100 L319.425 140 L303.075 140 Z" stroke-width="0" stroke="none" stroke-linejoin="round" fill="white" fill-opacity="1"/>
<path d="M303.125 100 L319.375 100 M319.375 140 L303.125 140" stroke-width="0.5" stroke="black" stroke-linejoin="round" fill="white" fill-opacity="1"/>
<!-- !left !both--><path d="M303.125 100 L303.125 140" stroke-width="0.5" stroke="black" stroke-linejoin="round" fill="white" fill-opacity="1"/>
<!-- !right !both --><path d="M319.375 100 L319.375 140" stroke-width="0.5" stroke="black" stroke-linejoin="round" fill="white" fill-opacity="1"/>


<!-- renderPart: cylinder -->
<path d="M319.325 98.125 L331.925 98.125 L331.925 141.875 L319.325 141.875 Z" stroke-width="0" stroke="none" stroke-linejoin="round" fill="white" fill-opacity="1"/>
<path d="M319.375 98.125 L331.875 98.125 M331.875 141.875 L319.375 141.875" stroke-width="0.5" stroke="black" stroke-linejoin="round" fill="white" fill-opacity="1"/>
<!-- !left !both--><path d="M319.375 98.125 L319.375 141.875" stroke-width="0.5" stroke="black" stroke-linejoin="round" fill="white" fill-opacity="1"/>
<!-- !right !both --><path d="M331.875 98.125 L331.875 141.875" stroke-width="0.5" stroke="black" stroke-linejoin="round" fill="white" fill-opacity="1"/>


<!-- renderPart: cylinder -->
<path d="M314.325 223.125 L331.925 223.125 L331.925 256.875 L314.325 256.875 Z" stroke-width="0" stroke="none" stroke-linejoin="round" fill="white" fill-opacity="1"/>
<path d="M314.375 223.125 L331.875 223.125 M331.875 256.875 L314.375 256.875" stroke-width="0.5" stroke="black" stroke-linejoin="round" fill="white" fill-opacity="1"/>
<!-- !left !both--><path d="M314.375 223.125 L314.375 256.875" stroke-width="0.5" stroke="black" stroke-linejoin="round" fill="white" fill-opacity="1"/>
<!-- !right !both --><path d="M331.875 223.125 L331.875 256.875" stroke-width="0.5" stroke="black" stroke-linejoin="round" fill="white" fill-opacity="1"/>
<line x1="314.375" y1="223.125" x2="319.375" y2="256.875" stroke="dimgray" stroke-linecap="round" stroke-width="2" />
<line x1="314.375" y1="223.125" x2="319.375" y2="256.875" stroke="[object Object]" stroke-linecap="round" stroke-width="1" />
<line x1="319.375" y1="223.125" x2="324.375" y2="256.875" stroke="dimgray" stroke-linecap="round" stroke-width="2" />
<line x1="319.375" y1="223.125" x2="324.375" y2="256.875" stroke="[object Object]" stroke-linecap="round" stroke-width="1" />
<line x1="324.375" y1="223.125" x2="329.375" y2="256.875" stroke="dimgray" stroke-linecap="round" stroke-width="2" />
<line x1="324.375" y1="223.125" x2="329.375" y2="256.875" stroke="[object Object]" stroke-linecap="round" stroke-width="1" />


<!-- renderSideComponent: grip -->


<!-- renderPart: cylinder -->
<path d="M331.825 215 L479.425 215 L479.425 265 L331.825 265 Z" stroke-width="0" stroke="none" stroke-linejoin="round" fill="white" fill-opacity="1"/>
<path d="M331.875 215 L479.375 215 M479.375 265 L331.875 265" stroke-width="0.5" stroke="black" stroke-linejoin="round" fill="white" fill-opacity="1"/>
<!-- !left !both--><path d="M331.875 215 L331.875 265" stroke-width="0.5" stroke="black" stroke-linejoin="round" fill="white" fill-opacity="1"/>
<!-- !right !both --><path d="M479.375 215 L479.375 265" stroke-width="0.5" stroke="black" stroke-linejoin="round" fill="white" fill-opacity="1"/>
<path d="M331.875 215 L479.375 215 L479.375 265 L331.875 265 Z" stroke-width="1.0" stroke="black" fill="url(#ridged)"/>

<!-- TAPER START: cylinder -->
<rect x="331.875" y="215.25" width="99.5" height="49.5" rx="0" ry="0" stroke-width="0.5" stroke="none" fill="white" fill-opacity="1"/>
<path d="M 431.875 215 C 306.875 215, 306.875 265, 431.875 265" stroke-width="1.0" stroke="black" stroke-linecap="round" fill-opacity="1" fill="white" />
<!-- TAPER END: cylinder -->
<rect x="431.875" y="215.25" width="47" height="49.5" rx="0" ry="0" stroke-width="0.5" stroke="none" fill="white" fill-opacity="1"/>
<path d="M 431.875 215 C 465.125 215, 465.125 265, 431.875 265" stroke-width="0.5" stroke="black" stroke-linecap="round" fill-opacity="1" fill="white" />


<!-- renderSideComponent: indicator -->


<!-- renderPart: cylinder -->
<path d="M479.325 216.25 L519.425 216.25 L519.425 263.75 L479.325 263.75 Z" stroke-width="0" stroke="none" stroke-linejoin="round" fill="white" fill-opacity="1"/>
<path d="M479.375 216.25 L519.375 216.25 M519.375 263.75 L479.375 263.75" stroke-width="0.5" stroke="black" stroke-linejoin="round" fill="white" fill-opacity="1"/>
<!-- !left !both--><path d="M479.375 216.25 L479.375 263.75" stroke-width="0.5" stroke="black" stroke-linejoin="round" fill="white" fill-opacity="1"/>
<!-- !right !both --><path d="M519.375 216.25 L519.375 263.75" stroke-width="0.5" stroke="black" stroke-linejoin="round" fill="white" fill-opacity="1"/>
<rect x="479.375" y="236" width="40" height="8" rx="0" ry="0" stroke-width="1" stroke="black" fill="white"/>
<rect x="485.375" y="228.125" width="28" height="23.75" rx="3" ry="3" stroke-width="1" stroke="black" fill="white"/>
<rect x="479.625" y="236.25" width="39.5" height="7.5" rx="0" ry="0" stroke-width="1" stroke="none" fill="white"/>
<text x="499.375" y="240" text-anchor="middle" dominant-baseline="central"><tspan stroke="dimgray" stroke-width="0.5" font-family="sans-serif" fill="black" textLength="{this.width * 5 - 14}" > HB</tspan></text>

<!-- renderSideComponent: body -->


<!-- renderPart: cylinder -->
<path d="M519.325 217.5 L838.175 217.5 L838.175 262.5 L519.325 262.5 Z" stroke-width="0" stroke="none" stroke-linejoin="round" fill="white" fill-opacity="1"/>
<path d="M519.375 217.5 L838.125 217.5 M838.125 262.5 L519.375 262.5" stroke-width="0.5" stroke="black" stroke-linejoin="round" fill="white" fill-opacity="1"/>
<!-- !left !both--><path d="M519.375 217.5 L519.375 262.5" stroke-width="0.5" stroke="black" stroke-linejoin="round" fill="white" fill-opacity="1"/>
<!-- !right !both --><path d="M838.125 217.5 L838.125 262.5" stroke-width="0.5" stroke="black" stroke-linejoin="round" fill="white" fill-opacity="1"/>


<!-- renderSideComponent: clip -->
<path d="M682.875 205.875 Q705.625 229.375 715.625 205.875 Z" stroke-width="4" stroke="black" fill="dimgray" stroke-linecap="round" />
<line x1="680.625" y1="204.375" x2="863.125" y2="204.375" stroke-width="4" stroke="black" fill="dimgray" stroke-linecap="round" />
<path d="M863.125 204.375 Q883.125 211.875 863.125 218.125" stroke-width="4" stroke="black" fill="none" stroke-linecap="round" />


<!-- renderPart: cylinder -->
<path d="M838.075 216.875 L861.925 216.875 L861.925 263.125 L838.075 263.125 Z" stroke-width="0" stroke="none" stroke-linejoin="round" fill="white" fill-opacity="1"/>
<path d="M838.125 216.875 L861.875 216.875 M861.875 263.125 L838.125 263.125" stroke-width="0.5" stroke="black" stroke-linejoin="round" fill="white" fill-opacity="1"/>
<!-- !left !both--><path d="M838.125 216.875 L838.125 263.125" stroke-width="0.5" stroke="black" stroke-linejoin="round" fill="white" fill-opacity="1"/>
<!-- !right !both --><path d="M861.875 216.875 L861.875 263.125" stroke-width="0.5" stroke="black" stroke-linejoin="round" fill="white" fill-opacity="1"/>
<path d="M682.875 205.875 Q705.625 228.375 715.625 205.875 Z" stroke-width="3" stroke="white" fill="white" stroke-linecap="round" />
<line x1="680.625" y1="204.375" x2="863.125" y2="204.375" stroke-width="3" stroke="white" fill="white" stroke-linecap="round" />
<path d="M863.125 204.375 Q883.125 211.875 863.125 218.125" stroke-width="3" stroke="white" fill="none" stroke-linecap="round" />


<!-- renderSideComponent: tail -->


<!-- renderPart: cylinder -->
<path d="M861.825 218.125 L870.675 218.125 L870.675 261.875 L861.825 261.875 Z" stroke-width="0" stroke="none" stroke-linejoin="round" fill="white" fill-opacity="1"/>
<path d="M861.875 218.125 L870.625 218.125 M870.625 261.875 L861.875 261.875" stroke-width="0.5" stroke="black" stroke-linejoin="round" fill="white" fill-opacity="1"/>
<!-- !left !both--><path d="M861.875 218.125 L861.875 261.875" stroke-width="0.5" stroke="black" stroke-linejoin="round" fill="white" fill-opacity="1"/>
<!-- !right !both --><path d="M870.625 218.125 L870.625 261.875" stroke-width="0.5" stroke="black" stroke-linejoin="round" fill="white" fill-opacity="1"/>


<!-- renderPart: cylinder -->
<path d="M839.325 344.375 L870.675 344.375 L870.675 375.625 L839.325 375.625 Z" stroke-width="0" stroke="none" stroke-linejoin="round" fill="white" fill-opacity="1"/>
<path d="M839.375 344.375 L870.625 344.375 M870.625 375.625 L839.375 375.625" stroke-width="0.5" stroke="black" stroke-linejoin="round" fill="white" fill-opacity="1"/>
<!-- !left !both--><path d="M839.375 344.375 L839.375 375.625" stroke-width="0.5" stroke="black" stroke-linejoin="round" fill="white" fill-opacity="1"/>
<!-- !right !both --><path d="M870.625 344.375 L870.625 375.625" stroke-width="0.5" stroke="black" stroke-linejoin="round" fill="white" fill-opacity="1"/>


<!-- renderSideComponent: cap -->


<!-- renderPart: cylinder -->
<path d="M870.575 344.375 L896.925 344.375 L896.925 375.625 L870.575 375.625 Z" stroke-width="0" stroke="none" stroke-linejoin="round" fill="white" fill-opacity="1"/>
<path d="M870.625 344.375 L896.875 344.375 M896.875 375.625 L870.625 375.625" stroke-width="0.5" stroke="black" stroke-linejoin="round" fill="white" fill-opacity="1"/>
<!-- !left !both--><path d="M870.625 344.375 L870.625 375.625" stroke-width="0.5" stroke="black" stroke-linejoin="round" fill="white" fill-opacity="1"/>
<!-- !right !both --><path d="M896.875 344.375 L896.875 375.625" stroke-width="0.5" stroke="black" stroke-linejoin="round" fill="white" fill-opacity="1"/>


<!-- renderPart: cylinder -->
<path d="M896.825 339.375 L951.925 339.375 L951.925 380.625 L896.825 380.625 Z" stroke-width="0" stroke="none" stroke-linejoin="round" fill="white" fill-opacity="1"/>
<path d="M896.875 339.375 L951.875 339.375 M951.875 380.625 L896.875 380.625" stroke-width="0.5" stroke="black" stroke-linejoin="round" fill="white" fill-opacity="1"/>
<!-- !left !both--><path d="M896.875 339.375 L896.875 380.625" stroke-width="0.5" stroke="black" stroke-linejoin="round" fill="white" fill-opacity="1"/>
<!-- !right !both --><path d="M951.875 339.375 L951.875 380.625" stroke-width="0.5" stroke="black" stroke-linejoin="round" fill="white" fill-opacity="1"/>


<!-- renderPart: cylinder -->
<path d="M951.825 340 L954.425 340 L954.425 380 L951.825 380 Z" stroke-width="0" stroke="none" stroke-linejoin="round" fill="white" fill-opacity="1"/>
<path d="M951.875 340 L954.375 340 M954.375 380 L951.875 380" stroke-width="0.5" stroke="black" stroke-linejoin="round" fill="white" fill-opacity="1"/>
<!-- !left !both--><path d="M951.875 340 L951.875 380" stroke-width="0.5" stroke="black" stroke-linejoin="round" fill="white" fill-opacity="1"/>
<!-- !right !both --><path d="M954.375 340 L954.375 380" stroke-width="0.5" stroke="black" stroke-linejoin="round" fill="white" fill-opacity="1"/>


<!-- renderPart: cylinder -->
<path d="M954.325 339.375 L961.925 339.375 L961.925 380.625 L954.325 380.625 Z" stroke-width="0" stroke="none" stroke-linejoin="round" fill="white" fill-opacity="1"/>
<path d="M954.375 339.375 L961.875 339.375 M961.875 380.625 L954.375 380.625" stroke-width="0.5" stroke="black" stroke-linejoin="round" fill="white" fill-opacity="1"/>
<!-- !left !both--><path d="M954.375 339.375 L954.375 380.625" stroke-width="0.5" stroke="black" stroke-linejoin="round" fill="white" fill-opacity="1"/>
<!-- !right !both --><path d="M961.875 339.375 L961.875 380.625" stroke-width="0.5" stroke="black" stroke-linejoin="round" fill="white" fill-opacity="1"/>


<!-- DASHED JOIN -->
<path d="M 331.875 120 L 371.875 120 L 371.875 180 L 274.375 180 L 274.375 240 L 331.875 240 " fill="none" stroke="white" stroke-width="1" stroke-linecap="round"  />
<path d="M 331.875 120 L 371.875 120 L 371.875 180 L 274.375 180 L 274.375 240 L 331.875 240 " fill="none" stroke="black" stroke-width="1" stroke-dasharray="8,4" stroke-linecap="round"  />


<!-- ARROW START -->
<line x1="336.875" y1="120" x2="343.875" y2="120" stroke-linecap="round" stroke="#ffffff" stroke-width="2.0" />
<line x1="336.875" y1="120" x2="350.875" y2="112" stroke-linecap="round" stroke="#ffffff" stroke-width="2.0" />
<line x1="350.875" y1="112" x2="343.875" y2="120" stroke-linecap="round" stroke="#ffffff" stroke-width="2.0" />
<line x1="336.875" y1="120" x2="350.875" y2="128" stroke-linecap="round" stroke="#ffffff" stroke-width="2.0" />
<line x1="350.875" y1="128" x2="343.875" y2="120" stroke-linecap="round" stroke="#ffffff" stroke-width="2.0" />
<line x1="336.875" y1="120" x2="350.875" y2="112" stroke-linecap="round" stroke="#0f0f0f" stroke-width="1.0" />
<line x1="350.875" y1="112" x2="343.875" y2="120" stroke-linecap="round" stroke="#0f0f0f" stroke-width="1.0" />
<line x1="336.875" y1="120" x2="350.875" y2="128" stroke-linecap="round" stroke="#0f0f0f" stroke-width="1.0" />
<line x1="350.875" y1="128" x2="343.875" y2="120" stroke-linecap="round" stroke="#0f0f0f" stroke-width="1.0" />


<!-- ARROW START -->
<line x1="294.375" y1="240" x2="301.375" y2="240" stroke-linecap="round" stroke="#ffffff" stroke-width="2.0" />
<line x1="294.375" y1="240" x2="308.375" y2="232" stroke-linecap="round" stroke="#ffffff" stroke-width="2.0" />
<line x1="308.375" y1="232" x2="301.375" y2="240" stroke-linecap="round" stroke="#ffffff" stroke-width="2.0" />
<line x1="294.375" y1="240" x2="308.375" y2="248" stroke-linecap="round" stroke="#ffffff" stroke-width="2.0" />
<line x1="308.375" y1="248" x2="301.375" y2="240" stroke-linecap="round" stroke="#ffffff" stroke-width="2.0" />
<line x1="294.375" y1="240" x2="308.375" y2="232" stroke-linecap="round" stroke="#0f0f0f" stroke-width="1.0" />
<line x1="308.375" y1="232" x2="301.375" y2="240" stroke-linecap="round" stroke="#0f0f0f" stroke-width="1.0" />
<line x1="294.375" y1="240" x2="308.375" y2="248" stroke-linecap="round" stroke="#0f0f0f" stroke-width="1.0" />
<line x1="308.375" y1="248" x2="301.375" y2="240" stroke-linecap="round" stroke="#0f0f0f" stroke-width="1.0" />
<line x1="331.875" y1="200" x2="331.875" y2="280" stroke="white" stroke-linecap="round"  stroke-width="1" />
<line x1="331.875" y1="200" x2="331.875" y2="280" stroke="dimgray" stroke-linecap="round" stroke-dasharray="3,3" stroke-width="1" />


<!-- DASHED JOIN -->
<path d="M 870.625 240 L 910.625 240 L 910.625 300 L 799.375 300 L 799.375 360 L 870.625 360 " fill="none" stroke="white" stroke-width="1" stroke-linecap="round"  />
<path d="M 870.625 240 L 910.625 240 L 910.625 300 L 799.375 300 L 799.375 360 L 870.625 360 " fill="none" stroke="black" stroke-width="1" stroke-dasharray="8,4" stroke-linecap="round"  />


<!-- ARROW START -->
<line x1="875.625" y1="240" x2="882.625" y2="240" stroke-linecap="round" stroke="#ffffff" stroke-width="2.0" />
<line x1="875.625" y1="240" x2="889.625" y2="232" stroke-linecap="round" stroke="#ffffff" stroke-width="2.0" />
<line x1="889.625" y1="232" x2="882.625" y2="240" stroke-linecap="round" stroke="#ffffff" stroke-width="2.0" />
<line x1="875.625" y1="240" x2="889.625" y2="248" stroke-linecap="round" stroke="#ffffff" stroke-width="2.0" />
<line x1="889.625" y1="248" x2="882.625" y2="240" stroke-linecap="round" stroke="#ffffff" stroke-width="2.0" />
<line x1="875.625" y1="240" x2="889.625" y2="232" stroke-linecap="round" stroke="#0f0f0f" stroke-width="1.0" />
<line x1="889.625" y1="232" x2="882.625" y2="240" stroke-linecap="round" stroke="#0f0f0f" stroke-width="1.0" />
<line x1="875.625" y1="240" x2="889.625" y2="248" stroke-linecap="round" stroke="#0f0f0f" stroke-width="1.0" />
<line x1="889.625" y1="248" x2="882.625" y2="240" stroke-linecap="round" stroke="#0f0f0f" stroke-width="1.0" />


<!-- ARROW START -->
<line x1="819.375" y1="360" x2="826.375" y2="360" stroke-linecap="round" stroke="#ffffff" stroke-width="2.0" />
<line x1="819.375" y1="360" x2="833.375" y2="352" stroke-linecap="round" stroke="#ffffff" stroke-width="2.0" />
<line x1="833.375" y1="352" x2="826.375" y2="360" stroke-linecap="round" stroke="#ffffff" stroke-width="2.0" />
<line x1="819.375" y1="360" x2="833.375" y2="368" stroke-linecap="round" stroke="#ffffff" stroke-width="2.0" />
<line x1="833.375" y1="368" x2="826.375" y2="360" stroke-linecap="round" stroke="#ffffff" stroke-width="2.0" />
<line x1="819.375" y1="360" x2="833.375" y2="352" stroke-linecap="round" stroke="#0f0f0f" stroke-width="1.0" />
<line x1="833.375" y1="352" x2="826.375" y2="360" stroke-linecap="round" stroke="#0f0f0f" stroke-width="1.0" />
<line x1="819.375" y1="360" x2="833.375" y2="368" stroke-linecap="round" stroke="#0f0f0f" stroke-width="1.0" />
<line x1="833.375" y1="368" x2="826.375" y2="360" stroke-linecap="round" stroke="#0f0f0f" stroke-width="1.0" />
<line x1="870.625" y1="320" x2="870.625" y2="400" stroke="white" stroke-linecap="round"  stroke-width="1" />
<line x1="870.625" y1="320" x2="870.625" y2="400" stroke="dimgray" stroke-linecap="round" stroke-dasharray="3,3" stroke-width="1" />
</g><text x="50%" y="440" font-size="1.1em" font-weight="bold" text-anchor="middle" dominant-baseline="middle">Copyright (c) // Synapticloop // The Mechanical Pencil Database (tmpdb)</text>
<text x="50%" y="460" font-size="1.1em" font-weight="bold" text-anchor="middle" dominant-baseline="middle">Licensed under Creative Commons Attribution-NonCommercial-ShareAlike 4.0 International</text>
<text x="1190" y="470" font-size="0.5em" font-weight="bold" text-anchor="end" dominant-baseline="middle">SVGTechnicalExplodedRenderer</text>
</svg>