<svg xmlns="http://www.w3.org/2000/svg" width="1500" height="800">
 <pattern id="knurled-large" patternUnits="userSpaceOnUse" width="12" height="12">
<path stroke="dimgray" stroke-linecap="round" stroke-width="1" d="M 6,6 L 12,12"/>
<path stroke="dimgray" stroke-linecap="round" stroke-width="1" d="M 6,6 L 0,12"/>
<path stroke="gray" stroke-linecap="round" stroke-width="1" d="M 6,6 L 12,0" />
<path stroke="gray" stroke-linecap="round" stroke-width="1" d="M 6,6 L 0,0" />
</pattern><pattern id="knurled-small" patternUnits="userSpaceOnUse" width="4" height="4">
<path stroke="dimgray" stroke-linecap="round" stroke-width="1" d="M 2,2 L 4,4"/>
<path stroke="dimgray" stroke-linecap="round" stroke-width="1" d="M 2,2 L 0,4"/>
<path stroke="gray" stroke-linecap="round" stroke-width="1" d="M 2,2 L 4,0" />
<path stroke="gray" stroke-linecap="round" stroke-width="1" d="M 2,2 L 0,0" />
</pattern><pattern id="knurled" patternUnits="userSpaceOnUse" width="8" height="8">
<path stroke="dimgray" stroke-linecap="round" stroke-width="1" d="M 4,4 L 8,8"/>
<path stroke="dimgray" stroke-linecap="round" stroke-width="1" d="M 4,4 L 0,8"/>
<path stroke="gray" stroke-linecap="round" stroke-width="1" d="M 4,4 L 8,0" />
<path stroke="gray" stroke-linecap="round" stroke-width="1" d="M 4,4 L 0,0" />
</pattern><pattern id="lined" patternUnits="userSpaceOnUse" width="3" height="3">
<path stroke="dimgray" stroke-linecap="round" stroke-width="1" d="M 0,0 L 3,0"/>
</pattern><pattern id="ridged" patternUnits="userSpaceOnUse" width="3" height="3">
<path stroke="dimgray" stroke-linecap="round" stroke-width="1" d="M 0,0 L 0,3"/>
</pattern><pattern id="spring" patternUnits="userSpaceOnUse" width="8" height="60">
<path stroke="dimgray" stroke-linecap="round" stroke-width="2" d="M 1,1 L 8,60"/>
<path stroke="white" stroke-linecap="round" stroke-width="1" d="M 1,1 L 8,60"/>
</pattern><rect x="0" y="0" width="1500" height="800" fill="white" stroke="black" stroke-width="4" />
<rect x="2" y="2" width="1496" height="796" fill="white" stroke="dimgray" stroke-width="1" />
<g transform="rotate(0 0 0)">
<line x1="40" y1="500" x2="1460" y2="500" stroke-linecap="round" stroke="#5f5f5f" stroke-dasharray="2" stroke-width="1" />
<line x1="20" y1="500" x2="60" y2="500" stroke-linecap="round" stroke="#000000"  stroke-width="1" />
<line x1="40" y1="480" x2="40" y2="520" stroke="#000000" stroke-linecap="round"  stroke-width="1" />
<circle r="10" cx="40" cy="500" fill="white" fill-opacity="0" stroke="#000000" stroke-width="1"  />
<line x1="1440" y1="500" x2="1480" y2="500" stroke-linecap="round" stroke="#000000"  stroke-width="1" />
<line x1="1460" y1="480" x2="1460" y2="520" stroke="#000000" stroke-linecap="round"  stroke-width="1" />
<circle r="10" cx="1460" cy="500" fill="white" fill-opacity="0" stroke="#000000" stroke-width="1"  />
<line x1="750" y1="90" x2="750" y2="710" stroke="#5f5f5f" stroke-linecap="round" stroke-dasharray="2" stroke-width="1" />
<line x1="730" y1="90" x2="770" y2="90" stroke-linecap="round" stroke="#000000"  stroke-width="1" />
<line x1="750" y1="70" x2="750" y2="110" stroke="#000000" stroke-linecap="round"  stroke-width="1" />
<circle r="10" cx="750" cy="90" fill="white" fill-opacity="0" stroke="#000000" stroke-width="1"  />
<line x1="730" y1="710" x2="770" y2="710" stroke-linecap="round" stroke="#000000"  stroke-width="1" />
<line x1="750" y1="690" x2="750" y2="730" stroke="#000000" stroke-linecap="round"  stroke-width="1" />
<circle r="10" cx="750" cy="710" fill="white" fill-opacity="0" stroke="#000000" stroke-width="1"  />
<line x1="160" y1="150" x2="160" y2="710" stroke="#5f5f5f" stroke-linecap="round" stroke-dasharray="2" stroke-width="1" />
<line x1="140" y1="150" x2="180" y2="150" stroke-linecap="round" stroke="#000000"  stroke-width="1" />
<line x1="160" y1="130" x2="160" y2="170" stroke="#000000" stroke-linecap="round"  stroke-width="1" />
<circle r="10" cx="160" cy="150" fill="white" fill-opacity="0" stroke="#000000" stroke-width="1"  />
<line x1="140" y1="710" x2="180" y2="710" stroke-linecap="round" stroke="#000000"  stroke-width="1" />
<line x1="160" y1="690" x2="160" y2="730" stroke="#000000" stroke-linecap="round"  stroke-width="1" />
<circle r="10" cx="160" cy="710" fill="white" fill-opacity="0" stroke="#000000" stroke-width="1"  />
<line x1="1400" y1="150" x2="1400" y2="710" stroke="#5f5f5f" stroke-linecap="round" stroke-dasharray="2" stroke-width="1" />
<line x1="1380" y1="150" x2="1420" y2="150" stroke-linecap="round" stroke="#000000"  stroke-width="1" />
<line x1="1400" y1="130" x2="1400" y2="170" stroke="#000000" stroke-linecap="round"  stroke-width="1" />
<circle r="10" cx="1400" cy="150" fill="white" fill-opacity="0" stroke="#000000" stroke-width="1"  />
<line x1="1380" y1="710" x2="1420" y2="710" stroke-linecap="round" stroke="#000000"  stroke-width="1" />
<line x1="1400" y1="690" x2="1400" y2="730" stroke="#000000" stroke-linecap="round"  stroke-width="1" />
<circle r="10" cx="1400" cy="710" fill="white" fill-opacity="0" stroke="#000000" stroke-width="1"  />
<text x="30" y="50" font-size="2.0em" font-weight="bold"> Pacific Arc // TECH PRO (Model #: H-1305)</text>
<text x="30" y="80" font-size="1.1em"> PACIFIC ARC H-1305</text>
<text x="30" y="100" font-size="1.1em"> Lead size: 2 mm</text>
<text x="1480" y="30" font-size="1.6em" font-weight="bold" text-anchor="end" dominant-baseline="central">Colour variants of the body</text>
<rect x="1440" y="55" width="40" rx="50%" ry="50%" height="40" stroke="black" stroke-width="2" fill="black" fill-opacity="1"/>
<text x="1460" y="100" transform="rotate(-90, 1460, 100)" font-size="1.2em" font-weight="bold" text-anchor="end" dominant-baseline="central">black</text>
<rect x="1380" y="55" width="40" rx="50%" ry="50%" height="40" stroke="black" stroke-width="2" fill="#1d528a" fill-opacity="1"/>
<text x="1400" y="100" transform="rotate(-90, 1400, 100)" font-size="1.2em" font-weight="bold" text-anchor="end" dominant-baseline="central">blue</text>
<rect x="1320" y="55" width="40" rx="50%" ry="50%" height="40" stroke="black" stroke-width="2" fill="#404f4c" fill-opacity="1"/>
<text x="1340" y="100" transform="rotate(-90, 1340, 100)" font-size="1.2em" font-weight="bold" text-anchor="end" dominant-baseline="central">green</text>
<rect x="1260" y="55" width="40" rx="50%" ry="50%" height="40" stroke="black" stroke-width="2" fill="#be3f39" fill-opacity="1"/>
<text x="1280" y="100" transform="rotate(-90, 1280, 100)" font-size="1.2em" font-weight="bold" text-anchor="end" dominant-baseline="central">red</text>
<rect x="1200" y="55" width="40" rx="50%" ry="50%" height="40" stroke="black" stroke-width="2" fill="#3f3533" fill-opacity="1"/>
<text x="1220" y="100" transform="rotate(-90, 1220, 100)" font-size="1.2em" font-weight="bold" text-anchor="end" dominant-baseline="central">brown</text>
<text x="30" y="136" font-size="1.2em" font-weight="bold" text-anchor="start" dominant-baseline="central">Materials:</text>
<text x="50" y="156" font-size="1.2em" text-anchor="start" dominant-baseline="central"> - metal</text>
<text x="50" y="176" font-size="1.2em" text-anchor="start" dominant-baseline="central"> - plastic</text>
<line x1="100" y1="464.625" x2="1400" y2="464.625" stroke-linecap="round" stroke="#cfcfcf"  stroke-width="1" />
<line x1="160" y1="478.375" x2="1400" y2="478.375" stroke-linecap="round" stroke="#cfcfcf"  stroke-width="1" />
<line x1="148.75" y1="430" x2="148.75" y2="500" stroke="#cfcfcf" stroke-linecap="round"  stroke-width="1" />
<line x1="171.25" y1="430" x2="171.25" y2="500" stroke="#cfcfcf" stroke-linecap="round"  stroke-width="1" />
<line x1="160" y1="477.5" x2="1400" y2="477.5" stroke-linecap="round" stroke="#cfcfcf"  stroke-width="1" />
<line x1="100" y1="522.5" x2="1400" y2="522.5" stroke-linecap="round" stroke="#cfcfcf"  stroke-width="1" />
<line x1="136.90598923241498" y1="500" x2="136.90598923241498" y2="542.5" stroke="#cfcfcf" stroke-linecap="round"  stroke-width="1" />
<line x1="183.09401076758502" y1="500" x2="183.09401076758502" y2="542.5" stroke="#cfcfcf" stroke-linecap="round"  stroke-width="1" />
<line x1="380" y1="380" x2="380" y2="620" stroke="#cfcfcf" stroke-linecap="round"  stroke-width="1" />
<line x1="391.25" y1="380" x2="391.25" y2="620" stroke="#cfcfcf" stroke-linecap="round"  stroke-width="1" />
<line x1="460" y1="380" x2="460" y2="620" stroke="#cfcfcf" stroke-linecap="round"  stroke-width="1" />
<line x1="607.5" y1="380" x2="607.5" y2="620" stroke="#cfcfcf" stroke-linecap="round"  stroke-width="1" />
<line x1="945" y1="380" x2="945" y2="620" stroke="#cfcfcf" stroke-linecap="round"  stroke-width="1" />
<line x1="787.5" y1="420" x2="787.5" y2="580" stroke="#cfcfcf" stroke-linecap="round"  stroke-width="1" />
<line x1="982.5" y1="420" x2="982.5" y2="580" stroke="#cfcfcf" stroke-linecap="round"  stroke-width="1" />
<line x1="972.5" y1="380" x2="972.5" y2="620" stroke="#cfcfcf" stroke-linecap="round"  stroke-width="1" />
<line x1="992.5" y1="380" x2="992.5" y2="620" stroke="#cfcfcf" stroke-linecap="round"  stroke-width="1" />
<line x1="1040" y1="380" x2="1040" y2="620" stroke="#cfcfcf" stroke-linecap="round"  stroke-width="1" />
<line x1="1055" y1="380" x2="1055" y2="620" stroke="#cfcfcf" stroke-linecap="round"  stroke-width="1" />
<line x1="1120" y1="389.5" x2="1120" y2="597.5" stroke="#cfcfcf" stroke-linecap="round"  stroke-width="1" />
<text x="160" y="740" font-size="1.8em" font-weight="bold" text-anchor="middle" dominant-baseline="central">Front</text>
<text x="750" y="740" font-size="1.8em" font-weight="bold" text-anchor="middle" dominant-baseline="central">Side view</text>
<text x="1400" y="740" font-size="1.8em" font-weight="bold" text-anchor="middle" dominant-baseline="central">Back</text>
<line x1="148.75" y1="429" x2="148.75" y2="451" stroke="black" stroke-width="1" />
<line x1="148.75" y1="440" x2="171.25" y2="440" stroke="black" stroke-width="1" />
<line x1="171.25" y1="429" x2="171.25" y2="451" stroke="black" stroke-width="1" />
<text x="160" y="421" font-size="1.2em" font-weight="bold" text-anchor="middle" dominant-baseline="central" fill="black"><tspan x="160" dy="0">4.50 mm</tspan></text>
<line x1="211" y1="464.625" x2="233" y2="464.625" stroke="black" stroke-width="1" />
<line x1="222" y1="464.625" x2="222" y2="478.375" stroke="black" stroke-width="1" />
<line x1="211" y1="478.375" x2="233" y2="478.375" stroke="black" stroke-width="1" />
<text x="235" y="471.5" font-size="1.2em" font-weight="bold" text-anchor="start" dominant-baseline="central" fill="black">2.75 mm</text>
<line x1="199" y1="477.5" x2="221" y2="477.5" stroke="black" stroke-width="1" />
<line x1="210" y1="477.5" x2="210" y2="522.5" stroke="black" stroke-width="1" />
<line x1="199" y1="522.5" x2="221" y2="522.5" stroke="black" stroke-width="1" />
<text x="223" y="500" font-size="1.2em" font-weight="bold" text-anchor="start" dominant-baseline="central" fill="black">9.00 mm</text>
<line x1="99" y1="464.625" x2="121" y2="464.625" stroke="black" stroke-width="1" />
<line x1="110" y1="464.625" x2="110" y2="522.5" stroke="black" stroke-width="1" />
<line x1="99" y1="522.5" x2="121" y2="522.5" stroke="black" stroke-width="1" />
<text x="91" y="493.5625" transform="rotate(-90, 91, 493.5625)" font-size="1.2em" font-weight="bold" text-anchor="middle" dominant-baseline="central" fill="black">11.575 mm</text>
<line x1="136.90598923241498" y1="541.5" x2="136.90598923241498" y2="563.5" stroke="black" stroke-width="1" />
<line x1="136.90598923241498" y1="552.5" x2="183.09401076758505" y2="552.5" stroke="black" stroke-width="1" />
<line x1="183.09401076758505" y1="541.5" x2="183.09401076758505" y2="563.5" stroke="black" stroke-width="1" />
<text x="160" y="571.5" font-size="1.2em" font-weight="bold" text-anchor="middle" dominant-baseline="central" fill="black"><tspan x="160" dy="0">9.24 mm</tspan></text>
<line x1="380" y1="369" x2="380" y2="391" stroke="black" stroke-width="1" />
<line x1="380" y1="380" x2="391.25" y2="380" stroke="black" stroke-width="1" />
<line x1="391.25" y1="369" x2="391.25" y2="391" stroke="black" stroke-width="1" />
<text x="385.625" y="361" font-size="1.2em" transform="rotate(-90, 385.625, 361)" font-weight="bold" text-anchor="start" dominant-baseline="central" fill="black"><tspan x="385.625" dy="0">2.25 mm jaws</tspan></text>
<line x1="391.25" y1="369" x2="391.25" y2="391" stroke="black" stroke-width="1" />
<line x1="391.25" y1="380" x2="460" y2="380" stroke="black" stroke-width="1" />
<line x1="460" y1="369" x2="460" y2="391" stroke="black" stroke-width="1" />
<text x="425.625" y="361" font-size="1.2em" transform="rotate(-90, 413.625, 361)" font-weight="bold" text-anchor="start" dominant-baseline="central" fill="black"><tspan x="417.625" dy="0">13.75 mm</tspan><tspan x="417.625" dy="1em">tip</tspan></text>
<line x1="460" y1="369" x2="460" y2="391" stroke="black" stroke-width="1" />
<line x1="460" y1="380" x2="607.5" y2="380" stroke="black" stroke-width="1" />
<line x1="607.5" y1="369" x2="607.5" y2="391" stroke="black" stroke-width="1" />
<text x="533.75" y="361" font-size="1.2em" transform="rotate(-90, 521.75, 361)" font-weight="bold" text-anchor="start" dominant-baseline="central" fill="black"><tspan x="525.75" dy="0">29.50 mm</tspan><tspan x="525.75" dy="1em">grip</tspan></text>
<line x1="607.5" y1="369" x2="607.5" y2="391" stroke="black" stroke-width="1" />
<line x1="607.5" y1="380" x2="945" y2="380" stroke="black" stroke-width="1" />
<line x1="945" y1="369" x2="945" y2="391" stroke="black" stroke-width="1" />
<text x="776.25" y="361" font-size="1.2em" transform="rotate(-90, 764.25, 361)" font-weight="bold" text-anchor="start" dominant-baseline="central" fill="black"><tspan x="768.25" dy="0">67.50 mm</tspan><tspan x="768.25" dy="1em">body</tspan></text>
<line x1="945" y1="369" x2="945" y2="391" stroke="black" stroke-width="1" />
<line x1="945" y1="380" x2="972.5" y2="380" stroke="black" stroke-width="1" />
<line x1="972.5" y1="369" x2="972.5" y2="391" stroke="black" stroke-width="1" />
<text x="958.75" y="361" font-size="1.2em" transform="rotate(-90, 958.75, 361)" font-weight="bold" text-anchor="start" dominant-baseline="central" fill="black"><tspan x="958.75" dy="0">5.50 mm clip</tspan></text>
<line x1="787.5" y1="409" x2="787.5" y2="431" stroke="black" stroke-width="1" />
<line x1="787.5" y1="420" x2="982.5" y2="420" stroke="black" stroke-width="1" />
<line x1="982.5" y1="409" x2="982.5" y2="431" stroke="black" stroke-width="1" />
<text x="885" y="412" font-weight="bold" font-size="1.2em" stroke="white" stroke-width="0.25" text-anchor="middle" dominant-baseline="middle" fill="black"><tspan x="877" dy="0">39.00 mm</tspan><tspan x="877" dy="1em">clip (extra)</tspan></text>
<line x1="972.5" y1="369" x2="972.5" y2="391" stroke="black" stroke-width="1" />
<line x1="972.5" y1="380" x2="992.5" y2="380" stroke="black" stroke-width="1" />
<line x1="992.5" y1="369" x2="992.5" y2="391" stroke="black" stroke-width="1" />
<text x="982.5" y="361" font-size="1.2em" transform="rotate(-90, 982.5, 361)" font-weight="bold" text-anchor="start" dominant-baseline="central" fill="black"><tspan x="982.5" dy="0">4.00 mm tail</tspan></text>
<line x1="992.5" y1="369" x2="992.5" y2="391" stroke="black" stroke-width="1" />
<line x1="992.5" y1="380" x2="1040" y2="380" stroke="black" stroke-width="1" />
<line x1="1040" y1="369" x2="1040" y2="391" stroke="black" stroke-width="1" />
<text x="1016.25" y="361" font-size="1.2em" transform="rotate(-90, 1004.25, 361)" font-weight="bold" text-anchor="start" dominant-baseline="central" fill="black"><tspan x="1008.25" dy="0">9.50 mm</tspan><tspan x="1008.25" dy="1em">indicator</tspan></text>
<line x1="1040" y1="369" x2="1040" y2="391" stroke="black" stroke-width="1" />
<line x1="1040" y1="380" x2="1055" y2="380" stroke="black" stroke-width="1" />
<line x1="1055" y1="369" x2="1055" y2="391" stroke="black" stroke-width="1" />
<text x="1047.5" y="361" font-size="1.2em" transform="rotate(-90, 1047.5, 361)" font-weight="bold" text-anchor="start" dominant-baseline="central" fill="black"><tspan x="1047.5" dy="0">3.00 mm foot</tspan></text>
<line x1="1055" y1="369" x2="1055" y2="391" stroke="black" stroke-width="1" />
<line x1="1055" y1="380" x2="1120" y2="380" stroke="black" stroke-width="1" />
<line x1="1120" y1="369" x2="1120" y2="391" stroke="black" stroke-width="1" />
<text x="1087.5" y="361" font-size="1.2em" transform="rotate(-90, 1075.5, 361)" font-weight="bold" text-anchor="start" dominant-baseline="central" fill="black"><tspan x="1079.5" dy="0">13.00 mm</tspan><tspan x="1079.5" dy="1em">cap</tspan></text>
<line x1="1299" y1="479.375" x2="1321" y2="479.375" stroke="black" stroke-width="1" />
<line x1="1310" y1="479.375" x2="1310" y2="520.625" stroke="black" stroke-width="1" />
<line x1="1299" y1="520.625" x2="1321" y2="520.625" stroke="black" stroke-width="1" />
<text x="1291" y="500" transform="rotate(-90, 1291, 500)" font-size="1.2em" font-weight="bold" text-anchor="middle" dominant-baseline="central" fill="black">8.25 mm</text>
<line x1="1299" y1="479.375" x2="1321" y2="479.375" stroke="black" stroke-width="1" />
<line x1="1310" y1="479.375" x2="1310" y2="520.625" stroke="black" stroke-width="1" />
<line x1="1299" y1="520.625" x2="1321" y2="520.625" stroke="black" stroke-width="1" />
<text x="1310" y="528.625" transform="rotate(-90, 1310, 528.625)" font-weight="bold" font-size="1.2em" text-anchor="end" dominant-baseline="middle" fill="black">grip</text>
<line x1="1339" y1="480" x2="1361" y2="480" stroke="black" stroke-width="1" />
<line x1="1350" y1="480" x2="1350" y2="520" stroke="black" stroke-width="1" />
<line x1="1339" y1="520" x2="1361" y2="520" stroke="black" stroke-width="1" />
<text x="1331" y="500" transform="rotate(-90, 1331, 500)" font-size="1.2em" font-weight="bold" text-anchor="middle" dominant-baseline="central" fill="black">8 mm</text>
<line x1="1339" y1="480" x2="1361" y2="480" stroke="black" stroke-width="1" />
<line x1="1350" y1="480" x2="1350" y2="520" stroke="black" stroke-width="1" />
<line x1="1339" y1="520" x2="1361" y2="520" stroke="black" stroke-width="1" />
<text x="1350" y="528" transform="rotate(-90, 1350, 528)" font-weight="bold" font-size="1.2em" text-anchor="end" dominant-baseline="middle" fill="black">body</text>
<line x1="380" y1="541.5" x2="380" y2="563.5" stroke="black" stroke-width="1" />
<line x1="380" y1="552.5" x2="1120" y2="552.5" stroke="black" stroke-width="1" />
<line x1="1120" y1="541.5" x2="1120" y2="563.5" stroke="black" stroke-width="1" />
<text x="750" y="552.5" font-weight="bold" font-size="1.2em" stroke="white" stroke-width="0.25" text-anchor="middle" dominant-baseline="middle" fill="black"><tspan x="750" dy="0">148.00 mm</tspan></text>
<line x1="380" y1="609" x2="380" y2="631" stroke="black" stroke-width="1" />
<line x1="380" y1="620" x2="391.25" y2="620" stroke="black" stroke-width="1" />
<line x1="391.25" y1="609" x2="391.25" y2="631" stroke="black" stroke-width="1" />
<text x="385.625" y="639" font-size="1.2em" transform="rotate(-90, 385.625, 639)"  text-anchor="end" dominant-baseline="middle" fill="black"><tspan x="385.625" dy="0">metal</tspan></text>
<line x1="391.25" y1="609" x2="391.25" y2="631" stroke="black" stroke-width="1" />
<line x1="391.25" y1="620" x2="460" y2="620" stroke="black" stroke-width="1" />
<line x1="460" y1="609" x2="460" y2="631" stroke="black" stroke-width="1" />
<text x="425.625" y="639" font-size="1.2em" transform="rotate(-90, 425.625, 639)"  text-anchor="end" dominant-baseline="middle" fill="black"><tspan x="425.625" dy="0">metal</tspan></text>
<line x1="460" y1="609" x2="460" y2="631" stroke="black" stroke-width="1" />
<line x1="460" y1="620" x2="607.5" y2="620" stroke="black" stroke-width="1" />
<line x1="607.5" y1="609" x2="607.5" y2="631" stroke="black" stroke-width="1" />
<text x="533.75" y="639" font-size="1.2em" transform="rotate(-90, 533.75, 639)"  text-anchor="end" dominant-baseline="middle" fill="black"><tspan x="533.75" dy="0">metal</tspan></text>
<line x1="607.5" y1="609" x2="607.5" y2="631" stroke="black" stroke-width="1" />
<line x1="607.5" y1="620" x2="945" y2="620" stroke="black" stroke-width="1" />
<line x1="945" y1="609" x2="945" y2="631" stroke="black" stroke-width="1" />
<text x="776.25" y="639" font-size="1.2em" transform="rotate(-90, 776.25, 639)"  text-anchor="end" dominant-baseline="middle" fill="black"><tspan x="776.25" dy="0">plastic</tspan></text>
<line x1="787.5" y1="569" x2="787.5" y2="591" stroke="black" stroke-width="1" />
<line x1="787.5" y1="580" x2="982.5" y2="580" stroke="black" stroke-width="1" />
<line x1="982.5" y1="569" x2="982.5" y2="591" stroke="black" stroke-width="1" />
<text x="885" y="599" font-size="1.2em"  text-anchor="middle" dominant-baseline="central" fill="black"><tspan x="885" dy="0">metal</tspan></text>
<line x1="945" y1="609" x2="945" y2="631" stroke="black" stroke-width="1" />
<line x1="945" y1="620" x2="972.5" y2="620" stroke="black" stroke-width="1" />
<line x1="972.5" y1="609" x2="972.5" y2="631" stroke="black" stroke-width="1" />
<text x="958.75" y="639" font-size="1.2em" transform="rotate(-90, 958.75, 639)"  text-anchor="end" dominant-baseline="middle" fill="black"><tspan x="958.75" dy="0">metal</tspan></text>
<line x1="972.5" y1="609" x2="972.5" y2="631" stroke="black" stroke-width="1" />
<line x1="972.5" y1="620" x2="992.5" y2="620" stroke="black" stroke-width="1" />
<line x1="992.5" y1="609" x2="992.5" y2="631" stroke="black" stroke-width="1" />
<text x="982.5" y="639" font-size="1.2em" transform="rotate(-90, 982.5, 639)"  text-anchor="end" dominant-baseline="middle" fill="black"><tspan x="982.5" dy="0">metal</tspan></text>
<line x1="992.5" y1="609" x2="992.5" y2="631" stroke="black" stroke-width="1" />
<line x1="992.5" y1="620" x2="1040" y2="620" stroke="black" stroke-width="1" />
<line x1="1040" y1="609" x2="1040" y2="631" stroke="black" stroke-width="1" />
<text x="1016.25" y="639" font-size="1.2em" transform="rotate(-90, 1016.25, 639)"  text-anchor="end" dominant-baseline="middle" fill="black"><tspan x="1016.25" dy="0">plastic</tspan></text>
<line x1="1040" y1="609" x2="1040" y2="631" stroke="black" stroke-width="1" />
<line x1="1040" y1="620" x2="1055" y2="620" stroke="black" stroke-width="1" />
<line x1="1055" y1="609" x2="1055" y2="631" stroke="black" stroke-width="1" />
<text x="1047.5" y="639" font-size="1.2em" transform="rotate(-90, 1047.5, 639)"  text-anchor="end" dominant-baseline="middle" fill="black"><tspan x="1047.5" dy="0">metal</tspan></text>
<line x1="1055" y1="609" x2="1055" y2="631" stroke="black" stroke-width="1" />
<line x1="1055" y1="620" x2="1120" y2="620" stroke="black" stroke-width="1" />
<line x1="1120" y1="609" x2="1120" y2="631" stroke="black" stroke-width="1" />
<text x="1087.5" y="639" font-size="1.2em" transform="rotate(-90, 1087.5, 639)"  text-anchor="end" dominant-baseline="middle" fill="black"><tspan x="1087.5" dy="0">plastic</tspan></text>


<!-- renderSideComponent: jaws -->


<!-- renderPart: cone -->
<path d="M379.95 491.875 L391.3 490 L391.3 510 L379.95 508.125 L379.95 491.875" stroke-width="0" stroke="none" stroke-linejoin="round" fill="#b4b8b9" fill-opacity="1"/>
<path d="M379.95 491.875 L391.3 490 M391.3 510 L379.95 508.125" stroke-width="0.5" stroke="black" stroke-linejoin="round" fill="#b4b8b9" fill-opacity="1"/>
<!-- !right !both --><path d="M391.3 490 L391.3 510" stroke-width="0.5" stroke="black" stroke-linejoin="round" fill="#b4b8b9" fill-opacity="1"/>
<!-- !left !both --><path d="M379.95 491.875 L379.95 508.125" stroke-width="0.5" stroke="black" stroke-linejoin="round" fill="#b4b8b9" fill-opacity="1"/>


<!-- renderSideComponent: tip -->


<!-- renderPart: cone -->
<path d="M391.2 486.875 L460.05 479.375 L460.05 520.625 L391.2 513.125 L391.2 486.875" stroke-width="0" stroke="none" stroke-linejoin="round" fill="#b4b8b9" fill-opacity="1"/>
<path d="M391.2 486.875 L460.05 479.375 M460.05 520.625 L391.2 513.125" stroke-width="0.5" stroke="black" stroke-linejoin="round" fill="#b4b8b9" fill-opacity="1"/>
<!-- !right !both --><path d="M460.05 479.375 L460.05 520.625" stroke-width="0.5" stroke="black" stroke-linejoin="round" fill="#b4b8b9" fill-opacity="1"/>
<!-- !left !both --><path d="M391.2 486.875 L391.2 513.125" stroke-width="0.5" stroke="black" stroke-linejoin="round" fill="#b4b8b9" fill-opacity="1"/>


<!-- renderSideComponent: grip -->


<!-- renderPart: cylinder -->
<path d="M459.95 479.375 L607.55 479.375 L607.55 520.625 L459.95 520.625 L459.95 479.375" stroke-width="0" stroke="none" stroke-linejoin="round" fill="#b4b8b9" fill-opacity="1"/>
<path d="M459.95 479.375 L607.55 479.375 M607.55 520.625 L459.95 520.625" stroke-width="0.5" stroke="black" stroke-linejoin="round" fill="#b4b8b9" fill-opacity="1"/>
<!-- !right !both --><path d="M607.55 479.375 L607.55 520.625" stroke-width="0.5" stroke="black" stroke-linejoin="round" fill="#b4b8b9" fill-opacity="1"/>
<!-- !left !both --><path d="M459.95 479.375 L459.95 520.625" stroke-width="0.5" stroke="black" stroke-linejoin="round" fill="#b4b8b9" fill-opacity="1"/>
<!-- DEFAULT FINISH: knurled --><path d="M460 479.375 L607.5 479.375 L607.5 520.625 L460 520.625 Z" stroke-width="0.5" stroke="black" fill="url(#knurled)"/>


<!-- renderSideComponent: body -->


<!-- renderPart: hexagonal -->
<path d="M607.45 480 L945.05 480 L945.05 520 L607.45 520 L607.45 480" stroke-width="0" stroke="none" stroke-linejoin="round" fill="#1d528a" fill-opacity="1"/>
<path d="M607.45 480 L945.05 480 M945.05 520 L607.45 520" stroke-width="0.5" stroke="black" stroke-linejoin="round" fill="#1d528a" fill-opacity="1"/>
<!-- !right !both --><path d="M945.05 480 L945.05 520" stroke-width="0.5" stroke="black" stroke-linejoin="round" fill="#1d528a" fill-opacity="1"/>
<!-- !left !both --><path d="M607.45 480 L607.45 520" stroke-width="0.5" stroke="black" stroke-linejoin="round" fill="#1d528a" fill-opacity="1"/>
<line x1="607.5" y1="500" x2="945" y2="500" stroke-width="1.5" stroke="gray" fill="gray" stroke-opacity="1.0"/>
<line x1="607.5" y1="500" x2="945" y2="500" stroke-width="0.5" stroke="black" fill="none" stroke-opacity="0.5"/>


<!-- renderSideComponent: clip -->
<path d="M789.75 465.875 Q812.5 489.375 822.5 465.875 Z" stroke-width="4" stroke="black" fill="dimgray" stroke-linecap="round" />
<line x1="787.5" y1="464.375" x2="970" y2="464.375" stroke-width="4" stroke="black" fill="dimgray" stroke-linecap="round" />
<path d="M970 464.375 Q990 471.875 970 478.125" stroke-width="4" stroke="black" fill="none" stroke-linecap="round" />


<!-- renderPart: cylinder -->
<path d="M944.95 477.5 L972.55 477.5 L972.55 522.5 L944.95 522.5 L944.95 477.5" stroke-width="0" stroke="none" stroke-linejoin="round" fill="#b4b8b9" fill-opacity="1"/>
<path d="M944.95 477.5 L972.55 477.5 M972.55 522.5 L944.95 522.5" stroke-width="0.5" stroke="black" stroke-linejoin="round" fill="#b4b8b9" fill-opacity="1"/>
<!-- !right !both --><path d="M972.55 477.5 L972.55 522.5" stroke-width="0.5" stroke="black" stroke-linejoin="round" fill="#b4b8b9" fill-opacity="1"/>
<!-- !left !both --><path d="M944.95 477.5 L944.95 522.5" stroke-width="0.5" stroke="black" stroke-linejoin="round" fill="#b4b8b9" fill-opacity="1"/>
<path d="M789.75 465.875 Q812.5 488.375 822.5 465.875 Z" stroke-width="3" stroke="#b4b8b9" fill="#b4b8b9" stroke-linecap="round" />
<rect x="789.75" y="465.875" width="35" height="-12.5" stroke-width="3" stroke="#b4b8b9" fill="#b4b8b9" stroke-linecap="round" />
<line x1="787.5" y1="464.375" x2="970" y2="464.375" stroke-width="3" stroke="#b4b8b9" fill="#b4b8b9" stroke-linecap="round" />
<path d="M970 464.375 Q990 471.875 970 478.125" stroke-width="3" stroke="#b4b8b9" fill="none" stroke-linecap="round" />


<!-- renderSideComponent: tail -->


<!-- renderPart: cylinder -->
<path d="M972.45 480 L992.55 480 L992.55 520 L972.45 520 L972.45 480" stroke-width="0" stroke="none" stroke-linejoin="round" fill="#b4b8b9" fill-opacity="1"/>
<path d="M972.45 480 L992.55 480 M992.55 520 L972.45 520" stroke-width="0.5" stroke="black" stroke-linejoin="round" fill="#b4b8b9" fill-opacity="1"/>
<!-- !right !both --><path d="M992.55 480 L992.55 520" stroke-width="0.5" stroke="black" stroke-linejoin="round" fill="#b4b8b9" fill-opacity="1"/>
<!-- !left !both --><path d="M972.45 480 L972.45 520" stroke-width="0.5" stroke="black" stroke-linejoin="round" fill="#b4b8b9" fill-opacity="1"/>


<!-- renderSideComponent: indicator -->


<!-- renderPart: cylinder -->
<path d="M992.45 479.375 L1040.05 479.375 L1040.05 520.625 L992.45 520.625 L992.45 479.375" stroke-width="0" stroke="none" stroke-linejoin="round" fill="#b4b8b9" fill-opacity="1"/>
<path d="M992.45 479.375 L1040.05 479.375 M1040.05 520.625 L992.45 520.625" stroke-width="0.5" stroke="black" stroke-linejoin="round" fill="#b4b8b9" fill-opacity="1"/>
<!-- !right !both --><path d="M1040.05 479.375 L1040.05 520.625" stroke-width="0.5" stroke="black" stroke-linejoin="round" fill="#b4b8b9" fill-opacity="1"/>
<!-- !left !both --><path d="M992.45 479.375 L992.45 520.625" stroke-width="0.5" stroke="black" stroke-linejoin="round" fill="#b4b8b9" fill-opacity="1"/>
<!-- DEFAULT FINISH: knurled --><path d="M992.5 479.375 L1040 479.375 L1040 520.625 L992.5 520.625 Z" stroke-width="0.5" stroke="black" fill="url(#knurled)"/>
<rect x="1002.5" y="489.6875" width="27.5" height="20.625" rx="3" ry="3" stroke-width="1" stroke="black" fill="#b4b8b9"/>
<text x="1016.25" y="500" text-anchor="middle" dominant-baseline="central"><tspan stroke="dimgray" stroke-width="0.5" font-family="sans-serif" fill="black" textLength="{this.width * 5 - 24}" > HB</tspan></text>

<!-- renderSideComponent: foot -->


<!-- renderPart: cylinder -->
<path d="M1039.95 480 L1055.05 480 L1055.05 520 L1039.95 520 L1039.95 480" stroke-width="0" stroke="none" stroke-linejoin="round" fill="#b4b8b9" fill-opacity="1"/>
<path d="M1039.95 480 L1055.05 480 M1055.05 520 L1039.95 520" stroke-width="0.5" stroke="black" stroke-linejoin="round" fill="#b4b8b9" fill-opacity="1"/>
<!-- !right !both --><path d="M1055.05 480 L1055.05 520" stroke-width="0.5" stroke="black" stroke-linejoin="round" fill="#b4b8b9" fill-opacity="1"/>
<!-- !left !both --><path d="M1039.95 480 L1039.95 520" stroke-width="0.5" stroke="black" stroke-linejoin="round" fill="#b4b8b9" fill-opacity="1"/>


<!-- renderSideComponent: cap -->


<!-- renderPart: cylinder -->
<path d="M1054.95 486.25 L1085.05 486.25 L1085.05 513.75 L1054.95 513.75 L1054.95 486.25" stroke-width="0" stroke="none" stroke-linejoin="round" fill="#b4b8b9" fill-opacity="1"/>
<path d="M1054.95 486.25 L1085.05 486.25 M1085.05 513.75 L1054.95 513.75" stroke-width="0.5" stroke="black" stroke-linejoin="round" fill="#b4b8b9" fill-opacity="1"/>
<!-- !right !both --><path d="M1085.05 486.25 L1085.05 513.75" stroke-width="0.5" stroke="black" stroke-linejoin="round" fill="#b4b8b9" fill-opacity="1"/>
<!-- !left !both --><path d="M1054.95 486.25 L1054.95 513.75" stroke-width="0.5" stroke="black" stroke-linejoin="round" fill="#b4b8b9" fill-opacity="1"/>


<!-- renderPart: cylinder -->
<path d="M1084.95 487.5 L1088.8 487.5 L1088.8 512.5 L1084.95 512.5 L1084.95 487.5" stroke-width="0" stroke="none" stroke-linejoin="round" fill="#b4b8b9" fill-opacity="1"/>
<path d="M1084.95 487.5 L1088.8 487.5 M1088.8 512.5 L1084.95 512.5" stroke-width="0.5" stroke="black" stroke-linejoin="round" fill="#b4b8b9" fill-opacity="1"/>
<!-- !right !both --><path d="M1088.8 487.5 L1088.8 512.5" stroke-width="0.5" stroke="black" stroke-linejoin="round" fill="#b4b8b9" fill-opacity="1"/>
<!-- !left !both --><path d="M1084.95 487.5 L1084.95 512.5" stroke-width="0.5" stroke="black" stroke-linejoin="round" fill="#b4b8b9" fill-opacity="1"/>


<!-- renderPart: cylinder -->
<path d="M1088.7 486.25 L1096.3 486.25 L1096.3 513.75 L1088.7 513.75 L1088.7 486.25" stroke-width="0" stroke="none" stroke-linejoin="round" fill="#b4b8b9" fill-opacity="1"/>
<path d="M1088.7 486.25 L1096.3 486.25 M1096.3 513.75 L1088.7 513.75" stroke-width="0.5" stroke="black" stroke-linejoin="round" fill="#b4b8b9" fill-opacity="1"/>
<!-- !right !both --><path d="M1096.3 486.25 L1096.3 513.75" stroke-width="0.5" stroke="black" stroke-linejoin="round" fill="#b4b8b9" fill-opacity="1"/>
<!-- !left !both --><path d="M1088.7 486.25 L1088.7 513.75" stroke-width="0.5" stroke="black" stroke-linejoin="round" fill="#b4b8b9" fill-opacity="1"/>


<!-- renderPart: cylinder -->
<path d="M1096.2 487.5 L1100.05 487.5 L1100.05 512.5 L1096.2 512.5 L1096.2 487.5" stroke-width="0" stroke="none" stroke-linejoin="round" fill="#b4b8b9" fill-opacity="1"/>
<path d="M1096.2 487.5 L1100.05 487.5 M1100.05 512.5 L1096.2 512.5" stroke-width="0.5" stroke="black" stroke-linejoin="round" fill="#b4b8b9" fill-opacity="1"/>
<!-- !right !both --><path d="M1100.05 487.5 L1100.05 512.5" stroke-width="0.5" stroke="black" stroke-linejoin="round" fill="#b4b8b9" fill-opacity="1"/>
<!-- !left !both --><path d="M1096.2 487.5 L1096.2 512.5" stroke-width="0.5" stroke="black" stroke-linejoin="round" fill="#b4b8b9" fill-opacity="1"/>


<!-- renderPart: cylinder -->
<path d="M1099.95 486.25 L1107.55 486.25 L1107.55 513.75 L1099.95 513.75 L1099.95 486.25" stroke-width="0" stroke="none" stroke-linejoin="round" fill="#b4b8b9" fill-opacity="1"/>
<path d="M1099.95 486.25 L1107.55 486.25 M1107.55 513.75 L1099.95 513.75" stroke-width="0.5" stroke="black" stroke-linejoin="round" fill="#b4b8b9" fill-opacity="1"/>
<!-- !right !both --><path d="M1107.55 486.25 L1107.55 513.75" stroke-width="0.5" stroke="black" stroke-linejoin="round" fill="#b4b8b9" fill-opacity="1"/>
<!-- !left !both --><path d="M1099.95 486.25 L1099.95 513.75" stroke-width="0.5" stroke="black" stroke-linejoin="round" fill="#b4b8b9" fill-opacity="1"/>


<!-- renderPart: cylinder -->
<path d="M1107.45 487.5 L1111.3 487.5 L1111.3 512.5 L1107.45 512.5 L1107.45 487.5" stroke-width="0" stroke="none" stroke-linejoin="round" fill="#b4b8b9" fill-opacity="1"/>
<path d="M1107.45 487.5 L1111.3 487.5 M1111.3 512.5 L1107.45 512.5" stroke-width="0.5" stroke="black" stroke-linejoin="round" fill="#b4b8b9" fill-opacity="1"/>
<!-- !right !both --><path d="M1111.3 487.5 L1111.3 512.5" stroke-width="0.5" stroke="black" stroke-linejoin="round" fill="#b4b8b9" fill-opacity="1"/>
<!-- !left !both --><path d="M1107.45 487.5 L1107.45 512.5" stroke-width="0.5" stroke="black" stroke-linejoin="round" fill="#b4b8b9" fill-opacity="1"/>


<!-- renderPart: cylinder -->
<path d="M1111.2 486.25 L1120.05 486.25 L1120.05 513.75 L1111.2 513.75 L1111.2 486.25" stroke-width="0" stroke="none" stroke-linejoin="round" fill="#b4b8b9" fill-opacity="1"/>
<path d="M1111.2 486.25 L1120.05 486.25 M1120.05 513.75 L1111.2 513.75" stroke-width="0.5" stroke="black" stroke-linejoin="round" fill="#b4b8b9" fill-opacity="1"/>
<!-- !right !both --><path d="M1120.05 486.25 L1120.05 513.75" stroke-width="0.5" stroke="black" stroke-linejoin="round" fill="#b4b8b9" fill-opacity="1"/>
<!-- !left !both --><path d="M1111.2 486.25 L1111.2 513.75" stroke-width="0.5" stroke="black" stroke-linejoin="round" fill="#b4b8b9" fill-opacity="1"/>

<!-- FRONT COMPONENT: cap -->
<circle r="13.75" cx="160" cy="500" fill="#b4b8b9" fill-opacity="1" stroke="black" stroke-width="0.5"  />
<circle r="12.5" cx="160" cy="500" fill="#b4b8b9" fill-opacity="1" stroke="black" stroke-width="0.5"  />
<circle r="13.75" cx="160" cy="500" fill="#b4b8b9" fill-opacity="1" stroke="black" stroke-width="0.5"  />
<circle r="12.5" cx="160" cy="500" fill="#b4b8b9" fill-opacity="1" stroke="black" stroke-width="0.5"  />
<circle r="13.75" cx="160" cy="500" fill="#b4b8b9" fill-opacity="1" stroke="black" stroke-width="0.5"  />
<circle r="12.5" cx="160" cy="500" fill="#b4b8b9" fill-opacity="1" stroke="black" stroke-width="0.5"  />
<circle r="13.75" cx="160" cy="500" fill="#b4b8b9" fill-opacity="1" stroke="black" stroke-width="0.5"  />

<!-- FRONT COMPONENT: foot -->
<circle r="20" cx="160" cy="500" fill="#b4b8b9" fill-opacity="1" stroke="black" stroke-width="0.5"  />

<!-- FRONT COMPONENT: indicator -->
<circle r="20.625" cx="160" cy="500" fill="#b4b8b9" fill-opacity="1" stroke="black" stroke-width="0.5"  />

<!-- FRONT COMPONENT: tail -->
<circle r="20" cx="160" cy="500" fill="#b4b8b9" fill-opacity="1" stroke="black" stroke-width="0.5"  />

<!-- FRONT COMPONENT: clip -->
<circle r="22.5" cx="160" cy="500" fill="#b4b8b9" fill-opacity="1" stroke="black" stroke-width="0.5"  />
<!-- WxH 4.5 2.75 --><rect x="148.75" y="464.625" width="22.5" height="13.75" rx="0" ry="0" stroke-width="1.0" stroke="dimgray" fill="#b4b8b9"/>
<rect x="148.75" y="464.625" width="22.5" height="13.75" rx="0" ry="0" stroke-width="1.0" stroke="dimgray" fill="none"/>
<!-- WxH 4.5 0.6 --><rect x="148.75" y="475.375" width="22.5" height="3" rx="0" ry="0" stroke-width="1.0" stroke="dimgray" fill="#b4b8b9"/>
<rect x="148.75" y="475.375" width="22.5" height="3" rx="0" ry="0" stroke-width="1.0" stroke="dimgray" fill="none"/>
<!-- WxH 4.5 0.6 --><rect x="148.75" y="475.375" width="22.5" height="3" rx="0" ry="0" stroke-width="1.0" stroke="dimgray" fill="#b4b8b9"/>
<rect x="148.75" y="475.375" width="22.5" height="3" rx="0" ry="0" stroke-width="1.0" stroke="dimgray" fill="none"/>

<!-- FRONT COMPONENT: body -->
<polygon points="148.4529946162075,480 171.5470053837925,480 183.09401076758502,500 171.5470053837925,520 148.4529946162075,520 136.90598923241498,500 " stroke="black" stroke-width="0.5" fill="#1d528a" fill-opacity="1"/>

<!-- FRONT COMPONENT: grip -->
<circle r="20.625" cx="160" cy="500" fill="#b4b8b9" fill-opacity="1" stroke="black" stroke-width="0.5"  />

<!-- FRONT COMPONENT: tip -->
<circle r="20.625" cx="160" cy="500" stroke="black" stroke-width="0.5" fill="#b4b8b9" fill-opacity="1"/>
<circle r="13.125" cx="160" cy="500" stroke="black" stroke-width="0.5" fill="#b4b8b9" fill-opacity="1"/>

<!-- FRONT COMPONENT: jaws -->
<circle r="10" cx="160" cy="500" stroke="black" stroke-width="0.5" fill="#b4b8b9" fill-opacity="1"/>
<circle r="8.125" cx="160" cy="500" stroke="black" stroke-width="0.5" fill="#b4b8b9" fill-opacity="1"/>
<circle r="5" cx="160" cy="500" fill="l" fill-opacity="1" stroke="dimgray" stroke-width="0.5"  />
<circle r="8.125" cx="1400" cy="500" stroke="black" stroke-width="0.5" fill="#b4b8b9" fill-opacity="1"/>
<circle r="10" cx="1400" cy="500" stroke="black" stroke-width="0.5" fill="#b4b8b9" fill-opacity="1"/>
<circle r="13.125" cx="1400" cy="500" stroke="black" stroke-width="0.5" fill="#b4b8b9" fill-opacity="1"/>
<circle r="20.625" cx="1400" cy="500" stroke="black" stroke-width="0.5" fill="#b4b8b9" fill-opacity="1"/>
<circle r="20.625" cx="1400" cy="500" fill="#b4b8b9" fill-opacity="1" stroke="black" stroke-width="0.5"  />
<polygon points="1388.4529946162074,480 1411.5470053837926,480 1423.0940107675851,500 1411.5470053837926,520 1388.4529946162074,520 1376.9059892324149,500 " stroke="black" stroke-width="0.5" fill="#1d528a" fill-opacity="1"/>
<circle r="22.5" cx="1400" cy="500" fill="#b4b8b9" fill-opacity="1" stroke="black" stroke-width="0.5"  />
<!-- WxH 4.5 0.6 --><rect x="1388.75" y="475.375" width="22.5" height="3" rx="0" ry="0" stroke-width="1.0" stroke="dimgray" fill="#b4b8b9"/>
<rect x="1388.75" y="475.375" width="22.5" height="3" rx="0" ry="0" stroke-width="1.0" stroke="dimgray" fill="none"/>
<!-- WxH 4.5 0.6 --><rect x="1388.75" y="475.375" width="22.5" height="3" rx="0" ry="0" stroke-width="1.0" stroke="dimgray" fill="#b4b8b9"/>
<rect x="1388.75" y="475.375" width="22.5" height="3" rx="0" ry="0" stroke-width="1.0" stroke="dimgray" fill="none"/>
<!-- WxH 4.5 2.75 --><rect x="1388.75" y="464.625" width="22.5" height="13.75" rx="0" ry="0" stroke-width="1.0" stroke="dimgray" fill="#b4b8b9"/>
<rect x="1388.75" y="464.625" width="22.5" height="13.75" rx="0" ry="0" stroke-width="1.0" stroke="dimgray" fill="none"/>
<circle r="20" cx="1400" cy="500" fill="#b4b8b9" fill-opacity="1" stroke="black" stroke-width="0.5"  />
<circle r="20.625" cx="1400" cy="500" fill="#b4b8b9" fill-opacity="1" stroke="black" stroke-width="0.5"  />
<circle r="20" cx="1400" cy="500" fill="#b4b8b9" fill-opacity="1" stroke="black" stroke-width="0.5"  />
<circle r="13.75" cx="1400" cy="500" fill="#b4b8b9" fill-opacity="1" stroke="black" stroke-width="0.5"  />
<circle r="12.5" cx="1400" cy="500" fill="#b4b8b9" fill-opacity="1" stroke="black" stroke-width="0.5"  />
<circle r="13.75" cx="1400" cy="500" fill="#b4b8b9" fill-opacity="1" stroke="black" stroke-width="0.5"  />
<circle r="12.5" cx="1400" cy="500" fill="#b4b8b9" fill-opacity="1" stroke="black" stroke-width="0.5"  />
<circle r="13.75" cx="1400" cy="500" fill="#b4b8b9" fill-opacity="1" stroke="black" stroke-width="0.5"  />
<circle r="12.5" cx="1400" cy="500" fill="#b4b8b9" fill-opacity="1" stroke="black" stroke-width="0.5"  />
<circle r="13.75" cx="1400" cy="500" fill="#b4b8b9" fill-opacity="1" stroke="black" stroke-width="0.5"  />
<circle r="5" cx="1400" cy="500" fill="l" fill-opacity="1" stroke="dimgray" stroke-width="1"  />
</g><text x="50%" y="780" font-size="1.1em" font-weight="bold" text-anchor="middle" dominant-baseline="middle">Copyright (c) // Synapticloop // The Mechanical Pencil Database (tmpdb) // Licensed under Creative Commons Attribution-NonCommercial-ShareAlike 4.0 International</text>
<text x="1490" y="790" font-size="0.5em" font-weight="bold" text-anchor="end" dominant-baseline="middle">SVGTechnicalRenderer</text>
</svg>