<svg xmlns="http://www.w3.org/2000/svg" width="1200" height="500">
 <pattern id="knurled-large" patternUnits="userSpaceOnUse" width="12" height="12">
<path stroke="dimgray" stroke-linecap="round" stroke-width="1" d="M 6,6 L 12,12"/>
<path stroke="dimgray" stroke-linecap="round" stroke-width="1" d="M 6,6 L 0,12"/>
<path stroke="gray" stroke-linecap="round" stroke-width="1" d="M 6,6 L 12,0" />
<path stroke="gray" stroke-linecap="round" stroke-width="1" d="M 6,6 L 0,0" />
</pattern><pattern id="knurled-small" patternUnits="userSpaceOnUse" width="4" height="4">
<path stroke="dimgray" stroke-linecap="round" stroke-width="1" d="M 2,2 L 4,4"/>
<path stroke="dimgray" stroke-linecap="round" stroke-width="1" d="M 2,2 L 0,4"/>
<path stroke="gray" stroke-linecap="round" stroke-width="1" d="M 2,2 L 4,0" />
<path stroke="gray" stroke-linecap="round" stroke-width="1" d="M 2,2 L 0,0" />
</pattern><pattern id="knurled" patternUnits="userSpaceOnUse" width="8" height="8">
<path stroke="dimgray" stroke-linecap="round" stroke-width="1" d="M 4,4 L 8,8"/>
<path stroke="dimgray" stroke-linecap="round" stroke-width="1" d="M 4,4 L 0,8"/>
<path stroke="gray" stroke-linecap="round" stroke-width="1" d="M 4,4 L 8,0" />
<path stroke="gray" stroke-linecap="round" stroke-width="1" d="M 4,4 L 0,0" />
</pattern><pattern id="lined" patternUnits="userSpaceOnUse" width="3" height="3">
<path stroke="dimgray" stroke-linecap="round" stroke-width="1" d="M 0,0 L 3,0"/>
</pattern><pattern id="ridged" patternUnits="userSpaceOnUse" width="3" height="3">
<path stroke="dimgray" stroke-linecap="round" stroke-width="1" d="M 0,0 L 0,3"/>
</pattern><pattern id="spring" patternUnits="userSpaceOnUse" width="8" height="60">
<path stroke="dimgray" stroke-linecap="round" stroke-width="2" d="M 1,1 L 8,60"/>
<path stroke="white" stroke-linecap="round" stroke-width="1" d="M 1,1 L 8,60"/>
</pattern><rect x="0" y="0" width="1200" height="500" fill="white" stroke="black" stroke-width="4" />
<rect x="2" y="2" width="1196" height="496" fill="white" stroke="dimgray" stroke-width="1" />
<g transform="rotate(0 0 0)">
<line x1="40" y1="300" x2="1160" y2="300" stroke-linecap="round" stroke="#5f5f5f" stroke-dasharray="2" stroke-width="1" />
<line x1="20" y1="300" x2="60" y2="300" stroke-linecap="round" stroke="#000000"  stroke-width="1" />
<line x1="40" y1="280" x2="40" y2="320" stroke="#000000" stroke-linecap="round"  stroke-width="1" />
<circle r="10" cx="40" cy="300" fill="white" fill-opacity="0" stroke="#000000" stroke-width="1"  />
<line x1="1140" y1="300" x2="1180" y2="300" stroke-linecap="round" stroke="#000000"  stroke-width="1" />
<line x1="1160" y1="280" x2="1160" y2="320" stroke="#000000" stroke-linecap="round"  stroke-width="1" />
<circle r="10" cx="1160" cy="300" fill="white" fill-opacity="0" stroke="#000000" stroke-width="1"  />
<line x1="600" y1="90" x2="600" y2="410" stroke="#5f5f5f" stroke-linecap="round" stroke-dasharray="2" stroke-width="1" />
<line x1="580" y1="90" x2="620" y2="90" stroke-linecap="round" stroke="#000000"  stroke-width="1" />
<line x1="600" y1="70" x2="600" y2="110" stroke="#000000" stroke-linecap="round"  stroke-width="1" />
<circle r="10" cx="600" cy="90" fill="white" fill-opacity="0" stroke="#000000" stroke-width="1"  />
<line x1="580" y1="410" x2="620" y2="410" stroke-linecap="round" stroke="#000000"  stroke-width="1" />
<line x1="600" y1="390" x2="600" y2="430" stroke="#000000" stroke-linecap="round"  stroke-width="1" />
<circle r="10" cx="600" cy="410" fill="white" fill-opacity="0" stroke="#000000" stroke-width="1"  />
<text x="30" y="50" font-size="2.0em" font-weight="bold"> Pacific Arc // TECH PRO (Model #: H-1305)</text>
<line x1="230" y1="189.5" x2="230" y2="300" stroke="#cfcfcf" stroke-linecap="round"  stroke-width="1" />
<line x1="230" y1="180" x2="230" y2="300" stroke="#cfcfcf" stroke-linecap="round"  stroke-width="1" />
<line x1="241.25" y1="180" x2="241.25" y2="300" stroke="#cfcfcf" stroke-linecap="round"  stroke-width="1" />
<line x1="310" y1="180" x2="310" y2="300" stroke="#cfcfcf" stroke-linecap="round"  stroke-width="1" />
<line x1="457.5" y1="180" x2="457.5" y2="300" stroke="#cfcfcf" stroke-linecap="round"  stroke-width="1" />
<line x1="795" y1="180" x2="795" y2="300" stroke="#cfcfcf" stroke-linecap="round"  stroke-width="1" />
<line x1="637.5" y1="220" x2="637.5" y2="300" stroke="#cfcfcf" stroke-linecap="round"  stroke-width="1" />
<line x1="832.5" y1="220" x2="832.5" y2="300" stroke="#cfcfcf" stroke-linecap="round"  stroke-width="1" />
<line x1="822.5" y1="180" x2="822.5" y2="300" stroke="#cfcfcf" stroke-linecap="round"  stroke-width="1" />
<line x1="842.5" y1="180" x2="842.5" y2="300" stroke="#cfcfcf" stroke-linecap="round"  stroke-width="1" />
<line x1="890" y1="180" x2="890" y2="300" stroke="#cfcfcf" stroke-linecap="round"  stroke-width="1" />
<line x1="905" y1="180" x2="905" y2="300" stroke="#cfcfcf" stroke-linecap="round"  stroke-width="1" />
<line x1="970" y1="189.5" x2="970" y2="300" stroke="#cfcfcf" stroke-linecap="round"  stroke-width="1" />
<line x1="230" y1="169" x2="230" y2="191" stroke="black" stroke-width="1" />
<line x1="230" y1="180" x2="241.25" y2="180" stroke="black" stroke-width="1" />
<line x1="241.25" y1="169" x2="241.25" y2="191" stroke="black" stroke-width="1" />
<text x="235.625" y="161" font-size="1.2em" transform="rotate(-90, 235.625, 161)" font-weight="bold" text-anchor="start" dominant-baseline="central" fill="black"><tspan x="235.625" dy="0">2.25 mm jaws</tspan></text>
<line x1="241.25" y1="169" x2="241.25" y2="191" stroke="black" stroke-width="1" />
<line x1="241.25" y1="180" x2="310" y2="180" stroke="black" stroke-width="1" />
<line x1="310" y1="169" x2="310" y2="191" stroke="black" stroke-width="1" />
<text x="275.625" y="161" font-size="1.2em" transform="rotate(-90, 263.625, 161)" font-weight="bold" text-anchor="start" dominant-baseline="central" fill="black"><tspan x="267.625" dy="0">13.75 mm</tspan><tspan x="267.625" dy="1em">tip</tspan></text>
<line x1="310" y1="169" x2="310" y2="191" stroke="black" stroke-width="1" />
<line x1="310" y1="180" x2="457.5" y2="180" stroke="black" stroke-width="1" />
<line x1="457.5" y1="169" x2="457.5" y2="191" stroke="black" stroke-width="1" />
<text x="383.75" y="161" font-size="1.2em" transform="rotate(-90, 371.75, 161)" font-weight="bold" text-anchor="start" dominant-baseline="central" fill="black"><tspan x="375.75" dy="0">29.50 mm</tspan><tspan x="375.75" dy="1em">grip</tspan></text>
<line x1="457.5" y1="169" x2="457.5" y2="191" stroke="black" stroke-width="1" />
<line x1="457.5" y1="180" x2="795" y2="180" stroke="black" stroke-width="1" />
<line x1="795" y1="169" x2="795" y2="191" stroke="black" stroke-width="1" />
<text x="626.25" y="161" font-size="1.2em" transform="rotate(-90, 614.25, 161)" font-weight="bold" text-anchor="start" dominant-baseline="central" fill="black"><tspan x="618.25" dy="0">67.50 mm</tspan><tspan x="618.25" dy="1em">body</tspan></text>
<line x1="795" y1="169" x2="795" y2="191" stroke="black" stroke-width="1" />
<line x1="795" y1="180" x2="822.5" y2="180" stroke="black" stroke-width="1" />
<line x1="822.5" y1="169" x2="822.5" y2="191" stroke="black" stroke-width="1" />
<text x="808.75" y="161" font-size="1.2em" transform="rotate(-90, 808.75, 161)" font-weight="bold" text-anchor="start" dominant-baseline="central" fill="black"><tspan x="808.75" dy="0">5.50 mm clip</tspan></text>
<line x1="637.5" y1="209" x2="637.5" y2="231" stroke="black" stroke-width="1" />
<line x1="637.5" y1="220" x2="832.5" y2="220" stroke="black" stroke-width="1" />
<line x1="832.5" y1="209" x2="832.5" y2="231" stroke="black" stroke-width="1" />
<text x="735" y="212" font-weight="bold" font-size="1.2em" stroke="white" stroke-width="0.25" text-anchor="middle" dominant-baseline="middle" fill="black"><tspan x="727" dy="0">39.00 mm</tspan><tspan x="727" dy="1em">clip (extra)</tspan></text>
<line x1="822.5" y1="169" x2="822.5" y2="191" stroke="black" stroke-width="1" />
<line x1="822.5" y1="180" x2="842.5" y2="180" stroke="black" stroke-width="1" />
<line x1="842.5" y1="169" x2="842.5" y2="191" stroke="black" stroke-width="1" />
<text x="832.5" y="161" font-size="1.2em" transform="rotate(-90, 832.5, 161)" font-weight="bold" text-anchor="start" dominant-baseline="central" fill="black"><tspan x="832.5" dy="0">4.00 mm tail</tspan></text>
<line x1="842.5" y1="169" x2="842.5" y2="191" stroke="black" stroke-width="1" />
<line x1="842.5" y1="180" x2="890" y2="180" stroke="black" stroke-width="1" />
<line x1="890" y1="169" x2="890" y2="191" stroke="black" stroke-width="1" />
<text x="866.25" y="161" font-size="1.2em" transform="rotate(-90, 854.25, 161)" font-weight="bold" text-anchor="start" dominant-baseline="central" fill="black"><tspan x="858.25" dy="0">9.50 mm</tspan><tspan x="858.25" dy="1em">indicator</tspan></text>
<line x1="890" y1="169" x2="890" y2="191" stroke="black" stroke-width="1" />
<line x1="890" y1="180" x2="905" y2="180" stroke="black" stroke-width="1" />
<line x1="905" y1="169" x2="905" y2="191" stroke="black" stroke-width="1" />
<text x="897.5" y="161" font-size="1.2em" transform="rotate(-90, 897.5, 161)" font-weight="bold" text-anchor="start" dominant-baseline="central" fill="black"><tspan x="897.5" dy="0">3.00 mm foot</tspan></text>
<line x1="905" y1="169" x2="905" y2="191" stroke="black" stroke-width="1" />
<line x1="905" y1="180" x2="970" y2="180" stroke="black" stroke-width="1" />
<line x1="970" y1="169" x2="970" y2="191" stroke="black" stroke-width="1" />
<text x="937.5" y="161" font-size="1.2em" transform="rotate(-90, 925.5, 161)" font-weight="bold" text-anchor="start" dominant-baseline="central" fill="black"><tspan x="929.5" dy="0">13.00 mm</tspan><tspan x="929.5" dy="1em">cap</tspan></text>


<!-- renderSideComponent: jaws -->


<!-- renderPart: cone -->
<path d="M229.95 291.875 L241.3 290 L241.3 310 L229.95 308.125 Z" stroke-width="0" stroke="none" stroke-linejoin="round" fill="white" fill-opacity="1"/>
<path d="M230 291.875 L241.25 290 M241.25 310 L230 308.125" stroke-width="0.5" stroke="black" stroke-linejoin="round" fill="white" fill-opacity="1"/>
<!-- !right !both --><path d="M241.25 290 L241.25 310" stroke-width="0.5" stroke="black" stroke-linejoin="round" fill="white" fill-opacity="1"/>
<!-- !left !both --><path d="M230 291.875 L230 308.125" stroke-width="0.5" stroke="black" stroke-linejoin="round" fill="white" fill-opacity="1"/>


<!-- renderSideComponent: tip -->


<!-- renderPart: cone -->
<path d="M241.2 286.875 L310.05 279.375 L310.05 320.625 L241.2 313.125 Z" stroke-width="0" stroke="none" stroke-linejoin="round" fill="white" fill-opacity="1"/>
<path d="M241.25 286.875 L310 279.375 M310 320.625 L241.25 313.125" stroke-width="0.5" stroke="black" stroke-linejoin="round" fill="white" fill-opacity="1"/>
<!-- !right !both --><path d="M310 279.375 L310 320.625" stroke-width="0.5" stroke="black" stroke-linejoin="round" fill="white" fill-opacity="1"/>
<!-- !left !both --><path d="M241.25 286.875 L241.25 313.125" stroke-width="0.5" stroke="black" stroke-linejoin="round" fill="white" fill-opacity="1"/>


<!-- renderSideComponent: grip -->


<!-- renderPart: cylinder -->
<path d="M309.95 279.375 L457.55 279.375 L457.55 320.625 L309.95 320.625 Z" stroke-width="0" stroke="none" stroke-linejoin="round" fill="white" fill-opacity="1"/>
<path d="M310 279.375 L457.5 279.375 M457.5 320.625 L310 320.625" stroke-width="0.5" stroke="black" stroke-linejoin="round" fill="white" fill-opacity="1"/>
<!-- !right !both --><path d="M457.5 279.375 L457.5 320.625" stroke-width="0.5" stroke="black" stroke-linejoin="round" fill="white" fill-opacity="1"/>
<!-- !left !both --><path d="M310 279.375 L310 320.625" stroke-width="0.5" stroke="black" stroke-linejoin="round" fill="white" fill-opacity="1"/>
<path d="M310 279.375 L457.5 279.375 L457.5 320.625 L310 320.625 Z" stroke-width="1.0" stroke="black" fill="url(#knurled)"/>


<!-- renderSideComponent: body -->


<!-- renderPart: hexagonal -->
<path d="M457.45 280 L795.05 280 L795.05 320 L457.45 320 Z" stroke-width="0" stroke="none" stroke-linejoin="round" fill="white" fill-opacity="1"/>
<path d="M457.5 280 L795 280 M795 320 L457.5 320" stroke-width="0.5" stroke="black" stroke-linejoin="round" fill="white" fill-opacity="1"/>
<!-- !right !both --><path d="M795 280 L795 320" stroke-width="0.5" stroke="black" stroke-linejoin="round" fill="white" fill-opacity="1"/>
<!-- !left !both --><path d="M457.5 280 L457.5 320" stroke-width="0.5" stroke="black" stroke-linejoin="round" fill="white" fill-opacity="1"/>
<line x1="457.5" y1="300" x2="795" y2="300" stroke-width="1.5" stroke="gray" fill="gray" stroke-opacity="1.0"/>
<line x1="457.5" y1="300" x2="795" y2="300" stroke-width="0.5" stroke="black" fill="none" stroke-opacity="0.5"/>


<!-- renderSideComponent: clip -->
<path d="M639.75 265.875 Q662.5 289.375 672.5 265.875 Z" stroke-width="4" stroke="black" fill="dimgray" stroke-linecap="round" />
<line x1="637.5" y1="264.375" x2="820" y2="264.375" stroke-width="4" stroke="black" fill="dimgray" stroke-linecap="round" />
<path d="M820 264.375 Q840 271.875 820 278.125" stroke-width="4" stroke="black" fill="none" stroke-linecap="round" />


<!-- renderPart: cylinder -->
<path d="M794.95 277.5 L822.55 277.5 L822.55 322.5 L794.95 322.5 Z" stroke-width="0" stroke="none" stroke-linejoin="round" fill="white" fill-opacity="1"/>
<path d="M795 277.5 L822.5 277.5 M822.5 322.5 L795 322.5" stroke-width="0.5" stroke="black" stroke-linejoin="round" fill="white" fill-opacity="1"/>
<!-- !right !both --><path d="M822.5 277.5 L822.5 322.5" stroke-width="0.5" stroke="black" stroke-linejoin="round" fill="white" fill-opacity="1"/>
<!-- !left !both --><path d="M795 277.5 L795 322.5" stroke-width="0.5" stroke="black" stroke-linejoin="round" fill="white" fill-opacity="1"/>
<path d="M639.75 265.875 Q662.5 288.375 672.5 265.875 Z" stroke-width="3" stroke="white" fill="white" stroke-linecap="round" />
<line x1="637.5" y1="264.375" x2="820" y2="264.375" stroke-width="3" stroke="white" fill="white" stroke-linecap="round" />
<path d="M820 264.375 Q840 271.875 820 278.125" stroke-width="3" stroke="white" fill="none" stroke-linecap="round" />


<!-- renderSideComponent: tail -->


<!-- renderPart: cylinder -->
<path d="M822.45 280 L842.55 280 L842.55 320 L822.45 320 Z" stroke-width="0" stroke="none" stroke-linejoin="round" fill="white" fill-opacity="1"/>
<path d="M822.5 280 L842.5 280 M842.5 320 L822.5 320" stroke-width="0.5" stroke="black" stroke-linejoin="round" fill="white" fill-opacity="1"/>
<!-- !right !both --><path d="M842.5 280 L842.5 320" stroke-width="0.5" stroke="black" stroke-linejoin="round" fill="white" fill-opacity="1"/>
<!-- !left !both --><path d="M822.5 280 L822.5 320" stroke-width="0.5" stroke="black" stroke-linejoin="round" fill="white" fill-opacity="1"/>


<!-- renderSideComponent: indicator -->


<!-- renderPart: cylinder -->
<path d="M842.45 279.375 L890.05 279.375 L890.05 320.625 L842.45 320.625 Z" stroke-width="0" stroke="none" stroke-linejoin="round" fill="white" fill-opacity="1"/>
<path d="M842.5 279.375 L890 279.375 M890 320.625 L842.5 320.625" stroke-width="0.5" stroke="black" stroke-linejoin="round" fill="white" fill-opacity="1"/>
<!-- !right !both --><path d="M890 279.375 L890 320.625" stroke-width="0.5" stroke="black" stroke-linejoin="round" fill="white" fill-opacity="1"/>
<!-- !left !both --><path d="M842.5 279.375 L842.5 320.625" stroke-width="0.5" stroke="black" stroke-linejoin="round" fill="white" fill-opacity="1"/>
<path d="M842.5 279.375 L890 279.375 L890 320.625 L842.5 320.625 Z" stroke-width="1.0" stroke="black" fill="url(#knurled)"/>
<rect x="852.5" y="289.6875" width="27.5" height="20.625" rx="3" ry="3" stroke-width="1" stroke="black" fill="white"/>
<text x="866.25" y="300" text-anchor="middle" dominant-baseline="central"><tspan stroke="dimgray" stroke-width="0.5" font-family="sans-serif" fill="black" textLength="{this.width * 5 - 24}" > HB</tspan></text>

<!-- renderSideComponent: foot -->


<!-- renderPart: cylinder -->
<path d="M889.95 280 L905.05 280 L905.05 320 L889.95 320 Z" stroke-width="0" stroke="none" stroke-linejoin="round" fill="white" fill-opacity="1"/>
<path d="M890 280 L905 280 M905 320 L890 320" stroke-width="0.5" stroke="black" stroke-linejoin="round" fill="white" fill-opacity="1"/>
<!-- !right !both --><path d="M905 280 L905 320" stroke-width="0.5" stroke="black" stroke-linejoin="round" fill="white" fill-opacity="1"/>
<!-- !left !both --><path d="M890 280 L890 320" stroke-width="0.5" stroke="black" stroke-linejoin="round" fill="white" fill-opacity="1"/>


<!-- renderSideComponent: cap -->


<!-- renderPart: cylinder -->
<path d="M904.95 286.25 L935.05 286.25 L935.05 313.75 L904.95 313.75 Z" stroke-width="0" stroke="none" stroke-linejoin="round" fill="white" fill-opacity="1"/>
<path d="M905 286.25 L935 286.25 M935 313.75 L905 313.75" stroke-width="0.5" stroke="black" stroke-linejoin="round" fill="white" fill-opacity="1"/>
<!-- !right !both --><path d="M935 286.25 L935 313.75" stroke-width="0.5" stroke="black" stroke-linejoin="round" fill="white" fill-opacity="1"/>
<!-- !left !both --><path d="M905 286.25 L905 313.75" stroke-width="0.5" stroke="black" stroke-linejoin="round" fill="white" fill-opacity="1"/>


<!-- renderPart: cylinder -->
<path d="M934.95 287.5 L938.8 287.5 L938.8 312.5 L934.95 312.5 Z" stroke-width="0" stroke="none" stroke-linejoin="round" fill="white" fill-opacity="1"/>
<path d="M935 287.5 L938.75 287.5 M938.75 312.5 L935 312.5" stroke-width="0.5" stroke="black" stroke-linejoin="round" fill="white" fill-opacity="1"/>
<!-- !right !both --><path d="M938.75 287.5 L938.75 312.5" stroke-width="0.5" stroke="black" stroke-linejoin="round" fill="white" fill-opacity="1"/>
<!-- !left !both --><path d="M935 287.5 L935 312.5" stroke-width="0.5" stroke="black" stroke-linejoin="round" fill="white" fill-opacity="1"/>


<!-- renderPart: cylinder -->
<path d="M938.7 286.25 L946.3 286.25 L946.3 313.75 L938.7 313.75 Z" stroke-width="0" stroke="none" stroke-linejoin="round" fill="white" fill-opacity="1"/>
<path d="M938.75 286.25 L946.25 286.25 M946.25 313.75 L938.75 313.75" stroke-width="0.5" stroke="black" stroke-linejoin="round" fill="white" fill-opacity="1"/>
<!-- !right !both --><path d="M946.25 286.25 L946.25 313.75" stroke-width="0.5" stroke="black" stroke-linejoin="round" fill="white" fill-opacity="1"/>
<!-- !left !both --><path d="M938.75 286.25 L938.75 313.75" stroke-width="0.5" stroke="black" stroke-linejoin="round" fill="white" fill-opacity="1"/>


<!-- renderPart: cylinder -->
<path d="M946.2 287.5 L950.05 287.5 L950.05 312.5 L946.2 312.5 Z" stroke-width="0" stroke="none" stroke-linejoin="round" fill="white" fill-opacity="1"/>
<path d="M946.25 287.5 L950 287.5 M950 312.5 L946.25 312.5" stroke-width="0.5" stroke="black" stroke-linejoin="round" fill="white" fill-opacity="1"/>
<!-- !right !both --><path d="M950 287.5 L950 312.5" stroke-width="0.5" stroke="black" stroke-linejoin="round" fill="white" fill-opacity="1"/>
<!-- !left !both --><path d="M946.25 287.5 L946.25 312.5" stroke-width="0.5" stroke="black" stroke-linejoin="round" fill="white" fill-opacity="1"/>


<!-- renderPart: cylinder -->
<path d="M949.95 286.25 L957.55 286.25 L957.55 313.75 L949.95 313.75 Z" stroke-width="0" stroke="none" stroke-linejoin="round" fill="white" fill-opacity="1"/>
<path d="M950 286.25 L957.5 286.25 M957.5 313.75 L950 313.75" stroke-width="0.5" stroke="black" stroke-linejoin="round" fill="white" fill-opacity="1"/>
<!-- !right !both --><path d="M957.5 286.25 L957.5 313.75" stroke-width="0.5" stroke="black" stroke-linejoin="round" fill="white" fill-opacity="1"/>
<!-- !left !both --><path d="M950 286.25 L950 313.75" stroke-width="0.5" stroke="black" stroke-linejoin="round" fill="white" fill-opacity="1"/>


<!-- renderPart: cylinder -->
<path d="M957.45 287.5 L961.3 287.5 L961.3 312.5 L957.45 312.5 Z" stroke-width="0" stroke="none" stroke-linejoin="round" fill="white" fill-opacity="1"/>
<path d="M957.5 287.5 L961.25 287.5 M961.25 312.5 L957.5 312.5" stroke-width="0.5" stroke="black" stroke-linejoin="round" fill="white" fill-opacity="1"/>
<!-- !right !both --><path d="M961.25 287.5 L961.25 312.5" stroke-width="0.5" stroke="black" stroke-linejoin="round" fill="white" fill-opacity="1"/>
<!-- !left !both --><path d="M957.5 287.5 L957.5 312.5" stroke-width="0.5" stroke="black" stroke-linejoin="round" fill="white" fill-opacity="1"/>


<!-- renderPart: cylinder -->
<path d="M961.2 286.25 L970.05 286.25 L970.05 313.75 L961.2 313.75 Z" stroke-width="0" stroke="none" stroke-linejoin="round" fill="white" fill-opacity="1"/>
<path d="M961.25 286.25 L970 286.25 M970 313.75 L961.25 313.75" stroke-width="0.5" stroke="black" stroke-linejoin="round" fill="white" fill-opacity="1"/>
<!-- !right !both --><path d="M970 286.25 L970 313.75" stroke-width="0.5" stroke="black" stroke-linejoin="round" fill="white" fill-opacity="1"/>
<!-- !left !both --><path d="M961.25 286.25 L961.25 313.75" stroke-width="0.5" stroke="black" stroke-linejoin="round" fill="white" fill-opacity="1"/>
</g><text x="50%" y="460" font-size="1.1em" font-weight="bold" text-anchor="middle" dominant-baseline="middle">Copyright (c) // Synapticloop // The Mechanical Pencil Database (tmpdb)</text>
<text x="50%" y="480" font-size="1.1em" font-weight="bold" text-anchor="middle" dominant-baseline="middle">Licensed under Creative Commons Attribution-NonCommercial-ShareAlike 4.0 International</text>
<text x="1190" y="490" font-size="0.5em" font-weight="bold" text-anchor="end" dominant-baseline="middle">SVGTechnicalComponentRenderer</text>
</svg>