<svg xmlns="http://www.w3.org/2000/svg" width="1000" height="240">
 <pattern id="knurled-large" patternUnits="userSpaceOnUse" width="12" height="12">
<path stroke="dimgray" stroke-linecap="round" stroke-width="1" d="M 6,6 L 12,12"/>
<path stroke="dimgray" stroke-linecap="round" stroke-width="1" d="M 6,6 L 0,12"/>
<path stroke="gray" stroke-linecap="round" stroke-width="1" d="M 6,6 L 12,0" />
<path stroke="gray" stroke-linecap="round" stroke-width="1" d="M 6,6 L 0,0" />
</pattern><pattern id="knurled-small" patternUnits="userSpaceOnUse" width="4" height="4">
<path stroke="dimgray" stroke-linecap="round" stroke-width="1" d="M 2,2 L 4,4"/>
<path stroke="dimgray" stroke-linecap="round" stroke-width="1" d="M 2,2 L 0,4"/>
<path stroke="gray" stroke-linecap="round" stroke-width="1" d="M 2,2 L 4,0" />
<path stroke="gray" stroke-linecap="round" stroke-width="1" d="M 2,2 L 0,0" />
</pattern><pattern id="knurled" patternUnits="userSpaceOnUse" width="8" height="8">
<path stroke="dimgray" stroke-linecap="round" stroke-width="1" d="M 4,4 L 8,8"/>
<path stroke="dimgray" stroke-linecap="round" stroke-width="1" d="M 4,4 L 0,8"/>
<path stroke="gray" stroke-linecap="round" stroke-width="1" d="M 4,4 L 8,0" />
<path stroke="gray" stroke-linecap="round" stroke-width="1" d="M 4,4 L 0,0" />
</pattern><pattern id="lined" patternUnits="userSpaceOnUse" width="3" height="3">
<path stroke="dimgray" stroke-linecap="round" stroke-width="1" d="M 0,0 L 3,0"/>
</pattern><pattern id="ridged" patternUnits="userSpaceOnUse" width="3" height="3">
<path stroke="dimgray" stroke-linecap="round" stroke-width="1" d="M 0,0 L 0,3"/>
</pattern><pattern id="spring" patternUnits="userSpaceOnUse" width="8" height="60">
<path stroke="dimgray" stroke-linecap="round" stroke-width="2" d="M 1,1 L 8,60"/>
<path stroke="white" stroke-linecap="round" stroke-width="1" d="M 1,1 L 8,60"/>
</pattern><rect x="0" y="0" width="1000" height="240" fill="white" stroke="black" stroke-width="4" />
<rect x="2" y="2" width="996" height="236" fill="white" stroke="dimgray" stroke-width="1" />
<g transform="rotate(0 0 0)">
<text x="30" y="50" font-size="2.0em" font-weight="bold"> Unbranded // Plastic Black (manomano.co.uk) (Model #: unknown)</text>


<!-- renderSideComponent: jaws -->


<!-- renderPart: cone -->
<path d="M145.575 109.375 L150.675 106.875 L150.675 133.125 L145.575 130.625 L145.575 109.375" stroke-width="0" stroke="none" stroke-linejoin="round" fill="silver" fill-opacity="1"/>
<path d="M145.575 109.375 L150.675 106.875 M150.675 133.125 L145.575 130.625" stroke-width="0.5" stroke="black" stroke-linejoin="round" fill="silver" fill-opacity="1"/>
<!-- !right !both --><path d="M150.675 106.875 L150.675 133.125" stroke-width="0.5" stroke="black" stroke-linejoin="round" fill="silver" fill-opacity="1"/>
<!-- !left !both --><path d="M145.575 109.375 L145.575 130.625" stroke-width="0.5" stroke="black" stroke-linejoin="round" fill="silver" fill-opacity="1"/>


<!-- renderPart: cylinder -->
<path d="M150.575 106.875 L159.425 106.875 L159.425 133.125 L150.575 133.125 L150.575 106.875" stroke-width="0" stroke="none" stroke-linejoin="round" fill="silver" fill-opacity="1"/>
<path d="M150.575 106.875 L159.425 106.875 M159.425 133.125 L150.575 133.125" stroke-width="0.5" stroke="black" stroke-linejoin="round" fill="silver" fill-opacity="1"/>
<!-- !right !both --><path d="M159.425 106.875 L159.425 133.125" stroke-width="0.5" stroke="black" stroke-linejoin="round" fill="silver" fill-opacity="1"/>
<!-- !left !both --><path d="M150.575 106.875 L150.575 133.125" stroke-width="0.5" stroke="black" stroke-linejoin="round" fill="silver" fill-opacity="1"/>


<!-- renderSideComponent: tip -->


<!-- renderPart: cone -->
<path d="M159.325 106.875 L220.675 101.875 L220.675 138.125 L159.325 133.125 L159.325 106.875" stroke-width="0" stroke="none" stroke-linejoin="round" fill="silver" fill-opacity="1"/>
<path d="M159.325 106.875 L220.675 101.875 M220.675 138.125 L159.325 133.125" stroke-width="0.5" stroke="black" stroke-linejoin="round" fill="silver" fill-opacity="1"/>
<!-- !right !both --><path d="M220.675 101.875 L220.675 138.125" stroke-width="0.5" stroke="black" stroke-linejoin="round" fill="silver" fill-opacity="1"/>
<!-- !left !both --><path d="M159.325 106.875 L159.325 133.125" stroke-width="0.5" stroke="black" stroke-linejoin="round" fill="silver" fill-opacity="1"/>


<!-- renderSideComponent: grip -->


<!-- renderPart: cylinder -->
<path d="M220.575 99.375 L349.425 99.375 L349.425 140.625 L220.575 140.625 L220.575 99.375" stroke-width="0" stroke="none" stroke-linejoin="round" fill="silver" fill-opacity="1"/>
<path d="M220.575 99.375 L349.425 99.375 M349.425 140.625 L220.575 140.625" stroke-width="0.5" stroke="black" stroke-linejoin="round" fill="silver" fill-opacity="1"/>
<!-- !right !both --><path d="M349.425 99.375 L349.425 140.625" stroke-width="0.5" stroke="black" stroke-linejoin="round" fill="silver" fill-opacity="1"/>
<!-- !left !both --><path d="M220.575 99.375 L220.575 140.625" stroke-width="0.5" stroke="black" stroke-linejoin="round" fill="silver" fill-opacity="1"/>
<!-- DEFAULT FINISH: knurled --><path d="M220.625 99.375 L349.375 99.375 L349.375 140.625 L220.625 140.625 Z" stroke-width="0.5" stroke="black" fill="url(#knurled)"/>


<!-- renderSideComponent: body -->


<!-- renderPart: hexagonal -->
<path d="M349.325 99.375 L679.425 99.375 L679.425 140.625 L349.325 140.625 L349.325 99.375" stroke-width="0" stroke="none" stroke-linejoin="round" fill="black" fill-opacity="1"/>
<path d="M349.325 99.375 L679.425 99.375 M679.425 140.625 L349.325 140.625" stroke-width="0.5" stroke="dimgray" stroke-linejoin="round" fill="black" fill-opacity="1"/>
<!-- !right !both --><path d="M679.425 99.375 L679.425 140.625" stroke-width="0.5" stroke="dimgray" stroke-linejoin="round" fill="black" fill-opacity="1"/>
<!-- !left !both --><path d="M349.325 99.375 L349.325 140.625" stroke-width="0.5" stroke="dimgray" stroke-linejoin="round" fill="black" fill-opacity="1"/>
<line x1="349.375" y1="120" x2="679.375" y2="120" stroke-width="1.5" stroke="gray" fill="gray" stroke-opacity="1.0"/>
<line x1="349.375" y1="120" x2="679.375" y2="120" stroke-width="0.5" stroke="black" fill="none" stroke-opacity="0.5"/>


<!-- renderSideComponent: clip -->
<path d="M521.5 86.5 Q544.375 109.75 554.375 84.25 Z" stroke-width="4" stroke="black" fill="dimgray" stroke-linecap="round" />
<line x1="519.375" y1="84.75" x2="686.875" y2="79.75" stroke-width="5" stroke="black" fill="dimgray" stroke-linecap="round" />
<line x1="686.875" y1="81" x2="709.375" y2="84.75" stroke-width="4" stroke="black" fill="dimgray" stroke-linecap="round" />
<path d="M709.375 84.75 Q741.875 89.75 709.375 97.25" stroke-width="4" stroke="black" fill="none" stroke-linecap="round" />


<!-- renderPart: cylinder -->
<path d="M679.325 96.25 L709.425 96.25 L709.425 143.75 L679.325 143.75 L679.325 96.25" stroke-width="0" stroke="none" stroke-linejoin="round" fill="silver" fill-opacity="1"/>
<path d="M679.325 96.25 L709.425 96.25 M709.425 143.75 L679.325 143.75" stroke-width="0.5" stroke="black" stroke-linejoin="round" fill="silver" fill-opacity="1"/>
<!-- !right !both --><path d="M709.425 96.25 L709.425 143.75" stroke-width="0.5" stroke="black" stroke-linejoin="round" fill="silver" fill-opacity="1"/>
<!-- !left !both --><path d="M679.325 96.25 L679.325 143.75" stroke-width="0.5" stroke="black" stroke-linejoin="round" fill="silver" fill-opacity="1"/>
<path d="M521.5 86.5 Q544.375 108.75 554.375 84.25 Z" stroke-width="3" stroke="silver" fill="silver" stroke-linecap="round" />
<rect x="521.5" y="86.5" width="35" height="-14.5" stroke-width="3" stroke="silver" fill="silver" stroke-linecap="round" />
<line x1="519.375" y1="84.75" x2="686.875" y2="79.75" stroke-width="4" stroke="silver" fill="silver" stroke-linecap="round" />
<line x1="686.875" y1="81" x2="709.375" y2="84.75" stroke-width="3" stroke="silver" fill="silver" stroke-linecap="round" />
<path d="M709.375 84.75 Q741.875 89.75 709.375 97.25" stroke-width="3" stroke="silver" fill="none" stroke-linecap="round" />


<!-- renderSideComponent: tail -->


<!-- renderPart: cylinder -->
<path d="M709.325 99.375 L731.925 99.375 L731.925 140.625 L709.325 140.625 L709.325 99.375" stroke-width="0" stroke="none" stroke-linejoin="round" fill="black" fill-opacity="1"/>
<path d="M709.325 99.375 L731.925 99.375 M731.925 140.625 L709.325 140.625" stroke-width="0.5" stroke="dimgray" stroke-linejoin="round" fill="black" fill-opacity="1"/>
<!-- !right !both --><path d="M731.925 99.375 L731.925 140.625" stroke-width="0.5" stroke="dimgray" stroke-linejoin="round" fill="black" fill-opacity="1"/>
<!-- !left !both --><path d="M709.325 99.375 L709.325 140.625" stroke-width="0.5" stroke="dimgray" stroke-linejoin="round" fill="black" fill-opacity="1"/>


<!-- renderPart: cylinder -->
<path d="M731.825 99.375 L735.675 99.375 L735.675 140.625 L731.825 140.625 L731.825 99.375" stroke-width="0" stroke="none" stroke-linejoin="round" fill="red" fill-opacity="1"/>
<path d="M731.825 99.375 L735.675 99.375 M735.675 140.625 L731.825 140.625" stroke-width="0.5" stroke="black" stroke-linejoin="round" fill="red" fill-opacity="1"/>
<!-- !right !both --><path d="M735.675 99.375 L735.675 140.625" stroke-width="0.5" stroke="black" stroke-linejoin="round" fill="red" fill-opacity="1"/>
<!-- !left !both --><path d="M731.825 99.375 L731.825 140.625" stroke-width="0.5" stroke="black" stroke-linejoin="round" fill="red" fill-opacity="1"/>


<!-- renderSideComponent: indicator -->


<!-- renderPart: cylinder -->
<path d="M735.575 99.375 L783.175 99.375 L783.175 140.625 L735.575 140.625 L735.575 99.375" stroke-width="0" stroke="none" stroke-linejoin="round" fill="silver" fill-opacity="1"/>
<path d="M735.575 99.375 L783.175 99.375 M783.175 140.625 L735.575 140.625" stroke-width="0.5" stroke="black" stroke-linejoin="round" fill="silver" fill-opacity="1"/>
<!-- !right !both --><path d="M783.175 99.375 L783.175 140.625" stroke-width="0.5" stroke="black" stroke-linejoin="round" fill="silver" fill-opacity="1"/>
<!-- !left !both --><path d="M735.575 99.375 L735.575 140.625" stroke-width="0.5" stroke="black" stroke-linejoin="round" fill="silver" fill-opacity="1"/>
<!-- DEFAULT FINISH: knurled --><path d="M735.625 99.375 L783.125 99.375 L783.125 140.625 L735.625 140.625 Z" stroke-width="0.5" stroke="black" fill="url(#knurled)"/>
<rect x="745.625" y="109.6875" width="27.5" height="20.625" rx="3" ry="3" stroke-width="1" stroke="black" fill="silver"/>
<text x="759.375" y="120" text-anchor="middle" dominant-baseline="central"><tspan stroke="dimgray" stroke-width="0.5" font-family="sans-serif" fill="black" textLength="{this.width * 5 - 24}" > HB</tspan></text>

<!-- renderSideComponent: foot -->


<!-- renderPart: cylinder -->
<path d="M783.075 99.375 L795.675 99.375 L795.675 140.625 L783.075 140.625 L783.075 99.375" stroke-width="0" stroke="none" stroke-linejoin="round" fill="silver" fill-opacity="1"/>
<path d="M783.075 99.375 L795.675 99.375 M795.675 140.625 L783.075 140.625" stroke-width="0.5" stroke="black" stroke-linejoin="round" fill="silver" fill-opacity="1"/>
<!-- !right !both --><path d="M795.675 99.375 L795.675 140.625" stroke-width="0.5" stroke="black" stroke-linejoin="round" fill="silver" fill-opacity="1"/>
<!-- !left !both --><path d="M783.075 99.375 L783.075 140.625" stroke-width="0.5" stroke="black" stroke-linejoin="round" fill="silver" fill-opacity="1"/>


<!-- renderSideComponent: cap -->


<!-- renderPart: cylinder -->
<path d="M795.575 106.25 L848.175 106.25 L848.175 133.75 L795.575 133.75 L795.575 106.25" stroke-width="0" stroke="none" stroke-linejoin="round" fill="silver" fill-opacity="1"/>
<path d="M795.575 106.25 L848.175 106.25 M848.175 133.75 L795.575 133.75" stroke-width="0.5" stroke="black" stroke-linejoin="round" fill="silver" fill-opacity="1"/>
<!-- !right !both --><path d="M848.175 106.25 L848.175 133.75" stroke-width="0.5" stroke="black" stroke-linejoin="round" fill="silver" fill-opacity="1"/>
<!-- !left !both --><path d="M795.575 106.25 L795.575 133.75" stroke-width="0.5" stroke="black" stroke-linejoin="round" fill="silver" fill-opacity="1"/>


<!-- renderPart: convex -->
<path d="M848.125 106.25 Q859.375 120 848.125 133.75" stroke-width="0.5" stroke="black" stroke-linejoin="round" fill="silver" fill-opacity="1"/>
</g><text x="50%" y="200" font-size="1.1em" font-weight="bold" text-anchor="middle" dominant-baseline="middle">Copyright (c) // Synapticloop // The Mechanical Pencil Database (tmpdb)</text>
<text x="50%" y="220" font-size="1.1em" font-weight="bold" text-anchor="middle" dominant-baseline="middle">Licensed under Creative Commons Attribution-NonCommercial-ShareAlike 4.0 International</text>
<text x="990" y="230" font-size="0.5em" font-weight="bold" text-anchor="end" dominant-baseline="middle">SVGPencilAllRenderer</text>
</svg>