<svg xmlns="http://www.w3.org/2000/svg" width="1000" height="200">
 <pattern id="knurled-large" patternUnits="userSpaceOnUse" width="12" height="12">
<path stroke="dimgray" stroke-linecap="round" stroke-width="1" d="M 6,6 L 12,12"/>
<path stroke="dimgray" stroke-linecap="round" stroke-width="1" d="M 6,6 L 0,12"/>
<path stroke="gray" stroke-linecap="round" stroke-width="1" d="M 6,6 L 12,0" />
<path stroke="gray" stroke-linecap="round" stroke-width="1" d="M 6,6 L 0,0" />
</pattern><pattern id="knurled-small" patternUnits="userSpaceOnUse" width="4" height="4">
<path stroke="dimgray" stroke-linecap="round" stroke-width="1" d="M 2,2 L 4,4"/>
<path stroke="dimgray" stroke-linecap="round" stroke-width="1" d="M 2,2 L 0,4"/>
<path stroke="gray" stroke-linecap="round" stroke-width="1" d="M 2,2 L 4,0" />
<path stroke="gray" stroke-linecap="round" stroke-width="1" d="M 2,2 L 0,0" />
</pattern><pattern id="knurled" patternUnits="userSpaceOnUse" width="8" height="8">
<path stroke="dimgray" stroke-linecap="round" stroke-width="1" d="M 4,4 L 8,8"/>
<path stroke="dimgray" stroke-linecap="round" stroke-width="1" d="M 4,4 L 0,8"/>
<path stroke="gray" stroke-linecap="round" stroke-width="1" d="M 4,4 L 8,0" />
<path stroke="gray" stroke-linecap="round" stroke-width="1" d="M 4,4 L 0,0" />
</pattern><pattern id="lined" patternUnits="userSpaceOnUse" width="3" height="3">
<path stroke="dimgray" stroke-linecap="round" stroke-width="1" d="M 0,0 L 3,0"/>
</pattern><pattern id="ridged" patternUnits="userSpaceOnUse" width="3" height="3">
<path stroke="dimgray" stroke-linecap="round" stroke-width="1" d="M 0,0 L 0,3"/>
</pattern><pattern id="spring" patternUnits="userSpaceOnUse" width="8" height="60">
<path stroke="dimgray" stroke-linecap="round" stroke-width="2" d="M 1,1 L 8,60"/>
<path stroke="white" stroke-linecap="round" stroke-width="1" d="M 1,1 L 8,60"/>
</pattern><g transform="rotate(0 0 0)">


<!-- renderSideComponent: jaws -->


<!-- renderPart: cone -->
<path d="M145.575 89.375 L150.675 86.875 L150.675 113.125 L145.575 110.625 L145.575 89.375" stroke-width="0" stroke="none" stroke-linejoin="round" fill="white" fill-opacity="1"/>
<path d="M145.575 89.375 L150.675 86.875 M150.675 113.125 L145.575 110.625" stroke-width="0.5" stroke="black" stroke-linejoin="round" fill="white" fill-opacity="1"/>
<!-- !right !both --><path d="M150.675 86.875 L150.675 113.125" stroke-width="0.5" stroke="black" stroke-linejoin="round" fill="white" fill-opacity="1"/>
<!-- !left !both --><path d="M145.575 89.375 L145.575 110.625" stroke-width="0.5" stroke="black" stroke-linejoin="round" fill="white" fill-opacity="1"/>


<!-- renderPart: cylinder -->
<path d="M150.575 86.875 L159.425 86.875 L159.425 113.125 L150.575 113.125 L150.575 86.875" stroke-width="0" stroke="none" stroke-linejoin="round" fill="white" fill-opacity="1"/>
<path d="M150.575 86.875 L159.425 86.875 M159.425 113.125 L150.575 113.125" stroke-width="0.5" stroke="black" stroke-linejoin="round" fill="white" fill-opacity="1"/>
<!-- !right !both --><path d="M159.425 86.875 L159.425 113.125" stroke-width="0.5" stroke="black" stroke-linejoin="round" fill="white" fill-opacity="1"/>
<!-- !left !both --><path d="M150.575 86.875 L150.575 113.125" stroke-width="0.5" stroke="black" stroke-linejoin="round" fill="white" fill-opacity="1"/>


<!-- renderSideComponent: tip -->


<!-- renderPart: cone -->
<path d="M159.325 86.875 L220.675 81.875 L220.675 118.125 L159.325 113.125 L159.325 86.875" stroke-width="0" stroke="none" stroke-linejoin="round" fill="white" fill-opacity="1"/>
<path d="M159.325 86.875 L220.675 81.875 M220.675 118.125 L159.325 113.125" stroke-width="0.5" stroke="black" stroke-linejoin="round" fill="white" fill-opacity="1"/>
<!-- !right !both --><path d="M220.675 81.875 L220.675 118.125" stroke-width="0.5" stroke="black" stroke-linejoin="round" fill="white" fill-opacity="1"/>
<!-- !left !both --><path d="M159.325 86.875 L159.325 113.125" stroke-width="0.5" stroke="black" stroke-linejoin="round" fill="white" fill-opacity="1"/>


<!-- renderSideComponent: grip -->


<!-- renderPart: cylinder -->
<path d="M220.575 79.375 L349.425 79.375 L349.425 120.625 L220.575 120.625 L220.575 79.375" stroke-width="0" stroke="none" stroke-linejoin="round" fill="white" fill-opacity="1"/>
<path d="M220.575 79.375 L349.425 79.375 M349.425 120.625 L220.575 120.625" stroke-width="0.5" stroke="black" stroke-linejoin="round" fill="white" fill-opacity="1"/>
<!-- !right !both --><path d="M349.425 79.375 L349.425 120.625" stroke-width="0.5" stroke="black" stroke-linejoin="round" fill="white" fill-opacity="1"/>
<!-- !left !both --><path d="M220.575 79.375 L220.575 120.625" stroke-width="0.5" stroke="black" stroke-linejoin="round" fill="white" fill-opacity="1"/>
<!-- DEFAULT FINISH: knurled --><path d="M220.625 79.375 L349.375 79.375 L349.375 120.625 L220.625 120.625 Z" stroke-width="0.5" stroke="black" fill="url(#knurled)"/>


<!-- renderSideComponent: body -->


<!-- renderPart: hexagonal -->
<path d="M349.325 79.375 L679.425 79.375 L679.425 120.625 L349.325 120.625 L349.325 79.375" stroke-width="0" stroke="none" stroke-linejoin="round" fill="white" fill-opacity="1"/>
<path d="M349.325 79.375 L679.425 79.375 M679.425 120.625 L349.325 120.625" stroke-width="0.5" stroke="black" stroke-linejoin="round" fill="white" fill-opacity="1"/>
<!-- !right !both --><path d="M679.425 79.375 L679.425 120.625" stroke-width="0.5" stroke="black" stroke-linejoin="round" fill="white" fill-opacity="1"/>
<!-- !left !both --><path d="M349.325 79.375 L349.325 120.625" stroke-width="0.5" stroke="black" stroke-linejoin="round" fill="white" fill-opacity="1"/>
<line x1="349.375" y1="100" x2="679.375" y2="100" stroke-width="1.5" stroke="gray" fill="gray" stroke-opacity="1.0"/>
<line x1="349.375" y1="100" x2="679.375" y2="100" stroke-width="0.5" stroke="black" fill="none" stroke-opacity="0.5"/>


<!-- renderSideComponent: clip -->
<path d="M521.5 66.5 Q544.375 89.75 554.375 64.25 Z" stroke-width="4" stroke="black" fill="dimgray" stroke-linecap="round" />
<line x1="519.375" y1="64.75" x2="686.875" y2="59.75" stroke-width="5" stroke="black" fill="dimgray" stroke-linecap="round" />
<line x1="686.875" y1="61" x2="709.375" y2="64.75" stroke-width="4" stroke="black" fill="dimgray" stroke-linecap="round" />
<path d="M709.375 64.75 Q741.875 69.75 709.375 77.25" stroke-width="4" stroke="black" fill="none" stroke-linecap="round" />


<!-- renderPart: cylinder -->
<path d="M679.325 76.25 L709.425 76.25 L709.425 123.75 L679.325 123.75 L679.325 76.25" stroke-width="0" stroke="none" stroke-linejoin="round" fill="white" fill-opacity="1"/>
<path d="M679.325 76.25 L709.425 76.25 M709.425 123.75 L679.325 123.75" stroke-width="0.5" stroke="black" stroke-linejoin="round" fill="white" fill-opacity="1"/>
<!-- !right !both --><path d="M709.425 76.25 L709.425 123.75" stroke-width="0.5" stroke="black" stroke-linejoin="round" fill="white" fill-opacity="1"/>
<!-- !left !both --><path d="M679.325 76.25 L679.325 123.75" stroke-width="0.5" stroke="black" stroke-linejoin="round" fill="white" fill-opacity="1"/>
<path d="M521.5 66.5 Q544.375 88.75 554.375 64.25 Z" stroke-width="3" stroke="white" fill="white" stroke-linecap="round" />
<rect x="521.5" y="66.5" width="35" height="-14.5" stroke-width="3" stroke="white" fill="white" stroke-linecap="round" />
<line x1="519.375" y1="64.75" x2="686.875" y2="59.75" stroke-width="4" stroke="white" fill="white" stroke-linecap="round" />
<line x1="686.875" y1="61" x2="709.375" y2="64.75" stroke-width="3" stroke="white" fill="white" stroke-linecap="round" />
<path d="M709.375 64.75 Q741.875 69.75 709.375 77.25" stroke-width="3" stroke="white" fill="none" stroke-linecap="round" />


<!-- renderSideComponent: tail -->


<!-- renderPart: cylinder -->
<path d="M709.325 79.375 L731.925 79.375 L731.925 120.625 L709.325 120.625 L709.325 79.375" stroke-width="0" stroke="none" stroke-linejoin="round" fill="white" fill-opacity="1"/>
<path d="M709.325 79.375 L731.925 79.375 M731.925 120.625 L709.325 120.625" stroke-width="0.5" stroke="black" stroke-linejoin="round" fill="white" fill-opacity="1"/>
<!-- !right !both --><path d="M731.925 79.375 L731.925 120.625" stroke-width="0.5" stroke="black" stroke-linejoin="round" fill="white" fill-opacity="1"/>
<!-- !left !both --><path d="M709.325 79.375 L709.325 120.625" stroke-width="0.5" stroke="black" stroke-linejoin="round" fill="white" fill-opacity="1"/>


<!-- renderPart: cylinder -->
<path d="M731.825 79.375 L735.675 79.375 L735.675 120.625 L731.825 120.625 L731.825 79.375" stroke-width="0" stroke="none" stroke-linejoin="round" fill="white" fill-opacity="1"/>
<path d="M731.825 79.375 L735.675 79.375 M735.675 120.625 L731.825 120.625" stroke-width="0.5" stroke="black" stroke-linejoin="round" fill="white" fill-opacity="1"/>
<!-- !right !both --><path d="M735.675 79.375 L735.675 120.625" stroke-width="0.5" stroke="black" stroke-linejoin="round" fill="white" fill-opacity="1"/>
<!-- !left !both --><path d="M731.825 79.375 L731.825 120.625" stroke-width="0.5" stroke="black" stroke-linejoin="round" fill="white" fill-opacity="1"/>


<!-- renderSideComponent: indicator -->


<!-- renderPart: cylinder -->
<path d="M735.575 79.375 L783.175 79.375 L783.175 120.625 L735.575 120.625 L735.575 79.375" stroke-width="0" stroke="none" stroke-linejoin="round" fill="white" fill-opacity="1"/>
<path d="M735.575 79.375 L783.175 79.375 M783.175 120.625 L735.575 120.625" stroke-width="0.5" stroke="black" stroke-linejoin="round" fill="white" fill-opacity="1"/>
<!-- !right !both --><path d="M783.175 79.375 L783.175 120.625" stroke-width="0.5" stroke="black" stroke-linejoin="round" fill="white" fill-opacity="1"/>
<!-- !left !both --><path d="M735.575 79.375 L735.575 120.625" stroke-width="0.5" stroke="black" stroke-linejoin="round" fill="white" fill-opacity="1"/>
<!-- DEFAULT FINISH: knurled --><path d="M735.625 79.375 L783.125 79.375 L783.125 120.625 L735.625 120.625 Z" stroke-width="0.5" stroke="black" fill="url(#knurled)"/>
<rect x="745.625" y="89.6875" width="27.5" height="20.625" rx="3" ry="3" stroke-width="1" stroke="black" fill="white"/>
<text x="759.375" y="100" text-anchor="middle" dominant-baseline="central"><tspan stroke="dimgray" stroke-width="0.5" font-family="sans-serif" fill="black" textLength="{this.width * 5 - 24}" > HB</tspan></text>

<!-- renderSideComponent: foot -->


<!-- renderPart: cylinder -->
<path d="M783.075 79.375 L795.675 79.375 L795.675 120.625 L783.075 120.625 L783.075 79.375" stroke-width="0" stroke="none" stroke-linejoin="round" fill="white" fill-opacity="1"/>
<path d="M783.075 79.375 L795.675 79.375 M795.675 120.625 L783.075 120.625" stroke-width="0.5" stroke="black" stroke-linejoin="round" fill="white" fill-opacity="1"/>
<!-- !right !both --><path d="M795.675 79.375 L795.675 120.625" stroke-width="0.5" stroke="black" stroke-linejoin="round" fill="white" fill-opacity="1"/>
<!-- !left !both --><path d="M783.075 79.375 L783.075 120.625" stroke-width="0.5" stroke="black" stroke-linejoin="round" fill="white" fill-opacity="1"/>


<!-- renderSideComponent: cap -->


<!-- renderPart: cylinder -->
<path d="M795.575 86.25 L848.175 86.25 L848.175 113.75 L795.575 113.75 L795.575 86.25" stroke-width="0" stroke="none" stroke-linejoin="round" fill="white" fill-opacity="1"/>
<path d="M795.575 86.25 L848.175 86.25 M848.175 113.75 L795.575 113.75" stroke-width="0.5" stroke="black" stroke-linejoin="round" fill="white" fill-opacity="1"/>
<!-- !right !both --><path d="M848.175 86.25 L848.175 113.75" stroke-width="0.5" stroke="black" stroke-linejoin="round" fill="white" fill-opacity="1"/>
<!-- !left !both --><path d="M795.575 86.25 L795.575 113.75" stroke-width="0.5" stroke="black" stroke-linejoin="round" fill="white" fill-opacity="1"/>


<!-- renderPart: convex -->
<path d="M848.125 86.25 Q859.375 100 848.125 113.75" stroke-width="0.5" stroke="black" stroke-linejoin="round" fill="white" fill-opacity="1"/>
</g><text x="50%" y="160" font-size="1.1em" font-weight="bold" text-anchor="middle" dominant-baseline="middle">Copyright (c) // Synapticloop // The Mechanical Pencil Database (tmpdb)</text>
<text x="50%" y="180" font-size="1.1em" font-weight="bold" text-anchor="middle" dominant-baseline="middle">Licensed under Creative Commons Attribution-NonCommercial-ShareAlike 4.0 International</text>
<text x="990" y="190" font-size="0.5em" font-weight="bold" text-anchor="end" dominant-baseline="middle">SVGPencilRenderer</text>
</svg>