<svg xmlns="http://www.w3.org/2000/svg" width="1000" height="1000">
 <pattern id="knurled-large" patternUnits="userSpaceOnUse" width="12" height="12">
<path stroke="dimgray" stroke-linecap="round" stroke-width="1" d="M 6,6 L 12,12"/>
<path stroke="dimgray" stroke-linecap="round" stroke-width="1" d="M 6,6 L 0,12"/>
<path stroke="gray" stroke-linecap="round" stroke-width="1" d="M 6,6 L 12,0" />
<path stroke="gray" stroke-linecap="round" stroke-width="1" d="M 6,6 L 0,0" />
</pattern><pattern id="knurled-small" patternUnits="userSpaceOnUse" width="4" height="4">
<path stroke="dimgray" stroke-linecap="round" stroke-width="1" d="M 2,2 L 4,4"/>
<path stroke="dimgray" stroke-linecap="round" stroke-width="1" d="M 2,2 L 0,4"/>
<path stroke="gray" stroke-linecap="round" stroke-width="1" d="M 2,2 L 4,0" />
<path stroke="gray" stroke-linecap="round" stroke-width="1" d="M 2,2 L 0,0" />
</pattern><pattern id="knurled" patternUnits="userSpaceOnUse" width="8" height="8">
<path stroke="dimgray" stroke-linecap="round" stroke-width="1" d="M 4,4 L 8,8"/>
<path stroke="dimgray" stroke-linecap="round" stroke-width="1" d="M 4,4 L 0,8"/>
<path stroke="gray" stroke-linecap="round" stroke-width="1" d="M 4,4 L 8,0" />
<path stroke="gray" stroke-linecap="round" stroke-width="1" d="M 4,4 L 0,0" />
</pattern><pattern id="lined" patternUnits="userSpaceOnUse" width="3" height="3">
<path stroke="dimgray" stroke-linecap="round" stroke-width="1" d="M 0,0 L 3,0"/>
</pattern><pattern id="ridged" patternUnits="userSpaceOnUse" width="3" height="3">
<path stroke="dimgray" stroke-linecap="round" stroke-width="1" d="M 0,0 L 0,3"/>
</pattern><pattern id="spring" patternUnits="userSpaceOnUse" width="8" height="60">
<path stroke="dimgray" stroke-linecap="round" stroke-width="2" d="M 1,1 L 8,60"/>
<path stroke="white" stroke-linecap="round" stroke-width="1" d="M 1,1 L 8,60"/>
</pattern><rect x="0" y="0" width="1000" height="1000" fill="white" stroke="black" stroke-width="4" />
<rect x="2" y="2" width="996" height="996" fill="white" stroke="dimgray" stroke-width="1" />
<g transform="rotate(-45 500 500)">


<!-- renderSideComponent: jaws -->


<!-- renderPart: cone -->
<path d="M141.825 489.375 L146.925 486.875 L146.925 513.125 L141.825 510.625 L141.825 489.375" stroke-width="0" stroke="none" stroke-linejoin="round" fill="white" fill-opacity="1"/>
<path d="M141.825 489.375 L146.925 486.875 M146.925 513.125 L141.825 510.625" stroke-width="0.5" stroke="black" stroke-linejoin="round" fill="white" fill-opacity="1"/>
<!-- !right !both --><path d="M146.925 486.875 L146.925 513.125" stroke-width="0.5" stroke="black" stroke-linejoin="round" fill="white" fill-opacity="1"/>
<!-- !left !both --><path d="M141.825 489.375 L141.825 510.625" stroke-width="0.5" stroke="black" stroke-linejoin="round" fill="white" fill-opacity="1"/>


<!-- renderPart: cylinder -->
<path d="M146.825 486.875 L156.925 489.375 L156.925 510.625 L146.825 513.125 L146.825 486.875" stroke-width="0" stroke="none" stroke-linejoin="round" fill="white" fill-opacity="1"/>
<path d="M146.825 486.875 L156.925 489.375 M156.925 510.625 L146.825 513.125" stroke-width="0.5" stroke="black" stroke-linejoin="round" fill="white" fill-opacity="1"/>
<!-- !right !both --><path d="M156.925 489.375 L156.925 510.625" stroke-width="0.5" stroke="black" stroke-linejoin="round" fill="white" fill-opacity="1"/>
<!-- !left !both --><path d="M146.825 486.875 L146.825 513.125" stroke-width="0.5" stroke="black" stroke-linejoin="round" fill="white" fill-opacity="1"/>


<!-- renderSideComponent: tip -->


<!-- renderPart: cone -->
<path d="M156.825 486.875 L216.925 481.875 L216.925 518.125 L156.825 513.125 L156.825 486.875" stroke-width="0" stroke="none" stroke-linejoin="round" fill="white" fill-opacity="1"/>
<path d="M156.825 486.875 L216.925 481.875 M216.925 518.125 L156.825 513.125" stroke-width="0.5" stroke="black" stroke-linejoin="round" fill="white" fill-opacity="1"/>
<!-- !right !both --><path d="M216.925 481.875 L216.925 518.125" stroke-width="0.5" stroke="black" stroke-linejoin="round" fill="white" fill-opacity="1"/>
<!-- !left !both --><path d="M156.825 486.875 L156.825 513.125" stroke-width="0.5" stroke="black" stroke-linejoin="round" fill="white" fill-opacity="1"/>


<!-- renderSideComponent: grip -->


<!-- renderPart: cylinder -->
<path d="M216.825 479.375 L348.175 479.375 L348.175 520.625 L216.825 520.625 L216.825 479.375" stroke-width="0" stroke="none" stroke-linejoin="round" fill="white" fill-opacity="1"/>
<path d="M216.825 479.375 L348.175 479.375 M348.175 520.625 L216.825 520.625" stroke-width="0.5" stroke="black" stroke-linejoin="round" fill="white" fill-opacity="1"/>
<!-- !right !both --><path d="M348.175 479.375 L348.175 520.625" stroke-width="0.5" stroke="black" stroke-linejoin="round" fill="white" fill-opacity="1"/>
<!-- !left !both --><path d="M216.825 479.375 L216.825 520.625" stroke-width="0.5" stroke="black" stroke-linejoin="round" fill="white" fill-opacity="1"/>
<!-- DEFAULT FINISH: knurled --><path d="M216.875 479.375 L348.125 479.375 L348.125 520.625 L216.875 520.625 Z" stroke-width="0.5" stroke="black" fill="url(#knurled)"/>


<!-- renderSideComponent: body -->


<!-- renderPart: hexagonal -->
<path d="M348.075 479.375 L679.425 479.375 L679.425 520.625 L348.075 520.625 L348.075 479.375" stroke-width="0" stroke="none" stroke-linejoin="round" fill="white" fill-opacity="1"/>
<path d="M348.075 479.375 L679.425 479.375 M679.425 520.625 L348.075 520.625" stroke-width="0.5" stroke="black" stroke-linejoin="round" fill="white" fill-opacity="1"/>
<!-- !right !both --><path d="M679.425 479.375 L679.425 520.625" stroke-width="0.5" stroke="black" stroke-linejoin="round" fill="white" fill-opacity="1"/>
<!-- !left !both --><path d="M348.075 479.375 L348.075 520.625" stroke-width="0.5" stroke="black" stroke-linejoin="round" fill="white" fill-opacity="1"/>
<line x1="348.125" y1="500" x2="679.375" y2="500" stroke-width="1.5" stroke="gray" fill="gray" stroke-opacity="1.0"/>
<line x1="348.125" y1="500" x2="679.375" y2="500" stroke-width="0.5" stroke="black" fill="none" stroke-opacity="0.5"/>


<!-- renderSideComponent: clip -->
<path d="M521.5 466.5 Q544.375 489.75 554.375 464.25 Z" stroke-width="4" stroke="black" fill="dimgray" stroke-linecap="round" />
<line x1="519.375" y1="464.75" x2="686.875" y2="459.75" stroke-width="5" stroke="black" fill="dimgray" stroke-linecap="round" />
<line x1="686.875" y1="461" x2="709.375" y2="464.75" stroke-width="4" stroke="black" fill="dimgray" stroke-linecap="round" />
<path d="M709.375 464.75 Q741.875 469.75 709.375 477.25" stroke-width="4" stroke="black" fill="none" stroke-linecap="round" />


<!-- renderPart: cylinder -->
<path d="M679.325 476.25 L711.925 476.25 L711.925 523.75 L679.325 523.75 L679.325 476.25" stroke-width="0" stroke="none" stroke-linejoin="round" fill="white" fill-opacity="1"/>
<path d="M679.325 476.25 L711.925 476.25 M711.925 523.75 L679.325 523.75" stroke-width="0.5" stroke="black" stroke-linejoin="round" fill="white" fill-opacity="1"/>
<!-- !right !both --><path d="M711.925 476.25 L711.925 523.75" stroke-width="0.5" stroke="black" stroke-linejoin="round" fill="white" fill-opacity="1"/>
<!-- !left !both --><path d="M679.325 476.25 L679.325 523.75" stroke-width="0.5" stroke="black" stroke-linejoin="round" fill="white" fill-opacity="1"/>
<path d="M521.5 466.5 Q544.375 488.75 554.375 464.25 Z" stroke-width="3" stroke="white" fill="white" stroke-linecap="round" />
<rect x="521.5" y="466.5" width="35" height="-14.5" stroke-width="3" stroke="white" fill="white" stroke-linecap="round" />
<line x1="519.375" y1="464.75" x2="686.875" y2="459.75" stroke-width="4" stroke="white" fill="white" stroke-linecap="round" />
<line x1="686.875" y1="461" x2="709.375" y2="464.75" stroke-width="3" stroke="white" fill="white" stroke-linecap="round" />
<path d="M709.375 464.75 Q741.875 469.75 709.375 477.25" stroke-width="3" stroke="white" fill="none" stroke-linecap="round" />


<!-- renderSideComponent: tail -->


<!-- renderPart: cylinder -->
<path d="M711.825 479.375 L734.425 479.375 L734.425 520.625 L711.825 520.625 L711.825 479.375" stroke-width="0" stroke="none" stroke-linejoin="round" fill="white" fill-opacity="1"/>
<path d="M711.825 479.375 L734.425 479.375 M734.425 520.625 L711.825 520.625" stroke-width="0.5" stroke="black" stroke-linejoin="round" fill="white" fill-opacity="1"/>
<!-- !right !both --><path d="M734.425 479.375 L734.425 520.625" stroke-width="0.5" stroke="black" stroke-linejoin="round" fill="white" fill-opacity="1"/>
<!-- !left !both --><path d="M711.825 479.375 L711.825 520.625" stroke-width="0.5" stroke="black" stroke-linejoin="round" fill="white" fill-opacity="1"/>


<!-- renderPart: cylinder -->
<path d="M734.325 479.375 L738.175 479.375 L738.175 520.625 L734.325 520.625 L734.325 479.375" stroke-width="0" stroke="none" stroke-linejoin="round" fill="white" fill-opacity="1"/>
<path d="M734.325 479.375 L738.175 479.375 M738.175 520.625 L734.325 520.625" stroke-width="0.5" stroke="black" stroke-linejoin="round" fill="white" fill-opacity="1"/>
<!-- !right !both --><path d="M738.175 479.375 L738.175 520.625" stroke-width="0.5" stroke="black" stroke-linejoin="round" fill="white" fill-opacity="1"/>
<!-- !left !both --><path d="M734.325 479.375 L734.325 520.625" stroke-width="0.5" stroke="black" stroke-linejoin="round" fill="white" fill-opacity="1"/>


<!-- renderSideComponent: indicator -->


<!-- renderPart: cylinder -->
<path d="M738.075 479.375 L785.675 479.375 L785.675 520.625 L738.075 520.625 L738.075 479.375" stroke-width="0" stroke="none" stroke-linejoin="round" fill="white" fill-opacity="1"/>
<path d="M738.075 479.375 L785.675 479.375 M785.675 520.625 L738.075 520.625" stroke-width="0.5" stroke="black" stroke-linejoin="round" fill="white" fill-opacity="1"/>
<!-- !right !both --><path d="M785.675 479.375 L785.675 520.625" stroke-width="0.5" stroke="black" stroke-linejoin="round" fill="white" fill-opacity="1"/>
<!-- !left !both --><path d="M738.075 479.375 L738.075 520.625" stroke-width="0.5" stroke="black" stroke-linejoin="round" fill="white" fill-opacity="1"/>
<!-- DEFAULT FINISH: knurled --><path d="M738.125 479.375 L785.625 479.375 L785.625 520.625 L738.125 520.625 Z" stroke-width="0.5" stroke="black" fill="url(#knurled)"/>
<rect x="748.125" y="489.6875" width="27.5" height="20.625" rx="3" ry="3" stroke-width="1" stroke="black" fill="white"/>
<text x="761.875" y="500" text-anchor="middle" dominant-baseline="central"><tspan stroke="dimgray" stroke-width="0.5" font-family="sans-serif" fill="black" textLength="{this.width * 5 - 24}" > HB</tspan></text>

<!-- renderSideComponent: foot -->


<!-- renderPart: cylinder -->
<path d="M785.575 480.625 L796.925 480.625 L796.925 519.375 L785.575 519.375 L785.575 480.625" stroke-width="0" stroke="none" stroke-linejoin="round" fill="white" fill-opacity="1"/>
<path d="M785.575 480.625 L796.925 480.625 M796.925 519.375 L785.575 519.375" stroke-width="0.5" stroke="black" stroke-linejoin="round" fill="white" fill-opacity="1"/>
<!-- !right !both --><path d="M796.925 480.625 L796.925 519.375" stroke-width="0.5" stroke="black" stroke-linejoin="round" fill="white" fill-opacity="1"/>
<!-- !left !both --><path d="M785.575 480.625 L785.575 519.375" stroke-width="0.5" stroke="black" stroke-linejoin="round" fill="white" fill-opacity="1"/>


<!-- renderSideComponent: cap -->


<!-- renderPart: cylinder -->
<path d="M796.825 486.25 L849.425 486.25 L849.425 513.75 L796.825 513.75 L796.825 486.25" stroke-width="0" stroke="none" stroke-linejoin="round" fill="white" fill-opacity="1"/>
<path d="M796.825 486.25 L849.425 486.25 M849.425 513.75 L796.825 513.75" stroke-width="0.5" stroke="black" stroke-linejoin="round" fill="white" fill-opacity="1"/>
<!-- !right !both --><path d="M849.425 486.25 L849.425 513.75" stroke-width="0.5" stroke="black" stroke-linejoin="round" fill="white" fill-opacity="1"/>
<!-- !left !both --><path d="M796.825 486.25 L796.825 513.75" stroke-width="0.5" stroke="black" stroke-linejoin="round" fill="white" fill-opacity="1"/>


<!-- renderPart: convex -->
<path d="M849.375 486.25 Q860.625 500 849.375 513.75" stroke-width="0.5" stroke="black" stroke-linejoin="round" fill="white" fill-opacity="1"/>
</g><text x="50%" y="960" font-size="1.1em" font-weight="bold" text-anchor="middle" dominant-baseline="middle">Copyright (c) // Synapticloop // The Mechanical Pencil Database (tmpdb)</text>
<text x="50%" y="980" font-size="1.1em" font-weight="bold" text-anchor="middle" dominant-baseline="middle">Licensed under Creative Commons Attribution-NonCommercial-ShareAlike 4.0 International</text>
<text x="990" y="990" font-size="0.5em" font-weight="bold" text-anchor="end" dominant-baseline="middle">SVGPencil45Renderer</text>
</svg>