<svg xmlns="http://www.w3.org/2000/svg" width="1000" height="1000">
 <pattern id="diagonalHatch" patternUnits="userSpaceOnUse" width="8" height="8">
<path stroke="dimgray" stroke-linecap="round" stroke-width="1" d="M 4,4 L 8,8"/>
<path stroke="dimgray" stroke-linecap="round" stroke-width="1" d="M 4,4 L 0,8"/>
<path stroke="gray" stroke-linecap="round" stroke-width="1" d="M 4,4 L 8,0" />
<path stroke="gray" stroke-linecap="round" stroke-width="1" d="M 4,4 L 0,0" />
</pattern>
<pattern id="spring" patternUnits="userSpaceOnUse" width="8" height="100">
<path stroke="dimgray" stroke-linecap="round" stroke-width="2" d="M 0,0 L 8,100"/>
<path stroke="white" stroke-linecap="round" stroke-width="1" d="M 0,0 L 8,100"/>
</pattern>
<rect x="0" y="0" width="1000" height="1000" fill="white" stroke="black" stroke-width="4" />
<rect x="2" y="2" width="996" height="996" fill="white" stroke="dimgray" stroke-width="1" />
<g transform="rotate(-45 500 500)">
<rect x="155" y="477.5" width="12.5" height="45" rx="1" ry="1" stroke-width="0.5" stroke="black" fill="url(#diagonalHatch)"/>
<rect x="172.5" y="477.5" width="12.5" height="45" rx="1" ry="1" stroke-width="0.5" stroke="black" fill="url(#diagonalHatch)"/>
<rect x="190" y="477.5" width="12.5" height="45" rx="1" ry="1" stroke-width="0.5" stroke="black" fill="url(#diagonalHatch)"/>
<rect x="207.5" y="477.5" width="12.5" height="45" rx="1" ry="1" stroke-width="0.5" stroke="black" fill="url(#diagonalHatch)"/>
<rect x="225" y="477.5" width="12.5" height="45" rx="1" ry="1" stroke-width="0.5" stroke="black" fill="url(#diagonalHatch)"/>
<rect x="242.5" y="477.5" width="97.5" height="45" rx="1" ry="1" stroke-width="0.5" stroke="black" fill="url(#diagonalHatch)"/>
</g><text x="50%" y="960" font-size="1.1em" font-weight="bold" text-anchor="middle" dominant-baseline="middle">Copyright (c) // The Mechanical Pencil Database (tmpdb)</text>
<text x="50%" y="980" font-size="1.1em" font-weight="bold" text-anchor="middle" dominant-baseline="middle">Licensed under Creative Commons Attribution-NonCommercial-ShareAlike 4.0 International</text>
<text x="990" y="990" font-size="0.5em" font-weight="bold" text-anchor="end" dominant-baseline="middle">SVGPencil45Renderer</text>
</svg>