<svg xmlns="http://www.w3.org/2000/svg" width="1000" height="1000">
 <pattern id="diagonalHatch" patternUnits="userSpaceOnUse" width="8" height="8">
<path stroke="dimgray" stroke-linecap="round" stroke-width="1" d="M 4,4 L 8,8"/>
<path stroke="dimgray" stroke-linecap="round" stroke-width="1" d="M 4,4 L 0,8"/>
<path stroke="gray" stroke-linecap="round" stroke-width="1" d="M 4,4 L 8,0" />
<path stroke="gray" stroke-linecap="round" stroke-width="1" d="M 4,4 L 0,0" />
</pattern>
<pattern id="spring" patternUnits="userSpaceOnUse" width="8" height="100">
<path stroke="dimgray" stroke-linecap="round" stroke-width="2" d="M 0,0 L 8,100"/>
<path stroke="white" stroke-linecap="round" stroke-width="1" d="M 0,0 L 8,100"/>
</pattern>
<rect x="0" y="0" width="1000" height="1000" fill="white" stroke="black" stroke-width="4" />
<rect x="2" y="2" width="996" height="996" fill="white" stroke="dimgray" stroke-width="1" />
<g transform="rotate(-45 500 500)">
<path d="M141.25 493.125 L158.75 493.125 L158.75 506.875 L141.25 506.875 Z" stroke-width="0.5" stroke="black" stroke-linejoin="round" fill="white" fill-opacity="1" />
<path d="M158.75 488.75 L202.5 481.25 L202.5 518.75 L158.75 511.25 Z" stroke-width="0.5" stroke="black" stroke-linejoin="round" fill="white" fill-opacity="1" />
<path d="M202.5 481.25 L226.25 481.25 L226.25 518.75 L202.5 518.75 Z" stroke-width="0.5" stroke="black" stroke-linejoin="round" fill="white" fill-opacity="1" />
<path d="M226.25 478.75 L233.75 478.75 L233.75 521.25 L226.25 521.25 Z" stroke-width="0.5" stroke="black" stroke-linejoin="round" fill="white" fill-opacity="1" />
<path d="M233.75 477.5 L246.25 477.5 L246.25 522.5 L233.75 522.5 Z" stroke-width="0.5" stroke="black" stroke-linejoin="round" fill="white" fill-opacity="1" />
<path d="M233.75 477.5 L246.25 477.5 L246.25 522.5 L233.75 522.5 Z" stroke-width="1.0" stroke="black" fill="url(#diagonalHatch)"/>
<path d="M246.25 478.75 L251.25 478.75 L251.25 521.25 L246.25 521.25 Z" stroke-width="0.5" stroke="black" stroke-linejoin="round" fill="white" fill-opacity="1" />
<path d="M251.25 477.5 L263.75 477.5 L263.75 522.5 L251.25 522.5 Z" stroke-width="0.5" stroke="black" stroke-linejoin="round" fill="white" fill-opacity="1" />
<path d="M251.25 477.5 L263.75 477.5 L263.75 522.5 L251.25 522.5 Z" stroke-width="1.0" stroke="black" fill="url(#diagonalHatch)"/>
<path d="M263.75 478.75 L268.75 478.75 L268.75 521.25 L263.75 521.25 Z" stroke-width="0.5" stroke="black" stroke-linejoin="round" fill="white" fill-opacity="1" />
<path d="M268.75 477.5 L281.25 477.5 L281.25 522.5 L268.75 522.5 Z" stroke-width="0.5" stroke="black" stroke-linejoin="round" fill="white" fill-opacity="1" />
<path d="M268.75 477.5 L281.25 477.5 L281.25 522.5 L268.75 522.5 Z" stroke-width="1.0" stroke="black" fill="url(#diagonalHatch)"/>
<path d="M281.25 478.75 L286.25 478.75 L286.25 521.25 L281.25 521.25 Z" stroke-width="0.5" stroke="black" stroke-linejoin="round" fill="white" fill-opacity="1" />
<path d="M286.25 477.5 L298.75 477.5 L298.75 522.5 L286.25 522.5 Z" stroke-width="0.5" stroke="black" stroke-linejoin="round" fill="white" fill-opacity="1" />
<path d="M286.25 477.5 L298.75 477.5 L298.75 522.5 L286.25 522.5 Z" stroke-width="1.0" stroke="black" fill="url(#diagonalHatch)"/>
<path d="M298.75 478.75 L303.75 478.75 L303.75 521.25 L298.75 521.25 Z" stroke-width="0.5" stroke="black" stroke-linejoin="round" fill="white" fill-opacity="1" />
<path d="M303.75 477.5 L316.25 477.5 L316.25 522.5 L303.75 522.5 Z" stroke-width="0.5" stroke="black" stroke-linejoin="round" fill="white" fill-opacity="1" />
<path d="M303.75 477.5 L316.25 477.5 L316.25 522.5 L303.75 522.5 Z" stroke-width="1.0" stroke="black" fill="url(#diagonalHatch)"/>
<path d="M316.25 478.75 L321.25 478.75 L321.25 521.25 L316.25 521.25 Z" stroke-width="0.5" stroke="black" stroke-linejoin="round" fill="white" fill-opacity="1" />
<path d="M321.25 477.5 L418.75 477.5 L418.75 522.5 L321.25 522.5 Z" stroke-width="0.5" stroke="black" stroke-linejoin="round" fill="white" fill-opacity="1" />
<path d="M321.25 477.5 L418.75 477.5 L418.75 522.5 L321.25 522.5 Z" stroke-width="1.0" stroke="black" fill="url(#diagonalHatch)"/>
<path d="M418.75 480 L748.75 480 L748.75 520 L418.75 520 Z" stroke-width="0.5" stroke="black" stroke-linejoin="round" fill="white" fill-opacity="1" />
<line x1="418.75" y1="500" x2="748.75" y2="500" stroke-width="1.5" stroke="black" fill="none" stroke-opacity="0.5"/>
<line x1="418.75" y1="500" x2="748.75" y2="500" stroke-width="0.5" stroke="gray" fill="none" stroke-opacity="0.5"/>
<line x1="592.5" y1="469.375" x2="602.5" y2="478.125" stroke-width="4" stroke="black" fill="dimgray" stroke-linecap="round" />
<line x1="602.5" y1="478.125" x2="725" y2="464.375" stroke-width="4" stroke="black" fill="dimgray" stroke-linecap="round" />
<path d="M725 464.375 Q730.625 464.375 736.25 468.125" stroke-width="4" stroke="black" fill="none" stroke-linecap="round" />
<line x1="736.25" y1="468.125" x2="751.25" y2="479.375" stroke-width="4" stroke="black" fill="dimgray" stroke-linecap="round" />
<path d="M748.75 477.5 L786.25 477.5 L786.25 522.5 L748.75 522.5 Z" stroke-width="0.5" stroke="black" stroke-linejoin="round" fill="white" fill-opacity="1" />
<line x1="592.5" y1="469.375" x2="602.5" y2="478.125" stroke-width="3" stroke="white" fill="white" stroke-linecap="round" />
<line x1="602.5" y1="478.125" x2="725" y2="464.375" stroke-width="3" stroke="white" fill="white" stroke-linecap="round" />
<path d="M725 464.375 Q730.625 464.375 736.25 468.125" stroke-width="3" stroke="white" fill="none" stroke-linecap="round" />
<line x1="736.25" y1="468.125" x2="751.25" y2="479.375" stroke-width="3" stroke="white" fill="white" stroke-linecap="round" />
<path d="M786.25 481.25 L797.5 481.25 L797.5 518.75 L786.25 518.75 Z" stroke-width="0.5" stroke="black" stroke-linejoin="round" fill="white" fill-opacity="1" />
<path d="M797.5 484.375 L808.75 484.375 L808.75 515.625 L797.5 515.625 Z" stroke-width="0.5" stroke="black" stroke-linejoin="round" fill="white" fill-opacity="1" />
<path d="M808.75 484.375 L822.5 485.625 L822.5 514.375 L808.75 515.625 Z" stroke-width="0.5" stroke="black" stroke-linejoin="round" fill="white" fill-opacity="1" />
<path d="M822.5 485.625 L858.75 485.625 L858.75 514.375 L822.5 514.375 Z" stroke-width="0.5" stroke="black" stroke-linejoin="round" fill="white" fill-opacity="1" />
</g><text x="50%" y="960" font-size="1.1em" font-weight="bold" text-anchor="middle" dominant-baseline="middle">Copyright (c) // The Mechanical Pencil Database (tmpdb)</text>
<text x="50%" y="980" font-size="1.1em" font-weight="bold" text-anchor="middle" dominant-baseline="middle">Licensed under Creative Commons Attribution-NonCommercial-ShareAlike 4.0 International</text>
<text x="990" y="990" font-size="0.5em" font-weight="bold" text-anchor="end" dominant-baseline="middle">SVGPencil45Renderer</text>
</svg>