<svg xmlns="http://www.w3.org/2000/svg" width="1500" height="600">
<pattern id="diagonalHatch" patternUnits="userSpaceOnUse" width="8" height="8">
<rect width="6" height="6" fill='none'/>
<path stroke="dimgray" stroke-linecap="round" stroke-width="1" d="M 4,4 L 8,8"/>
<path stroke="dimgray" stroke-linecap="round" stroke-width="1" d="M 4,4 L 0,8"/>
<path stroke="gray" stroke-linecap="round" stroke-width="1" d="M 4,4 L 8,0" />
<path stroke="gray" stroke-linecap="round" stroke-width="1" d="M 4,4 L 0,0" />
</pattern>
<rect x="0" y="0" width="1500" height="600" fill="white" stroke="black" stroke-width="4" />
<rect x="2" y="2" width="1496" height="596" fill="white" stroke="orange" stroke-width="1" />
<text x="30" y="50" font-size="2.0em" font-weight="bold"> unbranded // Metal Black </text>
<text x="30" y="80" font-size="1.1em"> </text>
<text x="1480" y="30" font-size="1.6em" font-weight="bold" text-anchor="end" dominant-baseline="central">'body' colour variants</text>
<rect x="1440" y="55" width="40" rx="50%" ry="50%" height="40" stroke="black" stroke-width="2" fill="black" />
<text x="1460" y="100" transform="rotate(-90, 1460, 100)" font-size="1.2em" font-weight="bold" text-anchor="end" dominant-baseline="central">black</text>
<text x="30" y="106" font-size="1.2em" font-weight="bold" text-anchor="start" dominant-baseline="central">Materials:</text>
<text x="50" y="126" font-size="1.2em" text-anchor="start" dominant-baseline="central"> - metal</text>
<text x="50" y="146" font-size="1.2em" text-anchor="start" dominant-baseline="central"> - plastic</text>
<line x1="100" y1="263.375" x2="1400" y2="263.375" stroke="#cfcfcf" stroke-width="1" />
<line x1="160" y1="278.375" x2="1400" y2="278.375" stroke="#cfcfcf" stroke-width="1" />
<line x1="148.75" y1="230" x2="148.75" y2="300" stroke="#cfcfcf" stroke-width="1" />
<line x1="171.25" y1="230" x2="171.25" y2="300" stroke="#cfcfcf" stroke-width="1" />
<line x1="160" y1="277.5" x2="1400" y2="277.5" stroke="#cfcfcf" stroke-width="1" />
<line x1="100" y1="322.5" x2="1400" y2="322.5" stroke="#cfcfcf" stroke-width="1" />
<line x1="136.90598923241498" y1="300" x2="136.90598923241498" y2="342.5" stroke="#cfcfcf" stroke-width="1" />
<line x1="183.09401076758502" y1="300" x2="183.09401076758502" y2="342.5" stroke="#cfcfcf" stroke-width="1" />
<line x1="391.25" y1="189.5" x2="391.25" y2="397.5" stroke="#cfcfcf" stroke-width="1" />
<line x1="476.25" y1="189.5" x2="476.25" y2="397.5" stroke="#cfcfcf" stroke-width="1" />
<line x1="483.75" y1="189.5" x2="483.75" y2="397.5" stroke="#cfcfcf" stroke-width="1" />
<line x1="668.75" y1="189.5" x2="668.75" y2="397.5" stroke="#cfcfcf" stroke-width="1" />
<line x1="998.75" y1="189.5" x2="998.75" y2="397.5" stroke="#cfcfcf" stroke-width="1" />
<line x1="841.25" y1="233.5" x2="841.25" y2="397.5" stroke="#cfcfcf" stroke-width="1" />
<line x1="998.75" y1="233.5" x2="998.75" y2="397.5" stroke="#cfcfcf" stroke-width="1" />
<line x1="1036.25" y1="189.5" x2="1036.25" y2="397.5" stroke="#cfcfcf" stroke-width="1" />
<line x1="1047.5" y1="189.5" x2="1047.5" y2="397.5" stroke="#cfcfcf" stroke-width="1" />
<line x1="1108.75" y1="189.5" x2="1108.75" y2="397.5" stroke="#cfcfcf" stroke-width="1" />
<text x="160" y="540" font-size="1.8em" font-weight="bold" text-anchor="middle" dominant-baseline="central">Front</text>
<text x="750" y="540" font-size="1.8em" font-weight="bold" text-anchor="middle" dominant-baseline="central">Side view</text>
<text x="1400" y="540" font-size="1.8em" font-weight="bold" text-anchor="middle" dominant-baseline="central">Back</text>
<line x1="148.75" y1="229" x2="148.75" y2="251" stroke="red" stroke-width="1" />
<line x1="148.75" y1="240" x2="171.25" y2="240" stroke="red" stroke-width="1" />
<line x1="171.25" y1="229" x2="171.25" y2="251" stroke="red" stroke-width="1" />
<text x="160" y="221" font-size="1.2em" font-weight="bold" text-anchor="middle" dominant-baseline="central" fill="red">4.50 mm</text>
<line x1="211" y1="263.375" x2="233" y2="263.375" stroke="red" stroke-width="1" />
<line x1="222" y1="263.375" x2="222" y2="278.375" stroke="red" stroke-width="1" />
<line x1="211" y1="278.375" x2="233" y2="278.375" stroke="red" stroke-width="1" />
<text x="235" y="270.875" font-size="1.2em" font-weight="bold" text-anchor="start" dominant-baseline="central" fill="red">3.00 mm</text>
<line x1="199" y1="277.5" x2="221" y2="277.5" stroke="red" stroke-width="1" />
<line x1="210" y1="277.5" x2="210" y2="322.5" stroke="red" stroke-width="1" />
<line x1="199" y1="322.5" x2="221" y2="322.5" stroke="red" stroke-width="1" />
<text x="223" y="300" font-size="1.2em" font-weight="bold" text-anchor="start" dominant-baseline="central" fill="red">9.00 mm</text>
<line x1="99" y1="263.375" x2="121" y2="263.375" stroke="red" stroke-width="1" />
<line x1="110" y1="263.375" x2="110" y2="322.5" stroke="red" stroke-width="1" />
<line x1="99" y1="322.5" x2="121" y2="322.5" stroke="red" stroke-width="1" />
<text x="91" y="292.9375" transform="rotate(-90, 91, 292.9375)" font-size="1.2em" font-weight="bold" text-anchor="middle" dominant-baseline="central" fill="red">11.825 mm</text>
<line x1="136.90598923241498" y1="341.5" x2="136.90598923241498" y2="363.5" stroke="red" stroke-width="1" />
<line x1="136.90598923241498" y1="352.5" x2="183.09401076758505" y2="352.5" stroke="red" stroke-width="1" />
<line x1="183.09401076758505" y1="341.5" x2="183.09401076758505" y2="363.5" stroke="red" stroke-width="1" />
<text x="160" y="371.5" font-size="1.2em" font-weight="bold" text-anchor="middle" dominant-baseline="central" fill="red">9.24 mm</text>
<line x1="391.25" y1="229" x2="391.25" y2="251" stroke="red" stroke-width="1" />
<line x1="391.25" y1="240" x2="476.25" y2="240" stroke="red" stroke-width="1" />
<line x1="476.25" y1="229" x2="476.25" y2="251" stroke="red" stroke-width="1" />
<text x="433.75" y="221" font-size="1.2em" transform="rotate(-90, 433.75, 221)" font-weight="bold" text-anchor="start" dominant-baseline="central" fill="red">17.00 mm</text>
<line x1="476.25" y1="229" x2="476.25" y2="251" stroke="red" stroke-width="1" />
<line x1="476.25" y1="240" x2="483.75" y2="240" stroke="red" stroke-width="1" />
<line x1="483.75" y1="229" x2="483.75" y2="251" stroke="red" stroke-width="1" />
<text x="480" y="221" font-size="1.2em" transform="rotate(-90, 480, 221)" font-weight="bold" text-anchor="start" dominant-baseline="central" fill="red">1.50 mm</text>
<line x1="483.75" y1="229" x2="483.75" y2="251" stroke="red" stroke-width="1" />
<line x1="483.75" y1="240" x2="668.75" y2="240" stroke="red" stroke-width="1" />
<line x1="668.75" y1="229" x2="668.75" y2="251" stroke="red" stroke-width="1" />
<text x="576.25" y="221" font-size="1.2em" transform="rotate(-90, 576.25, 221)" font-weight="bold" text-anchor="start" dominant-baseline="central" fill="red">37.00 mm</text>
<line x1="668.75" y1="229" x2="668.75" y2="251" stroke="red" stroke-width="1" />
<line x1="668.75" y1="240" x2="998.75" y2="240" stroke="red" stroke-width="1" />
<line x1="998.75" y1="229" x2="998.75" y2="251" stroke="red" stroke-width="1" />
<text x="833.75" y="221" font-size="1.2em" transform="rotate(-90, 833.75, 221)" font-weight="bold" text-anchor="start" dominant-baseline="central" fill="red">66.00 mm</text>
<line x1="998.75" y1="229" x2="998.75" y2="251" stroke="red" stroke-width="1" />
<line x1="998.75" y1="240" x2="1036.25" y2="240" stroke="red" stroke-width="1" />
<line x1="1036.25" y1="229" x2="1036.25" y2="251" stroke="red" stroke-width="1" />
<text x="1017.5" y="221" font-size="1.2em" transform="rotate(-90, 1017.5, 221)" font-weight="bold" text-anchor="start" dominant-baseline="central" fill="red">7.50 mm</text>
<line x1="1036.25" y1="229" x2="1036.25" y2="251" stroke="red" stroke-width="1" />
<line x1="1036.25" y1="240" x2="1047.5" y2="240" stroke="red" stroke-width="1" />
<line x1="1047.5" y1="229" x2="1047.5" y2="251" stroke="red" stroke-width="1" />
<text x="1041.875" y="221" font-size="1.2em" transform="rotate(-90, 1041.875, 221)" font-weight="bold" text-anchor="start" dominant-baseline="central" fill="red">2.25 mm</text>
<line x1="1047.5" y1="229" x2="1047.5" y2="251" stroke="red" stroke-width="1" />
<line x1="1047.5" y1="240" x2="1108.75" y2="240" stroke="red" stroke-width="1" />
<line x1="1108.75" y1="229" x2="1108.75" y2="251" stroke="red" stroke-width="1" />
<text x="1078.125" y="221" font-size="1.2em" transform="rotate(-90, 1078.125, 221)" font-weight="bold" text-anchor="start" dominant-baseline="central" fill="red">12.25 mm</text>
<line x1="1299" y1="277.5" x2="1321" y2="277.5" stroke="red" stroke-width="1" />
<line x1="1310" y1="277.5" x2="1310" y2="322.5" stroke="red" stroke-width="1" />
<line x1="1299" y1="322.5" x2="1321" y2="322.5" stroke="red" stroke-width="1" />
<text x="1291" y="300" transform="rotate(-90, 1291, 300)" font-size="1.2em" font-weight="bold" text-anchor="middle" dominant-baseline="central" fill="red">9 mm</text>
<line x1="1299" y1="277.5" x2="1321" y2="277.5" stroke="red" stroke-width="1" />
<line x1="1310" y1="277.5" x2="1310" y2="322.5" stroke="red" stroke-width="1" />
<line x1="1299" y1="322.5" x2="1321" y2="322.5" stroke="red" stroke-width="1" />
<text x="1310" y="330.5" transform="rotate(-90, 1310, 330.5)" font-size="1.2em" text-anchor="end" dominant-baseline="middle" fill="red">grip</text>
<line x1="1339" y1="280" x2="1361" y2="280" stroke="red" stroke-width="1" />
<line x1="1350" y1="280" x2="1350" y2="320" stroke="red" stroke-width="1" />
<line x1="1339" y1="320" x2="1361" y2="320" stroke="red" stroke-width="1" />
<text x="1331" y="300" transform="rotate(-90, 1331, 300)" font-size="1.2em" font-weight="bold" text-anchor="middle" dominant-baseline="central" fill="red">8 mm</text>
<line x1="1339" y1="280" x2="1361" y2="280" stroke="red" stroke-width="1" />
<line x1="1350" y1="280" x2="1350" y2="320" stroke="red" stroke-width="1" />
<line x1="1339" y1="320" x2="1361" y2="320" stroke="red" stroke-width="1" />
<text x="1350" y="328" transform="rotate(-90, 1350, 328)" font-size="1.2em" text-anchor="end" dominant-baseline="middle" fill="red">body</text>
<text x="50%" y="580" font-size="1.1em" font-weight="bold" text-anchor="middle" dominant-baseline="middle">Copyright (c) // The Mechanical Pencil Database (tmpdb) // Licensed under Creative Commons Attribution-NonCommercial-ShareAlike 4.0 International</text>
</svg>
