<svg xmlns="http://www.w3.org/2000/svg" width="1200" height="500">
 <pattern id="knurled-large" patternUnits="userSpaceOnUse" width="12" height="12">
<path stroke="dimgray" stroke-linecap="round" stroke-width="1" d="M 6,6 L 12,12"/>
<path stroke="dimgray" stroke-linecap="round" stroke-width="1" d="M 6,6 L 0,12"/>
<path stroke="gray" stroke-linecap="round" stroke-width="1" d="M 6,6 L 12,0" />
<path stroke="gray" stroke-linecap="round" stroke-width="1" d="M 6,6 L 0,0" />
</pattern><pattern id="knurled-small" patternUnits="userSpaceOnUse" width="4" height="4">
<path stroke="dimgray" stroke-linecap="round" stroke-width="1" d="M 2,2 L 4,4"/>
<path stroke="dimgray" stroke-linecap="round" stroke-width="1" d="M 2,2 L 0,4"/>
<path stroke="gray" stroke-linecap="round" stroke-width="1" d="M 2,2 L 4,0" />
<path stroke="gray" stroke-linecap="round" stroke-width="1" d="M 2,2 L 0,0" />
</pattern><pattern id="knurled" patternUnits="userSpaceOnUse" width="8" height="8">
<path stroke="dimgray" stroke-linecap="round" stroke-width="1" d="M 4,4 L 8,8"/>
<path stroke="dimgray" stroke-linecap="round" stroke-width="1" d="M 4,4 L 0,8"/>
<path stroke="gray" stroke-linecap="round" stroke-width="1" d="M 4,4 L 8,0" />
<path stroke="gray" stroke-linecap="round" stroke-width="1" d="M 4,4 L 0,0" />
</pattern><pattern id="lined" patternUnits="userSpaceOnUse" width="3" height="3">
<path stroke="dimgray" stroke-linecap="round" stroke-width="1" d="M 0,0 L 3,0"/>
</pattern><pattern id="ridged" patternUnits="userSpaceOnUse" width="3" height="3">
<path stroke="dimgray" stroke-linecap="round" stroke-width="1" d="M 0,0 L 0,3"/>
</pattern><rect x="0" y="0" width="1200" height="500" fill="white" stroke="black" stroke-width="4" />
<rect x="2" y="2" width="1196" height="496" fill="white" stroke="dimgray" stroke-width="1" />
<g transform="rotate(0 0 0)">
<line x1="40" y1="300" x2="1160" y2="300" stroke-linecap="round" stroke="#5f5f5f" stroke-dasharray="2" stroke-width="1" />
<line x1="20" y1="300" x2="60" y2="300" stroke-linecap="round" stroke="#000000"  stroke-width="1" />
<line x1="40" y1="280" x2="40" y2="320" stroke="#000000" stroke-linecap="round"  stroke-width="1" />
<circle r="10" cx="40" cy="300" fill="white" fill-opacity="0" stroke="#000000" stroke-width="1"  />
<line x1="1140" y1="300" x2="1180" y2="300" stroke-linecap="round" stroke="#000000"  stroke-width="1" />
<line x1="1160" y1="280" x2="1160" y2="320" stroke="#000000" stroke-linecap="round"  stroke-width="1" />
<circle r="10" cx="1160" cy="300" fill="white" fill-opacity="0" stroke="#000000" stroke-width="1"  />
<line x1="600" y1="90" x2="600" y2="410" stroke="#5f5f5f" stroke-linecap="round" stroke-dasharray="2" stroke-width="1" />
<line x1="580" y1="90" x2="620" y2="90" stroke-linecap="round" stroke="#000000"  stroke-width="1" />
<line x1="600" y1="70" x2="600" y2="110" stroke="#000000" stroke-linecap="round"  stroke-width="1" />
<circle r="10" cx="600" cy="90" fill="white" fill-opacity="0" stroke="#000000" stroke-width="1"  />
<line x1="580" y1="410" x2="620" y2="410" stroke-linecap="round" stroke="#000000"  stroke-width="1" />
<line x1="600" y1="390" x2="600" y2="430" stroke="#000000" stroke-linecap="round"  stroke-width="1" />
<circle r="10" cx="600" cy="410" fill="white" fill-opacity="0" stroke="#000000" stroke-width="1"  />
<text x="30" y="50" font-size="2.0em" font-weight="bold"> Alvin // PRO-MATIC (Model #: MC5)</text>
<line x1="225" y1="190.75" x2="225" y2="300" stroke="#cfcfcf" stroke-linecap="round"  stroke-width="1" />
<line x1="225" y1="180" x2="225" y2="300" stroke="#cfcfcf" stroke-linecap="round"  stroke-width="1" />
<line x1="242.5" y1="180" x2="242.5" y2="300" stroke="#cfcfcf" stroke-linecap="round"  stroke-width="1" />
<line x1="315" y1="180" x2="315" y2="300" stroke="#cfcfcf" stroke-linecap="round"  stroke-width="1" />
<line x1="443.75" y1="180" x2="443.75" y2="300" stroke="#cfcfcf" stroke-linecap="round"  stroke-width="1" />
<line x1="860" y1="180" x2="860" y2="300" stroke="#cfcfcf" stroke-linecap="round"  stroke-width="1" />
<line x1="918.75" y1="180" x2="918.75" y2="300" stroke="#cfcfcf" stroke-linecap="round"  stroke-width="1" />
<line x1="932.5" y1="180" x2="932.5" y2="300" stroke="#cfcfcf" stroke-linecap="round"  stroke-width="1" />
<line x1="975" y1="190.75" x2="975" y2="300" stroke="#cfcfcf" stroke-linecap="round"  stroke-width="1" />
<line x1="225" y1="169" x2="225" y2="191" stroke="black" stroke-width="1" />
<line x1="225" y1="180" x2="242.5" y2="180" stroke="black" stroke-width="1" />
<line x1="242.5" y1="169" x2="242.5" y2="191" stroke="black" stroke-width="1" />
<text x="233.75" y="161" font-size="1.2em" transform="rotate(-90, 233.75, 161)" font-weight="bold" text-anchor="start" dominant-baseline="central" fill="black"><tspan x="233.75" dy="0">3.50 mm jaws</tspan></text>
<line x1="242.5" y1="169" x2="242.5" y2="191" stroke="black" stroke-width="1" />
<line x1="242.5" y1="180" x2="315" y2="180" stroke="black" stroke-width="1" />
<line x1="315" y1="169" x2="315" y2="191" stroke="black" stroke-width="1" />
<text x="278.75" y="161" font-size="1.2em" transform="rotate(-90, 266.75, 161)" font-weight="bold" text-anchor="start" dominant-baseline="central" fill="black"><tspan x="270.75" dy="0">14.50 mm</tspan><tspan x="270.75" dy="1em">tip</tspan></text>
<line x1="315" y1="169" x2="315" y2="191" stroke="black" stroke-width="1" />
<line x1="315" y1="180" x2="443.75" y2="180" stroke="black" stroke-width="1" />
<line x1="443.75" y1="169" x2="443.75" y2="191" stroke="black" stroke-width="1" />
<text x="379.375" y="161" font-size="1.2em" transform="rotate(-90, 367.375, 161)" font-weight="bold" text-anchor="start" dominant-baseline="central" fill="black"><tspan x="371.375" dy="0">25.75 mm</tspan><tspan x="371.375" dy="1em">grip</tspan></text>
<line x1="443.75" y1="169" x2="443.75" y2="191" stroke="black" stroke-width="1" />
<line x1="443.75" y1="180" x2="860" y2="180" stroke="black" stroke-width="1" />
<line x1="860" y1="169" x2="860" y2="191" stroke="black" stroke-width="1" />
<text x="651.875" y="161" font-size="1.2em" transform="rotate(-90, 639.875, 161)" font-weight="bold" text-anchor="start" dominant-baseline="central" fill="black"><tspan x="643.875" dy="0">83.25 mm</tspan><tspan x="643.875" dy="1em">body</tspan></text>
<line x1="860" y1="169" x2="860" y2="191" stroke="black" stroke-width="1" />
<line x1="860" y1="180" x2="918.75" y2="180" stroke="black" stroke-width="1" />
<line x1="918.75" y1="169" x2="918.75" y2="191" stroke="black" stroke-width="1" />
<text x="889.375" y="161" font-size="1.2em" transform="rotate(-90, 877.375, 161)" font-weight="bold" text-anchor="start" dominant-baseline="central" fill="black"><tspan x="881.375" dy="0">11.75 mm</tspan><tspan x="881.375" dy="1em">indicator</tspan></text>
<line x1="918.75" y1="169" x2="918.75" y2="191" stroke="black" stroke-width="1" />
<line x1="918.75" y1="180" x2="932.5" y2="180" stroke="black" stroke-width="1" />
<line x1="932.5" y1="169" x2="932.5" y2="191" stroke="black" stroke-width="1" />
<text x="925.625" y="161" font-size="1.2em" transform="rotate(-90, 925.625, 161)" font-weight="bold" text-anchor="start" dominant-baseline="central" fill="black"><tspan x="925.625" dy="0">2.75 mm tail</tspan></text>
<line x1="932.5" y1="169" x2="932.5" y2="191" stroke="black" stroke-width="1" />
<line x1="932.5" y1="180" x2="975" y2="180" stroke="black" stroke-width="1" />
<line x1="975" y1="169" x2="975" y2="191" stroke="black" stroke-width="1" />
<text x="953.75" y="161" font-size="1.2em" transform="rotate(-90, 941.75, 161)" font-weight="bold" text-anchor="start" dominant-baseline="central" fill="black"><tspan x="945.75" dy="0">8.50 mm</tspan><tspan x="945.75" dy="1em">cap</tspan></text>


<!-- renderSideComponent: jaws -->


<!-- renderPart: cone -->
<path d="M224.95 292.5 L242.55 285.625 L242.55 314.375 L224.95 307.5 Z" stroke-width="0" stroke="none" stroke-linejoin="round" fill="white" fill-opacity="1"/>
<path d="M225 292.5 L242.5 285.625 M242.5 314.375 L225 307.5" stroke-width="0.5" stroke="black" stroke-linejoin="round" fill="white" fill-opacity="1"/>
<!-- !left !both--><path d="M225 292.5 L225 307.5" stroke-width="0.5" stroke="black" stroke-linejoin="round" fill="white" fill-opacity="1"/>
<!-- !right !both --><path d="M242.5 285.625 L242.5 314.375" stroke-width="0.5" stroke="black" stroke-linejoin="round" fill="white" fill-opacity="1"/>


<!-- renderSideComponent: tip -->


<!-- renderPart: cone -->
<path d="M242.45 283.125 L315.05 281.25 L315.05 318.75 L242.45 316.875 Z" stroke-width="0" stroke="none" stroke-linejoin="round" fill="white" fill-opacity="1"/>
<path d="M242.5 283.125 L315 281.25 M315 318.75 L242.5 316.875" stroke-width="0.5" stroke="black" stroke-linejoin="round" fill="white" fill-opacity="1"/>
<!-- !left !both--><path d="M242.5 283.125 L242.5 316.875" stroke-width="0.5" stroke="black" stroke-linejoin="round" fill="white" fill-opacity="1"/>
<!-- !right !both --><path d="M315 281.25 L315 318.75" stroke-width="0.5" stroke="black" stroke-linejoin="round" fill="white" fill-opacity="1"/>


<!-- renderSideComponent: grip -->


<!-- renderPart: cylinder -->
<path d="M314.95 280 L443.8 280 L443.8 320 L314.95 320 Z" stroke-width="0" stroke="none" stroke-linejoin="round" fill="white" fill-opacity="1"/>
<path d="M315 280 L443.75 280 M443.75 320 L315 320" stroke-width="0.5" stroke="black" stroke-linejoin="round" fill="white" fill-opacity="1"/>
<!-- !left !both--><path d="M315 280 L315 320" stroke-width="0.5" stroke="black" stroke-linejoin="round" fill="white" fill-opacity="1"/>
<!-- !right !both --><path d="M443.75 280 L443.75 320" stroke-width="0.5" stroke="black" stroke-linejoin="round" fill="white" fill-opacity="1"/>
<path d="M315 280 L443.75 280 L443.75 320 L315 320 Z" stroke-width="1.0" stroke="black" fill="url(#knurled-small)"/>


<!-- renderSideComponent: body -->


<!-- renderPart: hexagonal -->
<path d="M443.7 280 L860.05 280 L860.05 320 L443.7 320 Z" stroke-width="0" stroke="none" stroke-linejoin="round" fill="white" fill-opacity="1"/>
<path d="M443.75 280 L860 280 M860 320 L443.75 320" stroke-width="0.5" stroke="black" stroke-linejoin="round" fill="white" fill-opacity="1"/>
<!-- !left !both--><path d="M443.75 280 L443.75 320" stroke-width="0.5" stroke="black" stroke-linejoin="round" fill="white" fill-opacity="1"/>
<!-- !right !both --><path d="M860 280 L860 320" stroke-width="0.5" stroke="black" stroke-linejoin="round" fill="white" fill-opacity="1"/>

<!-- shine -->
<line x1="443.75" y1="297" x2="860" y2="297" stroke-width="4" stroke-opacity="0.2" stroke="white" /><line x1="443.75" y1="298" x2="860" y2="298" stroke-width="1" stroke-opacity="0.2" stroke="white" /><line x1="443.75" y1="294" x2="860" y2="294" stroke-width="1" stroke-opacity="0.1" stroke="white" /><line x1="443.75" y1="281" x2="860" y2="281" stroke-width="2" stroke-opacity="0.3" stroke="black" /><line x1="443.75" y1="282" x2="860" y2="284" stroke-width="2" stroke-opacity="0.1" stroke="black" /><line x1="443.75" y1="303" x2="860" y2="303" stroke-width="4" stroke-opacity="0.2" stroke="white" /><line x1="443.75" y1="302" x2="860" y2="302" stroke-width="1" stroke-opacity="0.2" stroke="white" /><line x1="443.75" y1="306" x2="860" y2="306" stroke-width="1" stroke-opacity="0.1" stroke="white" /><line x1="443.75" y1="316" x2="860" y2="316" stroke-width="2" stroke-opacity="0.1" stroke="black" /><line x1="443.75" y1="319" x2="860" y2="319" stroke-width="2" stroke-opacity="0.3" stroke="black" /><line x1="443.75" y1="318" x2="860" y2="316" stroke-width="2" stroke-opacity="0.1" stroke="black" /><line x1="446.25" y1="300" x2="862.5" y2="300" stroke-width="1.5" stroke="gray" fill="gray" stroke-opacity="1.0"/>
<line x1="446.25" y1="300" x2="862.5" y2="300" stroke-width="0.5" stroke="black" fill="none" stroke-opacity="0.5"/>


<!-- renderSideComponent: indicator -->


<!-- renderPart: cone -->
<path d="M859.95 278.75 L872.55 280 L872.55 320 L859.95 321.25 Z" stroke-width="0" stroke="none" stroke-linejoin="round" fill="white" fill-opacity="1"/>
<path d="M860 278.75 L872.5 280 M872.5 320 L860 321.25" stroke-width="0.5" stroke="black" stroke-linejoin="round" fill="white" fill-opacity="1"/>
<!-- !left !both--><path d="M860 278.75 L860 321.25" stroke-width="0.5" stroke="black" stroke-linejoin="round" fill="white" fill-opacity="1"/>
<!-- !right !both --><path d="M872.5 280 L872.5 320" stroke-width="0.5" stroke="black" stroke-linejoin="round" fill="white" fill-opacity="1"/>


<!-- renderPart: cylinder -->
<path d="M872.45 280 L918.8 280 L918.8 320 L872.45 320 Z" stroke-width="0" stroke="none" stroke-linejoin="round" fill="white" fill-opacity="1"/>
<path d="M872.5 280 L918.75 280 M918.75 320 L872.5 320" stroke-width="0.5" stroke="black" stroke-linejoin="round" fill="white" fill-opacity="1"/>
<!-- !left !both--><path d="M872.5 280 L872.5 320" stroke-width="0.5" stroke="black" stroke-linejoin="round" fill="white" fill-opacity="1"/>
<!-- !right !both --><path d="M918.75 280 L918.75 320" stroke-width="0.5" stroke="black" stroke-linejoin="round" fill="white" fill-opacity="1"/>
<rect x="882.5" y="290" width="26.25" height="20" rx="3" ry="3" stroke-width="1" stroke="black" fill="white"/>
<text x="895.625" y="300" text-anchor="middle" dominant-baseline="central"><tspan stroke="dimgray" stroke-width="0.5" font-family="sans-serif" fill="black" textLength="{this.width * 5 - 24}" > HB</tspan></text>

<!-- renderSideComponent: tail -->


<!-- renderPart: cylinder -->
<path d="M918.7 280.625 L932.55 280.625 L932.55 319.375 L918.7 319.375 Z" stroke-width="0" stroke="none" stroke-linejoin="round" fill="white" fill-opacity="1"/>
<path d="M918.75 280.625 L932.5 280.625 M932.5 319.375 L918.75 319.375" stroke-width="0.5" stroke="black" stroke-linejoin="round" fill="white" fill-opacity="1"/>
<!-- !left !both--><path d="M918.75 280.625 L918.75 319.375" stroke-width="0.5" stroke="black" stroke-linejoin="round" fill="white" fill-opacity="1"/>
<!-- !right !both --><path d="M932.5 280.625 L932.5 319.375" stroke-width="0.5" stroke="black" stroke-linejoin="round" fill="white" fill-opacity="1"/>
<path d="M918.75 280.625 L932.5 280.625 L932.5 319.375 L918.75 319.375 Z" stroke-width="1.0" stroke="black" fill="url(#lined)"/>


<!-- renderSideComponent: cap -->


<!-- renderPart: cylinder -->
<path d="M932.45 286.25 L975.05 286.25 L975.05 313.75 L932.45 313.75 Z" stroke-width="0" stroke="none" stroke-linejoin="round" fill="white" fill-opacity="1"/>
<path d="M932.5 286.25 L975 286.25 M975 313.75 L932.5 313.75" stroke-width="0.5" stroke="black" stroke-linejoin="round" fill="white" fill-opacity="1"/>
<!-- !right !both --><path d="M975 286.25 L975 313.75" stroke-width="0.5" stroke="black" stroke-linejoin="round" fill="white" fill-opacity="1"/>

<!-- TAPER START: hexagonal -->
<path d="M 443.75 280.25 L 446.25 280.25 C 443.4375 285, 443.4375 295, 446.25 300 C 443.4375 305, 443.4375 315, 446.25 319.75 L 443.75 319.75 Z" stroke-width="0" stroke="0" stroke-linecap="round" fill-opacity="1" fill="white" /><path d="M 446.25 280.5 C 443.4375 285, 443.4375 295, 446.25 300 C 443.4375 305, 443.4375 315, 446.25 319.45" stroke-width="1.5" stroke="gray" stroke-linecap="round" fill-opacity="0" fill="none" /><path d="M 446.25 280.5 C 443.4375 285, 443.4375 295, 446.25 300 C 443.4375 305, 443.4375 315, 446.25 319.5" stroke-width="0.5" stroke="black" stroke-opacity="0.5" stroke-linecap="round" fill-opacity="0" fill="none" /></g><text x="50%" y="460" font-size="1.1em" font-weight="bold" text-anchor="middle" dominant-baseline="middle">Copyright (c) // Synapticloop // The Mechanical Pencil Database (tmpdb)</text>
<text x="50%" y="480" font-size="1.1em" font-weight="bold" text-anchor="middle" dominant-baseline="middle">Licensed under Creative Commons Attribution-NonCommercial-ShareAlike 4.0 International</text>
<text x="1190" y="490" font-size="0.5em" font-weight="bold" text-anchor="end" dominant-baseline="middle">SVGTechnicalComponentRenderer</text>
</svg>