<svg xmlns="http://www.w3.org/2000/svg" width="1500" height="800">
 <pattern id="knurled-large" patternUnits="userSpaceOnUse" width="12" height="12">
<path stroke="dimgray" stroke-linecap="round" stroke-width="1" d="M 6,6 L 12,12"/>
<path stroke="dimgray" stroke-linecap="round" stroke-width="1" d="M 6,6 L 0,12"/>
<path stroke="gray" stroke-linecap="round" stroke-width="1" d="M 6,6 L 12,0" />
<path stroke="gray" stroke-linecap="round" stroke-width="1" d="M 6,6 L 0,0" />
</pattern><pattern id="knurled-small" patternUnits="userSpaceOnUse" width="4" height="4">
<path stroke="dimgray" stroke-linecap="round" stroke-width="1" d="M 2,2 L 4,4"/>
<path stroke="dimgray" stroke-linecap="round" stroke-width="1" d="M 2,2 L 0,4"/>
<path stroke="gray" stroke-linecap="round" stroke-width="1" d="M 2,2 L 4,0" />
<path stroke="gray" stroke-linecap="round" stroke-width="1" d="M 2,2 L 0,0" />
</pattern><pattern id="knurled" patternUnits="userSpaceOnUse" width="8" height="8">
<path stroke="dimgray" stroke-linecap="round" stroke-width="1" d="M 4,4 L 8,8"/>
<path stroke="dimgray" stroke-linecap="round" stroke-width="1" d="M 4,4 L 0,8"/>
<path stroke="gray" stroke-linecap="round" stroke-width="1" d="M 4,4 L 8,0" />
<path stroke="gray" stroke-linecap="round" stroke-width="1" d="M 4,4 L 0,0" />
</pattern><pattern id="lined" patternUnits="userSpaceOnUse" width="3" height="3">
<path stroke="dimgray" stroke-linecap="round" stroke-width="1" d="M 0,0 L 3,0"/>
</pattern><pattern id="ridged" patternUnits="userSpaceOnUse" width="3" height="3">
<path stroke="dimgray" stroke-linecap="round" stroke-width="1" d="M 0,0 L 0,3"/>
</pattern><pattern id="spring" patternUnits="userSpaceOnUse" width="8" height="60">
<path stroke="dimgray" stroke-linecap="round" stroke-width="2" d="M 1,1 L 8,60"/>
<path stroke="white" stroke-linecap="round" stroke-width="1" d="M 1,1 L 8,60"/>
</pattern><rect x="0" y="0" width="1500" height="800" fill="white" stroke="black" stroke-width="4" />
<rect x="2" y="2" width="1496" height="796" fill="white" stroke="dimgray" stroke-width="1" />
<g transform="rotate(0 0 0)">
<line x1="40" y1="500" x2="1460" y2="500" stroke-linecap="round" stroke="#5f5f5f" stroke-dasharray="2" stroke-width="1" />
<line x1="20" y1="500" x2="60" y2="500" stroke-linecap="round" stroke="#000000"  stroke-width="1" />
<line x1="40" y1="480" x2="40" y2="520" stroke="#000000" stroke-linecap="round"  stroke-width="1" />
<circle r="10" cx="40" cy="500" fill="white" fill-opacity="0" stroke="#000000" stroke-width="1"  />
<line x1="1440" y1="500" x2="1480" y2="500" stroke-linecap="round" stroke="#000000"  stroke-width="1" />
<line x1="1460" y1="480" x2="1460" y2="520" stroke="#000000" stroke-linecap="round"  stroke-width="1" />
<circle r="10" cx="1460" cy="500" fill="white" fill-opacity="0" stroke="#000000" stroke-width="1"  />
<line x1="750" y1="90" x2="750" y2="710" stroke="#5f5f5f" stroke-linecap="round" stroke-dasharray="2" stroke-width="1" />
<line x1="730" y1="90" x2="770" y2="90" stroke-linecap="round" stroke="#000000"  stroke-width="1" />
<line x1="750" y1="70" x2="750" y2="110" stroke="#000000" stroke-linecap="round"  stroke-width="1" />
<circle r="10" cx="750" cy="90" fill="white" fill-opacity="0" stroke="#000000" stroke-width="1"  />
<line x1="730" y1="710" x2="770" y2="710" stroke-linecap="round" stroke="#000000"  stroke-width="1" />
<line x1="750" y1="690" x2="750" y2="730" stroke="#000000" stroke-linecap="round"  stroke-width="1" />
<circle r="10" cx="750" cy="710" fill="white" fill-opacity="0" stroke="#000000" stroke-width="1"  />
<line x1="160" y1="150" x2="160" y2="710" stroke="#5f5f5f" stroke-linecap="round" stroke-dasharray="2" stroke-width="1" />
<line x1="140" y1="150" x2="180" y2="150" stroke-linecap="round" stroke="#000000"  stroke-width="1" />
<line x1="160" y1="130" x2="160" y2="170" stroke="#000000" stroke-linecap="round"  stroke-width="1" />
<circle r="10" cx="160" cy="150" fill="white" fill-opacity="0" stroke="#000000" stroke-width="1"  />
<line x1="140" y1="710" x2="180" y2="710" stroke-linecap="round" stroke="#000000"  stroke-width="1" />
<line x1="160" y1="690" x2="160" y2="730" stroke="#000000" stroke-linecap="round"  stroke-width="1" />
<circle r="10" cx="160" cy="710" fill="white" fill-opacity="0" stroke="#000000" stroke-width="1"  />
<line x1="1400" y1="150" x2="1400" y2="710" stroke="#5f5f5f" stroke-linecap="round" stroke-dasharray="2" stroke-width="1" />
<line x1="1380" y1="150" x2="1420" y2="150" stroke-linecap="round" stroke="#000000"  stroke-width="1" />
<line x1="1400" y1="130" x2="1400" y2="170" stroke="#000000" stroke-linecap="round"  stroke-width="1" />
<circle r="10" cx="1400" cy="150" fill="white" fill-opacity="0" stroke="#000000" stroke-width="1"  />
<line x1="1380" y1="710" x2="1420" y2="710" stroke-linecap="round" stroke="#000000"  stroke-width="1" />
<line x1="1400" y1="690" x2="1400" y2="730" stroke="#000000" stroke-linecap="round"  stroke-width="1" />
<circle r="10" cx="1400" cy="710" fill="white" fill-opacity="0" stroke="#000000" stroke-width="1"  />
<text x="30" y="50" font-size="2.0em" font-weight="bold"> Alvin // PRO-MATIC (Model #: MC5)</text>
<text x="30" y="80" font-size="1.1em"> [LOGO|Alvin] "PRO-MATIC" MC5 ITALY</text>
<text x="30" y="100" font-size="1.1em"> Lead size: 2 mm</text>
<text x="1480" y="30" font-size="1.6em" font-weight="bold" text-anchor="end" dominant-baseline="central">Colour variants of the body</text>
<rect x="1440" y="55" width="40" rx="50%" ry="50%" height="40" stroke="black" stroke-width="2" fill="#24549C" fill-opacity="1"/>
<text x="1460" y="100" transform="rotate(-90, 1460, 100)" font-size="1.2em" font-weight="bold" text-anchor="end" dominant-baseline="central">blue</text>
<text x="30" y="136" font-size="1.2em" font-weight="bold" text-anchor="start" dominant-baseline="central">Materials:</text>
<text x="50" y="156" font-size="1.2em" text-anchor="start" dominant-baseline="central"> - metal</text>
<text x="50" y="176" font-size="1.2em" text-anchor="start" dominant-baseline="central"> - plastic</text>
<line x1="100" y1="478.75" x2="1400" y2="478.75" stroke-linecap="round" stroke="#cfcfcf"  stroke-width="1" />
<line x1="100" y1="521.25" x2="1400" y2="521.25" stroke-linecap="round" stroke="#cfcfcf"  stroke-width="1" />
<line x1="136.90598923241498" y1="500" x2="136.90598923241498" y2="541.25" stroke="#cfcfcf" stroke-linecap="round"  stroke-width="1" />
<line x1="183.09401076758502" y1="500" x2="183.09401076758502" y2="541.25" stroke="#cfcfcf" stroke-linecap="round"  stroke-width="1" />
<line x1="375" y1="380" x2="375" y2="620" stroke="#cfcfcf" stroke-linecap="round"  stroke-width="1" />
<line x1="392.5" y1="380" x2="392.5" y2="620" stroke="#cfcfcf" stroke-linecap="round"  stroke-width="1" />
<line x1="465" y1="380" x2="465" y2="620" stroke="#cfcfcf" stroke-linecap="round"  stroke-width="1" />
<line x1="593.75" y1="380" x2="593.75" y2="620" stroke="#cfcfcf" stroke-linecap="round"  stroke-width="1" />
<line x1="1010" y1="380" x2="1010" y2="620" stroke="#cfcfcf" stroke-linecap="round"  stroke-width="1" />
<line x1="1068.75" y1="380" x2="1068.75" y2="620" stroke="#cfcfcf" stroke-linecap="round"  stroke-width="1" />
<line x1="1082.5" y1="380" x2="1082.5" y2="620" stroke="#cfcfcf" stroke-linecap="round"  stroke-width="1" />
<line x1="1125" y1="390.75" x2="1125" y2="598.75" stroke="#cfcfcf" stroke-linecap="round"  stroke-width="1" />
<text x="160" y="740" font-size="1.8em" font-weight="bold" text-anchor="middle" dominant-baseline="central">Front</text>
<text x="750" y="740" font-size="1.8em" font-weight="bold" text-anchor="middle" dominant-baseline="central">Side view</text>
<text x="1400" y="740" font-size="1.8em" font-weight="bold" text-anchor="middle" dominant-baseline="central">Back</text>
<line x1="99" y1="478.75" x2="121" y2="478.75" stroke="black" stroke-width="1" />
<line x1="110" y1="478.75" x2="110" y2="521.25" stroke="black" stroke-width="1" />
<line x1="99" y1="521.25" x2="121" y2="521.25" stroke="black" stroke-width="1" />
<text x="91" y="500" transform="rotate(-90, 91, 500)" font-size="1.2em" font-weight="bold" text-anchor="middle" dominant-baseline="central" fill="black">8.50 mm</text>
<line x1="136.90598923241498" y1="540.25" x2="136.90598923241498" y2="562.25" stroke="black" stroke-width="1" />
<line x1="136.90598923241498" y1="551.25" x2="183.09401076758505" y2="551.25" stroke="black" stroke-width="1" />
<line x1="183.09401076758505" y1="540.25" x2="183.09401076758505" y2="562.25" stroke="black" stroke-width="1" />
<text x="160" y="570.25" font-size="1.2em" font-weight="bold" text-anchor="middle" dominant-baseline="central" fill="black"><tspan x="160" dy="0">9.24 mm</tspan></text>
<line x1="375" y1="369" x2="375" y2="391" stroke="black" stroke-width="1" />
<line x1="375" y1="380" x2="392.5" y2="380" stroke="black" stroke-width="1" />
<line x1="392.5" y1="369" x2="392.5" y2="391" stroke="black" stroke-width="1" />
<text x="383.75" y="361" font-size="1.2em" transform="rotate(-90, 383.75, 361)" font-weight="bold" text-anchor="start" dominant-baseline="central" fill="black"><tspan x="383.75" dy="0">3.50 mm jaws</tspan></text>
<line x1="392.5" y1="369" x2="392.5" y2="391" stroke="black" stroke-width="1" />
<line x1="392.5" y1="380" x2="465" y2="380" stroke="black" stroke-width="1" />
<line x1="465" y1="369" x2="465" y2="391" stroke="black" stroke-width="1" />
<text x="428.75" y="361" font-size="1.2em" transform="rotate(-90, 416.75, 361)" font-weight="bold" text-anchor="start" dominant-baseline="central" fill="black"><tspan x="420.75" dy="0">14.50 mm</tspan><tspan x="420.75" dy="1em">tip</tspan></text>
<line x1="465" y1="369" x2="465" y2="391" stroke="black" stroke-width="1" />
<line x1="465" y1="380" x2="593.75" y2="380" stroke="black" stroke-width="1" />
<line x1="593.75" y1="369" x2="593.75" y2="391" stroke="black" stroke-width="1" />
<text x="529.375" y="361" font-size="1.2em" transform="rotate(-90, 517.375, 361)" font-weight="bold" text-anchor="start" dominant-baseline="central" fill="black"><tspan x="521.375" dy="0">25.75 mm</tspan><tspan x="521.375" dy="1em">grip</tspan></text>
<line x1="593.75" y1="369" x2="593.75" y2="391" stroke="black" stroke-width="1" />
<line x1="593.75" y1="380" x2="1010" y2="380" stroke="black" stroke-width="1" />
<line x1="1010" y1="369" x2="1010" y2="391" stroke="black" stroke-width="1" />
<text x="801.875" y="361" font-size="1.2em" transform="rotate(-90, 789.875, 361)" font-weight="bold" text-anchor="start" dominant-baseline="central" fill="black"><tspan x="793.875" dy="0">83.25 mm</tspan><tspan x="793.875" dy="1em">body</tspan></text>
<line x1="1010" y1="369" x2="1010" y2="391" stroke="black" stroke-width="1" />
<line x1="1010" y1="380" x2="1068.75" y2="380" stroke="black" stroke-width="1" />
<line x1="1068.75" y1="369" x2="1068.75" y2="391" stroke="black" stroke-width="1" />
<text x="1039.375" y="361" font-size="1.2em" transform="rotate(-90, 1027.375, 361)" font-weight="bold" text-anchor="start" dominant-baseline="central" fill="black"><tspan x="1031.375" dy="0">11.75 mm</tspan><tspan x="1031.375" dy="1em">indicator</tspan></text>
<line x1="1068.75" y1="369" x2="1068.75" y2="391" stroke="black" stroke-width="1" />
<line x1="1068.75" y1="380" x2="1082.5" y2="380" stroke="black" stroke-width="1" />
<line x1="1082.5" y1="369" x2="1082.5" y2="391" stroke="black" stroke-width="1" />
<text x="1075.625" y="361" font-size="1.2em" transform="rotate(-90, 1075.625, 361)" font-weight="bold" text-anchor="start" dominant-baseline="central" fill="black"><tspan x="1075.625" dy="0">2.75 mm tail</tspan></text>
<line x1="1082.5" y1="369" x2="1082.5" y2="391" stroke="black" stroke-width="1" />
<line x1="1082.5" y1="380" x2="1125" y2="380" stroke="black" stroke-width="1" />
<line x1="1125" y1="369" x2="1125" y2="391" stroke="black" stroke-width="1" />
<text x="1103.75" y="361" font-size="1.2em" transform="rotate(-90, 1091.75, 361)" font-weight="bold" text-anchor="start" dominant-baseline="central" fill="black"><tspan x="1095.75" dy="0">8.50 mm</tspan><tspan x="1095.75" dy="1em">cap</tspan></text>
<line x1="1299" y1="480" x2="1321" y2="480" stroke="black" stroke-width="1" />
<line x1="1310" y1="480" x2="1310" y2="520" stroke="black" stroke-width="1" />
<line x1="1299" y1="520" x2="1321" y2="520" stroke="black" stroke-width="1" />
<text x="1291" y="500" transform="rotate(-90, 1291, 500)" font-size="1.2em" font-weight="bold" text-anchor="middle" dominant-baseline="central" fill="black">8 mm</text>
<line x1="1299" y1="480" x2="1321" y2="480" stroke="black" stroke-width="1" />
<line x1="1310" y1="480" x2="1310" y2="520" stroke="black" stroke-width="1" />
<line x1="1299" y1="520" x2="1321" y2="520" stroke="black" stroke-width="1" />
<text x="1310" y="528" transform="rotate(-90, 1310, 528)" font-weight="bold" font-size="1.2em" text-anchor="end" dominant-baseline="middle" fill="black">grip</text>
<line x1="1339" y1="480" x2="1361" y2="480" stroke="black" stroke-width="1" />
<line x1="1350" y1="480" x2="1350" y2="520" stroke="black" stroke-width="1" />
<line x1="1339" y1="520" x2="1361" y2="520" stroke="black" stroke-width="1" />
<text x="1331" y="500" transform="rotate(-90, 1331, 500)" font-size="1.2em" font-weight="bold" text-anchor="middle" dominant-baseline="central" fill="black">8 mm</text>
<line x1="1339" y1="480" x2="1361" y2="480" stroke="black" stroke-width="1" />
<line x1="1350" y1="480" x2="1350" y2="520" stroke="black" stroke-width="1" />
<line x1="1339" y1="520" x2="1361" y2="520" stroke="black" stroke-width="1" />
<text x="1350" y="528" transform="rotate(-90, 1350, 528)" font-weight="bold" font-size="1.2em" text-anchor="end" dominant-baseline="middle" fill="black">body</text>
<line x1="375" y1="540.25" x2="375" y2="562.25" stroke="black" stroke-width="1" />
<line x1="375" y1="551.25" x2="1125" y2="551.25" stroke="black" stroke-width="1" />
<line x1="1125" y1="540.25" x2="1125" y2="562.25" stroke="black" stroke-width="1" />
<text x="750" y="551.25" font-weight="bold" font-size="1.2em" stroke="white" stroke-width="0.25" text-anchor="middle" dominant-baseline="middle" fill="black"><tspan x="750" dy="0">150.00 mm</tspan></text>
<line x1="375" y1="609" x2="375" y2="631" stroke="black" stroke-width="1" />
<line x1="375" y1="620" x2="392.5" y2="620" stroke="black" stroke-width="1" />
<line x1="392.5" y1="609" x2="392.5" y2="631" stroke="black" stroke-width="1" />
<text x="383.75" y="639" font-size="1.2em" transform="rotate(-90, 383.75, 639)"  text-anchor="end" dominant-baseline="middle" fill="black"><tspan x="383.75" dy="0">metal</tspan></text>
<line x1="392.5" y1="609" x2="392.5" y2="631" stroke="black" stroke-width="1" />
<line x1="392.5" y1="620" x2="465" y2="620" stroke="black" stroke-width="1" />
<line x1="465" y1="609" x2="465" y2="631" stroke="black" stroke-width="1" />
<text x="428.75" y="639" font-size="1.2em" transform="rotate(-90, 428.75, 639)"  text-anchor="end" dominant-baseline="middle" fill="black"><tspan x="428.75" dy="0">metal</tspan></text>
<line x1="465" y1="609" x2="465" y2="631" stroke="black" stroke-width="1" />
<line x1="465" y1="620" x2="593.75" y2="620" stroke="black" stroke-width="1" />
<line x1="593.75" y1="609" x2="593.75" y2="631" stroke="black" stroke-width="1" />
<text x="529.375" y="639" font-size="1.2em" transform="rotate(-90, 529.375, 639)"  text-anchor="end" dominant-baseline="middle" fill="black"><tspan x="529.375" dy="0">metal</tspan></text>
<line x1="593.75" y1="609" x2="593.75" y2="631" stroke="black" stroke-width="1" />
<line x1="593.75" y1="620" x2="1010" y2="620" stroke="black" stroke-width="1" />
<line x1="1010" y1="609" x2="1010" y2="631" stroke="black" stroke-width="1" />
<text x="801.875" y="639" font-size="1.2em" transform="rotate(-90, 801.875, 639)"  text-anchor="end" dominant-baseline="middle" fill="black"><tspan x="801.875" dy="0">metal</tspan></text>
<line x1="1010" y1="609" x2="1010" y2="631" stroke="black" stroke-width="1" />
<line x1="1010" y1="620" x2="1068.75" y2="620" stroke="black" stroke-width="1" />
<line x1="1068.75" y1="609" x2="1068.75" y2="631" stroke="black" stroke-width="1" />
<text x="1039.375" y="639" font-size="1.2em" transform="rotate(-90, 1039.375, 639)"  text-anchor="end" dominant-baseline="middle" fill="black"><tspan x="1039.375" dy="0">metal</tspan></text>
<line x1="1068.75" y1="609" x2="1068.75" y2="631" stroke="black" stroke-width="1" />
<line x1="1068.75" y1="620" x2="1082.5" y2="620" stroke="black" stroke-width="1" />
<line x1="1082.5" y1="609" x2="1082.5" y2="631" stroke="black" stroke-width="1" />
<text x="1075.625" y="639" font-size="1.2em" transform="rotate(-90, 1075.625, 639)"  text-anchor="end" dominant-baseline="middle" fill="black"><tspan x="1075.625" dy="0">plastic</tspan></text>
<line x1="1082.5" y1="609" x2="1082.5" y2="631" stroke="black" stroke-width="1" />
<line x1="1082.5" y1="620" x2="1125" y2="620" stroke="black" stroke-width="1" />
<line x1="1125" y1="609" x2="1125" y2="631" stroke="black" stroke-width="1" />
<text x="1103.75" y="639" font-size="1.2em" transform="rotate(-90, 1103.75, 639)"  text-anchor="end" dominant-baseline="middle" fill="black"><tspan x="1103.75" dy="0">metal</tspan></text>


<!-- renderSideComponent: jaws -->


<!-- renderPart: cone -->
<path d="M374.95 492.5 L392.55 485.625 L392.55 514.375 L374.95 507.5 L374.95 492.5" stroke-width="0" stroke="none" stroke-linejoin="round" fill="white" fill-opacity="1"/>
<path d="M374.95 492.5 L392.55 485.625 M392.55 514.375 L374.95 507.5" stroke-width="0.5" stroke="black" stroke-linejoin="round" fill="white" fill-opacity="1"/>
<!-- !right !both --><path d="M392.55 485.625 L392.55 514.375" stroke-width="0.5" stroke="black" stroke-linejoin="round" fill="white" fill-opacity="1"/>
<!-- !left !both --><path d="M374.95 492.5 L374.95 507.5" stroke-width="0.5" stroke="black" stroke-linejoin="round" fill="white" fill-opacity="1"/>


<!-- renderSideComponent: tip -->


<!-- renderPart: cone -->
<path d="M392.45 483.125 L465.05 481.25 L465.05 518.75 L392.45 516.875 L392.45 483.125" stroke-width="0" stroke="none" stroke-linejoin="round" fill="white" fill-opacity="1"/>
<path d="M392.45 483.125 L465.05 481.25 M465.05 518.75 L392.45 516.875" stroke-width="0.5" stroke="black" stroke-linejoin="round" fill="white" fill-opacity="1"/>
<!-- !right !both --><path d="M465.05 481.25 L465.05 518.75" stroke-width="0.5" stroke="black" stroke-linejoin="round" fill="white" fill-opacity="1"/>
<!-- !left !both --><path d="M392.45 483.125 L392.45 516.875" stroke-width="0.5" stroke="black" stroke-linejoin="round" fill="white" fill-opacity="1"/>


<!-- renderSideComponent: grip -->


<!-- renderPart: cylinder -->
<path d="M464.95 480 L593.8 480 L593.8 520 L464.95 520 L464.95 480" stroke-width="0" stroke="none" stroke-linejoin="round" fill="white" fill-opacity="1"/>
<path d="M464.95 480 L593.8 480 M593.8 520 L464.95 520" stroke-width="0.5" stroke="black" stroke-linejoin="round" fill="white" fill-opacity="1"/>
<!-- !right !both --><path d="M593.8 480 L593.8 520" stroke-width="0.5" stroke="black" stroke-linejoin="round" fill="white" fill-opacity="1"/>
<!-- !left !both --><path d="M464.95 480 L464.95 520" stroke-width="0.5" stroke="black" stroke-linejoin="round" fill="white" fill-opacity="1"/>
<!-- DEFAULT FINISH: knurled-small --><path d="M465 480 L593.75 480 L593.75 520 L465 520 Z" stroke-width="0.5" stroke="black" fill="url(#knurled-small)"/>


<!-- renderSideComponent: body -->


<!-- renderPart: hexagonal -->
<path d="M593.7 480 L1010.05 480 L1010.05 520 L593.7 520 L593.7 480" stroke-width="0" stroke="none" stroke-linejoin="round" fill="white" fill-opacity="1"/>
<path d="M593.7 480 L1010.05 480 M1010.05 520 L593.7 520" stroke-width="0.5" stroke="black" stroke-linejoin="round" fill="white" fill-opacity="1"/>
<!-- !right !both --><path d="M1010.05 480 L1010.05 520" stroke-width="0.5" stroke="black" stroke-linejoin="round" fill="white" fill-opacity="1"/>
<!-- !left !both --><path d="M593.7 480 L593.7 520" stroke-width="0.5" stroke="black" stroke-linejoin="round" fill="white" fill-opacity="1"/>

<!-- shine -->
<line x1="593.75" y1="497" x2="1010" y2="497" stroke-width="4" stroke-opacity="0.2" stroke="white" /><line x1="593.75" y1="498" x2="1010" y2="498" stroke-width="1" stroke-opacity="0.2" stroke="white" /><line x1="593.75" y1="494" x2="1010" y2="494" stroke-width="1" stroke-opacity="0.1" stroke="white" /><line x1="593.75" y1="481" x2="1010" y2="481" stroke-width="2" stroke-opacity="0.3" stroke="black" /><line x1="593.75" y1="482" x2="1010" y2="484" stroke-width="2" stroke-opacity="0.1" stroke="black" /><line x1="593.75" y1="503" x2="1010" y2="503" stroke-width="4" stroke-opacity="0.2" stroke="white" /><line x1="593.75" y1="502" x2="1010" y2="502" stroke-width="1" stroke-opacity="0.2" stroke="white" /><line x1="593.75" y1="506" x2="1010" y2="506" stroke-width="1" stroke-opacity="0.1" stroke="white" /><line x1="593.75" y1="516" x2="1010" y2="516" stroke-width="2" stroke-opacity="0.1" stroke="black" /><line x1="593.75" y1="519" x2="1010" y2="519" stroke-width="2" stroke-opacity="0.3" stroke="black" /><line x1="593.75" y1="518" x2="1010" y2="516" stroke-width="2" stroke-opacity="0.1" stroke="black" /><line x1="596.25" y1="500" x2="1012.5" y2="500" stroke-width="1.5" stroke="gray" fill="gray" stroke-opacity="1.0"/>
<line x1="596.25" y1="500" x2="1012.5" y2="500" stroke-width="0.5" stroke="black" fill="none" stroke-opacity="0.5"/>


<!-- renderSideComponent: indicator -->


<!-- renderPart: cone -->
<path d="M1009.95 478.75 L1022.55 480 L1022.55 520 L1009.95 521.25 L1009.95 478.75" stroke-width="0" stroke="none" stroke-linejoin="round" fill="white" fill-opacity="1"/>
<path d="M1009.95 478.75 L1022.55 480 M1022.55 520 L1009.95 521.25" stroke-width="0.5" stroke="black" stroke-linejoin="round" fill="white" fill-opacity="1"/>
<!-- !right !both --><path d="M1022.55 480 L1022.55 520" stroke-width="0.5" stroke="black" stroke-linejoin="round" fill="white" fill-opacity="1"/>
<!-- !left !both --><path d="M1009.95 478.75 L1009.95 521.25" stroke-width="0.5" stroke="black" stroke-linejoin="round" fill="white" fill-opacity="1"/>


<!-- renderPart: cylinder -->
<path d="M1022.45 480 L1068.8 480 L1068.8 520 L1022.45 520 L1022.45 480" stroke-width="0" stroke="none" stroke-linejoin="round" fill="white" fill-opacity="1"/>
<path d="M1022.45 480 L1068.8 480 M1068.8 520 L1022.45 520" stroke-width="0.5" stroke="black" stroke-linejoin="round" fill="white" fill-opacity="1"/>
<!-- !right !both --><path d="M1068.8 480 L1068.8 520" stroke-width="0.5" stroke="black" stroke-linejoin="round" fill="white" fill-opacity="1"/>
<!-- !left !both --><path d="M1022.45 480 L1022.45 520" stroke-width="0.5" stroke="black" stroke-linejoin="round" fill="white" fill-opacity="1"/>
<rect x="1032.5" y="490" width="26.25" height="20" rx="3" ry="3" stroke-width="1" stroke="black" fill="white"/>
<text x="1045.625" y="500" text-anchor="middle" dominant-baseline="central"><tspan stroke="dimgray" stroke-width="0.5" font-family="sans-serif" fill="black" textLength="{this.width * 5 - 24}" > HB</tspan></text>

<!-- renderSideComponent: tail -->


<!-- renderPart: cylinder -->
<path d="M1068.7 480.625 L1082.55 480.625 L1082.55 519.375 L1068.7 519.375 L1068.7 480.625" stroke-width="0" stroke="none" stroke-linejoin="round" fill="white" fill-opacity="1"/>
<path d="M1068.7 480.625 L1082.55 480.625 M1082.55 519.375 L1068.7 519.375" stroke-width="0.5" stroke="black" stroke-linejoin="round" fill="white" fill-opacity="1"/>
<!-- !right !both --><path d="M1082.55 480.625 L1082.55 519.375" stroke-width="0.5" stroke="black" stroke-linejoin="round" fill="white" fill-opacity="1"/>
<!-- !left !both --><path d="M1068.7 480.625 L1068.7 519.375" stroke-width="0.5" stroke="black" stroke-linejoin="round" fill="white" fill-opacity="1"/>
<!-- DEFAULT FINISH: lined --><path d="M1068.75 480.625 L1082.5 480.625 L1082.5 519.375 L1068.75 519.375 Z" stroke-width="0.5" stroke="black" fill="url(#lined)"/>


<!-- renderSideComponent: cap -->


<!-- renderPart: cylinder -->
<path d="M1082.45 486.25 L1125.05 486.25 L1125.05 513.75 L1082.45 513.75 L1082.45 486.25" stroke-width="0" stroke="none" stroke-linejoin="round" fill="white" fill-opacity="1"/>
<path d="M1082.45 486.25 L1125.05 486.25 M1125.05 513.75 L1082.45 513.75" stroke-width="0.5" stroke="black" stroke-linejoin="round" fill="white" fill-opacity="1"/>
<!-- !right !both --><path d="M1125.05 486.25 L1125.05 513.75" stroke-width="0.5" stroke="black" stroke-linejoin="round" fill="white" fill-opacity="1"/>

<!-- TAPER START: hexagonal -->
<path d="M 593.65 480.25 L 596.25 480.25 C 593.4375 485, 593.4375 495, 596.25 500 C 593.4375 505, 593.4375 515, 596.25 519.75 L 593.65 519.75 Z" stroke-width="0" stroke="0" stroke-linecap="round" fill-opacity="1" fill="white" /><path d="M 596.25 480.5 C 593.4375 485, 593.4375 495, 596.25 500 C 593.4375 505, 593.4375 515, 596.25 519.45" stroke-width="1.5" stroke="gray" stroke-linecap="round" fill-opacity="0" fill="none" /><path d="M 596.25 480.5 C 593.4375 485, 593.4375 495, 596.25 500 C 593.4375 505, 593.4375 515, 596.25 519.5" stroke-width="0.5" stroke="black" stroke-opacity="0.5" stroke-linecap="round" fill-opacity="0" fill="none" />
<!-- FRONT COMPONENT: cap -->
<circle r="13.75" cx="160" cy="500" fill="white" fill-opacity="1" stroke="black" stroke-width="0.5"  />

<!-- FRONT COMPONENT: tail -->
<circle r="19.375" cx="160" cy="500" fill="white" fill-opacity="1" stroke="black" stroke-width="0.5"  />

<!-- FRONT COMPONENT: indicator -->
<circle r="20" cx="160" cy="500" fill="white" fill-opacity="1" stroke="black" stroke-width="0.5"  />
<circle r="20" cx="160" cy="500" stroke="black" stroke-width="0.5" fill="white" fill-opacity="1"/>
<circle r="21.25" cx="160" cy="500" stroke="black" stroke-width="0.5" fill="white" fill-opacity="1"/>

<!-- FRONT COMPONENT: body -->
<polygon points="148.4529946162075,480 171.5470053837925,480 183.09401076758502,500 171.5470053837925,520 148.4529946162075,520 136.90598923241498,500 " stroke="black" stroke-width="0.5" fill="white" fill-opacity="1"/>

<!-- FRONT COMPONENT: grip -->
<circle r="20" cx="160" cy="500" fill="white" fill-opacity="1" stroke="black" stroke-width="0.5"  />

<!-- FRONT COMPONENT: tip -->
<circle r="18.75" cx="160" cy="500" stroke="black" stroke-width="0.5" fill="white" fill-opacity="1"/>
<circle r="16.875" cx="160" cy="500" stroke="black" stroke-width="0.5" fill="white" fill-opacity="1"/>

<!-- FRONT COMPONENT: jaws -->
<circle r="14.375" cx="160" cy="500" stroke="black" stroke-width="0.5" fill="white" fill-opacity="1"/>
<circle r="7.5" cx="160" cy="500" stroke="black" stroke-width="0.5" fill="white" fill-opacity="1"/>
<circle r="5" cx="160" cy="500" fill="white" fill-opacity="1" stroke="dimgray" stroke-width="0.5"  />
<circle r="7.5" cx="1400" cy="500" stroke="black" stroke-width="0.5" fill="white" fill-opacity="1"/>
<circle r="14.375" cx="1400" cy="500" stroke="black" stroke-width="0.5" fill="white" fill-opacity="1"/>
<circle r="16.875" cx="1400" cy="500" stroke="black" stroke-width="0.5" fill="white" fill-opacity="1"/>
<circle r="18.75" cx="1400" cy="500" stroke="black" stroke-width="0.5" fill="white" fill-opacity="1"/>
<circle r="20" cx="1400" cy="500" fill="white" fill-opacity="1" stroke="black" stroke-width="0.5"  />
<polygon points="1388.4529946162074,480 1411.5470053837926,480 1423.0940107675851,500 1411.5470053837926,520 1388.4529946162074,520 1376.9059892324149,500 " stroke="black" stroke-width="0.5" fill="white" fill-opacity="1"/>
<circle r="21.25" cx="1400" cy="500" stroke="black" stroke-width="0.5" fill="white" fill-opacity="1"/>
<circle r="20" cx="1400" cy="500" stroke="black" stroke-width="0.5" fill="white" fill-opacity="1"/>
<circle r="20" cx="1400" cy="500" fill="white" fill-opacity="1" stroke="black" stroke-width="0.5"  />
<circle r="19.375" cx="1400" cy="500" fill="white" fill-opacity="1" stroke="black" stroke-width="0.5"  />
<circle r="13.75" cx="1400" cy="500" fill="white" fill-opacity="1" stroke="black" stroke-width="0.5"  />
</g><text x="50%" y="780" font-size="1.1em" font-weight="bold" text-anchor="middle" dominant-baseline="middle">Copyright (c) // Synapticloop // The Mechanical Pencil Database (tmpdb) // Licensed under Creative Commons Attribution-NonCommercial-ShareAlike 4.0 International</text>
<text x="1490" y="790" font-size="0.5em" font-weight="bold" text-anchor="end" dominant-baseline="middle">SVGTechnicalRenderer</text>
</svg>