<svg xmlns="http://www.w3.org/2000/svg" width="1500" height="600">
 <pattern id="knurled-large" patternUnits="userSpaceOnUse" width="12" height="12">
<path stroke="dimgray" stroke-linecap="round" stroke-width="1" d="M 6,6 L 12,12"/>
<path stroke="dimgray" stroke-linecap="round" stroke-width="1" d="M 6,6 L 0,12"/>
<path stroke="gray" stroke-linecap="round" stroke-width="1" d="M 6,6 L 12,0" />
<path stroke="gray" stroke-linecap="round" stroke-width="1" d="M 6,6 L 0,0" />
</pattern><pattern id="knurled-small" patternUnits="userSpaceOnUse" width="4" height="4">
<path stroke="dimgray" stroke-linecap="round" stroke-width="1" d="M 2,2 L 4,4"/>
<path stroke="dimgray" stroke-linecap="round" stroke-width="1" d="M 2,2 L 0,4"/>
<path stroke="gray" stroke-linecap="round" stroke-width="1" d="M 2,2 L 4,0" />
<path stroke="gray" stroke-linecap="round" stroke-width="1" d="M 2,2 L 0,0" />
</pattern><pattern id="knurled" patternUnits="userSpaceOnUse" width="8" height="8">
<path stroke="dimgray" stroke-linecap="round" stroke-width="1" d="M 4,4 L 8,8"/>
<path stroke="dimgray" stroke-linecap="round" stroke-width="1" d="M 4,4 L 0,8"/>
<path stroke="gray" stroke-linecap="round" stroke-width="1" d="M 4,4 L 8,0" />
<path stroke="gray" stroke-linecap="round" stroke-width="1" d="M 4,4 L 0,0" />
</pattern><pattern id="lined" patternUnits="userSpaceOnUse" width="3" height="3">
<path stroke="dimgray" stroke-linecap="round" stroke-width="1" d="M 0,0 L 3,0"/>
</pattern><pattern id="ridged" patternUnits="userSpaceOnUse" width="3" height="3">
<path stroke="dimgray" stroke-linecap="round" stroke-width="1" d="M 0,0 L 0,3"/>
</pattern><pattern id="knurled" patternUnits="userSpaceOnUse" width="8" height="8">
<path stroke="dimgray" stroke-linecap="round" stroke-width="1" d="M 4,4 L 8,8"/>
<path stroke="dimgray" stroke-linecap="round" stroke-width="1" d="M 4,4 L 0,8"/>
<path stroke="gray" stroke-linecap="round" stroke-width="1" d="M 4,4 L 8,0" />
<path stroke="gray" stroke-linecap="round" stroke-width="1" d="M 4,4 L 0,0" />
</pattern><rect x="0" y="0" width="1500" height="600" fill="white" stroke="black" stroke-width="4" />
<rect x="2" y="2" width="1496" height="596" fill="white" stroke="dimgray" stroke-width="1" />
<g transform="rotate(0 0 0)">
<line x1="40" y1="300" x2="1460" y2="300" stroke-linecap="round" stroke="#5f5f5f" stroke-dasharray="2" stroke-width="1" />
<line x1="20" y1="300" x2="60" y2="300" stroke-linecap="round" stroke="#000000"  stroke-width="1" />
<line x1="40" y1="280" x2="40" y2="320" stroke="#000000" stroke-linecap="round"  stroke-width="1" />
<circle r="10" cx="40" cy="300" fill="white" fill-opacity="0" stroke="#000000" stroke-width="1"  />
<line x1="1440" y1="300" x2="1480" y2="300" stroke-linecap="round" stroke="#000000"  stroke-width="1" />
<line x1="1460" y1="280" x2="1460" y2="320" stroke="#000000" stroke-linecap="round"  stroke-width="1" />
<circle r="10" cx="1460" cy="300" fill="white" fill-opacity="0" stroke="#000000" stroke-width="1"  />
<line x1="750" y1="90" x2="750" y2="510" stroke="#5f5f5f" stroke-linecap="round" stroke-dasharray="2" stroke-width="1" />
<line x1="730" y1="90" x2="770" y2="90" stroke-linecap="round" stroke="#000000"  stroke-width="1" />
<line x1="750" y1="70" x2="750" y2="110" stroke="#000000" stroke-linecap="round"  stroke-width="1" />
<circle r="10" cx="750" cy="90" fill="white" fill-opacity="0" stroke="#000000" stroke-width="1"  />
<line x1="730" y1="510" x2="770" y2="510" stroke-linecap="round" stroke="#000000"  stroke-width="1" />
<line x1="750" y1="490" x2="750" y2="530" stroke="#000000" stroke-linecap="round"  stroke-width="1" />
<circle r="10" cx="750" cy="510" fill="white" fill-opacity="0" stroke="#000000" stroke-width="1"  />
<line x1="160" y1="150" x2="160" y2="510" stroke="#5f5f5f" stroke-linecap="round" stroke-dasharray="2" stroke-width="1" />
<line x1="140" y1="150" x2="180" y2="150" stroke-linecap="round" stroke="#000000"  stroke-width="1" />
<line x1="160" y1="130" x2="160" y2="170" stroke="#000000" stroke-linecap="round"  stroke-width="1" />
<circle r="10" cx="160" cy="150" fill="white" fill-opacity="0" stroke="#000000" stroke-width="1"  />
<line x1="140" y1="510" x2="180" y2="510" stroke-linecap="round" stroke="#000000"  stroke-width="1" />
<line x1="160" y1="490" x2="160" y2="530" stroke="#000000" stroke-linecap="round"  stroke-width="1" />
<circle r="10" cx="160" cy="510" fill="white" fill-opacity="0" stroke="#000000" stroke-width="1"  />
<line x1="1400" y1="150" x2="1400" y2="510" stroke="#5f5f5f" stroke-linecap="round" stroke-dasharray="2" stroke-width="1" />
<line x1="1380" y1="150" x2="1420" y2="150" stroke-linecap="round" stroke="#000000"  stroke-width="1" />
<line x1="1400" y1="130" x2="1400" y2="170" stroke="#000000" stroke-linecap="round"  stroke-width="1" />
<circle r="10" cx="1400" cy="150" fill="white" fill-opacity="0" stroke="#000000" stroke-width="1"  />
<line x1="1380" y1="510" x2="1420" y2="510" stroke-linecap="round" stroke="#000000"  stroke-width="1" />
<line x1="1400" y1="490" x2="1400" y2="530" stroke="#000000" stroke-linecap="round"  stroke-width="1" />
<circle r="10" cx="1400" cy="510" fill="white" fill-opacity="0" stroke="#000000" stroke-width="1"  />
<text x="30" y="50" font-size="2.0em" font-weight="bold"> Alvin // "TECH DA" (Model #: 3308)</text>
<text x="30" y="80" font-size="1.1em"> [LOGO|Alvin] "TECH DA" ITALY</text>
<text x="30" y="100" font-size="1.1em"> Lead size: 2.0 mm</text>
<text x="1480" y="30" font-size="1.6em" font-weight="bold" text-anchor="end" dominant-baseline="central">Colour variants of the cap</text>
<rect x="1440" y="55" width="40" rx="50%" ry="50%" height="40" stroke="black" stroke-width="2" fill="#CC2318" fill-opacity="1"/>
<text x="1460" y="100" transform="rotate(-90, 1460, 100)" font-size="1.2em" font-weight="bold" text-anchor="end" dominant-baseline="central">red</text>
<rect x="1380" y="55" width="40" rx="50%" ry="50%" height="40" stroke="black" stroke-width="2" fill="#1d2e28" fill-opacity="1"/>
<text x="1400" y="100" transform="rotate(-90, 1400, 100)" font-size="1.2em" font-weight="bold" text-anchor="end" dominant-baseline="central">green</text>
<text x="30" y="136" font-size="1.2em" font-weight="bold" text-anchor="start" dominant-baseline="central">Materials:</text>
<text x="50" y="156" font-size="1.2em" text-anchor="start" dominant-baseline="central"> - metal</text>
<line x1="100" y1="260" x2="1400" y2="260" stroke-linecap="round" stroke="#cfcfcf"  stroke-width="1" />
<line x1="160" y1="278.75" x2="1400" y2="278.75" stroke-linecap="round" stroke="#cfcfcf"  stroke-width="1" />
<line x1="148.75" y1="230" x2="148.75" y2="300" stroke="#cfcfcf" stroke-linecap="round"  stroke-width="1" />
<line x1="171.25" y1="230" x2="171.25" y2="300" stroke="#cfcfcf" stroke-linecap="round"  stroke-width="1" />
<line x1="160" y1="278.75" x2="1400" y2="278.75" stroke-linecap="round" stroke="#cfcfcf"  stroke-width="1" />
<line x1="100" y1="321.25" x2="1400" y2="321.25" stroke-linecap="round" stroke="#cfcfcf"  stroke-width="1" />
<line x1="136.90598923241498" y1="300" x2="136.90598923241498" y2="341.25" stroke="#cfcfcf" stroke-linecap="round"  stroke-width="1" />
<line x1="183.09401076758502" y1="300" x2="183.09401076758502" y2="341.25" stroke="#cfcfcf" stroke-linecap="round"  stroke-width="1" />
<line x1="377.5" y1="180" x2="377.5" y2="420" stroke="#cfcfcf" stroke-linecap="round"  stroke-width="1" />
<line x1="397.5" y1="180" x2="397.5" y2="420" stroke="#cfcfcf" stroke-linecap="round"  stroke-width="1" />
<line x1="470" y1="180" x2="470" y2="420" stroke="#cfcfcf" stroke-linecap="round"  stroke-width="1" />
<line x1="623.75" y1="180" x2="623.75" y2="420" stroke="#cfcfcf" stroke-linecap="round"  stroke-width="1" />
<line x1="1073.75" y1="180" x2="1073.75" y2="420" stroke="#cfcfcf" stroke-linecap="round"  stroke-width="1" />
<line x1="876.25" y1="220" x2="876.25" y2="380" stroke="#cfcfcf" stroke-linecap="round"  stroke-width="1" />
<line x1="1073.75" y1="220" x2="1073.75" y2="380" stroke="#cfcfcf" stroke-linecap="round"  stroke-width="1" />
<line x1="1077.5" y1="180" x2="1077.5" y2="420" stroke="#cfcfcf" stroke-linecap="round"  stroke-width="1" />
<line x1="1082.5" y1="180" x2="1082.5" y2="420" stroke="#cfcfcf" stroke-linecap="round"  stroke-width="1" />
<line x1="1122.5" y1="190.75" x2="1122.5" y2="398.75" stroke="#cfcfcf" stroke-linecap="round"  stroke-width="1" />
<text x="160" y="540" font-size="1.8em" font-weight="bold" text-anchor="middle" dominant-baseline="central">Front</text>
<text x="750" y="540" font-size="1.8em" font-weight="bold" text-anchor="middle" dominant-baseline="central">Side view</text>
<text x="1400" y="540" font-size="1.8em" font-weight="bold" text-anchor="middle" dominant-baseline="central">Back</text>
<line x1="148.75" y1="229" x2="148.75" y2="251" stroke="black" stroke-width="1" />
<line x1="148.75" y1="240" x2="171.25" y2="240" stroke="black" stroke-width="1" />
<line x1="171.25" y1="229" x2="171.25" y2="251" stroke="black" stroke-width="1" />
<text x="160" y="221" font-size="1.2em" font-weight="bold" text-anchor="middle" dominant-baseline="central" fill="black"><tspan x="160" dy="0">4.50 mm</tspan></text>
<line x1="211" y1="260" x2="233" y2="260" stroke="black" stroke-width="1" />
<line x1="222" y1="260" x2="222" y2="278.75" stroke="black" stroke-width="1" />
<line x1="211" y1="278.75" x2="233" y2="278.75" stroke="black" stroke-width="1" />
<text x="235" y="269.375" font-size="1.2em" font-weight="bold" text-anchor="start" dominant-baseline="central" fill="black">3.75 mm</text>
<line x1="199" y1="278.75" x2="221" y2="278.75" stroke="black" stroke-width="1" />
<line x1="210" y1="278.75" x2="210" y2="321.25" stroke="black" stroke-width="1" />
<line x1="199" y1="321.25" x2="221" y2="321.25" stroke="black" stroke-width="1" />
<text x="223" y="300" font-size="1.2em" font-weight="bold" text-anchor="start" dominant-baseline="central" fill="black">8.50 mm</text>
<line x1="99" y1="260" x2="121" y2="260" stroke="black" stroke-width="1" />
<line x1="110" y1="260" x2="110" y2="321.25" stroke="black" stroke-width="1" />
<line x1="99" y1="321.25" x2="121" y2="321.25" stroke="black" stroke-width="1" />
<text x="91" y="290.625" transform="rotate(-90, 91, 290.625)" font-size="1.2em" font-weight="bold" text-anchor="middle" dominant-baseline="central" fill="black">12.25 mm</text>
<line x1="136.90598923241498" y1="340.25" x2="136.90598923241498" y2="362.25" stroke="black" stroke-width="1" />
<line x1="136.90598923241498" y1="351.25" x2="183.09401076758505" y2="351.25" stroke="black" stroke-width="1" />
<line x1="183.09401076758505" y1="340.25" x2="183.09401076758505" y2="362.25" stroke="black" stroke-width="1" />
<text x="160" y="370.25" font-size="1.2em" font-weight="bold" text-anchor="middle" dominant-baseline="central" fill="black"><tspan x="160" dy="0">9.24 mm</tspan></text>
<line x1="377.5" y1="169" x2="377.5" y2="191" stroke="black" stroke-width="1" />
<line x1="377.5" y1="180" x2="397.5" y2="180" stroke="black" stroke-width="1" />
<line x1="397.5" y1="169" x2="397.5" y2="191" stroke="black" stroke-width="1" />
<text x="387.5" y="161" font-size="1.2em" transform="rotate(-90, 387.5, 161)" font-weight="bold" text-anchor="start" dominant-baseline="central" fill="black"><tspan x="387.5" dy="0">4.00 mm jaws</tspan></text>
<line x1="397.5" y1="169" x2="397.5" y2="191" stroke="black" stroke-width="1" />
<line x1="397.5" y1="180" x2="470" y2="180" stroke="black" stroke-width="1" />
<line x1="470" y1="169" x2="470" y2="191" stroke="black" stroke-width="1" />
<text x="433.75" y="161" font-size="1.2em" transform="rotate(-90, 421.75, 161)" font-weight="bold" text-anchor="start" dominant-baseline="central" fill="black"><tspan x="425.75" dy="0">14.50 mm</tspan><tspan x="425.75" dy="1em">tip</tspan></text>
<line x1="470" y1="169" x2="470" y2="191" stroke="black" stroke-width="1" />
<line x1="470" y1="180" x2="623.75" y2="180" stroke="black" stroke-width="1" />
<line x1="623.75" y1="169" x2="623.75" y2="191" stroke="black" stroke-width="1" />
<text x="546.875" y="161" font-size="1.2em" transform="rotate(-90, 534.875, 161)" font-weight="bold" text-anchor="start" dominant-baseline="central" fill="black"><tspan x="538.875" dy="0">30.75 mm</tspan><tspan x="538.875" dy="1em">grip</tspan></text>
<line x1="623.75" y1="169" x2="623.75" y2="191" stroke="black" stroke-width="1" />
<line x1="623.75" y1="180" x2="1073.75" y2="180" stroke="black" stroke-width="1" />
<line x1="1073.75" y1="169" x2="1073.75" y2="191" stroke="black" stroke-width="1" />
<text x="848.75" y="161" font-size="1.2em" transform="rotate(-90, 836.75, 161)" font-weight="bold" text-anchor="start" dominant-baseline="central" fill="black"><tspan x="840.75" dy="0">90.00 mm</tspan><tspan x="840.75" dy="1em">body</tspan></text>
<line x1="1073.75" y1="169" x2="1073.75" y2="191" stroke="black" stroke-width="1" />
<line x1="1073.75" y1="180" x2="1077.5" y2="180" stroke="black" stroke-width="1" />
<line x1="1077.5" y1="169" x2="1077.5" y2="191" stroke="black" stroke-width="1" />
<text x="1075.625" y="161" font-size="1.2em" transform="rotate(-90, 1075.625, 161)" font-weight="bold" text-anchor="start" dominant-baseline="central" fill="black"><tspan x="1075.625" dy="0">0.75 mm clip</tspan></text>
<line x1="876.25" y1="209" x2="876.25" y2="231" stroke="black" stroke-width="1" />
<line x1="876.25" y1="220" x2="1073.75" y2="220" stroke="black" stroke-width="1" />
<line x1="1073.75" y1="209" x2="1073.75" y2="231" stroke="black" stroke-width="1" />
<text x="975" y="212" font-weight="bold" font-size="1.2em" stroke="white" stroke-width="0.25" text-anchor="middle" dominant-baseline="middle" fill="black"><tspan x="967" dy="0">39.50 mm</tspan><tspan x="967" dy="1em">clip (extra)</tspan></text>
<line x1="1077.5" y1="169" x2="1077.5" y2="191" stroke="black" stroke-width="1" />
<line x1="1077.5" y1="180" x2="1082.5" y2="180" stroke="black" stroke-width="1" />
<line x1="1082.5" y1="169" x2="1082.5" y2="191" stroke="black" stroke-width="1" />
<text x="1080" y="161" font-size="1.2em" transform="rotate(-90, 1080, 161)" font-weight="bold" text-anchor="start" dominant-baseline="central" fill="black"><tspan x="1080" dy="0">1.00 mm tail</tspan></text>
<line x1="1082.5" y1="169" x2="1082.5" y2="191" stroke="black" stroke-width="1" />
<line x1="1082.5" y1="180" x2="1122.5" y2="180" stroke="black" stroke-width="1" />
<line x1="1122.5" y1="169" x2="1122.5" y2="191" stroke="black" stroke-width="1" />
<text x="1102.5" y="161" font-size="1.2em" transform="rotate(-90, 1090.5, 161)" font-weight="bold" text-anchor="start" dominant-baseline="central" fill="black"><tspan x="1094.5" dy="0">8.00 mm</tspan><tspan x="1094.5" dy="1em">cap</tspan></text>
<line x1="1299" y1="280" x2="1321" y2="280" stroke="black" stroke-width="1" />
<line x1="1310" y1="280" x2="1310" y2="320" stroke="black" stroke-width="1" />
<line x1="1299" y1="320" x2="1321" y2="320" stroke="black" stroke-width="1" />
<text x="1291" y="300" transform="rotate(-90, 1291, 300)" font-size="1.2em" font-weight="bold" text-anchor="middle" dominant-baseline="central" fill="black">8 mm</text>
<line x1="1299" y1="280" x2="1321" y2="280" stroke="black" stroke-width="1" />
<line x1="1310" y1="280" x2="1310" y2="320" stroke="black" stroke-width="1" />
<line x1="1299" y1="320" x2="1321" y2="320" stroke="black" stroke-width="1" />
<text x="1310" y="328" transform="rotate(-90, 1310, 328)" font-weight="bold" font-size="1.2em" text-anchor="end" dominant-baseline="middle" fill="black">grip</text>
<line x1="1339" y1="279.375" x2="1361" y2="279.375" stroke="black" stroke-width="1" />
<line x1="1350" y1="279.375" x2="1350" y2="320.625" stroke="black" stroke-width="1" />
<line x1="1339" y1="320.625" x2="1361" y2="320.625" stroke="black" stroke-width="1" />
<text x="1331" y="300" transform="rotate(-90, 1331, 300)" font-size="1.2em" font-weight="bold" text-anchor="middle" dominant-baseline="central" fill="black">8.25 mm</text>
<line x1="1339" y1="279.375" x2="1361" y2="279.375" stroke="black" stroke-width="1" />
<line x1="1350" y1="279.375" x2="1350" y2="320.625" stroke="black" stroke-width="1" />
<line x1="1339" y1="320.625" x2="1361" y2="320.625" stroke="black" stroke-width="1" />
<text x="1350" y="328.625" transform="rotate(-90, 1350, 328.625)" font-weight="bold" font-size="1.2em" text-anchor="end" dominant-baseline="middle" fill="black">body</text>
<line x1="377.5" y1="340.25" x2="377.5" y2="362.25" stroke="black" stroke-width="1" />
<line x1="377.5" y1="351.25" x2="1122.5" y2="351.25" stroke="black" stroke-width="1" />
<line x1="1122.5" y1="340.25" x2="1122.5" y2="362.25" stroke="black" stroke-width="1" />
<text x="750" y="351.25" font-weight="bold" font-size="1.2em" stroke="white" stroke-width="0.25" text-anchor="middle" dominant-baseline="middle" fill="black"><tspan x="750" dy="0">149.00 mm</tspan></text>
<line x1="377.5" y1="409" x2="377.5" y2="431" stroke="black" stroke-width="1" />
<line x1="377.5" y1="420" x2="397.5" y2="420" stroke="black" stroke-width="1" />
<line x1="397.5" y1="409" x2="397.5" y2="431" stroke="black" stroke-width="1" />
<text x="387.5" y="439" font-size="1.2em" transform="rotate(-90, 387.5, 439)"  text-anchor="end" dominant-baseline="middle" fill="black"><tspan x="387.5" dy="0">metal</tspan></text>
<line x1="397.5" y1="409" x2="397.5" y2="431" stroke="black" stroke-width="1" />
<line x1="397.5" y1="420" x2="470" y2="420" stroke="black" stroke-width="1" />
<line x1="470" y1="409" x2="470" y2="431" stroke="black" stroke-width="1" />
<text x="433.75" y="439" font-size="1.2em" transform="rotate(-90, 433.75, 439)"  text-anchor="end" dominant-baseline="middle" fill="black"><tspan x="433.75" dy="0">metal</tspan></text>
<line x1="470" y1="409" x2="470" y2="431" stroke="black" stroke-width="1" />
<line x1="470" y1="420" x2="623.75" y2="420" stroke="black" stroke-width="1" />
<line x1="623.75" y1="409" x2="623.75" y2="431" stroke="black" stroke-width="1" />
<text x="546.875" y="439" font-size="1.2em" transform="rotate(-90, 546.875, 439)"  text-anchor="end" dominant-baseline="middle" fill="black"><tspan x="546.875" dy="0">metal</tspan></text>
<line x1="623.75" y1="409" x2="623.75" y2="431" stroke="black" stroke-width="1" />
<line x1="623.75" y1="420" x2="1073.75" y2="420" stroke="black" stroke-width="1" />
<line x1="1073.75" y1="409" x2="1073.75" y2="431" stroke="black" stroke-width="1" />
<text x="848.75" y="439" font-size="1.2em" transform="rotate(-90, 848.75, 439)"  text-anchor="end" dominant-baseline="middle" fill="black"><tspan x="848.75" dy="0">metal</tspan></text>
<line x1="876.25" y1="369" x2="876.25" y2="391" stroke="black" stroke-width="1" />
<line x1="876.25" y1="380" x2="1073.75" y2="380" stroke="black" stroke-width="1" />
<line x1="1073.75" y1="369" x2="1073.75" y2="391" stroke="black" stroke-width="1" />
<text x="975" y="399" font-size="1.2em"  text-anchor="middle" dominant-baseline="central" fill="black"><tspan x="975" dy="0">metal</tspan></text>
<line x1="1073.75" y1="409" x2="1073.75" y2="431" stroke="black" stroke-width="1" />
<line x1="1073.75" y1="420" x2="1077.5" y2="420" stroke="black" stroke-width="1" />
<line x1="1077.5" y1="409" x2="1077.5" y2="431" stroke="black" stroke-width="1" />
<text x="1075.625" y="439" font-size="1.2em" transform="rotate(-90, 1075.625, 439)"  text-anchor="end" dominant-baseline="middle" fill="black"><tspan x="1075.625" dy="0">metal</tspan></text>
<line x1="1077.5" y1="409" x2="1077.5" y2="431" stroke="black" stroke-width="1" />
<line x1="1077.5" y1="420" x2="1082.5" y2="420" stroke="black" stroke-width="1" />
<line x1="1082.5" y1="409" x2="1082.5" y2="431" stroke="black" stroke-width="1" />
<text x="1080" y="439" font-size="1.2em" transform="rotate(-90, 1080, 439)"  text-anchor="end" dominant-baseline="middle" fill="black"><tspan x="1080" dy="0">metal</tspan></text>
<line x1="1082.5" y1="409" x2="1082.5" y2="431" stroke="black" stroke-width="1" />
<line x1="1082.5" y1="420" x2="1122.5" y2="420" stroke="black" stroke-width="1" />
<line x1="1122.5" y1="409" x2="1122.5" y2="431" stroke="black" stroke-width="1" />
<text x="1102.5" y="439" font-size="1.2em" transform="rotate(-90, 1102.5, 439)"  text-anchor="end" dominant-baseline="middle" fill="black"><tspan x="1102.5" dy="0">metal</tspan></text>


<!-- renderSideComponent: jaws -->


<!-- renderPart: cone -->
<path d="M377.45 292.5 L395.05 285.625 L395.05 314.375 L377.45 307.5 Z" stroke-width="0" stroke="none" stroke-linejoin="round" fill="white" fill-opacity="1"/>
<path d="M377.5 292.5 L395 285.625 M395 314.375 L377.5 307.5" stroke-width="0.5" stroke="black" stroke-linejoin="round" fill="white" fill-opacity="1"/>
<!-- !left !both--><path d="M377.5 292.5 L377.5 307.5" stroke-width="0.5" stroke="black" stroke-linejoin="round" fill="white" fill-opacity="1"/>
<!-- !right !both --><path d="M395 285.625 L395 314.375" stroke-width="0.5" stroke="black" stroke-linejoin="round" fill="white" fill-opacity="1"/>


<!-- renderPart: cylinder -->
<path d="M394.95 285.625 L397.55 285.625 L397.55 314.375 L394.95 314.375 Z" stroke-width="0" stroke="none" stroke-linejoin="round" fill="white" fill-opacity="1"/>
<path d="M395 285.625 L397.5 285.625 M397.5 314.375 L395 314.375" stroke-width="0.5" stroke="black" stroke-linejoin="round" fill="white" fill-opacity="1"/>
<!-- !left !both--><path d="M395 285.625 L395 314.375" stroke-width="0.5" stroke="black" stroke-linejoin="round" fill="white" fill-opacity="1"/>
<!-- !right !both --><path d="M397.5 285.625 L397.5 314.375" stroke-width="0.5" stroke="black" stroke-linejoin="round" fill="white" fill-opacity="1"/>


<!-- renderSideComponent: tip -->


<!-- renderPart: cone -->
<path d="M397.45 283.125 L470.05 281.25 L470.05 318.75 L397.45 316.875 Z" stroke-width="0" stroke="none" stroke-linejoin="round" fill="white" fill-opacity="1"/>
<path d="M397.5 283.125 L470 281.25 M470 318.75 L397.5 316.875" stroke-width="0.5" stroke="black" stroke-linejoin="round" fill="white" fill-opacity="1"/>
<!-- !left !both--><path d="M397.5 283.125 L397.5 316.875" stroke-width="0.5" stroke="black" stroke-linejoin="round" fill="white" fill-opacity="1"/>
<!-- !right !both --><path d="M470 281.25 L470 318.75" stroke-width="0.5" stroke="black" stroke-linejoin="round" fill="white" fill-opacity="1"/>


<!-- renderSideComponent: grip -->


<!-- renderPart: cylinder -->
<path d="M469.95 280 L623.8 280 L623.8 320 L469.95 320 Z" stroke-width="0" stroke="none" stroke-linejoin="round" fill="white" fill-opacity="1"/>
<path d="M470 280 L623.75 280 M623.75 320 L470 320" stroke-width="0.5" stroke="black" stroke-linejoin="round" fill="white" fill-opacity="1"/>
<!-- !left !both--><path d="M470 280 L470 320" stroke-width="0.5" stroke="black" stroke-linejoin="round" fill="white" fill-opacity="1"/>
<!-- !right !both --><path d="M623.75 280 L623.75 320" stroke-width="0.5" stroke="black" stroke-linejoin="round" fill="white" fill-opacity="1"/>
<path d="M470 280 L623.75 280 L623.75 320 L470 320 Z" stroke-width="1.0" stroke="black" fill="url(#knurled-small)"/>


<!-- renderSideComponent: body -->


<!-- renderPart: hexagonal -->
<path d="M623.7 280 L1073.8 279.375 L1073.8 320.625 L623.7 320 Z" stroke-width="0" stroke="none" stroke-linejoin="round" fill="white" fill-opacity="1"/>
<path d="M623.75 280 L1073.75 279.375 M1073.75 320.625 L623.75 320" stroke-width="0.5" stroke="black" stroke-linejoin="round" fill="white" fill-opacity="1"/>
<!-- !left !both--><path d="M623.75 280 L623.75 320" stroke-width="0.5" stroke="black" stroke-linejoin="round" fill="white" fill-opacity="1"/>
<!-- !right !both --><path d="M1073.75 279.375 L1073.75 320.625" stroke-width="0.5" stroke="black" stroke-linejoin="round" fill="white" fill-opacity="1"/>
<line x1="623.75" y1="300" x2="1073.75" y2="300" stroke-width="1.5" stroke="gray" fill="gray" stroke-opacity="1.0"/>
<line x1="623.75" y1="300" x2="1073.75" y2="300" stroke-width="0.5" stroke="black" fill="none" stroke-opacity="0.5"/>


<!-- renderSideComponent: clip -->
<line x1="876.25" y1="272.25" x2="896.25" y2="277.25" stroke-width="4" stroke="black" fill="dimgray" stroke-linecap="round" />
<line x1="896.25" y1="277.25" x2="1017.5" y2="258.5" stroke-width="4" stroke="black" fill="dimgray" stroke-linecap="round" />
<line x1="1018" y1="258.5" x2="1075.5" y2="262.25" stroke-width="4" stroke="black" fill="dimgray" stroke-linecap="round" />
<line x1="1075.5" y1="262.25" x2="1075.5" y2="279.75" stroke-width="4" stroke="black" fill="dimgray" stroke-linecap="round" />


<!-- renderPart: cylinder -->
<path d="M1073.7 278.75 L1077.55 278.75 L1077.55 321.25 L1073.7 321.25 Z" stroke-width="0" stroke="none" stroke-linejoin="round" fill="white" fill-opacity="1"/>
<path d="M1073.75 278.75 L1077.5 278.75 M1077.5 321.25 L1073.75 321.25" stroke-width="0.5" stroke="black" stroke-linejoin="round" fill="white" fill-opacity="1"/>
<!-- !left !both--><path d="M1073.75 278.75 L1073.75 321.25" stroke-width="0.5" stroke="black" stroke-linejoin="round" fill="white" fill-opacity="1"/>
<!-- !right !both --><path d="M1077.5 278.75 L1077.5 321.25" stroke-width="0.5" stroke="black" stroke-linejoin="round" fill="white" fill-opacity="1"/>
<line x1="876.25" y1="272.25" x2="896.25" y2="277.25" stroke-width="3" stroke="white" fill="white" stroke-linecap="round" />
<line x1="896.25" y1="277.25" x2="1017.5" y2="258.5" stroke-width="3" stroke="white" fill="white" stroke-linecap="round" />
<line x1="1018" y1="258.5" x2="1075.5" y2="262.25" stroke-width="3" stroke="white" fill="white" stroke-linecap="round" />
<line x1="1075.5" y1="262.25" x2="1075.5" y2="279.75" stroke-width="3" stroke="white" fill="white" stroke-linecap="round" />


<!-- renderSideComponent: tail -->


<!-- renderPart: cylinder -->
<path d="M1077.45 279.375 L1082.55 279.375 L1082.55 320.625 L1077.45 320.625 Z" stroke-width="0" stroke="none" stroke-linejoin="round" fill="white" fill-opacity="1"/>
<path d="M1077.5 279.375 L1082.5 279.375 M1082.5 320.625 L1077.5 320.625" stroke-width="0.5" stroke="black" stroke-linejoin="round" fill="white" fill-opacity="1"/>
<!-- !left !both--><path d="M1077.5 279.375 L1077.5 320.625" stroke-width="0.5" stroke="black" stroke-linejoin="round" fill="white" fill-opacity="1"/>
<!-- !right !both --><path d="M1082.5 279.375 L1082.5 320.625" stroke-width="0.5" stroke="black" stroke-linejoin="round" fill="white" fill-opacity="1"/>


<!-- renderSideComponent: cap -->


<!-- renderPart: cylinder -->
<path d="M1082.45 286.25 L1122.55 286.25 L1122.55 313.75 L1082.45 313.75 Z" stroke-width="0" stroke="none" stroke-linejoin="round" fill="white" fill-opacity="1"/>
<path d="M1082.5 286.25 L1122.5 286.25 M1122.5 313.75 L1082.5 313.75" stroke-width="0.5" stroke="black" stroke-linejoin="round" fill="white" fill-opacity="1"/>
<!-- !left !both--><path d="M1082.5 286.25 L1082.5 313.75" stroke-width="0.5" stroke="black" stroke-linejoin="round" fill="white" fill-opacity="1"/>
<!-- !right !both --><path d="M1122.5 286.25 L1122.5 313.75" stroke-width="0.5" stroke="black" stroke-linejoin="round" fill="white" fill-opacity="1"/>

<!-- FRONT COMPONENT: cap -->
<circle r="13.75" cx="160" cy="300" fill="white" fill-opacity="1" stroke="black" stroke-width="0.5"  />

<!-- FRONT COMPONENT: tail -->
<circle r="20.625" cx="160" cy="300" fill="white" fill-opacity="1" stroke="black" stroke-width="0.5"  />

<!-- FRONT COMPONENT: clip -->
<circle r="21.25" cx="160" cy="300" fill="white" fill-opacity="1" stroke="black" stroke-width="0.5"  />
<!-- WxH 4.5 3.5 --><rect x="148.75" y="261.25" width="22.5" height="17.5" rx="0" ry="0" stroke-width="1.0" stroke="dimgray" fill="white"/>
<rect x="148.75" y="261.25" width="22.5" height="17.5" rx="0" ry="0" stroke-width="1.0" stroke="dimgray" fill="none"/>
<!-- WxH 4.5 0.75 --><rect x="148.75" y="275" width="22.5" height="3.75" rx="0" ry="0" stroke-width="1.0" stroke="dimgray" fill="white"/>
<rect x="148.75" y="275" width="22.5" height="3.75" rx="0" ry="0" stroke-width="1.0" stroke="dimgray" fill="none"/>
<!-- WxH 4.5 3.75 --><rect x="148.75" y="260" width="22.5" height="18.75" rx="0" ry="0" stroke-width="1.0" stroke="dimgray" fill="white"/>
<rect x="148.75" y="260" width="22.5" height="18.75" rx="0" ry="0" stroke-width="1.0" stroke="dimgray" fill="none"/>
<!-- WxH 4.5 1 --><rect x="148.75" y="273.75" width="22.5" height="5" rx="0" ry="0" stroke-width="1.0" stroke="dimgray" fill="white"/>
<rect x="148.75" y="273.75" width="22.5" height="5" rx="0" ry="0" stroke-width="1.0" stroke="dimgray" fill="none"/>

<!-- FRONT COMPONENT: body -->
<polygon points="148.4529946162075,280 171.5470053837925,280 183.09401076758502,300 171.5470053837925,320 148.4529946162075,320 136.90598923241498,300 " stroke="black" stroke-width="0.5" fill="white" fill-opacity="1"/>

<!-- FRONT COMPONENT: grip -->
<circle r="20" cx="160" cy="300" fill="white" fill-opacity="1" stroke="black" stroke-width="0.5"  />

<!-- FRONT COMPONENT: tip -->
<circle r="16.875" cx="160" cy="300" stroke="black" stroke-width="0.5" fill="white" fill-opacity="1"/>
<circle r="18.75" cx="160" cy="300" stroke="black" stroke-width="0.5" fill="white" fill-opacity="1"/>

<!-- FRONT COMPONENT: jaws -->
<circle r="14.375" cx="160" cy="300" fill="white" fill-opacity="1" stroke="black" stroke-width="0.5"  />
<circle r="7.5" cx="160" cy="300" stroke="black" stroke-width="0.5" fill="white" fill-opacity="1"/>
<circle r="14.375" cx="160" cy="300" stroke="black" stroke-width="0.5" fill="white" fill-opacity="1"/>
<circle r="5" cx="160" cy="300" fill="white" fill-opacity="1" stroke="dimgray" stroke-width="0.5"  />
<circle r="7.5" cx="1400" cy="300" stroke="black" stroke-width="0.5" fill="white" fill-opacity="1"/>
<circle r="14.375" cx="1400" cy="300" stroke="black" stroke-width="0.5" fill="white" fill-opacity="1"/>
<circle r="14.375" cx="1400" cy="300" fill="white" fill-opacity="1" stroke="black" stroke-width="0.5"  />
<circle r="16.875" cx="1400" cy="300" stroke="black" stroke-width="0.5" fill="white" fill-opacity="1"/>
<circle r="18.75" cx="1400" cy="300" stroke="black" stroke-width="0.5" fill="white" fill-opacity="1"/>
<circle r="20" cx="1400" cy="300" fill="white" fill-opacity="1" stroke="black" stroke-width="0.5"  />
<polygon points="1388.4529946162074,280 1411.5470053837926,280 1423.0940107675851,300 1411.5470053837926,320 1388.4529946162074,320 1376.9059892324149,300 " stroke="black" stroke-width="0.5" fill="white" fill-opacity="1"/>
<circle r="21.25" cx="1400" cy="300" fill="white" fill-opacity="1" stroke="black" stroke-width="0.5"  />
<!-- WxH 4.5 1 --><rect x="1388.75" y="273.75" width="22.5" height="5" rx="0" ry="0" stroke-width="1.0" stroke="dimgray" fill="white"/>
<rect x="1388.75" y="273.75" width="22.5" height="5" rx="0" ry="0" stroke-width="1.0" stroke="dimgray" fill="none"/>
<!-- WxH 4.5 3.75 --><rect x="1388.75" y="260" width="22.5" height="18.75" rx="0" ry="0" stroke-width="1.0" stroke="dimgray" fill="white"/>
<rect x="1388.75" y="260" width="22.5" height="18.75" rx="0" ry="0" stroke-width="1.0" stroke="dimgray" fill="none"/>
<!-- WxH 4.5 0.75 --><rect x="1388.75" y="275" width="22.5" height="3.75" rx="0" ry="0" stroke-width="1.0" stroke="dimgray" fill="white"/>
<rect x="1388.75" y="275" width="22.5" height="3.75" rx="0" ry="0" stroke-width="1.0" stroke="dimgray" fill="none"/>
<!-- WxH 4.5 3.5 --><rect x="1388.75" y="261.25" width="22.5" height="17.5" rx="0" ry="0" stroke-width="1.0" stroke="dimgray" fill="white"/>
<rect x="1388.75" y="261.25" width="22.5" height="17.5" rx="0" ry="0" stroke-width="1.0" stroke="dimgray" fill="none"/>
<circle r="20.625" cx="1400" cy="300" fill="white" fill-opacity="1" stroke="black" stroke-width="0.5"  />
<circle r="13.75" cx="1400" cy="300" fill="white" fill-opacity="1" stroke="black" stroke-width="0.5"  />
</g><text x="50%" y="580" font-size="1.1em" font-weight="bold" text-anchor="middle" dominant-baseline="middle">Copyright (c) // Synapticloop and The Mechanical Pencil Database (tmpdb) // Licensed under Creative Commons Attribution-NonCommercial-ShareAlike 4.0 International</text>
<text x="1490" y="590" font-size="0.5em" font-weight="bold" text-anchor="end" dominant-baseline="middle">SVGTechnicalRenderer</text>
</svg>