<svg xmlns="http://www.w3.org/2000/svg" width="1200" height="720">
 <pattern id="knurled-large" patternUnits="userSpaceOnUse" width="12" height="12">
<path stroke="dimgray" stroke-linecap="round" stroke-width="1" d="M 6,6 L 12,12"/>
<path stroke="dimgray" stroke-linecap="round" stroke-width="1" d="M 6,6 L 0,12"/>
<path stroke="gray" stroke-linecap="round" stroke-width="1" d="M 6,6 L 12,0" />
<path stroke="gray" stroke-linecap="round" stroke-width="1" d="M 6,6 L 0,0" />
</pattern><pattern id="knurled-small" patternUnits="userSpaceOnUse" width="4" height="4">
<path stroke="dimgray" stroke-linecap="round" stroke-width="1" d="M 2,2 L 4,4"/>
<path stroke="dimgray" stroke-linecap="round" stroke-width="1" d="M 2,2 L 0,4"/>
<path stroke="gray" stroke-linecap="round" stroke-width="1" d="M 2,2 L 4,0" />
<path stroke="gray" stroke-linecap="round" stroke-width="1" d="M 2,2 L 0,0" />
</pattern><pattern id="knurled" patternUnits="userSpaceOnUse" width="8" height="8">
<path stroke="dimgray" stroke-linecap="round" stroke-width="1" d="M 4,4 L 8,8"/>
<path stroke="dimgray" stroke-linecap="round" stroke-width="1" d="M 4,4 L 0,8"/>
<path stroke="gray" stroke-linecap="round" stroke-width="1" d="M 4,4 L 8,0" />
<path stroke="gray" stroke-linecap="round" stroke-width="1" d="M 4,4 L 0,0" />
</pattern><pattern id="lined" patternUnits="userSpaceOnUse" width="3" height="3">
<path stroke="dimgray" stroke-linecap="round" stroke-width="1" d="M 0,0 L 3,0"/>
</pattern><pattern id="ridged" patternUnits="userSpaceOnUse" width="3" height="3">
<path stroke="dimgray" stroke-linecap="round" stroke-width="1" d="M 0,0 L 0,3"/>
</pattern><pattern id="knurled" patternUnits="userSpaceOnUse" width="8" height="8">
<path stroke="dimgray" stroke-linecap="round" stroke-width="1" d="M 4,4 L 8,8"/>
<path stroke="dimgray" stroke-linecap="round" stroke-width="1" d="M 4,4 L 0,8"/>
<path stroke="gray" stroke-linecap="round" stroke-width="1" d="M 4,4 L 8,0" />
<path stroke="gray" stroke-linecap="round" stroke-width="1" d="M 4,4 L 0,0" />
</pattern><rect x="0" y="0" width="1200" height="720" fill="white" stroke="black" stroke-width="4" />
<rect x="2" y="2" width="1196" height="716" fill="white" stroke="dimgray" stroke-width="1" />
<g transform="rotate(0 0 0)">
<text x="30" y="50" font-size="2.0em" font-weight="bold"> Alvin // "TECH DA" (Model #: "TECH DA")</text>


<!-- renderExplodedSideComponents -->


<!-- renderSideComponent: jaws -->


<!-- renderPart: cone -->
<path d="M227.45 112.5 L245.05 105.625 L245.05 134.375 L227.45 127.5 Z" stroke-width="0" stroke="none" stroke-linejoin="round" fill="white" fill-opacity="1"/>
<path d="M227.5 112.5 L245 105.625 M245 134.375 L227.5 127.5" stroke-width="0.5" stroke="black" stroke-linejoin="round" fill="white" fill-opacity="1"/>
<!-- !left !both--><path d="M227.5 112.5 L227.5 127.5" stroke-width="0.5" stroke="black" stroke-linejoin="round" fill="white" fill-opacity="1"/>
<!-- !right !both --><path d="M245 105.625 L245 134.375" stroke-width="0.5" stroke="black" stroke-linejoin="round" fill="white" fill-opacity="1"/>


<!-- renderPart: cylinder -->
<path d="M244.95 105.625 L247.55 105.625 L247.55 134.375 L244.95 134.375 Z" stroke-width="0" stroke="none" stroke-linejoin="round" fill="white" fill-opacity="1"/>
<path d="M245 105.625 L247.5 105.625 M247.5 134.375 L245 134.375" stroke-width="0.5" stroke="black" stroke-linejoin="round" fill="white" fill-opacity="1"/>
<!-- !left !both--><path d="M245 105.625 L245 134.375" stroke-width="0.5" stroke="black" stroke-linejoin="round" fill="white" fill-opacity="1"/>
<!-- !right !both --><path d="M247.5 105.625 L247.5 134.375" stroke-width="0.5" stroke="black" stroke-linejoin="round" fill="white" fill-opacity="1"/>


<!-- renderPart: cone -->
<path d="M247.45 105.625 L275.05 108.75 L275.05 131.25 L247.45 134.375 Z" stroke-width="0" stroke="none" stroke-linejoin="round" fill="white" fill-opacity="1"/>
<path d="M247.5 105.625 L275 108.75 M275 131.25 L247.5 134.375" stroke-width="0.5" stroke="black" stroke-linejoin="round" fill="white" fill-opacity="1"/>
<!-- !left !both--><path d="M247.5 105.625 L247.5 134.375" stroke-width="0.5" stroke="black" stroke-linejoin="round" fill="white" fill-opacity="1"/>


<!-- renderPart: cylinder -->
<path d="M274.95 108.75 L357.55 108.75 L357.55 131.25 L274.95 131.25 Z" stroke-width="0" stroke="none" stroke-linejoin="round" fill="white" fill-opacity="1"/>
<path d="M275 108.75 L357.5 108.75 M357.5 131.25 L275 131.25" stroke-width="0.5" stroke="black" stroke-linejoin="round" fill="white" fill-opacity="1"/>
<!-- !right !both --><path d="M357.5 108.75 L357.5 131.25" stroke-width="0.5" stroke="black" stroke-linejoin="round" fill="white" fill-opacity="1"/>


<!-- renderPart: cylinder -->
<path d="M357.45 108.125 L400.05 108.125 L400.05 131.875 L357.45 131.875 Z" stroke-width="0" stroke="none" stroke-linejoin="round" fill="white" fill-opacity="1"/>
<path d="M357.5 108.125 L400 108.125 M400 131.875 L357.5 131.875" stroke-width="0.5" stroke="black" stroke-linejoin="round" fill="white" fill-opacity="1"/>
<!-- !left !both--><path d="M357.5 108.125 L357.5 131.875" stroke-width="0.5" stroke="black" stroke-linejoin="round" fill="white" fill-opacity="1"/>
<!-- !right !both --><path d="M400 108.125 L400 131.875" stroke-width="0.5" stroke="black" stroke-linejoin="round" fill="white" fill-opacity="1"/>


<!-- renderSideComponent: tip -->


<!-- renderPart: cone -->
<path d="M247.45 223.125 L320.05 221.25 L320.05 258.75 L247.45 256.875 Z" stroke-width="0" stroke="none" stroke-linejoin="round" fill="white" fill-opacity="1"/>
<path d="M247.5 223.125 L320 221.25 M320 258.75 L247.5 256.875" stroke-width="0.5" stroke="black" stroke-linejoin="round" fill="white" fill-opacity="1"/>
<!-- !left !both--><path d="M247.5 223.125 L247.5 256.875" stroke-width="0.5" stroke="black" stroke-linejoin="round" fill="white" fill-opacity="1"/>
<!-- !right !both --><path d="M320 221.25 L320 258.75" stroke-width="0.5" stroke="black" stroke-linejoin="round" fill="white" fill-opacity="1"/>


<!-- renderSideComponent: grip -->


<!-- renderPart: cylinder -->
<path d="M319.95 220 L473.8 220 L473.8 260 L319.95 260 Z" stroke-width="0" stroke="none" stroke-linejoin="round" fill="white" fill-opacity="1"/>
<path d="M320 220 L473.75 220 M473.75 260 L320 260" stroke-width="0.5" stroke="black" stroke-linejoin="round" fill="white" fill-opacity="1"/>
<!-- !left !both--><path d="M320 220 L320 260" stroke-width="0.5" stroke="black" stroke-linejoin="round" fill="white" fill-opacity="1"/>
<!-- !right !both --><path d="M473.75 220 L473.75 260" stroke-width="0.5" stroke="black" stroke-linejoin="round" fill="white" fill-opacity="1"/>
<path d="M320 220 L473.75 220 L473.75 260 L320 260 Z" stroke-width="1.0" stroke="black" fill="url(#knurled-small)"/>


<!-- renderSideComponent: body -->


<!-- renderPart: hexagonal -->
<path d="M473.7 220 L923.8 219.375 L923.8 260.625 L473.7 260 Z" stroke-width="0" stroke="none" stroke-linejoin="round" fill="white" fill-opacity="1"/>
<path d="M473.75 220 L923.75 219.375 M923.75 260.625 L473.75 260" stroke-width="0.5" stroke="black" stroke-linejoin="round" fill="white" fill-opacity="1"/>
<!-- !left !both--><path d="M473.75 220 L473.75 260" stroke-width="0.5" stroke="black" stroke-linejoin="round" fill="white" fill-opacity="1"/>
<!-- !right !both --><path d="M923.75 219.375 L923.75 260.625" stroke-width="0.5" stroke="black" stroke-linejoin="round" fill="white" fill-opacity="1"/>
<line x1="473.75" y1="240" x2="923.75" y2="240" stroke-width="1.5" stroke="gray" fill="gray" stroke-opacity="1.0"/>
<line x1="473.75" y1="240" x2="923.75" y2="240" stroke-width="0.5" stroke="black" fill="none" stroke-opacity="0.5"/>


<!-- renderPart: cylinder -->
<path d="M923.7 360 L923.8 360 L923.8 360 L923.7 360 Z" stroke-width="0" stroke="none" stroke-linejoin="round" fill="white" fill-opacity="1"/>
<path d="M923.75 360 L923.75 360 M923.75 360 L923.75 360" stroke-width="0.5" stroke="black" stroke-linejoin="round" fill="white" fill-opacity="1"/>
<!-- !left !both--><path d="M923.75 360 L923.75 360" stroke-width="0.5" stroke="black" stroke-linejoin="round" fill="white" fill-opacity="1"/>
<!-- !right !both --><path d="M923.75 360 L923.75 360" stroke-width="0.5" stroke="black" stroke-linejoin="round" fill="white" fill-opacity="1"/>


<!-- renderSideComponent: clip -->
<line x1="726.25" y1="332.25" x2="746.25" y2="337.25" stroke-width="4" stroke="black" fill="dimgray" stroke-linecap="round" />
<line x1="746.25" y1="337.25" x2="867.5" y2="318.5" stroke-width="4" stroke="black" fill="dimgray" stroke-linecap="round" />
<line x1="868" y1="318.5" x2="925.5" y2="322.25" stroke-width="4" stroke="black" fill="dimgray" stroke-linecap="round" />
<line x1="925.5" y1="322.25" x2="925.5" y2="339.75" stroke-width="4" stroke="black" fill="dimgray" stroke-linecap="round" />


<!-- renderPart: cylinder -->
<path d="M923.7 338.75 L927.55 338.75 L927.55 381.25 L923.7 381.25 Z" stroke-width="0" stroke="none" stroke-linejoin="round" fill="white" fill-opacity="1"/>
<path d="M923.75 338.75 L927.5 338.75 M927.5 381.25 L923.75 381.25" stroke-width="0.5" stroke="black" stroke-linejoin="round" fill="white" fill-opacity="1"/>
<!-- !left !both--><path d="M923.75 338.75 L923.75 381.25" stroke-width="0.5" stroke="black" stroke-linejoin="round" fill="white" fill-opacity="1"/>
<!-- !right !both --><path d="M927.5 338.75 L927.5 381.25" stroke-width="0.5" stroke="black" stroke-linejoin="round" fill="white" fill-opacity="1"/>
<line x1="726.25" y1="332.25" x2="746.25" y2="337.25" stroke-width="3" stroke="white" fill="white" stroke-linecap="round" />
<line x1="746.25" y1="337.25" x2="867.5" y2="318.5" stroke-width="3" stroke="white" fill="white" stroke-linecap="round" />
<line x1="868" y1="318.5" x2="925.5" y2="322.25" stroke-width="3" stroke="white" fill="white" stroke-linecap="round" />
<line x1="925.5" y1="322.25" x2="925.5" y2="339.75" stroke-width="3" stroke="white" fill="white" stroke-linecap="round" />


<!-- renderPart: cylinder -->
<path d="M812.45 464.375 L822.55 464.375 L822.55 495.625 L812.45 495.625 Z" stroke-width="0" stroke="none" stroke-linejoin="round" fill="white" fill-opacity="1"/>
<path d="M812.5 464.375 L822.5 464.375 M822.5 495.625 L812.5 495.625" stroke-width="0.5" stroke="black" stroke-linejoin="round" fill="white" fill-opacity="1"/>
<!-- !left !both--><path d="M812.5 464.375 L812.5 495.625" stroke-width="0.5" stroke="black" stroke-linejoin="round" fill="white" fill-opacity="1"/>
<!-- !right !both --><path d="M822.5 464.375 L822.5 495.625" stroke-width="0.5" stroke="black" stroke-linejoin="round" fill="white" fill-opacity="1"/>


<!-- renderPart: cylinder -->
<path d="M822.45 463.75 L927.55 463.75 L927.55 496.25 L822.45 496.25 Z" stroke-width="0" stroke="none" stroke-linejoin="round" fill="white" fill-opacity="1"/>
<path d="M822.5 463.75 L927.5 463.75 M927.5 496.25 L822.5 496.25" stroke-width="0.5" stroke="black" stroke-linejoin="round" fill="white" fill-opacity="1"/>
<!-- !left !both--><path d="M822.5 463.75 L822.5 496.25" stroke-width="0.5" stroke="black" stroke-linejoin="round" fill="white" fill-opacity="1"/>
<!-- !right !both --><path d="M927.5 463.75 L927.5 496.25" stroke-width="0.5" stroke="black" stroke-linejoin="round" fill="white" fill-opacity="1"/>


<!-- renderSideComponent: tail -->


<!-- renderPart: cylinder -->
<path d="M927.45 459.375 L932.55 459.375 L932.55 500.625 L927.45 500.625 Z" stroke-width="0" stroke="none" stroke-linejoin="round" fill="white" fill-opacity="1"/>
<path d="M927.5 459.375 L932.5 459.375 M932.5 500.625 L927.5 500.625" stroke-width="0.5" stroke="black" stroke-linejoin="round" fill="white" fill-opacity="1"/>
<!-- !left !both--><path d="M927.5 459.375 L927.5 500.625" stroke-width="0.5" stroke="black" stroke-linejoin="round" fill="white" fill-opacity="1"/>
<!-- !right !both --><path d="M932.5 459.375 L932.5 500.625" stroke-width="0.5" stroke="black" stroke-linejoin="round" fill="white" fill-opacity="1"/>


<!-- renderPart: cylinder -->
<path d="M366.2 589.375 L767.55 589.375 L767.55 610.625 L366.2 610.625 Z" stroke-width="0" stroke="none" stroke-linejoin="round" fill="white" fill-opacity="1"/>
<path d="M366.25 589.375 L767.5 589.375 M767.5 610.625 L366.25 610.625" stroke-width="0.5" stroke="black" stroke-linejoin="round" fill="white" fill-opacity="1"/>
<!-- !left !both--><path d="M366.25 589.375 L366.25 610.625" stroke-width="0.5" stroke="black" stroke-linejoin="round" fill="white" fill-opacity="1"/>
<!-- !right !both --><path d="M767.5 589.375 L767.5 610.625" stroke-width="0.5" stroke="black" stroke-linejoin="round" fill="white" fill-opacity="1"/>


<!-- renderPart: cylinder -->
<path d="M767.45 589.375 L925.05 589.375 L925.05 610.625 L767.45 610.625 Z" stroke-width="0" stroke="none" stroke-linejoin="round" fill="white" fill-opacity="1"/>
<path d="M767.5 589.375 L925 589.375 M925 610.625 L767.5 610.625" stroke-width="0.5" stroke="black" stroke-linejoin="round" fill="white" fill-opacity="1"/>
<!-- !left !both--><path d="M767.5 589.375 L767.5 610.625" stroke-width="0.5" stroke="black" stroke-linejoin="round" fill="white" fill-opacity="1"/>
<!-- !right !both --><path d="M925 589.375 L925 610.625" stroke-width="0.5" stroke="black" stroke-linejoin="round" fill="white" fill-opacity="1"/>
<rect x="772.5" y="584.375" width="147.5" height="31.25" stroke-width="0.0" stroke="black" fill="url(#spring)"/>
<line x1="768" y1="584.375" x2="768" y2="615.625" stroke="dimgray" stroke-linecap="round" stroke-width="2" />
<line x1="768" y1="584.375" x2="768" y2="615.625" stroke="white" stroke-linecap="round" stroke-width="1" />
<line x1="924.5" y1="584.375" x2="924.5" y2="615.625" stroke="dimgray" stroke-linecap="round" stroke-width="2" />
<line x1="924.5" y1="584.375" x2="924.5" y2="615.625" stroke="white" stroke-linecap="round" stroke-width="1" />
<line x1="770" y1="584.375" x2="770" y2="615.625" stroke="dimgray" stroke-linecap="round" stroke-width="2" />
<line x1="770" y1="584.375" x2="770" y2="615.625" stroke="white" stroke-linecap="round" stroke-width="1" />
<line x1="922.5" y1="584.375" x2="922.5" y2="615.625" stroke="dimgray" stroke-linecap="round" stroke-width="2" />
<line x1="922.5" y1="584.375" x2="922.5" y2="615.625" stroke="white" stroke-linecap="round" stroke-width="1" />
<line x1="772" y1="584.375" x2="772" y2="615.625" stroke="dimgray" stroke-linecap="round" stroke-width="2" />
<line x1="772" y1="584.375" x2="772" y2="615.625" stroke="white" stroke-linecap="round" stroke-width="1" />
<line x1="920.5" y1="584.375" x2="920.5" y2="615.625" stroke="dimgray" stroke-linecap="round" stroke-width="2" />
<line x1="920.5" y1="584.375" x2="920.5" y2="615.625" stroke="white" stroke-linecap="round" stroke-width="1" />
<line x1="774" y1="584.375" x2="774" y2="615.625" stroke="dimgray" stroke-linecap="round" stroke-width="2" />
<line x1="774" y1="584.375" x2="774" y2="615.625" stroke="white" stroke-linecap="round" stroke-width="1" />
<line x1="918.5" y1="584.375" x2="918.5" y2="615.625" stroke="dimgray" stroke-linecap="round" stroke-width="2" />
<line x1="918.5" y1="584.375" x2="918.5" y2="615.625" stroke="white" stroke-linecap="round" stroke-width="1" />


<!-- renderPart: cylinder -->
<path d="M924.95 586.25 L932.55 586.25 L932.55 613.75 L924.95 613.75 Z" stroke-width="0" stroke="none" stroke-linejoin="round" fill="white" fill-opacity="1"/>
<path d="M925 586.25 L932.5 586.25 M932.5 613.75 L925 613.75" stroke-width="0.5" stroke="black" stroke-linejoin="round" fill="white" fill-opacity="1"/>
<!-- !left !both--><path d="M925 586.25 L925 613.75" stroke-width="0.5" stroke="black" stroke-linejoin="round" fill="white" fill-opacity="1"/>
<!-- !right !both --><path d="M932.5 586.25 L932.5 613.75" stroke-width="0.5" stroke="black" stroke-linejoin="round" fill="white" fill-opacity="1"/>


<!-- renderSideComponent: cap -->


<!-- renderPart: cylinder -->
<path d="M932.45 586.25 L972.55 586.25 L972.55 613.75 L932.45 613.75 Z" stroke-width="0" stroke="none" stroke-linejoin="round" fill="white" fill-opacity="1"/>
<path d="M932.5 586.25 L972.5 586.25 M972.5 613.75 L932.5 613.75" stroke-width="0.5" stroke="black" stroke-linejoin="round" fill="white" fill-opacity="1"/>
<!-- !left !both--><path d="M932.5 586.25 L932.5 613.75" stroke-width="0.5" stroke="black" stroke-linejoin="round" fill="white" fill-opacity="1"/>
<!-- !right !both --><path d="M972.5 586.25 L972.5 613.75" stroke-width="0.5" stroke="black" stroke-linejoin="round" fill="white" fill-opacity="1"/>


<!-- DASHED JOIN -->
<path d="M 247.5 120 L 440 120 L 440 180 L 207.5 180 L 207.5 240 L 247.5 240 " fill="none" stroke="white" stroke-width="1" stroke-linecap="round"  />
<path d="M 247.5 120 L 440 120 L 440 180 L 207.5 180 L 207.5 240 L 247.5 240 " fill="none" stroke="black" stroke-width="1" stroke-dasharray="8,4" stroke-linecap="round"  />


<!-- ARROW START -->
<line x1="252.5" y1="120" x2="259.5" y2="120" stroke-linecap="round" stroke="#ffffff" stroke-width="2.0" />
<line x1="252.5" y1="120" x2="266.5" y2="112" stroke-linecap="round" stroke="#ffffff" stroke-width="2.0" />
<line x1="266.5" y1="112" x2="259.5" y2="120" stroke-linecap="round" stroke="#ffffff" stroke-width="2.0" />
<line x1="252.5" y1="120" x2="266.5" y2="128" stroke-linecap="round" stroke="#ffffff" stroke-width="2.0" />
<line x1="266.5" y1="128" x2="259.5" y2="120" stroke-linecap="round" stroke="#ffffff" stroke-width="2.0" />
<line x1="252.5" y1="120" x2="266.5" y2="112" stroke-linecap="round" stroke="#0f0f0f" stroke-width="1.0" />
<line x1="266.5" y1="112" x2="259.5" y2="120" stroke-linecap="round" stroke="#0f0f0f" stroke-width="1.0" />
<line x1="252.5" y1="120" x2="266.5" y2="128" stroke-linecap="round" stroke="#0f0f0f" stroke-width="1.0" />
<line x1="266.5" y1="128" x2="259.5" y2="120" stroke-linecap="round" stroke="#0f0f0f" stroke-width="1.0" />


<!-- ARROW START -->
<line x1="227.5" y1="240" x2="234.5" y2="240" stroke-linecap="round" stroke="#ffffff" stroke-width="2.0" />
<line x1="227.5" y1="240" x2="241.5" y2="232" stroke-linecap="round" stroke="#ffffff" stroke-width="2.0" />
<line x1="241.5" y1="232" x2="234.5" y2="240" stroke-linecap="round" stroke="#ffffff" stroke-width="2.0" />
<line x1="227.5" y1="240" x2="241.5" y2="248" stroke-linecap="round" stroke="#ffffff" stroke-width="2.0" />
<line x1="241.5" y1="248" x2="234.5" y2="240" stroke-linecap="round" stroke="#ffffff" stroke-width="2.0" />
<line x1="227.5" y1="240" x2="241.5" y2="232" stroke-linecap="round" stroke="#0f0f0f" stroke-width="1.0" />
<line x1="241.5" y1="232" x2="234.5" y2="240" stroke-linecap="round" stroke="#0f0f0f" stroke-width="1.0" />
<line x1="227.5" y1="240" x2="241.5" y2="248" stroke-linecap="round" stroke="#0f0f0f" stroke-width="1.0" />
<line x1="241.5" y1="248" x2="234.5" y2="240" stroke-linecap="round" stroke="#0f0f0f" stroke-width="1.0" />


<!-- DASHED JOIN -->
<path d="M 923.75 240 L 963.75 240 L 963.75 300 L 883.75 300 L 883.75 360 L 923.75 360 " fill="none" stroke="white" stroke-width="1" stroke-linecap="round"  />
<path d="M 923.75 240 L 963.75 240 L 963.75 300 L 883.75 300 L 883.75 360 L 923.75 360 " fill="none" stroke="black" stroke-width="1" stroke-dasharray="8,4" stroke-linecap="round"  />


<!-- ARROW START -->
<line x1="928.75" y1="240" x2="935.75" y2="240" stroke-linecap="round" stroke="#ffffff" stroke-width="2.0" />
<line x1="928.75" y1="240" x2="942.75" y2="232" stroke-linecap="round" stroke="#ffffff" stroke-width="2.0" />
<line x1="942.75" y1="232" x2="935.75" y2="240" stroke-linecap="round" stroke="#ffffff" stroke-width="2.0" />
<line x1="928.75" y1="240" x2="942.75" y2="248" stroke-linecap="round" stroke="#ffffff" stroke-width="2.0" />
<line x1="942.75" y1="248" x2="935.75" y2="240" stroke-linecap="round" stroke="#ffffff" stroke-width="2.0" />
<line x1="928.75" y1="240" x2="942.75" y2="232" stroke-linecap="round" stroke="#0f0f0f" stroke-width="1.0" />
<line x1="942.75" y1="232" x2="935.75" y2="240" stroke-linecap="round" stroke="#0f0f0f" stroke-width="1.0" />
<line x1="928.75" y1="240" x2="942.75" y2="248" stroke-linecap="round" stroke="#0f0f0f" stroke-width="1.0" />
<line x1="942.75" y1="248" x2="935.75" y2="240" stroke-linecap="round" stroke="#0f0f0f" stroke-width="1.0" />


<!-- ARROW START -->
<line x1="903.75" y1="360" x2="910.75" y2="360" stroke-linecap="round" stroke="#ffffff" stroke-width="2.0" />
<line x1="903.75" y1="360" x2="917.75" y2="352" stroke-linecap="round" stroke="#ffffff" stroke-width="2.0" />
<line x1="917.75" y1="352" x2="910.75" y2="360" stroke-linecap="round" stroke="#ffffff" stroke-width="2.0" />
<line x1="903.75" y1="360" x2="917.75" y2="368" stroke-linecap="round" stroke="#ffffff" stroke-width="2.0" />
<line x1="917.75" y1="368" x2="910.75" y2="360" stroke-linecap="round" stroke="#ffffff" stroke-width="2.0" />
<line x1="903.75" y1="360" x2="917.75" y2="352" stroke-linecap="round" stroke="#0f0f0f" stroke-width="1.0" />
<line x1="917.75" y1="352" x2="910.75" y2="360" stroke-linecap="round" stroke="#0f0f0f" stroke-width="1.0" />
<line x1="903.75" y1="360" x2="917.75" y2="368" stroke-linecap="round" stroke="#0f0f0f" stroke-width="1.0" />
<line x1="917.75" y1="368" x2="910.75" y2="360" stroke-linecap="round" stroke="#0f0f0f" stroke-width="1.0" />


<!-- DASHED JOIN -->
<path d="M 927.5 360 L 967.5 360 L 967.5 420 L 772.5 420 L 772.5 480 L 927.5 480 " fill="none" stroke="white" stroke-width="1" stroke-linecap="round"  />
<path d="M 927.5 360 L 967.5 360 L 967.5 420 L 772.5 420 L 772.5 480 L 927.5 480 " fill="none" stroke="black" stroke-width="1" stroke-dasharray="8,4" stroke-linecap="round"  />


<!-- ARROW START -->
<line x1="932.5" y1="360" x2="939.5" y2="360" stroke-linecap="round" stroke="#ffffff" stroke-width="2.0" />
<line x1="932.5" y1="360" x2="946.5" y2="352" stroke-linecap="round" stroke="#ffffff" stroke-width="2.0" />
<line x1="946.5" y1="352" x2="939.5" y2="360" stroke-linecap="round" stroke="#ffffff" stroke-width="2.0" />
<line x1="932.5" y1="360" x2="946.5" y2="368" stroke-linecap="round" stroke="#ffffff" stroke-width="2.0" />
<line x1="946.5" y1="368" x2="939.5" y2="360" stroke-linecap="round" stroke="#ffffff" stroke-width="2.0" />
<line x1="932.5" y1="360" x2="946.5" y2="352" stroke-linecap="round" stroke="#0f0f0f" stroke-width="1.0" />
<line x1="946.5" y1="352" x2="939.5" y2="360" stroke-linecap="round" stroke="#0f0f0f" stroke-width="1.0" />
<line x1="932.5" y1="360" x2="946.5" y2="368" stroke-linecap="round" stroke="#0f0f0f" stroke-width="1.0" />
<line x1="946.5" y1="368" x2="939.5" y2="360" stroke-linecap="round" stroke="#0f0f0f" stroke-width="1.0" />


<!-- ARROW START -->
<line x1="792.5" y1="480" x2="799.5" y2="480" stroke-linecap="round" stroke="#ffffff" stroke-width="2.0" />
<line x1="792.5" y1="480" x2="806.5" y2="472" stroke-linecap="round" stroke="#ffffff" stroke-width="2.0" />
<line x1="806.5" y1="472" x2="799.5" y2="480" stroke-linecap="round" stroke="#ffffff" stroke-width="2.0" />
<line x1="792.5" y1="480" x2="806.5" y2="488" stroke-linecap="round" stroke="#ffffff" stroke-width="2.0" />
<line x1="806.5" y1="488" x2="799.5" y2="480" stroke-linecap="round" stroke="#ffffff" stroke-width="2.0" />
<line x1="792.5" y1="480" x2="806.5" y2="472" stroke-linecap="round" stroke="#0f0f0f" stroke-width="1.0" />
<line x1="806.5" y1="472" x2="799.5" y2="480" stroke-linecap="round" stroke="#0f0f0f" stroke-width="1.0" />
<line x1="792.5" y1="480" x2="806.5" y2="488" stroke-linecap="round" stroke="#0f0f0f" stroke-width="1.0" />
<line x1="806.5" y1="488" x2="799.5" y2="480" stroke-linecap="round" stroke="#0f0f0f" stroke-width="1.0" />
<line x1="927.5" y1="440" x2="927.5" y2="520" stroke="white" stroke-linecap="round"  stroke-width="1" />
<line x1="927.5" y1="440" x2="927.5" y2="520" stroke="dimgray" stroke-linecap="round" stroke-dasharray="3,3" stroke-width="1" />


<!-- DASHED JOIN -->
<path d="M 932.5 480 L 972.5 480 L 972.5 540 L 326.25 540 L 326.25 600 L 932.5 600 " fill="none" stroke="white" stroke-width="1" stroke-linecap="round"  />
<path d="M 932.5 480 L 972.5 480 L 972.5 540 L 326.25 540 L 326.25 600 L 932.5 600 " fill="none" stroke="black" stroke-width="1" stroke-dasharray="8,4" stroke-linecap="round"  />


<!-- ARROW START -->
<line x1="937.5" y1="480" x2="944.5" y2="480" stroke-linecap="round" stroke="#ffffff" stroke-width="2.0" />
<line x1="937.5" y1="480" x2="951.5" y2="472" stroke-linecap="round" stroke="#ffffff" stroke-width="2.0" />
<line x1="951.5" y1="472" x2="944.5" y2="480" stroke-linecap="round" stroke="#ffffff" stroke-width="2.0" />
<line x1="937.5" y1="480" x2="951.5" y2="488" stroke-linecap="round" stroke="#ffffff" stroke-width="2.0" />
<line x1="951.5" y1="488" x2="944.5" y2="480" stroke-linecap="round" stroke="#ffffff" stroke-width="2.0" />
<line x1="937.5" y1="480" x2="951.5" y2="472" stroke-linecap="round" stroke="#0f0f0f" stroke-width="1.0" />
<line x1="951.5" y1="472" x2="944.5" y2="480" stroke-linecap="round" stroke="#0f0f0f" stroke-width="1.0" />
<line x1="937.5" y1="480" x2="951.5" y2="488" stroke-linecap="round" stroke="#0f0f0f" stroke-width="1.0" />
<line x1="951.5" y1="488" x2="944.5" y2="480" stroke-linecap="round" stroke="#0f0f0f" stroke-width="1.0" />


<!-- ARROW START -->
<line x1="346.25" y1="600" x2="353.25" y2="600" stroke-linecap="round" stroke="#ffffff" stroke-width="2.0" />
<line x1="346.25" y1="600" x2="360.25" y2="592" stroke-linecap="round" stroke="#ffffff" stroke-width="2.0" />
<line x1="360.25" y1="592" x2="353.25" y2="600" stroke-linecap="round" stroke="#ffffff" stroke-width="2.0" />
<line x1="346.25" y1="600" x2="360.25" y2="608" stroke-linecap="round" stroke="#ffffff" stroke-width="2.0" />
<line x1="360.25" y1="608" x2="353.25" y2="600" stroke-linecap="round" stroke="#ffffff" stroke-width="2.0" />
<line x1="346.25" y1="600" x2="360.25" y2="592" stroke-linecap="round" stroke="#0f0f0f" stroke-width="1.0" />
<line x1="360.25" y1="592" x2="353.25" y2="600" stroke-linecap="round" stroke="#0f0f0f" stroke-width="1.0" />
<line x1="346.25" y1="600" x2="360.25" y2="608" stroke-linecap="round" stroke="#0f0f0f" stroke-width="1.0" />
<line x1="360.25" y1="608" x2="353.25" y2="600" stroke-linecap="round" stroke="#0f0f0f" stroke-width="1.0" />
<line x1="932.5" y1="560" x2="932.5" y2="640" stroke="white" stroke-linecap="round"  stroke-width="1" />
<line x1="932.5" y1="560" x2="932.5" y2="640" stroke="dimgray" stroke-linecap="round" stroke-dasharray="3,3" stroke-width="1" />
</g><text x="50%" y="680" font-size="1.1em" font-weight="bold" text-anchor="middle" dominant-baseline="middle">Copyright (c) // Synapticloop and The Mechanical Pencil Database (tmpdb)</text>
<text x="50%" y="700" font-size="1.1em" font-weight="bold" text-anchor="middle" dominant-baseline="middle">Licensed under Creative Commons Attribution-NonCommercial-ShareAlike 4.0 International</text>
<text x="1190" y="710" font-size="0.5em" font-weight="bold" text-anchor="end" dominant-baseline="middle">SVGTechnicalExplodedRenderer</text>
</svg>