<svg xmlns="http://www.w3.org/2000/svg" width="1000" height="900">
 <pattern id="knurled-large" patternUnits="userSpaceOnUse" width="12" height="12">
<path stroke="dimgray" stroke-linecap="round" stroke-width="1" d="M 6,6 L 12,12"/>
<path stroke="dimgray" stroke-linecap="round" stroke-width="1" d="M 6,6 L 0,12"/>
<path stroke="gray" stroke-linecap="round" stroke-width="1" d="M 6,6 L 12,0" />
<path stroke="gray" stroke-linecap="round" stroke-width="1" d="M 6,6 L 0,0" />
</pattern><pattern id="knurled-small" patternUnits="userSpaceOnUse" width="4" height="4">
<path stroke="dimgray" stroke-linecap="round" stroke-width="1" d="M 2,2 L 4,4"/>
<path stroke="dimgray" stroke-linecap="round" stroke-width="1" d="M 2,2 L 0,4"/>
<path stroke="gray" stroke-linecap="round" stroke-width="1" d="M 2,2 L 4,0" />
<path stroke="gray" stroke-linecap="round" stroke-width="1" d="M 2,2 L 0,0" />
</pattern><pattern id="knurled" patternUnits="userSpaceOnUse" width="8" height="8">
<path stroke="dimgray" stroke-linecap="round" stroke-width="1" d="M 4,4 L 8,8"/>
<path stroke="dimgray" stroke-linecap="round" stroke-width="1" d="M 4,4 L 0,8"/>
<path stroke="gray" stroke-linecap="round" stroke-width="1" d="M 4,4 L 8,0" />
<path stroke="gray" stroke-linecap="round" stroke-width="1" d="M 4,4 L 0,0" />
</pattern><pattern id="lined" patternUnits="userSpaceOnUse" width="3" height="3">
<path stroke="dimgray" stroke-linecap="round" stroke-width="1" d="M 0,0 L 3,0"/>
</pattern><pattern id="ridged" patternUnits="userSpaceOnUse" width="3" height="3">
<path stroke="dimgray" stroke-linecap="round" stroke-width="1" d="M 0,0 L 0,3"/>
</pattern><pattern id="spring" patternUnits="userSpaceOnUse" width="8" height="60">
<path stroke="dimgray" stroke-linecap="round" stroke-width="2" d="M 1,1 L 8,60"/>
<path stroke="white" stroke-linecap="round" stroke-width="1" d="M 1,1 L 8,60"/>
</pattern><rect x="0" y="0" width="1000" height="900" fill="white" stroke="black" stroke-width="4" />
<rect x="2" y="2" width="996" height="896" fill="white" stroke="dimgray" stroke-width="1" />
<g transform="rotate(0 0 0)">
<text x="30" y="50" font-size="2.0em" font-weight="bold"> Daiso // 2mm Mechanical Pencil </text>
<line x1="360" y1="124" x2="360" y2="162" stroke="black" stroke-linecap="round"  stroke-width="2" />
<line x1="240" y1="140" x2="360" y2="140" stroke-linecap="round" stroke="black"  stroke-width="2" />
<line x1="246" y1="144" x2="360" y2="144" stroke-linecap="round" stroke="black"  stroke-width="2" />
<text x="500" y="140" font-size="2.4em" font-weight="bold" text-anchor="middle" dominant-baseline="central">Measurements</text>
<line x1="640" y1="140" x2="760" y2="140" stroke-linecap="round" stroke="black"  stroke-width="2" />
<line x1="640" y1="144" x2="754" y2="144" stroke-linecap="round" stroke="black"  stroke-width="2" />
<line x1="640" y1="124" x2="640" y2="162" stroke="black" stroke-linecap="round"  stroke-width="2" />
<line x1="40" y1="300" x2="960" y2="300" stroke-linecap="round" stroke="#5f5f5f" stroke-dasharray="2" stroke-width="1" />
<line x1="20" y1="300" x2="60" y2="300" stroke-linecap="round" stroke="#000000"  stroke-width="1" />
<line x1="40" y1="280" x2="40" y2="320" stroke="#000000" stroke-linecap="round"  stroke-width="1" />
<circle r="10" cx="40" cy="300" fill="white" fill-opacity="0" stroke="#000000" stroke-width="1"  />
<line x1="940" y1="300" x2="980" y2="300" stroke-linecap="round" stroke="#000000"  stroke-width="1" />
<line x1="960" y1="280" x2="960" y2="320" stroke="#000000" stroke-linecap="round"  stroke-width="1" />
<circle r="10" cx="960" cy="300" fill="white" fill-opacity="0" stroke="#000000" stroke-width="1"  />


<!-- renderSideComponent: tip -->


<!-- renderPart: cylinder -->
<path d="M141.825 290.625 L154.425 290.625 L154.425 309.375 L141.825 309.375 L141.825 290.625" stroke-width="0" stroke="none" stroke-linejoin="round" fill="white" fill-opacity="1"/>
<path d="M141.825 290.625 L154.425 290.625 M154.425 309.375 L141.825 309.375" stroke-width="0.5" stroke="black" stroke-linejoin="round" fill="white" fill-opacity="1"/>
<!-- !right !both --><path d="M154.425 290.625 L154.425 309.375" stroke-width="0.5" stroke="black" stroke-linejoin="round" fill="white" fill-opacity="1"/>
<!-- !left !both --><path d="M141.825 290.625 L141.825 309.375" stroke-width="0.5" stroke="black" stroke-linejoin="round" fill="white" fill-opacity="1"/>


<!-- renderPart: cone -->
<path d="M154.325 290 L195.675 281.25 L195.675 318.75 L154.325 310 L154.325 290" stroke-width="0" stroke="none" stroke-linejoin="round" fill="white" fill-opacity="1"/>
<path d="M154.325 290 L195.675 281.25 M195.675 318.75 L154.325 310" stroke-width="0.5" stroke="black" stroke-linejoin="round" fill="white" fill-opacity="1"/>
<!-- !right !both --><path d="M195.675 281.25 L195.675 318.75" stroke-width="0.5" stroke="black" stroke-linejoin="round" fill="white" fill-opacity="1"/>
<!-- !left !both --><path d="M154.325 290 L154.325 310" stroke-width="0.5" stroke="black" stroke-linejoin="round" fill="white" fill-opacity="1"/>


<!-- renderPart: cylinder -->
<path d="M195.575 281.25 L210.675 281.25 L210.675 318.75 L195.575 318.75 L195.575 281.25" stroke-width="0" stroke="none" stroke-linejoin="round" fill="white" fill-opacity="1"/>
<path d="M195.575 281.25 L210.675 281.25 M210.675 318.75 L195.575 318.75" stroke-width="0.5" stroke="black" stroke-linejoin="round" fill="white" fill-opacity="1"/>
<!-- !right !both --><path d="M210.675 281.25 L210.675 318.75" stroke-width="0.5" stroke="black" stroke-linejoin="round" fill="white" fill-opacity="1"/>
<!-- !left !both --><path d="M195.575 281.25 L195.575 318.75" stroke-width="0.5" stroke="black" stroke-linejoin="round" fill="white" fill-opacity="1"/>


<!-- renderPart: cylinder -->
<path d="M210.575 279.375 L240.675 279.375 L240.675 320.625 L210.575 320.625 L210.575 279.375" stroke-width="0" stroke="none" stroke-linejoin="round" fill="white" fill-opacity="1"/>
<path d="M210.575 279.375 L240.675 279.375 M240.675 320.625 L210.575 320.625" stroke-width="0.5" stroke="black" stroke-linejoin="round" fill="white" fill-opacity="1"/>
<!-- !right !both --><path d="M240.675 279.375 L240.675 320.625" stroke-width="0.5" stroke="black" stroke-linejoin="round" fill="white" fill-opacity="1"/>
<!-- !left !both --><path d="M210.575 279.375 L210.575 320.625" stroke-width="0.5" stroke="black" stroke-linejoin="round" fill="white" fill-opacity="1"/>


<!-- renderSideComponent: body -->


<!-- renderPart: hexagonal -->
<path d="M240.575 280 L739.425 280 L739.425 320 L240.575 320 L240.575 280" stroke-width="0" stroke="none" stroke-linejoin="round" fill="white" fill-opacity="1"/>
<path d="M240.575 280 L739.425 280 M739.425 320 L240.575 320" stroke-width="0.5" stroke="black" stroke-linejoin="round" fill="white" fill-opacity="1"/>
<!-- !right !both --><path d="M739.425 280 L739.425 320" stroke-width="0.5" stroke="black" stroke-linejoin="round" fill="white" fill-opacity="1"/>
<!-- !left !both --><path d="M240.575 280 L240.575 320" stroke-width="0.5" stroke="black" stroke-linejoin="round" fill="white" fill-opacity="1"/>
<line x1="245.625" y1="300" x2="744.375" y2="300" stroke-width="1.5" stroke="gray" fill="gray" stroke-opacity="1.0"/>
<line x1="245.625" y1="300" x2="744.375" y2="300" stroke-width="0.5" stroke="black" fill="none" stroke-opacity="0.5"/>


<!-- renderSideComponent: clip -->
<line x1="560.625" y1="269.375" x2="575.625" y2="269.375" stroke-width="4" stroke="black" fill="dimgray" stroke-linecap="round" />
<line x1="575.625" y1="269.375" x2="595.625" y2="278.125" stroke-width="4" stroke="black" fill="dimgray" stroke-linecap="round" />
<line x1="595.625" y1="278.125" x2="615.625" y2="269.375" stroke-width="4" stroke="black" fill="dimgray" stroke-linecap="round" />
<line x1="615.625" y1="269.375" x2="755.625" y2="269.375" stroke-width="4" stroke="black" fill="dimgray" stroke-linecap="round" />
<path d="M755.625 269.375 Q775.625 274.375 755.625 279.375" stroke-width="4" stroke="black" fill="none" stroke-linecap="round" />


<!-- renderPart: cylinder -->
<path d="M739.325 276.875 L763.175 276.875 L763.175 323.125 L739.325 323.125 L739.325 276.875" stroke-width="0" stroke="none" stroke-linejoin="round" fill="white" fill-opacity="1"/>
<path d="M739.325 276.875 L763.175 276.875 M763.175 323.125 L739.325 323.125" stroke-width="0.5" stroke="black" stroke-linejoin="round" fill="white" fill-opacity="1"/>
<!-- !right !both --><path d="M763.175 276.875 L763.175 323.125" stroke-width="0.5" stroke="black" stroke-linejoin="round" fill="white" fill-opacity="1"/>
<!-- !left !both --><path d="M739.325 276.875 L739.325 323.125" stroke-width="0.5" stroke="black" stroke-linejoin="round" fill="white" fill-opacity="1"/>
<line x1="560.625" y1="269.375" x2="575.625" y2="269.375" stroke-width="3" stroke="white" fill="white" stroke-linecap="round" />
<line x1="575.625" y1="269.375" x2="595.625" y2="278.125" stroke-width="3" stroke="white" fill="white" stroke-linecap="round" />
<line x1="595.625" y1="278.125" x2="615.625" y2="269.375" stroke-width="3" stroke="white" fill="white" stroke-linecap="round" />
<line x1="615.625" y1="269.375" x2="755.625" y2="269.375" stroke-width="3" stroke="white" fill="white" stroke-linecap="round" />
<path d="M755.625 269.375 Q775.625 274.375 755.625 279.375" stroke-width="3" stroke="white" fill="none" stroke-linecap="round" />


<!-- renderSideComponent: tail -->


<!-- renderPart: cone -->
<path d="M763.075 280 L771.925 280.625 L771.925 319.375 L763.075 320 L763.075 280" stroke-width="0" stroke="none" stroke-linejoin="round" fill="white" fill-opacity="1"/>
<path d="M763.075 280 L771.925 280.625 M771.925 319.375 L763.075 320" stroke-width="0.5" stroke="black" stroke-linejoin="round" fill="white" fill-opacity="1"/>
<!-- !right !both --><path d="M771.925 280.625 L771.925 319.375" stroke-width="0.5" stroke="black" stroke-linejoin="round" fill="white" fill-opacity="1"/>
<!-- !left !both --><path d="M763.075 280 L763.075 320" stroke-width="0.5" stroke="black" stroke-linejoin="round" fill="white" fill-opacity="1"/>


<!-- renderPart: cylinder -->
<path d="M771.825 280.625 L780.675 280.625 L780.675 319.375 L771.825 319.375 L771.825 280.625" stroke-width="0" stroke="none" stroke-linejoin="round" fill="white" fill-opacity="1"/>
<path d="M771.825 280.625 L780.675 280.625 M780.675 319.375 L771.825 319.375" stroke-width="0.5" stroke="black" stroke-linejoin="round" fill="white" fill-opacity="1"/>
<!-- !right !both --><path d="M780.675 280.625 L780.675 319.375" stroke-width="0.5" stroke="black" stroke-linejoin="round" fill="white" fill-opacity="1"/>
<!-- !left !both --><path d="M771.825 280.625 L771.825 319.375" stroke-width="0.5" stroke="black" stroke-linejoin="round" fill="white" fill-opacity="1"/>


<!-- renderSideComponent: cap -->


<!-- renderPart: cylinder -->
<path d="M780.575 285 L801.925 285 L801.925 315 L780.575 315 L780.575 285" stroke-width="0" stroke="none" stroke-linejoin="round" fill="white" fill-opacity="1"/>
<path d="M780.575 285 L801.925 285 M801.925 315 L780.575 315" stroke-width="0.5" stroke="black" stroke-linejoin="round" fill="white" fill-opacity="1"/>
<!-- !right !both --><path d="M801.925 285 L801.925 315" stroke-width="0.5" stroke="black" stroke-linejoin="round" fill="white" fill-opacity="1"/>
<!-- !left !both --><path d="M780.575 285 L780.575 315" stroke-width="0.5" stroke="black" stroke-linejoin="round" fill="white" fill-opacity="1"/>


<!-- renderPart: octagonal -->
<path d="M801.825 280 L848.175 280 L848.175 320 L801.825 320 L801.825 280" stroke-width="0" stroke="none" stroke-linejoin="round" fill="white" fill-opacity="1"/>
<path d="M801.825 280 L848.175 280 M848.175 320 L801.825 320" stroke-width="0.5" stroke="black" stroke-linejoin="round" fill="white" fill-opacity="1"/>
<!-- !right !both --><path d="M848.175 280 L848.175 320" stroke-width="0.5" stroke="black" stroke-linejoin="round" fill="white" fill-opacity="1"/>
<!-- !left !both --><path d="M801.825 280 L801.825 320" stroke-width="0.5" stroke="black" stroke-linejoin="round" fill="white" fill-opacity="1"/>
<line x1="801.875" y1="288.57142857142856" x2="848.125" y2="288.57142857142856" stroke-width="1.5" stroke="gray" fill="gray" stroke-opacity="1.0"/>
<line x1="801.875" y1="288.57142857142856" x2="848.125" y2="288.57142857142856" stroke-width="0.5" stroke="black" fill="none" stroke-opacity="0.5"/>
<line x1="801.875" y1="311.42857142857144" x2="848.125" y2="311.42857142857144" stroke-width="1.5" stroke="gray" fill="gray" stroke-opacity="1.0"/>
<line x1="801.875" y1="311.42857142857144" x2="848.125" y2="311.42857142857144" stroke-width="0.5" stroke="black" fill="none" stroke-opacity="0.5"/>


<!-- renderPart: cylinder -->
<path d="M848.075 278.75 L854.425 278.75 L854.425 321.25 L848.075 321.25 L848.075 278.75" stroke-width="0" stroke="none" stroke-linejoin="round" fill="white" fill-opacity="1"/>
<path d="M848.075 278.75 L854.425 278.75 M854.425 321.25 L848.075 321.25" stroke-width="0.5" stroke="black" stroke-linejoin="round" fill="white" fill-opacity="1"/>
<!-- !right !both --><path d="M854.425 278.75 L854.425 321.25" stroke-width="0.5" stroke="black" stroke-linejoin="round" fill="white" fill-opacity="1"/>
<!-- !left !both --><path d="M848.075 278.75 L848.075 321.25" stroke-width="0.5" stroke="black" stroke-linejoin="round" fill="white" fill-opacity="1"/>


<!-- renderPart: convex -->
<path d="M854.375 278.75 Q861.875 300 854.375 321.25" stroke-width="0.5" stroke="black" stroke-linejoin="round" fill="white" fill-opacity="1"/>

<!-- TAPER START: hexagonal -->
<path d="M 240.525 280.25 L 245.625 280.25 C 239.375 285, 239.375 295, 245.625 300 C 239.375 305, 239.375 315, 245.625 319.75 L 240.525 319.75 Z" stroke-width="0" stroke="0" stroke-linecap="round" fill-opacity="1" fill="white" /><path d="M 245.625 280.5 C 239.375 285, 239.375 295, 245.625 300 C 239.375 305, 239.375 315, 245.625 319.45" stroke-width="1.5" stroke="gray" stroke-linecap="round" fill-opacity="0" fill="none" /><path d="M 245.625 280.5 C 239.375 285, 239.375 295, 245.625 300 C 239.375 305, 239.375 315, 245.625 319.5" stroke-width="0.5" stroke="black" stroke-opacity="0.5" stroke-linecap="round" fill-opacity="0" fill="none" /><line x1="141.875" y1="205.875" x2="141.875" y2="227.875" stroke="black" stroke-width="1" />
<line x1="141.875" y1="216.875" x2="240.625" y2="216.875" stroke="black" stroke-width="1" />
<line x1="240.625" y1="205.875" x2="240.625" y2="227.875" stroke="black" stroke-width="1" />
<text x="191.25" y="197.875" font-size="1.2em" font-weight="bold" text-anchor="middle" dominant-baseline="central" fill="black"><tspan x="191.25" dy="0">19.75 mm</tspan></text>
<line x1="141.875" y1="205.875" x2="141.875" y2="227.875" stroke="black" stroke-width="1" />
<line x1="141.875" y1="216.875" x2="240.625" y2="216.875" stroke="black" stroke-width="1" />
<line x1="240.625" y1="205.875" x2="240.625" y2="227.875" stroke="black" stroke-width="1" />
<text x="191.25" y="235.875" font-size="1.2em" font-weight="bold" text-anchor="middle" dominant-baseline="central" fill="black"><tspan x="191.25" dy="0">tip</tspan></text>
<line x1="240.625" y1="205.875" x2="240.625" y2="227.875" stroke="black" stroke-width="1" />
<line x1="240.625" y1="216.875" x2="780.625" y2="216.875" stroke="black" stroke-width="1" />
<line x1="780.625" y1="205.875" x2="780.625" y2="227.875" stroke="black" stroke-width="1" />
<text x="510.625" y="197.875" font-size="1.2em" font-weight="bold" text-anchor="middle" dominant-baseline="central" fill="black"><tspan x="510.625" dy="0">108.00 mm</tspan></text>
<line x1="240.625" y1="205.875" x2="240.625" y2="227.875" stroke="black" stroke-width="1" />
<line x1="240.625" y1="216.875" x2="780.625" y2="216.875" stroke="black" stroke-width="1" />
<line x1="780.625" y1="205.875" x2="780.625" y2="227.875" stroke="black" stroke-width="1" />
<text x="510.625" y="235.875" font-size="1.2em" font-weight="bold" text-anchor="middle" dominant-baseline="central" fill="black"><tspan x="510.625" dy="0">body</tspan></text>
<line x1="780.625" y1="205.875" x2="780.625" y2="227.875" stroke="black" stroke-width="1" />
<line x1="780.625" y1="216.875" x2="858.125" y2="216.875" stroke="black" stroke-width="1" />
<line x1="858.125" y1="205.875" x2="858.125" y2="227.875" stroke="black" stroke-width="1" />
<text x="819.375" y="197.875" font-size="1.2em" font-weight="bold" text-anchor="middle" dominant-baseline="central" fill="black"><tspan x="819.375" dy="0">15.50 mm</tspan></text>
<line x1="780.625" y1="205.875" x2="780.625" y2="227.875" stroke="black" stroke-width="1" />
<line x1="780.625" y1="216.875" x2="858.125" y2="216.875" stroke="black" stroke-width="1" />
<line x1="858.125" y1="205.875" x2="858.125" y2="227.875" stroke="black" stroke-width="1" />
<text x="819.375" y="235.875" font-size="1.2em" font-weight="bold" text-anchor="middle" dominant-baseline="central" fill="black"><tspan x="819.375" dy="0">cap</tspan></text>
<line x1="141.875" y1="402.125" x2="141.875" y2="424.125" stroke="black" stroke-width="1" />
<line x1="141.875" y1="413.125" x2="858.125" y2="413.125" stroke="black" stroke-width="1" />
<line x1="858.125" y1="402.125" x2="858.125" y2="424.125" stroke="black" stroke-width="1" />
<text x="500" y="432.125" font-size="1.2em" font-weight="bold" text-anchor="middle" dominant-baseline="central" fill="black"><tspan x="500" dy="0">143.25 mm</tspan></text>
<line x1="141.875" y1="402.125" x2="141.875" y2="424.125" stroke="black" stroke-width="1" />
<line x1="141.875" y1="413.125" x2="858.125" y2="413.125" stroke="black" stroke-width="1" />
<line x1="858.125" y1="402.125" x2="858.125" y2="424.125" stroke="black" stroke-width="1" />
<text x="500" y="394.125" font-size="1.2em" font-weight="bold" text-anchor="middle" dominant-baseline="central" fill="black"><tspan x="500" dy="0">Total Length</tspan></text>
<line x1="560.625" y1="342.125" x2="560.625" y2="364.125" stroke="black" stroke-width="1" />
<line x1="560.625" y1="353.125" x2="763.125" y2="353.125" stroke="black" stroke-width="1" />
<line x1="763.125" y1="342.125" x2="763.125" y2="364.125" stroke="black" stroke-width="1" />
<text x="661.875" y="334.125" font-size="1.2em" font-weight="bold" text-anchor="middle" dominant-baseline="central" fill="black"><tspan x="661.875" dy="0">40.50 mm</tspan></text>
<line x1="560.625" y1="342.125" x2="560.625" y2="364.125" stroke="black" stroke-width="1" />
<line x1="560.625" y1="353.125" x2="763.125" y2="353.125" stroke="black" stroke-width="1" />
<line x1="763.125" y1="342.125" x2="763.125" y2="364.125" stroke="black" stroke-width="1" />
<text x="661.875" y="372.125" font-size="1.2em" font-weight="bold" text-anchor="middle" dominant-baseline="central" fill="black"><tspan x="661.875" dy="0">clip</tspan></text>
<line x1="414" y1="524" x2="414" y2="562" stroke="black" stroke-linecap="round"  stroke-width="2" />
<line x1="240" y1="540" x2="414" y2="540" stroke-linecap="round" stroke="black"  stroke-width="2" />
<line x1="246" y1="544" x2="414" y2="544" stroke-linecap="round" stroke="black"  stroke-width="2" />
<text x="500" y="540" font-size="2.4em" font-weight="bold" text-anchor="middle" dominant-baseline="central">Variants</text>
<line x1="586" y1="540" x2="760" y2="540" stroke-linecap="round" stroke="black"  stroke-width="2" />
<line x1="586" y1="544" x2="754" y2="544" stroke-linecap="round" stroke="black"  stroke-width="2" />
<line x1="586" y1="524" x2="586" y2="562" stroke="black" stroke-linecap="round"  stroke-width="2" />


<!-- renderSideComponent: tip -->


<!-- renderPart: cylinder -->
<path d="M141.825 630.625 L154.425 630.625 L154.425 649.375 L141.825 649.375 L141.825 630.625" stroke-width="0" stroke="none" stroke-linejoin="round" fill="silver" fill-opacity="1"/>
<path d="M141.825 630.625 L154.425 630.625 M154.425 649.375 L141.825 649.375" stroke-width="0.5" stroke="black" stroke-linejoin="round" fill="silver" fill-opacity="1"/>
<!-- !right !both --><path d="M154.425 630.625 L154.425 649.375" stroke-width="0.5" stroke="black" stroke-linejoin="round" fill="silver" fill-opacity="1"/>
<!-- !left !both --><path d="M141.825 630.625 L141.825 649.375" stroke-width="0.5" stroke="black" stroke-linejoin="round" fill="silver" fill-opacity="1"/>


<!-- renderPart: cone -->
<path d="M154.325 630 L195.675 621.25 L195.675 658.75 L154.325 650 L154.325 630" stroke-width="0" stroke="none" stroke-linejoin="round" fill="silver" fill-opacity="1"/>
<path d="M154.325 630 L195.675 621.25 M195.675 658.75 L154.325 650" stroke-width="0.5" stroke="black" stroke-linejoin="round" fill="silver" fill-opacity="1"/>
<!-- !right !both --><path d="M195.675 621.25 L195.675 658.75" stroke-width="0.5" stroke="black" stroke-linejoin="round" fill="silver" fill-opacity="1"/>
<!-- !left !both --><path d="M154.325 630 L154.325 650" stroke-width="0.5" stroke="black" stroke-linejoin="round" fill="silver" fill-opacity="1"/>


<!-- renderPart: cylinder -->
<path d="M195.575 621.25 L210.675 621.25 L210.675 658.75 L195.575 658.75 L195.575 621.25" stroke-width="0" stroke="none" stroke-linejoin="round" fill="silver" fill-opacity="1"/>
<path d="M195.575 621.25 L210.675 621.25 M210.675 658.75 L195.575 658.75" stroke-width="0.5" stroke="black" stroke-linejoin="round" fill="silver" fill-opacity="1"/>
<!-- !right !both --><path d="M210.675 621.25 L210.675 658.75" stroke-width="0.5" stroke="black" stroke-linejoin="round" fill="silver" fill-opacity="1"/>
<!-- !left !both --><path d="M195.575 621.25 L195.575 658.75" stroke-width="0.5" stroke="black" stroke-linejoin="round" fill="silver" fill-opacity="1"/>


<!-- renderPart: cylinder -->
<path d="M210.575 619.375 L240.675 619.375 L240.675 660.625 L210.575 660.625 L210.575 619.375" stroke-width="0" stroke="none" stroke-linejoin="round" fill="silver" fill-opacity="1"/>
<path d="M210.575 619.375 L240.675 619.375 M240.675 660.625 L210.575 660.625" stroke-width="0.5" stroke="black" stroke-linejoin="round" fill="silver" fill-opacity="1"/>
<!-- !right !both --><path d="M240.675 619.375 L240.675 660.625" stroke-width="0.5" stroke="black" stroke-linejoin="round" fill="silver" fill-opacity="1"/>
<!-- !left !both --><path d="M210.575 619.375 L210.575 660.625" stroke-width="0.5" stroke="black" stroke-linejoin="round" fill="silver" fill-opacity="1"/>


<!-- renderSideComponent: body -->


<!-- renderPart: hexagonal -->
<path d="M240.575 620 L739.425 620 L739.425 660 L240.575 660 L240.575 620" stroke-width="0" stroke="none" stroke-linejoin="round" fill="#000000" fill-opacity="1"/>
<path d="M240.575 620 L739.425 620 M739.425 660 L240.575 660" stroke-width="0.5" stroke="black" stroke-linejoin="round" fill="#000000" fill-opacity="1"/>
<!-- !right !both --><path d="M739.425 620 L739.425 660" stroke-width="0.5" stroke="black" stroke-linejoin="round" fill="#000000" fill-opacity="1"/>
<!-- !left !both --><path d="M240.575 620 L240.575 660" stroke-width="0.5" stroke="black" stroke-linejoin="round" fill="#000000" fill-opacity="1"/>
<line x1="245.625" y1="640" x2="744.375" y2="640" stroke-width="1.5" stroke="gray" fill="gray" stroke-opacity="1.0"/>
<line x1="245.625" y1="640" x2="744.375" y2="640" stroke-width="0.5" stroke="black" fill="none" stroke-opacity="0.5"/>


<!-- renderSideComponent: clip -->
<line x1="560.625" y1="609.375" x2="575.625" y2="609.375" stroke-width="4" stroke="black" fill="dimgray" stroke-linecap="round" />
<line x1="575.625" y1="609.375" x2="595.625" y2="618.125" stroke-width="4" stroke="black" fill="dimgray" stroke-linecap="round" />
<line x1="595.625" y1="618.125" x2="615.625" y2="609.375" stroke-width="4" stroke="black" fill="dimgray" stroke-linecap="round" />
<line x1="615.625" y1="609.375" x2="755.625" y2="609.375" stroke-width="4" stroke="black" fill="dimgray" stroke-linecap="round" />
<path d="M755.625 609.375 Q775.625 614.375 755.625 619.375" stroke-width="4" stroke="black" fill="none" stroke-linecap="round" />


<!-- renderPart: cylinder -->
<path d="M739.325 616.875 L763.175 616.875 L763.175 663.125 L739.325 663.125 L739.325 616.875" stroke-width="0" stroke="none" stroke-linejoin="round" fill="silver" fill-opacity="1"/>
<path d="M739.325 616.875 L763.175 616.875 M763.175 663.125 L739.325 663.125" stroke-width="0.5" stroke="black" stroke-linejoin="round" fill="silver" fill-opacity="1"/>
<!-- !right !both --><path d="M763.175 616.875 L763.175 663.125" stroke-width="0.5" stroke="black" stroke-linejoin="round" fill="silver" fill-opacity="1"/>
<!-- !left !both --><path d="M739.325 616.875 L739.325 663.125" stroke-width="0.5" stroke="black" stroke-linejoin="round" fill="silver" fill-opacity="1"/>
<line x1="560.625" y1="609.375" x2="575.625" y2="609.375" stroke-width="3" stroke="silver" fill="silver" stroke-linecap="round" />
<line x1="575.625" y1="609.375" x2="595.625" y2="618.125" stroke-width="3" stroke="silver" fill="silver" stroke-linecap="round" />
<line x1="595.625" y1="618.125" x2="615.625" y2="609.375" stroke-width="3" stroke="silver" fill="silver" stroke-linecap="round" />
<line x1="615.625" y1="609.375" x2="755.625" y2="609.375" stroke-width="3" stroke="silver" fill="silver" stroke-linecap="round" />
<path d="M755.625 609.375 Q775.625 614.375 755.625 619.375" stroke-width="3" stroke="silver" fill="none" stroke-linecap="round" />


<!-- renderSideComponent: tail -->


<!-- renderPart: cone -->
<path d="M763.075 620 L771.925 620.625 L771.925 659.375 L763.075 660 L763.075 620" stroke-width="0" stroke="none" stroke-linejoin="round" fill="#000000" fill-opacity="1"/>
<path d="M763.075 620 L771.925 620.625 M771.925 659.375 L763.075 660" stroke-width="0.5" stroke="black" stroke-linejoin="round" fill="#000000" fill-opacity="1"/>
<!-- !right !both --><path d="M771.925 620.625 L771.925 659.375" stroke-width="0.5" stroke="black" stroke-linejoin="round" fill="#000000" fill-opacity="1"/>
<!-- !left !both --><path d="M763.075 620 L763.075 660" stroke-width="0.5" stroke="black" stroke-linejoin="round" fill="#000000" fill-opacity="1"/>


<!-- renderPart: cylinder -->
<path d="M771.825 620.625 L780.675 620.625 L780.675 659.375 L771.825 659.375 L771.825 620.625" stroke-width="0" stroke="none" stroke-linejoin="round" fill="#000000" fill-opacity="1"/>
<path d="M771.825 620.625 L780.675 620.625 M780.675 659.375 L771.825 659.375" stroke-width="0.5" stroke="black" stroke-linejoin="round" fill="#000000" fill-opacity="1"/>
<!-- !right !both --><path d="M780.675 620.625 L780.675 659.375" stroke-width="0.5" stroke="black" stroke-linejoin="round" fill="#000000" fill-opacity="1"/>
<!-- !left !both --><path d="M771.825 620.625 L771.825 659.375" stroke-width="0.5" stroke="black" stroke-linejoin="round" fill="#000000" fill-opacity="1"/>


<!-- renderSideComponent: cap -->


<!-- renderPart: cylinder -->
<path d="M780.575 625 L801.925 625 L801.925 655 L780.575 655 L780.575 625" stroke-width="0" stroke="none" stroke-linejoin="round" fill="#000000" fill-opacity="1"/>
<path d="M780.575 625 L801.925 625 M801.925 655 L780.575 655" stroke-width="0.5" stroke="black" stroke-linejoin="round" fill="#000000" fill-opacity="1"/>
<!-- !right !both --><path d="M801.925 625 L801.925 655" stroke-width="0.5" stroke="black" stroke-linejoin="round" fill="#000000" fill-opacity="1"/>
<!-- !left !both --><path d="M780.575 625 L780.575 655" stroke-width="0.5" stroke="black" stroke-linejoin="round" fill="#000000" fill-opacity="1"/>


<!-- renderPart: octagonal -->
<path d="M801.825 620 L848.175 620 L848.175 660 L801.825 660 L801.825 620" stroke-width="0" stroke="none" stroke-linejoin="round" fill="#000000" fill-opacity="1"/>
<path d="M801.825 620 L848.175 620 M848.175 660 L801.825 660" stroke-width="0.5" stroke="black" stroke-linejoin="round" fill="#000000" fill-opacity="1"/>
<!-- !right !both --><path d="M848.175 620 L848.175 660" stroke-width="0.5" stroke="black" stroke-linejoin="round" fill="#000000" fill-opacity="1"/>
<!-- !left !both --><path d="M801.825 620 L801.825 660" stroke-width="0.5" stroke="black" stroke-linejoin="round" fill="#000000" fill-opacity="1"/>
<line x1="801.875" y1="628.5714285714286" x2="848.125" y2="628.5714285714286" stroke-width="1.5" stroke="gray" fill="gray" stroke-opacity="1.0"/>
<line x1="801.875" y1="628.5714285714286" x2="848.125" y2="628.5714285714286" stroke-width="0.5" stroke="black" fill="none" stroke-opacity="0.5"/>
<line x1="801.875" y1="651.4285714285714" x2="848.125" y2="651.4285714285714" stroke-width="1.5" stroke="gray" fill="gray" stroke-opacity="1.0"/>
<line x1="801.875" y1="651.4285714285714" x2="848.125" y2="651.4285714285714" stroke-width="0.5" stroke="black" fill="none" stroke-opacity="0.5"/>


<!-- renderPart: cylinder -->
<path d="M848.075 618.75 L854.425 618.75 L854.425 661.25 L848.075 661.25 L848.075 618.75" stroke-width="0" stroke="none" stroke-linejoin="round" fill="#000000" fill-opacity="1"/>
<path d="M848.075 618.75 L854.425 618.75 M854.425 661.25 L848.075 661.25" stroke-width="0.5" stroke="black" stroke-linejoin="round" fill="#000000" fill-opacity="1"/>
<!-- !right !both --><path d="M854.425 618.75 L854.425 661.25" stroke-width="0.5" stroke="black" stroke-linejoin="round" fill="#000000" fill-opacity="1"/>
<!-- !left !both --><path d="M848.075 618.75 L848.075 661.25" stroke-width="0.5" stroke="black" stroke-linejoin="round" fill="#000000" fill-opacity="1"/>


<!-- renderPart: convex -->
<path d="M854.375 618.75 Q861.875 640 854.375 661.25" stroke-width="0.5" stroke="black" stroke-linejoin="round" fill="#000000" fill-opacity="1"/>

<!-- TAPER START: hexagonal -->
<path d="M 240.525 620.25 L 245.625 620.25 C 239.375 625, 239.375 635, 245.625 640 C 239.375 645, 239.375 655, 245.625 659.75 L 240.525 659.75 Z" stroke-width="0" stroke="0" stroke-linecap="round" fill-opacity="1" fill="#000000" /><path d="M 245.625 620.5 C 239.375 625, 239.375 635, 245.625 640 C 239.375 645, 239.375 655, 245.625 659.45" stroke-width="1.5" stroke="gray" stroke-linecap="round" fill-opacity="0" fill="none" /><path d="M 245.625 620.5 C 239.375 625, 239.375 635, 245.625 640 C 239.375 645, 239.375 655, 245.625 659.5" stroke-width="0.5" stroke="black" stroke-opacity="0.5" stroke-linecap="round" fill-opacity="0" fill="none" /><text x="500" y="690" font-size="1.2em" font-weight="bold" text-anchor="middle" dominant-baseline="central">black</text>


<!-- renderSideComponent: tip -->


<!-- renderPart: cylinder -->
<path d="M141.825 750.625 L154.425 750.625 L154.425 769.375 L141.825 769.375 L141.825 750.625" stroke-width="0" stroke="none" stroke-linejoin="round" fill="silver" fill-opacity="1"/>
<path d="M141.825 750.625 L154.425 750.625 M154.425 769.375 L141.825 769.375" stroke-width="0.5" stroke="black" stroke-linejoin="round" fill="silver" fill-opacity="1"/>
<!-- !right !both --><path d="M154.425 750.625 L154.425 769.375" stroke-width="0.5" stroke="black" stroke-linejoin="round" fill="silver" fill-opacity="1"/>
<!-- !left !both --><path d="M141.825 750.625 L141.825 769.375" stroke-width="0.5" stroke="black" stroke-linejoin="round" fill="silver" fill-opacity="1"/>


<!-- renderPart: cone -->
<path d="M154.325 750 L195.675 741.25 L195.675 778.75 L154.325 770 L154.325 750" stroke-width="0" stroke="none" stroke-linejoin="round" fill="silver" fill-opacity="1"/>
<path d="M154.325 750 L195.675 741.25 M195.675 778.75 L154.325 770" stroke-width="0.5" stroke="black" stroke-linejoin="round" fill="silver" fill-opacity="1"/>
<!-- !right !both --><path d="M195.675 741.25 L195.675 778.75" stroke-width="0.5" stroke="black" stroke-linejoin="round" fill="silver" fill-opacity="1"/>
<!-- !left !both --><path d="M154.325 750 L154.325 770" stroke-width="0.5" stroke="black" stroke-linejoin="round" fill="silver" fill-opacity="1"/>


<!-- renderPart: cylinder -->
<path d="M195.575 741.25 L210.675 741.25 L210.675 778.75 L195.575 778.75 L195.575 741.25" stroke-width="0" stroke="none" stroke-linejoin="round" fill="silver" fill-opacity="1"/>
<path d="M195.575 741.25 L210.675 741.25 M210.675 778.75 L195.575 778.75" stroke-width="0.5" stroke="black" stroke-linejoin="round" fill="silver" fill-opacity="1"/>
<!-- !right !both --><path d="M210.675 741.25 L210.675 778.75" stroke-width="0.5" stroke="black" stroke-linejoin="round" fill="silver" fill-opacity="1"/>
<!-- !left !both --><path d="M195.575 741.25 L195.575 778.75" stroke-width="0.5" stroke="black" stroke-linejoin="round" fill="silver" fill-opacity="1"/>


<!-- renderPart: cylinder -->
<path d="M210.575 739.375 L240.675 739.375 L240.675 780.625 L210.575 780.625 L210.575 739.375" stroke-width="0" stroke="none" stroke-linejoin="round" fill="silver" fill-opacity="1"/>
<path d="M210.575 739.375 L240.675 739.375 M240.675 780.625 L210.575 780.625" stroke-width="0.5" stroke="black" stroke-linejoin="round" fill="silver" fill-opacity="1"/>
<!-- !right !both --><path d="M240.675 739.375 L240.675 780.625" stroke-width="0.5" stroke="black" stroke-linejoin="round" fill="silver" fill-opacity="1"/>
<!-- !left !both --><path d="M210.575 739.375 L210.575 780.625" stroke-width="0.5" stroke="black" stroke-linejoin="round" fill="silver" fill-opacity="1"/>


<!-- renderSideComponent: body -->


<!-- renderPart: hexagonal -->
<path d="M240.575 740 L739.425 740 L739.425 780 L240.575 780 L240.575 740" stroke-width="0" stroke="none" stroke-linejoin="round" fill="#AEDCDE" fill-opacity="1"/>
<path d="M240.575 740 L739.425 740 M739.425 780 L240.575 780" stroke-width="0.5" stroke="black" stroke-linejoin="round" fill="#AEDCDE" fill-opacity="1"/>
<!-- !right !both --><path d="M739.425 740 L739.425 780" stroke-width="0.5" stroke="black" stroke-linejoin="round" fill="#AEDCDE" fill-opacity="1"/>
<!-- !left !both --><path d="M240.575 740 L240.575 780" stroke-width="0.5" stroke="black" stroke-linejoin="round" fill="#AEDCDE" fill-opacity="1"/>
<line x1="245.625" y1="760" x2="744.375" y2="760" stroke-width="1.5" stroke="gray" fill="gray" stroke-opacity="1.0"/>
<line x1="245.625" y1="760" x2="744.375" y2="760" stroke-width="0.5" stroke="black" fill="none" stroke-opacity="0.5"/>


<!-- renderSideComponent: clip -->
<line x1="560.625" y1="729.375" x2="575.625" y2="729.375" stroke-width="4" stroke="black" fill="dimgray" stroke-linecap="round" />
<line x1="575.625" y1="729.375" x2="595.625" y2="738.125" stroke-width="4" stroke="black" fill="dimgray" stroke-linecap="round" />
<line x1="595.625" y1="738.125" x2="615.625" y2="729.375" stroke-width="4" stroke="black" fill="dimgray" stroke-linecap="round" />
<line x1="615.625" y1="729.375" x2="755.625" y2="729.375" stroke-width="4" stroke="black" fill="dimgray" stroke-linecap="round" />
<path d="M755.625 729.375 Q775.625 734.375 755.625 739.375" stroke-width="4" stroke="black" fill="none" stroke-linecap="round" />


<!-- renderPart: cylinder -->
<path d="M739.325 736.875 L763.175 736.875 L763.175 783.125 L739.325 783.125 L739.325 736.875" stroke-width="0" stroke="none" stroke-linejoin="round" fill="silver" fill-opacity="1"/>
<path d="M739.325 736.875 L763.175 736.875 M763.175 783.125 L739.325 783.125" stroke-width="0.5" stroke="black" stroke-linejoin="round" fill="silver" fill-opacity="1"/>
<!-- !right !both --><path d="M763.175 736.875 L763.175 783.125" stroke-width="0.5" stroke="black" stroke-linejoin="round" fill="silver" fill-opacity="1"/>
<!-- !left !both --><path d="M739.325 736.875 L739.325 783.125" stroke-width="0.5" stroke="black" stroke-linejoin="round" fill="silver" fill-opacity="1"/>
<line x1="560.625" y1="729.375" x2="575.625" y2="729.375" stroke-width="3" stroke="silver" fill="silver" stroke-linecap="round" />
<line x1="575.625" y1="729.375" x2="595.625" y2="738.125" stroke-width="3" stroke="silver" fill="silver" stroke-linecap="round" />
<line x1="595.625" y1="738.125" x2="615.625" y2="729.375" stroke-width="3" stroke="silver" fill="silver" stroke-linecap="round" />
<line x1="615.625" y1="729.375" x2="755.625" y2="729.375" stroke-width="3" stroke="silver" fill="silver" stroke-linecap="round" />
<path d="M755.625 729.375 Q775.625 734.375 755.625 739.375" stroke-width="3" stroke="silver" fill="none" stroke-linecap="round" />


<!-- renderSideComponent: tail -->


<!-- renderPart: cone -->
<path d="M763.075 740 L771.925 740.625 L771.925 779.375 L763.075 780 L763.075 740" stroke-width="0" stroke="none" stroke-linejoin="round" fill="#AEDCDE" fill-opacity="1"/>
<path d="M763.075 740 L771.925 740.625 M771.925 779.375 L763.075 780" stroke-width="0.5" stroke="black" stroke-linejoin="round" fill="#AEDCDE" fill-opacity="1"/>
<!-- !right !both --><path d="M771.925 740.625 L771.925 779.375" stroke-width="0.5" stroke="black" stroke-linejoin="round" fill="#AEDCDE" fill-opacity="1"/>
<!-- !left !both --><path d="M763.075 740 L763.075 780" stroke-width="0.5" stroke="black" stroke-linejoin="round" fill="#AEDCDE" fill-opacity="1"/>


<!-- renderPart: cylinder -->
<path d="M771.825 740.625 L780.675 740.625 L780.675 779.375 L771.825 779.375 L771.825 740.625" stroke-width="0" stroke="none" stroke-linejoin="round" fill="#AEDCDE" fill-opacity="1"/>
<path d="M771.825 740.625 L780.675 740.625 M780.675 779.375 L771.825 779.375" stroke-width="0.5" stroke="black" stroke-linejoin="round" fill="#AEDCDE" fill-opacity="1"/>
<!-- !right !both --><path d="M780.675 740.625 L780.675 779.375" stroke-width="0.5" stroke="black" stroke-linejoin="round" fill="#AEDCDE" fill-opacity="1"/>
<!-- !left !both --><path d="M771.825 740.625 L771.825 779.375" stroke-width="0.5" stroke="black" stroke-linejoin="round" fill="#AEDCDE" fill-opacity="1"/>


<!-- renderSideComponent: cap -->


<!-- renderPart: cylinder -->
<path d="M780.575 745 L801.925 745 L801.925 775 L780.575 775 L780.575 745" stroke-width="0" stroke="none" stroke-linejoin="round" fill="#AEDCDE" fill-opacity="1"/>
<path d="M780.575 745 L801.925 745 M801.925 775 L780.575 775" stroke-width="0.5" stroke="black" stroke-linejoin="round" fill="#AEDCDE" fill-opacity="1"/>
<!-- !right !both --><path d="M801.925 745 L801.925 775" stroke-width="0.5" stroke="black" stroke-linejoin="round" fill="#AEDCDE" fill-opacity="1"/>
<!-- !left !both --><path d="M780.575 745 L780.575 775" stroke-width="0.5" stroke="black" stroke-linejoin="round" fill="#AEDCDE" fill-opacity="1"/>


<!-- renderPart: octagonal -->
<path d="M801.825 740 L848.175 740 L848.175 780 L801.825 780 L801.825 740" stroke-width="0" stroke="none" stroke-linejoin="round" fill="#AEDCDE" fill-opacity="1"/>
<path d="M801.825 740 L848.175 740 M848.175 780 L801.825 780" stroke-width="0.5" stroke="black" stroke-linejoin="round" fill="#AEDCDE" fill-opacity="1"/>
<!-- !right !both --><path d="M848.175 740 L848.175 780" stroke-width="0.5" stroke="black" stroke-linejoin="round" fill="#AEDCDE" fill-opacity="1"/>
<!-- !left !both --><path d="M801.825 740 L801.825 780" stroke-width="0.5" stroke="black" stroke-linejoin="round" fill="#AEDCDE" fill-opacity="1"/>
<line x1="801.875" y1="748.5714285714286" x2="848.125" y2="748.5714285714286" stroke-width="1.5" stroke="gray" fill="gray" stroke-opacity="1.0"/>
<line x1="801.875" y1="748.5714285714286" x2="848.125" y2="748.5714285714286" stroke-width="0.5" stroke="black" fill="none" stroke-opacity="0.5"/>
<line x1="801.875" y1="771.4285714285714" x2="848.125" y2="771.4285714285714" stroke-width="1.5" stroke="gray" fill="gray" stroke-opacity="1.0"/>
<line x1="801.875" y1="771.4285714285714" x2="848.125" y2="771.4285714285714" stroke-width="0.5" stroke="black" fill="none" stroke-opacity="0.5"/>


<!-- renderPart: cylinder -->
<path d="M848.075 738.75 L854.425 738.75 L854.425 781.25 L848.075 781.25 L848.075 738.75" stroke-width="0" stroke="none" stroke-linejoin="round" fill="#AEDCDE" fill-opacity="1"/>
<path d="M848.075 738.75 L854.425 738.75 M854.425 781.25 L848.075 781.25" stroke-width="0.5" stroke="black" stroke-linejoin="round" fill="#AEDCDE" fill-opacity="1"/>
<!-- !right !both --><path d="M854.425 738.75 L854.425 781.25" stroke-width="0.5" stroke="black" stroke-linejoin="round" fill="#AEDCDE" fill-opacity="1"/>
<!-- !left !both --><path d="M848.075 738.75 L848.075 781.25" stroke-width="0.5" stroke="black" stroke-linejoin="round" fill="#AEDCDE" fill-opacity="1"/>


<!-- renderPart: convex -->
<path d="M854.375 738.75 Q861.875 760 854.375 781.25" stroke-width="0.5" stroke="black" stroke-linejoin="round" fill="#AEDCDE" fill-opacity="1"/>

<!-- TAPER START: hexagonal -->
<path d="M 240.525 740.25 L 245.625 740.25 C 239.375 745, 239.375 755, 245.625 760 C 239.375 765, 239.375 775, 245.625 779.75 L 240.525 779.75 Z" stroke-width="0" stroke="0" stroke-linecap="round" fill-opacity="1" fill="#AEDCDE" /><path d="M 245.625 740.5 C 239.375 745, 239.375 755, 245.625 760 C 239.375 765, 239.375 775, 245.625 779.45" stroke-width="1.5" stroke="gray" stroke-linecap="round" fill-opacity="0" fill="none" /><path d="M 245.625 740.5 C 239.375 745, 239.375 755, 245.625 760 C 239.375 765, 239.375 775, 245.625 779.5" stroke-width="0.5" stroke="black" stroke-opacity="0.5" stroke-linecap="round" fill-opacity="0" fill="none" /><text x="500" y="810" font-size="1.2em" font-weight="bold" text-anchor="middle" dominant-baseline="central">blue</text>
</g><text x="50%" y="860" font-size="1.1em" font-weight="bold" text-anchor="middle" dominant-baseline="middle">Copyright (c) // Synapticloop // The Mechanical Pencil Database (tmpdb)</text>
<text x="50%" y="880" font-size="1.1em" font-weight="bold" text-anchor="middle" dominant-baseline="middle">Licensed under Creative Commons Attribution-NonCommercial-ShareAlike 4.0 International</text>
<text x="990" y="890" font-size="0.5em" font-weight="bold" text-anchor="end" dominant-baseline="middle">SVGTechnicalGroupedRenderer</text>
</svg>