<svg xmlns="http://www.w3.org/2000/svg" width="1400" height="440">
 <pattern id="knurled-large" patternUnits="userSpaceOnUse" width="12" height="12">
<path stroke="dimgray" stroke-linecap="round" stroke-width="1" d="M 6,6 L 12,12"/>
<path stroke="dimgray" stroke-linecap="round" stroke-width="1" d="M 6,6 L 0,12"/>
<path stroke="gray" stroke-linecap="round" stroke-width="1" d="M 6,6 L 12,0" />
<path stroke="gray" stroke-linecap="round" stroke-width="1" d="M 6,6 L 0,0" />
</pattern><pattern id="knurled-small" patternUnits="userSpaceOnUse" width="4" height="4">
<path stroke="dimgray" stroke-linecap="round" stroke-width="1" d="M 2,2 L 4,4"/>
<path stroke="dimgray" stroke-linecap="round" stroke-width="1" d="M 2,2 L 0,4"/>
<path stroke="gray" stroke-linecap="round" stroke-width="1" d="M 2,2 L 4,0" />
<path stroke="gray" stroke-linecap="round" stroke-width="1" d="M 2,2 L 0,0" />
</pattern><pattern id="knurled" patternUnits="userSpaceOnUse" width="8" height="8">
<path stroke="dimgray" stroke-linecap="round" stroke-width="1" d="M 4,4 L 8,8"/>
<path stroke="dimgray" stroke-linecap="round" stroke-width="1" d="M 4,4 L 0,8"/>
<path stroke="gray" stroke-linecap="round" stroke-width="1" d="M 4,4 L 8,0" />
<path stroke="gray" stroke-linecap="round" stroke-width="1" d="M 4,4 L 0,0" />
</pattern><pattern id="lined" patternUnits="userSpaceOnUse" width="3" height="3">
<path stroke="dimgray" stroke-linecap="round" stroke-width="1" d="M 0,0 L 3,0"/>
</pattern><pattern id="ridged" patternUnits="userSpaceOnUse" width="3" height="3">
<path stroke="dimgray" stroke-linecap="round" stroke-width="1" d="M 0,0 L 0,3"/>
</pattern><pattern id="spring" patternUnits="userSpaceOnUse" width="8" height="60">
<path stroke="dimgray" stroke-linecap="round" stroke-width="2" d="M 1,1 L 8,60"/>
<path stroke="white" stroke-linecap="round" stroke-width="1" d="M 1,1 L 8,60"/>
</pattern><rect x="0" y="0" width="1400" height="440" fill="white" stroke="black" stroke-width="4" />
<rect x="2" y="2" width="1396" height="436" fill="white" stroke="dimgray" stroke-width="1" />
<g transform="rotate(0 0 0)">
<text x="700" y="60" font-size="2.4em" font-weight="bold" text-anchor="middle" dominant-baseline="central">Alvin Pencils</text>
<line x1="40" y1="160" x2="1360" y2="160" stroke-linecap="round" stroke="#5f5f5f" stroke-dasharray="2" stroke-width="1" />
<line x1="20" y1="160" x2="60" y2="160" stroke-linecap="round" stroke="#000000"  stroke-width="1" />
<line x1="40" y1="140" x2="40" y2="180" stroke="#000000" stroke-linecap="round"  stroke-width="1" />
<circle r="10" cx="40" cy="160" fill="white" fill-opacity="0" stroke="#000000" stroke-width="1"  />
<line x1="1340" y1="160" x2="1380" y2="160" stroke-linecap="round" stroke="#000000"  stroke-width="1" />
<line x1="1360" y1="140" x2="1360" y2="180" stroke="#000000" stroke-linecap="round"  stroke-width="1" />
<circle r="10" cx="1360" cy="160" fill="white" fill-opacity="0" stroke="#000000" stroke-width="1"  />


<!-- renderSideComponent: jaws -->


<!-- renderPart: cone -->
<path d="M330.575 152.5 L348.175 145.625 L348.175 174.375 L330.575 167.5 Z" stroke-width="0" stroke="none" stroke-linejoin="round" fill="white" fill-opacity="1"/>
<path d="M330.625 152.5 L348.125 145.625 M348.125 174.375 L330.625 167.5" stroke-width="0.5" stroke="black" stroke-linejoin="round" fill="white" fill-opacity="1"/>
<!-- !right !both --><path d="M348.125 145.625 L348.125 174.375" stroke-width="0.5" stroke="black" stroke-linejoin="round" fill="white" fill-opacity="1"/>
<!-- !left !both --><path d="M330.625 152.5 L330.625 167.5" stroke-width="0.5" stroke="black" stroke-linejoin="round" fill="white" fill-opacity="1"/>


<!-- renderSideComponent: tip -->


<!-- renderPart: cone -->
<path d="M348.075 143.125 L420.675 141.25 L420.675 178.75 L348.075 176.875 Z" stroke-width="0" stroke="none" stroke-linejoin="round" fill="white" fill-opacity="1"/>
<path d="M348.125 143.125 L420.625 141.25 M420.625 178.75 L348.125 176.875" stroke-width="0.5" stroke="black" stroke-linejoin="round" fill="white" fill-opacity="1"/>
<!-- !right !both --><path d="M420.625 141.25 L420.625 178.75" stroke-width="0.5" stroke="black" stroke-linejoin="round" fill="white" fill-opacity="1"/>
<!-- !left !both --><path d="M348.125 143.125 L348.125 176.875" stroke-width="0.5" stroke="black" stroke-linejoin="round" fill="white" fill-opacity="1"/>


<!-- renderSideComponent: grip -->


<!-- renderPart: cylinder -->
<path d="M420.575 140 L574.425 140 L574.425 180 L420.575 180 Z" stroke-width="0" stroke="none" stroke-linejoin="round" fill="white" fill-opacity="1"/>
<path d="M420.625 140 L574.375 140 M574.375 180 L420.625 180" stroke-width="0.5" stroke="black" stroke-linejoin="round" fill="white" fill-opacity="1"/>
<!-- !right !both --><path d="M574.375 140 L574.375 180" stroke-width="0.5" stroke="black" stroke-linejoin="round" fill="white" fill-opacity="1"/>
<!-- !left !both --><path d="M420.625 140 L420.625 180" stroke-width="0.5" stroke="black" stroke-linejoin="round" fill="white" fill-opacity="1"/>
<path d="M420.625 140 L574.375 140 L574.375 180 L420.625 180 Z" stroke-width="1.0" stroke="black" fill="url(#knurled-small)"/>


<!-- renderSideComponent: body -->


<!-- renderPart: hexagonal -->
<path d="M574.325 140 L1024.425 139.375 L1024.425 180.625 L574.325 180 Z" stroke-width="0" stroke="none" stroke-linejoin="round" fill="white" fill-opacity="1"/>
<path d="M574.375 140 L1024.375 139.375 M1024.375 180.625 L574.375 180" stroke-width="0.5" stroke="black" stroke-linejoin="round" fill="white" fill-opacity="1"/>
<!-- !right !both --><path d="M1024.375 139.375 L1024.375 180.625" stroke-width="0.5" stroke="black" stroke-linejoin="round" fill="white" fill-opacity="1"/>
<!-- !left !both --><path d="M574.375 140 L574.375 180" stroke-width="0.5" stroke="black" stroke-linejoin="round" fill="white" fill-opacity="1"/>
<line x1="574.375" y1="160" x2="1024.375" y2="160" stroke-width="1.5" stroke="gray" fill="gray" stroke-opacity="1.0"/>
<line x1="574.375" y1="160" x2="1024.375" y2="160" stroke-width="0.5" stroke="black" fill="none" stroke-opacity="0.5"/>


<!-- renderSideComponent: clip -->
<line x1="826.875" y1="132.25" x2="846.875" y2="137.25" stroke-width="4" stroke="black" fill="dimgray" stroke-linecap="round" />
<line x1="846.875" y1="137.25" x2="968.125" y2="118.5" stroke-width="4" stroke="black" fill="dimgray" stroke-linecap="round" />
<line x1="968.625" y1="118.5" x2="1026.125" y2="122.25" stroke-width="4" stroke="black" fill="dimgray" stroke-linecap="round" />
<line x1="1026.125" y1="122.25" x2="1026.125" y2="139.75" stroke-width="4" stroke="black" fill="dimgray" stroke-linecap="round" />


<!-- renderPart: cylinder -->
<path d="M1024.325 138.75 L1028.175 138.75 L1028.175 181.25 L1024.325 181.25 Z" stroke-width="0" stroke="none" stroke-linejoin="round" fill="white" fill-opacity="1"/>
<path d="M1024.375 138.75 L1028.125 138.75 M1028.125 181.25 L1024.375 181.25" stroke-width="0.5" stroke="black" stroke-linejoin="round" fill="white" fill-opacity="1"/>
<!-- !right !both --><path d="M1028.125 138.75 L1028.125 181.25" stroke-width="0.5" stroke="black" stroke-linejoin="round" fill="white" fill-opacity="1"/>
<!-- !left !both --><path d="M1024.375 138.75 L1024.375 181.25" stroke-width="0.5" stroke="black" stroke-linejoin="round" fill="white" fill-opacity="1"/>
<line x1="826.875" y1="132.25" x2="846.875" y2="137.25" stroke-width="3" stroke="white" fill="white" stroke-linecap="round" />
<line x1="846.875" y1="137.25" x2="968.125" y2="118.5" stroke-width="3" stroke="white" fill="white" stroke-linecap="round" />
<line x1="968.625" y1="118.5" x2="1026.125" y2="122.25" stroke-width="3" stroke="white" fill="white" stroke-linecap="round" />
<line x1="1026.125" y1="122.25" x2="1026.125" y2="139.75" stroke-width="3" stroke="white" fill="white" stroke-linecap="round" />


<!-- renderSideComponent: tail -->


<!-- renderPart: cylinder -->
<path d="M1028.075 139.375 L1033.175 139.375 L1033.175 180.625 L1028.075 180.625 Z" stroke-width="0" stroke="none" stroke-linejoin="round" fill="white" fill-opacity="1"/>
<path d="M1028.125 139.375 L1033.125 139.375 M1033.125 180.625 L1028.125 180.625" stroke-width="0.5" stroke="black" stroke-linejoin="round" fill="white" fill-opacity="1"/>
<!-- !right !both --><path d="M1033.125 139.375 L1033.125 180.625" stroke-width="0.5" stroke="black" stroke-linejoin="round" fill="white" fill-opacity="1"/>
<!-- !left !both --><path d="M1028.125 139.375 L1028.125 180.625" stroke-width="0.5" stroke="black" stroke-linejoin="round" fill="white" fill-opacity="1"/>


<!-- renderSideComponent: cap -->


<!-- renderPart: cylinder -->
<path d="M1033.075 146.25 L1069.425 146.25 L1069.425 173.75 L1033.075 173.75 Z" stroke-width="0" stroke="none" stroke-linejoin="round" fill="white" fill-opacity="1"/>
<path d="M1033.125 146.25 L1069.375 146.25 M1069.375 173.75 L1033.125 173.75" stroke-width="0.5" stroke="black" stroke-linejoin="round" fill="white" fill-opacity="1"/>
<!-- !right !both --><path d="M1069.375 146.25 L1069.375 173.75" stroke-width="0.5" stroke="black" stroke-linejoin="round" fill="white" fill-opacity="1"/>
<text x="700" y="200" font-size="1.2em" font-weight="bold" text-anchor="middle" dominant-baseline="central">DA - TECH (2.0 mm)</text>
<line x1="40" y1="280" x2="1360" y2="280" stroke-linecap="round" stroke="#5f5f5f" stroke-dasharray="2" stroke-width="1" />
<line x1="20" y1="280" x2="60" y2="280" stroke-linecap="round" stroke="#000000"  stroke-width="1" />
<line x1="40" y1="260" x2="40" y2="300" stroke="#000000" stroke-linecap="round"  stroke-width="1" />
<circle r="10" cx="40" cy="280" fill="white" fill-opacity="0" stroke="#000000" stroke-width="1"  />
<line x1="1340" y1="280" x2="1380" y2="280" stroke-linecap="round" stroke="#000000"  stroke-width="1" />
<line x1="1360" y1="260" x2="1360" y2="300" stroke="#000000" stroke-linecap="round"  stroke-width="1" />
<circle r="10" cx="1360" cy="280" fill="white" fill-opacity="0" stroke="#000000" stroke-width="1"  />


<!-- renderSideComponent: jaws -->


<!-- renderPart: cone -->
<path d="M324.95 272.5 L342.55 265.625 L342.55 294.375 L324.95 287.5 Z" stroke-width="0" stroke="none" stroke-linejoin="round" fill="white" fill-opacity="1"/>
<path d="M325 272.5 L342.5 265.625 M342.5 294.375 L325 287.5" stroke-width="0.5" stroke="black" stroke-linejoin="round" fill="white" fill-opacity="1"/>
<!-- !right !both --><path d="M342.5 265.625 L342.5 294.375" stroke-width="0.5" stroke="black" stroke-linejoin="round" fill="white" fill-opacity="1"/>
<!-- !left !both --><path d="M325 272.5 L325 287.5" stroke-width="0.5" stroke="black" stroke-linejoin="round" fill="white" fill-opacity="1"/>


<!-- renderSideComponent: tip -->


<!-- renderPart: cone -->
<path d="M342.45 263.125 L415.05 261.25 L415.05 298.75 L342.45 296.875 Z" stroke-width="0" stroke="none" stroke-linejoin="round" fill="white" fill-opacity="1"/>
<path d="M342.5 263.125 L415 261.25 M415 298.75 L342.5 296.875" stroke-width="0.5" stroke="black" stroke-linejoin="round" fill="white" fill-opacity="1"/>
<!-- !right !both --><path d="M415 261.25 L415 298.75" stroke-width="0.5" stroke="black" stroke-linejoin="round" fill="white" fill-opacity="1"/>
<!-- !left !both --><path d="M342.5 263.125 L342.5 296.875" stroke-width="0.5" stroke="black" stroke-linejoin="round" fill="white" fill-opacity="1"/>


<!-- renderSideComponent: grip -->


<!-- renderPart: cylinder -->
<path d="M414.95 260 L543.8 260 L543.8 300 L414.95 300 Z" stroke-width="0" stroke="none" stroke-linejoin="round" fill="white" fill-opacity="1"/>
<path d="M415 260 L543.75 260 M543.75 300 L415 300" stroke-width="0.5" stroke="black" stroke-linejoin="round" fill="white" fill-opacity="1"/>
<!-- !right !both --><path d="M543.75 260 L543.75 300" stroke-width="0.5" stroke="black" stroke-linejoin="round" fill="white" fill-opacity="1"/>
<!-- !left !both --><path d="M415 260 L415 300" stroke-width="0.5" stroke="black" stroke-linejoin="round" fill="white" fill-opacity="1"/>
<path d="M415 260 L543.75 260 L543.75 300 L415 300 Z" stroke-width="1.0" stroke="black" fill="url(#knurled-small)"/>


<!-- renderSideComponent: body -->


<!-- renderPart: hexagonal -->
<path d="M543.7 260 L960.05 260 L960.05 300 L543.7 300 Z" stroke-width="0" stroke="none" stroke-linejoin="round" fill="white" fill-opacity="1"/>
<path d="M543.75 260 L960 260 M960 300 L543.75 300" stroke-width="0.5" stroke="black" stroke-linejoin="round" fill="white" fill-opacity="1"/>
<!-- !right !both --><path d="M960 260 L960 300" stroke-width="0.5" stroke="black" stroke-linejoin="round" fill="white" fill-opacity="1"/>
<!-- !left !both --><path d="M543.75 260 L543.75 300" stroke-width="0.5" stroke="black" stroke-linejoin="round" fill="white" fill-opacity="1"/>

<!-- shine -->
<line x1="543.75" y1="277" x2="960" y2="277" stroke-width="4" stroke-opacity="0.2" stroke="white" /><line x1="543.75" y1="278" x2="960" y2="278" stroke-width="1" stroke-opacity="0.2" stroke="white" /><line x1="543.75" y1="274" x2="960" y2="274" stroke-width="1" stroke-opacity="0.1" stroke="white" /><line x1="543.75" y1="261" x2="960" y2="261" stroke-width="2" stroke-opacity="0.3" stroke="black" /><line x1="543.75" y1="262" x2="960" y2="264" stroke-width="2" stroke-opacity="0.1" stroke="black" /><line x1="543.75" y1="283" x2="960" y2="283" stroke-width="4" stroke-opacity="0.2" stroke="white" /><line x1="543.75" y1="282" x2="960" y2="282" stroke-width="1" stroke-opacity="0.2" stroke="white" /><line x1="543.75" y1="286" x2="960" y2="286" stroke-width="1" stroke-opacity="0.1" stroke="white" /><line x1="543.75" y1="296" x2="960" y2="296" stroke-width="2" stroke-opacity="0.1" stroke="black" /><line x1="543.75" y1="299" x2="960" y2="299" stroke-width="2" stroke-opacity="0.3" stroke="black" /><line x1="543.75" y1="298" x2="960" y2="296" stroke-width="2" stroke-opacity="0.1" stroke="black" /><line x1="546.25" y1="280" x2="962.5" y2="280" stroke-width="1.5" stroke="gray" fill="gray" stroke-opacity="1.0"/>
<line x1="546.25" y1="280" x2="962.5" y2="280" stroke-width="0.5" stroke="black" fill="none" stroke-opacity="0.5"/>


<!-- renderSideComponent: indicator -->


<!-- renderPart: cone -->
<path d="M959.95 258.75 L972.55 260 L972.55 300 L959.95 301.25 Z" stroke-width="0" stroke="none" stroke-linejoin="round" fill="white" fill-opacity="1"/>
<path d="M960 258.75 L972.5 260 M972.5 300 L960 301.25" stroke-width="0.5" stroke="black" stroke-linejoin="round" fill="white" fill-opacity="1"/>
<!-- !right !both --><path d="M972.5 260 L972.5 300" stroke-width="0.5" stroke="black" stroke-linejoin="round" fill="white" fill-opacity="1"/>
<!-- !left !both --><path d="M960 258.75 L960 301.25" stroke-width="0.5" stroke="black" stroke-linejoin="round" fill="white" fill-opacity="1"/>


<!-- renderPart: cylinder -->
<path d="M972.45 260 L1018.8 260 L1018.8 300 L972.45 300 Z" stroke-width="0" stroke="none" stroke-linejoin="round" fill="white" fill-opacity="1"/>
<path d="M972.5 260 L1018.75 260 M1018.75 300 L972.5 300" stroke-width="0.5" stroke="black" stroke-linejoin="round" fill="white" fill-opacity="1"/>
<!-- !right !both --><path d="M1018.75 260 L1018.75 300" stroke-width="0.5" stroke="black" stroke-linejoin="round" fill="white" fill-opacity="1"/>
<!-- !left !both --><path d="M972.5 260 L972.5 300" stroke-width="0.5" stroke="black" stroke-linejoin="round" fill="white" fill-opacity="1"/>
<rect x="982.5" y="270" width="26.25" height="20" rx="3" ry="3" stroke-width="1" stroke="black" fill="white"/>
<text x="995.625" y="280" text-anchor="middle" dominant-baseline="central"><tspan stroke="dimgray" stroke-width="0.5" font-family="sans-serif" fill="black" textLength="{this.width * 5 - 24}" > HB</tspan></text>

<!-- renderSideComponent: tail -->


<!-- renderPart: cylinder -->
<path d="M1018.7 260.625 L1032.55 260.625 L1032.55 299.375 L1018.7 299.375 Z" stroke-width="0" stroke="none" stroke-linejoin="round" fill="white" fill-opacity="1"/>
<path d="M1018.75 260.625 L1032.5 260.625 M1032.5 299.375 L1018.75 299.375" stroke-width="0.5" stroke="black" stroke-linejoin="round" fill="white" fill-opacity="1"/>
<!-- !right !both --><path d="M1032.5 260.625 L1032.5 299.375" stroke-width="0.5" stroke="black" stroke-linejoin="round" fill="white" fill-opacity="1"/>
<!-- !left !both --><path d="M1018.75 260.625 L1018.75 299.375" stroke-width="0.5" stroke="black" stroke-linejoin="round" fill="white" fill-opacity="1"/>
<path d="M1018.75 260.625 L1032.5 260.625 L1032.5 299.375 L1018.75 299.375 Z" stroke-width="1.0" stroke="black" fill="url(#lined)"/>


<!-- renderSideComponent: cap -->


<!-- renderPart: cylinder -->
<path d="M1032.45 266.25 L1075.05 266.25 L1075.05 293.75 L1032.45 293.75 Z" stroke-width="0" stroke="none" stroke-linejoin="round" fill="white" fill-opacity="1"/>
<path d="M1032.5 266.25 L1075 266.25 M1075 293.75 L1032.5 293.75" stroke-width="0.5" stroke="black" stroke-linejoin="round" fill="white" fill-opacity="1"/>
<!-- !right !both --><path d="M1075 266.25 L1075 293.75" stroke-width="0.5" stroke="black" stroke-linejoin="round" fill="white" fill-opacity="1"/>

<!-- TAPER START: hexagonal -->
<path d="M 543.65 260.25 L 546.25 260.25 C 543.4375 265, 543.4375 275, 546.25 280 C 543.4375 285, 543.4375 295, 546.25 299.75 L 543.65 299.75 Z" stroke-width="0" stroke="0" stroke-linecap="round" fill-opacity="1" fill="white" /><path d="M 546.25 260.5 C 543.4375 265, 543.4375 275, 546.25 280 C 543.4375 285, 543.4375 295, 546.25 299.45" stroke-width="1.5" stroke="gray" stroke-linecap="round" fill-opacity="0" fill="none" /><path d="M 546.25 260.5 C 543.4375 265, 543.4375 275, 546.25 280 C 543.4375 285, 543.4375 295, 546.25 299.5" stroke-width="0.5" stroke="black" stroke-opacity="0.5" stroke-linecap="round" fill-opacity="0" fill="none" /><text x="700" y="320" font-size="1.2em" font-weight="bold" text-anchor="middle" dominant-baseline="central">PRO-MATIC - MC5 (2.0 mm)</text>
</g><text x="50%" y="400" font-size="1.1em" font-weight="bold" text-anchor="middle" dominant-baseline="middle">Copyright (c) // Synapticloop // The Mechanical Pencil Database (tmpdb)</text>
<text x="50%" y="420" font-size="1.1em" font-weight="bold" text-anchor="middle" dominant-baseline="middle">Licensed under Creative Commons Attribution-NonCommercial-ShareAlike 4.0 International</text>
<text x="1390" y="430" font-size="0.5em" font-weight="bold" text-anchor="end" dominant-baseline="middle">SVGBrandExampleRenderer</text>
</svg>