<svg xmlns="http://www.w3.org/2000/svg" width="1200" height="500">
 <pattern id="diagonalHatch" patternUnits="userSpaceOnUse" width="8" height="8">
<path stroke="dimgray" stroke-linecap="round" stroke-width="1" d="M 4,4 L 8,8"/>
<path stroke="dimgray" stroke-linecap="round" stroke-width="1" d="M 4,4 L 0,8"/>
<path stroke="gray" stroke-linecap="round" stroke-width="1" d="M 4,4 L 8,0" />
<path stroke="gray" stroke-linecap="round" stroke-width="1" d="M 4,4 L 0,0" />
</pattern>
<pattern id="spring" patternUnits="userSpaceOnUse" width="8" height="100">
<path stroke="dimgray" stroke-linecap="round" stroke-width="2" d="M 0,0 L 8,100"/>
<path stroke="white" stroke-linecap="round" stroke-width="1" d="M 0,0 L 8,100"/>
</pattern>
<rect x="0" y="0" width="1200" height="500" fill="white" stroke="black" stroke-width="4" />
<rect x="2" y="2" width="1196" height="496" fill="white" stroke="dimgray" stroke-width="1" />
<g transform="rotate(0 0 0)">
<line x1="10" y1="250" x2="1190" y2="250" stroke-linecap="round" stroke="#000000" stroke-dasharray="2" stroke-width="1" />
<line x1="10" y1="250" x2="50" y2="250" stroke-linecap="round" stroke="#000000"  stroke-width="1" />
<line x1="30" y1="230" x2="30" y2="270" stroke="#000000" stroke-linecap="round"  stroke-width="1" />
<circle r="10" cx="30" cy="250" fill="none" stroke="#000000" stroke-width="1"  />
<line x1="1150" y1="250" x2="1190" y2="250" stroke-linecap="round" stroke="#000000"  stroke-width="1" />
<line x1="1170" y1="230" x2="1170" y2="270" stroke="#000000" stroke-linecap="round"  stroke-width="1" />
<circle r="10" cx="1170" cy="250" fill="none" stroke="#000000" stroke-width="1"  />
<line x1="600" y1="140" x2="600" y2="420" stroke="#000000" stroke-linecap="round" stroke-dasharray="2" stroke-width="1" />
<line x1="580" y1="150" x2="620" y2="150" stroke-linecap="round" stroke="#000000"  stroke-width="1" />
<line x1="600" y1="130" x2="600" y2="170" stroke="#000000" stroke-linecap="round"  stroke-width="1" />
<circle r="10" cx="600" cy="150" fill="none" stroke="#000000" stroke-width="1"  />
<line x1="580" y1="400" x2="620" y2="400" stroke-linecap="round" stroke="#000000"  stroke-width="1" />
<line x1="600" y1="380" x2="600" y2="420" stroke="#000000" stroke-linecap="round"  stroke-width="1" />
<circle r="10" cx="600" cy="400" fill="none" stroke="#000000" stroke-width="1"  />
<text x="30" y="50" font-size="2.0em" font-weight="bold"> Easy Come Easy Go // amp-35601 </text>
<line x1="140.625" y1="138.875" x2="140.625" y2="250" stroke="#cfcfcf" stroke-linecap="round"  stroke-width="1" />
<line x1="140.625" y1="130" x2="140.625" y2="250" stroke="#cfcfcf" stroke-linecap="round"  stroke-width="1" />
<line x1="239.375" y1="130" x2="239.375" y2="250" stroke="#cfcfcf" stroke-linecap="round"  stroke-width="1" />
<line x1="738.125" y1="130" x2="738.125" y2="250" stroke="#cfcfcf" stroke-linecap="round"  stroke-width="1" />
<line x1="964.375" y1="130" x2="964.375" y2="250" stroke="#cfcfcf" stroke-linecap="round"  stroke-width="1" />
<line x1="981.875" y1="130" x2="981.875" y2="250" stroke="#cfcfcf" stroke-linecap="round"  stroke-width="1" />
<line x1="1059.375" y1="138.875" x2="1059.375" y2="250" stroke="#cfcfcf" stroke-linecap="round"  stroke-width="1" />
<line x1="140.625" y1="119" x2="140.625" y2="141" stroke="black" stroke-width="1" />
<line x1="140.625" y1="130" x2="239.375" y2="130" stroke="black" stroke-width="1" />
<line x1="239.375" y1="119" x2="239.375" y2="141" stroke="black" stroke-width="1" />
<text x="190" y="111" font-size="1.2em" transform="rotate(-90, 178, 111)" font-weight="bold" text-anchor="start" dominant-baseline="central" fill="black"><tspan x="182" dy="0">19.75 mm</tspan><tspan x="182" dy="1em">tip</tspan></text>
<line x1="239.375" y1="119" x2="239.375" y2="141" stroke="black" stroke-width="1" />
<line x1="239.375" y1="130" x2="738.125" y2="130" stroke="black" stroke-width="1" />
<line x1="738.125" y1="119" x2="738.125" y2="141" stroke="black" stroke-width="1" />
<text x="488.75" y="111" font-size="1.2em" transform="rotate(-90, 476.75, 111)" font-weight="bold" text-anchor="start" dominant-baseline="central" fill="black"><tspan x="480.75" dy="0">99.75 mm</tspan><tspan x="480.75" dy="1em">body</tspan></text>
<line x1="738.125" y1="119" x2="738.125" y2="141" stroke="black" stroke-width="1" />
<line x1="738.125" y1="130" x2="964.375" y2="130" stroke="black" stroke-width="1" />
<line x1="964.375" y1="119" x2="964.375" y2="141" stroke="black" stroke-width="1" />
<text x="851.25" y="111" font-size="1.2em" transform="rotate(-90, 839.25, 111)" font-weight="bold" text-anchor="start" dominant-baseline="central" fill="black"><tspan x="843.25" dy="0">45.25 mm</tspan><tspan x="843.25" dy="1em">clip</tspan></text>
<line x1="964.375" y1="119" x2="964.375" y2="141" stroke="black" stroke-width="1" />
<line x1="964.375" y1="130" x2="981.875" y2="130" stroke="black" stroke-width="1" />
<line x1="981.875" y1="119" x2="981.875" y2="141" stroke="black" stroke-width="1" />
<text x="973.125" y="111" font-size="1.2em" transform="rotate(-90, 973.125, 111)" font-weight="bold" text-anchor="start" dominant-baseline="central" fill="black"><tspan x="973.125" dy="0">3.50 mm tail</tspan></text>
<line x1="981.875" y1="119" x2="981.875" y2="141" stroke="black" stroke-width="1" />
<line x1="981.875" y1="130" x2="1059.375" y2="130" stroke="black" stroke-width="1" />
<line x1="1059.375" y1="119" x2="1059.375" y2="141" stroke="black" stroke-width="1" />
<text x="1020.625" y="111" font-size="1.2em" transform="rotate(-90, 1008.625, 111)" font-weight="bold" text-anchor="start" dominant-baseline="central" fill="black"><tspan x="1012.625" dy="0">15.50 mm</tspan><tspan x="1012.625" dy="1em">cap</tspan></text>
</g><text x="50%" y="480" font-size="1.1em" font-weight="bold" text-anchor="middle" dominant-baseline="middle">Copyright (c) // The Mechanical Pencil Database (tmpdb) // Licensed under Creative Commons Attribution-NonCommercial-ShareAlike 4.0 International</text>
<text x="1190" y="490" font-size="0.5em" font-weight="bold" text-anchor="end" dominant-baseline="middle">SVGTechnicalComponentRenderer</text>
</svg>