<svg xmlns="http://www.w3.org/2000/svg" width="1500" height="600">
 <pattern id="diagonalHatch" patternUnits="userSpaceOnUse" width="8" height="8">
<path stroke="dimgray" stroke-linecap="round" stroke-width="1" d="M 4,4 L 8,8"/>
<path stroke="dimgray" stroke-linecap="round" stroke-width="1" d="M 4,4 L 0,8"/>
<path stroke="gray" stroke-linecap="round" stroke-width="1" d="M 4,4 L 8,0" />
<path stroke="gray" stroke-linecap="round" stroke-width="1" d="M 4,4 L 0,0" />
</pattern>
<pattern id="spring" patternUnits="userSpaceOnUse" width="8" height="100">
<path stroke="dimgray" stroke-linecap="round" stroke-width="2" d="M 0,0 L 8,100"/>
<path stroke="white" stroke-linecap="round" stroke-width="1" d="M 0,0 L 8,100"/>
</pattern>
<rect x="0" y="0" width="1500" height="600" fill="white" stroke="black" stroke-width="4" />
<rect x="2" y="2" width="1496" height="596" fill="white" stroke="dimgray" stroke-width="1" />
<g transform="rotate(0 0 0)">
<line x1="10" y1="300" x2="1490" y2="300" stroke-linecap="round" stroke="#000000" stroke-dasharray="2" stroke-width="1" />
<line x1="10" y1="300" x2="50" y2="300" stroke-linecap="round" stroke="#000000"  stroke-width="1" />
<line x1="30" y1="280" x2="30" y2="320" stroke="#000000" stroke-linecap="round"  stroke-width="1" />
<circle r="10" cx="30" cy="300" fill="none" stroke="#000000" stroke-width="1"  />
<line x1="1450" y1="300" x2="1490" y2="300" stroke-linecap="round" stroke="#000000"  stroke-width="1" />
<line x1="1470" y1="280" x2="1470" y2="320" stroke="#000000" stroke-linecap="round"  stroke-width="1" />
<circle r="10" cx="1470" cy="300" fill="none" stroke="#000000" stroke-width="1"  />
<line x1="160" y1="140" x2="160" y2="520" stroke="#000000" stroke-linecap="round" stroke-dasharray="2" stroke-width="1" />
<line x1="140" y1="150" x2="180" y2="150" stroke-linecap="round" stroke="#000000"  stroke-width="1" />
<line x1="160" y1="130" x2="160" y2="170" stroke="#000000" stroke-linecap="round"  stroke-width="1" />
<circle r="10" cx="160" cy="150" fill="none" stroke="#000000" stroke-width="1"  />
<line x1="140" y1="500" x2="180" y2="500" stroke-linecap="round" stroke="#000000"  stroke-width="1" />
<line x1="160" y1="480" x2="160" y2="520" stroke="#000000" stroke-linecap="round"  stroke-width="1" />
<circle r="10" cx="160" cy="500" fill="none" stroke="#000000" stroke-width="1"  />
<line x1="750" y1="140" x2="750" y2="520" stroke="#000000" stroke-linecap="round" stroke-dasharray="2" stroke-width="1" />
<line x1="730" y1="150" x2="770" y2="150" stroke-linecap="round" stroke="#000000"  stroke-width="1" />
<line x1="750" y1="130" x2="750" y2="170" stroke="#000000" stroke-linecap="round"  stroke-width="1" />
<circle r="10" cx="750" cy="150" fill="none" stroke="#000000" stroke-width="1"  />
<line x1="730" y1="500" x2="770" y2="500" stroke-linecap="round" stroke="#000000"  stroke-width="1" />
<line x1="750" y1="480" x2="750" y2="520" stroke="#000000" stroke-linecap="round"  stroke-width="1" />
<circle r="10" cx="750" cy="500" fill="none" stroke="#000000" stroke-width="1"  />
<line x1="1400" y1="140" x2="1400" y2="520" stroke="#000000" stroke-linecap="round" stroke-dasharray="2" stroke-width="1" />
<line x1="1380" y1="150" x2="1420" y2="150" stroke-linecap="round" stroke="#000000"  stroke-width="1" />
<line x1="1400" y1="130" x2="1400" y2="170" stroke="#000000" stroke-linecap="round"  stroke-width="1" />
<circle r="10" cx="1400" cy="150" fill="none" stroke="#000000" stroke-width="1"  />
<line x1="1380" y1="500" x2="1420" y2="500" stroke-linecap="round" stroke="#000000"  stroke-width="1" />
<line x1="1400" y1="480" x2="1400" y2="520" stroke="#000000" stroke-linecap="round"  stroke-width="1" />
<circle r="10" cx="1400" cy="500" fill="none" stroke="#000000" stroke-width="1"  />
<text x="30" y="50" font-size="2.0em" font-weight="bold"> Easy Come Easy Go // amp-35601 </text>
<text x="30" y="80" font-size="1.1em"> EASY COME EASY GO 2.0</text>
<text x="30" y="100" font-size="1.1em"> Lead size: 2.0 mm</text>
<text x="1480" y="30" font-size="1.6em" font-weight="bold" text-anchor="end" dominant-baseline="central">Colour variants of the body</text>
<rect x="1440" y="55" width="40" rx="50%" ry="50%" height="40" stroke="black" stroke-width="2" fill="#FFA07A" />
<text x="1460" y="100" transform="rotate(-90, 1460, 100)" font-size="1.2em" font-weight="bold" text-anchor="end" dominant-baseline="central">pink</text>
<rect x="1380" y="55" width="40" rx="50%" ry="50%" height="40" stroke="black" stroke-width="2" fill="#000000" />
<text x="1400" y="100" transform="rotate(-90, 1400, 100)" font-size="1.2em" font-weight="bold" text-anchor="end" dominant-baseline="central">black</text>
<rect x="1320" y="55" width="40" rx="50%" ry="50%" height="40" stroke="black" stroke-width="2" fill="#AEDCDE" />
<text x="1340" y="100" transform="rotate(-90, 1340, 100)" font-size="1.2em" font-weight="bold" text-anchor="end" dominant-baseline="central">blue</text>
<text x="30" y="136" font-size="1.2em" font-weight="bold" text-anchor="start" dominant-baseline="central">Materials:</text>
<text x="50" y="156" font-size="1.2em" text-anchor="start" dominant-baseline="central"> - plastic</text>
<line x1="100" y1="276.875" x2="1400" y2="276.875" stroke-linecap="round" stroke="#cfcfcf"  stroke-width="1" />
<line x1="100" y1="323.125" x2="1400" y2="323.125" stroke-linecap="round" stroke="#cfcfcf"  stroke-width="1" />
<line x1="136.875" y1="300" x2="136.875" y2="343.125" stroke="#cfcfcf" stroke-linecap="round"  stroke-width="1" />
<line x1="183.125" y1="300" x2="183.125" y2="343.125" stroke="#cfcfcf" stroke-linecap="round"  stroke-width="1" />
<line x1="290.625" y1="180" x2="290.625" y2="420" stroke="#cfcfcf" stroke-linecap="round"  stroke-width="1" />
<line x1="389.375" y1="180" x2="389.375" y2="420" stroke="#cfcfcf" stroke-linecap="round"  stroke-width="1" />
<line x1="888.125" y1="180" x2="888.125" y2="420" stroke="#cfcfcf" stroke-linecap="round"  stroke-width="1" />
<line x1="1114.375" y1="180" x2="1114.375" y2="420" stroke="#cfcfcf" stroke-linecap="round"  stroke-width="1" />
<line x1="1131.875" y1="180" x2="1131.875" y2="420" stroke="#cfcfcf" stroke-linecap="round"  stroke-width="1" />
<line x1="1209.375" y1="188.875" x2="1209.375" y2="396.875" stroke="#cfcfcf" stroke-linecap="round"  stroke-width="1" />
<text x="160" y="540" font-size="1.8em" font-weight="bold" text-anchor="middle" dominant-baseline="central">Front</text>
<text x="750" y="540" font-size="1.8em" font-weight="bold" text-anchor="middle" dominant-baseline="central">Side view</text>
<text x="1400" y="540" font-size="1.8em" font-weight="bold" text-anchor="middle" dominant-baseline="central">Back</text>
<line x1="99" y1="276.875" x2="121" y2="276.875" stroke="black" stroke-width="1" />
<line x1="110" y1="276.875" x2="110" y2="323.125" stroke="black" stroke-width="1" />
<line x1="99" y1="323.125" x2="121" y2="323.125" stroke="black" stroke-width="1" />
<text x="91" y="300" transform="rotate(-90, 91, 300)" font-size="1.2em" font-weight="bold" text-anchor="middle" dominant-baseline="central" fill="black">9.25 mm</text>
<line x1="136.875" y1="342.125" x2="136.875" y2="364.125" stroke="black" stroke-width="1" />
<line x1="136.875" y1="353.125" x2="183.125" y2="353.125" stroke="black" stroke-width="1" />
<line x1="183.125" y1="342.125" x2="183.125" y2="364.125" stroke="black" stroke-width="1" />
<text x="160" y="372.125" font-size="1.2em" font-weight="bold" text-anchor="middle" dominant-baseline="central" fill="black"><tspan x="160" dy="0">9.25 mm</tspan></text>
<line x1="290.625" y1="169" x2="290.625" y2="191" stroke="black" stroke-width="1" />
<line x1="290.625" y1="180" x2="389.375" y2="180" stroke="black" stroke-width="1" />
<line x1="389.375" y1="169" x2="389.375" y2="191" stroke="black" stroke-width="1" />
<text x="340" y="161" font-size="1.2em" transform="rotate(-90, 328, 161)" font-weight="bold" text-anchor="start" dominant-baseline="central" fill="black"><tspan x="332" dy="0">19.75 mm</tspan><tspan x="332" dy="1em">tip</tspan></text>
<line x1="389.375" y1="169" x2="389.375" y2="191" stroke="black" stroke-width="1" />
<line x1="389.375" y1="180" x2="888.125" y2="180" stroke="black" stroke-width="1" />
<line x1="888.125" y1="169" x2="888.125" y2="191" stroke="black" stroke-width="1" />
<text x="638.75" y="161" font-size="1.2em" transform="rotate(-90, 626.75, 161)" font-weight="bold" text-anchor="start" dominant-baseline="central" fill="black"><tspan x="630.75" dy="0">99.75 mm</tspan><tspan x="630.75" dy="1em">body</tspan></text>
<line x1="888.125" y1="169" x2="888.125" y2="191" stroke="black" stroke-width="1" />
<line x1="888.125" y1="180" x2="1114.375" y2="180" stroke="black" stroke-width="1" />
<line x1="1114.375" y1="169" x2="1114.375" y2="191" stroke="black" stroke-width="1" />
<text x="1001.25" y="161" font-size="1.2em" transform="rotate(-90, 989.25, 161)" font-weight="bold" text-anchor="start" dominant-baseline="central" fill="black"><tspan x="993.25" dy="0">45.25 mm</tspan><tspan x="993.25" dy="1em">clip</tspan></text>
<line x1="1114.375" y1="169" x2="1114.375" y2="191" stroke="black" stroke-width="1" />
<line x1="1114.375" y1="180" x2="1131.875" y2="180" stroke="black" stroke-width="1" />
<line x1="1131.875" y1="169" x2="1131.875" y2="191" stroke="black" stroke-width="1" />
<text x="1123.125" y="161" font-size="1.2em" transform="rotate(-90, 1123.125, 161)" font-weight="bold" text-anchor="start" dominant-baseline="central" fill="black"><tspan x="1123.125" dy="0">3.50 mm tail</tspan></text>
<line x1="1131.875" y1="169" x2="1131.875" y2="191" stroke="black" stroke-width="1" />
<line x1="1131.875" y1="180" x2="1209.375" y2="180" stroke="black" stroke-width="1" />
<line x1="1209.375" y1="169" x2="1209.375" y2="191" stroke="black" stroke-width="1" />
<text x="1170.625" y="161" font-size="1.2em" transform="rotate(-90, 1158.625, 161)" font-weight="bold" text-anchor="start" dominant-baseline="central" fill="black"><tspan x="1162.625" dy="0">15.50 mm</tspan><tspan x="1162.625" dy="1em">cap</tspan></text>
<line x1="290.625" y1="342.125" x2="290.625" y2="364.125" stroke="black" stroke-width="1" />
<line x1="290.625" y1="353.125" x2="1209.375" y2="353.125" stroke="black" stroke-width="1" />
<line x1="1209.375" y1="342.125" x2="1209.375" y2="364.125" stroke="black" stroke-width="1" />
<text x="750" y="353.125" font-weight="bold" font-size="1.2em" text-anchor="middle" dominant-baseline="middle" fill="black"><tspan x="750" dy="0">183.75 mm</tspan></text>
<line x1="290.625" y1="409" x2="290.625" y2="431" stroke="black" stroke-width="1" />
<line x1="290.625" y1="420" x2="389.375" y2="420" stroke="black" stroke-width="1" />
<line x1="389.375" y1="409" x2="389.375" y2="431" stroke="black" stroke-width="1" />
<text x="340" y="439" font-size="1.2em" transform="rotate(-90, 340, 439)"  text-anchor="end" dominant-baseline="middle" fill="black"><tspan x="340" dy="0">plastic</tspan></text>
<line x1="389.375" y1="409" x2="389.375" y2="431" stroke="black" stroke-width="1" />
<line x1="389.375" y1="420" x2="888.125" y2="420" stroke="black" stroke-width="1" />
<line x1="888.125" y1="409" x2="888.125" y2="431" stroke="black" stroke-width="1" />
<text x="638.75" y="439" font-size="1.2em" transform="rotate(-90, 638.75, 439)"  text-anchor="end" dominant-baseline="middle" fill="black"><tspan x="638.75" dy="0">plastic</tspan></text>
<line x1="888.125" y1="409" x2="888.125" y2="431" stroke="black" stroke-width="1" />
<line x1="888.125" y1="420" x2="1114.375" y2="420" stroke="black" stroke-width="1" />
<line x1="1114.375" y1="409" x2="1114.375" y2="431" stroke="black" stroke-width="1" />
<text x="1001.25" y="439" font-size="1.2em" transform="rotate(-90, 1001.25, 439)"  text-anchor="end" dominant-baseline="middle" fill="black"><tspan x="1001.25" dy="0">plastic</tspan></text>
<line x1="1114.375" y1="409" x2="1114.375" y2="431" stroke="black" stroke-width="1" />
<line x1="1114.375" y1="420" x2="1131.875" y2="420" stroke="black" stroke-width="1" />
<line x1="1131.875" y1="409" x2="1131.875" y2="431" stroke="black" stroke-width="1" />
<text x="1123.125" y="439" font-size="1.2em" transform="rotate(-90, 1123.125, 439)"  text-anchor="end" dominant-baseline="middle" fill="black"><tspan x="1123.125" dy="0">plastic</tspan></text>
<line x1="1131.875" y1="409" x2="1131.875" y2="431" stroke="black" stroke-width="1" />
<line x1="1131.875" y1="420" x2="1209.375" y2="420" stroke="black" stroke-width="1" />
<line x1="1209.375" y1="409" x2="1209.375" y2="431" stroke="black" stroke-width="1" />
<text x="1170.625" y="439" font-size="1.2em" transform="rotate(-90, 1170.625, 439)"  text-anchor="end" dominant-baseline="middle" fill="black"><tspan x="1170.625" dy="0">plastic</tspan></text>
<line x1="1339" y1="280" x2="1361" y2="280" stroke="black" stroke-width="1" />
<line x1="1350" y1="280" x2="1350" y2="320" stroke="black" stroke-width="1" />
<line x1="1339" y1="320" x2="1361" y2="320" stroke="black" stroke-width="1" />
<text x="1331" y="300" transform="rotate(-90, 1331, 300)" font-size="1.2em" font-weight="bold" text-anchor="middle" dominant-baseline="central" fill="black">8 mm</text>
<line x1="1339" y1="280" x2="1361" y2="280" stroke="black" stroke-width="1" />
<line x1="1350" y1="280" x2="1350" y2="320" stroke="black" stroke-width="1" />
<line x1="1339" y1="320" x2="1361" y2="320" stroke="black" stroke-width="1" />
<text x="1350" y="328" transform="rotate(-90, 1350, 328)" font-weight="bold" font-size="1.2em" text-anchor="end" dominant-baseline="middle" fill="black">body</text>
<circle r="5" cx="160" cy="300" fill="black" stroke="dimgray" stroke-width="0.5"  />
<circle r="5" cx="1400" cy="300" fill="black" stroke="dimgray" stroke-width="1"  />
</g><text x="50%" y="580" font-size="1.1em" font-weight="bold" text-anchor="middle" dominant-baseline="middle">Copyright (c) // The Mechanical Pencil Database (tmpdb) // Licensed under Creative Commons Attribution-NonCommercial-ShareAlike 4.0 International</text>
<text x="1490" y="590" font-size="0.5em" font-weight="bold" text-anchor="end" dominant-baseline="middle">SVGTechnicalRenderer</text>
</svg>