<svg xmlns="http://www.w3.org/2000/svg" width="1200" height="600">
<pattern id="diagonalHatch" patternUnits="userSpaceOnUse" width="8" height="8">
<rect width="6" height="6" fill='none'/>
<path stroke="dimgray" stroke-linecap="round" stroke-width="1" d="M 4,4 L 8,8"/>
<path stroke="dimgray" stroke-linecap="round" stroke-width="1" d="M 4,4 L 0,8"/>
<path stroke="gray" stroke-linecap="round" stroke-width="1" d="M 4,4 L 8,0" />
<path stroke="gray" stroke-linecap="round" stroke-width="1" d="M 4,4 L 0,0" />
</pattern>
<rect x="0" y="0" width="1200" height="600" fill="white" stroke="black" stroke-width="4" />
<rect x="2" y="2" width="1196" height="596" fill="white" stroke="orange" stroke-width="1" />
<text x="30" y="40" font-size="2.0em" font-weight="bold"> Easy Come Easy Go // amp-35601 (2.0mm)</text>
<text x="30" y="64" font-size="1.1em" font-weight="bold"> EASY COME EASY GO 2.0</text>
<line x1="241.875" y1="212.875" x2="241.875" y2="443.125" stroke="#cfcfcf" stroke-width="1" />
<line x1="241.875" y1="212.875" x2="241.875" y2="190.875" stroke="black" stroke-width="1" />
<text x="291.25" y="194.875" transform="rotate(-90, 291.25, 194.875)" font-size="1.2em" font-weight="bold" dominant-baseline="central">tip (19.75 mm)</text>
<line x1="340.625" y1="212.875" x2="340.625" y2="443.125" stroke="#cfcfcf" stroke-width="1" />
<line x1="340.625" y1="212.875" x2="340.625" y2="190.875" stroke="black" stroke-width="1" />
<text x="590" y="194.875" transform="rotate(-90, 590, 194.875)" font-size="1.2em" font-weight="bold" dominant-baseline="central">body (99.75 mm)</text>
<line x1="839.375" y1="212.875" x2="839.375" y2="443.125" stroke="#cfcfcf" stroke-width="1" />
<line x1="839.375" y1="212.875" x2="839.375" y2="190.875" stroke="black" stroke-width="1" />
<text x="851.25" y="194.875" transform="rotate(-90, 851.25, 194.875)" font-size="1.2em" font-weight="bold" dominant-baseline="central">clip (4.75 mm)</text>
<line x1="668.125" y1="212.875" x2="668.125" y2="300" stroke="#cfcfcf" stroke-width="1" />
<line x1="668.125" y1="240.875" x2="668.125" y2="172.875" stroke="black" stroke-width="1" />
<line x1="870.625" y1="240.875" x2="870.625" y2="300" stroke="#cfcfcf" stroke-width="1" />
<line x1="870.625" y1="240.875" x2="870.625" y2="172.875" stroke="black" stroke-width="1" />
<line x1="668.125" y1="179.875" x2="870.625" y2="179.875" stroke="black" stroke-width="1" />
<text x="769.375" y="144.875" font-size="1.2em" font-weight="bold" text-anchor="middle" dominant-baseline="central">clip (extra)</text>
<text x="769.375" y="164.875" font-size="1.2em" font-weight="bold" text-anchor="middle" dominant-baseline="central">40.50 mm)</text>
<line x1="863.125" y1="212.875" x2="863.125" y2="443.125" stroke="#cfcfcf" stroke-width="1" />
<line x1="863.125" y1="212.875" x2="863.125" y2="190.875" stroke="black" stroke-width="1" />
<text x="871.875" y="194.875" transform="rotate(-90, 871.875, 194.875)" font-size="1.2em" font-weight="bold" dominant-baseline="central">tail (3.50 mm)</text>
<line x1="880.625" y1="212.875" x2="880.625" y2="443.125" stroke="#cfcfcf" stroke-width="1" />
<line x1="880.625" y1="212.875" x2="880.625" y2="190.875" stroke="black" stroke-width="1" />
<text x="919.375" y="194.875" transform="rotate(-90, 919.375, 194.875)" font-size="1.2em" font-weight="bold" dominant-baseline="central">cap (15.50 mm)</text>
<line x1="958.125" y1="212.875" x2="958.125" y2="443.125" stroke="#cfcfcf" stroke-width="1" />
<line x1="958.125" y1="212.875" x2="958.125" y2="190.875" stroke="black" stroke-width="1" />
<line x1="241.875" y1="201.875" x2="958.125" y2="201.875" stroke="black" stroke-width="1" />
<line x1="40" y1="276.875" x2="60" y2="276.875" stroke="black" stroke-width="1" />
<line x1="40" y1="323.125" x2="60" y2="323.125" stroke="black" stroke-width="1" />
<line x1="50" y1="276.875" x2="50" y2="323.125" stroke="black" stroke-width="1" />
<text x="100" y="403.125" font-size="1.8em" font-weight="bold" text-anchor="middle" dominant-baseline="central">Front</text>
<text x="30" y="300" transform="rotate(-90, 30, 300)" font-size="1.2em" font-weight="bold" text-anchor="middle" dominant-baseline="central">9.25 mm</text>
<line x1="76.875" y1="353.125" x2="123.125" y2="353.125" stroke="black" stroke-width="1" />
<line x1="76.875" y1="343.125" x2="76.875" y2="363.125" stroke="black" stroke-width="1" />
<line x1="123.125" y1="343.125" x2="123.125" y2="363.125" stroke="black" stroke-width="1" />
<text x="100" y="373.125" font-size="1.2em" font-weight="bold" text-anchor="middle" dominant-baseline="central">9.25 mm</text>
<line x1="241.875" y1="353.125" x2="958.125" y2="353.125" stroke="black" stroke-width="1" />
<line x1="241.875" y1="343.125" x2="241.875" y2="363.125" stroke="black" stroke-width="1" />
<line x1="958.125" y1="343.125" x2="958.125" y2="363.125" stroke="black" stroke-width="1" />
<text x="600" y="373.125" font-size="1.2em" font-weight="bold" text-anchor="middle" dominant-baseline="central">143.25 mm</text>
<text x="600" y="403.125" font-size="1.8em" font-weight="bold" text-anchor="middle" dominant-baseline="central">Side</text>
<text x="1100" y="403.125" font-size="1.8em" font-weight="bold" text-anchor="middle" dominant-baseline="central">Back</text>
<text x="600" y="523.125" font-size="1.2em" font-weight="bold" text-anchor="middle" dominant-baseline="central">Materials: plastic</text>
<line x1="241.875" y1="423.125" x2="241.875" y2="447.125" stroke="black" stroke-width="1" />
<text x="291.25" y="449.125" transform="rotate(-90, 291.25, 449.125)" font-size="1.2em" font-weight="bold" text-anchor="end" dominant-baseline="central">plastic</text>
<line x1="340.625" y1="423.125" x2="340.625" y2="447.125" stroke="black" stroke-width="1" />
<text x="590" y="449.125" transform="rotate(-90, 590, 449.125)" font-size="1.2em" font-weight="bold" text-anchor="end" dominant-baseline="central">plastic</text>
<line x1="839.375" y1="423.125" x2="839.375" y2="447.125" stroke="black" stroke-width="1" />
<text x="851.25" y="449.125" transform="rotate(-90, 851.25, 449.125)" font-size="1.2em" font-weight="bold" text-anchor="end" dominant-baseline="central">plastic</text>
<line x1="863.125" y1="423.125" x2="863.125" y2="447.125" stroke="black" stroke-width="1" />
<text x="871.875" y="449.125" transform="rotate(-90, 871.875, 449.125)" font-size="1.2em" font-weight="bold" text-anchor="end" dominant-baseline="central">plastic</text>
<line x1="880.625" y1="423.125" x2="880.625" y2="447.125" stroke="black" stroke-width="1" />
<text x="919.375" y="449.125" transform="rotate(-90, 919.375, 449.125)" font-size="1.2em" font-weight="bold" text-anchor="end" dominant-baseline="central">plastic</text>
<line x1="958.125" y1="423.125" x2="958.125" y2="447.125" stroke="black" stroke-width="1" />
<line x1="241.875" y1="435.125" x2="958.125" y2="435.125" stroke="black" stroke-width="1" />

<!-- RENDERING - component: tip -->
<circle r="9.375" cx="1100" cy="300" stroke="dimgray" stroke-width="1" fill="white" />

<circle r="18.75" cx="1100" cy="300" stroke="dimgray" stroke-width="1" fill="white" />
<circle r="10" cx="1100" cy="300" stroke="dimgray" stroke-width="1" fill="white" />

<circle r="18.75" cx="1100" cy="300" stroke="dimgray" stroke-width="1" fill="white" />

<circle r="20.625" cx="1100" cy="300" stroke="dimgray" stroke-width="1" fill="white" />


<!-- RENDERING - component: body -->
<polygon points="1088.4529946162074,280 1111.5470053837926,280 1123.0940107675851,300 1111.5470053837926,320 1088.4529946162074,320 1076.9059892324149,300 " stroke="dimgray" stroke-width="1" fill="white"/>


<!-- RENDERING - component: clip -->
<circle r="23.125" cx="1100" cy="300" stroke="dimgray" stroke-width="1" fill="white" />

<!-- 4 0.6 --><rect x="1090" y="275.375" width="20" height="3" rx="1" ry="1" stroke-width="0.5" stroke="dimgray" fill="white"/>
<!-- 4 1.75 --><rect x="1090" y="269.625" width="20" height="8.75" rx="1" ry="1" stroke-width="0.5" stroke="dimgray" fill="white"/>
<!-- 4 1.75 --><rect x="1090" y="269.625" width="20" height="8.75" rx="1" ry="1" stroke-width="0.5" stroke="dimgray" fill="white"/>
<!-- 4 0.6 --><rect x="1090" y="275.375" width="20" height="3" rx="1" ry="1" stroke-width="0.5" stroke="dimgray" fill="white"/>
<!-- 4 2 --><rect x="1090" y="268.375" width="20" height="10" rx="1" ry="1" stroke-width="0.5" stroke="dimgray" fill="white"/>


<!-- RENDERING - component: tail -->
<circle r="19.375" cx="1100" cy="300" stroke="dimgray" stroke-width="1" fill="white" />
<circle r="20" cx="1100" cy="300" stroke="dimgray" stroke-width="1" fill="white" />

<circle r="19.375" cx="1100" cy="300" stroke="dimgray" stroke-width="1" fill="white" />


<!-- RENDERING - component: cap -->
<circle r="15" cx="1100" cy="300" stroke="dimgray" stroke-width="1" fill="white" />

<polygon points="1091.715728752538,280 1108.284271247462,280 1120,291.7157287525381 1120,308.2842712474619 1108.284271247462,320 1091.715728752538,320 1080,308.2842712474619 1080,291.7157287525381 " stroke="dimgray" stroke-width="1" fill="white"/>

<circle r="21.25" cx="1100" cy="300" stroke="dimgray" stroke-width="1" fill="white" />



<circle r="21.25" cx="100" cy="300" stroke="dimgray" stroke-width="1" fill="white" />

<polygon points="91.7157287525381,280 108.2842712474619,280 120,291.7157287525381 120,308.2842712474619 108.2842712474619,320 91.7157287525381,320 80,308.2842712474619 80,291.7157287525381 " stroke="dimgray" stroke-width="1" fill="white"/>

<circle r="15" cx="100" cy="300" stroke="dimgray" stroke-width="1" fill="white" />


<!-- RENDERING - component: cap -->
<circle r="19.375" cx="100" cy="300" stroke="dimgray" stroke-width="1" fill="white" />

<circle r="20" cx="100" cy="300" stroke="dimgray" stroke-width="1" fill="white" />
<circle r="19.375" cx="100" cy="300" stroke="dimgray" stroke-width="1" fill="white" />


<!-- RENDERING - component: tail -->
<!-- 4 2 --><rect x="90" y="268.375" width="20" height="10" rx="1" ry="1" stroke-width="0.5" stroke="dimgray" fill="white"/>
<!-- 4 0.6 --><rect x="90" y="275.375" width="20" height="3" rx="1" ry="1" stroke-width="0.5" stroke="dimgray" fill="white"/>
<!-- 4 1.75 --><rect x="90" y="269.625" width="20" height="8.75" rx="1" ry="1" stroke-width="0.5" stroke="dimgray" fill="white"/>
<!-- 4 1.75 --><rect x="90" y="269.625" width="20" height="8.75" rx="1" ry="1" stroke-width="0.5" stroke="dimgray" fill="white"/>
<!-- 4 0.6 --><rect x="90" y="275.375" width="20" height="3" rx="1" ry="1" stroke-width="0.5" stroke="dimgray" fill="white"/>

<circle r="23.125" cx="100" cy="300" stroke="dimgray" stroke-width="1" fill="white" />


<!-- RENDERING - component: clip -->
<polygon points="88.45299461620749,280 111.54700538379251,280 123.09401076758503,300 111.54700538379251,320 88.45299461620749,320 76.90598923241497,300 " stroke="dimgray" stroke-width="1" fill="white"/>


<!-- RENDERING - component: body -->
<circle r="20.625" cx="100" cy="300" stroke="dimgray" stroke-width="1" fill="white" />

<circle r="18.75" cx="100" cy="300" stroke="dimgray" stroke-width="1" fill="white" />

<circle r="10" cx="100" cy="300" stroke="dimgray" stroke-width="1" fill="white" />
<circle r="18.75" cx="100" cy="300" stroke="dimgray" stroke-width="1" fill="white" />

<circle r="9.375" cx="100" cy="300" stroke="dimgray" stroke-width="1" fill="white" />


<!-- RENDERING - component: tip -->

<!-- RENDERING - component: tip -->
<!-- RENDERING - part: cylinder -->
<rect x="241.875" y="290.625" width="12.5" height="18.75" rx="1" ry="1" stroke-width="0.5" stroke="black" fill="white"/>

<!-- RENDERING - part: cone -->
<path d="M254.375 290 L295.625 281.25 L295.625 318.75 L254.375 310 Z" stroke-width="0.5" stroke="black" fill="white" />

<!-- RENDERING - part: cylinder -->
<rect x="295.625" y="281.25" width="15" height="37.5" rx="1" ry="1" stroke-width="0.5" stroke="black" fill="white"/>

<!-- RENDERING - part: cylinder -->
<rect x="310.625" y="279.375" width="30" height="41.25" rx="1" ry="1" stroke-width="0.5" stroke="black" fill="white"/>


<!-- RENDERING - component: body -->
<!-- RENDERING - part: hexagonal -->
<rect x="340.625" y="280" width="498.75" height="40" rx="1" ry="1" stroke-width="0.5" stroke="black" fill="white"/>
<line x1="340.625" y1="300" x2="839.375" y2="300" stroke-width="1.5" stroke="black" fill="none" stroke-opacity="0.5"/>
<line x1="340.625" y1="300" x2="839.375" y2="300" stroke-width="0.5" stroke="gray" fill="none" stroke-opacity="0.5"/>


<!-- RENDERING - component: clip -->
<!-- RENDERING - part: cylinder -->
<rect x="839.375" y="276.875" width="23.75" height="46.25" rx="1" ry="1" stroke-width="0.5" stroke="black" fill="white"/>

<!-- RENDERING - part: extra -->
<line x1="668.125" y1="268.375" x2="683.125" y2="268.375" stroke-width="4.0" stroke="black" fill="dimgray" stroke-linecap="round" />
/><line x1="683.125" y1="268.375" x2="703.125" y2="277.125" stroke-width="4.0" stroke="black" fill="dimgray" stroke-linecap="round" />
/><line x1="703.125" y1="277.125" x2="723.125" y2="268.375" stroke-width="4.0" stroke="black" fill="dimgray" stroke-linecap="round" />
/><line x1="723.125" y1="268.375" x2="863.125" y2="268.375" stroke-width="4.0" stroke="black" fill="dimgray" stroke-linecap="round" />
/><path d="M863.125 268.375 Q883.125 273.375 863.125 278.375" stroke-width="4" stroke="black" fill="none" stroke-linecap="round" />
<line x1="668.125" y1="268.375" x2="683.125" y2="268.375" stroke-width="3" stroke="white" fill="white" stroke-linecap="round" />
/><line x1="683.125" y1="268.375" x2="703.125" y2="277.125" stroke-width="3" stroke="white" fill="white" stroke-linecap="round" />
/><line x1="703.125" y1="277.125" x2="723.125" y2="268.375" stroke-width="3" stroke="white" fill="white" stroke-linecap="round" />
/><line x1="723.125" y1="268.375" x2="863.125" y2="268.375" stroke-width="3" stroke="white" fill="white" stroke-linecap="round" />
/><path d="M863.125 268.375 Q883.125 273.375 863.125 278.375" stroke-width="3" stroke="white" fill="none" stroke-linecap="round" />


<!-- RENDERING - component: tail -->
<!-- RENDERING - part: cone -->
<path d="M863.125 280 L871.875 280.625 L871.875 319.375 L863.125 320 Z" stroke-width="0.5" stroke="black" fill="white" />

<!-- RENDERING - part: cylinder -->
<rect x="871.875" y="280.625" width="8.75" height="38.75" rx="1" ry="1" stroke-width="0.5" stroke="black" fill="white"/>


<!-- RENDERING - component: cap -->
<!-- RENDERING - part: cylinder -->
<rect x="880.625" y="285" width="21.25" height="30" rx="1" ry="1" stroke-width="0.5" stroke="black" fill="white"/>

<!-- RENDERING - part: octagonal -->
<rect x="901.875" y="280" width="46.25" height="40" rx="1" ry="1" stroke-width="0.5" stroke="black" fill="white"/>
<line x1="901.875" y1="288.57142857142856" x2="948.125" y2="288.57142857142856" stroke-width="1.5" stroke="black" fill="none" stroke-opacity="0.5"/>
<line x1="901.875" y1="288.57142857142856" x2="948.125" y2="288.57142857142856" stroke-width="0.5" stroke="gray" fill="none" stroke-opacity="0.5"/>
<line x1="901.875" y1="311.42857142857144" x2="948.125" y2="311.42857142857144" stroke-width="1.5" stroke="black" fill="none" stroke-opacity="0.5"/>
<line x1="901.875" y1="311.42857142857144" x2="948.125" y2="311.42857142857144" stroke-width="0.5" stroke="gray" fill="none" stroke-opacity="0.5"/>

<!-- RENDERING - part: cylinder -->
<rect x="948.125" y="278.75" width="6.25" height="42.5" rx="1" ry="1" stroke-width="0.5" stroke="black" fill="white"/>

<!-- RENDERING - part: convex -->
<path d="M954.375 278.75 Q958.125 300 954.375 321.25" stroke-width="0.5" stroke="black" fill="white"/>

<rect x="1140" y="20" width="40" height="40" stroke="black" stroke-width="2" fill="lightsalmon" />
<text x="1130" y="40" font-size="1.6em" font-weight="bold" text-anchor="end" dominant-baseline="central">Variants by body colour:</text>
<text x="50%" y="580" font-size="1.1em" font-weight="bold" text-anchor="middle" dominant-baseline="middle">Copyright (c) // The Mechanical Pencil Database (tmpdb) // Licensed under Creative Commons Attribution-NonCommercial-ShareAlike 4.0 International</text>
</svg>
