<svg xmlns="http://www.w3.org/2000/svg" width="1500" height="600">
<pattern id="diagonalHatch" patternUnits="userSpaceOnUse" width="8" height="8">
<rect width="6" height="6" fill='none'/>
<path stroke="dimgray" stroke-linecap="round" stroke-width="1" d="M 4,4 L 8,8"/>
<path stroke="dimgray" stroke-linecap="round" stroke-width="1" d="M 4,4 L 0,8"/>
<path stroke="gray" stroke-linecap="round" stroke-width="1" d="M 4,4 L 8,0" />
<path stroke="gray" stroke-linecap="round" stroke-width="1" d="M 4,4 L 0,0" />
</pattern>
<rect x="0" y="0" width="1500" height="600" fill="white" stroke="black" stroke-width="4" />
<rect x="2" y="2" width="1496" height="596" fill="white" stroke="orange" stroke-width="1" />
<text x="30" y="50" font-size="2.0em" font-weight="bold"> Easy Come Easy Go // amp-35601 </text>
<text x="30" y="80" font-size="1.1em"> EASY COME EASY GO 2.0</text>
<line x1="100" y1="268.375" x2="1400" y2="268.375" stroke="#cfcfcf" stroke-width="1" />
<line x1="160" y1="278.375" x2="1400" y2="278.375" stroke="#cfcfcf" stroke-width="1" />
<line x1="150" y1="230" x2="150" y2="300" stroke="#cfcfcf" stroke-width="1" />
<line x1="170" y1="230" x2="170" y2="300" stroke="#cfcfcf" stroke-width="1" />
<line x1="1400" y1="276.875" x2="1400" y2="276.875" stroke="#cfcfcf" stroke-width="1" />
<line x1="100" y1="323.125" x2="1400" y2="323.125" stroke="#cfcfcf" stroke-width="1" />
<line x1="136.875" y1="343.125" x2="136.875" y2="300" stroke="#cfcfcf" stroke-width="1" />
<line x1="183.125" y1="343.125" x2="183.125" y2="300" stroke="#cfcfcf" stroke-width="1" />
<line x1="391.875" y1="188.875" x2="391.875" y2="443.125" stroke="#cfcfcf" stroke-width="1" />
<line x1="490.625" y1="188.875" x2="490.625" y2="443.125" stroke="#cfcfcf" stroke-width="1" />
<line x1="989.375" y1="188.875" x2="989.375" y2="443.125" stroke="#cfcfcf" stroke-width="1" />
<line x1="818.125" y1="232.875" x2="818.125" y2="420" stroke="#cfcfcf" stroke-width="1" />
<line x1="1020.625" y1="232.875" x2="1020.625" y2="420" stroke="#cfcfcf" stroke-width="1" />
<line x1="1013.125" y1="188.875" x2="1013.125" y2="443.125" stroke="#cfcfcf" stroke-width="1" />
<line x1="1030.625" y1="188.875" x2="1030.625" y2="443.125" stroke="#cfcfcf" stroke-width="1" />
<line x1="1108.125" y1="188.875" x2="1108.125" y2="423.125" stroke="#cfcfcf" stroke-width="1" />
<line x1="100" y1="268.375" x2="120" y2="268.375" stroke="black" stroke-width="1" />
<line x1="150" y1="230" x2="150" y2="250" stroke="black" stroke-width="1" />
<line x1="170" y1="230" x2="170" y2="250" stroke="black" stroke-width="1" />
<line x1="150" y1="240" x2="170" y2="240" stroke="black" stroke-width="1" />
<text x="160" y="220" font-size="1.2em" font-weight="bold" text-anchor="middle" dominant-baseline="central">4.00 mm</text>
<line x1="100" y1="323.125" x2="120" y2="323.125" stroke="black" stroke-width="1" />
<line x1="110" y1="268.375" x2="110" y2="323.125" stroke="black" stroke-width="1" />
<line x1="200" y1="268.375" x2="220" y2="268.375" stroke="black" stroke-width="1" />
<line x1="200" y1="278.375" x2="220" y2="278.375" stroke="black" stroke-width="1" />
<line x1="210" y1="268.375" x2="210" y2="278.375" stroke="black" stroke-width="1" />
<text x="224" y="273.375" font-size="1.2em" font-weight="bold" text-anchor="start" dominant-baseline="central">2.00 mm</text>
<line x1="200" y1="323.125" x2="220" y2="323.125" stroke="black" stroke-width="1" />
<line x1="210" y1="323.125" x2="210" y2="276.875" stroke="black" stroke-width="1" />
<text x="224" y="300" font-size="1.2em" font-weight="bold" text-anchor="start" dominant-baseline="central">9.25 mm</text>
<text x="90" y="300" transform="rotate(-90, 90, 300)" font-size="1.2em" font-weight="bold" text-anchor="middle" dominant-baseline="central">11.25 mm</text>
<text x="160" y="540" font-size="1.8em" font-weight="bold" text-anchor="middle" dominant-baseline="central">Front</text>
<line x1="136.875" y1="353.125" x2="183.125" y2="353.125" stroke="black" stroke-width="1" />
<line x1="136.875" y1="343.125" x2="136.875" y2="363.125" stroke="black" stroke-width="1" />
<line x1="183.125" y1="343.125" x2="183.125" y2="363.125" stroke="black" stroke-width="1" />
<text x="160" y="373.125" font-size="1.2em" font-weight="bold" text-anchor="middle" dominant-baseline="central">9.25 mm</text>
<line x1="391.875" y1="199.875" x2="391.875" y2="177.875" stroke="black" stroke-width="1" />
<text x="438.25" y="174.875" transform="rotate(-90, 438.25, 174.875)" font-size="1.2em" font-weight="bold" dominant-baseline="auto">19.75 mm</text>
<text x="444.25" y="174.875" transform="rotate(-90, 444.25, 174.875)" font-size="1.2em" font-weight="bold" dominant-baseline="hanging">tip</text>
<line x1="490.625" y1="199.875" x2="490.625" y2="177.875" stroke="black" stroke-width="1" />
<text x="737" y="174.875" transform="rotate(-90, 737, 174.875)" font-size="1.2em" font-weight="bold" dominant-baseline="auto">99.75 mm</text>
<text x="743" y="174.875" transform="rotate(-90, 743, 174.875)" font-size="1.2em" font-weight="bold" dominant-baseline="hanging">body</text>
<line x1="989.375" y1="199.875" x2="989.375" y2="177.875" stroke="black" stroke-width="1" />
<text x="1001.25" y="174.875" transform="rotate(-90, 1001.25, 174.875)" font-size="1.2em" font-weight="bold" dominant-baseline="middle">4.75 mm clip</text>
<line x1="818.125" y1="252.875" x2="818.125" y2="230.875" stroke="black" stroke-width="1" />
<line x1="818.125" y1="420" x2="818.125" y2="396" stroke="black" stroke-width="1" />
<line x1="1020.625" y1="396" x2="1020.625" y2="420" stroke="black" stroke-width="1" />
<line x1="1020.625" y1="252.875" x2="1020.625" y2="230.875" stroke="black" stroke-width="1" />
<line x1="818.125" y1="241.875" x2="1020.625" y2="241.875" stroke="black" stroke-width="1" />
<line x1="818.125" y1="408.875" x2="1020.625" y2="408.875" stroke="black" stroke-width="1" />
<text x="919.375" y="393.125" font-size="1.2em" text-anchor="middle" dominant-baseline="central">plastic</text>
<text x="919.375" y="230.875" font-size="1.2em" font-weight="bold" text-anchor="middle" dominant-baseline="central">40.50 mm</text>
<text x="919.375" y="250.875" font-size="1.2em" font-weight="bold" text-anchor="middle" dominant-baseline="central">clip (extra)</text>
<line x1="1013.125" y1="199.875" x2="1013.125" y2="177.875" stroke="black" stroke-width="1" />
<text x="1021.875" y="174.875" transform="rotate(-90, 1021.875, 174.875)" font-size="1.2em" font-weight="bold" dominant-baseline="middle">3.50 mm tail</text>
<line x1="1030.625" y1="199.875" x2="1030.625" y2="177.875" stroke="black" stroke-width="1" />
<text x="1066.375" y="174.875" transform="rotate(-90, 1066.375, 174.875)" font-size="1.2em" font-weight="bold" dominant-baseline="auto">15.50 mm</text>
<text x="1072.375" y="174.875" transform="rotate(-90, 1072.375, 174.875)" font-size="1.2em" font-weight="bold" dominant-baseline="hanging">cap</text>
<line x1="1108.125" y1="199.875" x2="1108.125" y2="177.875" stroke="black" stroke-width="1" />
<line x1="391.875" y1="188.875" x2="1108.125" y2="188.875" stroke="black" stroke-width="1" />
<line x1="391.875" y1="353.125" x2="1108.125" y2="353.125" stroke="black" stroke-width="1" />
<line x1="391.875" y1="343.125" x2="391.875" y2="363.125" stroke="black" stroke-width="1" />
<line x1="1108.125" y1="343.125" x2="1108.125" y2="363.125" stroke="black" stroke-width="1" />
<text x="750" y="373.125" font-size="1.2em" font-weight="bold" text-anchor="middle" dominant-baseline="central">143.25 mm</text>
<text x="750" y="540" font-size="1.8em" font-weight="bold" text-anchor="middle" dominant-baseline="central">Side view</text>
<text x="1400" y="540" font-size="1.8em" font-weight="bold" text-anchor="middle" dominant-baseline="central">Back</text>
<line x1="391.875" y1="423.125" x2="391.875" y2="447.125" stroke="black" stroke-width="1" />
<text x="441.25" y="449.125" transform="rotate(-90, 441.25, 449.125)" font-size="1.2em" text-anchor="end" dominant-baseline="middle">plastic</text>
<line x1="490.625" y1="423.125" x2="490.625" y2="447.125" stroke="black" stroke-width="1" />
<text x="740" y="449.125" transform="rotate(-90, 740, 449.125)" font-size="1.2em" text-anchor="end" dominant-baseline="middle">plastic</text>
<line x1="989.375" y1="423.125" x2="989.375" y2="447.125" stroke="black" stroke-width="1" />
<text x="1001.25" y="449.125" transform="rotate(-90, 1001.25, 449.125)" font-size="1.2em" text-anchor="end" dominant-baseline="middle">plastic</text>
<line x1="1013.125" y1="423.125" x2="1013.125" y2="447.125" stroke="black" stroke-width="1" />
<text x="1021.875" y="449.125" transform="rotate(-90, 1021.875, 449.125)" font-size="1.2em" text-anchor="end" dominant-baseline="middle">plastic</text>
<line x1="1030.625" y1="423.125" x2="1030.625" y2="447.125" stroke="black" stroke-width="1" />
<text x="1069.375" y="449.125" transform="rotate(-90, 1069.375, 449.125)" font-size="1.2em" text-anchor="end" dominant-baseline="middle">plastic</text>
<line x1="1108.125" y1="423.125" x2="1108.125" y2="447.125" stroke="black" stroke-width="1" />
<line x1="391.875" y1="435.125" x2="1108.125" y2="435.125" stroke="black" stroke-width="1" />

<!-- RENDERING - component: tip -->
<circle r="9.375" cx="1400" cy="300" stroke="dimgray" stroke-width="1" fill="silver" />

<circle r="18.75" cx="1400" cy="300" stroke="dimgray" stroke-width="1" fill="silver" />
<circle r="10" cx="1400" cy="300" stroke="dimgray" stroke-width="1" fill="silver" />

<circle r="18.75" cx="1400" cy="300" stroke="dimgray" stroke-width="1" fill="silver" />

<circle r="20.625" cx="1400" cy="300" stroke="dimgray" stroke-width="1" fill="silver" />


<!-- RENDERING - component: body -->
<polygon points="1388.4529946162074,280 1411.5470053837926,280 1423.0940107675851,300 1411.5470053837926,320 1388.4529946162074,320 1376.9059892324149,300 " stroke="dimgray" stroke-width="1" fill="#FFA07A"/>


<!-- RENDERING - component: clip -->
<circle r="23.125" cx="1400" cy="300" stroke="dimgray" stroke-width="1" fill="silver" />

<!-- 4 0.6 --><rect x="1390" y="275.375" width="20" height="3" rx="1" ry="1" stroke-width="1.0" stroke="dimgray" fill="silver"/>
<rect x="1390" y="275.375" width="20" height="3" rx="1" ry="1" stroke-width="1.0" stroke="dimgray" fill="none"/>
<!-- 4 1.75 --><rect x="1390" y="269.625" width="20" height="8.75" rx="1" ry="1" stroke-width="1.0" stroke="dimgray" fill="silver"/>
<rect x="1390" y="269.625" width="20" height="8.75" rx="1" ry="1" stroke-width="1.0" stroke="dimgray" fill="none"/>
<!-- 4 1.75 --><rect x="1390" y="269.625" width="20" height="8.75" rx="1" ry="1" stroke-width="1.0" stroke="dimgray" fill="silver"/>
<rect x="1390" y="269.625" width="20" height="8.75" rx="1" ry="1" stroke-width="1.0" stroke="dimgray" fill="none"/>
<!-- 4 0.6 --><rect x="1390" y="275.375" width="20" height="3" rx="1" ry="1" stroke-width="1.0" stroke="dimgray" fill="silver"/>
<rect x="1390" y="275.375" width="20" height="3" rx="1" ry="1" stroke-width="1.0" stroke="dimgray" fill="none"/>
<!-- 4 2 --><rect x="1390" y="268.375" width="20" height="10" rx="1" ry="1" stroke-width="1.0" stroke="dimgray" fill="silver"/>
<line x1="1390" x2="1410" y1="268.375" y2="268.375" stroke-width="0.25" stroke="#dfdfdf" />
<line x1="1390" x2="1410" y1="268.375" y2="268.375" stroke-width="0.25" stroke="#dfdfdf" />
<line x1="1390" x2="1410" y1="268.375" y2="268.375" stroke-width="0.25" stroke="#dfdfdf" />
<rect x="1390" y="268.375" width="20" height="10" rx="1" ry="1" stroke-width="1.0" stroke="dimgray" fill="none"/>


<!-- RENDERING - component: tail -->
<circle r="19.375" cx="1400" cy="300" stroke="dimgray" stroke-width="1" fill="#FFA07A" />
<circle r="20" cx="1400" cy="300" stroke="dimgray" stroke-width="1" fill="#FFA07A" />

<circle r="19.375" cx="1400" cy="300" stroke="dimgray" stroke-width="1" fill="#FFA07A" />


<!-- RENDERING - component: cap -->
<circle r="15" cx="1400" cy="300" stroke="dimgray" stroke-width="1" fill="#FFA07A" />

<polygon points="1391.715728752538,280 1408.284271247462,280 1420,291.7157287525381 1420,308.2842712474619 1408.284271247462,320 1391.715728752538,320 1380,308.2842712474619 1380,291.7157287525381 " stroke="dimgray" stroke-width="1" fill="#FFA07A"/>

<circle r="21.25" cx="1400" cy="300" stroke="dimgray" stroke-width="1" fill="#FFA07A" />


<circle cx="1400" cy="300" r="5" stroke="dimgray" stroke-width="0.5" fill="black" />
<circle r="21.25" cx="160" cy="300" stroke="dimgray" stroke-width="1" fill="#FFA07A" />

<polygon points="151.7157287525381,280 168.2842712474619,280 180,291.7157287525381 180,308.2842712474619 168.2842712474619,320 151.7157287525381,320 140,308.2842712474619 140,291.7157287525381 " stroke="dimgray" stroke-width="1" fill="#FFA07A"/>

<circle r="15" cx="160" cy="300" stroke="dimgray" stroke-width="1" fill="#FFA07A" />


<!-- RENDERING - component: cap -->
<circle r="19.375" cx="160" cy="300" stroke="dimgray" stroke-width="1" fill="#FFA07A" />

<circle r="20" cx="160" cy="300" stroke="dimgray" stroke-width="1" fill="#FFA07A" />
<circle r="19.375" cx="160" cy="300" stroke="dimgray" stroke-width="1" fill="#FFA07A" />


<!-- RENDERING - component: tail -->
<!-- 4 2 --><rect x="150" y="268.375" width="20" height="10" rx="1" ry="1" stroke-width="1.0" stroke="dimgray" fill="silver"/>
<line x1="150" x2="170" y1="268.375" y2="268.375" stroke-width="0.25" stroke="#dfdfdf" />
<line x1="150" x2="170" y1="268.375" y2="268.375" stroke-width="0.25" stroke="#dfdfdf" />
<line x1="150" x2="170" y1="268.375" y2="268.375" stroke-width="0.25" stroke="#dfdfdf" />
<rect x="150" y="268.375" width="20" height="10" rx="1" ry="1" stroke-width="1.0" stroke="dimgray" fill="none"/>
<!-- 4 0.6 --><rect x="150" y="275.375" width="20" height="3" rx="1" ry="1" stroke-width="1.0" stroke="dimgray" fill="silver"/>
<rect x="150" y="275.375" width="20" height="3" rx="1" ry="1" stroke-width="1.0" stroke="dimgray" fill="none"/>
<!-- 4 1.75 --><rect x="150" y="269.625" width="20" height="8.75" rx="1" ry="1" stroke-width="1.0" stroke="dimgray" fill="silver"/>
<line x1="150" x2="170" y1="269.625" y2="269.625" stroke-width="0.25" stroke="#dfdfdf" />
<line x1="150" x2="170" y1="269.625" y2="269.625" stroke-width="0.25" stroke="#dfdfdf" />
<rect x="150" y="269.625" width="20" height="8.75" rx="1" ry="1" stroke-width="1.0" stroke="dimgray" fill="none"/>
<!-- 4 1.75 --><rect x="150" y="269.625" width="20" height="8.75" rx="1" ry="1" stroke-width="1.0" stroke="dimgray" fill="silver"/>
<line x1="150" x2="170" y1="269.625" y2="269.625" stroke-width="0.25" stroke="#dfdfdf" />
<line x1="150" x2="170" y1="269.625" y2="269.625" stroke-width="0.25" stroke="#dfdfdf" />
<rect x="150" y="269.625" width="20" height="8.75" rx="1" ry="1" stroke-width="1.0" stroke="dimgray" fill="none"/>
<!-- 4 0.6 --><rect x="150" y="275.375" width="20" height="3" rx="1" ry="1" stroke-width="1.0" stroke="dimgray" fill="silver"/>
<rect x="150" y="275.375" width="20" height="3" rx="1" ry="1" stroke-width="1.0" stroke="dimgray" fill="none"/>

<circle r="23.125" cx="160" cy="300" stroke="dimgray" stroke-width="1" fill="silver" />


<!-- RENDERING - component: clip -->
<polygon points="148.4529946162075,280 171.5470053837925,280 183.09401076758502,300 171.5470053837925,320 148.4529946162075,320 136.90598923241498,300 " stroke="dimgray" stroke-width="1" fill="#FFA07A"/>


<!-- RENDERING - component: body -->
<circle r="20.625" cx="160" cy="300" stroke="dimgray" stroke-width="1" fill="silver" />

<circle r="18.75" cx="160" cy="300" stroke="dimgray" stroke-width="1" fill="silver" />

<circle r="10" cx="160" cy="300" stroke="dimgray" stroke-width="1" fill="silver" />
<circle r="18.75" cx="160" cy="300" stroke="dimgray" stroke-width="1" fill="silver" />

<circle r="9.375" cx="160" cy="300" stroke="dimgray" stroke-width="1" fill="silver" />


<!-- RENDERING - component: tip -->
<circle cx="160" cy="300" r="5" stroke="dimgray" stroke-width="0.5" fill="black" />
<!-- RENDERING - component: tip -->
<!-- RENDERING - part: cylinder -->
<rect x="391.875" y="290.625" width="12.5" height="18.75" rx="1" ry="1" stroke-width="0.5" stroke="black" fill="silver"/>

<!-- RENDERING - part: cone -->
<path d="M404.375 290 L445.625 281.25 L445.625 318.75 L404.375 310 Z" stroke-width="0.5" stroke="black" fill="silver" />

<!-- RENDERING - part: cylinder -->
<rect x="445.625" y="281.25" width="15" height="37.5" rx="1" ry="1" stroke-width="0.5" stroke="black" fill="silver"/>

<!-- RENDERING - part: cylinder -->
<rect x="460.625" y="279.375" width="30" height="41.25" rx="1" ry="1" stroke-width="0.5" stroke="black" fill="silver"/>


<!-- RENDERING - component: body -->
<!-- RENDERING - part: hexagonal -->
<rect x="490.625" y="280" width="498.75" height="40" rx="1" ry="1" stroke-width="0.5" stroke="black" fill="#FFA07A"/>
<line x1="490.625" y1="300" x2="989.375" y2="300" stroke-width="1.5" stroke="black" fill="none" stroke-opacity="0.5"/>
<line x1="490.625" y1="300" x2="989.375" y2="300" stroke-width="0.5" stroke="gray" fill="none" stroke-opacity="0.5"/>


<!-- RENDERING - component: clip -->
<!-- RENDERING - part: cylinder -->
<rect x="989.375" y="276.875" width="23.75" height="46.25" rx="1" ry="1" stroke-width="0.5" stroke="black" fill="silver"/>

<!-- RENDERING - part: extra -->
<line x1="818.125" y1="269.375" x2="833.125" y2="269.375" stroke-width="3" stroke="black" fill="dimgray" stroke-linecap="round" />
/><line x1="833.125" y1="269.375" x2="853.125" y2="278.125" stroke-width="3" stroke="black" fill="dimgray" stroke-linecap="round" />
/><line x1="853.125" y1="278.125" x2="873.125" y2="269.375" stroke-width="3" stroke="black" fill="dimgray" stroke-linecap="round" />
/><line x1="873.125" y1="269.375" x2="1013.125" y2="269.375" stroke-width="3" stroke="black" fill="dimgray" stroke-linecap="round" />
/><path d="M1013.125 269.375 Q1033.125 274.375 1013.125 279.375" stroke-width="3" stroke="black" fill="none" stroke-linecap="round" />
<line x1="818.125" y1="269.375" x2="833.125" y2="269.375" stroke-width="2" stroke="silver" fill="silver" stroke-linecap="round" />
/><line x1="833.125" y1="269.375" x2="853.125" y2="278.125" stroke-width="2" stroke="silver" fill="silver" stroke-linecap="round" />
/><line x1="853.125" y1="278.125" x2="873.125" y2="269.375" stroke-width="2" stroke="silver" fill="silver" stroke-linecap="round" />
/><line x1="873.125" y1="269.375" x2="1013.125" y2="269.375" stroke-width="2" stroke="silver" fill="silver" stroke-linecap="round" />
/><path d="M1013.125 269.375 Q1033.125 274.375 1013.125 279.375" stroke-width="2" stroke="silver" fill="none" stroke-linecap="round" />


<!-- RENDERING - component: tail -->
<!-- RENDERING - part: cone -->
<path d="M1013.125 280 L1021.875 280.625 L1021.875 319.375 L1013.125 320 Z" stroke-width="0.5" stroke="black" fill="#FFA07A" />

<!-- RENDERING - part: cylinder -->
<rect x="1021.875" y="280.625" width="8.75" height="38.75" rx="1" ry="1" stroke-width="0.5" stroke="black" fill="#FFA07A"/>


<!-- RENDERING - component: cap -->
<!-- RENDERING - part: cylinder -->
<rect x="1030.625" y="285" width="21.25" height="30" rx="1" ry="1" stroke-width="0.5" stroke="black" fill="#FFA07A"/>

<!-- RENDERING - part: octagonal -->
<rect x="1051.875" y="280" width="46.25" height="40" rx="1" ry="1" stroke-width="0.5" stroke="black" fill="#FFA07A"/>
<line x1="1051.875" y1="288.57142857142856" x2="1098.125" y2="288.57142857142856" stroke-width="1.5" stroke="black" fill="none" stroke-opacity="0.5"/>
<line x1="1051.875" y1="288.57142857142856" x2="1098.125" y2="288.57142857142856" stroke-width="0.5" stroke="gray" fill="none" stroke-opacity="0.5"/>
<line x1="1051.875" y1="311.42857142857144" x2="1098.125" y2="311.42857142857144" stroke-width="1.5" stroke="black" fill="none" stroke-opacity="0.5"/>
<line x1="1051.875" y1="311.42857142857144" x2="1098.125" y2="311.42857142857144" stroke-width="0.5" stroke="gray" fill="none" stroke-opacity="0.5"/>

<!-- RENDERING - part: cylinder -->
<rect x="1098.125" y="278.75" width="6.25" height="42.5" rx="1" ry="1" stroke-width="0.5" stroke="black" fill="#FFA07A"/>

<!-- RENDERING - part: convex -->
<path d="M1104.375 278.75 Q1111.875 300 1104.375 321.25" stroke-width="0.5" stroke="black" fill="#FFA07A"/>

<text x="1480" y="30" font-size="1.6em" font-weight="bold" text-anchor="end" dominant-baseline="central">'body' colour variants</text>
<rect x="1440" y="55" width="40" rx="50%" ry="50%" height="40" stroke="black" stroke-width="2" fill="#FFA07A" />
<text x="1460" y="100" transform="rotate(-90, 1460, 100)" font-size="1.2em" font-weight="bold" text-anchor="end" dominant-baseline="central">pink</text>
<rect x="1380" y="55" width="40" rx="50%" ry="50%" height="40" stroke="black" stroke-width="2" fill="black" />
<text x="1400" y="100" transform="rotate(-90, 1400, 100)" font-size="1.2em" font-weight="bold" text-anchor="end" dominant-baseline="central">black</text>
<text x="30" y="106" font-size="1.2em" font-weight="bold" text-anchor="start" dominant-baseline="central">Materials:</text>
<text x="50" y="126" font-size="1.2em" text-anchor="start" dominant-baseline="central"> - plastic</text>
<text x="50%" y="580" font-size="1.1em" font-weight="bold" text-anchor="middle" dominant-baseline="middle">Copyright (c) // The Mechanical Pencil Database (tmpdb) // Licensed under Creative Commons Attribution-NonCommercial-ShareAlike 4.0 International</text>
</svg>
