<svg xmlns="http://www.w3.org/2000/svg" width="1400" height="600">
<pattern id="diagonalHatch" patternUnits="userSpaceOnUse" width="8" height="8">
<rect width="6" height="6" fill='none'/>
<path stroke="dimgray" stroke-linecap="round" stroke-width="1" d="M 4,4 L 8,8"/>
<path stroke="dimgray" stroke-linecap="round" stroke-width="1" d="M 4,4 L 0,8"/>
<path stroke="gray" stroke-linecap="round" stroke-width="1" d="M 4,4 L 8,0" />
<path stroke="gray" stroke-linecap="round" stroke-width="1" d="M 4,4 L 0,0" />
</pattern>
<rect x="0" y="0" width="1400" height="600" fill="white" stroke="black" stroke-width="4" />
<rect x="2" y="2" width="1396" height="596" fill="white" stroke="orange" stroke-width="1" />
<text x="30" y="50" font-size="2.0em" font-weight="bold"> Easy Come Easy Go // amp-35601 (2.0mm)</text>
<text x="30" y="74" font-size="1.1em" font-weight="bold"> EASY COME EASY GO 2.0</text>
<line x1="40" y1="268.375" x2="1300" y2="268.375" stroke="#cfcfcf" stroke-width="1" />
<line x1="100" y1="278.375" x2="1300" y2="278.375" stroke="#cfcfcf" stroke-width="1" />
<line x1="1300" y1="276.875" x2="1300" y2="276.875" stroke="#cfcfcf" stroke-width="1" />
<line x1="40" y1="323.125" x2="1300" y2="323.125" stroke="#cfcfcf" stroke-width="1" />
<line x1="76.875" y1="343.125" x2="76.875" y2="300" stroke="#cfcfcf" stroke-width="1" />
<line x1="123.125" y1="343.125" x2="123.125" y2="300" stroke="#cfcfcf" stroke-width="1" />
<line x1="341.875" y1="188.875" x2="341.875" y2="443.125" stroke="#cfcfcf" stroke-width="1" />
<line x1="440.625" y1="188.875" x2="440.625" y2="443.125" stroke="#cfcfcf" stroke-width="1" />
<line x1="939.375" y1="188.875" x2="939.375" y2="443.125" stroke="#cfcfcf" stroke-width="1" />
<line x1="768.125" y1="232.875" x2="768.125" y2="420" stroke="#cfcfcf" stroke-width="1" />
<line x1="970.625" y1="232.875" x2="970.625" y2="420" stroke="#cfcfcf" stroke-width="1" />
<line x1="963.125" y1="188.875" x2="963.125" y2="443.125" stroke="#cfcfcf" stroke-width="1" />
<line x1="980.625" y1="188.875" x2="980.625" y2="443.125" stroke="#cfcfcf" stroke-width="1" />
<line x1="1058.125" y1="188.875" x2="1058.125" y2="423.125" stroke="#cfcfcf" stroke-width="1" />
<line x1="40" y1="268.375" x2="60" y2="268.375" stroke="black" stroke-width="1" />
<line x1="40" y1="323.125" x2="60" y2="323.125" stroke="black" stroke-width="1" />
<line x1="50" y1="268.375" x2="50" y2="323.125" stroke="black" stroke-width="1" />
<line x1="140" y1="268.375" x2="160" y2="268.375" stroke="black" stroke-width="1" />
<line x1="140" y1="278.375" x2="160" y2="278.375" stroke="black" stroke-width="1" />
<line x1="150" y1="268.375" x2="150" y2="278.375" stroke="black" stroke-width="1" />
<text x="164" y="273.375" font-size="1.2em" font-weight="bold" text-anchor="start" dominant-baseline="central">2.00 mm</text>
<text x="30" y="300" transform="rotate(-90, 30, 300)" font-size="1.2em" font-weight="bold" text-anchor="middle" dominant-baseline="central">11.25 mm</text>
<text x="100" y="540" font-size="1.8em" font-weight="bold" text-anchor="middle" dominant-baseline="central">Front</text>
<line x1="76.875" y1="353.125" x2="123.125" y2="353.125" stroke="black" stroke-width="1" />
<line x1="76.875" y1="343.125" x2="76.875" y2="363.125" stroke="black" stroke-width="1" />
<line x1="123.125" y1="343.125" x2="123.125" y2="363.125" stroke="black" stroke-width="1" />
<text x="100" y="373.125" font-size="1.2em" font-weight="bold" text-anchor="middle" dominant-baseline="central">9.25 mm</text>
<line x1="341.875" y1="199.875" x2="341.875" y2="177.875" stroke="black" stroke-width="1" />
<text x="391.25" y="174.875" transform="rotate(-90, 391.25, 174.875)" font-size="1.2em" font-weight="bold" dominant-baseline="middle">tip (19.75 mm)</text>
<line x1="440.625" y1="199.875" x2="440.625" y2="177.875" stroke="black" stroke-width="1" />
<text x="690" y="174.875" transform="rotate(-90, 690, 174.875)" font-size="1.2em" font-weight="bold" dominant-baseline="middle">body (99.75 mm)</text>
<line x1="939.375" y1="199.875" x2="939.375" y2="177.875" stroke="black" stroke-width="1" />
<text x="951.25" y="174.875" transform="rotate(-90, 951.25, 174.875)" font-size="1.2em" font-weight="bold" dominant-baseline="middle">clip (4.75 mm)</text>
<line x1="768.125" y1="252.875" x2="768.125" y2="230.875" stroke="black" stroke-width="1" />
<line x1="768.125" y1="420" x2="768.125" y2="396" stroke="black" stroke-width="1" />
<line x1="970.625" y1="396" x2="970.625" y2="420" stroke="black" stroke-width="1" />
<line x1="970.625" y1="252.875" x2="970.625" y2="230.875" stroke="black" stroke-width="1" />
<line x1="768.125" y1="241.875" x2="970.625" y2="241.875" stroke="black" stroke-width="1" />
<line x1="768.125" y1="408.875" x2="970.625" y2="408.875" stroke="black" stroke-width="1" />
<text x="869.375" y="393.125" font-size="1.2em" font-weight="bold" text-anchor="middle" dominant-baseline="central">plastic</text>
<text x="869.375" y="230.875" font-size="1.2em" font-weight="bold" text-anchor="middle" dominant-baseline="central">clip (extra)</text>
<text x="869.375" y="250.875" font-size="1.2em" font-weight="bold" text-anchor="middle" dominant-baseline="central">(40.50 mm)</text>
<line x1="963.125" y1="199.875" x2="963.125" y2="177.875" stroke="black" stroke-width="1" />
<text x="971.875" y="174.875" transform="rotate(-90, 971.875, 174.875)" font-size="1.2em" font-weight="bold" dominant-baseline="middle">tail (3.50 mm)</text>
<line x1="980.625" y1="199.875" x2="980.625" y2="177.875" stroke="black" stroke-width="1" />
<text x="1019.375" y="174.875" transform="rotate(-90, 1019.375, 174.875)" font-size="1.2em" font-weight="bold" dominant-baseline="middle">cap (15.50 mm)</text>
<line x1="1058.125" y1="199.875" x2="1058.125" y2="177.875" stroke="black" stroke-width="1" />
<line x1="341.875" y1="188.875" x2="1058.125" y2="188.875" stroke="black" stroke-width="1" />
<line x1="341.875" y1="353.125" x2="1058.125" y2="353.125" stroke="black" stroke-width="1" />
<line x1="341.875" y1="343.125" x2="341.875" y2="363.125" stroke="black" stroke-width="1" />
<line x1="1058.125" y1="343.125" x2="1058.125" y2="363.125" stroke="black" stroke-width="1" />
<text x="700" y="373.125" font-size="1.2em" font-weight="bold" text-anchor="middle" dominant-baseline="central">143.25 mm</text>
<text x="700" y="540" font-size="1.8em" font-weight="bold" text-anchor="middle" dominant-baseline="central">Side view</text>
<text x="1300" y="540" font-size="1.8em" font-weight="bold" text-anchor="middle" dominant-baseline="central">Back</text>
<line x1="341.875" y1="423.125" x2="341.875" y2="447.125" stroke="black" stroke-width="1" />
<text x="391.25" y="449.125" transform="rotate(-90, 391.25, 449.125)" font-size="1.2em" font-weight="bold" text-anchor="end" dominant-baseline="middle">plastic</text>
<line x1="440.625" y1="423.125" x2="440.625" y2="447.125" stroke="black" stroke-width="1" />
<text x="690" y="449.125" transform="rotate(-90, 690, 449.125)" font-size="1.2em" font-weight="bold" text-anchor="end" dominant-baseline="middle">plastic</text>
<line x1="939.375" y1="423.125" x2="939.375" y2="447.125" stroke="black" stroke-width="1" />
<text x="951.25" y="449.125" transform="rotate(-90, 951.25, 449.125)" font-size="1.2em" font-weight="bold" text-anchor="end" dominant-baseline="middle">plastic</text>
<line x1="963.125" y1="423.125" x2="963.125" y2="447.125" stroke="black" stroke-width="1" />
<text x="971.875" y="449.125" transform="rotate(-90, 971.875, 449.125)" font-size="1.2em" font-weight="bold" text-anchor="end" dominant-baseline="middle">plastic</text>
<line x1="980.625" y1="423.125" x2="980.625" y2="447.125" stroke="black" stroke-width="1" />
<text x="1019.375" y="449.125" transform="rotate(-90, 1019.375, 449.125)" font-size="1.2em" font-weight="bold" text-anchor="end" dominant-baseline="middle">plastic</text>
<line x1="1058.125" y1="423.125" x2="1058.125" y2="447.125" stroke="black" stroke-width="1" />
<line x1="341.875" y1="435.125" x2="1058.125" y2="435.125" stroke="black" stroke-width="1" />

<!-- RENDERING - component: tip -->
<circle r="9.375" cx="1300" cy="300" stroke="dimgray" stroke-width="1" fill="silver" />

<circle r="18.75" cx="1300" cy="300" stroke="dimgray" stroke-width="1" fill="silver" />
<circle r="10" cx="1300" cy="300" stroke="dimgray" stroke-width="1" fill="silver" />

<circle r="18.75" cx="1300" cy="300" stroke="dimgray" stroke-width="1" fill="silver" />

<circle r="20.625" cx="1300" cy="300" stroke="dimgray" stroke-width="1" fill="silver" />


<!-- RENDERING - component: body -->
<polygon points="1288.4529946162074,280 1311.5470053837926,280 1323.0940107675851,300 1311.5470053837926,320 1288.4529946162074,320 1276.9059892324149,300 " stroke="dimgray" stroke-width="1" fill="lightsalmon"/>


<!-- RENDERING - component: clip -->
<circle r="23.125" cx="1300" cy="300" stroke="dimgray" stroke-width="1" fill="silver" />

<!-- 4 0.6 --><rect x="1290" y="275.375" width="20" height="3" rx="1" ry="1" stroke-width="1.0" stroke="dimgray" fill="silver"/>
<!-- 4 1.75 --><rect x="1290" y="269.625" width="20" height="8.75" rx="1" ry="1" stroke-width="1.0" stroke="dimgray" fill="silver"/>
<!-- 4 1.75 --><rect x="1290" y="269.625" width="20" height="8.75" rx="1" ry="1" stroke-width="1.0" stroke="dimgray" fill="silver"/>
<!-- 4 0.6 --><rect x="1290" y="275.375" width="20" height="3" rx="1" ry="1" stroke-width="1.0" stroke="dimgray" fill="silver"/>
<!-- 4 2 --><rect x="1290" y="268.375" width="20" height="10" rx="1" ry="1" stroke-width="1.0" stroke="dimgray" fill="silver"/>


<!-- RENDERING - component: tail -->
<circle r="19.375" cx="1300" cy="300" stroke="dimgray" stroke-width="1" fill="lightsalmon" />
<circle r="20" cx="1300" cy="300" stroke="dimgray" stroke-width="1" fill="lightsalmon" />

<circle r="19.375" cx="1300" cy="300" stroke="dimgray" stroke-width="1" fill="lightsalmon" />


<!-- RENDERING - component: cap -->
<circle r="15" cx="1300" cy="300" stroke="dimgray" stroke-width="1" fill="lightsalmon" />

<polygon points="1291.715728752538,280 1308.284271247462,280 1320,291.7157287525381 1320,308.2842712474619 1308.284271247462,320 1291.715728752538,320 1280,308.2842712474619 1280,291.7157287525381 " stroke="dimgray" stroke-width="1" fill="lightsalmon"/>

<circle r="21.25" cx="1300" cy="300" stroke="dimgray" stroke-width="1" fill="lightsalmon" />



<circle r="21.25" cx="100" cy="300" stroke="dimgray" stroke-width="1" fill="lightsalmon" />

<polygon points="91.7157287525381,280 108.2842712474619,280 120,291.7157287525381 120,308.2842712474619 108.2842712474619,320 91.7157287525381,320 80,308.2842712474619 80,291.7157287525381 " stroke="dimgray" stroke-width="1" fill="lightsalmon"/>

<circle r="15" cx="100" cy="300" stroke="dimgray" stroke-width="1" fill="lightsalmon" />


<!-- RENDERING - component: cap -->
<circle r="19.375" cx="100" cy="300" stroke="dimgray" stroke-width="1" fill="lightsalmon" />

<circle r="20" cx="100" cy="300" stroke="dimgray" stroke-width="1" fill="lightsalmon" />
<circle r="19.375" cx="100" cy="300" stroke="dimgray" stroke-width="1" fill="lightsalmon" />


<!-- RENDERING - component: tail -->
<!-- 4 2 --><rect x="90" y="268.375" width="20" height="10" rx="1" ry="1" stroke-width="1.0" stroke="dimgray" fill="silver"/>
<!-- 4 0.6 --><rect x="90" y="275.375" width="20" height="3" rx="1" ry="1" stroke-width="1.0" stroke="dimgray" fill="silver"/>
<!-- 4 1.75 --><rect x="90" y="269.625" width="20" height="8.75" rx="1" ry="1" stroke-width="1.0" stroke="dimgray" fill="silver"/>
<!-- 4 1.75 --><rect x="90" y="269.625" width="20" height="8.75" rx="1" ry="1" stroke-width="1.0" stroke="dimgray" fill="silver"/>
<!-- 4 0.6 --><rect x="90" y="275.375" width="20" height="3" rx="1" ry="1" stroke-width="1.0" stroke="dimgray" fill="silver"/>

<circle r="23.125" cx="100" cy="300" stroke="dimgray" stroke-width="1" fill="silver" />


<!-- RENDERING - component: clip -->
<polygon points="88.45299461620749,280 111.54700538379251,280 123.09401076758503,300 111.54700538379251,320 88.45299461620749,320 76.90598923241497,300 " stroke="dimgray" stroke-width="1" fill="lightsalmon"/>


<!-- RENDERING - component: body -->
<circle r="20.625" cx="100" cy="300" stroke="dimgray" stroke-width="1" fill="silver" />

<circle r="18.75" cx="100" cy="300" stroke="dimgray" stroke-width="1" fill="silver" />

<circle r="10" cx="100" cy="300" stroke="dimgray" stroke-width="1" fill="silver" />
<circle r="18.75" cx="100" cy="300" stroke="dimgray" stroke-width="1" fill="silver" />

<circle r="9.375" cx="100" cy="300" stroke="dimgray" stroke-width="1" fill="silver" />


<!-- RENDERING - component: tip -->

<!-- RENDERING - component: tip -->
<!-- RENDERING - part: cylinder -->
<rect x="341.875" y="290.625" width="12.5" height="18.75" rx="1" ry="1" stroke-width="0.5" stroke="black" fill="silver"/>

<!-- RENDERING - part: cone -->
<path d="M354.375 290 L395.625 281.25 L395.625 318.75 L354.375 310 Z" stroke-width="0.5" stroke="black" fill="silver" />

<!-- RENDERING - part: cylinder -->
<rect x="395.625" y="281.25" width="15" height="37.5" rx="1" ry="1" stroke-width="0.5" stroke="black" fill="silver"/>

<!-- RENDERING - part: cylinder -->
<rect x="410.625" y="279.375" width="30" height="41.25" rx="1" ry="1" stroke-width="0.5" stroke="black" fill="silver"/>


<!-- RENDERING - component: body -->
<!-- RENDERING - part: hexagonal -->
<rect x="440.625" y="280" width="498.75" height="40" rx="1" ry="1" stroke-width="0.5" stroke="black" fill="lightsalmon"/>
<line x1="440.625" y1="300" x2="939.375" y2="300" stroke-width="1.5" stroke="black" fill="none" stroke-opacity="0.5"/>
<line x1="440.625" y1="300" x2="939.375" y2="300" stroke-width="0.5" stroke="gray" fill="none" stroke-opacity="0.5"/>


<!-- RENDERING - component: clip -->
<!-- RENDERING - part: cylinder -->
<rect x="939.375" y="276.875" width="23.75" height="46.25" rx="1" ry="1" stroke-width="0.5" stroke="black" fill="silver"/>

<!-- RENDERING - part: extra -->
<line x1="768.125" y1="268.375" x2="783.125" y2="268.375" stroke-width="4.0" stroke="black" fill="dimgray" stroke-linecap="round" />
/><line x1="783.125" y1="268.375" x2="803.125" y2="277.125" stroke-width="4.0" stroke="black" fill="dimgray" stroke-linecap="round" />
/><line x1="803.125" y1="277.125" x2="823.125" y2="268.375" stroke-width="4.0" stroke="black" fill="dimgray" stroke-linecap="round" />
/><line x1="823.125" y1="268.375" x2="963.125" y2="268.375" stroke-width="4.0" stroke="black" fill="dimgray" stroke-linecap="round" />
/><path d="M963.125 268.375 Q983.125 273.375 963.125 278.375" stroke-width="4" stroke="black" fill="none" stroke-linecap="round" />
<line x1="768.125" y1="268.375" x2="783.125" y2="268.375" stroke-width="3" stroke="silver" fill="silver" stroke-linecap="round" />
/><line x1="783.125" y1="268.375" x2="803.125" y2="277.125" stroke-width="3" stroke="silver" fill="silver" stroke-linecap="round" />
/><line x1="803.125" y1="277.125" x2="823.125" y2="268.375" stroke-width="3" stroke="silver" fill="silver" stroke-linecap="round" />
/><line x1="823.125" y1="268.375" x2="963.125" y2="268.375" stroke-width="3" stroke="silver" fill="silver" stroke-linecap="round" />
/><path d="M963.125 268.375 Q983.125 273.375 963.125 278.375" stroke-width="3" stroke="silver" fill="none" stroke-linecap="round" />


<!-- RENDERING - component: tail -->
<!-- RENDERING - part: cone -->
<path d="M963.125 280 L971.875 280.625 L971.875 319.375 L963.125 320 Z" stroke-width="0.5" stroke="black" fill="lightsalmon" />

<!-- RENDERING - part: cylinder -->
<rect x="971.875" y="280.625" width="8.75" height="38.75" rx="1" ry="1" stroke-width="0.5" stroke="black" fill="lightsalmon"/>


<!-- RENDERING - component: cap -->
<!-- RENDERING - part: cylinder -->
<rect x="980.625" y="285" width="21.25" height="30" rx="1" ry="1" stroke-width="0.5" stroke="black" fill="lightsalmon"/>

<!-- RENDERING - part: octagonal -->
<rect x="1001.875" y="280" width="46.25" height="40" rx="1" ry="1" stroke-width="0.5" stroke="black" fill="lightsalmon"/>
<line x1="1001.875" y1="288.57142857142856" x2="1048.125" y2="288.57142857142856" stroke-width="1.5" stroke="black" fill="none" stroke-opacity="0.5"/>
<line x1="1001.875" y1="288.57142857142856" x2="1048.125" y2="288.57142857142856" stroke-width="0.5" stroke="gray" fill="none" stroke-opacity="0.5"/>
<line x1="1001.875" y1="311.42857142857144" x2="1048.125" y2="311.42857142857144" stroke-width="1.5" stroke="black" fill="none" stroke-opacity="0.5"/>
<line x1="1001.875" y1="311.42857142857144" x2="1048.125" y2="311.42857142857144" stroke-width="0.5" stroke="gray" fill="none" stroke-opacity="0.5"/>

<!-- RENDERING - part: cylinder -->
<rect x="1048.125" y="278.75" width="6.25" height="42.5" rx="1" ry="1" stroke-width="0.5" stroke="black" fill="lightsalmon"/>

<!-- RENDERING - part: convex -->
<path d="M1054.375 278.75 Q1061.875 300 1054.375 321.25" stroke-width="0.5" stroke="black" fill="lightsalmon"/>

<rect x="1340" y="20" width="40" height="40" stroke="black" stroke-width="2" fill="lightsalmon" />
<text x="1330" y="40" font-size="1.6em" font-weight="bold" text-anchor="end" dominant-baseline="central">Variants by body colour:</text>
<text x="1380" y="80" font-size="1.2em" font-weight="bold" text-anchor="end" dominant-baseline="central">Materials: plastic</text>
<text x="50%" y="580" font-size="1.1em" font-weight="bold" text-anchor="middle" dominant-baseline="middle">Copyright (c) // The Mechanical Pencil Database (tmpdb) // Licensed under Creative Commons Attribution-NonCommercial-ShareAlike 4.0 International</text>
</svg>
