<svg xmlns="http://www.w3.org/2000/svg" width="1000" height="1000">
 <pattern id="diagonalHatch" patternUnits="userSpaceOnUse" width="8" height="8">
<path stroke="dimgray" stroke-linecap="round" stroke-width="1" d="M 4,4 L 8,8"/>
<path stroke="dimgray" stroke-linecap="round" stroke-width="1" d="M 4,4 L 0,8"/>
<path stroke="gray" stroke-linecap="round" stroke-width="1" d="M 4,4 L 8,0" />
<path stroke="gray" stroke-linecap="round" stroke-width="1" d="M 4,4 L 0,0" />
</pattern>
<pattern id="ridged" patternUnits="userSpaceOnUse" width="3" height="3">
<path stroke="dimgray" stroke-linecap="round" stroke-width="1" d="M 0,0 L 0,3"/>
</pattern>
<pattern id="lined" patternUnits="userSpaceOnUse" width="3" height="3">
<path stroke="dimgray" stroke-linecap="round" stroke-width="1" d="M 0,0 L 3,0"/>
</pattern>
<pattern id="spring" patternUnits="userSpaceOnUse" width="8" height="100">
<path stroke="dimgray" stroke-linecap="round" stroke-width="2" d="M 0,0 L 8,100"/>
<path stroke="white" stroke-linecap="round" stroke-width="1" d="M 0,0 L 8,100"/>
</pattern>
<rect x="0" y="0" width="1000" height="1000" fill="white" stroke="black" stroke-width="4" />
<rect x="2" y="2" width="996" height="996" fill="white" stroke="dimgray" stroke-width="1" />
<g transform="rotate(-45 500 500)">
<path d="M138.125 491.25 L156.875 491.25 L156.875 508.75 L138.125 508.75 Z" stroke-width="0.5" stroke="black" stroke-linejoin="round" fill="white" fill-opacity="1" />
<path d="M156.875 487.5 L181.875 481.25 L181.875 518.75 L156.875 512.5 Z" stroke-width="0.5" stroke="black" stroke-linejoin="round" fill="white" fill-opacity="1" />
<path d="M181.875 481.25 L203.125 481.25 L203.125 518.75 L181.875 518.75 Z" stroke-width="0.5" stroke="black" stroke-linejoin="round" fill="white" fill-opacity="1" />
<path d="M203.125 480 L219.375 480 L219.375 520 L203.125 520 Z" stroke-width="0.5" stroke="black" stroke-linejoin="round" fill="white" fill-opacity="1" />
<path d="M219.375 478.125 L231.875 478.125 L231.875 521.875 L219.375 521.875 Z" stroke-width="0.5" stroke="black" stroke-linejoin="round" fill="white" fill-opacity="1" />
<path d="M231.875 475 L379.375 475 L379.375 525 L231.875 525 Z" stroke-width="0.5" stroke="black" stroke-linejoin="round" fill="white" fill-opacity="1" />
<path d="M231.875 475 L379.375 475 L379.375 525 L231.875 525 Z" stroke-width="1.0" stroke="black" fill="url(#ridged)"/>
<path d="M379.375 476.25 L419.375 476.25 L419.375 523.75 L379.375 523.75 Z" stroke-width="0.5" stroke="black" stroke-linejoin="round" fill="white" fill-opacity="1" />
<rect x="379.375" y="496" width="40" height="8" rx="0" ry="0" stroke-width="1" stroke="black" fill="white"/>
<rect x="385.375" y="488.125" width="28" height="23.75" rx="3" ry="3" stroke-width="1" stroke="black" fill="white"/>
<rect x="379.625" y="496.25" width="39.5" height="7.5" rx="0" ry="0" stroke-width="1" stroke="none" fill="white"/>
<text x="399.375" y="500" text-anchor="middle" dominant-baseline="central"><tspan stroke="dimgray" stroke-width="0.5" font-family="sans-serif" fill="black" textLength="{this.width * 5 - 14}" > HB</tspan></text><path d="M419.375 477.5 L738.125 477.5 L738.125 522.5 L419.375 522.5 Z" stroke-width="0.5" stroke="black" stroke-linejoin="round" fill="white" fill-opacity="1" />
<path d="M582.875 465.875 Q605.625 489.375 615.625 465.875 Z" stroke-width="4" stroke="black" fill="dimgray" stroke-linecap="round" />
<line x1="580.625" y1="464.375" x2="763.125" y2="464.375" stroke-width="4" stroke="black" fill="dimgray" stroke-linecap="round" />
<path d="M763.125 464.375 Q783.125 471.875 763.125 478.125" stroke-width="4" stroke="black" fill="none" stroke-linecap="round" />
<path d="M738.125 476.875 L761.875 476.875 L761.875 523.125 L738.125 523.125 Z" stroke-width="0.5" stroke="black" stroke-linejoin="round" fill="white" fill-opacity="1" />
<path d="M582.875 465.875 Q605.625 488.375 615.625 465.875 Z" stroke-width="3" stroke="white" fill="white" stroke-linecap="round" />
<line x1="580.625" y1="464.375" x2="763.125" y2="464.375" stroke-width="3" stroke="white" fill="white" stroke-linecap="round" />
<path d="M763.125 464.375 Q783.125 471.875 763.125 478.125" stroke-width="3" stroke="white" fill="none" stroke-linecap="round" />
<path d="M761.875 478.125 L770.625 478.125 L770.625 521.875 L761.875 521.875 Z" stroke-width="0.5" stroke="black" stroke-linejoin="round" fill="white" fill-opacity="1" />
<path d="M770.625 484.375 L796.875 484.375 L796.875 515.625 L770.625 515.625 Z" stroke-width="0.5" stroke="black" stroke-linejoin="round" fill="white" fill-opacity="1" />
<path d="M796.875 479.375 L851.875 479.375 L851.875 520.625 L796.875 520.625 Z" stroke-width="0.5" stroke="black" stroke-linejoin="round" fill="white" fill-opacity="1" />
<path d="M851.875 480 L854.375 480 L854.375 520 L851.875 520 Z" stroke-width="0.5" stroke="black" stroke-linejoin="round" fill="white" fill-opacity="1" />
<path d="M854.375 479.375 L861.875 479.375 L861.875 520.625 L854.375 520.625 Z" stroke-width="0.5" stroke="black" stroke-linejoin="round" fill="white" fill-opacity="1" />
<rect x="231.875" y="475.25" width="99.5" height="49.5" rx="0" ry="0" stroke-width="0.5" stroke="none" fill="white" fill-opacity="1"/>
<path d="M 331.875 475 C 206.875 475, 206.875 525, 331.875 525, " stroke-width="0.5" stroke="black" stroke-linecap="round" fill="white" /><rect x="331.875" y="475.25" width="47" height="49.5" rx="0" ry="0" stroke-width="0.5" stroke="none" fill="white" fill-opacity="1"/>
<path d="M 331.875 475 C 393.625 475, 393.625 525, 331.875 525, " stroke-width="0.5" stroke="black" stroke-linecap="round" fill="white" />
</g><text x="50%" y="960" font-size="1.1em" font-weight="bold" text-anchor="middle" dominant-baseline="middle">Copyright (c) // The Mechanical Pencil Database (tmpdb)</text>
<text x="50%" y="980" font-size="1.1em" font-weight="bold" text-anchor="middle" dominant-baseline="middle">Licensed under Creative Commons Attribution-NonCommercial-ShareAlike 4.0 International</text>
<text x="990" y="990" font-size="0.5em" font-weight="bold" text-anchor="end" dominant-baseline="middle">SVGPencil45Renderer</text>
</svg>