<svg xmlns="http://www.w3.org/2000/svg" width="1000" height="200">
 <pattern id="diagonalHatch" patternUnits="userSpaceOnUse" width="8" height="8">
<path stroke="dimgray" stroke-linecap="round" stroke-width="1" d="M 4,4 L 8,8"/>
<path stroke="dimgray" stroke-linecap="round" stroke-width="1" d="M 4,4 L 0,8"/>
<path stroke="gray" stroke-linecap="round" stroke-width="1" d="M 4,4 L 8,0" />
<path stroke="gray" stroke-linecap="round" stroke-width="1" d="M 4,4 L 0,0" />
</pattern>
<pattern id="spring" patternUnits="userSpaceOnUse" width="8" height="100">
<path stroke="dimgray" stroke-linecap="round" stroke-width="2" d="M 0,0 L 8,100"/>
<path stroke="white" stroke-linecap="round" stroke-width="1" d="M 0,0 L 8,100"/>
</pattern>
<g transform="rotate(0 0 0)">
<path d="M102.5 91.25 L121.25 91.25 L121.25 108.75 L102.5 108.75 Z" stroke-width="0.5" stroke="black" stroke-linejoin="round" fill="#b4b8b9" fill-opacity="1" />
<path d="M121.25 87.5 L153.75 81.25 L153.75 118.75 L121.25 112.5 Z" stroke-width="0.5" stroke="black" stroke-linejoin="round" fill="#b4b8b9" fill-opacity="1" />
<path d="M153.75 81.25 L173.75 81.25 L173.75 118.75 L153.75 118.75 Z" stroke-width="0.5" stroke="black" stroke-linejoin="round" fill="#b4b8b9" fill-opacity="1" />
<path d="M173.75 80 L190 80 L190 120 L173.75 120 Z" stroke-width="0.5" stroke="black" stroke-linejoin="round" fill="#b4b8b9" fill-opacity="1" />
<path d="M190 78.125 L202.5 78.125 L202.5 121.875 L190 121.875 Z" stroke-width="0.5" stroke="black" stroke-linejoin="round" fill="#b4b8b9" fill-opacity="1" />
<path d="M202.5 75 L348.75 75 L348.75 125 L202.5 125 Z" stroke-width="0.5" stroke="black" stroke-linejoin="round" fill="white" fill-opacity="1" />
<path d="M348.75 76.25 L385 76.25 L385 123.75 L348.75 123.75 Z" stroke-width="0.5" stroke="black" stroke-linejoin="round" fill="grey" fill-opacity="1" />
<rect x="358.75" y="88.125" width="16.25" height="23.75" rx="3" ry="3" stroke-width="1" stroke="black" fill="grey"/>
<text x="366.875" y="100" text-anchor="middle" dominant-baseline="central"><tspan stroke="dimgray" stroke-width="0.5" font-family="sans-serif" fill="black" textLength="{this.width * 5 - 24}" > HB</tspan></text><path d="M385 80 L722.5 80 L722.5 120 L385 120 Z" stroke-width="0.5" stroke="black" stroke-linejoin="round" fill="green" fill-opacity="1" />
<line x1="385" y1="100" x2="722.5" y2="100" stroke-width="1.5" stroke="black" fill="none" stroke-opacity="0.5"/>
<line x1="385" y1="100" x2="722.5" y2="100" stroke-width="0.5" stroke="gray" fill="none" stroke-opacity="0.5"/>
<path d="M567.25 65.875 Q590 89.375 600 65.875 Z" stroke-width="4" stroke="black" fill="dimgray" stroke-linecap="round" />
<line x1="565" y1="64.375" x2="747.5" y2="64.375" stroke-width="4" stroke="black" fill="dimgray" stroke-linecap="round" />
<path d="M747.5 64.375 Q767.5 71.875 747.5 78.125" stroke-width="4" stroke="black" fill="none" stroke-linecap="round" />
<path d="M722.5 77.5 L750 77.5 L750 122.5 L722.5 122.5 Z" stroke-width="0.5" stroke="black" stroke-linejoin="round" fill="#b4b8b9" fill-opacity="1" />
<path d="M567.25 65.875 Q590 88.375 600 65.875 Z" stroke-width="3" stroke="#b4b8b9" fill="#b4b8b9" stroke-linecap="round" />
<line x1="565" y1="64.375" x2="747.5" y2="64.375" stroke-width="3" stroke="#b4b8b9" fill="#b4b8b9" stroke-linecap="round" />
<path d="M747.5 64.375 Q767.5 71.875 747.5 78.125" stroke-width="3" stroke="#b4b8b9" fill="none" stroke-linecap="round" />
<path d="M750 80 L770 80 L770 120 L750 120 Z" stroke-width="0.5" stroke="black" stroke-linejoin="round" fill="#b4b8b9" fill-opacity="1" />
<path d="M770 79.375 L817.5 79.375 L817.5 120.625 L770 120.625 Z" stroke-width="0.5" stroke="black" stroke-linejoin="round" fill="#b4b8b9" fill-opacity="1" />
<path d="M770 79.375 L817.5 79.375 L817.5 120.625 L770 120.625 Z" stroke-width="1.0" stroke="black" fill="url(#diagonalHatch)"/>
<rect x="780" y="89.6875" width="27.5" height="20.625" rx="3" ry="3" stroke-width="1" stroke="black" fill="#b4b8b9"/>
<text x="793.75" y="100" text-anchor="middle" dominant-baseline="central"><tspan stroke="dimgray" stroke-width="0.5" font-family="sans-serif" fill="black" textLength="{this.width * 5 - 24}" > HB</tspan></text><path d="M817.5 80 L832.5 80 L832.5 120 L817.5 120 Z" stroke-width="0.5" stroke="black" stroke-linejoin="round" fill="#b4b8b9" fill-opacity="1" />
<path d="M832.5 86.25 L862.5 86.25 L862.5 113.75 L832.5 113.75 Z" stroke-width="0.5" stroke="black" stroke-linejoin="round" fill="#b4b8b9" fill-opacity="1" />
<path d="M862.5 87.5 L866.25 87.5 L866.25 112.5 L862.5 112.5 Z" stroke-width="0.5" stroke="black" stroke-linejoin="round" fill="#b4b8b9" fill-opacity="1" />
<path d="M866.25 86.25 L873.75 86.25 L873.75 113.75 L866.25 113.75 Z" stroke-width="0.5" stroke="black" stroke-linejoin="round" fill="#b4b8b9" fill-opacity="1" />
<path d="M873.75 87.5 L877.5 87.5 L877.5 112.5 L873.75 112.5 Z" stroke-width="0.5" stroke="black" stroke-linejoin="round" fill="#b4b8b9" fill-opacity="1" />
<path d="M877.5 86.25 L885 86.25 L885 113.75 L877.5 113.75 Z" stroke-width="0.5" stroke="black" stroke-linejoin="round" fill="#b4b8b9" fill-opacity="1" />
<path d="M885 87.5 L888.75 87.5 L888.75 112.5 L885 112.5 Z" stroke-width="0.5" stroke="black" stroke-linejoin="round" fill="#b4b8b9" fill-opacity="1" />
<path d="M888.75 86.25 L897.5 86.25 L897.5 113.75 L888.75 113.75 Z" stroke-width="0.5" stroke="black" stroke-linejoin="round" fill="#b4b8b9" fill-opacity="1" />
</g><text x="50%" y="160" font-size="1.1em" font-weight="bold" text-anchor="middle" dominant-baseline="middle">Copyright (c) // The Mechanical Pencil Database (tmpdb)</text>
<text x="50%" y="180" font-size="1.1em" font-weight="bold" text-anchor="middle" dominant-baseline="middle">Licensed under Creative Commons Attribution-NonCommercial-ShareAlike 4.0 International</text>
<text x="990" y="190" font-size="0.5em" font-weight="bold" text-anchor="end" dominant-baseline="middle">SVGPencilRenderer</text>
</svg>