<svg xmlns="http://www.w3.org/2000/svg" width="1000" height="200">
 <pattern id="knurled-large" patternUnits="userSpaceOnUse" width="12" height="12">
<path stroke="dimgray" stroke-linecap="round" stroke-width="1" d="M 6,6 L 12,12"/>
<path stroke="dimgray" stroke-linecap="round" stroke-width="1" d="M 6,6 L 0,12"/>
<path stroke="gray" stroke-linecap="round" stroke-width="1" d="M 6,6 L 12,0" />
<path stroke="gray" stroke-linecap="round" stroke-width="1" d="M 6,6 L 0,0" />
</pattern><pattern id="knurled-small" patternUnits="userSpaceOnUse" width="4" height="4">
<path stroke="dimgray" stroke-linecap="round" stroke-width="1" d="M 2,2 L 4,4"/>
<path stroke="dimgray" stroke-linecap="round" stroke-width="1" d="M 2,2 L 0,4"/>
<path stroke="gray" stroke-linecap="round" stroke-width="1" d="M 2,2 L 4,0" />
<path stroke="gray" stroke-linecap="round" stroke-width="1" d="M 2,2 L 0,0" />
</pattern><pattern id="knurled" patternUnits="userSpaceOnUse" width="8" height="8">
<path stroke="dimgray" stroke-linecap="round" stroke-width="1" d="M 4,4 L 8,8"/>
<path stroke="dimgray" stroke-linecap="round" stroke-width="1" d="M 4,4 L 0,8"/>
<path stroke="gray" stroke-linecap="round" stroke-width="1" d="M 4,4 L 8,0" />
<path stroke="gray" stroke-linecap="round" stroke-width="1" d="M 4,4 L 0,0" />
</pattern><pattern id="lined" patternUnits="userSpaceOnUse" width="3" height="3">
<path stroke="dimgray" stroke-linecap="round" stroke-width="1" d="M 0,0 L 3,0"/>
</pattern><pattern id="ridged" patternUnits="userSpaceOnUse" width="3" height="3">
<path stroke="dimgray" stroke-linecap="round" stroke-width="1" d="M 0,0 L 0,3"/>
</pattern><pattern id="spring" patternUnits="userSpaceOnUse" width="8" height="100">
<path stroke="dimgray" stroke-linecap="round" stroke-width="2" d="M 1,1 L 9,99"/>
<path stroke="white" stroke-linecap="round" stroke-width="1" d="M 1,1 L 9,99"/>
</pattern><pattern id="knurled" patternUnits="userSpaceOnUse" width="8" height="8">
<path stroke="dimgray" stroke-linecap="round" stroke-width="1" d="M 4,4 L 8,8"/>
<path stroke="dimgray" stroke-linecap="round" stroke-width="1" d="M 4,4 L 0,8"/>
<path stroke="gray" stroke-linecap="round" stroke-width="1" d="M 4,4 L 8,0" />
<path stroke="gray" stroke-linecap="round" stroke-width="1" d="M 4,4 L 0,0" />
</pattern><g transform="rotate(0 0 0)">


<!-- renderSideComponent: tip -->


<!-- renderPart: cylinder -->
<path d="M138.125 91.25 L156.875 91.25 L156.875 108.75 L138.125 108.75 Z" stroke-width="0.5" stroke="black" stroke-linejoin="round" fill="white" fill-opacity="1"/>


<!-- renderPart: cone -->
<path d="M156.875 87.5 L181.875 81.25 L181.875 118.75 L156.875 112.5 Z" stroke-width="0.5" stroke="black" stroke-linejoin="round" fill="white" fill-opacity="1"/>


<!-- renderPart: cylinder -->
<path d="M181.875 81.25 L203.125 81.25 L203.125 118.75 L181.875 118.75 Z" stroke-width="0.5" stroke="black" stroke-linejoin="round" fill="white" fill-opacity="1"/>


<!-- renderPart: cylinder -->
<path d="M203.125 80 L219.375 80 L219.375 120 L203.125 120 Z" stroke-width="0.5" stroke="black" stroke-linejoin="round" fill="white" fill-opacity="1"/>


<!-- renderPart: cylinder -->
<path d="M219.375 78.125 L231.875 78.125 L231.875 121.875 L219.375 121.875 Z" stroke-width="0.5" stroke="black" stroke-linejoin="round" fill="white" fill-opacity="1"/>


<!-- renderSideComponent: grip -->


<!-- renderPart: cylinder -->
<path d="M231.875 75 L379.375 75 L379.375 125 L231.875 125 Z" stroke-width="0.5" stroke="black" stroke-linejoin="round" fill="white" fill-opacity="1"/>
<path d="M231.875 75 L379.375 75 L379.375 125 L231.875 125 Z" stroke-width="1.0" stroke="black" fill="url(#ridged)"/>


<!-- renderSideComponent: indicator -->


<!-- renderPart: cylinder -->
<path d="M379.375 76.25 L419.375 76.25 L419.375 123.75 L379.375 123.75 Z" stroke-width="0.5" stroke="black" stroke-linejoin="round" fill="white" fill-opacity="1"/>
<rect x="379.375" y="96" width="40" height="8" rx="0" ry="0" stroke-width="1" stroke="black" fill="white"/>
<rect x="385.375" y="88.125" width="28" height="23.75" rx="3" ry="3" stroke-width="1" stroke="black" fill="white"/>
<rect x="379.625" y="96.25" width="39.5" height="7.5" rx="0" ry="0" stroke-width="1" stroke="none" fill="white"/>
<text x="399.375" y="100" text-anchor="middle" dominant-baseline="central"><tspan stroke="dimgray" stroke-width="0.5" font-family="sans-serif" fill="black" textLength="{this.width * 5 - 14}" > HB</tspan></text>

<!-- renderSideComponent: body -->


<!-- renderPart: cylinder -->
<path d="M419.375 77.5 L738.125 77.5 L738.125 122.5 L419.375 122.5 Z" stroke-width="0.5" stroke="black" stroke-linejoin="round" fill="white" fill-opacity="1"/>


<!-- renderSideComponent: clip -->
<path d="M582.875 65.875 Q605.625 89.375 615.625 65.875 Z" stroke-width="4" stroke="black" fill="dimgray" stroke-linecap="round" />
<line x1="580.625" y1="64.375" x2="763.125" y2="64.375" stroke-width="4" stroke="black" fill="dimgray" stroke-linecap="round" />
<path d="M763.125 64.375 Q783.125 71.875 763.125 78.125" stroke-width="4" stroke="black" fill="none" stroke-linecap="round" />


<!-- renderPart: cylinder -->
<path d="M738.125 76.875 L761.875 76.875 L761.875 123.125 L738.125 123.125 Z" stroke-width="0.5" stroke="black" stroke-linejoin="round" fill="white" fill-opacity="1"/>
<path d="M582.875 65.875 Q605.625 88.375 615.625 65.875 Z" stroke-width="3" stroke="white" fill="white" stroke-linecap="round" />
<line x1="580.625" y1="64.375" x2="763.125" y2="64.375" stroke-width="3" stroke="white" fill="white" stroke-linecap="round" />
<path d="M763.125 64.375 Q783.125 71.875 763.125 78.125" stroke-width="3" stroke="white" fill="none" stroke-linecap="round" />


<!-- renderSideComponent: tail -->


<!-- renderPart: cylinder -->
<path d="M761.875 78.125 L770.625 78.125 L770.625 121.875 L761.875 121.875 Z" stroke-width="0.5" stroke="black" stroke-linejoin="round" fill="white" fill-opacity="1"/>


<!-- renderSideComponent: cap -->


<!-- renderPart: cylinder -->
<path d="M770.625 84.375 L796.875 84.375 L796.875 115.625 L770.625 115.625 Z" stroke-width="0.5" stroke="black" stroke-linejoin="round" fill="white" fill-opacity="1"/>


<!-- renderPart: cylinder -->
<path d="M796.875 79.375 L851.875 79.375 L851.875 120.625 L796.875 120.625 Z" stroke-width="0.5" stroke="black" stroke-linejoin="round" fill="white" fill-opacity="1"/>


<!-- renderPart: cylinder -->
<path d="M851.875 80 L854.375 80 L854.375 120 L851.875 120 Z" stroke-width="0.5" stroke="black" stroke-linejoin="round" fill="white" fill-opacity="1"/>


<!-- renderPart: cylinder -->
<path d="M854.375 79.375 L861.875 79.375 L861.875 120.625 L854.375 120.625 Z" stroke-width="0.5" stroke="black" stroke-linejoin="round" fill="white" fill-opacity="1"/>

<!-- TAPER START: cylinder -->
<rect x="231.875" y="75.25" width="99.5" height="49.5" rx="0" ry="0" stroke-width="0.5" stroke="none" fill="white" fill-opacity="1"/>
<path d="M 331.875 75 C 206.875 75, 206.875 125, 331.875 125" stroke-width="1.0" stroke="black" stroke-linecap="round" fill-opacity="1" fill="white" />
<!-- TAPER END: cylinder -->
<rect x="331.875" y="75.25" width="47" height="49.5" rx="0" ry="0" stroke-width="0.5" stroke="none" fill="white" fill-opacity="1"/>
<path d="M 331.875 75 C 365.125 75, 365.125 125, 331.875 125" stroke-width="0.5" stroke="black" stroke-linecap="round" fill-opacity="1" fill="white" />
</g><text x="50%" y="160" font-size="1.1em" font-weight="bold" text-anchor="middle" dominant-baseline="middle">Copyright (c) // Synapticloop and The Mechanical Pencil Database (tmpdb)</text>
<text x="50%" y="180" font-size="1.1em" font-weight="bold" text-anchor="middle" dominant-baseline="middle">Licensed under Creative Commons Attribution-NonCommercial-ShareAlike 4.0 International</text>
<text x="990" y="190" font-size="0.5em" font-weight="bold" text-anchor="end" dominant-baseline="middle">SVGPencilRenderer</text>
</svg>