<svg xmlns="http://www.w3.org/2000/svg" width="1000" height="1000">
 <pattern id="diagonalHatch" patternUnits="userSpaceOnUse" width="8" height="8">
<path stroke="dimgray" stroke-linecap="round" stroke-width="1" d="M 4,4 L 8,8"/>
<path stroke="dimgray" stroke-linecap="round" stroke-width="1" d="M 4,4 L 0,8"/>
<path stroke="gray" stroke-linecap="round" stroke-width="1" d="M 4,4 L 8,0" />
<path stroke="gray" stroke-linecap="round" stroke-width="1" d="M 4,4 L 0,0" />
</pattern>
<pattern id="spring" patternUnits="userSpaceOnUse" width="8" height="100">
<path stroke="dimgray" stroke-linecap="round" stroke-width="2" d="M 0,0 L 8,100"/>
<path stroke="white" stroke-linecap="round" stroke-width="1" d="M 0,0 L 8,100"/>
</pattern>
<rect x="0" y="0" width="1000" height="1000" fill="white" stroke="black" stroke-width="4" />
<rect x="2" y="2" width="996" height="996" fill="white" stroke="dimgray" stroke-width="1" />
<g transform="rotate(-45 500 500)">
<path d="M128.75 491.875 L140 490 L140 510 L128.75 508.125 Z" stroke-width="0.5" stroke="black" stroke-linejoin="round" fill="#b4b8b9" />
<path d="M140 486.875 L208.75 479.375 L208.75 520.625 L140 513.125 Z" stroke-width="0.5" stroke="black" stroke-linejoin="round" fill="#b4b8b9" />
<rect x="208.75" y="479.375" width="147.5" height="41.25" rx="1" ry="1" stroke-width="0.5" stroke="black" fill="#b4b8b9"/>
<rect x="208.75" y="479.375" width="147.5" height="41.25" rx="1" ry="1" stroke-width="0.5" stroke="black" fill="url(#diagonalHatch)"/>
<rect x="356.25" y="480" width="337.5" height="40" rx="1" ry="1" stroke-width="0.5" stroke="black" fill="#b4b8b9"/>
<line x1="356.25" y1="500" x2="693.75" y2="500" stroke-width="1.5" stroke="black" fill="none" stroke-opacity="0.5"/>
<line x1="356.25" y1="500" x2="693.75" y2="500" stroke-width="0.5" stroke="gray" fill="none" stroke-opacity="0.5"/>
<path d="M513.5 -33.75 Q536.25 -10.25 546.25 -33.75 Z" stroke-width="4" stroke="black" fill="dimgray" stroke-linecap="round" />
<!-- osman --><line x1="511.25" y1="-35.25" x2="693.75" y2="-35.25" stroke-width="4" stroke="black" fill="dimgray" stroke-linecap="round" />
<path d="M693.75 -35.25 Q713.75 -27.75 693.75 -20.25" stroke-width="4" stroke="black" fill="none" stroke-linecap="round" />
<path d="M513.5 466.25 Q536.25 489.75 546.25 466.25 Z" stroke-width="4" stroke="black" fill="dimgray" stroke-linecap="round" />
<!-- osman --><line x1="511.25" y1="464.75" x2="693.75" y2="464.75" stroke-width="4" stroke="black" fill="dimgray" stroke-linecap="round" />
<path d="M693.75 464.75 Q713.75 472.25 693.75 479.75" stroke-width="4" stroke="black" fill="none" stroke-linecap="round" />
<rect x="693.75" y="477.5" width="27.5" height="45" rx="1" ry="1" stroke-width="0.5" stroke="black" fill="#b4b8b9"/>
<path d="M513.5 466.25 Q536.25 488.75 546.25 466.25 Z" stroke-width="3" stroke="#b4b8b9" fill="#b4b8b9" stroke-linecap="round" />
<!-- julian --><line x1="511.25" y1="464.75" x2="693.75" y2="464.75" stroke-width="3" stroke="#b4b8b9" fill="#b4b8b9" stroke-linecap="round" />
<path d="M693.75 464.75 Q713.75 472.25 693.75 479.75" stroke-width="3" stroke="#b4b8b9" fill="none" stroke-linecap="round" />
<path d="M513.5 -33.75 Q536.25 -11.25 546.25 -33.75 Z" stroke-width="3" stroke="#b4b8b9" fill="#b4b8b9" stroke-linecap="round" />
<!-- julian --><line x1="511.25" y1="-35.25" x2="693.75" y2="-35.25" stroke-width="3" stroke="#b4b8b9" fill="#b4b8b9" stroke-linecap="round" />
<path d="M693.75 -35.25 Q713.75 -27.75 693.75 -20.25" stroke-width="3" stroke="#b4b8b9" fill="none" stroke-linecap="round" />
<rect x="721.25" y="480" width="20" height="40" rx="1" ry="1" stroke-width="0.5" stroke="black" fill="#b4b8b9"/>
<rect x="741.25" y="479.375" width="47.5" height="41.25" rx="1" ry="1" stroke-width="0.5" stroke="black" fill="#b4b8b9"/>
<rect x="741.25" y="479.375" width="47.5" height="41.25" rx="1" ry="1" stroke-width="0.5" stroke="black" fill="url(#diagonalHatch)"/>
<rect x="751.25" y="489.6875" width="27.5" height="20.625" rx="1" ry="1" stroke-width="2" stroke="black" fill="#b4b8b9"/>
<text x="765" y="500" text-anchor="middle" dominant-baseline="central"><tspan stroke="dimgray" stroke-width="0.5" font-family="sans-serif" fill="black" textLength="{this.width * 5 - 24}" > HB</tspan></text><rect x="788.75" y="480" width="5" height="40" rx="1" ry="1" stroke-width="0.5" stroke="black" fill="#b4b8b9"/>
<rect x="793.75" y="480" width="6.25" height="40" rx="1" ry="1" stroke-width="0.5" stroke="black" fill="red"/>
<rect x="800" y="480" width="6.25" height="40" rx="1" ry="1" stroke-width="0.5" stroke="black" fill="#b4b8b9"/>
<rect x="806.25" y="486.25" width="30" height="27.5" rx="1" ry="1" stroke-width="0.5" stroke="black" fill="#b4b8b9"/>
<rect x="836.25" y="487.5" width="3.75" height="25" rx="1" ry="1" stroke-width="0.5" stroke="black" fill="#b4b8b9"/>
<rect x="840" y="486.25" width="7.5" height="27.5" rx="1" ry="1" stroke-width="0.5" stroke="black" fill="#b4b8b9"/>
<rect x="847.5" y="487.5" width="3.75" height="25" rx="1" ry="1" stroke-width="0.5" stroke="black" fill="#b4b8b9"/>
<rect x="851.25" y="486.25" width="7.5" height="27.5" rx="1" ry="1" stroke-width="0.5" stroke="black" fill="#b4b8b9"/>
<rect x="858.75" y="487.5" width="3.75" height="25" rx="1" ry="1" stroke-width="0.5" stroke="black" fill="#b4b8b9"/>
<rect x="862.5" y="486.25" width="8.75" height="27.5" rx="1" ry="1" stroke-width="0.5" stroke="black" fill="#b4b8b9"/>
</g><text x="50%" y="960" font-size="1.1em" font-weight="bold" text-anchor="middle" dominant-baseline="middle">Copyright (c) // The Mechanical Pencil Database (tmpdb)</text>
<text x="50%" y="980" font-size="1.1em" font-weight="bold" text-anchor="middle" dominant-baseline="middle">Licensed under Creative Commons Attribution-NonCommercial-ShareAlike 4.0 International</text>
<text x="990" y="990" font-size="0.5em" font-weight="bold" text-anchor="end" dominant-baseline="middle">SVGPencil45Renderer</text>
</svg>