<svg xmlns="http://www.w3.org/2000/svg" width="1000" height="200">
 <pattern id="diagonalHatch" patternUnits="userSpaceOnUse" width="8" height="8">
<path stroke="dimgray" stroke-linecap="round" stroke-width="1" d="M 4,4 L 8,8"/>
<path stroke="dimgray" stroke-linecap="round" stroke-width="1" d="M 4,4 L 0,8"/>
<path stroke="gray" stroke-linecap="round" stroke-width="1" d="M 4,4 L 8,0" />
<path stroke="gray" stroke-linecap="round" stroke-width="1" d="M 4,4 L 0,0" />
</pattern>
<pattern id="ridged" patternUnits="userSpaceOnUse" width="3" height="3">
<path stroke="dimgray" stroke-linecap="round" stroke-width="1" d="M 0,0 L 0,3"/>
</pattern>
<pattern id="lined" patternUnits="userSpaceOnUse" width="3" height="3">
<path stroke="dimgray" stroke-linecap="round" stroke-width="1" d="M 0,0 L 3,0"/>
</pattern>
<pattern id="spring" patternUnits="userSpaceOnUse" width="8" height="100">
<path stroke="dimgray" stroke-linecap="round" stroke-width="2" d="M 0,0 L 8,100"/>
<path stroke="white" stroke-linecap="round" stroke-width="1" d="M 0,0 L 8,100"/>
</pattern>
<g transform="rotate(0 0 0)">
<path d="M144.375 91.25 L163.125 91.25 L163.125 108.75 L144.375 108.75 Z" stroke-width="0.5" stroke="black" stroke-linejoin="round" fill="#b4b8b9" fill-opacity="1" />
<path d="M163.125 87.5 L195.625 81.25 L195.625 118.75 L163.125 112.5 Z" stroke-width="0.5" stroke="black" stroke-linejoin="round" fill="#b4b8b9" fill-opacity="1" />
<path d="M195.625 79.375 L343.125 79.375 L343.125 120.625 L195.625 120.625 Z" stroke-width="0.5" stroke="black" stroke-linejoin="round" fill="#b4b8b9" fill-opacity="1" />
<path d="M195.625 79.375 L343.125 79.375 L343.125 120.625 L195.625 120.625 Z" stroke-width="1.0" stroke="black" fill="url(#diagonalHatch)"/>
<path d="M343.125 80 L680.625 80 L680.625 120 L343.125 120 Z" stroke-width="0.5" stroke="black" stroke-linejoin="round" fill="green" fill-opacity="1" />
<line x1="343.125" y1="100" x2="680.625" y2="100" stroke-width="1.5" stroke="black" fill="none" stroke-opacity="0.5"/>
<line x1="343.125" y1="100" x2="680.625" y2="100" stroke-width="0.5" stroke="gray" fill="none" stroke-opacity="0.5"/>
<path d="M525.375 65.875 Q548.125 89.375 558.125 65.875 Z" stroke-width="4" stroke="black" fill="dimgray" stroke-linecap="round" />
<line x1="523.125" y1="64.375" x2="705.625" y2="64.375" stroke-width="4" stroke="black" fill="dimgray" stroke-linecap="round" />
<path d="M705.625 64.375 Q725.625 71.875 705.625 78.125" stroke-width="4" stroke="black" fill="none" stroke-linecap="round" />
<path d="M680.625 77.5 L708.125 77.5 L708.125 122.5 L680.625 122.5 Z" stroke-width="0.5" stroke="black" stroke-linejoin="round" fill="#b4b8b9" fill-opacity="1" />
<path d="M525.375 65.875 Q548.125 88.375 558.125 65.875 Z" stroke-width="3" stroke="#b4b8b9" fill="#b4b8b9" stroke-linecap="round" />
<line x1="523.125" y1="64.375" x2="705.625" y2="64.375" stroke-width="3" stroke="#b4b8b9" fill="#b4b8b9" stroke-linecap="round" />
<path d="M705.625 64.375 Q725.625 71.875 705.625 78.125" stroke-width="3" stroke="#b4b8b9" fill="none" stroke-linecap="round" />
<path d="M708.125 80 L728.125 80 L728.125 120 L708.125 120 Z" stroke-width="0.5" stroke="black" stroke-linejoin="round" fill="#b4b8b9" fill-opacity="1" />
<path d="M728.125 79.375 L775.625 79.375 L775.625 120.625 L728.125 120.625 Z" stroke-width="0.5" stroke="black" stroke-linejoin="round" fill="#b4b8b9" fill-opacity="1" />
<path d="M728.125 79.375 L775.625 79.375 L775.625 120.625 L728.125 120.625 Z" stroke-width="1.0" stroke="black" fill="url(#diagonalHatch)"/>
<rect x="738.125" y="89.6875" width="27.5" height="20.625" rx="3" ry="3" stroke-width="1" stroke="black" fill="#b4b8b9"/>
<text x="751.875" y="100" text-anchor="middle" dominant-baseline="central"><tspan stroke="dimgray" stroke-width="0.5" font-family="sans-serif" fill="black" textLength="{this.width * 5 - 24}" > HB</tspan></text><path d="M775.625 80 L790.625 80 L790.625 120 L775.625 120 Z" stroke-width="0.5" stroke="black" stroke-linejoin="round" fill="#b4b8b9" fill-opacity="1" />
<path d="M790.625 86.25 L820.625 86.25 L820.625 113.75 L790.625 113.75 Z" stroke-width="0.5" stroke="black" stroke-linejoin="round" fill="#b4b8b9" fill-opacity="1" />
<path d="M820.625 87.5 L824.375 87.5 L824.375 112.5 L820.625 112.5 Z" stroke-width="0.5" stroke="black" stroke-linejoin="round" fill="#b4b8b9" fill-opacity="1" />
<path d="M824.375 86.25 L831.875 86.25 L831.875 113.75 L824.375 113.75 Z" stroke-width="0.5" stroke="black" stroke-linejoin="round" fill="#b4b8b9" fill-opacity="1" />
<path d="M831.875 87.5 L835.625 87.5 L835.625 112.5 L831.875 112.5 Z" stroke-width="0.5" stroke="black" stroke-linejoin="round" fill="#b4b8b9" fill-opacity="1" />
<path d="M835.625 86.25 L843.125 86.25 L843.125 113.75 L835.625 113.75 Z" stroke-width="0.5" stroke="black" stroke-linejoin="round" fill="#b4b8b9" fill-opacity="1" />
<path d="M843.125 87.5 L846.875 87.5 L846.875 112.5 L843.125 112.5 Z" stroke-width="0.5" stroke="black" stroke-linejoin="round" fill="#b4b8b9" fill-opacity="1" />
<path d="M846.875 86.25 L855.625 86.25 L855.625 113.75 L846.875 113.75 Z" stroke-width="0.5" stroke="black" stroke-linejoin="round" fill="#b4b8b9" fill-opacity="1" />
</g><text x="50%" y="160" font-size="1.1em" font-weight="bold" text-anchor="middle" dominant-baseline="middle">Copyright (c) // The Mechanical Pencil Database (tmpdb)</text>
<text x="50%" y="180" font-size="1.1em" font-weight="bold" text-anchor="middle" dominant-baseline="middle">Licensed under Creative Commons Attribution-NonCommercial-ShareAlike 4.0 International</text>
<text x="990" y="190" font-size="0.5em" font-weight="bold" text-anchor="end" dominant-baseline="middle">SVGPencilRenderer</text>
</svg>