<svg xmlns="http://www.w3.org/2000/svg" width="1000" height="1000">
 <pattern id="diagonalHatch" patternUnits="userSpaceOnUse" width="8" height="8">
<path stroke="dimgray" stroke-linecap="round" stroke-width="1" d="M 4,4 L 8,8"/>
<path stroke="dimgray" stroke-linecap="round" stroke-width="1" d="M 4,4 L 0,8"/>
<path stroke="gray" stroke-linecap="round" stroke-width="1" d="M 4,4 L 8,0" />
<path stroke="gray" stroke-linecap="round" stroke-width="1" d="M 4,4 L 0,0" />
</pattern>
<pattern id="spring" patternUnits="userSpaceOnUse" width="8" height="100">
<path stroke="dimgray" stroke-linecap="round" stroke-width="2" d="M 0,0 L 8,100"/>
<path stroke="white" stroke-linecap="round" stroke-width="1" d="M 0,0 L 8,100"/>
</pattern>
<rect x="0" y="0" width="1000" height="1000" fill="white" stroke="black" stroke-width="4" />
<rect x="2" y="2" width="996" height="996" fill="white" stroke="dimgray" stroke-width="1" />
<g transform="rotate(-45 500 500)">
<path d="M128.75 491.875 L140 490 L140 510 L128.75 508.125 Z" stroke-width="0.5" stroke="black" stroke-linejoin="round" fill="#b4b8b9" fill-opacity="1" />
<path d="M140 486.875 L208.75 479.375 L208.75 520.625 L140 513.125 Z" stroke-width="0.5" stroke="black" stroke-linejoin="round" fill="#b4b8b9" fill-opacity="1" />
<path d="M208.75 479.375 L356.25 479.375 L356.25 520.625 L208.75 520.625 Z" stroke-width="0.5" stroke="black" stroke-linejoin="round" fill="#b4b8b9" fill-opacity="1" />
<path d="M208.75 479.375 L356.25 479.375 L356.25 520.625 L208.75 520.625 Z" stroke-width="1.0" stroke="black" fill="url(#diagonalHatch)"/>
<path d="M356.25 480 L693.75 480 L693.75 520 L356.25 520 Z" stroke-width="0.5" stroke="black" stroke-linejoin="round" fill="#b4b8b9" fill-opacity="1" />
<line x1="356.25" y1="500" x2="693.75" y2="500" stroke-width="1.5" stroke="black" fill="none" stroke-opacity="0.5"/>
<line x1="356.25" y1="500" x2="693.75" y2="500" stroke-width="0.5" stroke="gray" fill="none" stroke-opacity="0.5"/>
<path d="M538.5 465.875 Q561.25 489.375 571.25 465.875 Z" stroke-width="4" stroke="black" fill="dimgray" stroke-linecap="round" />
<line x1="536.25" y1="464.375" x2="718.75" y2="464.375" stroke-width="4" stroke="black" fill="dimgray" stroke-linecap="round" />
<path d="M718.75 464.375 Q738.75 471.875 718.75 479.375" stroke-width="4" stroke="black" fill="none" stroke-linecap="round" />
<path d="M693.75 477.5 L721.25 477.5 L721.25 522.5 L693.75 522.5 Z" stroke-width="0.5" stroke="black" stroke-linejoin="round" fill="#b4b8b9" fill-opacity="1" />
<path d="M538.5 465.875 Q561.25 488.375 571.25 465.875 Z" stroke-width="3" stroke="#b4b8b9" fill="#b4b8b9" stroke-linecap="round" />
<line x1="536.25" y1="464.375" x2="718.75" y2="464.375" stroke-width="3" stroke="#b4b8b9" fill="#b4b8b9" stroke-linecap="round" />
<path d="M718.75 464.375 Q738.75 471.875 718.75 479.375" stroke-width="3" stroke="#b4b8b9" fill="none" stroke-linecap="round" />
<path d="M721.25 480 L741.25 480 L741.25 520 L721.25 520 Z" stroke-width="0.5" stroke="black" stroke-linejoin="round" fill="#b4b8b9" fill-opacity="1" />
<path d="M741.25 479.375 L788.75 479.375 L788.75 520.625 L741.25 520.625 Z" stroke-width="0.5" stroke="black" stroke-linejoin="round" fill="#b4b8b9" fill-opacity="1" />
<path d="M741.25 479.375 L788.75 479.375 L788.75 520.625 L741.25 520.625 Z" stroke-width="1.0" stroke="black" fill="url(#diagonalHatch)"/>
<rect x="751.25" y="489.6875" width="27.5" height="20.625" rx="3" ry="3" stroke-width="1" stroke="black" fill="#b4b8b9"/>
<text x="765" y="500" text-anchor="middle" dominant-baseline="central"><tspan stroke="dimgray" stroke-width="0.5" font-family="sans-serif" fill="black" textLength="{this.width * 5 - 24}" > HB</tspan></text><path d="M788.75 480 L793.75 480 L793.75 520 L788.75 520 Z" stroke-width="0.5" stroke="black" stroke-linejoin="round" fill="#b4b8b9" fill-opacity="1" />
<path d="M793.75 480 L800 480 L800 520 L793.75 520 Z" stroke-width="0.5" stroke="black" stroke-linejoin="round" fill="red" fill-opacity="1" />
<path d="M800 480 L806.25 480 L806.25 520 L800 520 Z" stroke-width="0.5" stroke="black" stroke-linejoin="round" fill="#b4b8b9" fill-opacity="1" />
<path d="M806.25 486.25 L836.25 486.25 L836.25 513.75 L806.25 513.75 Z" stroke-width="0.5" stroke="black" stroke-linejoin="round" fill="#b4b8b9" fill-opacity="1" />
<path d="M836.25 487.5 L840 487.5 L840 512.5 L836.25 512.5 Z" stroke-width="0.5" stroke="black" stroke-linejoin="round" fill="#b4b8b9" fill-opacity="1" />
<path d="M840 486.25 L847.5 486.25 L847.5 513.75 L840 513.75 Z" stroke-width="0.5" stroke="black" stroke-linejoin="round" fill="#b4b8b9" fill-opacity="1" />
<path d="M847.5 487.5 L851.25 487.5 L851.25 512.5 L847.5 512.5 Z" stroke-width="0.5" stroke="black" stroke-linejoin="round" fill="#b4b8b9" fill-opacity="1" />
<path d="M851.25 486.25 L858.75 486.25 L858.75 513.75 L851.25 513.75 Z" stroke-width="0.5" stroke="black" stroke-linejoin="round" fill="#b4b8b9" fill-opacity="1" />
<path d="M858.75 487.5 L862.5 487.5 L862.5 512.5 L858.75 512.5 Z" stroke-width="0.5" stroke="black" stroke-linejoin="round" fill="#b4b8b9" fill-opacity="1" />
<path d="M862.5 486.25 L871.25 486.25 L871.25 513.75 L862.5 513.75 Z" stroke-width="0.5" stroke="black" stroke-linejoin="round" fill="#b4b8b9" fill-opacity="1" />
</g><text x="50%" y="960" font-size="1.1em" font-weight="bold" text-anchor="middle" dominant-baseline="middle">Copyright (c) // The Mechanical Pencil Database (tmpdb)</text>
<text x="50%" y="980" font-size="1.1em" font-weight="bold" text-anchor="middle" dominant-baseline="middle">Licensed under Creative Commons Attribution-NonCommercial-ShareAlike 4.0 International</text>
<text x="990" y="990" font-size="0.5em" font-weight="bold" text-anchor="end" dominant-baseline="middle">SVGPencil45Renderer</text>
</svg>