<svg xmlns="http://www.w3.org/2000/svg" width="1000" height="240">
 <pattern id="diagonalHatch" patternUnits="userSpaceOnUse" width="8" height="8">
<path stroke="dimgray" stroke-linecap="round" stroke-width="1" d="M 4,4 L 8,8"/>
<path stroke="dimgray" stroke-linecap="round" stroke-width="1" d="M 4,4 L 0,8"/>
<path stroke="gray" stroke-linecap="round" stroke-width="1" d="M 4,4 L 8,0" />
<path stroke="gray" stroke-linecap="round" stroke-width="1" d="M 4,4 L 0,0" />
</pattern>
<pattern id="spring" patternUnits="userSpaceOnUse" width="8" height="100">
<path stroke="dimgray" stroke-linecap="round" stroke-width="2" d="M 0,0 L 8,100"/>
<path stroke="white" stroke-linecap="round" stroke-width="1" d="M 0,0 L 8,100"/>
</pattern>
<rect x="0" y="0" width="1000" height="240" fill="white" stroke="black" stroke-width="4" />
<rect x="2" y="2" width="996" height="236" fill="white" stroke="dimgray" stroke-width="1" />
<g transform="rotate(0 0 0)">
<text x="30" y="50" font-size="2.0em" font-weight="bold"> Mitsubishi // uni (Model #: MH-500)</text>
<!-- julian --><rect x="148.75" y="111.875" width="5" height="16.25" rx="1" ry="1" stroke-width="0.5" stroke="black" fill="silver" fill-opacity="1"/>
<path d="M153.75 106.875 L211.25 101.25 L211.25 138.75 L153.75 133.125 Z" stroke-width="0.5" stroke="black" stroke-linejoin="round" fill="silver" fill-opacity="1" />
<!-- julian --><rect x="211.25" y="100" width="127.5" height="40" rx="1" ry="1" stroke-width="0.5" stroke="black" fill="silver" fill-opacity="1"/>
<rect x="211.25" y="100" width="127.5" height="40" rx="1" ry="1" stroke-width="0.5" stroke="black" fill="url(#diagonalHatch)"/>
<!-- julian --><rect x="338.75" y="99.375" width="420" height="41.25" rx="1" ry="1" stroke-width="0.5" stroke="black" fill="maroon" fill-opacity="1"/>
<line x1="338.75" y1="120" x2="758.75" y2="120" stroke-width="1.5" stroke="black" fill="none" stroke-opacity="0.5"/>
<line x1="338.75" y1="120" x2="758.75" y2="120" stroke-width="0.5" stroke="gray" fill="none" stroke-opacity="0.5"/>
<path d="M653.75 91.625 Q631.25 104.125 618.75 92.875" stroke-width="4" stroke="black" fill="none" stroke-linecap="round" />
<path d="M618.75 92.875 Q611.25 89.125 618.75 87.875" stroke-width="4" stroke="black" fill="none" stroke-linecap="round" />
<line x1="618.75" y1="87.875" x2="753.75" y2="87.875" stroke-width="4" stroke="black" fill="dimgray" stroke-linecap="round" />
<line x1="753.75" y1="87.875" x2="758.75" y2="99.125" stroke-width="4" stroke="black" fill="dimgray" stroke-linecap="round" />
<!-- julian --><rect x="758.75" y="96.875" width="33.75" height="46.25" rx="1" ry="1" stroke-width="0.5" stroke="black" fill="silver" fill-opacity="1"/>
<path d="M653.75 91.625 Q631.25 104.125 618.75 92.875" stroke-width="3" stroke="silver" fill="none" stroke-linecap="round" />
<path d="M618.75 92.875 Q611.25 89.125 618.75 87.875" stroke-width="3" stroke="silver" fill="none" stroke-linecap="round" />
<line x1="618.75" y1="87.875" x2="753.75" y2="87.875" stroke-width="3" stroke="silver" fill="silver" stroke-linecap="round" />
<line x1="753.75" y1="87.875" x2="758.75" y2="99.125" stroke-width="3" stroke="silver" fill="silver" stroke-linecap="round" />
<!-- julian --><rect x="792.5" y="105" width="48.75" height="30" rx="1" ry="1" stroke-width="0.5" stroke="dimgray" fill="black" fill-opacity="1"/>
<!-- julian --><rect x="841.25" y="101.25" width="10" height="37.5" rx="1" ry="1" stroke-width="0.5" stroke="dimgray" fill="black" fill-opacity="1"/>
</g><text x="50%" y="200" font-size="1.1em" font-weight="bold" text-anchor="middle" dominant-baseline="middle">Copyright (c) // The Mechanical Pencil Database (tmpdb)</text>
<text x="50%" y="220" font-size="1.1em" font-weight="bold" text-anchor="middle" dominant-baseline="middle">Licensed under Creative Commons Attribution-NonCommercial-ShareAlike 4.0 International</text>
<text x="990" y="230" font-size="0.5em" font-weight="bold" text-anchor="end" dominant-baseline="middle">SVGPencilAllRenderer</text>
</svg>