<svg xmlns="http://www.w3.org/2000/svg" width="1000" height="240">
 <pattern id="knurled-large" patternUnits="userSpaceOnUse" width="12" height="12">
<path stroke="dimgray" stroke-linecap="round" stroke-width="1" d="M 6,6 L 12,12"/>
<path stroke="dimgray" stroke-linecap="round" stroke-width="1" d="M 6,6 L 0,12"/>
<path stroke="gray" stroke-linecap="round" stroke-width="1" d="M 6,6 L 12,0" />
<path stroke="gray" stroke-linecap="round" stroke-width="1" d="M 6,6 L 0,0" />
</pattern><pattern id="knurled-small" patternUnits="userSpaceOnUse" width="4" height="4">
<path stroke="dimgray" stroke-linecap="round" stroke-width="1" d="M 2,2 L 4,4"/>
<path stroke="dimgray" stroke-linecap="round" stroke-width="1" d="M 2,2 L 0,4"/>
<path stroke="gray" stroke-linecap="round" stroke-width="1" d="M 2,2 L 4,0" />
<path stroke="gray" stroke-linecap="round" stroke-width="1" d="M 2,2 L 0,0" />
</pattern><pattern id="knurled" patternUnits="userSpaceOnUse" width="8" height="8">
<path stroke="dimgray" stroke-linecap="round" stroke-width="1" d="M 4,4 L 8,8"/>
<path stroke="dimgray" stroke-linecap="round" stroke-width="1" d="M 4,4 L 0,8"/>
<path stroke="gray" stroke-linecap="round" stroke-width="1" d="M 4,4 L 8,0" />
<path stroke="gray" stroke-linecap="round" stroke-width="1" d="M 4,4 L 0,0" />
</pattern><pattern id="lined" patternUnits="userSpaceOnUse" width="3" height="3">
<path stroke="dimgray" stroke-linecap="round" stroke-width="1" d="M 0,0 L 3,0"/>
</pattern><pattern id="ridged" patternUnits="userSpaceOnUse" width="3" height="3">
<path stroke="dimgray" stroke-linecap="round" stroke-width="1" d="M 0,0 L 0,3"/>
</pattern><rect x="0" y="0" width="1000" height="240" fill="white" stroke="black" stroke-width="4" />
<rect x="2" y="2" width="996" height="236" fill="white" stroke="dimgray" stroke-width="1" />
<g transform="rotate(0 0 0)">
<text x="30" y="50" font-size="2.0em" font-weight="bold"> Mitsubishi // uni (Model #: MH-500)</text>


<!-- renderSideComponent: jaws -->


<!-- renderPart: cone -->
<path d="M148.7 113.125 L153.8 109.375 L153.8 130.625 L148.7 126.875 Z" stroke-width="0" stroke="none" stroke-linejoin="round" fill="silver" fill-opacity="1"/>
<path d="M148.75 113.125 L153.75 109.375 M153.75 130.625 L148.75 126.875" stroke-width="0.5" stroke="black" stroke-linejoin="round" fill="silver" fill-opacity="1"/>
<!-- !left !both--><path d="M148.75 113.125 L148.75 126.875" stroke-width="0.5" stroke="black" stroke-linejoin="round" fill="silver" fill-opacity="1"/>
<!-- !right !both --><path d="M153.75 109.375 L153.75 130.625" stroke-width="0.5" stroke="black" stroke-linejoin="round" fill="silver" fill-opacity="1"/>


<!-- renderSideComponent: tip -->


<!-- renderPart: cone -->
<path d="M153.7 106.875 L211.3 101.25 L211.3 138.75 L153.7 133.125 Z" stroke-width="0" stroke="none" stroke-linejoin="round" fill="silver" fill-opacity="1"/>
<path d="M153.75 106.875 L211.25 101.25 M211.25 138.75 L153.75 133.125" stroke-width="0.5" stroke="black" stroke-linejoin="round" fill="silver" fill-opacity="1"/>
<!-- !left !both--><path d="M153.75 106.875 L153.75 133.125" stroke-width="0.5" stroke="black" stroke-linejoin="round" fill="silver" fill-opacity="1"/>
<!-- !right !both --><path d="M211.25 101.25 L211.25 138.75" stroke-width="0.5" stroke="black" stroke-linejoin="round" fill="silver" fill-opacity="1"/>


<!-- renderSideComponent: grip -->


<!-- renderPart: cylinder -->
<path d="M211.2 100 L338.8 100 L338.8 140 L211.2 140 Z" stroke-width="0" stroke="none" stroke-linejoin="round" fill="silver" fill-opacity="1"/>
<path d="M211.25 100 L338.75 100 M338.75 140 L211.25 140" stroke-width="0.5" stroke="black" stroke-linejoin="round" fill="silver" fill-opacity="1"/>
<!-- !left !both--><path d="M211.25 100 L211.25 140" stroke-width="0.5" stroke="black" stroke-linejoin="round" fill="silver" fill-opacity="1"/>
<!-- !right !both --><path d="M338.75 100 L338.75 140" stroke-width="0.5" stroke="black" stroke-linejoin="round" fill="silver" fill-opacity="1"/>
<path d="M211.25 100 L338.75 100 L338.75 140 L211.25 140 Z" stroke-width="1.0" stroke="black" fill="url(#knurled)"/>


<!-- renderSideComponent: body -->


<!-- renderPart: hexagonal -->
<path d="M338.7 99.375 L758.8 99.375 L758.8 140.625 L338.7 140.625 Z" stroke-width="0" stroke="none" stroke-linejoin="round" fill="maroon" fill-opacity="1"/>
<path d="M338.75 99.375 L758.75 99.375 M758.75 140.625 L338.75 140.625" stroke-width="0.5" stroke="black" stroke-linejoin="round" fill="maroon" fill-opacity="1"/>
<!-- !left !both--><path d="M338.75 99.375 L338.75 140.625" stroke-width="0.5" stroke="black" stroke-linejoin="round" fill="maroon" fill-opacity="1"/>
<!-- !right !both --><path d="M758.75 99.375 L758.75 140.625" stroke-width="0.5" stroke="black" stroke-linejoin="round" fill="maroon" fill-opacity="1"/>
<line x1="338.75" y1="120" x2="758.75" y2="120" stroke-width="1.5" stroke="gray" fill="gray" stroke-opacity="1.0"/>
<line x1="338.75" y1="120" x2="758.75" y2="120" stroke-width="0.5" stroke="black" fill="none" stroke-opacity="0.5"/>


<!-- renderSideComponent: clip -->
<path d="M653.75 91.625 Q631.25 104.125 618.75 92.875" stroke-width="4" stroke="black" fill="none" stroke-linecap="round" />
<path d="M618.75 92.875 Q611.25 89.125 618.75 87.875" stroke-width="4" stroke="black" fill="none" stroke-linecap="round" />
<line x1="618.75" y1="87.875" x2="753.75" y2="87.875" stroke-width="4" stroke="black" fill="dimgray" stroke-linecap="round" />
<line x1="753.75" y1="87.875" x2="758.75" y2="99.125" stroke-width="4" stroke="black" fill="dimgray" stroke-linecap="round" />


<!-- renderPart: cylinder -->
<path d="M758.7 96.875 L792.55 96.875 L792.55 143.125 L758.7 143.125 Z" stroke-width="0" stroke="none" stroke-linejoin="round" fill="silver" fill-opacity="1"/>
<path d="M758.75 96.875 L792.5 96.875 M792.5 143.125 L758.75 143.125" stroke-width="0.5" stroke="black" stroke-linejoin="round" fill="silver" fill-opacity="1"/>
<!-- !left !both--><path d="M758.75 96.875 L758.75 143.125" stroke-width="0.5" stroke="black" stroke-linejoin="round" fill="silver" fill-opacity="1"/>
<!-- !right !both --><path d="M792.5 96.875 L792.5 143.125" stroke-width="0.5" stroke="black" stroke-linejoin="round" fill="silver" fill-opacity="1"/>
<path d="M653.75 91.625 Q631.25 104.125 618.75 92.875" stroke-width="3" stroke="silver" fill="none" stroke-linecap="round" />
<path d="M618.75 92.875 Q611.25 89.125 618.75 87.875" stroke-width="3" stroke="silver" fill="none" stroke-linecap="round" />
<line x1="618.75" y1="87.875" x2="753.75" y2="87.875" stroke-width="3" stroke="silver" fill="silver" stroke-linecap="round" />
<line x1="753.75" y1="87.875" x2="758.75" y2="99.125" stroke-width="3" stroke="silver" fill="silver" stroke-linecap="round" />


<!-- renderSideComponent: cap -->


<!-- renderPart: cylinder -->
<path d="M792.45 105 L841.3 105 L841.3 135 L792.45 135 Z" stroke-width="0" stroke="none" stroke-linejoin="round" fill="black" fill-opacity="1"/>
<path d="M792.5 105 L841.25 105 M841.25 135 L792.5 135" stroke-width="0.5" stroke="dimgray" stroke-linejoin="round" fill="black" fill-opacity="1"/>
<!-- !left !both--><path d="M792.5 105 L792.5 135" stroke-width="0.5" stroke="dimgray" stroke-linejoin="round" fill="black" fill-opacity="1"/>
<!-- !right !both --><path d="M841.25 105 L841.25 135" stroke-width="0.5" stroke="dimgray" stroke-linejoin="round" fill="black" fill-opacity="1"/>


<!-- renderPart: cylinder -->
<path d="M841.2 101.25 L851.3 101.25 L851.3 138.75 L841.2 138.75 Z" stroke-width="0" stroke="none" stroke-linejoin="round" fill="black" fill-opacity="1"/>
<path d="M841.25 101.25 L851.25 101.25 M851.25 138.75 L841.25 138.75" stroke-width="0.5" stroke="dimgray" stroke-linejoin="round" fill="black" fill-opacity="1"/>
<!-- !left !both--><path d="M841.25 101.25 L841.25 138.75" stroke-width="0.5" stroke="dimgray" stroke-linejoin="round" fill="black" fill-opacity="1"/>
<!-- !right !both --><path d="M851.25 101.25 L851.25 138.75" stroke-width="0.5" stroke="dimgray" stroke-linejoin="round" fill="black" fill-opacity="1"/>
</g><text x="50%" y="200" font-size="1.1em" font-weight="bold" text-anchor="middle" dominant-baseline="middle">Copyright (c) // Synapticloop // The Mechanical Pencil Database (tmpdb)</text>
<text x="50%" y="220" font-size="1.1em" font-weight="bold" text-anchor="middle" dominant-baseline="middle">Licensed under Creative Commons Attribution-NonCommercial-ShareAlike 4.0 International</text>
<text x="990" y="230" font-size="0.5em" font-weight="bold" text-anchor="end" dominant-baseline="middle">SVGPencilAllRenderer</text>
</svg>