<svg xmlns="http://www.w3.org/2000/svg" width="1000" height="200">
 <pattern id="knurled-large" patternUnits="userSpaceOnUse" width="12" height="12">
<path stroke="dimgray" stroke-linecap="round" stroke-width="1" d="M 6,6 L 12,12"/>
<path stroke="dimgray" stroke-linecap="round" stroke-width="1" d="M 6,6 L 0,12"/>
<path stroke="gray" stroke-linecap="round" stroke-width="1" d="M 6,6 L 12,0" />
<path stroke="gray" stroke-linecap="round" stroke-width="1" d="M 6,6 L 0,0" />
</pattern><pattern id="knurled-small" patternUnits="userSpaceOnUse" width="4" height="4">
<path stroke="dimgray" stroke-linecap="round" stroke-width="1" d="M 2,2 L 4,4"/>
<path stroke="dimgray" stroke-linecap="round" stroke-width="1" d="M 2,2 L 0,4"/>
<path stroke="gray" stroke-linecap="round" stroke-width="1" d="M 2,2 L 4,0" />
<path stroke="gray" stroke-linecap="round" stroke-width="1" d="M 2,2 L 0,0" />
</pattern><pattern id="knurled" patternUnits="userSpaceOnUse" width="8" height="8">
<path stroke="dimgray" stroke-linecap="round" stroke-width="1" d="M 4,4 L 8,8"/>
<path stroke="dimgray" stroke-linecap="round" stroke-width="1" d="M 4,4 L 0,8"/>
<path stroke="gray" stroke-linecap="round" stroke-width="1" d="M 4,4 L 8,0" />
<path stroke="gray" stroke-linecap="round" stroke-width="1" d="M 4,4 L 0,0" />
</pattern><pattern id="lined" patternUnits="userSpaceOnUse" width="3" height="3">
<path stroke="dimgray" stroke-linecap="round" stroke-width="1" d="M 0,0 L 3,0"/>
</pattern><pattern id="ridged" patternUnits="userSpaceOnUse" width="3" height="3">
<path stroke="dimgray" stroke-linecap="round" stroke-width="1" d="M 0,0 L 0,3"/>
</pattern><pattern id="spring" patternUnits="userSpaceOnUse" width="8" height="100">
<path stroke="dimgray" stroke-linecap="round" stroke-width="2" d="M 1,1 L 9,99"/>
<path stroke="white" stroke-linecap="round" stroke-width="1" d="M 1,1 L 9,99"/>
</pattern><pattern id="knurled" patternUnits="userSpaceOnUse" width="8" height="8">
<path stroke="dimgray" stroke-linecap="round" stroke-width="1" d="M 4,4 L 8,8"/>
<path stroke="dimgray" stroke-linecap="round" stroke-width="1" d="M 4,4 L 0,8"/>
<path stroke="gray" stroke-linecap="round" stroke-width="1" d="M 4,4 L 8,0" />
<path stroke="gray" stroke-linecap="round" stroke-width="1" d="M 4,4 L 0,0" />
</pattern><g transform="rotate(0 0 0)">


<!-- renderSideComponent: jaws -->


<!-- renderPart: cone -->
<path d="M148.75 93.125 L153.75 89.375 L153.75 110.625 L148.75 106.875 Z" stroke-width="0.5" stroke="black" stroke-linejoin="round" fill="white" fill-opacity="1"/>


<!-- renderSideComponent: tip -->


<!-- renderPart: cone -->
<path d="M153.75 86.875 L211.25 81.25 L211.25 118.75 L153.75 113.125 Z" stroke-width="0.5" stroke="black" stroke-linejoin="round" fill="white" fill-opacity="1"/>


<!-- renderSideComponent: grip -->


<!-- renderPart: cylinder -->
<path d="M211.25 80 L338.75 80 L338.75 120 L211.25 120 Z" stroke-width="0.5" stroke="black" stroke-linejoin="round" fill="white" fill-opacity="1"/>
<path d="M211.25 80 L338.75 80 L338.75 120 L211.25 120 Z" stroke-width="1.0" stroke="black" fill="url(#knurled)"/>


<!-- renderSideComponent: body -->


<!-- renderPart: hexagonal -->
<path d="M338.75 79.375 L758.75 79.375 L758.75 120.625 L338.75 120.625 Z" stroke-width="0.5" stroke="black" stroke-linejoin="round" fill="white" fill-opacity="1"/>
<line x1="338.75" y1="100" x2="758.75" y2="100" stroke-width="1.5" stroke="gray" fill="gray" stroke-opacity="1.0"/>
<line x1="338.75" y1="100" x2="758.75" y2="100" stroke-width="0.5" stroke="black" fill="none" stroke-opacity="0.5"/>


<!-- renderSideComponent: clip -->
<path d="M653.75 71.625 Q631.25 84.125 618.75 72.875" stroke-width="4" stroke="black" fill="none" stroke-linecap="round" />
<path d="M618.75 72.875 Q611.25 69.125 618.75 67.875" stroke-width="4" stroke="black" fill="none" stroke-linecap="round" />
<line x1="618.75" y1="67.875" x2="753.75" y2="67.875" stroke-width="4" stroke="black" fill="dimgray" stroke-linecap="round" />
<line x1="753.75" y1="67.875" x2="758.75" y2="79.125" stroke-width="4" stroke="black" fill="dimgray" stroke-linecap="round" />


<!-- renderPart: cylinder -->
<path d="M758.75 76.875 L792.5 76.875 L792.5 123.125 L758.75 123.125 Z" stroke-width="0.5" stroke="black" stroke-linejoin="round" fill="white" fill-opacity="1"/>
<path d="M653.75 71.625 Q631.25 84.125 618.75 72.875" stroke-width="3" stroke="white" fill="none" stroke-linecap="round" />
<path d="M618.75 72.875 Q611.25 69.125 618.75 67.875" stroke-width="3" stroke="white" fill="none" stroke-linecap="round" />
<line x1="618.75" y1="67.875" x2="753.75" y2="67.875" stroke-width="3" stroke="white" fill="white" stroke-linecap="round" />
<line x1="753.75" y1="67.875" x2="758.75" y2="79.125" stroke-width="3" stroke="white" fill="white" stroke-linecap="round" />


<!-- renderSideComponent: cap -->


<!-- renderPart: cylinder -->
<path d="M792.5 85 L841.25 85 L841.25 115 L792.5 115 Z" stroke-width="0.5" stroke="black" stroke-linejoin="round" fill="white" fill-opacity="1"/>


<!-- renderPart: cylinder -->
<path d="M841.25 81.25 L851.25 81.25 L851.25 118.75 L841.25 118.75 Z" stroke-width="0.5" stroke="black" stroke-linejoin="round" fill="white" fill-opacity="1"/>
</g><text x="50%" y="160" font-size="1.1em" font-weight="bold" text-anchor="middle" dominant-baseline="middle">Copyright (c) // Synapticloop and The Mechanical Pencil Database (tmpdb)</text>
<text x="50%" y="180" font-size="1.1em" font-weight="bold" text-anchor="middle" dominant-baseline="middle">Licensed under Creative Commons Attribution-NonCommercial-ShareAlike 4.0 International</text>
<text x="990" y="190" font-size="0.5em" font-weight="bold" text-anchor="end" dominant-baseline="middle">SVGPencilRenderer</text>
</svg>