<svg xmlns="http://www.w3.org/2000/svg" width="1000" height="900">
 <pattern id="knurled-large" patternUnits="userSpaceOnUse" width="12" height="12">
<path stroke="dimgray" stroke-linecap="round" stroke-width="1" d="M 6,6 L 12,12"/>
<path stroke="dimgray" stroke-linecap="round" stroke-width="1" d="M 6,6 L 0,12"/>
<path stroke="gray" stroke-linecap="round" stroke-width="1" d="M 6,6 L 12,0" />
<path stroke="gray" stroke-linecap="round" stroke-width="1" d="M 6,6 L 0,0" />
</pattern><pattern id="knurled-small" patternUnits="userSpaceOnUse" width="4" height="4">
<path stroke="dimgray" stroke-linecap="round" stroke-width="1" d="M 2,2 L 4,4"/>
<path stroke="dimgray" stroke-linecap="round" stroke-width="1" d="M 2,2 L 0,4"/>
<path stroke="gray" stroke-linecap="round" stroke-width="1" d="M 2,2 L 4,0" />
<path stroke="gray" stroke-linecap="round" stroke-width="1" d="M 2,2 L 0,0" />
</pattern><pattern id="knurled" patternUnits="userSpaceOnUse" width="8" height="8">
<path stroke="dimgray" stroke-linecap="round" stroke-width="1" d="M 4,4 L 8,8"/>
<path stroke="dimgray" stroke-linecap="round" stroke-width="1" d="M 4,4 L 0,8"/>
<path stroke="gray" stroke-linecap="round" stroke-width="1" d="M 4,4 L 8,0" />
<path stroke="gray" stroke-linecap="round" stroke-width="1" d="M 4,4 L 0,0" />
</pattern><pattern id="lined" patternUnits="userSpaceOnUse" width="3" height="3">
<path stroke="dimgray" stroke-linecap="round" stroke-width="1" d="M 0,0 L 3,0"/>
</pattern><pattern id="ridged" patternUnits="userSpaceOnUse" width="3" height="3">
<path stroke="dimgray" stroke-linecap="round" stroke-width="1" d="M 0,0 L 0,3"/>
</pattern><pattern id="spring" patternUnits="userSpaceOnUse" width="8" height="60">
<path stroke="dimgray" stroke-linecap="round" stroke-width="2" d="M 1,1 L 8,60"/>
<path stroke="white" stroke-linecap="round" stroke-width="1" d="M 1,1 L 8,60"/>
</pattern><rect x="0" y="0" width="1000" height="900" fill="white" stroke="black" stroke-width="4" />
<rect x="2" y="2" width="996" height="896" fill="white" stroke="dimgray" stroke-width="1" />
<g transform="rotate(0 0 0)">
<text x="30" y="50" font-size="2.0em" font-weight="bold"> Pacific Arc // COLLEGIATE (Model #: H-1301)</text>
<line x1="360" y1="124" x2="360" y2="162" stroke="black" stroke-linecap="round"  stroke-width="2" />
<line x1="240" y1="140" x2="360" y2="140" stroke-linecap="round" stroke="black"  stroke-width="2" />
<line x1="246" y1="144" x2="360" y2="144" stroke-linecap="round" stroke="black"  stroke-width="2" />
<text x="500" y="140" font-size="2.4em" font-weight="bold" text-anchor="middle" dominant-baseline="central">Measurements</text>
<line x1="640" y1="140" x2="760" y2="140" stroke-linecap="round" stroke="black"  stroke-width="2" />
<line x1="640" y1="144" x2="754" y2="144" stroke-linecap="round" stroke="black"  stroke-width="2" />
<line x1="640" y1="124" x2="640" y2="162" stroke="black" stroke-linecap="round"  stroke-width="2" />
<line x1="40" y1="300" x2="960" y2="300" stroke-linecap="round" stroke="#5f5f5f" stroke-dasharray="2" stroke-width="1" />
<line x1="20" y1="300" x2="60" y2="300" stroke-linecap="round" stroke="#000000"  stroke-width="1" />
<line x1="40" y1="280" x2="40" y2="320" stroke="#000000" stroke-linecap="round"  stroke-width="1" />
<circle r="10" cx="40" cy="300" fill="white" fill-opacity="0" stroke="#000000" stroke-width="1"  />
<line x1="940" y1="300" x2="980" y2="300" stroke-linecap="round" stroke="#000000"  stroke-width="1" />
<line x1="960" y1="280" x2="960" y2="320" stroke="#000000" stroke-linecap="round"  stroke-width="1" />
<circle r="10" cx="960" cy="300" fill="white" fill-opacity="0" stroke="#000000" stroke-width="1"  />


<!-- renderSideComponent: tip -->


<!-- renderPart: cylinder -->
<path d="M138.075 291.25 L156.925 291.25 L156.925 308.75 L138.075 308.75 L138.075 291.25" stroke-width="0" stroke="none" stroke-linejoin="round" fill="white" fill-opacity="1"/>
<path d="M138.075 291.25 L156.925 291.25 M156.925 308.75 L138.075 308.75" stroke-width="0.5" stroke="black" stroke-linejoin="round" fill="white" fill-opacity="1"/>
<!-- !right !both --><path d="M156.925 291.25 L156.925 308.75" stroke-width="0.5" stroke="black" stroke-linejoin="round" fill="white" fill-opacity="1"/>
<!-- !left !both --><path d="M138.075 291.25 L138.075 308.75" stroke-width="0.5" stroke="black" stroke-linejoin="round" fill="white" fill-opacity="1"/>


<!-- renderPart: cone -->
<path d="M156.825 287.5 L181.925 281.25 L181.925 318.75 L156.825 312.5 L156.825 287.5" stroke-width="0" stroke="none" stroke-linejoin="round" fill="white" fill-opacity="1"/>
<path d="M156.825 287.5 L181.925 281.25 M181.925 318.75 L156.825 312.5" stroke-width="0.5" stroke="black" stroke-linejoin="round" fill="white" fill-opacity="1"/>
<!-- !right !both --><path d="M181.925 281.25 L181.925 318.75" stroke-width="0.5" stroke="black" stroke-linejoin="round" fill="white" fill-opacity="1"/>
<!-- !left !both --><path d="M156.825 287.5 L156.825 312.5" stroke-width="0.5" stroke="black" stroke-linejoin="round" fill="white" fill-opacity="1"/>


<!-- renderPart: cylinder -->
<path d="M181.825 281.25 L203.175 281.25 L203.175 318.75 L181.825 318.75 L181.825 281.25" stroke-width="0" stroke="none" stroke-linejoin="round" fill="white" fill-opacity="1"/>
<path d="M181.825 281.25 L203.175 281.25 M203.175 318.75 L181.825 318.75" stroke-width="0.5" stroke="black" stroke-linejoin="round" fill="white" fill-opacity="1"/>
<!-- !right !both --><path d="M203.175 281.25 L203.175 318.75" stroke-width="0.5" stroke="black" stroke-linejoin="round" fill="white" fill-opacity="1"/>
<!-- !left !both --><path d="M181.825 281.25 L181.825 318.75" stroke-width="0.5" stroke="black" stroke-linejoin="round" fill="white" fill-opacity="1"/>


<!-- renderPart: cylinder -->
<path d="M203.075 280 L219.425 280 L219.425 320 L203.075 320 L203.075 280" stroke-width="0" stroke="none" stroke-linejoin="round" fill="white" fill-opacity="1"/>
<path d="M203.075 280 L219.425 280 M219.425 320 L203.075 320" stroke-width="0.5" stroke="black" stroke-linejoin="round" fill="white" fill-opacity="1"/>
<!-- !right !both --><path d="M219.425 280 L219.425 320" stroke-width="0.5" stroke="black" stroke-linejoin="round" fill="white" fill-opacity="1"/>
<!-- !left !both --><path d="M203.075 280 L203.075 320" stroke-width="0.5" stroke="black" stroke-linejoin="round" fill="white" fill-opacity="1"/>


<!-- renderPart: cylinder -->
<path d="M219.325 278.125 L231.925 278.125 L231.925 321.875 L219.325 321.875 L219.325 278.125" stroke-width="0" stroke="none" stroke-linejoin="round" fill="white" fill-opacity="1"/>
<path d="M219.325 278.125 L231.925 278.125 M231.925 321.875 L219.325 321.875" stroke-width="0.5" stroke="black" stroke-linejoin="round" fill="white" fill-opacity="1"/>
<!-- !right !both --><path d="M231.925 278.125 L231.925 321.875" stroke-width="0.5" stroke="black" stroke-linejoin="round" fill="white" fill-opacity="1"/>
<!-- !left !both --><path d="M219.325 278.125 L219.325 321.875" stroke-width="0.5" stroke="black" stroke-linejoin="round" fill="white" fill-opacity="1"/>


<!-- renderSideComponent: grip -->


<!-- renderPart: cylinder -->
<path d="M231.825 275 L379.425 275 L379.425 325 L231.825 325 L231.825 275" stroke-width="0" stroke="none" stroke-linejoin="round" fill="white" fill-opacity="1"/>
<path d="M231.825 275 L379.425 275 M379.425 325 L231.825 325" stroke-width="0.5" stroke="black" stroke-linejoin="round" fill="white" fill-opacity="1"/>
<!-- !right !both --><path d="M379.425 275 L379.425 325" stroke-width="0.5" stroke="black" stroke-linejoin="round" fill="white" fill-opacity="1"/>
<!-- !left !both --><path d="M231.825 275 L231.825 325" stroke-width="0.5" stroke="black" stroke-linejoin="round" fill="white" fill-opacity="1"/>
<!-- DEFAULT FINISH: ridged --><path d="M231.875 275 L379.375 275 L379.375 325 L231.875 325 Z" stroke-width="0.5" stroke="black" fill="url(#ridged)"/>


<!-- renderSideComponent: indicator -->


<!-- renderPart: cylinder -->
<path d="M379.325 276.25 L419.425 276.25 L419.425 323.75 L379.325 323.75 L379.325 276.25" stroke-width="0" stroke="none" stroke-linejoin="round" fill="white" fill-opacity="1"/>
<path d="M379.325 276.25 L419.425 276.25 M419.425 323.75 L379.325 323.75" stroke-width="0.5" stroke="black" stroke-linejoin="round" fill="white" fill-opacity="1"/>
<!-- !right !both --><path d="M419.425 276.25 L419.425 323.75" stroke-width="0.5" stroke="black" stroke-linejoin="round" fill="white" fill-opacity="1"/>
<!-- !left !both --><path d="M379.325 276.25 L379.325 323.75" stroke-width="0.5" stroke="black" stroke-linejoin="round" fill="white" fill-opacity="1"/>
<rect x="379.375" y="296" width="40" height="8" rx="0" ry="0" stroke-width="1" stroke="black" fill="white"/>
<rect x="385.375" y="288.125" width="28" height="23.75" rx="3" ry="3" stroke-width="1" stroke="black" fill="white"/>
<rect x="379.625" y="296.25" width="39.5" height="7.5" rx="0" ry="0" stroke-width="1" stroke="none" fill="white"/>
<text x="399.375" y="300" text-anchor="middle" dominant-baseline="central"><tspan stroke="dimgray" stroke-width="0.5" font-family="sans-serif" fill="black" textLength="{this.width * 5 - 14}" > HB</tspan></text>

<!-- renderSideComponent: body -->


<!-- renderPart: cylinder -->
<path d="M419.325 277.5 L738.175 277.5 L738.175 322.5 L419.325 322.5 L419.325 277.5" stroke-width="0" stroke="none" stroke-linejoin="round" fill="white" fill-opacity="1"/>
<path d="M419.325 277.5 L738.175 277.5 M738.175 322.5 L419.325 322.5" stroke-width="0.5" stroke="black" stroke-linejoin="round" fill="white" fill-opacity="1"/>
<!-- !right !both --><path d="M738.175 277.5 L738.175 322.5" stroke-width="0.5" stroke="black" stroke-linejoin="round" fill="white" fill-opacity="1"/>
<!-- !left !both --><path d="M419.325 277.5 L419.325 322.5" stroke-width="0.5" stroke="black" stroke-linejoin="round" fill="white" fill-opacity="1"/>


<!-- renderSideComponent: clip -->
<path d="M582.875 265.875 Q605.625 289.375 615.625 265.875 Z" stroke-width="4" stroke="black" fill="dimgray" stroke-linecap="round" />
<line x1="580.625" y1="264.375" x2="763.125" y2="264.375" stroke-width="4" stroke="black" fill="dimgray" stroke-linecap="round" />
<path d="M763.125 264.375 Q783.125 271.875 763.125 278.125" stroke-width="4" stroke="black" fill="none" stroke-linecap="round" />


<!-- renderPart: cylinder -->
<path d="M738.075 276.875 L761.925 276.875 L761.925 323.125 L738.075 323.125 L738.075 276.875" stroke-width="0" stroke="none" stroke-linejoin="round" fill="white" fill-opacity="1"/>
<path d="M738.075 276.875 L761.925 276.875 M761.925 323.125 L738.075 323.125" stroke-width="0.5" stroke="black" stroke-linejoin="round" fill="white" fill-opacity="1"/>
<!-- !right !both --><path d="M761.925 276.875 L761.925 323.125" stroke-width="0.5" stroke="black" stroke-linejoin="round" fill="white" fill-opacity="1"/>
<!-- !left !both --><path d="M738.075 276.875 L738.075 323.125" stroke-width="0.5" stroke="black" stroke-linejoin="round" fill="white" fill-opacity="1"/>
<path d="M582.875 265.875 Q605.625 288.375 615.625 265.875 Z" stroke-width="3" stroke="white" fill="white" stroke-linecap="round" />
<rect x="582.875" y="265.875" width="35" height="-12.5" stroke-width="3" stroke="white" fill="white" stroke-linecap="round" />
<line x1="580.625" y1="264.375" x2="763.125" y2="264.375" stroke-width="3" stroke="white" fill="white" stroke-linecap="round" />
<path d="M763.125 264.375 Q783.125 271.875 763.125 278.125" stroke-width="3" stroke="white" fill="none" stroke-linecap="round" />


<!-- renderSideComponent: tail -->


<!-- renderPart: cylinder -->
<path d="M761.825 278.125 L770.675 278.125 L770.675 321.875 L761.825 321.875 L761.825 278.125" stroke-width="0" stroke="none" stroke-linejoin="round" fill="white" fill-opacity="1"/>
<path d="M761.825 278.125 L770.675 278.125 M770.675 321.875 L761.825 321.875" stroke-width="0.5" stroke="black" stroke-linejoin="round" fill="white" fill-opacity="1"/>
<!-- !right !both --><path d="M770.675 278.125 L770.675 321.875" stroke-width="0.5" stroke="black" stroke-linejoin="round" fill="white" fill-opacity="1"/>
<!-- !left !both --><path d="M761.825 278.125 L761.825 321.875" stroke-width="0.5" stroke="black" stroke-linejoin="round" fill="white" fill-opacity="1"/>


<!-- renderSideComponent: cap -->


<!-- renderPart: cylinder -->
<path d="M770.575 284.375 L796.925 284.375 L796.925 315.625 L770.575 315.625 L770.575 284.375" stroke-width="0" stroke="none" stroke-linejoin="round" fill="white" fill-opacity="1"/>
<path d="M770.575 284.375 L796.925 284.375 M796.925 315.625 L770.575 315.625" stroke-width="0.5" stroke="black" stroke-linejoin="round" fill="white" fill-opacity="1"/>
<!-- !right !both --><path d="M796.925 284.375 L796.925 315.625" stroke-width="0.5" stroke="black" stroke-linejoin="round" fill="white" fill-opacity="1"/>
<!-- !left !both --><path d="M770.575 284.375 L770.575 315.625" stroke-width="0.5" stroke="black" stroke-linejoin="round" fill="white" fill-opacity="1"/>


<!-- renderPart: cylinder -->
<path d="M796.825 279.375 L851.925 279.375 L851.925 320.625 L796.825 320.625 L796.825 279.375" stroke-width="0" stroke="none" stroke-linejoin="round" fill="white" fill-opacity="1"/>
<path d="M796.825 279.375 L851.925 279.375 M851.925 320.625 L796.825 320.625" stroke-width="0.5" stroke="black" stroke-linejoin="round" fill="white" fill-opacity="1"/>
<!-- !right !both --><path d="M851.925 279.375 L851.925 320.625" stroke-width="0.5" stroke="black" stroke-linejoin="round" fill="white" fill-opacity="1"/>
<!-- !left !both --><path d="M796.825 279.375 L796.825 320.625" stroke-width="0.5" stroke="black" stroke-linejoin="round" fill="white" fill-opacity="1"/>

<!-- sharpener-exposed --><rect x="806.875" y="289.6875" width="35" height="20.625" stroke-width="1" stroke="black" fill="white"/>
<path d="M807.875 290.6875 L 840.875 290.6875 L 840.875 295.6875 L 807.875 300.6875 Z" stroke-width="1" stroke="gray" fill="gray" />
<line x1="807.375" y1="300.6875" x2="841.375" y2="295.6875" stroke="silver" stroke-width="1" />

<!-- renderPart: cylinder -->
<path d="M851.825 280 L854.425 280 L854.425 320 L851.825 320 L851.825 280" stroke-width="0" stroke="none" stroke-linejoin="round" fill="white" fill-opacity="1"/>
<path d="M851.825 280 L854.425 280 M854.425 320 L851.825 320" stroke-width="0.5" stroke="black" stroke-linejoin="round" fill="white" fill-opacity="1"/>
<!-- !right !both --><path d="M854.425 280 L854.425 320" stroke-width="0.5" stroke="black" stroke-linejoin="round" fill="white" fill-opacity="1"/>
<!-- !left !both --><path d="M851.825 280 L851.825 320" stroke-width="0.5" stroke="black" stroke-linejoin="round" fill="white" fill-opacity="1"/>


<!-- renderPart: cylinder -->
<path d="M854.325 279.375 L861.925 279.375 L861.925 320.625 L854.325 320.625 L854.325 279.375" stroke-width="0" stroke="none" stroke-linejoin="round" fill="white" fill-opacity="1"/>
<path d="M854.325 279.375 L861.925 279.375 M861.925 320.625 L854.325 320.625" stroke-width="0.5" stroke="black" stroke-linejoin="round" fill="white" fill-opacity="1"/>
<!-- !right !both --><path d="M861.925 279.375 L861.925 320.625" stroke-width="0.5" stroke="black" stroke-linejoin="round" fill="white" fill-opacity="1"/>
<!-- !left !both --><path d="M854.325 279.375 L854.325 320.625" stroke-width="0.5" stroke="black" stroke-linejoin="round" fill="white" fill-opacity="1"/>

<!-- TAPER START: cylinder -->
<rect x="231.875" y="275.25" width="99.5" height="49.5" rx="0" ry="0" stroke-width="0.5" stroke="none" fill="white" fill-opacity="1"/>
<path d="M 331.875 275 C 206.875 275, 206.875 325, 331.875 325" stroke-width="1.0" stroke="black" stroke-linecap="round" fill-opacity="1" fill="white" />
<!-- TAPER END: cylinder -->
<rect x="331.875" y="275.25" width="47" height="49.5" rx="0" ry="0" stroke-width="0.5" stroke="none" fill="white" fill-opacity="1"/>
<path d="M 331.875 275 C 365.125 275, 365.125 325, 331.875 325" stroke-width="0.5" stroke="black" stroke-linecap="round" fill-opacity="1" fill="white" />
<line x1="138.125" y1="204" x2="138.125" y2="226" stroke="black" stroke-width="1" />
<line x1="138.125" y1="215" x2="231.875" y2="215" stroke="black" stroke-width="1" />
<line x1="231.875" y1="204" x2="231.875" y2="226" stroke="black" stroke-width="1" />
<text x="185" y="196" font-size="1.2em" font-weight="bold" text-anchor="middle" dominant-baseline="central" fill="black"><tspan x="185" dy="0">18.75 mm</tspan></text>
<line x1="138.125" y1="204" x2="138.125" y2="226" stroke="black" stroke-width="1" />
<line x1="138.125" y1="215" x2="231.875" y2="215" stroke="black" stroke-width="1" />
<line x1="231.875" y1="204" x2="231.875" y2="226" stroke="black" stroke-width="1" />
<text x="185" y="234" font-size="1.2em" font-weight="bold" text-anchor="middle" dominant-baseline="central" fill="black"><tspan x="185" dy="0">tip</tspan></text>
<line x1="231.875" y1="204" x2="231.875" y2="226" stroke="black" stroke-width="1" />
<line x1="231.875" y1="215" x2="770.625" y2="215" stroke="black" stroke-width="1" />
<line x1="770.625" y1="204" x2="770.625" y2="226" stroke="black" stroke-width="1" />
<text x="501.25" y="196" font-size="1.2em" font-weight="bold" text-anchor="middle" dominant-baseline="central" fill="black"><tspan x="501.25" dy="0">107.75 mm</tspan></text>
<line x1="231.875" y1="204" x2="231.875" y2="226" stroke="black" stroke-width="1" />
<line x1="231.875" y1="215" x2="770.625" y2="215" stroke="black" stroke-width="1" />
<line x1="770.625" y1="204" x2="770.625" y2="226" stroke="black" stroke-width="1" />
<text x="501.25" y="234" font-size="1.2em" font-weight="bold" text-anchor="middle" dominant-baseline="central" fill="black"><tspan x="501.25" dy="0">body</tspan></text>
<line x1="770.625" y1="204" x2="770.625" y2="226" stroke="black" stroke-width="1" />
<line x1="770.625" y1="215" x2="861.875" y2="215" stroke="black" stroke-width="1" />
<line x1="861.875" y1="204" x2="861.875" y2="226" stroke="black" stroke-width="1" />
<text x="816.25" y="196" font-size="1.2em" font-weight="bold" text-anchor="middle" dominant-baseline="central" fill="black"><tspan x="816.25" dy="0">18.25 mm</tspan></text>
<line x1="770.625" y1="204" x2="770.625" y2="226" stroke="black" stroke-width="1" />
<line x1="770.625" y1="215" x2="861.875" y2="215" stroke="black" stroke-width="1" />
<line x1="861.875" y1="204" x2="861.875" y2="226" stroke="black" stroke-width="1" />
<text x="816.25" y="234" font-size="1.2em" font-weight="bold" text-anchor="middle" dominant-baseline="central" fill="black"><tspan x="816.25" dy="0">cap</tspan></text>
<line x1="138.125" y1="404" x2="138.125" y2="426" stroke="black" stroke-width="1" />
<line x1="138.125" y1="415" x2="861.875" y2="415" stroke="black" stroke-width="1" />
<line x1="861.875" y1="404" x2="861.875" y2="426" stroke="black" stroke-width="1" />
<text x="500" y="434" font-size="1.2em" font-weight="bold" text-anchor="middle" dominant-baseline="central" fill="black"><tspan x="500" dy="0">144.75 mm</tspan></text>
<line x1="138.125" y1="404" x2="138.125" y2="426" stroke="black" stroke-width="1" />
<line x1="138.125" y1="415" x2="861.875" y2="415" stroke="black" stroke-width="1" />
<line x1="861.875" y1="404" x2="861.875" y2="426" stroke="black" stroke-width="1" />
<text x="500" y="396" font-size="1.2em" font-weight="bold" text-anchor="middle" dominant-baseline="central" fill="black"><tspan x="500" dy="0">Total Length</tspan></text>
<line x1="580.625" y1="344" x2="580.625" y2="366" stroke="black" stroke-width="1" />
<line x1="580.625" y1="355" x2="775.625" y2="355" stroke="black" stroke-width="1" />
<line x1="775.625" y1="344" x2="775.625" y2="366" stroke="black" stroke-width="1" />
<text x="678.125" y="336" font-size="1.2em" font-weight="bold" text-anchor="middle" dominant-baseline="central" fill="black"><tspan x="678.125" dy="0">39.00 mm</tspan></text>
<line x1="580.625" y1="344" x2="580.625" y2="366" stroke="black" stroke-width="1" />
<line x1="580.625" y1="355" x2="775.625" y2="355" stroke="black" stroke-width="1" />
<line x1="775.625" y1="344" x2="775.625" y2="366" stroke="black" stroke-width="1" />
<text x="678.125" y="374" font-size="1.2em" font-weight="bold" text-anchor="middle" dominant-baseline="central" fill="black"><tspan x="678.125" dy="0">clip</tspan></text>
<line x1="231.875" y1="344" x2="231.875" y2="366" stroke="black" stroke-width="1" />
<line x1="231.875" y1="355" x2="379.375" y2="355" stroke="black" stroke-width="1" />
<line x1="379.375" y1="344" x2="379.375" y2="366" stroke="black" stroke-width="1" />
<text x="305.625" y="336" font-size="1.2em" font-weight="bold" text-anchor="middle" dominant-baseline="central" fill="black"><tspan x="305.625" dy="0">29.50 mm</tspan></text>
<line x1="231.875" y1="344" x2="231.875" y2="366" stroke="black" stroke-width="1" />
<line x1="231.875" y1="355" x2="379.375" y2="355" stroke="black" stroke-width="1" />
<line x1="379.375" y1="344" x2="379.375" y2="366" stroke="black" stroke-width="1" />
<text x="305.625" y="374" font-size="1.2em" font-weight="bold" text-anchor="middle" dominant-baseline="central" fill="black"><tspan x="305.625" dy="0">grip</tspan></text>
<line x1="414" y1="524" x2="414" y2="562" stroke="black" stroke-linecap="round"  stroke-width="2" />
<line x1="240" y1="540" x2="414" y2="540" stroke-linecap="round" stroke="black"  stroke-width="2" />
<line x1="246" y1="544" x2="414" y2="544" stroke-linecap="round" stroke="black"  stroke-width="2" />
<text x="500" y="540" font-size="2.4em" font-weight="bold" text-anchor="middle" dominant-baseline="central">Variants</text>
<line x1="586" y1="540" x2="760" y2="540" stroke-linecap="round" stroke="black"  stroke-width="2" />
<line x1="586" y1="544" x2="754" y2="544" stroke-linecap="round" stroke="black"  stroke-width="2" />
<line x1="586" y1="524" x2="586" y2="562" stroke="black" stroke-linecap="round"  stroke-width="2" />


<!-- renderSideComponent: tip -->


<!-- renderPart: cylinder -->
<path d="M138.075 631.25 L156.925 631.25 L156.925 648.75 L138.075 648.75 L138.075 631.25" stroke-width="0" stroke="none" stroke-linejoin="round" fill="#b4b8b9" fill-opacity="1"/>
<path d="M138.075 631.25 L156.925 631.25 M156.925 648.75 L138.075 648.75" stroke-width="0.5" stroke="black" stroke-linejoin="round" fill="#b4b8b9" fill-opacity="1"/>
<!-- !right !both --><path d="M156.925 631.25 L156.925 648.75" stroke-width="0.5" stroke="black" stroke-linejoin="round" fill="#b4b8b9" fill-opacity="1"/>
<!-- !left !both --><path d="M138.075 631.25 L138.075 648.75" stroke-width="0.5" stroke="black" stroke-linejoin="round" fill="#b4b8b9" fill-opacity="1"/>


<!-- renderPart: cone -->
<path d="M156.825 627.5 L181.925 621.25 L181.925 658.75 L156.825 652.5 L156.825 627.5" stroke-width="0" stroke="none" stroke-linejoin="round" fill="#b4b8b9" fill-opacity="1"/>
<path d="M156.825 627.5 L181.925 621.25 M181.925 658.75 L156.825 652.5" stroke-width="0.5" stroke="black" stroke-linejoin="round" fill="#b4b8b9" fill-opacity="1"/>
<!-- !right !both --><path d="M181.925 621.25 L181.925 658.75" stroke-width="0.5" stroke="black" stroke-linejoin="round" fill="#b4b8b9" fill-opacity="1"/>
<!-- !left !both --><path d="M156.825 627.5 L156.825 652.5" stroke-width="0.5" stroke="black" stroke-linejoin="round" fill="#b4b8b9" fill-opacity="1"/>


<!-- renderPart: cylinder -->
<path d="M181.825 621.25 L203.175 621.25 L203.175 658.75 L181.825 658.75 L181.825 621.25" stroke-width="0" stroke="none" stroke-linejoin="round" fill="#b4b8b9" fill-opacity="1"/>
<path d="M181.825 621.25 L203.175 621.25 M203.175 658.75 L181.825 658.75" stroke-width="0.5" stroke="black" stroke-linejoin="round" fill="#b4b8b9" fill-opacity="1"/>
<!-- !right !both --><path d="M203.175 621.25 L203.175 658.75" stroke-width="0.5" stroke="black" stroke-linejoin="round" fill="#b4b8b9" fill-opacity="1"/>
<!-- !left !both --><path d="M181.825 621.25 L181.825 658.75" stroke-width="0.5" stroke="black" stroke-linejoin="round" fill="#b4b8b9" fill-opacity="1"/>


<!-- renderPart: cylinder -->
<path d="M203.075 620 L219.425 620 L219.425 660 L203.075 660 L203.075 620" stroke-width="0" stroke="none" stroke-linejoin="round" fill="#b4b8b9" fill-opacity="1"/>
<path d="M203.075 620 L219.425 620 M219.425 660 L203.075 660" stroke-width="0.5" stroke="black" stroke-linejoin="round" fill="#b4b8b9" fill-opacity="1"/>
<!-- !right !both --><path d="M219.425 620 L219.425 660" stroke-width="0.5" stroke="black" stroke-linejoin="round" fill="#b4b8b9" fill-opacity="1"/>
<!-- !left !both --><path d="M203.075 620 L203.075 660" stroke-width="0.5" stroke="black" stroke-linejoin="round" fill="#b4b8b9" fill-opacity="1"/>


<!-- renderPart: cylinder -->
<path d="M219.325 618.125 L231.925 618.125 L231.925 661.875 L219.325 661.875 L219.325 618.125" stroke-width="0" stroke="none" stroke-linejoin="round" fill="#b4b8b9" fill-opacity="1"/>
<path d="M219.325 618.125 L231.925 618.125 M231.925 661.875 L219.325 661.875" stroke-width="0.5" stroke="black" stroke-linejoin="round" fill="#b4b8b9" fill-opacity="1"/>
<!-- !right !both --><path d="M231.925 618.125 L231.925 661.875" stroke-width="0.5" stroke="black" stroke-linejoin="round" fill="#b4b8b9" fill-opacity="1"/>
<!-- !left !both --><path d="M219.325 618.125 L219.325 661.875" stroke-width="0.5" stroke="black" stroke-linejoin="round" fill="#b4b8b9" fill-opacity="1"/>


<!-- renderSideComponent: grip -->


<!-- renderPart: cylinder -->
<path d="M231.825 615 L379.425 615 L379.425 665 L231.825 665 L231.825 615" stroke-width="0" stroke="none" stroke-linejoin="round" fill="black" fill-opacity="1"/>
<path d="M231.825 615 L379.425 615 M379.425 665 L231.825 665" stroke-width="0.5" stroke="dimgray" stroke-linejoin="round" fill="black" fill-opacity="1"/>
<!-- !right !both --><path d="M379.425 615 L379.425 665" stroke-width="0.5" stroke="dimgray" stroke-linejoin="round" fill="black" fill-opacity="1"/>
<!-- !left !both --><path d="M231.825 615 L231.825 665" stroke-width="0.5" stroke="dimgray" stroke-linejoin="round" fill="black" fill-opacity="1"/>
<!-- DEFAULT FINISH: ridged --><path d="M231.875 615 L379.375 615 L379.375 665 L231.875 665 Z" stroke-width="0.5" stroke="black" fill="url(#ridged)"/>


<!-- renderSideComponent: indicator -->


<!-- renderPart: cylinder -->
<path d="M379.325 616.25 L419.425 616.25 L419.425 663.75 L379.325 663.75 L379.325 616.25" stroke-width="0" stroke="none" stroke-linejoin="round" fill="grey" fill-opacity="1"/>
<path d="M379.325 616.25 L419.425 616.25 M419.425 663.75 L379.325 663.75" stroke-width="0.5" stroke="black" stroke-linejoin="round" fill="grey" fill-opacity="1"/>
<!-- !right !both --><path d="M419.425 616.25 L419.425 663.75" stroke-width="0.5" stroke="black" stroke-linejoin="round" fill="grey" fill-opacity="1"/>
<!-- !left !both --><path d="M379.325 616.25 L379.325 663.75" stroke-width="0.5" stroke="black" stroke-linejoin="round" fill="grey" fill-opacity="1"/>
<rect x="379.375" y="636" width="40" height="8" rx="0" ry="0" stroke-width="1" stroke="black" fill="grey"/>
<rect x="385.375" y="628.125" width="28" height="23.75" rx="3" ry="3" stroke-width="1" stroke="black" fill="grey"/>
<rect x="379.625" y="636.25" width="39.5" height="7.5" rx="0" ry="0" stroke-width="1" stroke="none" fill="grey"/>
<text x="399.375" y="640" text-anchor="middle" dominant-baseline="central"><tspan stroke="dimgray" stroke-width="0.5" font-family="sans-serif" fill="black" textLength="{this.width * 5 - 14}" > HB</tspan></text>

<!-- renderSideComponent: body -->


<!-- renderPart: cylinder -->
<path d="M419.325 617.5 L738.175 617.5 L738.175 662.5 L419.325 662.5 L419.325 617.5" stroke-width="0" stroke="none" stroke-linejoin="round" fill="black" fill-opacity="1"/>
<path d="M419.325 617.5 L738.175 617.5 M738.175 662.5 L419.325 662.5" stroke-width="0.5" stroke="dimgray" stroke-linejoin="round" fill="black" fill-opacity="1"/>
<!-- !right !both --><path d="M738.175 617.5 L738.175 662.5" stroke-width="0.5" stroke="dimgray" stroke-linejoin="round" fill="black" fill-opacity="1"/>
<!-- !left !both --><path d="M419.325 617.5 L419.325 662.5" stroke-width="0.5" stroke="dimgray" stroke-linejoin="round" fill="black" fill-opacity="1"/>


<!-- renderSideComponent: clip -->
<path d="M582.875 605.875 Q605.625 629.375 615.625 605.875 Z" stroke-width="4" stroke="black" fill="dimgray" stroke-linecap="round" />
<line x1="580.625" y1="604.375" x2="763.125" y2="604.375" stroke-width="4" stroke="black" fill="dimgray" stroke-linecap="round" />
<path d="M763.125 604.375 Q783.125 611.875 763.125 618.125" stroke-width="4" stroke="black" fill="none" stroke-linecap="round" />


<!-- renderPart: cylinder -->
<path d="M738.075 616.875 L761.925 616.875 L761.925 663.125 L738.075 663.125 L738.075 616.875" stroke-width="0" stroke="none" stroke-linejoin="round" fill="#b4b8b9" fill-opacity="1"/>
<path d="M738.075 616.875 L761.925 616.875 M761.925 663.125 L738.075 663.125" stroke-width="0.5" stroke="black" stroke-linejoin="round" fill="#b4b8b9" fill-opacity="1"/>
<!-- !right !both --><path d="M761.925 616.875 L761.925 663.125" stroke-width="0.5" stroke="black" stroke-linejoin="round" fill="#b4b8b9" fill-opacity="1"/>
<!-- !left !both --><path d="M738.075 616.875 L738.075 663.125" stroke-width="0.5" stroke="black" stroke-linejoin="round" fill="#b4b8b9" fill-opacity="1"/>
<path d="M582.875 605.875 Q605.625 628.375 615.625 605.875 Z" stroke-width="3" stroke="#b4b8b9" fill="#b4b8b9" stroke-linecap="round" />
<rect x="582.875" y="605.875" width="35" height="-12.5" stroke-width="3" stroke="#b4b8b9" fill="#b4b8b9" stroke-linecap="round" />
<line x1="580.625" y1="604.375" x2="763.125" y2="604.375" stroke-width="3" stroke="#b4b8b9" fill="#b4b8b9" stroke-linecap="round" />
<path d="M763.125 604.375 Q783.125 611.875 763.125 618.125" stroke-width="3" stroke="#b4b8b9" fill="none" stroke-linecap="round" />


<!-- renderSideComponent: tail -->


<!-- renderPart: cylinder -->
<path d="M761.825 618.125 L770.675 618.125 L770.675 661.875 L761.825 661.875 L761.825 618.125" stroke-width="0" stroke="none" stroke-linejoin="round" fill="black" fill-opacity="1"/>
<path d="M761.825 618.125 L770.675 618.125 M770.675 661.875 L761.825 661.875" stroke-width="0.5" stroke="dimgray" stroke-linejoin="round" fill="black" fill-opacity="1"/>
<!-- !right !both --><path d="M770.675 618.125 L770.675 661.875" stroke-width="0.5" stroke="dimgray" stroke-linejoin="round" fill="black" fill-opacity="1"/>
<!-- !left !both --><path d="M761.825 618.125 L761.825 661.875" stroke-width="0.5" stroke="dimgray" stroke-linejoin="round" fill="black" fill-opacity="1"/>


<!-- renderSideComponent: cap -->


<!-- renderPart: cylinder -->
<path d="M770.575 624.375 L796.925 624.375 L796.925 655.625 L770.575 655.625 L770.575 624.375" stroke-width="0" stroke="none" stroke-linejoin="round" fill="black" fill-opacity="1"/>
<path d="M770.575 624.375 L796.925 624.375 M796.925 655.625 L770.575 655.625" stroke-width="0.5" stroke="dimgray" stroke-linejoin="round" fill="black" fill-opacity="1"/>
<!-- !right !both --><path d="M796.925 624.375 L796.925 655.625" stroke-width="0.5" stroke="dimgray" stroke-linejoin="round" fill="black" fill-opacity="1"/>
<!-- !left !both --><path d="M770.575 624.375 L770.575 655.625" stroke-width="0.5" stroke="dimgray" stroke-linejoin="round" fill="black" fill-opacity="1"/>


<!-- renderPart: cylinder -->
<path d="M796.825 619.375 L851.925 619.375 L851.925 660.625 L796.825 660.625 L796.825 619.375" stroke-width="0" stroke="none" stroke-linejoin="round" fill="black" fill-opacity="1"/>
<path d="M796.825 619.375 L851.925 619.375 M851.925 660.625 L796.825 660.625" stroke-width="0.5" stroke="dimgray" stroke-linejoin="round" fill="black" fill-opacity="1"/>
<!-- !right !both --><path d="M851.925 619.375 L851.925 660.625" stroke-width="0.5" stroke="dimgray" stroke-linejoin="round" fill="black" fill-opacity="1"/>
<!-- !left !both --><path d="M796.825 619.375 L796.825 660.625" stroke-width="0.5" stroke="dimgray" stroke-linejoin="round" fill="black" fill-opacity="1"/>

<!-- sharpener-exposed --><rect x="806.875" y="629.6875" width="35" height="20.625" stroke-width="1" stroke="black" fill="black"/>
<path d="M807.875 630.6875 L 840.875 630.6875 L 840.875 635.6875 L 807.875 640.6875 Z" stroke-width="1" stroke="gray" fill="gray" />
<line x1="807.375" y1="640.6875" x2="841.375" y2="635.6875" stroke="silver" stroke-width="1" />

<!-- renderPart: cylinder -->
<path d="M851.825 620 L854.425 620 L854.425 660 L851.825 660 L851.825 620" stroke-width="0" stroke="none" stroke-linejoin="round" fill="black" fill-opacity="1"/>
<path d="M851.825 620 L854.425 620 M854.425 660 L851.825 660" stroke-width="0.5" stroke="dimgray" stroke-linejoin="round" fill="black" fill-opacity="1"/>
<!-- !right !both --><path d="M854.425 620 L854.425 660" stroke-width="0.5" stroke="dimgray" stroke-linejoin="round" fill="black" fill-opacity="1"/>
<!-- !left !both --><path d="M851.825 620 L851.825 660" stroke-width="0.5" stroke="dimgray" stroke-linejoin="round" fill="black" fill-opacity="1"/>


<!-- renderPart: cylinder -->
<path d="M854.325 619.375 L861.925 619.375 L861.925 660.625 L854.325 660.625 L854.325 619.375" stroke-width="0" stroke="none" stroke-linejoin="round" fill="black" fill-opacity="1"/>
<path d="M854.325 619.375 L861.925 619.375 M861.925 660.625 L854.325 660.625" stroke-width="0.5" stroke="dimgray" stroke-linejoin="round" fill="black" fill-opacity="1"/>
<!-- !right !both --><path d="M861.925 619.375 L861.925 660.625" stroke-width="0.5" stroke="dimgray" stroke-linejoin="round" fill="black" fill-opacity="1"/>
<!-- !left !both --><path d="M854.325 619.375 L854.325 660.625" stroke-width="0.5" stroke="dimgray" stroke-linejoin="round" fill="black" fill-opacity="1"/>

<!-- TAPER START: cylinder -->
<rect x="231.875" y="615.25" width="99.5" height="49.5" rx="0" ry="0" stroke-width="0.5" stroke="none" fill="none" fill-opacity="1"/>
<path d="M 331.875 615 C 206.875 615, 206.875 665, 331.875 665" stroke-width="1.0" stroke="gray" stroke-linecap="round" fill-opacity="1" fill="black" />
<!-- TAPER END: cylinder -->
<rect x="331.875" y="615.25" width="47" height="49.5" rx="0" ry="0" stroke-width="0.5" stroke="none" fill="none" fill-opacity="1"/>
<path d="M 331.875 615 C 365.125 615, 365.125 665, 331.875 665" stroke-width="0.5" stroke="gray" stroke-linecap="round" fill-opacity="1" fill="black" />
<text x="500" y="690" font-size="1.2em" font-weight="bold" text-anchor="middle" dominant-baseline="central">black (H-1301BLK)</text>


<!-- renderSideComponent: tip -->


<!-- renderPart: cylinder -->
<path d="M138.075 751.25 L156.925 751.25 L156.925 768.75 L138.075 768.75 L138.075 751.25" stroke-width="0" stroke="none" stroke-linejoin="round" fill="#b4b8b9" fill-opacity="1"/>
<path d="M138.075 751.25 L156.925 751.25 M156.925 768.75 L138.075 768.75" stroke-width="0.5" stroke="black" stroke-linejoin="round" fill="#b4b8b9" fill-opacity="1"/>
<!-- !right !both --><path d="M156.925 751.25 L156.925 768.75" stroke-width="0.5" stroke="black" stroke-linejoin="round" fill="#b4b8b9" fill-opacity="1"/>
<!-- !left !both --><path d="M138.075 751.25 L138.075 768.75" stroke-width="0.5" stroke="black" stroke-linejoin="round" fill="#b4b8b9" fill-opacity="1"/>


<!-- renderPart: cone -->
<path d="M156.825 747.5 L181.925 741.25 L181.925 778.75 L156.825 772.5 L156.825 747.5" stroke-width="0" stroke="none" stroke-linejoin="round" fill="#b4b8b9" fill-opacity="1"/>
<path d="M156.825 747.5 L181.925 741.25 M181.925 778.75 L156.825 772.5" stroke-width="0.5" stroke="black" stroke-linejoin="round" fill="#b4b8b9" fill-opacity="1"/>
<!-- !right !both --><path d="M181.925 741.25 L181.925 778.75" stroke-width="0.5" stroke="black" stroke-linejoin="round" fill="#b4b8b9" fill-opacity="1"/>
<!-- !left !both --><path d="M156.825 747.5 L156.825 772.5" stroke-width="0.5" stroke="black" stroke-linejoin="round" fill="#b4b8b9" fill-opacity="1"/>


<!-- renderPart: cylinder -->
<path d="M181.825 741.25 L203.175 741.25 L203.175 778.75 L181.825 778.75 L181.825 741.25" stroke-width="0" stroke="none" stroke-linejoin="round" fill="#b4b8b9" fill-opacity="1"/>
<path d="M181.825 741.25 L203.175 741.25 M203.175 778.75 L181.825 778.75" stroke-width="0.5" stroke="black" stroke-linejoin="round" fill="#b4b8b9" fill-opacity="1"/>
<!-- !right !both --><path d="M203.175 741.25 L203.175 778.75" stroke-width="0.5" stroke="black" stroke-linejoin="round" fill="#b4b8b9" fill-opacity="1"/>
<!-- !left !both --><path d="M181.825 741.25 L181.825 778.75" stroke-width="0.5" stroke="black" stroke-linejoin="round" fill="#b4b8b9" fill-opacity="1"/>


<!-- renderPart: cylinder -->
<path d="M203.075 740 L219.425 740 L219.425 780 L203.075 780 L203.075 740" stroke-width="0" stroke="none" stroke-linejoin="round" fill="#b4b8b9" fill-opacity="1"/>
<path d="M203.075 740 L219.425 740 M219.425 780 L203.075 780" stroke-width="0.5" stroke="black" stroke-linejoin="round" fill="#b4b8b9" fill-opacity="1"/>
<!-- !right !both --><path d="M219.425 740 L219.425 780" stroke-width="0.5" stroke="black" stroke-linejoin="round" fill="#b4b8b9" fill-opacity="1"/>
<!-- !left !both --><path d="M203.075 740 L203.075 780" stroke-width="0.5" stroke="black" stroke-linejoin="round" fill="#b4b8b9" fill-opacity="1"/>


<!-- renderPart: cylinder -->
<path d="M219.325 738.125 L231.925 738.125 L231.925 781.875 L219.325 781.875 L219.325 738.125" stroke-width="0" stroke="none" stroke-linejoin="round" fill="#b4b8b9" fill-opacity="1"/>
<path d="M219.325 738.125 L231.925 738.125 M231.925 781.875 L219.325 781.875" stroke-width="0.5" stroke="black" stroke-linejoin="round" fill="#b4b8b9" fill-opacity="1"/>
<!-- !right !both --><path d="M231.925 738.125 L231.925 781.875" stroke-width="0.5" stroke="black" stroke-linejoin="round" fill="#b4b8b9" fill-opacity="1"/>
<!-- !left !both --><path d="M219.325 738.125 L219.325 781.875" stroke-width="0.5" stroke="black" stroke-linejoin="round" fill="#b4b8b9" fill-opacity="1"/>


<!-- renderSideComponent: grip -->


<!-- renderPart: cylinder -->
<path d="M231.825 735 L379.425 735 L379.425 785 L231.825 785 L231.825 735" stroke-width="0" stroke="none" stroke-linejoin="round" fill="#0174bd" fill-opacity="1"/>
<path d="M231.825 735 L379.425 735 M379.425 785 L231.825 785" stroke-width="0.5" stroke="black" stroke-linejoin="round" fill="#0174bd" fill-opacity="1"/>
<!-- !right !both --><path d="M379.425 735 L379.425 785" stroke-width="0.5" stroke="black" stroke-linejoin="round" fill="#0174bd" fill-opacity="1"/>
<!-- !left !both --><path d="M231.825 735 L231.825 785" stroke-width="0.5" stroke="black" stroke-linejoin="round" fill="#0174bd" fill-opacity="1"/>
<!-- DEFAULT FINISH: ridged --><path d="M231.875 735 L379.375 735 L379.375 785 L231.875 785 Z" stroke-width="0.5" stroke="black" fill="url(#ridged)"/>


<!-- renderSideComponent: indicator -->


<!-- renderPart: cylinder -->
<path d="M379.325 736.25 L419.425 736.25 L419.425 783.75 L379.325 783.75 L379.325 736.25" stroke-width="0" stroke="none" stroke-linejoin="round" fill="grey" fill-opacity="1"/>
<path d="M379.325 736.25 L419.425 736.25 M419.425 783.75 L379.325 783.75" stroke-width="0.5" stroke="black" stroke-linejoin="round" fill="grey" fill-opacity="1"/>
<!-- !right !both --><path d="M419.425 736.25 L419.425 783.75" stroke-width="0.5" stroke="black" stroke-linejoin="round" fill="grey" fill-opacity="1"/>
<!-- !left !both --><path d="M379.325 736.25 L379.325 783.75" stroke-width="0.5" stroke="black" stroke-linejoin="round" fill="grey" fill-opacity="1"/>
<rect x="379.375" y="756" width="40" height="8" rx="0" ry="0" stroke-width="1" stroke="black" fill="grey"/>
<rect x="385.375" y="748.125" width="28" height="23.75" rx="3" ry="3" stroke-width="1" stroke="black" fill="grey"/>
<rect x="379.625" y="756.25" width="39.5" height="7.5" rx="0" ry="0" stroke-width="1" stroke="none" fill="grey"/>
<text x="399.375" y="760" text-anchor="middle" dominant-baseline="central"><tspan stroke="dimgray" stroke-width="0.5" font-family="sans-serif" fill="black" textLength="{this.width * 5 - 14}" > HB</tspan></text>

<!-- renderSideComponent: body -->


<!-- renderPart: cylinder -->
<path d="M419.325 737.5 L738.175 737.5 L738.175 782.5 L419.325 782.5 L419.325 737.5" stroke-width="0" stroke="none" stroke-linejoin="round" fill="#0174bd" fill-opacity="1"/>
<path d="M419.325 737.5 L738.175 737.5 M738.175 782.5 L419.325 782.5" stroke-width="0.5" stroke="black" stroke-linejoin="round" fill="#0174bd" fill-opacity="1"/>
<!-- !right !both --><path d="M738.175 737.5 L738.175 782.5" stroke-width="0.5" stroke="black" stroke-linejoin="round" fill="#0174bd" fill-opacity="1"/>
<!-- !left !both --><path d="M419.325 737.5 L419.325 782.5" stroke-width="0.5" stroke="black" stroke-linejoin="round" fill="#0174bd" fill-opacity="1"/>


<!-- renderSideComponent: clip -->
<path d="M582.875 725.875 Q605.625 749.375 615.625 725.875 Z" stroke-width="4" stroke="black" fill="dimgray" stroke-linecap="round" />
<line x1="580.625" y1="724.375" x2="763.125" y2="724.375" stroke-width="4" stroke="black" fill="dimgray" stroke-linecap="round" />
<path d="M763.125 724.375 Q783.125 731.875 763.125 738.125" stroke-width="4" stroke="black" fill="none" stroke-linecap="round" />


<!-- renderPart: cylinder -->
<path d="M738.075 736.875 L761.925 736.875 L761.925 783.125 L738.075 783.125 L738.075 736.875" stroke-width="0" stroke="none" stroke-linejoin="round" fill="#b4b8b9" fill-opacity="1"/>
<path d="M738.075 736.875 L761.925 736.875 M761.925 783.125 L738.075 783.125" stroke-width="0.5" stroke="black" stroke-linejoin="round" fill="#b4b8b9" fill-opacity="1"/>
<!-- !right !both --><path d="M761.925 736.875 L761.925 783.125" stroke-width="0.5" stroke="black" stroke-linejoin="round" fill="#b4b8b9" fill-opacity="1"/>
<!-- !left !both --><path d="M738.075 736.875 L738.075 783.125" stroke-width="0.5" stroke="black" stroke-linejoin="round" fill="#b4b8b9" fill-opacity="1"/>
<path d="M582.875 725.875 Q605.625 748.375 615.625 725.875 Z" stroke-width="3" stroke="#b4b8b9" fill="#b4b8b9" stroke-linecap="round" />
<rect x="582.875" y="725.875" width="35" height="-12.5" stroke-width="3" stroke="#b4b8b9" fill="#b4b8b9" stroke-linecap="round" />
<line x1="580.625" y1="724.375" x2="763.125" y2="724.375" stroke-width="3" stroke="#b4b8b9" fill="#b4b8b9" stroke-linecap="round" />
<path d="M763.125 724.375 Q783.125 731.875 763.125 738.125" stroke-width="3" stroke="#b4b8b9" fill="none" stroke-linecap="round" />


<!-- renderSideComponent: tail -->


<!-- renderPart: cylinder -->
<path d="M761.825 738.125 L770.675 738.125 L770.675 781.875 L761.825 781.875 L761.825 738.125" stroke-width="0" stroke="none" stroke-linejoin="round" fill="#0174bd" fill-opacity="1"/>
<path d="M761.825 738.125 L770.675 738.125 M770.675 781.875 L761.825 781.875" stroke-width="0.5" stroke="black" stroke-linejoin="round" fill="#0174bd" fill-opacity="1"/>
<!-- !right !both --><path d="M770.675 738.125 L770.675 781.875" stroke-width="0.5" stroke="black" stroke-linejoin="round" fill="#0174bd" fill-opacity="1"/>
<!-- !left !both --><path d="M761.825 738.125 L761.825 781.875" stroke-width="0.5" stroke="black" stroke-linejoin="round" fill="#0174bd" fill-opacity="1"/>


<!-- renderSideComponent: cap -->


<!-- renderPart: cylinder -->
<path d="M770.575 744.375 L796.925 744.375 L796.925 775.625 L770.575 775.625 L770.575 744.375" stroke-width="0" stroke="none" stroke-linejoin="round" fill="#0174bd" fill-opacity="1"/>
<path d="M770.575 744.375 L796.925 744.375 M796.925 775.625 L770.575 775.625" stroke-width="0.5" stroke="black" stroke-linejoin="round" fill="#0174bd" fill-opacity="1"/>
<!-- !right !both --><path d="M796.925 744.375 L796.925 775.625" stroke-width="0.5" stroke="black" stroke-linejoin="round" fill="#0174bd" fill-opacity="1"/>
<!-- !left !both --><path d="M770.575 744.375 L770.575 775.625" stroke-width="0.5" stroke="black" stroke-linejoin="round" fill="#0174bd" fill-opacity="1"/>


<!-- renderPart: cylinder -->
<path d="M796.825 739.375 L851.925 739.375 L851.925 780.625 L796.825 780.625 L796.825 739.375" stroke-width="0" stroke="none" stroke-linejoin="round" fill="#0174bd" fill-opacity="1"/>
<path d="M796.825 739.375 L851.925 739.375 M851.925 780.625 L796.825 780.625" stroke-width="0.5" stroke="black" stroke-linejoin="round" fill="#0174bd" fill-opacity="1"/>
<!-- !right !both --><path d="M851.925 739.375 L851.925 780.625" stroke-width="0.5" stroke="black" stroke-linejoin="round" fill="#0174bd" fill-opacity="1"/>
<!-- !left !both --><path d="M796.825 739.375 L796.825 780.625" stroke-width="0.5" stroke="black" stroke-linejoin="round" fill="#0174bd" fill-opacity="1"/>

<!-- sharpener-exposed --><rect x="806.875" y="749.6875" width="35" height="20.625" stroke-width="1" stroke="black" fill="#0174bd"/>
<path d="M807.875 750.6875 L 840.875 750.6875 L 840.875 755.6875 L 807.875 760.6875 Z" stroke-width="1" stroke="gray" fill="gray" />
<line x1="807.375" y1="760.6875" x2="841.375" y2="755.6875" stroke="silver" stroke-width="1" />

<!-- renderPart: cylinder -->
<path d="M851.825 740 L854.425 740 L854.425 780 L851.825 780 L851.825 740" stroke-width="0" stroke="none" stroke-linejoin="round" fill="#0174bd" fill-opacity="1"/>
<path d="M851.825 740 L854.425 740 M854.425 780 L851.825 780" stroke-width="0.5" stroke="black" stroke-linejoin="round" fill="#0174bd" fill-opacity="1"/>
<!-- !right !both --><path d="M854.425 740 L854.425 780" stroke-width="0.5" stroke="black" stroke-linejoin="round" fill="#0174bd" fill-opacity="1"/>
<!-- !left !both --><path d="M851.825 740 L851.825 780" stroke-width="0.5" stroke="black" stroke-linejoin="round" fill="#0174bd" fill-opacity="1"/>


<!-- renderPart: cylinder -->
<path d="M854.325 739.375 L861.925 739.375 L861.925 780.625 L854.325 780.625 L854.325 739.375" stroke-width="0" stroke="none" stroke-linejoin="round" fill="#0174bd" fill-opacity="1"/>
<path d="M854.325 739.375 L861.925 739.375 M861.925 780.625 L854.325 780.625" stroke-width="0.5" stroke="black" stroke-linejoin="round" fill="#0174bd" fill-opacity="1"/>
<!-- !right !both --><path d="M861.925 739.375 L861.925 780.625" stroke-width="0.5" stroke="black" stroke-linejoin="round" fill="#0174bd" fill-opacity="1"/>
<!-- !left !both --><path d="M854.325 739.375 L854.325 780.625" stroke-width="0.5" stroke="black" stroke-linejoin="round" fill="#0174bd" fill-opacity="1"/>

<!-- TAPER START: cylinder -->
<rect x="231.875" y="735.25" width="99.5" height="49.5" rx="0" ry="0" stroke-width="0.5" stroke="none" fill="none" fill-opacity="1"/>
<path d="M 331.875 735 C 206.875 735, 206.875 785, 331.875 785" stroke-width="1.0" stroke="black" stroke-linecap="round" fill-opacity="1" fill="#0174bd" />
<!-- TAPER END: cylinder -->
<rect x="331.875" y="735.25" width="47" height="49.5" rx="0" ry="0" stroke-width="0.5" stroke="none" fill="none" fill-opacity="1"/>
<path d="M 331.875 735 C 365.125 735, 365.125 785, 331.875 785" stroke-width="0.5" stroke="black" stroke-linecap="round" fill-opacity="1" fill="#0174bd" />
<text x="500" y="810" font-size="1.2em" font-weight="bold" text-anchor="middle" dominant-baseline="central">blue (H-1301BLUE)</text>
</g><text x="50%" y="860" font-size="1.1em" font-weight="bold" text-anchor="middle" dominant-baseline="middle">Copyright (c) // Synapticloop // The Mechanical Pencil Database (tmpdb)</text>
<text x="50%" y="880" font-size="1.1em" font-weight="bold" text-anchor="middle" dominant-baseline="middle">Licensed under Creative Commons Attribution-NonCommercial-ShareAlike 4.0 International</text>
<text x="990" y="890" font-size="0.5em" font-weight="bold" text-anchor="end" dominant-baseline="middle">SVGTechnicalGroupedRenderer</text>
</svg>