<svg xmlns="http://www.w3.org/2000/svg" width="1400" height="600">
<pattern id="diagonalHatch" patternUnits="userSpaceOnUse" width="8" height="8">
<rect width="6" height="6" fill='none'/>
<path stroke="dimgray" stroke-linecap="round" stroke-width="1" d="M 4,4 L 8,8"/>
<path stroke="dimgray" stroke-linecap="round" stroke-width="1" d="M 4,4 L 0,8"/>
<path stroke="gray" stroke-linecap="round" stroke-width="1" d="M 4,4 L 8,0" />
<path stroke="gray" stroke-linecap="round" stroke-width="1" d="M 4,4 L 0,0" />
</pattern>
<rect x="0" y="0" width="1400" height="600" fill="white" stroke="black" stroke-width="4" />
<rect x="2" y="2" width="1396" height="596" fill="white" stroke="orange" stroke-width="1" />
<text x="30" y="50" font-size="2.0em" font-weight="bold"> Pacific Arc // H-1309 (2.0mm)</text>
<text x="30" y="80" font-size="1.1em"> PACIFIC ARC H-1309</text>
<line x1="40" y1="264.625" x2="1300" y2="264.625" stroke="#cfcfcf" stroke-width="1" />
<line x1="100" y1="278.375" x2="1300" y2="278.375" stroke="#cfcfcf" stroke-width="1" />
<line x1="1300" y1="277.5" x2="1300" y2="277.5" stroke="#cfcfcf" stroke-width="1" />
<line x1="40" y1="322.5" x2="1300" y2="322.5" stroke="#cfcfcf" stroke-width="1" />
<line x1="76.90598923241497" y1="342.5" x2="76.90598923241497" y2="300" stroke="#cfcfcf" stroke-width="1" />
<line x1="123.09401076758503" y1="342.5" x2="123.09401076758503" y2="300" stroke="#cfcfcf" stroke-width="1" />
<line x1="328.75" y1="189.5" x2="328.75" y2="442.5" stroke="#cfcfcf" stroke-width="1" />
<line x1="340" y1="189.5" x2="340" y2="442.5" stroke="#cfcfcf" stroke-width="1" />
<line x1="408.75" y1="189.5" x2="408.75" y2="442.5" stroke="#cfcfcf" stroke-width="1" />
<line x1="556.25" y1="189.5" x2="556.25" y2="442.5" stroke="#cfcfcf" stroke-width="1" />
<line x1="893.75" y1="189.5" x2="893.75" y2="442.5" stroke="#cfcfcf" stroke-width="1" />
<line x1="738.75" y1="233.5" x2="738.75" y2="420" stroke="#cfcfcf" stroke-width="1" />
<line x1="933.75" y1="233.5" x2="933.75" y2="420" stroke="#cfcfcf" stroke-width="1" />
<line x1="921.25" y1="189.5" x2="921.25" y2="442.5" stroke="#cfcfcf" stroke-width="1" />
<line x1="941.25" y1="189.5" x2="941.25" y2="442.5" stroke="#cfcfcf" stroke-width="1" />
<line x1="988.75" y1="189.5" x2="988.75" y2="442.5" stroke="#cfcfcf" stroke-width="1" />
<line x1="993.75" y1="189.5" x2="993.75" y2="442.5" stroke="#cfcfcf" stroke-width="1" />
<line x1="1000" y1="189.5" x2="1000" y2="442.5" stroke="#cfcfcf" stroke-width="1" />
<line x1="1006.25" y1="189.5" x2="1006.25" y2="442.5" stroke="#cfcfcf" stroke-width="1" />
<line x1="1071.25" y1="189.5" x2="1071.25" y2="422.5" stroke="#cfcfcf" stroke-width="1" />
<line x1="40" y1="264.625" x2="60" y2="264.625" stroke="black" stroke-width="1" />
<line x1="40" y1="322.5" x2="60" y2="322.5" stroke="black" stroke-width="1" />
<line x1="50" y1="264.625" x2="50" y2="322.5" stroke="black" stroke-width="1" />
<line x1="140" y1="264.625" x2="160" y2="264.625" stroke="black" stroke-width="1" />
<line x1="140" y1="278.375" x2="160" y2="278.375" stroke="black" stroke-width="1" />
<line x1="150" y1="264.625" x2="150" y2="278.375" stroke="black" stroke-width="1" />
<text x="164" y="271.5" font-size="1.2em" font-weight="bold" text-anchor="start" dominant-baseline="central">2.75 mm</text>
<text x="30" y="300" transform="rotate(-90, 30, 300)" font-size="1.2em" font-weight="bold" text-anchor="middle" dominant-baseline="central">11.75 mm</text>
<text x="100" y="540" font-size="1.8em" font-weight="bold" text-anchor="middle" dominant-baseline="central">Front</text>
<line x1="76.90598923241497" y1="352.5" x2="123.09401076758503" y2="352.5" stroke="black" stroke-width="1" />
<line x1="76.90598923241497" y1="342.5" x2="76.90598923241497" y2="362.5" stroke="black" stroke-width="1" />
<line x1="123.09401076758503" y1="342.5" x2="123.09401076758503" y2="362.5" stroke="black" stroke-width="1" />
<text x="100" y="372.5" font-size="1.2em" font-weight="bold" text-anchor="middle" dominant-baseline="central">9.24 mm</text>
<line x1="328.75" y1="200.5" x2="328.75" y2="178.5" stroke="black" stroke-width="1" />
<text x="334.375" y="175.5" transform="rotate(-90, 334.375, 175.5)" font-size="1.2em" font-weight="bold" dominant-baseline="middle">2.25 mm jaws</text>
<line x1="340" y1="200.5" x2="340" y2="178.5" stroke="black" stroke-width="1" />
<text x="371.375" y="175.5" transform="rotate(-90, 371.375, 175.5)" font-size="1.2em" font-weight="bold" dominant-baseline="auto">13.75 mm</text>
<text x="377.375" y="175.5" transform="rotate(-90, 377.375, 175.5)" font-size="1.2em" font-weight="bold" dominant-baseline="hanging">tip</text>
<line x1="408.75" y1="200.5" x2="408.75" y2="178.5" stroke="black" stroke-width="1" />
<text x="479.5" y="175.5" transform="rotate(-90, 479.5, 175.5)" font-size="1.2em" font-weight="bold" dominant-baseline="auto">29.50 mm</text>
<text x="485.5" y="175.5" transform="rotate(-90, 485.5, 175.5)" font-size="1.2em" font-weight="bold" dominant-baseline="hanging">grip</text>
<line x1="556.25" y1="200.5" x2="556.25" y2="178.5" stroke="black" stroke-width="1" />
<text x="722" y="175.5" transform="rotate(-90, 722, 175.5)" font-size="1.2em" font-weight="bold" dominant-baseline="auto">67.50 mm</text>
<text x="728" y="175.5" transform="rotate(-90, 728, 175.5)" font-size="1.2em" font-weight="bold" dominant-baseline="hanging">body</text>
<line x1="893.75" y1="200.5" x2="893.75" y2="178.5" stroke="black" stroke-width="1" />
<text x="907.5" y="175.5" transform="rotate(-90, 907.5, 175.5)" font-size="1.2em" font-weight="bold" dominant-baseline="middle">5.50 mm clip</text>
<line x1="738.75" y1="253.5" x2="738.75" y2="231.5" stroke="black" stroke-width="1" />
<line x1="738.75" y1="420" x2="738.75" y2="396" stroke="black" stroke-width="1" />
<line x1="933.75" y1="396" x2="933.75" y2="420" stroke="black" stroke-width="1" />
<line x1="933.75" y1="253.5" x2="933.75" y2="231.5" stroke="black" stroke-width="1" />
<line x1="738.75" y1="242.5" x2="933.75" y2="242.5" stroke="black" stroke-width="1" />
<line x1="738.75" y1="409.5" x2="933.75" y2="409.5" stroke="black" stroke-width="1" />
<text x="836.25" y="392.5" font-size="1.2em" text-anchor="middle" dominant-baseline="central">metal</text>
<text x="836.25" y="231.5" font-size="1.2em" font-weight="bold" text-anchor="middle" dominant-baseline="central">39.00 mm</text>
<text x="836.25" y="251.5" font-size="1.2em" font-weight="bold" text-anchor="middle" dominant-baseline="central">clip (extra)</text>
<line x1="921.25" y1="200.5" x2="921.25" y2="178.5" stroke="black" stroke-width="1" />
<text x="931.25" y="175.5" transform="rotate(-90, 931.25, 175.5)" font-size="1.2em" font-weight="bold" dominant-baseline="middle">4.00 mm tail</text>
<line x1="941.25" y1="200.5" x2="941.25" y2="178.5" stroke="black" stroke-width="1" />
<text x="962" y="175.5" transform="rotate(-90, 962, 175.5)" font-size="1.2em" font-weight="bold" dominant-baseline="auto">9.50 mm</text>
<text x="968" y="175.5" transform="rotate(-90, 968, 175.5)" font-size="1.2em" font-weight="bold" dominant-baseline="hanging">indicator</text>
<line x1="988.75" y1="200.5" x2="988.75" y2="178.5" stroke="black" stroke-width="1" />
<text x="991.25" y="175.5" transform="rotate(-90, 991.25, 175.5)" font-size="1.2em" font-weight="bold" dominant-baseline="middle">1.00 mm foot</text>
<line x1="993.75" y1="200.5" x2="993.75" y2="178.5" stroke="black" stroke-width="1" />
<text x="996.875" y="175.5" transform="rotate(-90, 996.875, 175.5)" font-size="1.2em" font-weight="bold" dominant-baseline="middle">1.25 mm ring</text>
<line x1="1000" y1="200.5" x2="1000" y2="178.5" stroke="black" stroke-width="1" />
<text x="1003.125" y="175.5" transform="rotate(-90, 1003.125, 175.5)" font-size="1.2em" font-weight="bold" dominant-baseline="middle">1.25 mm foot</text>
<line x1="1006.25" y1="200.5" x2="1006.25" y2="178.5" stroke="black" stroke-width="1" />
<text x="1035.75" y="175.5" transform="rotate(-90, 1035.75, 175.5)" font-size="1.2em" font-weight="bold" dominant-baseline="auto">13.00 mm</text>
<text x="1041.75" y="175.5" transform="rotate(-90, 1041.75, 175.5)" font-size="1.2em" font-weight="bold" dominant-baseline="hanging">cap</text>
<line x1="1071.25" y1="200.5" x2="1071.25" y2="178.5" stroke="black" stroke-width="1" />
<line x1="328.75" y1="189.5" x2="1071.25" y2="189.5" stroke="black" stroke-width="1" />
<line x1="328.75" y1="352.5" x2="1071.25" y2="352.5" stroke="black" stroke-width="1" />
<line x1="328.75" y1="342.5" x2="328.75" y2="362.5" stroke="black" stroke-width="1" />
<line x1="1071.25" y1="342.5" x2="1071.25" y2="362.5" stroke="black" stroke-width="1" />
<text x="700" y="372.5" font-size="1.2em" font-weight="bold" text-anchor="middle" dominant-baseline="central">148.50 mm</text>
<text x="700" y="540" font-size="1.8em" font-weight="bold" text-anchor="middle" dominant-baseline="central">Side view</text>
<text x="1300" y="540" font-size="1.8em" font-weight="bold" text-anchor="middle" dominant-baseline="central">Back</text>
<line x1="328.75" y1="422.5" x2="328.75" y2="446.5" stroke="black" stroke-width="1" />
<text x="334.375" y="448.5" transform="rotate(-90, 334.375, 448.5)" font-size="1.2em" text-anchor="end" dominant-baseline="middle">metal</text>
<line x1="340" y1="422.5" x2="340" y2="446.5" stroke="black" stroke-width="1" />
<text x="374.375" y="448.5" transform="rotate(-90, 374.375, 448.5)" font-size="1.2em" text-anchor="end" dominant-baseline="middle">metal</text>
<line x1="408.75" y1="422.5" x2="408.75" y2="446.5" stroke="black" stroke-width="1" />
<text x="482.5" y="448.5" transform="rotate(-90, 482.5, 448.5)" font-size="1.2em" text-anchor="end" dominant-baseline="middle">metal</text>
<line x1="556.25" y1="422.5" x2="556.25" y2="446.5" stroke="black" stroke-width="1" />
<text x="725" y="448.5" transform="rotate(-90, 725, 448.5)" font-size="1.2em" text-anchor="end" dominant-baseline="middle">metal</text>
<line x1="893.75" y1="422.5" x2="893.75" y2="446.5" stroke="black" stroke-width="1" />
<text x="907.5" y="448.5" transform="rotate(-90, 907.5, 448.5)" font-size="1.2em" text-anchor="end" dominant-baseline="middle">metal</text>
<line x1="921.25" y1="422.5" x2="921.25" y2="446.5" stroke="black" stroke-width="1" />
<text x="931.25" y="448.5" transform="rotate(-90, 931.25, 448.5)" font-size="1.2em" text-anchor="end" dominant-baseline="middle">metal</text>
<line x1="941.25" y1="422.5" x2="941.25" y2="446.5" stroke="black" stroke-width="1" />
<text x="965" y="448.5" transform="rotate(-90, 965, 448.5)" font-size="1.2em" text-anchor="end" dominant-baseline="middle">plastic</text>
<line x1="988.75" y1="422.5" x2="988.75" y2="446.5" stroke="black" stroke-width="1" />
<text x="991.25" y="448.5" transform="rotate(-90, 991.25, 448.5)" font-size="1.2em" text-anchor="end" dominant-baseline="middle">metal</text>
<line x1="993.75" y1="422.5" x2="993.75" y2="446.5" stroke="black" stroke-width="1" />
<text x="996.875" y="448.5" transform="rotate(-90, 996.875, 448.5)" font-size="1.2em" text-anchor="end" dominant-baseline="middle">rubber</text>
<line x1="1000" y1="422.5" x2="1000" y2="446.5" stroke="black" stroke-width="1" />
<text x="1003.125" y="448.5" transform="rotate(-90, 1003.125, 448.5)" font-size="1.2em" text-anchor="end" dominant-baseline="middle">metal</text>
<line x1="1006.25" y1="422.5" x2="1006.25" y2="446.5" stroke="black" stroke-width="1" />
<text x="1038.75" y="448.5" transform="rotate(-90, 1038.75, 448.5)" font-size="1.2em" text-anchor="end" dominant-baseline="middle">plastic</text>
<line x1="1071.25" y1="422.5" x2="1071.25" y2="446.5" stroke="black" stroke-width="1" />
<line x1="328.75" y1="434.5" x2="1071.25" y2="434.5" stroke="black" stroke-width="1" />

<!-- RENDERING - component: jaws -->
<circle r="10" cx="1300" cy="300" stroke="dimgray" stroke-width="1" fill="white" />
<circle r="8.125" cx="1300" cy="300" stroke="dimgray" stroke-width="1" fill="white" />


<!-- RENDERING - component: tip -->
<circle r="20.625" cx="1300" cy="300" stroke="dimgray" stroke-width="1" fill="white" />
<circle r="13.125" cx="1300" cy="300" stroke="dimgray" stroke-width="1" fill="white" />


<!-- RENDERING - component: grip -->
<circle r="20.625" cx="1300" cy="300" stroke="dimgray" stroke-width="1" fill="white" />


<!-- RENDERING - component: body -->
<polygon points="1288.4529946162074,280 1311.5470053837926,280 1323.0940107675851,300 1311.5470053837926,320 1288.4529946162074,320 1276.9059892324149,300 " stroke="dimgray" stroke-width="1" fill="white"/>


<!-- RENDERING - component: clip -->
<circle r="22.5" cx="1300" cy="300" stroke="dimgray" stroke-width="1" fill="white" />

<!-- 4.5 0.6 --><rect x="1288.75" y="275.375" width="22.5" height="3" rx="1" ry="1" stroke-width="1.0" stroke="dimgray" fill="white"/>
<rect x="1288.75" y="275.375" width="22.5" height="3" rx="1" ry="1" stroke-width="1.0" stroke="dimgray" fill="none"/>
<!-- 4.5 0.6 --><rect x="1288.75" y="275.375" width="22.5" height="3" rx="1" ry="1" stroke-width="1.0" stroke="dimgray" fill="white"/>
<rect x="1288.75" y="275.375" width="22.5" height="3" rx="1" ry="1" stroke-width="1.0" stroke="dimgray" fill="none"/>
<!-- 4.5 2.75 --><rect x="1288.75" y="264.625" width="22.5" height="13.75" rx="1" ry="1" stroke-width="1.0" stroke="dimgray" fill="white"/>
<line x1="1288.75" x2="1311.25" y1="264.625" y2="264.625" stroke-width="0.25" stroke="#dfdfdf" />
<line x1="1288.75" x2="1311.25" y1="264.625" y2="264.625" stroke-width="0.25" stroke="#dfdfdf" />
<line x1="1288.75" x2="1311.25" y1="264.625" y2="264.625" stroke-width="0.25" stroke="#dfdfdf" />
<line x1="1288.75" x2="1311.25" y1="264.625" y2="264.625" stroke-width="0.25" stroke="#dfdfdf" />
<rect x="1288.75" y="264.625" width="22.5" height="13.75" rx="1" ry="1" stroke-width="1.0" stroke="dimgray" fill="none"/>


<!-- RENDERING - component: tail -->
<circle r="20" cx="1300" cy="300" stroke="dimgray" stroke-width="1" fill="white" />


<!-- RENDERING - component: indicator -->
<circle r="20.625" cx="1300" cy="300" stroke="dimgray" stroke-width="1" fill="white" />


<!-- RENDERING - component: foot -->
<circle r="20" cx="1300" cy="300" stroke="dimgray" stroke-width="1" fill="white" />


<!-- RENDERING - component: ring -->
<circle r="20" cx="1300" cy="300" stroke="dimgray" stroke-width="1" fill="white" />


<!-- RENDERING - component: foot -->
<circle r="20" cx="1300" cy="300" stroke="dimgray" stroke-width="1" fill="white" />


<!-- RENDERING - component: cap -->
<circle r="13.75" cx="1300" cy="300" stroke="dimgray" stroke-width="1" fill="white" />

<circle r="12.5" cx="1300" cy="300" stroke="dimgray" stroke-width="1" fill="white" />

<circle r="13.75" cx="1300" cy="300" stroke="dimgray" stroke-width="1" fill="white" />

<circle r="12.5" cx="1300" cy="300" stroke="dimgray" stroke-width="1" fill="white" />

<circle r="13.75" cx="1300" cy="300" stroke="dimgray" stroke-width="1" fill="white" />

<circle r="12.5" cx="1300" cy="300" stroke="dimgray" stroke-width="1" fill="white" />

<circle r="13.75" cx="1300" cy="300" stroke="dimgray" stroke-width="1" fill="white" />

<circle cx="1300" cy="300" r="5" stroke="dimgray" stroke-width="0.5" fill="black" /><circle r="13.75" cx="100" cy="300" stroke="dimgray" stroke-width="1" fill="white" />

<circle r="12.5" cx="100" cy="300" stroke="dimgray" stroke-width="1" fill="white" />

<circle r="13.75" cx="100" cy="300" stroke="dimgray" stroke-width="1" fill="white" />

<circle r="12.5" cx="100" cy="300" stroke="dimgray" stroke-width="1" fill="white" />

<circle r="13.75" cx="100" cy="300" stroke="dimgray" stroke-width="1" fill="white" />

<circle r="12.5" cx="100" cy="300" stroke="dimgray" stroke-width="1" fill="white" />

<circle r="13.75" cx="100" cy="300" stroke="dimgray" stroke-width="1" fill="white" />


<!-- RENDERING - component: cap -->
<circle r="20" cx="100" cy="300" stroke="dimgray" stroke-width="1" fill="white" />


<!-- RENDERING - component: foot -->
<circle r="20" cx="100" cy="300" stroke="dimgray" stroke-width="1" fill="white" />


<!-- RENDERING - component: ring -->
<circle r="20" cx="100" cy="300" stroke="dimgray" stroke-width="1" fill="white" />


<!-- RENDERING - component: foot -->
<circle r="20.625" cx="100" cy="300" stroke="dimgray" stroke-width="1" fill="white" />


<!-- RENDERING - component: indicator -->
<circle r="20" cx="100" cy="300" stroke="dimgray" stroke-width="1" fill="white" />


<!-- RENDERING - component: tail -->
<!-- 4.5 2.75 --><rect x="88.75" y="264.625" width="22.5" height="13.75" rx="1" ry="1" stroke-width="1.0" stroke="dimgray" fill="white"/>
<line x1="88.75" x2="111.25" y1="264.625" y2="264.625" stroke-width="0.25" stroke="#dfdfdf" />
<line x1="88.75" x2="111.25" y1="264.625" y2="264.625" stroke-width="0.25" stroke="#dfdfdf" />
<line x1="88.75" x2="111.25" y1="264.625" y2="264.625" stroke-width="0.25" stroke="#dfdfdf" />
<line x1="88.75" x2="111.25" y1="264.625" y2="264.625" stroke-width="0.25" stroke="#dfdfdf" />
<rect x="88.75" y="264.625" width="22.5" height="13.75" rx="1" ry="1" stroke-width="1.0" stroke="dimgray" fill="none"/>
<!-- 4.5 0.6 --><rect x="88.75" y="275.375" width="22.5" height="3" rx="1" ry="1" stroke-width="1.0" stroke="dimgray" fill="white"/>
<rect x="88.75" y="275.375" width="22.5" height="3" rx="1" ry="1" stroke-width="1.0" stroke="dimgray" fill="none"/>
<!-- 4.5 0.6 --><rect x="88.75" y="275.375" width="22.5" height="3" rx="1" ry="1" stroke-width="1.0" stroke="dimgray" fill="white"/>
<rect x="88.75" y="275.375" width="22.5" height="3" rx="1" ry="1" stroke-width="1.0" stroke="dimgray" fill="none"/>

<circle r="22.5" cx="100" cy="300" stroke="dimgray" stroke-width="1" fill="white" />


<!-- RENDERING - component: clip -->
<polygon points="88.45299461620749,280 111.54700538379251,280 123.09401076758503,300 111.54700538379251,320 88.45299461620749,320 76.90598923241497,300 " stroke="dimgray" stroke-width="1" fill="white"/>


<!-- RENDERING - component: body -->
<circle r="20.625" cx="100" cy="300" stroke="dimgray" stroke-width="1" fill="white" />


<!-- RENDERING - component: grip -->
<circle r="13.125" cx="100" cy="300" stroke="dimgray" stroke-width="1" fill="white" />
<circle r="20.625" cx="100" cy="300" stroke="dimgray" stroke-width="1" fill="white" />


<!-- RENDERING - component: tip -->
<circle r="8.125" cx="100" cy="300" stroke="dimgray" stroke-width="1" fill="white" />
<circle r="10" cx="100" cy="300" stroke="dimgray" stroke-width="1" fill="white" />


<!-- RENDERING - component: jaws -->
<circle cx="100" cy="300" r="5" stroke="dimgray" stroke-width="0.5" fill="black" />
<!-- RENDERING - component: jaws -->
<!-- RENDERING - part: cone -->
<path d="M328.75 291.875 L340 290 L340 310 L328.75 308.125 Z" stroke-width="0.5" stroke="dimgray" fill="white" />


<!-- RENDERING - component: tip -->
<!-- RENDERING - part: cone -->
<path d="M340 286.875 L408.75 279.375 L408.75 320.625 L340 313.125 Z" stroke-width="0.5" stroke="dimgray" fill="white" />


<!-- RENDERING - component: grip -->
<!-- RENDERING - part: cylinder -->
<rect x="408.75" y="279.375" width="147.5" height="41.25" rx="1" ry="1" stroke-width="0.5" stroke="dimgray" fill="white"/>
<rect x="408.75" y="279.375" width="147.5" height="41.25" rx="1" ry="1" stroke-width="0.5" stroke="black" fill="url(#diagonalHatch)"/>


<!-- RENDERING - component: body -->
<!-- RENDERING - part: hexagonal -->
<rect x="556.25" y="280" width="337.5" height="40" rx="1" ry="1" stroke-width="0.5" stroke="dimgray" fill="white"/>
<line x1="556.25" y1="300" x2="893.75" y2="300" stroke-width="1.5" stroke="black" fill="none" stroke-opacity="0.5"/>
<line x1="556.25" y1="300" x2="893.75" y2="300" stroke-width="0.5" stroke="gray" fill="none" stroke-opacity="0.5"/>


<!-- RENDERING - component: clip -->
<!-- RENDERING - part: cylinder -->
<rect x="893.75" y="277.5" width="27.5" height="45" rx="1" ry="1" stroke-width="0.5" stroke="dimgray" fill="white"/>

<!-- RENDERING - part: extra -->
<path d="M741 265.875 Q763.75 289.375 773.75 265.875 Z" stroke-width="3" stroke="black" fill="dimgray" stroke-linecap="round" />
<line x1="738.75" y1="264.375" x2="921.25" y2="264.375" stroke-width="3" stroke="black" fill="dimgray" stroke-linecap="round" />
/><path d="M921.25 264.375 Q941.25 271.875 921.25 278.125" stroke-width="3" stroke="black" fill="none" stroke-linecap="round" />
<path d="M741 265.875 Q763.75 288.375 773.75 265.875 Z" stroke-width="2" stroke="white" fill="white" stroke-linecap="round" />
<line x1="738.75" y1="264.375" x2="921.25" y2="264.375" stroke-width="2" stroke="white" fill="white" stroke-linecap="round" />
/><path d="M921.25 264.375 Q941.25 271.875 921.25 278.125" stroke-width="2" stroke="white" fill="none" stroke-linecap="round" />


<!-- RENDERING - component: tail -->
<!-- RENDERING - part: cylinder -->
<rect x="921.25" y="280" width="20" height="40" rx="1" ry="1" stroke-width="0.5" stroke="dimgray" fill="white"/>


<!-- RENDERING - component: indicator -->
<!-- RENDERING - part: cylinder -->
<rect x="941.25" y="279.375" width="47.5" height="41.25" rx="1" ry="1" stroke-width="0.5" stroke="dimgray" fill="white"/>
<rect x="941.25" y="279.375" width="47.5" height="41.25" rx="1" ry="1" stroke-width="0.5" stroke="black" fill="url(#diagonalHatch)"/>
<rect x="951.25" y="289.6875" width="27.5" height="20.625" rx="1" ry="1" stroke-width="2" stroke="black" fill="white"/>
<text x="965" y="300" text-anchor="middle" dominant-baseline="central"><tspan stroke="dimgray" stroke-width="0.5" fill="black" textLength="{this.width * 5 - 24}" > HB</tspan></text>

<!-- RENDERING - component: foot -->
<!-- RENDERING - part: cylinder -->
<rect x="988.75" y="280" width="5" height="40" rx="1" ry="1" stroke-width="0.5" stroke="dimgray" fill="white"/>


<!-- RENDERING - component: ring -->
<!-- RENDERING - part: cylinder -->
<rect x="993.75" y="280" width="6.25" height="40" rx="1" ry="1" stroke-width="0.5" stroke="black" fill="white"/>


<!-- RENDERING - component: foot -->
<!-- RENDERING - part: cylinder -->
<rect x="1000" y="280" width="6.25" height="40" rx="1" ry="1" stroke-width="0.5" stroke="dimgray" fill="white"/>


<!-- RENDERING - component: cap -->
<!-- RENDERING - part: cylinder -->
<rect x="1006.25" y="286.25" width="30" height="27.5" rx="1" ry="1" stroke-width="0.5" stroke="dimgray" fill="white"/>

<!-- RENDERING - part: cylinder -->
<rect x="1036.25" y="287.5" width="3.75" height="25" rx="1" ry="1" stroke-width="0.5" stroke="dimgray" fill="white"/>

<!-- RENDERING - part: cylinder -->
<rect x="1040" y="286.25" width="7.5" height="27.5" rx="1" ry="1" stroke-width="0.5" stroke="dimgray" fill="white"/>

<!-- RENDERING - part: cylinder -->
<rect x="1047.5" y="287.5" width="3.75" height="25" rx="1" ry="1" stroke-width="0.5" stroke="dimgray" fill="white"/>

<!-- RENDERING - part: cylinder -->
<rect x="1051.25" y="286.25" width="7.5" height="27.5" rx="1" ry="1" stroke-width="0.5" stroke="dimgray" fill="white"/>

<!-- RENDERING - part: cylinder -->
<rect x="1058.75" y="287.5" width="3.75" height="25" rx="1" ry="1" stroke-width="0.5" stroke="dimgray" fill="white"/>

<!-- RENDERING - part: cylinder -->
<rect x="1062.5" y="286.25" width="8.75" height="27.5" rx="1" ry="1" stroke-width="0.5" stroke="dimgray" fill="white"/>

<text x="1380" y="30" font-size="1.6em" font-weight="bold" text-anchor="end" dominant-baseline="central">'body' colour variants</text>
<rect x="1340" y="55" width="40" rx="50%" ry="50%" height="40" stroke="black" stroke-width="2" fill="#000000" />
<text x="1360" y="100" transform="rotate(-90, 1360, 100)" font-size="1.2em" font-weight="bold" text-anchor="end" dominant-baseline="central">black</text>
<rect x="1280" y="55" width="40" rx="50%" ry="50%" height="40" stroke="black" stroke-width="2" fill="silver" />
<text x="1300" y="100" transform="rotate(-90, 1300, 100)" font-size="1.2em" font-weight="bold" text-anchor="end" dominant-baseline="central">silver</text>
<text x="30" y="106" font-size="1.2em" font-weight="bold" text-anchor="start" dominant-baseline="central">Materials:</text>
<text x="50" y="126" font-size="1.2em" text-anchor="start" dominant-baseline="central"> - metal</text>
<text x="50" y="146" font-size="1.2em" text-anchor="start" dominant-baseline="central"> - plastic</text>
<text x="50" y="166" font-size="1.2em" text-anchor="start" dominant-baseline="central"> - rubber</text>
<text x="50%" y="580" font-size="1.1em" font-weight="bold" text-anchor="middle" dominant-baseline="middle">Copyright (c) // The Mechanical Pencil Database (tmpdb) // Licensed under Creative Commons Attribution-NonCommercial-ShareAlike 4.0 International</text>
</svg>
