<svg xmlns="http://www.w3.org/2000/svg" width="1500" height="600">
<pattern id="diagonalHatch" patternUnits="userSpaceOnUse" width="8" height="8">
<rect width="6" height="6" fill='none'/>
<path stroke="dimgray" stroke-linecap="round" stroke-width="1" d="M 4,4 L 8,8"/>
<path stroke="dimgray" stroke-linecap="round" stroke-width="1" d="M 4,4 L 0,8"/>
<path stroke="gray" stroke-linecap="round" stroke-width="1" d="M 4,4 L 8,0" />
<path stroke="gray" stroke-linecap="round" stroke-width="1" d="M 4,4 L 0,0" />
</pattern>
<rect x="0" y="0" width="1500" height="600" fill="white" stroke="black" stroke-width="4" />
<rect x="2" y="2" width="1496" height="596" fill="white" stroke="orange" stroke-width="1" />
<text x="30" y="50" font-size="2.0em" font-weight="bold"> Pacific Arc // H-1309 </text>
<text x="30" y="80" font-size="1.1em"> PACIFIC ARC H-1309</text>
<line x1="100" y1="263.75" x2="1400" y2="263.75" stroke="#cfcfcf" stroke-width="1" />
<line x1="160" y1="278.75" x2="1400" y2="278.75" stroke="#cfcfcf" stroke-width="1" />
<line x1="148.75" y1="230" x2="148.75" y2="300" stroke="#cfcfcf" stroke-width="1" />
<line x1="171.25" y1="230" x2="171.25" y2="300" stroke="#cfcfcf" stroke-width="1" />
<line x1="160" y1="277.5" x2="1400" y2="277.5" stroke="#cfcfcf" stroke-width="1" />
<line x1="100" y1="322.5" x2="1400" y2="322.5" stroke="#cfcfcf" stroke-width="1" />
<line x1="136.90598923241498" y1="342.5" x2="136.90598923241498" y2="300" stroke="#cfcfcf" stroke-width="1" />
<line x1="183.09401076758502" y1="342.5" x2="183.09401076758502" y2="300" stroke="#cfcfcf" stroke-width="1" />
<line x1="378.75" y1="189.5" x2="378.75" y2="442.5" stroke="#cfcfcf" stroke-width="1" />
<line x1="390" y1="189.5" x2="390" y2="442.5" stroke="#cfcfcf" stroke-width="1" />
<line x1="458.75" y1="189.5" x2="458.75" y2="442.5" stroke="#cfcfcf" stroke-width="1" />
<line x1="606.25" y1="189.5" x2="606.25" y2="442.5" stroke="#cfcfcf" stroke-width="1" />
<line x1="943.75" y1="189.5" x2="943.75" y2="442.5" stroke="#cfcfcf" stroke-width="1" />
<line x1="788.75" y1="233.5" x2="788.75" y2="420" stroke="#cfcfcf" stroke-width="1" />
<line x1="983.75" y1="233.5" x2="983.75" y2="420" stroke="#cfcfcf" stroke-width="1" />
<line x1="971.25" y1="189.5" x2="971.25" y2="442.5" stroke="#cfcfcf" stroke-width="1" />
<line x1="991.25" y1="189.5" x2="991.25" y2="442.5" stroke="#cfcfcf" stroke-width="1" />
<line x1="1038.75" y1="189.5" x2="1038.75" y2="442.5" stroke="#cfcfcf" stroke-width="1" />
<line x1="1043.75" y1="189.5" x2="1043.75" y2="442.5" stroke="#cfcfcf" stroke-width="1" />
<line x1="1050" y1="189.5" x2="1050" y2="442.5" stroke="#cfcfcf" stroke-width="1" />
<line x1="1056.25" y1="189.5" x2="1056.25" y2="442.5" stroke="#cfcfcf" stroke-width="1" />
<line x1="1121.25" y1="189.5" x2="1121.25" y2="422.5" stroke="#cfcfcf" stroke-width="1" />
<line x1="100" y1="263.75" x2="120" y2="263.75" stroke="black" stroke-width="1" />
<line x1="148.75" y1="230" x2="148.75" y2="250" stroke="black" stroke-width="1" />
<line x1="171.25" y1="230" x2="171.25" y2="250" stroke="black" stroke-width="1" />
<line x1="148.75" y1="240" x2="171.25" y2="240" stroke="black" stroke-width="1" />
<text x="160" y="220" font-size="1.2em" font-weight="bold" text-anchor="middle" dominant-baseline="central">4.50 mm</text>
<line x1="100" y1="322.5" x2="120" y2="322.5" stroke="black" stroke-width="1" />
<line x1="110" y1="263.75" x2="110" y2="322.5" stroke="black" stroke-width="1" />
<line x1="212" y1="263.75" x2="232" y2="263.75" stroke="black" stroke-width="1" />
<line x1="212" y1="278.75" x2="232" y2="278.75" stroke="black" stroke-width="1" />
<line x1="222" y1="263.75" x2="222" y2="278.75" stroke="black" stroke-width="1" />
<text x="236" y="271.25" font-size="1.2em" font-weight="bold" text-anchor="start" dominant-baseline="central">3.00 mm</text>
<line x1="200" y1="277.5" x2="220" y2="277.5" stroke="black" stroke-width="1" />
<line x1="200" y1="322.5" x2="220" y2="322.5" stroke="black" stroke-width="1" />
<line x1="210" y1="322.5" x2="210" y2="277.5" stroke="black" stroke-width="1" />
<text x="224" y="300" font-size="1.2em" font-weight="bold" text-anchor="start" dominant-baseline="central">9.00 mm</text>
<text x="90" y="300" transform="rotate(-90, 90, 300)" font-size="1.2em" font-weight="bold" text-anchor="middle" dominant-baseline="central">11.75 mm</text>
<text x="160" y="540" font-size="1.8em" font-weight="bold" text-anchor="middle" dominant-baseline="central">Front</text>
<line x1="136.90598923241498" y1="352.5" x2="183.09401076758502" y2="352.5" stroke="black" stroke-width="1" />
<line x1="136.90598923241498" y1="342.5" x2="136.90598923241498" y2="362.5" stroke="black" stroke-width="1" />
<line x1="183.09401076758502" y1="342.5" x2="183.09401076758502" y2="362.5" stroke="black" stroke-width="1" />
<text x="160" y="372.5" font-size="1.2em" font-weight="bold" text-anchor="middle" dominant-baseline="central">9.24 mm</text>
<line x1="378.75" y1="178.5" x2="378.75" y2="200.5" stroke="black" stroke-width="1" /><text x="384.375" y="175.5" transform="rotate(-90, 384.375, 175.5)" font-size="1.2em" font-weight="bold" dominant-baseline="middle">2.25 mm jaws</text>
<line x1="390" y1="178.5" x2="390" y2="200.5" stroke="black" stroke-width="1" /><text x="421.375" y="175.5" transform="rotate(-90, 421.375, 175.5)" font-size="1.2em" font-weight="bold" dominant-baseline="auto">13.75 mm</text>
<text x="427.375" y="175.5" transform="rotate(-90, 427.375, 175.5)" font-size="1.2em" font-weight="bold" dominant-baseline="hanging">tip</text>
<line x1="458.75" y1="178.5" x2="458.75" y2="200.5" stroke="black" stroke-width="1" /><text x="529.5" y="175.5" transform="rotate(-90, 529.5, 175.5)" font-size="1.2em" font-weight="bold" dominant-baseline="auto">29.50 mm</text>
<text x="535.5" y="175.5" transform="rotate(-90, 535.5, 175.5)" font-size="1.2em" font-weight="bold" dominant-baseline="hanging">grip</text>
<line x1="606.25" y1="178.5" x2="606.25" y2="200.5" stroke="black" stroke-width="1" /><text x="772" y="175.5" transform="rotate(-90, 772, 175.5)" font-size="1.2em" font-weight="bold" dominant-baseline="auto">67.50 mm</text>
<text x="778" y="175.5" transform="rotate(-90, 778, 175.5)" font-size="1.2em" font-weight="bold" dominant-baseline="hanging">body</text>
<line x1="943.75" y1="178.5" x2="943.75" y2="200.5" stroke="black" stroke-width="1" /><text x="957.5" y="175.5" transform="rotate(-90, 957.5, 175.5)" font-size="1.2em" font-weight="bold" dominant-baseline="middle">5.50 mm clip</text>
<line x1="788.75" y1="253.5" x2="788.75" y2="231.5" stroke="black" stroke-width="1" />
<line x1="788.75" y1="420" x2="788.75" y2="396" stroke="black" stroke-width="1" />
<line x1="983.75" y1="396" x2="983.75" y2="420" stroke="black" stroke-width="1" />
<line x1="983.75" y1="253.5" x2="983.75" y2="231.5" stroke="black" stroke-width="1" />
<line x1="788.75" y1="242.5" x2="983.75" y2="242.5" stroke="black" stroke-width="1" />
<line x1="788.75" y1="409.5" x2="983.75" y2="409.5" stroke="black" stroke-width="1" />
<text x="886.25" y="392.5" font-size="1.2em" text-anchor="middle" dominant-baseline="central">metal</text>
<text x="886.25" y="231.5" font-size="1.2em" font-weight="bold" text-anchor="middle" dominant-baseline="central">39.00 mm</text>
<text x="886.25" y="251.5" font-size="1.2em" font-weight="bold" text-anchor="middle" dominant-baseline="central">clip (extra)</text>
<line x1="971.25" y1="178.5" x2="971.25" y2="200.5" stroke="black" stroke-width="1" /><text x="981.25" y="175.5" transform="rotate(-90, 981.25, 175.5)" font-size="1.2em" font-weight="bold" dominant-baseline="middle">4.00 mm tail</text>
<line x1="991.25" y1="178.5" x2="991.25" y2="200.5" stroke="black" stroke-width="1" /><text x="1012" y="175.5" transform="rotate(-90, 1012, 175.5)" font-size="1.2em" font-weight="bold" dominant-baseline="auto">9.50 mm</text>
<text x="1018" y="175.5" transform="rotate(-90, 1018, 175.5)" font-size="1.2em" font-weight="bold" dominant-baseline="hanging">indicator</text>
<line x1="1038.75" y1="178.5" x2="1038.75" y2="200.5" stroke="black" stroke-width="1" /><text x="1041.25" y="175.5" transform="rotate(-90, 1041.25, 175.5)" font-size="1.2em" font-weight="bold" dominant-baseline="middle">1.00 mm foot</text>
<line x1="1043.75" y1="178.5" x2="1043.75" y2="200.5" stroke="black" stroke-width="1" /><text x="1046.875" y="175.5" transform="rotate(-90, 1046.875, 175.5)" font-size="1.2em" font-weight="bold" dominant-baseline="middle">1.25 mm ring</text>
<line x1="1050" y1="178.5" x2="1050" y2="200.5" stroke="black" stroke-width="1" /><text x="1053.125" y="175.5" transform="rotate(-90, 1053.125, 175.5)" font-size="1.2em" font-weight="bold" dominant-baseline="middle">1.25 mm foot</text>
<line x1="1056.25" y1="178.5" x2="1056.25" y2="200.5" stroke="black" stroke-width="1" /><text x="1085.75" y="175.5" transform="rotate(-90, 1085.75, 175.5)" font-size="1.2em" font-weight="bold" dominant-baseline="auto">13.00 mm</text>
<text x="1091.75" y="175.5" transform="rotate(-90, 1091.75, 175.5)" font-size="1.2em" font-weight="bold" dominant-baseline="hanging">cap</text>
<line x1="1121.25" y1="200.5" x2="1121.25" y2="178.5" stroke="black" stroke-width="1" />
<line x1="378.75" y1="189.5" x2="1121.25" y2="189.5" stroke="black" stroke-width="1" />
<line x1="378.75" y1="352.5" x2="1121.25" y2="352.5" stroke="black" stroke-width="1" />
<line x1="378.75" y1="342.5" x2="378.75" y2="362.5" stroke="black" stroke-width="1" />
<line x1="1121.25" y1="342.5" x2="1121.25" y2="362.5" stroke="black" stroke-width="1" />
<text x="750" y="372.5" font-size="1.2em" font-weight="bold" text-anchor="middle" dominant-baseline="central">148.50 mm</text>
<text x="750" y="540" font-size="1.8em" font-weight="bold" text-anchor="middle" dominant-baseline="central">Side view</text>
<text x="1400" y="540" font-size="1.8em" font-weight="bold" text-anchor="middle" dominant-baseline="central">Back</text>
<line x1="378.75" y1="422.5" x2="378.75" y2="446.5" stroke="black" stroke-width="1" />
<text x="384.375" y="448.5" transform="rotate(-90, 384.375, 448.5)" font-size="1.2em" text-anchor="end" dominant-baseline="middle">metal</text>
<line x1="390" y1="422.5" x2="390" y2="446.5" stroke="black" stroke-width="1" />
<text x="424.375" y="448.5" transform="rotate(-90, 424.375, 448.5)" font-size="1.2em" text-anchor="end" dominant-baseline="middle">metal</text>
<line x1="1300" y1="279.375" x2="1320" y2="279.375" stroke="black" stroke-width="1" />
<line x1="1300" y1="320.625" x2="1320" y2="320.625" stroke="black" stroke-width="1" />
<line x1="1310" y1="320.625" x2="1310" y2="279.375" stroke="black" stroke-width="1" />
<text x="1292" y="300" transform="rotate(-90, 1292, 300)" font-size="1.2em" text-anchor="middle" dominant-baseline="middle">8.25 mm</text>
<text x="1310" y="328.625" transform="rotate(-90, 1310, 328.625)" font-size="1.2em" text-anchor="end" dominant-baseline="middle">grip</text>
<line x1="458.75" y1="422.5" x2="458.75" y2="446.5" stroke="black" stroke-width="1" />
<text x="532.5" y="448.5" transform="rotate(-90, 532.5, 448.5)" font-size="1.2em" text-anchor="end" dominant-baseline="middle">metal</text>
<line x1="1340" y1="280" x2="1360" y2="280" stroke="black" stroke-width="1" />
<line x1="1340" y1="320" x2="1360" y2="320" stroke="black" stroke-width="1" />
<line x1="1350" y1="320" x2="1350" y2="280" stroke="black" stroke-width="1" />
<text x="1332" y="300" transform="rotate(-90, 1332, 300)" font-size="1.2em" text-anchor="middle" dominant-baseline="middle">8 mm</text>
<text x="1350" y="328" transform="rotate(-90, 1350, 328)" font-size="1.2em" text-anchor="end" dominant-baseline="middle">body</text>
<line x1="606.25" y1="422.5" x2="606.25" y2="446.5" stroke="black" stroke-width="1" />
<text x="775" y="448.5" transform="rotate(-90, 775, 448.5)" font-size="1.2em" text-anchor="end" dominant-baseline="middle">metal</text>
<line x1="943.75" y1="422.5" x2="943.75" y2="446.5" stroke="black" stroke-width="1" />
<text x="957.5" y="448.5" transform="rotate(-90, 957.5, 448.5)" font-size="1.2em" text-anchor="end" dominant-baseline="middle">metal</text>
<line x1="971.25" y1="422.5" x2="971.25" y2="446.5" stroke="black" stroke-width="1" />
<text x="981.25" y="448.5" transform="rotate(-90, 981.25, 448.5)" font-size="1.2em" text-anchor="end" dominant-baseline="middle">metal</text>
<line x1="991.25" y1="422.5" x2="991.25" y2="446.5" stroke="black" stroke-width="1" />
<text x="1015" y="448.5" transform="rotate(-90, 1015, 448.5)" font-size="1.2em" text-anchor="end" dominant-baseline="middle">plastic</text>
<line x1="1038.75" y1="422.5" x2="1038.75" y2="446.5" stroke="black" stroke-width="1" />
<text x="1041.25" y="448.5" transform="rotate(-90, 1041.25, 448.5)" font-size="1.2em" text-anchor="end" dominant-baseline="middle">metal</text>
<line x1="1043.75" y1="422.5" x2="1043.75" y2="446.5" stroke="black" stroke-width="1" />
<text x="1046.875" y="448.5" transform="rotate(-90, 1046.875, 448.5)" font-size="1.2em" text-anchor="end" dominant-baseline="middle">rubber</text>
<line x1="1050" y1="422.5" x2="1050" y2="446.5" stroke="black" stroke-width="1" />
<text x="1053.125" y="448.5" transform="rotate(-90, 1053.125, 448.5)" font-size="1.2em" text-anchor="end" dominant-baseline="middle">metal</text>
<line x1="1056.25" y1="422.5" x2="1056.25" y2="446.5" stroke="black" stroke-width="1" />
<text x="1088.75" y="448.5" transform="rotate(-90, 1088.75, 448.5)" font-size="1.2em" text-anchor="end" dominant-baseline="middle">plastic</text>
<line x1="1121.25" y1="422.5" x2="1121.25" y2="446.5" stroke="black" stroke-width="1" />
<line x1="378.75" y1="434.5" x2="1121.25" y2="434.5" stroke="black" stroke-width="1" />

<!-- RENDERING - component: jaws -->
<circle r="10" cx="1400" cy="300" stroke="dimgray" stroke-width="1" fill="white" />
<circle r="8.125" cx="1400" cy="300" stroke="dimgray" stroke-width="1" fill="white" />


<!-- RENDERING - component: tip -->
<circle r="20.625" cx="1400" cy="300" stroke="dimgray" stroke-width="1" fill="white" />
<circle r="13.125" cx="1400" cy="300" stroke="dimgray" stroke-width="1" fill="white" />


<!-- RENDERING - component: grip -->
<circle r="20.625" cx="1400" cy="300" stroke="dimgray" stroke-width="1" fill="white" />


<!-- RENDERING - component: body -->
<polygon points="1388.4529946162074,280 1411.5470053837926,280 1423.0940107675851,300 1411.5470053837926,320 1388.4529946162074,320 1376.9059892324149,300 " stroke="dimgray" stroke-width="1" fill="white"/>


<!-- RENDERING - component: clip -->
<circle r="22.5" cx="1400" cy="300" stroke="dimgray" stroke-width="1" fill="white" />

<!-- WxH 4.5 0.6 --><rect x="1388.75" y="275.75" width="22.5" height="3" rx="1" ry="1" stroke-width="1.0" stroke="dimgray" fill="white"/>
<line x1="1388.75" x2="1411.25" y1="275.75" y2="278.75" stroke-width="0.5" stroke="#cfcfcf" />
<rect x="1388.75" y="275.75" width="22.5" height="3" rx="1" ry="1" stroke-width="1.0" stroke="dimgray" fill="none"/>
<!-- WxH 4.5 0.6 --><rect x="1388.75" y="275.75" width="22.5" height="3" rx="1" ry="1" stroke-width="1.0" stroke="dimgray" fill="white"/>
<line x1="1388.75" x2="1411.25" y1="275.75" y2="278.75" stroke-width="0.5" stroke="#cfcfcf" />
<rect x="1388.75" y="275.75" width="22.5" height="3" rx="1" ry="1" stroke-width="1.0" stroke="dimgray" fill="none"/>
<!-- WxH 4.5 3 --><rect x="1388.75" y="263.75" width="22.5" height="15" rx="1" ry="1" stroke-width="1.0" stroke="dimgray" fill="white"/>
<line x1="1388.75" x2="1411.25" y1="263.75" y2="266.75" stroke-width="0.5" stroke="#cfcfcf" />
<line x1="1388.75" x2="1411.25" y1="266.75" y2="266.75" stroke-width="0.5" stroke="#cfcfcf" />
<line x1="1388.75" x2="1411.25" y1="266.75" y2="269.75" stroke-width="0.5" stroke="#cfcfcf" />
<line x1="1388.75" x2="1411.25" y1="269.75" y2="269.75" stroke-width="0.5" stroke="#cfcfcf" />
<line x1="1388.75" x2="1411.25" y1="269.75" y2="272.75" stroke-width="0.5" stroke="#cfcfcf" />
<line x1="1388.75" x2="1411.25" y1="272.75" y2="272.75" stroke-width="0.5" stroke="#cfcfcf" />
<line x1="1388.75" x2="1411.25" y1="272.75" y2="275.75" stroke-width="0.5" stroke="#cfcfcf" />
<line x1="1388.75" x2="1411.25" y1="275.75" y2="275.75" stroke-width="0.5" stroke="#cfcfcf" />
<line x1="1388.75" x2="1411.25" y1="275.75" y2="278.75" stroke-width="0.5" stroke="#cfcfcf" />
<rect x="1388.75" y="263.75" width="22.5" height="15" rx="1" ry="1" stroke-width="1.0" stroke="dimgray" fill="none"/>


<!-- RENDERING - component: tail -->
<circle r="20" cx="1400" cy="300" stroke="dimgray" stroke-width="1" fill="white" />


<!-- RENDERING - component: indicator -->
<circle r="20.625" cx="1400" cy="300" stroke="dimgray" stroke-width="1" fill="white" />


<!-- RENDERING - component: foot -->
<circle r="20" cx="1400" cy="300" stroke="dimgray" stroke-width="1" fill="white" />


<!-- RENDERING - component: ring -->
<circle r="20" cx="1400" cy="300" stroke="dimgray" stroke-width="1" fill="white" />


<!-- RENDERING - component: foot -->
<circle r="20" cx="1400" cy="300" stroke="dimgray" stroke-width="1" fill="white" />


<!-- RENDERING - component: cap -->
<circle r="13.75" cx="1400" cy="300" stroke="dimgray" stroke-width="1" fill="white" />

<circle r="12.5" cx="1400" cy="300" stroke="dimgray" stroke-width="1" fill="white" />

<circle r="13.75" cx="1400" cy="300" stroke="dimgray" stroke-width="1" fill="white" />

<circle r="12.5" cx="1400" cy="300" stroke="dimgray" stroke-width="1" fill="white" />

<circle r="13.75" cx="1400" cy="300" stroke="dimgray" stroke-width="1" fill="white" />

<circle r="12.5" cx="1400" cy="300" stroke="dimgray" stroke-width="1" fill="white" />

<circle r="13.75" cx="1400" cy="300" stroke="dimgray" stroke-width="1" fill="white" />

<circle cx="1400" cy="300" r="5" stroke="dimgray" stroke-width="0.5" fill="black" /><circle r="13.75" cx="160" cy="300" stroke="dimgray" stroke-width="1" fill="white" />

<circle r="12.5" cx="160" cy="300" stroke="dimgray" stroke-width="1" fill="white" />

<circle r="13.75" cx="160" cy="300" stroke="dimgray" stroke-width="1" fill="white" />

<circle r="12.5" cx="160" cy="300" stroke="dimgray" stroke-width="1" fill="white" />

<circle r="13.75" cx="160" cy="300" stroke="dimgray" stroke-width="1" fill="white" />

<circle r="12.5" cx="160" cy="300" stroke="dimgray" stroke-width="1" fill="white" />

<circle r="13.75" cx="160" cy="300" stroke="dimgray" stroke-width="1" fill="white" />


<!-- RENDERING - component: cap -->
<circle r="20" cx="160" cy="300" stroke="dimgray" stroke-width="1" fill="white" />


<!-- RENDERING - component: foot -->
<circle r="20" cx="160" cy="300" stroke="dimgray" stroke-width="1" fill="white" />


<!-- RENDERING - component: ring -->
<circle r="20" cx="160" cy="300" stroke="dimgray" stroke-width="1" fill="white" />


<!-- RENDERING - component: foot -->
<circle r="20.625" cx="160" cy="300" stroke="dimgray" stroke-width="1" fill="white" />


<!-- RENDERING - component: indicator -->
<circle r="20" cx="160" cy="300" stroke="dimgray" stroke-width="1" fill="white" />


<!-- RENDERING - component: tail -->
<!-- WxH 4.5 3 --><rect x="148.75" y="263.75" width="22.5" height="15" rx="1" ry="1" stroke-width="1.0" stroke="dimgray" fill="white"/>
<line x1="148.75" x2="171.25" y1="263.75" y2="266.75" stroke-width="0.5" stroke="#cfcfcf" />
<line x1="148.75" x2="171.25" y1="266.75" y2="266.75" stroke-width="0.5" stroke="#cfcfcf" />
<line x1="148.75" x2="171.25" y1="266.75" y2="269.75" stroke-width="0.5" stroke="#cfcfcf" />
<line x1="148.75" x2="171.25" y1="269.75" y2="269.75" stroke-width="0.5" stroke="#cfcfcf" />
<line x1="148.75" x2="171.25" y1="269.75" y2="272.75" stroke-width="0.5" stroke="#cfcfcf" />
<line x1="148.75" x2="171.25" y1="272.75" y2="272.75" stroke-width="0.5" stroke="#cfcfcf" />
<line x1="148.75" x2="171.25" y1="272.75" y2="275.75" stroke-width="0.5" stroke="#cfcfcf" />
<line x1="148.75" x2="171.25" y1="275.75" y2="275.75" stroke-width="0.5" stroke="#cfcfcf" />
<line x1="148.75" x2="171.25" y1="275.75" y2="278.75" stroke-width="0.5" stroke="#cfcfcf" />
<rect x="148.75" y="263.75" width="22.5" height="15" rx="1" ry="1" stroke-width="1.0" stroke="dimgray" fill="none"/>
<!-- WxH 4.5 0.6 --><rect x="148.75" y="275.75" width="22.5" height="3" rx="1" ry="1" stroke-width="1.0" stroke="dimgray" fill="white"/>
<line x1="148.75" x2="171.25" y1="275.75" y2="278.75" stroke-width="0.5" stroke="#cfcfcf" />
<rect x="148.75" y="275.75" width="22.5" height="3" rx="1" ry="1" stroke-width="1.0" stroke="dimgray" fill="none"/>
<!-- WxH 4.5 0.6 --><rect x="148.75" y="275.75" width="22.5" height="3" rx="1" ry="1" stroke-width="1.0" stroke="dimgray" fill="white"/>
<line x1="148.75" x2="171.25" y1="275.75" y2="278.75" stroke-width="0.5" stroke="#cfcfcf" />
<rect x="148.75" y="275.75" width="22.5" height="3" rx="1" ry="1" stroke-width="1.0" stroke="dimgray" fill="none"/>

<circle r="22.5" cx="160" cy="300" stroke="dimgray" stroke-width="1" fill="white" />


<!-- RENDERING - component: clip -->
<polygon points="148.4529946162075,280 171.5470053837925,280 183.09401076758502,300 171.5470053837925,320 148.4529946162075,320 136.90598923241498,300 " stroke="dimgray" stroke-width="1" fill="white"/>


<!-- RENDERING - component: body -->
<circle r="20.625" cx="160" cy="300" stroke="dimgray" stroke-width="1" fill="white" />


<!-- RENDERING - component: grip -->
<circle r="13.125" cx="160" cy="300" stroke="dimgray" stroke-width="1" fill="white" />
<circle r="20.625" cx="160" cy="300" stroke="dimgray" stroke-width="1" fill="white" />


<!-- RENDERING - component: tip -->
<circle r="8.125" cx="160" cy="300" stroke="dimgray" stroke-width="1" fill="white" />
<circle r="10" cx="160" cy="300" stroke="dimgray" stroke-width="1" fill="white" />


<!-- RENDERING - component: jaws -->
<circle cx="160" cy="300" r="5" stroke="dimgray" stroke-width="0.5" fill="black" />
<!-- RENDERING - component: jaws -->
<!-- RENDERING - part: cone -->
<path d="M378.75 291.875 L390 290 L390 310 L378.75 308.125 Z" stroke-width="0.5" stroke="dimgray" fill="white" />


<!-- RENDERING - component: tip -->
<!-- RENDERING - part: cone -->
<path d="M390 286.875 L458.75 279.375 L458.75 320.625 L390 313.125 Z" stroke-width="0.5" stroke="dimgray" fill="white" />


<!-- RENDERING - component: grip -->
<!-- RENDERING - part: cylinder -->
<rect x="458.75" y="279.375" width="147.5" height="41.25" rx="1" ry="1" stroke-width="0.5" stroke="dimgray" fill="white"/>
<rect x="458.75" y="279.375" width="147.5" height="41.25" rx="1" ry="1" stroke-width="0.5" stroke="black" fill="url(#diagonalHatch)"/>


<!-- RENDERING - component: body -->
<!-- RENDERING - part: hexagonal -->
<rect x="606.25" y="280" width="337.5" height="40" rx="1" ry="1" stroke-width="0.5" stroke="dimgray" fill="white"/>
<line x1="606.25" y1="300" x2="943.75" y2="300" stroke-width="1.5" stroke="black" fill="none" stroke-opacity="0.5"/>
<line x1="606.25" y1="300" x2="943.75" y2="300" stroke-width="0.5" stroke="gray" fill="none" stroke-opacity="0.5"/>


<!-- RENDERING - component: clip -->
<!-- RENDERING - part: cylinder -->
<rect x="943.75" y="277.5" width="27.5" height="45" rx="1" ry="1" stroke-width="0.5" stroke="dimgray" fill="white"/>

<!-- RENDERING - part: extra -->
<path d="M791 266.25 Q813.75 289.75 823.75 266.25 Z" stroke-width="3" stroke="black" fill="dimgray" stroke-linecap="round" />
<line x1="788.75" y1="264.75" x2="971.25" y2="264.75" stroke-width="3" stroke="black" fill="dimgray" stroke-linecap="round" />
/><path d="M971.25 264.75 Q991.25 272.25 971.25 279.75" stroke-width="3" stroke="black" fill="none" stroke-linecap="round" />
<path d="M791 266.25 Q813.75 288.75 823.75 266.25 Z" stroke-width="2" stroke="white" fill="white" stroke-linecap="round" />
<line x1="788.75" y1="264.75" x2="971.25" y2="264.75" stroke-width="2" stroke="white" fill="white" stroke-linecap="round" />
/><path d="M971.25 264.75 Q991.25 272.25 971.25 279.75" stroke-width="2" stroke="white" fill="none" stroke-linecap="round" />


<!-- RENDERING - component: tail -->
<!-- RENDERING - part: cylinder -->
<rect x="971.25" y="280" width="20" height="40" rx="1" ry="1" stroke-width="0.5" stroke="dimgray" fill="white"/>


<!-- RENDERING - component: indicator -->
<!-- RENDERING - part: cylinder -->
<rect x="991.25" y="279.375" width="47.5" height="41.25" rx="1" ry="1" stroke-width="0.5" stroke="dimgray" fill="white"/>
<rect x="991.25" y="279.375" width="47.5" height="41.25" rx="1" ry="1" stroke-width="0.5" stroke="black" fill="url(#diagonalHatch)"/>
<rect x="1001.25" y="289.6875" width="27.5" height="20.625" rx="1" ry="1" stroke-width="2" stroke="black" fill="white"/>
<text x="1015" y="300" text-anchor="middle" dominant-baseline="central"><tspan stroke="dimgray" stroke-width="0.5" fill="black" textLength="{this.width * 5 - 24}" > HB</tspan></text>

<!-- RENDERING - component: foot -->
<!-- RENDERING - part: cylinder -->
<rect x="1038.75" y="280" width="5" height="40" rx="1" ry="1" stroke-width="0.5" stroke="dimgray" fill="white"/>


<!-- RENDERING - component: ring -->
<!-- RENDERING - part: cylinder -->
<rect x="1043.75" y="280" width="6.25" height="40" rx="1" ry="1" stroke-width="0.5" stroke="black" fill="white"/>


<!-- RENDERING - component: foot -->
<!-- RENDERING - part: cylinder -->
<rect x="1050" y="280" width="6.25" height="40" rx="1" ry="1" stroke-width="0.5" stroke="dimgray" fill="white"/>


<!-- RENDERING - component: cap -->
<!-- RENDERING - part: cylinder -->
<rect x="1056.25" y="286.25" width="30" height="27.5" rx="1" ry="1" stroke-width="0.5" stroke="dimgray" fill="white"/>

<!-- RENDERING - part: cylinder -->
<rect x="1086.25" y="287.5" width="3.75" height="25" rx="1" ry="1" stroke-width="0.5" stroke="dimgray" fill="white"/>

<!-- RENDERING - part: cylinder -->
<rect x="1090" y="286.25" width="7.5" height="27.5" rx="1" ry="1" stroke-width="0.5" stroke="dimgray" fill="white"/>

<!-- RENDERING - part: cylinder -->
<rect x="1097.5" y="287.5" width="3.75" height="25" rx="1" ry="1" stroke-width="0.5" stroke="dimgray" fill="white"/>

<!-- RENDERING - part: cylinder -->
<rect x="1101.25" y="286.25" width="7.5" height="27.5" rx="1" ry="1" stroke-width="0.5" stroke="dimgray" fill="white"/>

<!-- RENDERING - part: cylinder -->
<rect x="1108.75" y="287.5" width="3.75" height="25" rx="1" ry="1" stroke-width="0.5" stroke="dimgray" fill="white"/>

<!-- RENDERING - part: cylinder -->
<rect x="1112.5" y="286.25" width="8.75" height="27.5" rx="1" ry="1" stroke-width="0.5" stroke="dimgray" fill="white"/>

<text x="1480" y="30" font-size="1.6em" font-weight="bold" text-anchor="end" dominant-baseline="central">'body' colour variants</text>
<rect x="1440" y="55" width="40" rx="50%" ry="50%" height="40" stroke="black" stroke-width="2" fill="#000000" />
<text x="1460" y="100" transform="rotate(-90, 1460, 100)" font-size="1.2em" font-weight="bold" text-anchor="end" dominant-baseline="central">black</text>
<rect x="1380" y="55" width="40" rx="50%" ry="50%" height="40" stroke="black" stroke-width="2" fill="silver" />
<text x="1400" y="100" transform="rotate(-90, 1400, 100)" font-size="1.2em" font-weight="bold" text-anchor="end" dominant-baseline="central">silver</text>
<text x="30" y="106" font-size="1.2em" font-weight="bold" text-anchor="start" dominant-baseline="central">Materials:</text>
<text x="50" y="126" font-size="1.2em" text-anchor="start" dominant-baseline="central"> - metal</text>
<text x="50" y="146" font-size="1.2em" text-anchor="start" dominant-baseline="central"> - plastic</text>
<text x="50" y="166" font-size="1.2em" text-anchor="start" dominant-baseline="central"> - rubber</text>
<text x="50%" y="580" font-size="1.1em" font-weight="bold" text-anchor="middle" dominant-baseline="middle">Copyright (c) // The Mechanical Pencil Database (tmpdb) // Licensed under Creative Commons Attribution-NonCommercial-ShareAlike 4.0 International</text>
</svg>
