<svg xmlns="http://www.w3.org/2000/svg" width="1400" height="600">
<pattern id="diagonalHatch" patternUnits="userSpaceOnUse" width="8" height="8">
<rect width="6" height="6" fill='none'/>
<path stroke="dimgray" stroke-linecap="round" stroke-width="1" d="M 4,4 L 8,8"/>
<path stroke="dimgray" stroke-linecap="round" stroke-width="1" d="M 4,4 L 0,8"/>
<path stroke="gray" stroke-linecap="round" stroke-width="1" d="M 4,4 L 8,0" />
<path stroke="gray" stroke-linecap="round" stroke-width="1" d="M 4,4 L 0,0" />
</pattern>
<rect x="0" y="0" width="1400" height="600" fill="white" stroke="black" stroke-width="4" />
<rect x="2" y="2" width="1396" height="596" fill="white" stroke="orange" stroke-width="1" />
<text x="30" y="50" font-size="2.0em" font-weight="bold"> unbranded // Metal Black (2mm)</text>
<text x="30" y="80" font-size="1.1em"> </text>
<line x1="40" y1="263.375" x2="1300" y2="263.375" stroke="#cfcfcf" stroke-width="1" />
<line x1="100" y1="278.375" x2="1300" y2="278.375" stroke="#cfcfcf" stroke-width="1" />
<line x1="1300" y1="277.5" x2="1300" y2="277.5" stroke="#cfcfcf" stroke-width="1" />
<line x1="40" y1="322.5" x2="1300" y2="322.5" stroke="#cfcfcf" stroke-width="1" />
<line x1="76.90598923241497" y1="342.5" x2="76.90598923241497" y2="300" stroke="#cfcfcf" stroke-width="1" />
<line x1="123.09401076758503" y1="342.5" x2="123.09401076758503" y2="300" stroke="#cfcfcf" stroke-width="1" />
<line x1="341.25" y1="189.5" x2="341.25" y2="442.5" stroke="#cfcfcf" stroke-width="1" />
<line x1="426.25" y1="189.5" x2="426.25" y2="442.5" stroke="#cfcfcf" stroke-width="1" />
<line x1="433.75" y1="189.5" x2="433.75" y2="442.5" stroke="#cfcfcf" stroke-width="1" />
<line x1="618.75" y1="189.5" x2="618.75" y2="442.5" stroke="#cfcfcf" stroke-width="1" />
<line x1="948.75" y1="189.5" x2="948.75" y2="442.5" stroke="#cfcfcf" stroke-width="1" />
<line x1="791.25" y1="233.5" x2="791.25" y2="420" stroke="#cfcfcf" stroke-width="1" />
<line x1="948.75" y1="233.5" x2="948.75" y2="420" stroke="#cfcfcf" stroke-width="1" />
<line x1="986.25" y1="189.5" x2="986.25" y2="442.5" stroke="#cfcfcf" stroke-width="1" />
<line x1="997.5" y1="189.5" x2="997.5" y2="442.5" stroke="#cfcfcf" stroke-width="1" />
<line x1="1058.75" y1="189.5" x2="1058.75" y2="422.5" stroke="#cfcfcf" stroke-width="1" />
<line x1="40" y1="263.375" x2="60" y2="263.375" stroke="black" stroke-width="1" />
<line x1="40" y1="322.5" x2="60" y2="322.5" stroke="black" stroke-width="1" />
<line x1="50" y1="263.375" x2="50" y2="322.5" stroke="black" stroke-width="1" />
<line x1="140" y1="263.375" x2="160" y2="263.375" stroke="black" stroke-width="1" />
<line x1="140" y1="278.375" x2="160" y2="278.375" stroke="black" stroke-width="1" />
<line x1="150" y1="263.375" x2="150" y2="278.375" stroke="black" stroke-width="1" />
<text x="164" y="270.875" font-size="1.2em" font-weight="bold" text-anchor="start" dominant-baseline="central">3.00 mm</text>
<text x="30" y="300" transform="rotate(-90, 30, 300)" font-size="1.2em" font-weight="bold" text-anchor="middle" dominant-baseline="central">12.00 mm</text>
<text x="100" y="540" font-size="1.8em" font-weight="bold" text-anchor="middle" dominant-baseline="central">Front</text>
<line x1="76.90598923241497" y1="352.5" x2="123.09401076758503" y2="352.5" stroke="black" stroke-width="1" />
<line x1="76.90598923241497" y1="342.5" x2="76.90598923241497" y2="362.5" stroke="black" stroke-width="1" />
<line x1="123.09401076758503" y1="342.5" x2="123.09401076758503" y2="362.5" stroke="black" stroke-width="1" />
<text x="100" y="372.5" font-size="1.2em" font-weight="bold" text-anchor="middle" dominant-baseline="central">9.24 mm</text>
<line x1="341.25" y1="200.5" x2="341.25" y2="178.5" stroke="black" stroke-width="1" />
<text x="380.75" y="175.5" transform="rotate(-90, 380.75, 175.5)" font-size="1.2em" font-weight="bold" dominant-baseline="auto">17.00 mm</text>
<text x="386.75" y="175.5" transform="rotate(-90, 386.75, 175.5)" font-size="1.2em" font-weight="bold" dominant-baseline="hanging">tip</text>
<line x1="426.25" y1="200.5" x2="426.25" y2="178.5" stroke="black" stroke-width="1" />
<text x="430" y="175.5" transform="rotate(-90, 430, 175.5)" font-size="1.2em" font-weight="bold" dominant-baseline="middle">1.50 mm head</text>
<line x1="433.75" y1="200.5" x2="433.75" y2="178.5" stroke="black" stroke-width="1" />
<text x="523.25" y="175.5" transform="rotate(-90, 523.25, 175.5)" font-size="1.2em" font-weight="bold" dominant-baseline="auto">37.00 mm</text>
<text x="529.25" y="175.5" transform="rotate(-90, 529.25, 175.5)" font-size="1.2em" font-weight="bold" dominant-baseline="hanging">grip</text>
<line x1="618.75" y1="200.5" x2="618.75" y2="178.5" stroke="black" stroke-width="1" />
<text x="780.75" y="175.5" transform="rotate(-90, 780.75, 175.5)" font-size="1.2em" font-weight="bold" dominant-baseline="auto">66.00 mm</text>
<text x="786.75" y="175.5" transform="rotate(-90, 786.75, 175.5)" font-size="1.2em" font-weight="bold" dominant-baseline="hanging">body</text>
<line x1="948.75" y1="200.5" x2="948.75" y2="178.5" stroke="black" stroke-width="1" />
<text x="967.5" y="175.5" transform="rotate(-90, 967.5, 175.5)" font-size="1.2em" font-weight="bold" dominant-baseline="middle">7.50 mm clip</text>
<line x1="791.25" y1="253.5" x2="791.25" y2="231.5" stroke="black" stroke-width="1" />
<line x1="791.25" y1="420" x2="791.25" y2="396" stroke="black" stroke-width="1" />
<line x1="948.75" y1="396" x2="948.75" y2="420" stroke="black" stroke-width="1" />
<line x1="948.75" y1="253.5" x2="948.75" y2="231.5" stroke="black" stroke-width="1" />
<line x1="791.25" y1="242.5" x2="948.75" y2="242.5" stroke="black" stroke-width="1" />
<line x1="791.25" y1="409.5" x2="948.75" y2="409.5" stroke="black" stroke-width="1" />
<text x="870" y="392.5" font-size="1.2em" text-anchor="middle" dominant-baseline="central">metal</text>
<text x="870" y="231.5" font-size="1.2em" font-weight="bold" text-anchor="middle" dominant-baseline="central">31.50 mm</text>
<text x="870" y="251.5" font-size="1.2em" font-weight="bold" text-anchor="middle" dominant-baseline="central">clip (extra)</text>
<line x1="986.25" y1="200.5" x2="986.25" y2="178.5" stroke="black" stroke-width="1" />
<text x="991.875" y="175.5" transform="rotate(-90, 991.875, 175.5)" font-size="1.2em" font-weight="bold" dominant-baseline="middle">2.25 mm tail</text>
<line x1="997.5" y1="200.5" x2="997.5" y2="178.5" stroke="black" stroke-width="1" />
<text x="1025.125" y="175.5" transform="rotate(-90, 1025.125, 175.5)" font-size="1.2em" font-weight="bold" dominant-baseline="auto">12.25 mm</text>
<text x="1031.125" y="175.5" transform="rotate(-90, 1031.125, 175.5)" font-size="1.2em" font-weight="bold" dominant-baseline="hanging">cap</text>
<line x1="1058.75" y1="200.5" x2="1058.75" y2="178.5" stroke="black" stroke-width="1" />
<line x1="341.25" y1="189.5" x2="1058.75" y2="189.5" stroke="black" stroke-width="1" />
<line x1="341.25" y1="352.5" x2="1058.75" y2="352.5" stroke="black" stroke-width="1" />
<line x1="341.25" y1="342.5" x2="341.25" y2="362.5" stroke="black" stroke-width="1" />
<line x1="1058.75" y1="342.5" x2="1058.75" y2="362.5" stroke="black" stroke-width="1" />
<text x="700" y="372.5" font-size="1.2em" font-weight="bold" text-anchor="middle" dominant-baseline="central">143.50 mm</text>
<text x="700" y="540" font-size="1.8em" font-weight="bold" text-anchor="middle" dominant-baseline="central">Side view</text>
<text x="1300" y="540" font-size="1.8em" font-weight="bold" text-anchor="middle" dominant-baseline="central">Back</text>
<line x1="341.25" y1="422.5" x2="341.25" y2="446.5" stroke="black" stroke-width="1" />
<text x="383.75" y="448.5" transform="rotate(-90, 383.75, 448.5)" font-size="1.2em" text-anchor="end" dominant-baseline="middle">metal</text>
<line x1="426.25" y1="422.5" x2="426.25" y2="446.5" stroke="black" stroke-width="1" />
<text x="430" y="448.5" transform="rotate(-90, 430, 448.5)" font-size="1.2em" text-anchor="end" dominant-baseline="middle">metal</text>
<line x1="433.75" y1="422.5" x2="433.75" y2="446.5" stroke="black" stroke-width="1" />
<text x="526.25" y="448.5" transform="rotate(-90, 526.25, 448.5)" font-size="1.2em" text-anchor="end" dominant-baseline="middle">metal</text>
<line x1="618.75" y1="422.5" x2="618.75" y2="446.5" stroke="black" stroke-width="1" />
<text x="783.75" y="448.5" transform="rotate(-90, 783.75, 448.5)" font-size="1.2em" text-anchor="end" dominant-baseline="middle">metal</text>
<line x1="948.75" y1="422.5" x2="948.75" y2="446.5" stroke="black" stroke-width="1" />
<text x="967.5" y="448.5" transform="rotate(-90, 967.5, 448.5)" font-size="1.2em" text-anchor="end" dominant-baseline="middle">metal</text>
<line x1="986.25" y1="422.5" x2="986.25" y2="446.5" stroke="black" stroke-width="1" />
<text x="991.875" y="448.5" transform="rotate(-90, 991.875, 448.5)" font-size="1.2em" text-anchor="end" dominant-baseline="middle">metal</text>
<line x1="997.5" y1="422.5" x2="997.5" y2="446.5" stroke="black" stroke-width="1" />
<text x="1028.125" y="448.5" transform="rotate(-90, 1028.125, 448.5)" font-size="1.2em" text-anchor="end" dominant-baseline="middle">plastic</text>
<line x1="1058.75" y1="422.5" x2="1058.75" y2="446.5" stroke="black" stroke-width="1" />
<line x1="341.25" y1="434.5" x2="1058.75" y2="434.5" stroke="black" stroke-width="1" />

<!-- RENDERING - component: tip -->
<circle r="6.875" cx="1300" cy="300" stroke="dimgray" stroke-width="1" fill="white" />

<circle r="18.75" cx="1300" cy="300" stroke="dimgray" stroke-width="1" fill="white" />
<circle r="11.25" cx="1300" cy="300" stroke="dimgray" stroke-width="1" fill="white" />

<circle r="18.75" cx="1300" cy="300" stroke="dimgray" stroke-width="1" fill="white" />


<!-- RENDERING - component: head -->
<circle r="21.25" cx="1300" cy="300" stroke="dimgray" stroke-width="1" fill="white" />


<!-- RENDERING - component: grip -->
<circle r="22.5" cx="1300" cy="300" stroke="dimgray" stroke-width="1" fill="white" />

<circle r="21.25" cx="1300" cy="300" stroke="dimgray" stroke-width="1" fill="white" />

<circle r="22.5" cx="1300" cy="300" stroke="dimgray" stroke-width="1" fill="white" />

<circle r="21.25" cx="1300" cy="300" stroke="dimgray" stroke-width="1" fill="white" />

<circle r="22.5" cx="1300" cy="300" stroke="dimgray" stroke-width="1" fill="white" />

<circle r="21.25" cx="1300" cy="300" stroke="dimgray" stroke-width="1" fill="white" />

<circle r="22.5" cx="1300" cy="300" stroke="dimgray" stroke-width="1" fill="white" />

<circle r="21.25" cx="1300" cy="300" stroke="dimgray" stroke-width="1" fill="white" />

<circle r="22.5" cx="1300" cy="300" stroke="dimgray" stroke-width="1" fill="white" />

<circle r="21.25" cx="1300" cy="300" stroke="dimgray" stroke-width="1" fill="white" />

<circle r="22.5" cx="1300" cy="300" stroke="dimgray" stroke-width="1" fill="white" />


<!-- RENDERING - component: body -->
<polygon points="1288.4529946162074,280 1311.5470053837926,280 1323.0940107675851,300 1311.5470053837926,320 1288.4529946162074,320 1276.9059892324149,300 " stroke="dimgray" stroke-width="1" fill="white"/>


<!-- RENDERING - component: clip -->
<circle r="22.5" cx="1300" cy="300" stroke="dimgray" stroke-width="1" fill="white" />

<!-- 4.5 2 --><rect x="1288.75" y="268.375" width="22.5" height="10" rx="1" ry="1" stroke-width="1.0" stroke="dimgray" fill="white"/>
<rect x="1288.75" y="268.375" width="22.5" height="10" rx="1" ry="1" stroke-width="1.0" stroke="dimgray" fill="none"/>
<!-- 4.5 3 --><rect x="1288.75" y="263.375" width="22.5" height="15" rx="1" ry="1" stroke-width="1.0" stroke="dimgray" fill="white"/>
<rect x="1288.75" y="263.375" width="22.5" height="15" rx="1" ry="1" stroke-width="1.0" stroke="dimgray" fill="none"/>
<!-- 4.5 0.75 --><rect x="1288.75" y="274.625" width="22.5" height="3.75" rx="1" ry="1" stroke-width="1.0" stroke="dimgray" fill="white"/>
<line x1="1288.75" x2="1311.25" y1="274.625" y2="274.625" stroke-width="0.25" stroke="#dfdfdf" />
<rect x="1288.75" y="274.625" width="22.5" height="3.75" rx="1" ry="1" stroke-width="1.0" stroke="dimgray" fill="none"/>
<!-- 4.5 2.25 --><rect x="1288.75" y="267.125" width="22.5" height="11.25" rx="1" ry="1" stroke-width="1.0" stroke="dimgray" fill="white"/>
<line x1="1288.75" x2="1311.25" y1="267.125" y2="267.125" stroke-width="0.25" stroke="#dfdfdf" />
<line x1="1288.75" x2="1311.25" y1="267.125" y2="267.125" stroke-width="0.25" stroke="#dfdfdf" />
<line x1="1288.75" x2="1311.25" y1="267.125" y2="267.125" stroke-width="0.25" stroke="#dfdfdf" />
<rect x="1288.75" y="267.125" width="22.5" height="11.25" rx="1" ry="1" stroke-width="1.0" stroke="dimgray" fill="none"/>


<!-- RENDERING - component: tail -->
<circle r="18.75" cx="1300" cy="300" stroke="dimgray" stroke-width="1" fill="white" />


<!-- RENDERING - component: cap -->
<circle r="15.625" cx="1300" cy="300" stroke="dimgray" stroke-width="1" fill="white" />

<circle r="14.375" cx="1300" cy="300" stroke="dimgray" stroke-width="1" fill="white" />
<circle r="15.625" cx="1300" cy="300" stroke="dimgray" stroke-width="1" fill="white" />

<circle r="14.375" cx="1300" cy="300" stroke="dimgray" stroke-width="1" fill="white" />

<circle r="14.375" cx="100" cy="300" stroke="dimgray" stroke-width="1" fill="white" />

<circle r="15.625" cx="100" cy="300" stroke="dimgray" stroke-width="1" fill="white" />
<circle r="14.375" cx="100" cy="300" stroke="dimgray" stroke-width="1" fill="white" />

<circle r="15.625" cx="100" cy="300" stroke="dimgray" stroke-width="1" fill="white" />


<!-- RENDERING - component: cap -->
<circle r="18.75" cx="100" cy="300" stroke="dimgray" stroke-width="1" fill="white" />


<!-- RENDERING - component: tail -->
<!-- 4.5 2.25 --><rect x="88.75" y="267.125" width="22.5" height="11.25" rx="1" ry="1" stroke-width="1.0" stroke="dimgray" fill="white"/>
<rect x="88.75" y="267.125" width="22.5" height="11.25" rx="1" ry="1" stroke-width="1.0" stroke="dimgray" fill="none"/>
<!-- 4.5 0.75 --><rect x="88.75" y="274.625" width="22.5" height="3.75" rx="1" ry="1" stroke-width="1.0" stroke="dimgray" fill="white"/>
<line x1="88.75" x2="111.25" y1="274.625" y2="274.625" stroke-width="0.25" stroke="#dfdfdf" />
<rect x="88.75" y="274.625" width="22.5" height="3.75" rx="1" ry="1" stroke-width="1.0" stroke="dimgray" fill="none"/>
<!-- 4.5 3 --><rect x="88.75" y="263.375" width="22.5" height="15" rx="1" ry="1" stroke-width="1.0" stroke="dimgray" fill="white"/>
<line x1="88.75" x2="111.25" y1="263.375" y2="263.375" stroke-width="0.25" stroke="#dfdfdf" />
<line x1="88.75" x2="111.25" y1="263.375" y2="263.375" stroke-width="0.25" stroke="#dfdfdf" />
<line x1="88.75" x2="111.25" y1="263.375" y2="263.375" stroke-width="0.25" stroke="#dfdfdf" />
<line x1="88.75" x2="111.25" y1="263.375" y2="263.375" stroke-width="0.25" stroke="#dfdfdf" />
<rect x="88.75" y="263.375" width="22.5" height="15" rx="1" ry="1" stroke-width="1.0" stroke="dimgray" fill="none"/>
<!-- 4.5 2 --><rect x="88.75" y="268.375" width="22.5" height="10" rx="1" ry="1" stroke-width="1.0" stroke="dimgray" fill="white"/>
<line x1="88.75" x2="111.25" y1="268.375" y2="268.375" stroke-width="0.25" stroke="#dfdfdf" />
<line x1="88.75" x2="111.25" y1="268.375" y2="268.375" stroke-width="0.25" stroke="#dfdfdf" />
<line x1="88.75" x2="111.25" y1="268.375" y2="268.375" stroke-width="0.25" stroke="#dfdfdf" />
<rect x="88.75" y="268.375" width="22.5" height="10" rx="1" ry="1" stroke-width="1.0" stroke="dimgray" fill="none"/>

<circle r="22.5" cx="100" cy="300" stroke="dimgray" stroke-width="1" fill="white" />


<!-- RENDERING - component: clip -->
<polygon points="88.45299461620749,280 111.54700538379251,280 123.09401076758503,300 111.54700538379251,320 88.45299461620749,320 76.90598923241497,300 " stroke="dimgray" stroke-width="1" fill="white"/>


<!-- RENDERING - component: body -->
<circle r="22.5" cx="100" cy="300" stroke="dimgray" stroke-width="1" fill="white" />

<circle r="21.25" cx="100" cy="300" stroke="dimgray" stroke-width="1" fill="white" />

<circle r="22.5" cx="100" cy="300" stroke="dimgray" stroke-width="1" fill="white" />

<circle r="21.25" cx="100" cy="300" stroke="dimgray" stroke-width="1" fill="white" />

<circle r="22.5" cx="100" cy="300" stroke="dimgray" stroke-width="1" fill="white" />

<circle r="21.25" cx="100" cy="300" stroke="dimgray" stroke-width="1" fill="white" />

<circle r="22.5" cx="100" cy="300" stroke="dimgray" stroke-width="1" fill="white" />

<circle r="21.25" cx="100" cy="300" stroke="dimgray" stroke-width="1" fill="white" />

<circle r="22.5" cx="100" cy="300" stroke="dimgray" stroke-width="1" fill="white" />

<circle r="21.25" cx="100" cy="300" stroke="dimgray" stroke-width="1" fill="white" />

<circle r="22.5" cx="100" cy="300" stroke="dimgray" stroke-width="1" fill="white" />


<!-- RENDERING - component: grip -->
<circle r="21.25" cx="100" cy="300" stroke="dimgray" stroke-width="1" fill="white" />


<!-- RENDERING - component: head -->
<circle r="18.75" cx="100" cy="300" stroke="dimgray" stroke-width="1" fill="white" />

<circle r="11.25" cx="100" cy="300" stroke="dimgray" stroke-width="1" fill="white" />
<circle r="18.75" cx="100" cy="300" stroke="dimgray" stroke-width="1" fill="white" />

<circle r="6.875" cx="100" cy="300" stroke="dimgray" stroke-width="1" fill="white" />


<!-- RENDERING - component: tip -->
<circle cx="100" cy="300" r="5" stroke="dimgray" stroke-width="0.5" fill="black" />
<!-- RENDERING - component: tip -->
<!-- RENDERING - part: cylinder -->
<rect x="341.25" y="293.125" width="17.5" height="13.75" rx="1" ry="1" stroke-width="0.5" stroke="dimgray" fill="white"/>

<!-- RENDERING - part: cone -->
<path d="M358.75 288.75 L402.5 281.25 L402.5 318.75 L358.75 311.25 Z" stroke-width="0.5" stroke="dimgray" fill="white" />

<!-- RENDERING - part: cylinder -->
<rect x="402.5" y="281.25" width="23.75" height="37.5" rx="1" ry="1" stroke-width="0.5" stroke="dimgray" fill="white"/>


<!-- RENDERING - component: head -->
<!-- RENDERING - part: cylinder -->
<rect x="426.25" y="278.75" width="7.5" height="42.5" rx="1" ry="1" stroke-width="0.5" stroke="dimgray" fill="white"/>


<!-- RENDERING - component: grip -->
<!-- RENDERING - part: cylinder -->
<rect x="433.75" y="277.5" width="12.5" height="45" rx="1" ry="1" stroke-width="0.5" stroke="dimgray" fill="white"/>
<rect x="433.75" y="277.5" width="12.5" height="45" rx="1" ry="1" stroke-width="0.5" stroke="black" fill="url(#diagonalHatch)"/>

<!-- RENDERING - part: cylinder -->
<rect x="446.25" y="278.75" width="5" height="42.5" rx="1" ry="1" stroke-width="0.5" stroke="dimgray" fill="white"/>

<!-- RENDERING - part: cylinder -->
<rect x="451.25" y="277.5" width="12.5" height="45" rx="1" ry="1" stroke-width="0.5" stroke="dimgray" fill="white"/>
<rect x="451.25" y="277.5" width="12.5" height="45" rx="1" ry="1" stroke-width="0.5" stroke="black" fill="url(#diagonalHatch)"/>

<!-- RENDERING - part: cylinder -->
<rect x="463.75" y="278.75" width="5" height="42.5" rx="1" ry="1" stroke-width="0.5" stroke="dimgray" fill="white"/>

<!-- RENDERING - part: cylinder -->
<rect x="468.75" y="277.5" width="12.5" height="45" rx="1" ry="1" stroke-width="0.5" stroke="dimgray" fill="white"/>
<rect x="468.75" y="277.5" width="12.5" height="45" rx="1" ry="1" stroke-width="0.5" stroke="black" fill="url(#diagonalHatch)"/>

<!-- RENDERING - part: cylinder -->
<rect x="481.25" y="278.75" width="5" height="42.5" rx="1" ry="1" stroke-width="0.5" stroke="dimgray" fill="white"/>

<!-- RENDERING - part: cylinder -->
<rect x="486.25" y="277.5" width="12.5" height="45" rx="1" ry="1" stroke-width="0.5" stroke="dimgray" fill="white"/>
<rect x="486.25" y="277.5" width="12.5" height="45" rx="1" ry="1" stroke-width="0.5" stroke="black" fill="url(#diagonalHatch)"/>

<!-- RENDERING - part: cylinder -->
<rect x="498.75" y="278.75" width="5" height="42.5" rx="1" ry="1" stroke-width="0.5" stroke="dimgray" fill="white"/>

<!-- RENDERING - part: cylinder -->
<rect x="503.75" y="277.5" width="12.5" height="45" rx="1" ry="1" stroke-width="0.5" stroke="dimgray" fill="white"/>
<rect x="503.75" y="277.5" width="12.5" height="45" rx="1" ry="1" stroke-width="0.5" stroke="black" fill="url(#diagonalHatch)"/>

<!-- RENDERING - part: cylinder -->
<rect x="516.25" y="278.75" width="5" height="42.5" rx="1" ry="1" stroke-width="0.5" stroke="dimgray" fill="white"/>

<!-- RENDERING - part: cylinder -->
<rect x="521.25" y="277.5" width="97.5" height="45" rx="1" ry="1" stroke-width="0.5" stroke="dimgray" fill="white"/>
<rect x="521.25" y="277.5" width="97.5" height="45" rx="1" ry="1" stroke-width="0.5" stroke="black" fill="url(#diagonalHatch)"/>


<!-- RENDERING - component: body -->
<!-- RENDERING - part: hexagonal -->
<rect x="618.75" y="280" width="330" height="40" rx="1" ry="1" stroke-width="0.5" stroke="dimgray" fill="white"/>
<line x1="618.75" y1="300" x2="948.75" y2="300" stroke-width="1.5" stroke="black" fill="none" stroke-opacity="0.5"/>
<line x1="618.75" y1="300" x2="948.75" y2="300" stroke-width="0.5" stroke="gray" fill="none" stroke-opacity="0.5"/>


<!-- RENDERING - component: clip -->
<!-- RENDERING - part: cylinder -->
<rect x="948.75" y="277.5" width="37.5" height="45" rx="1" ry="1" stroke-width="0.5" stroke="dimgray" fill="white"/>

<!-- RENDERING - part: extra -->
<line x1="791.25" y1="269.375" x2="800" y2="279.375" stroke-width="3" stroke="black" fill="dimgray" stroke-linecap="round" />
/><line x1="800" y1="279.375" x2="922.5" y2="264.375" stroke-width="3" stroke="black" fill="dimgray" stroke-linecap="round" />
/><path d="M922.5 264.375 Q928.125 264.375 933.75 268.125" stroke-width="3" stroke="black" fill="none" stroke-linecap="round" />
<line x1="933.75" y1="268.125" x2="948.75" y2="279.375" stroke-width="3" stroke="black" fill="dimgray" stroke-linecap="round" />
/><line x1="791.25" y1="269.375" x2="800" y2="279.375" stroke-width="2" stroke="white" fill="white" stroke-linecap="round" />
/><line x1="800" y1="279.375" x2="922.5" y2="264.375" stroke-width="2" stroke="white" fill="white" stroke-linecap="round" />
/><path d="M922.5 264.375 Q928.125 264.375 933.75 268.125" stroke-width="2" stroke="white" fill="none" stroke-linecap="round" />
<line x1="933.75" y1="268.125" x2="948.75" y2="279.375" stroke-width="2" stroke="white" fill="white" stroke-linecap="round" />
/>

<!-- RENDERING - component: tail -->
<!-- RENDERING - part: cylinder -->
<rect x="986.25" y="281.25" width="11.25" height="37.5" rx="1" ry="1" stroke-width="0.5" stroke="dimgray" fill="white"/>


<!-- RENDERING - component: cap -->
<!-- RENDERING - part: cylinder -->
<rect x="997.5" y="284.375" width="11.25" height="31.25" rx="1" ry="1" stroke-width="0.5" stroke="dimgray" fill="white"/>

<!-- RENDERING - part: cone -->
<path d="M1008.75 284.375 L1022.5 285.625 L1022.5 314.375 L1008.75 315.625 Z" stroke-width="0.5" stroke="dimgray" fill="white" />

<!-- RENDERING - part: cylinder -->
<rect x="1022.5" y="285.625" width="36.25" height="28.75" rx="1" ry="1" stroke-width="0.5" stroke="dimgray" fill="white"/>

<text x="1380" y="30" font-size="1.6em" font-weight="bold" text-anchor="end" dominant-baseline="central">'body' colour variants</text>
<rect x="1340" y="55" width="40" rx="50%" ry="50%" height="40" stroke="black" stroke-width="2" fill="black" />
<text x="1360" y="100" transform="rotate(-90, 1360, 100)" font-size="1.2em" font-weight="bold" text-anchor="end" dominant-baseline="central">black</text>
<text x="30" y="106" font-size="1.2em" font-weight="bold" text-anchor="start" dominant-baseline="central">Materials:</text>
<text x="50" y="126" font-size="1.2em" text-anchor="start" dominant-baseline="central"> - metal</text>
<text x="50" y="146" font-size="1.2em" text-anchor="start" dominant-baseline="central"> - plastic</text>
<text x="50%" y="580" font-size="1.1em" font-weight="bold" text-anchor="middle" dominant-baseline="middle">Copyright (c) // The Mechanical Pencil Database (tmpdb) // Licensed under Creative Commons Attribution-NonCommercial-ShareAlike 4.0 International</text>
</svg>
