<svg xmlns="http://www.w3.org/2000/svg" width="1500" height="600">
<pattern id="diagonalHatch" patternUnits="userSpaceOnUse" width="8" height="8">
<rect width="6" height="6" fill='none'/>
<path stroke="dimgray" stroke-linecap="round" stroke-width="1" d="M 4,4 L 8,8"/>
<path stroke="dimgray" stroke-linecap="round" stroke-width="1" d="M 4,4 L 0,8"/>
<path stroke="gray" stroke-linecap="round" stroke-width="1" d="M 4,4 L 8,0" />
<path stroke="gray" stroke-linecap="round" stroke-width="1" d="M 4,4 L 0,0" />
</pattern>
<rect x="0" y="0" width="1500" height="600" fill="white" stroke="black" stroke-width="4" />
<rect x="2" y="2" width="1496" height="596" fill="white" stroke="orange" stroke-width="1" />
<text x="30" y="50" font-size="2.0em" font-weight="bold"> unbranded // Metal Black </text>
<text x="30" y="80" font-size="1.1em"> </text>
<line x1="100" y1="263.375" x2="1400" y2="263.375" stroke="#cfcfcf" stroke-width="1" />
<line x1="160" y1="278.375" x2="1400" y2="278.375" stroke="#cfcfcf" stroke-width="1" />
<line x1="148.75" y1="230" x2="148.75" y2="300" stroke="#cfcfcf" stroke-width="1" />
<line x1="171.25" y1="230" x2="171.25" y2="300" stroke="#cfcfcf" stroke-width="1" />
<line x1="1400" y1="277.5" x2="1400" y2="277.5" stroke="#cfcfcf" stroke-width="1" />
<line x1="100" y1="322.5" x2="1400" y2="322.5" stroke="#cfcfcf" stroke-width="1" />
<line x1="136.90598923241498" y1="342.5" x2="136.90598923241498" y2="300" stroke="#cfcfcf" stroke-width="1" />
<line x1="183.09401076758502" y1="342.5" x2="183.09401076758502" y2="300" stroke="#cfcfcf" stroke-width="1" />
<line x1="391.25" y1="189.5" x2="391.25" y2="442.5" stroke="#cfcfcf" stroke-width="1" />
<line x1="476.25" y1="189.5" x2="476.25" y2="442.5" stroke="#cfcfcf" stroke-width="1" />
<line x1="483.75" y1="189.5" x2="483.75" y2="442.5" stroke="#cfcfcf" stroke-width="1" />
<line x1="668.75" y1="189.5" x2="668.75" y2="442.5" stroke="#cfcfcf" stroke-width="1" />
<line x1="998.75" y1="189.5" x2="998.75" y2="442.5" stroke="#cfcfcf" stroke-width="1" />
<line x1="841.25" y1="233.5" x2="841.25" y2="420" stroke="#cfcfcf" stroke-width="1" />
<line x1="998.75" y1="233.5" x2="998.75" y2="420" stroke="#cfcfcf" stroke-width="1" />
<line x1="1036.25" y1="189.5" x2="1036.25" y2="442.5" stroke="#cfcfcf" stroke-width="1" />
<line x1="1047.5" y1="189.5" x2="1047.5" y2="442.5" stroke="#cfcfcf" stroke-width="1" />
<line x1="1108.75" y1="189.5" x2="1108.75" y2="422.5" stroke="#cfcfcf" stroke-width="1" />
<line x1="100" y1="263.375" x2="120" y2="263.375" stroke="black" stroke-width="1" />
<line x1="148.75" y1="230" x2="148.75" y2="250" stroke="black" stroke-width="1" />
<line x1="171.25" y1="230" x2="171.25" y2="250" stroke="black" stroke-width="1" />
<line x1="148.75" y1="240" x2="171.25" y2="240" stroke="black" stroke-width="1" />
<text x="160" y="220" font-size="1.2em" font-weight="bold" text-anchor="middle" dominant-baseline="central">4.50 mm</text>
<line x1="100" y1="322.5" x2="120" y2="322.5" stroke="black" stroke-width="1" />
<line x1="110" y1="263.375" x2="110" y2="322.5" stroke="black" stroke-width="1" />
<line x1="200" y1="263.375" x2="220" y2="263.375" stroke="black" stroke-width="1" />
<line x1="200" y1="278.375" x2="220" y2="278.375" stroke="black" stroke-width="1" />
<line x1="210" y1="263.375" x2="210" y2="278.375" stroke="black" stroke-width="1" />
<text x="224" y="270.875" font-size="1.2em" font-weight="bold" text-anchor="start" dominant-baseline="central">3.00 mm</text>
<line x1="200" y1="322.5" x2="220" y2="322.5" stroke="black" stroke-width="1" />
<line x1="210" y1="322.5" x2="210" y2="277.5" stroke="black" stroke-width="1" />
<text x="224" y="300" font-size="1.2em" font-weight="bold" text-anchor="start" dominant-baseline="central">9.00 mm</text>
<text x="90" y="300" transform="rotate(-90, 90, 300)" font-size="1.2em" font-weight="bold" text-anchor="middle" dominant-baseline="central">12.00 mm</text>
<text x="160" y="540" font-size="1.8em" font-weight="bold" text-anchor="middle" dominant-baseline="central">Front</text>
<line x1="136.90598923241498" y1="352.5" x2="183.09401076758502" y2="352.5" stroke="black" stroke-width="1" />
<line x1="136.90598923241498" y1="342.5" x2="136.90598923241498" y2="362.5" stroke="black" stroke-width="1" />
<line x1="183.09401076758502" y1="342.5" x2="183.09401076758502" y2="362.5" stroke="black" stroke-width="1" />
<text x="160" y="372.5" font-size="1.2em" font-weight="bold" text-anchor="middle" dominant-baseline="central">9.24 mm</text>
<line x1="391.25" y1="200.5" x2="391.25" y2="178.5" stroke="black" stroke-width="1" />
<text x="430.75" y="175.5" transform="rotate(-90, 430.75, 175.5)" font-size="1.2em" font-weight="bold" dominant-baseline="auto">17.00 mm</text>
<text x="436.75" y="175.5" transform="rotate(-90, 436.75, 175.5)" font-size="1.2em" font-weight="bold" dominant-baseline="hanging">tip</text>
<line x1="476.25" y1="200.5" x2="476.25" y2="178.5" stroke="black" stroke-width="1" />
<text x="480" y="175.5" transform="rotate(-90, 480, 175.5)" font-size="1.2em" font-weight="bold" dominant-baseline="middle">1.50 mm head</text>
<line x1="483.75" y1="200.5" x2="483.75" y2="178.5" stroke="black" stroke-width="1" />
<text x="573.25" y="175.5" transform="rotate(-90, 573.25, 175.5)" font-size="1.2em" font-weight="bold" dominant-baseline="auto">37.00 mm</text>
<text x="579.25" y="175.5" transform="rotate(-90, 579.25, 175.5)" font-size="1.2em" font-weight="bold" dominant-baseline="hanging">grip</text>
<line x1="668.75" y1="200.5" x2="668.75" y2="178.5" stroke="black" stroke-width="1" />
<text x="830.75" y="175.5" transform="rotate(-90, 830.75, 175.5)" font-size="1.2em" font-weight="bold" dominant-baseline="auto">66.00 mm</text>
<text x="836.75" y="175.5" transform="rotate(-90, 836.75, 175.5)" font-size="1.2em" font-weight="bold" dominant-baseline="hanging">body</text>
<line x1="998.75" y1="200.5" x2="998.75" y2="178.5" stroke="black" stroke-width="1" />
<text x="1017.5" y="175.5" transform="rotate(-90, 1017.5, 175.5)" font-size="1.2em" font-weight="bold" dominant-baseline="middle">7.50 mm clip</text>
<line x1="841.25" y1="253.5" x2="841.25" y2="231.5" stroke="black" stroke-width="1" />
<line x1="841.25" y1="420" x2="841.25" y2="396" stroke="black" stroke-width="1" />
<line x1="998.75" y1="396" x2="998.75" y2="420" stroke="black" stroke-width="1" />
<line x1="998.75" y1="253.5" x2="998.75" y2="231.5" stroke="black" stroke-width="1" />
<line x1="841.25" y1="242.5" x2="998.75" y2="242.5" stroke="black" stroke-width="1" />
<line x1="841.25" y1="409.5" x2="998.75" y2="409.5" stroke="black" stroke-width="1" />
<text x="920" y="392.5" font-size="1.2em" text-anchor="middle" dominant-baseline="central">metal</text>
<text x="920" y="231.5" font-size="1.2em" font-weight="bold" text-anchor="middle" dominant-baseline="central">31.50 mm</text>
<text x="920" y="251.5" font-size="1.2em" font-weight="bold" text-anchor="middle" dominant-baseline="central">clip (extra)</text>
<line x1="1036.25" y1="200.5" x2="1036.25" y2="178.5" stroke="black" stroke-width="1" />
<text x="1041.875" y="175.5" transform="rotate(-90, 1041.875, 175.5)" font-size="1.2em" font-weight="bold" dominant-baseline="middle">2.25 mm tail</text>
<line x1="1047.5" y1="200.5" x2="1047.5" y2="178.5" stroke="black" stroke-width="1" />
<text x="1075.125" y="175.5" transform="rotate(-90, 1075.125, 175.5)" font-size="1.2em" font-weight="bold" dominant-baseline="auto">12.25 mm</text>
<text x="1081.125" y="175.5" transform="rotate(-90, 1081.125, 175.5)" font-size="1.2em" font-weight="bold" dominant-baseline="hanging">cap</text>
<line x1="1108.75" y1="200.5" x2="1108.75" y2="178.5" stroke="black" stroke-width="1" />
<line x1="391.25" y1="189.5" x2="1108.75" y2="189.5" stroke="black" stroke-width="1" />
<line x1="391.25" y1="352.5" x2="1108.75" y2="352.5" stroke="black" stroke-width="1" />
<line x1="391.25" y1="342.5" x2="391.25" y2="362.5" stroke="black" stroke-width="1" />
<line x1="1108.75" y1="342.5" x2="1108.75" y2="362.5" stroke="black" stroke-width="1" />
<text x="750" y="372.5" font-size="1.2em" font-weight="bold" text-anchor="middle" dominant-baseline="central">143.50 mm</text>
<text x="750" y="540" font-size="1.8em" font-weight="bold" text-anchor="middle" dominant-baseline="central">Side view</text>
<text x="1400" y="540" font-size="1.8em" font-weight="bold" text-anchor="middle" dominant-baseline="central">Back</text>
<line x1="391.25" y1="422.5" x2="391.25" y2="446.5" stroke="black" stroke-width="1" />
<text x="433.75" y="448.5" transform="rotate(-90, 433.75, 448.5)" font-size="1.2em" text-anchor="end" dominant-baseline="middle">metal</text>
<line x1="476.25" y1="422.5" x2="476.25" y2="446.5" stroke="black" stroke-width="1" />
<text x="480" y="448.5" transform="rotate(-90, 480, 448.5)" font-size="1.2em" text-anchor="end" dominant-baseline="middle">metal</text>
<line x1="483.75" y1="422.5" x2="483.75" y2="446.5" stroke="black" stroke-width="1" />
<text x="576.25" y="448.5" transform="rotate(-90, 576.25, 448.5)" font-size="1.2em" text-anchor="end" dominant-baseline="middle">metal</text>
<line x1="668.75" y1="422.5" x2="668.75" y2="446.5" stroke="black" stroke-width="1" />
<text x="833.75" y="448.5" transform="rotate(-90, 833.75, 448.5)" font-size="1.2em" text-anchor="end" dominant-baseline="middle">metal</text>
<line x1="998.75" y1="422.5" x2="998.75" y2="446.5" stroke="black" stroke-width="1" />
<text x="1017.5" y="448.5" transform="rotate(-90, 1017.5, 448.5)" font-size="1.2em" text-anchor="end" dominant-baseline="middle">metal</text>
<line x1="1036.25" y1="422.5" x2="1036.25" y2="446.5" stroke="black" stroke-width="1" />
<text x="1041.875" y="448.5" transform="rotate(-90, 1041.875, 448.5)" font-size="1.2em" text-anchor="end" dominant-baseline="middle">metal</text>
<line x1="1047.5" y1="422.5" x2="1047.5" y2="446.5" stroke="black" stroke-width="1" />
<text x="1078.125" y="448.5" transform="rotate(-90, 1078.125, 448.5)" font-size="1.2em" text-anchor="end" dominant-baseline="middle">plastic</text>
<line x1="1108.75" y1="422.5" x2="1108.75" y2="446.5" stroke="black" stroke-width="1" />
<line x1="391.25" y1="434.5" x2="1108.75" y2="434.5" stroke="black" stroke-width="1" />

<!-- RENDERING - component: tip -->
<circle r="6.875" cx="1400" cy="300" stroke="dimgray" stroke-width="1" fill="black" />

<circle r="18.75" cx="1400" cy="300" stroke="dimgray" stroke-width="1" fill="black" />
<circle r="11.25" cx="1400" cy="300" stroke="dimgray" stroke-width="1" fill="black" />

<circle r="18.75" cx="1400" cy="300" stroke="dimgray" stroke-width="1" fill="black" />


<!-- RENDERING - component: head -->
<circle r="21.25" cx="1400" cy="300" stroke="dimgray" stroke-width="1" fill="black" />


<!-- RENDERING - component: grip -->
<circle r="22.5" cx="1400" cy="300" stroke="dimgray" stroke-width="1" fill="black" />

<circle r="21.25" cx="1400" cy="300" stroke="dimgray" stroke-width="1" fill="black" />

<circle r="22.5" cx="1400" cy="300" stroke="dimgray" stroke-width="1" fill="black" />

<circle r="21.25" cx="1400" cy="300" stroke="dimgray" stroke-width="1" fill="black" />

<circle r="22.5" cx="1400" cy="300" stroke="dimgray" stroke-width="1" fill="black" />

<circle r="21.25" cx="1400" cy="300" stroke="dimgray" stroke-width="1" fill="black" />

<circle r="22.5" cx="1400" cy="300" stroke="dimgray" stroke-width="1" fill="black" />

<circle r="21.25" cx="1400" cy="300" stroke="dimgray" stroke-width="1" fill="black" />

<circle r="22.5" cx="1400" cy="300" stroke="dimgray" stroke-width="1" fill="black" />

<circle r="21.25" cx="1400" cy="300" stroke="dimgray" stroke-width="1" fill="black" />

<circle r="22.5" cx="1400" cy="300" stroke="dimgray" stroke-width="1" fill="black" />


<!-- RENDERING - component: body -->
<polygon points="1388.4529946162074,280 1411.5470053837926,280 1423.0940107675851,300 1411.5470053837926,320 1388.4529946162074,320 1376.9059892324149,300 " stroke="dimgray" stroke-width="1" fill="black"/>


<!-- RENDERING - component: clip -->
<circle r="22.5" cx="1400" cy="300" stroke="dimgray" stroke-width="1" fill="black" />

<!-- 4.5 2 --><rect x="1388.75" y="268.375" width="22.5" height="10" rx="1" ry="1" stroke-width="1.0" stroke="dimgray" fill="black"/>
<rect x="1388.75" y="268.375" width="22.5" height="10" rx="1" ry="1" stroke-width="1.0" stroke="dimgray" fill="none"/>
<!-- 4.5 3 --><rect x="1388.75" y="263.375" width="22.5" height="15" rx="1" ry="1" stroke-width="1.0" stroke="dimgray" fill="black"/>
<rect x="1388.75" y="263.375" width="22.5" height="15" rx="1" ry="1" stroke-width="1.0" stroke="dimgray" fill="none"/>
<!-- 4.5 0.75 --><rect x="1388.75" y="274.625" width="22.5" height="3.75" rx="1" ry="1" stroke-width="1.0" stroke="dimgray" fill="black"/>
<line x1="1388.75" x2="1411.25" y1="274.625" y2="274.625" stroke-width="0.25" stroke="#dfdfdf" />
<rect x="1388.75" y="274.625" width="22.5" height="3.75" rx="1" ry="1" stroke-width="1.0" stroke="dimgray" fill="none"/>
<!-- 4.5 2.25 --><rect x="1388.75" y="267.125" width="22.5" height="11.25" rx="1" ry="1" stroke-width="1.0" stroke="dimgray" fill="black"/>
<line x1="1388.75" x2="1411.25" y1="267.125" y2="267.125" stroke-width="0.25" stroke="#dfdfdf" />
<line x1="1388.75" x2="1411.25" y1="267.125" y2="267.125" stroke-width="0.25" stroke="#dfdfdf" />
<line x1="1388.75" x2="1411.25" y1="267.125" y2="267.125" stroke-width="0.25" stroke="#dfdfdf" />
<rect x="1388.75" y="267.125" width="22.5" height="11.25" rx="1" ry="1" stroke-width="1.0" stroke="dimgray" fill="none"/>


<!-- RENDERING - component: tail -->
<circle r="18.75" cx="1400" cy="300" stroke="dimgray" stroke-width="1" fill="black" />


<!-- RENDERING - component: cap -->
<circle r="15.625" cx="1400" cy="300" stroke="dimgray" stroke-width="1" fill="black" />

<circle r="14.375" cx="1400" cy="300" stroke="dimgray" stroke-width="1" fill="black" />
<circle r="15.625" cx="1400" cy="300" stroke="dimgray" stroke-width="1" fill="black" />

<circle r="14.375" cx="1400" cy="300" stroke="dimgray" stroke-width="1" fill="black" />

<circle r="14.375" cx="160" cy="300" stroke="dimgray" stroke-width="1" fill="black" />

<circle r="15.625" cx="160" cy="300" stroke="dimgray" stroke-width="1" fill="black" />
<circle r="14.375" cx="160" cy="300" stroke="dimgray" stroke-width="1" fill="black" />

<circle r="15.625" cx="160" cy="300" stroke="dimgray" stroke-width="1" fill="black" />


<!-- RENDERING - component: cap -->
<circle r="18.75" cx="160" cy="300" stroke="dimgray" stroke-width="1" fill="black" />


<!-- RENDERING - component: tail -->
<!-- 4.5 2.25 --><rect x="148.75" y="267.125" width="22.5" height="11.25" rx="1" ry="1" stroke-width="1.0" stroke="dimgray" fill="black"/>
<rect x="148.75" y="267.125" width="22.5" height="11.25" rx="1" ry="1" stroke-width="1.0" stroke="dimgray" fill="none"/>
<!-- 4.5 0.75 --><rect x="148.75" y="274.625" width="22.5" height="3.75" rx="1" ry="1" stroke-width="1.0" stroke="dimgray" fill="black"/>
<line x1="148.75" x2="171.25" y1="274.625" y2="274.625" stroke-width="0.25" stroke="#dfdfdf" />
<rect x="148.75" y="274.625" width="22.5" height="3.75" rx="1" ry="1" stroke-width="1.0" stroke="dimgray" fill="none"/>
<!-- 4.5 3 --><rect x="148.75" y="263.375" width="22.5" height="15" rx="1" ry="1" stroke-width="1.0" stroke="dimgray" fill="black"/>
<line x1="148.75" x2="171.25" y1="263.375" y2="263.375" stroke-width="0.25" stroke="#dfdfdf" />
<line x1="148.75" x2="171.25" y1="263.375" y2="263.375" stroke-width="0.25" stroke="#dfdfdf" />
<line x1="148.75" x2="171.25" y1="263.375" y2="263.375" stroke-width="0.25" stroke="#dfdfdf" />
<line x1="148.75" x2="171.25" y1="263.375" y2="263.375" stroke-width="0.25" stroke="#dfdfdf" />
<rect x="148.75" y="263.375" width="22.5" height="15" rx="1" ry="1" stroke-width="1.0" stroke="dimgray" fill="none"/>
<!-- 4.5 2 --><rect x="148.75" y="268.375" width="22.5" height="10" rx="1" ry="1" stroke-width="1.0" stroke="dimgray" fill="black"/>
<line x1="148.75" x2="171.25" y1="268.375" y2="268.375" stroke-width="0.25" stroke="#dfdfdf" />
<line x1="148.75" x2="171.25" y1="268.375" y2="268.375" stroke-width="0.25" stroke="#dfdfdf" />
<line x1="148.75" x2="171.25" y1="268.375" y2="268.375" stroke-width="0.25" stroke="#dfdfdf" />
<rect x="148.75" y="268.375" width="22.5" height="10" rx="1" ry="1" stroke-width="1.0" stroke="dimgray" fill="none"/>

<circle r="22.5" cx="160" cy="300" stroke="dimgray" stroke-width="1" fill="black" />


<!-- RENDERING - component: clip -->
<polygon points="148.4529946162075,280 171.5470053837925,280 183.09401076758502,300 171.5470053837925,320 148.4529946162075,320 136.90598923241498,300 " stroke="dimgray" stroke-width="1" fill="black"/>


<!-- RENDERING - component: body -->
<circle r="22.5" cx="160" cy="300" stroke="dimgray" stroke-width="1" fill="black" />

<circle r="21.25" cx="160" cy="300" stroke="dimgray" stroke-width="1" fill="black" />

<circle r="22.5" cx="160" cy="300" stroke="dimgray" stroke-width="1" fill="black" />

<circle r="21.25" cx="160" cy="300" stroke="dimgray" stroke-width="1" fill="black" />

<circle r="22.5" cx="160" cy="300" stroke="dimgray" stroke-width="1" fill="black" />

<circle r="21.25" cx="160" cy="300" stroke="dimgray" stroke-width="1" fill="black" />

<circle r="22.5" cx="160" cy="300" stroke="dimgray" stroke-width="1" fill="black" />

<circle r="21.25" cx="160" cy="300" stroke="dimgray" stroke-width="1" fill="black" />

<circle r="22.5" cx="160" cy="300" stroke="dimgray" stroke-width="1" fill="black" />

<circle r="21.25" cx="160" cy="300" stroke="dimgray" stroke-width="1" fill="black" />

<circle r="22.5" cx="160" cy="300" stroke="dimgray" stroke-width="1" fill="black" />


<!-- RENDERING - component: grip -->
<circle r="21.25" cx="160" cy="300" stroke="dimgray" stroke-width="1" fill="black" />


<!-- RENDERING - component: head -->
<circle r="18.75" cx="160" cy="300" stroke="dimgray" stroke-width="1" fill="black" />

<circle r="11.25" cx="160" cy="300" stroke="dimgray" stroke-width="1" fill="black" />
<circle r="18.75" cx="160" cy="300" stroke="dimgray" stroke-width="1" fill="black" />

<circle r="6.875" cx="160" cy="300" stroke="dimgray" stroke-width="1" fill="black" />


<!-- RENDERING - component: tip -->
<circle cx="160" cy="300" r="5" stroke="dimgray" stroke-width="0.5" fill="black" />
<!-- RENDERING - component: tip -->
<!-- RENDERING - part: cylinder -->
<rect x="391.25" y="293.125" width="17.5" height="13.75" rx="1" ry="1" stroke-width="0.5" stroke="dimgray" fill="black"/>

<!-- RENDERING - part: cone -->
<path d="M408.75 288.75 L452.5 281.25 L452.5 318.75 L408.75 311.25 Z" stroke-width="0.5" stroke="dimgray" fill="black" />

<!-- RENDERING - part: cylinder -->
<rect x="452.5" y="281.25" width="23.75" height="37.5" rx="1" ry="1" stroke-width="0.5" stroke="dimgray" fill="black"/>


<!-- RENDERING - component: head -->
<!-- RENDERING - part: cylinder -->
<rect x="476.25" y="278.75" width="7.5" height="42.5" rx="1" ry="1" stroke-width="0.5" stroke="dimgray" fill="black"/>


<!-- RENDERING - component: grip -->
<!-- RENDERING - part: cylinder -->
<rect x="483.75" y="277.5" width="12.5" height="45" rx="1" ry="1" stroke-width="0.5" stroke="dimgray" fill="black"/>
<rect x="483.75" y="277.5" width="12.5" height="45" rx="1" ry="1" stroke-width="0.5" stroke="black" fill="url(#diagonalHatch)"/>

<!-- RENDERING - part: cylinder -->
<rect x="496.25" y="278.75" width="5" height="42.5" rx="1" ry="1" stroke-width="0.5" stroke="dimgray" fill="black"/>

<!-- RENDERING - part: cylinder -->
<rect x="501.25" y="277.5" width="12.5" height="45" rx="1" ry="1" stroke-width="0.5" stroke="dimgray" fill="black"/>
<rect x="501.25" y="277.5" width="12.5" height="45" rx="1" ry="1" stroke-width="0.5" stroke="black" fill="url(#diagonalHatch)"/>

<!-- RENDERING - part: cylinder -->
<rect x="513.75" y="278.75" width="5" height="42.5" rx="1" ry="1" stroke-width="0.5" stroke="dimgray" fill="black"/>

<!-- RENDERING - part: cylinder -->
<rect x="518.75" y="277.5" width="12.5" height="45" rx="1" ry="1" stroke-width="0.5" stroke="dimgray" fill="black"/>
<rect x="518.75" y="277.5" width="12.5" height="45" rx="1" ry="1" stroke-width="0.5" stroke="black" fill="url(#diagonalHatch)"/>

<!-- RENDERING - part: cylinder -->
<rect x="531.25" y="278.75" width="5" height="42.5" rx="1" ry="1" stroke-width="0.5" stroke="dimgray" fill="black"/>

<!-- RENDERING - part: cylinder -->
<rect x="536.25" y="277.5" width="12.5" height="45" rx="1" ry="1" stroke-width="0.5" stroke="dimgray" fill="black"/>
<rect x="536.25" y="277.5" width="12.5" height="45" rx="1" ry="1" stroke-width="0.5" stroke="black" fill="url(#diagonalHatch)"/>

<!-- RENDERING - part: cylinder -->
<rect x="548.75" y="278.75" width="5" height="42.5" rx="1" ry="1" stroke-width="0.5" stroke="dimgray" fill="black"/>

<!-- RENDERING - part: cylinder -->
<rect x="553.75" y="277.5" width="12.5" height="45" rx="1" ry="1" stroke-width="0.5" stroke="dimgray" fill="black"/>
<rect x="553.75" y="277.5" width="12.5" height="45" rx="1" ry="1" stroke-width="0.5" stroke="black" fill="url(#diagonalHatch)"/>

<!-- RENDERING - part: cylinder -->
<rect x="566.25" y="278.75" width="5" height="42.5" rx="1" ry="1" stroke-width="0.5" stroke="dimgray" fill="black"/>

<!-- RENDERING - part: cylinder -->
<rect x="571.25" y="277.5" width="97.5" height="45" rx="1" ry="1" stroke-width="0.5" stroke="dimgray" fill="black"/>
<rect x="571.25" y="277.5" width="97.5" height="45" rx="1" ry="1" stroke-width="0.5" stroke="black" fill="url(#diagonalHatch)"/>


<!-- RENDERING - component: body -->
<!-- RENDERING - part: hexagonal -->
<rect x="668.75" y="280" width="330" height="40" rx="1" ry="1" stroke-width="0.5" stroke="dimgray" fill="black"/>
<line x1="668.75" y1="300" x2="998.75" y2="300" stroke-width="1.5" stroke="black" fill="none" stroke-opacity="0.5"/>
<line x1="668.75" y1="300" x2="998.75" y2="300" stroke-width="0.5" stroke="gray" fill="none" stroke-opacity="0.5"/>


<!-- RENDERING - component: clip -->
<!-- RENDERING - part: cylinder -->
<rect x="998.75" y="277.5" width="37.5" height="45" rx="1" ry="1" stroke-width="0.5" stroke="dimgray" fill="black"/>

<!-- RENDERING - part: extra -->
<line x1="841.25" y1="269.375" x2="850" y2="279.375" stroke-width="3" stroke="dimgray" fill="dimgray" stroke-linecap="round" />
/><line x1="850" y1="279.375" x2="972.5" y2="264.375" stroke-width="3" stroke="dimgray" fill="dimgray" stroke-linecap="round" />
/><path d="M972.5 264.375 Q978.125 264.375 983.75 268.125" stroke-width="3" stroke="dimgray" fill="none" stroke-linecap="round" />
<line x1="983.75" y1="268.125" x2="998.75" y2="279.375" stroke-width="3" stroke="dimgray" fill="dimgray" stroke-linecap="round" />
/><line x1="841.25" y1="269.375" x2="850" y2="279.375" stroke-width="2" stroke="black" fill="black" stroke-linecap="round" />
/><line x1="850" y1="279.375" x2="972.5" y2="264.375" stroke-width="2" stroke="black" fill="black" stroke-linecap="round" />
/><path d="M972.5 264.375 Q978.125 264.375 983.75 268.125" stroke-width="2" stroke="black" fill="none" stroke-linecap="round" />
<line x1="983.75" y1="268.125" x2="998.75" y2="279.375" stroke-width="2" stroke="black" fill="black" stroke-linecap="round" />
/>

<!-- RENDERING - component: tail -->
<!-- RENDERING - part: cylinder -->
<rect x="1036.25" y="281.25" width="11.25" height="37.5" rx="1" ry="1" stroke-width="0.5" stroke="dimgray" fill="black"/>


<!-- RENDERING - component: cap -->
<!-- RENDERING - part: cylinder -->
<rect x="1047.5" y="284.375" width="11.25" height="31.25" rx="1" ry="1" stroke-width="0.5" stroke="dimgray" fill="black"/>

<!-- RENDERING - part: cone -->
<path d="M1058.75 284.375 L1072.5 285.625 L1072.5 314.375 L1058.75 315.625 Z" stroke-width="0.5" stroke="dimgray" fill="black" />

<!-- RENDERING - part: cylinder -->
<rect x="1072.5" y="285.625" width="36.25" height="28.75" rx="1" ry="1" stroke-width="0.5" stroke="dimgray" fill="black"/>

<text x="1480" y="30" font-size="1.6em" font-weight="bold" text-anchor="end" dominant-baseline="central">'body' colour variants</text>
<rect x="1440" y="55" width="40" rx="50%" ry="50%" height="40" stroke="black" stroke-width="2" fill="black" />
<text x="1460" y="100" transform="rotate(-90, 1460, 100)" font-size="1.2em" font-weight="bold" text-anchor="end" dominant-baseline="central">black</text>
<text x="30" y="106" font-size="1.2em" font-weight="bold" text-anchor="start" dominant-baseline="central">Materials:</text>
<text x="50" y="126" font-size="1.2em" text-anchor="start" dominant-baseline="central"> - metal</text>
<text x="50" y="146" font-size="1.2em" text-anchor="start" dominant-baseline="central"> - plastic</text>
<text x="50%" y="580" font-size="1.1em" font-weight="bold" text-anchor="middle" dominant-baseline="middle">Copyright (c) // The Mechanical Pencil Database (tmpdb) // Licensed under Creative Commons Attribution-NonCommercial-ShareAlike 4.0 International</text>
</svg>
