<svg xmlns="http://www.w3.org/2000/svg" width="1000" height="200">
 <pattern id="diagonalHatch" patternUnits="userSpaceOnUse" width="8" height="8">
<path stroke="dimgray" stroke-linecap="round" stroke-width="1" d="M 4,4 L 8,8"/>
<path stroke="dimgray" stroke-linecap="round" stroke-width="1" d="M 4,4 L 0,8"/>
<path stroke="gray" stroke-linecap="round" stroke-width="1" d="M 4,4 L 8,0" />
<path stroke="gray" stroke-linecap="round" stroke-width="1" d="M 4,4 L 0,0" />
</pattern>
<pattern id="spring" patternUnits="userSpaceOnUse" width="8" height="100">
<path stroke="dimgray" stroke-linecap="round" stroke-width="2" d="M 0,0 L 8,100"/>
<path stroke="white" stroke-linecap="round" stroke-width="1" d="M 0,0 L 8,100"/>
</pattern>
<g transform="rotate(0 0 0)">
<rect x="250" y="93.125" width="2.5" height="13.75" rx="0" ry="0" stroke-width="0.5" stroke="black" fill="silver" fill-opacity="1"/>
<path d="M252.5 86.25 L355 82.5 L355 117.5 L252.5 113.75 Z" stroke-width="0.5" stroke="black" stroke-linejoin="round" fill="silver" fill-opacity="1" />
<path d="M355 81.25 L482.5 78.75 L482.5 121.25 L355 118.75 Z" stroke-width="0.5" stroke="black" stroke-linejoin="round" fill="silver" fill-opacity="1" />
<path d="M355 81.25 L482.5 78.75 L482.5 121.25 L355 118.75 Z" stroke-width="1.0" stroke="black" fill="url(#diagonalHatch)"/>
<rect x="482.5" y="80" width="175" height="40" rx="0" ry="0" stroke-width="0.5" stroke="black" fill="maroon" fill-opacity="1"/>
<line x1="482.5" y1="100" x2="657.5" y2="100" stroke-width="1.5" stroke="black" fill="none" stroke-opacity="0.5"/>
<line x1="482.5" y1="100" x2="657.5" y2="100" stroke-width="0.5" stroke="gray" fill="none" stroke-opacity="0.5"/>
<path d="M552.5 71.625 Q530 84.125 517.5 72.875" stroke-width="4" stroke="black" fill="none" stroke-linecap="round" />
<path d="M517.5 72.875 Q510 69.125 517.5 67.875" stroke-width="4" stroke="black" fill="none" stroke-linecap="round" />
<line x1="517.5" y1="67.875" x2="652.5" y2="67.875" stroke-width="4" stroke="black" fill="dimgray" stroke-linecap="round" />
<line x1="652.5" y1="67.875" x2="657.5" y2="79.125" stroke-width="4" stroke="black" fill="dimgray" stroke-linecap="round" />
<rect x="657.5" y="76.875" width="33.75" height="46.25" rx="0" ry="0" stroke-width="0.5" stroke="black" fill="silver" fill-opacity="1"/>
<path d="M552.5 71.625 Q530 84.125 517.5 72.875" stroke-width="3" stroke="silver" fill="none" stroke-linecap="round" />
<path d="M517.5 72.875 Q510 69.125 517.5 67.875" stroke-width="3" stroke="silver" fill="none" stroke-linecap="round" />
<line x1="517.5" y1="67.875" x2="652.5" y2="67.875" stroke-width="3" stroke="silver" fill="silver" stroke-linecap="round" />
<line x1="652.5" y1="67.875" x2="657.5" y2="79.125" stroke-width="3" stroke="silver" fill="silver" stroke-linecap="round" />
<rect x="691.25" y="85" width="48.75" height="30" rx="0" ry="0" stroke-width="0.5" stroke="dimgray" fill="black" fill-opacity="1"/>
<rect x="740" y="81.25" width="10" height="37.5" rx="0" ry="0" stroke-width="0.5" stroke="dimgray" fill="black" fill-opacity="1"/>
</g><text x="50%" y="160" font-size="1.1em" font-weight="bold" text-anchor="middle" dominant-baseline="middle">Copyright (c) // The Mechanical Pencil Database (tmpdb)</text>
<text x="50%" y="180" font-size="1.1em" font-weight="bold" text-anchor="middle" dominant-baseline="middle">Licensed under Creative Commons Attribution-NonCommercial-ShareAlike 4.0 International</text>
<text x="990" y="190" font-size="0.5em" font-weight="bold" text-anchor="end" dominant-baseline="middle">SVGPencilRenderer</text>
</svg>