<svg xmlns="http://www.w3.org/2000/svg" width="1000" height="1000">
 <pattern id="diagonalHatch" patternUnits="userSpaceOnUse" width="8" height="8">
<path stroke="dimgray" stroke-linecap="round" stroke-width="1" d="M 4,4 L 8,8"/>
<path stroke="dimgray" stroke-linecap="round" stroke-width="1" d="M 4,4 L 0,8"/>
<path stroke="gray" stroke-linecap="round" stroke-width="1" d="M 4,4 L 8,0" />
<path stroke="gray" stroke-linecap="round" stroke-width="1" d="M 4,4 L 0,0" />
</pattern>
<pattern id="spring" patternUnits="userSpaceOnUse" width="8" height="100">
<path stroke="dimgray" stroke-linecap="round" stroke-width="2" d="M 0,0 L 8,100"/>
<path stroke="white" stroke-linecap="round" stroke-width="1" d="M 0,0 L 8,100"/>
</pattern>
<rect x="0" y="0" width="1000" height="1000" fill="white" stroke="black" stroke-width="4" />
<rect x="2" y="2" width="996" height="996" fill="white" stroke="dimgray" stroke-width="1" />
<g transform="rotate(-45 500 500)">
<rect x="124.375" y="493.125" width="2.5" height="13.75" rx="0" ry="0" stroke-width="0.5" stroke="black" fill="white" fill-opacity="1"/>
<path d="M126.875 486.25 L173.125 482.5 L173.125 517.5 L126.875 513.75 Z" stroke-width="0.5" stroke="black" stroke-linejoin="round" fill="white" fill-opacity="1" />
<path d="M173.125 481.25 L283.125 478.75 L283.125 521.25 L173.125 518.75 Z" stroke-width="0.5" stroke="black" stroke-linejoin="round" fill="white" fill-opacity="1" />
<path d="M173.125 481.25 L283.125 478.75 L283.125 521.25 L173.125 518.75 Z" stroke-width="1.0" stroke="black" fill="url(#diagonalHatch)"/>
<rect x="283.125" y="480.625" width="173.75" height="38.75" rx="0" ry="0" stroke-width="0.5" stroke="black" fill="white" fill-opacity="1"/>
<line x1="283.125" y1="500" x2="456.875" y2="500" stroke-width="1.5" stroke="black" fill="none" stroke-opacity="0.5"/>
<line x1="283.125" y1="500" x2="456.875" y2="500" stroke-width="0.5" stroke="gray" fill="none" stroke-opacity="0.5"/>
<rect x="456.875" y="480.625" width="293.75" height="38.75" rx="0" ry="0" stroke-width="0.5" stroke="black" fill="white" fill-opacity="1"/>
<line x1="614.375" y1="471.625" x2="598.125" y2="479.125" stroke-width="4" stroke="black" fill="dimgray" stroke-linecap="round" />
<line x1="598.125" y1="479.125" x2="583.125" y2="471.625" stroke-width="4" stroke="black" fill="dimgray" stroke-linecap="round" />
<path d="M583.125 471.625 Q575.625 469.125 583.125 466.625" stroke-width="4" stroke="black" fill="none" stroke-linecap="round" />
<line x1="583.125" y1="466.625" x2="743.125" y2="466.625" stroke-width="4" stroke="black" fill="dimgray" stroke-linecap="round" />
<line x1="743.125" y1="466.625" x2="750.625" y2="479.125" stroke-width="4" stroke="black" fill="dimgray" stroke-linecap="round" />
<rect x="750.625" y="478.125" width="30" height="43.75" rx="0" ry="0" stroke-width="0.5" stroke="black" fill="white" fill-opacity="1"/>
<line x1="614.375" y1="471.625" x2="598.125" y2="479.125" stroke-width="3" stroke="white" fill="white" stroke-linecap="round" />
<line x1="598.125" y1="479.125" x2="583.125" y2="471.625" stroke-width="3" stroke="white" fill="white" stroke-linecap="round" />
<path d="M583.125 471.625 Q575.625 469.125 583.125 466.625" stroke-width="3" stroke="white" fill="none" stroke-linecap="round" />
<line x1="583.125" y1="466.625" x2="743.125" y2="466.625" stroke-width="3" stroke="white" fill="white" stroke-linecap="round" />
<line x1="743.125" y1="466.625" x2="750.625" y2="479.125" stroke-width="3" stroke="white" fill="white" stroke-linecap="round" />
<rect x="780.625" y="480.625" width="35" height="38.75" rx="0" ry="0" stroke-width="0.5" stroke="black" fill="white" fill-opacity="1"/>
<rect x="815.625" y="485.625" width="60" height="28.75" rx="0" ry="0" stroke-width="0.5" stroke="black" fill="white" fill-opacity="1"/>
</g><text x="50%" y="960" font-size="1.1em" font-weight="bold" text-anchor="middle" dominant-baseline="middle">Copyright (c) // The Mechanical Pencil Database (tmpdb)</text>
<text x="50%" y="980" font-size="1.1em" font-weight="bold" text-anchor="middle" dominant-baseline="middle">Licensed under Creative Commons Attribution-NonCommercial-ShareAlike 4.0 International</text>
<text x="990" y="990" font-size="0.5em" font-weight="bold" text-anchor="end" dominant-baseline="middle">SVGPencil45Renderer</text>
</svg>