<svg xmlns="http://www.w3.org/2000/svg" width="1000" height="1000">
 <pattern id="knurled-large" patternUnits="userSpaceOnUse" width="12" height="12">
<path stroke="dimgray" stroke-linecap="round" stroke-width="1" d="M 6,6 L 12,12"/>
<path stroke="dimgray" stroke-linecap="round" stroke-width="1" d="M 6,6 L 0,12"/>
<path stroke="gray" stroke-linecap="round" stroke-width="1" d="M 6,6 L 12,0" />
<path stroke="gray" stroke-linecap="round" stroke-width="1" d="M 6,6 L 0,0" />
</pattern><pattern id="knurled-small" patternUnits="userSpaceOnUse" width="4" height="4">
<path stroke="dimgray" stroke-linecap="round" stroke-width="1" d="M 2,2 L 4,4"/>
<path stroke="dimgray" stroke-linecap="round" stroke-width="1" d="M 2,2 L 0,4"/>
<path stroke="gray" stroke-linecap="round" stroke-width="1" d="M 2,2 L 4,0" />
<path stroke="gray" stroke-linecap="round" stroke-width="1" d="M 2,2 L 0,0" />
</pattern><pattern id="knurled" patternUnits="userSpaceOnUse" width="8" height="8">
<path stroke="dimgray" stroke-linecap="round" stroke-width="1" d="M 4,4 L 8,8"/>
<path stroke="dimgray" stroke-linecap="round" stroke-width="1" d="M 4,4 L 0,8"/>
<path stroke="gray" stroke-linecap="round" stroke-width="1" d="M 4,4 L 8,0" />
<path stroke="gray" stroke-linecap="round" stroke-width="1" d="M 4,4 L 0,0" />
</pattern><pattern id="lined" patternUnits="userSpaceOnUse" width="3" height="3">
<path stroke="dimgray" stroke-linecap="round" stroke-width="1" d="M 0,0 L 3,0"/>
</pattern><pattern id="ridged" patternUnits="userSpaceOnUse" width="3" height="3">
<path stroke="dimgray" stroke-linecap="round" stroke-width="1" d="M 0,0 L 0,3"/>
</pattern><rect x="0" y="0" width="1000" height="1000" fill="white" stroke="black" stroke-width="4" />
<rect x="2" y="2" width="996" height="996" fill="white" stroke="dimgray" stroke-width="1" />
<g transform="rotate(-45 500 500)">


<!-- renderSideComponent: tip -->


<!-- renderPart: cylinder -->
<path d="M141.825 490.625 L154.425 490.625 L154.425 509.375 L141.825 509.375 Z" stroke-width="0" stroke="none" stroke-linejoin="round" fill="white" fill-opacity="1"/>
<path d="M141.875 490.625 L154.375 490.625 M154.375 509.375 L141.875 509.375" stroke-width="0.5" stroke="black" stroke-linejoin="round" fill="white" fill-opacity="1"/>
<!-- !right !both --><path d="M154.375 490.625 L154.375 509.375" stroke-width="0.5" stroke="black" stroke-linejoin="round" fill="white" fill-opacity="1"/>
<!-- !left !both --><path d="M141.875 490.625 L141.875 509.375" stroke-width="0.5" stroke="black" stroke-linejoin="round" fill="white" fill-opacity="1"/>


<!-- renderPart: cone -->
<path d="M154.325 490 L195.675 481.25 L195.675 518.75 L154.325 510 Z" stroke-width="0" stroke="none" stroke-linejoin="round" fill="white" fill-opacity="1"/>
<path d="M154.375 490 L195.625 481.25 M195.625 518.75 L154.375 510" stroke-width="0.5" stroke="black" stroke-linejoin="round" fill="white" fill-opacity="1"/>
<!-- !right !both --><path d="M195.625 481.25 L195.625 518.75" stroke-width="0.5" stroke="black" stroke-linejoin="round" fill="white" fill-opacity="1"/>
<!-- !left !both --><path d="M154.375 490 L154.375 510" stroke-width="0.5" stroke="black" stroke-linejoin="round" fill="white" fill-opacity="1"/>


<!-- renderPart: cylinder -->
<path d="M195.575 481.25 L210.675 481.25 L210.675 518.75 L195.575 518.75 Z" stroke-width="0" stroke="none" stroke-linejoin="round" fill="white" fill-opacity="1"/>
<path d="M195.625 481.25 L210.625 481.25 M210.625 518.75 L195.625 518.75" stroke-width="0.5" stroke="black" stroke-linejoin="round" fill="white" fill-opacity="1"/>
<!-- !right !both --><path d="M210.625 481.25 L210.625 518.75" stroke-width="0.5" stroke="black" stroke-linejoin="round" fill="white" fill-opacity="1"/>
<!-- !left !both --><path d="M195.625 481.25 L195.625 518.75" stroke-width="0.5" stroke="black" stroke-linejoin="round" fill="white" fill-opacity="1"/>


<!-- renderPart: cylinder -->
<path d="M210.575 479.375 L240.675 479.375 L240.675 520.625 L210.575 520.625 Z" stroke-width="0" stroke="none" stroke-linejoin="round" fill="white" fill-opacity="1"/>
<path d="M210.625 479.375 L240.625 479.375 M240.625 520.625 L210.625 520.625" stroke-width="0.5" stroke="black" stroke-linejoin="round" fill="white" fill-opacity="1"/>
<!-- !right !both --><path d="M240.625 479.375 L240.625 520.625" stroke-width="0.5" stroke="black" stroke-linejoin="round" fill="white" fill-opacity="1"/>
<!-- !left !both --><path d="M210.625 479.375 L210.625 520.625" stroke-width="0.5" stroke="black" stroke-linejoin="round" fill="white" fill-opacity="1"/>


<!-- renderSideComponent: body -->


<!-- renderPart: hexagonal -->
<path d="M240.575 480 L739.425 480 L739.425 520 L240.575 520 Z" stroke-width="0" stroke="none" stroke-linejoin="round" fill="white" fill-opacity="1"/>
<path d="M240.625 480 L739.375 480 M739.375 520 L240.625 520" stroke-width="0.5" stroke="black" stroke-linejoin="round" fill="white" fill-opacity="1"/>
<!-- !right !both --><path d="M739.375 480 L739.375 520" stroke-width="0.5" stroke="black" stroke-linejoin="round" fill="white" fill-opacity="1"/>
<!-- !left !both --><path d="M240.625 480 L240.625 520" stroke-width="0.5" stroke="black" stroke-linejoin="round" fill="white" fill-opacity="1"/>
<line x1="245.625" y1="500" x2="744.375" y2="500" stroke-width="1.5" stroke="gray" fill="gray" stroke-opacity="1.0"/>
<line x1="245.625" y1="500" x2="744.375" y2="500" stroke-width="0.5" stroke="black" fill="none" stroke-opacity="0.5"/>


<!-- renderSideComponent: clip -->
<line x1="560.625" y1="469.375" x2="575.625" y2="469.375" stroke-width="4" stroke="black" fill="dimgray" stroke-linecap="round" />
<line x1="575.625" y1="469.375" x2="595.625" y2="478.125" stroke-width="4" stroke="black" fill="dimgray" stroke-linecap="round" />
<line x1="595.625" y1="478.125" x2="615.625" y2="469.375" stroke-width="4" stroke="black" fill="dimgray" stroke-linecap="round" />
<line x1="615.625" y1="469.375" x2="755.625" y2="469.375" stroke-width="4" stroke="black" fill="dimgray" stroke-linecap="round" />
<path d="M755.625 469.375 Q775.625 474.375 755.625 479.375" stroke-width="4" stroke="black" fill="none" stroke-linecap="round" />


<!-- renderPart: cylinder -->
<path d="M739.325 476.875 L763.175 476.875 L763.175 523.125 L739.325 523.125 Z" stroke-width="0" stroke="none" stroke-linejoin="round" fill="white" fill-opacity="1"/>
<path d="M739.375 476.875 L763.125 476.875 M763.125 523.125 L739.375 523.125" stroke-width="0.5" stroke="black" stroke-linejoin="round" fill="white" fill-opacity="1"/>
<!-- !right !both --><path d="M763.125 476.875 L763.125 523.125" stroke-width="0.5" stroke="black" stroke-linejoin="round" fill="white" fill-opacity="1"/>
<!-- !left !both --><path d="M739.375 476.875 L739.375 523.125" stroke-width="0.5" stroke="black" stroke-linejoin="round" fill="white" fill-opacity="1"/>
<line x1="560.625" y1="469.375" x2="575.625" y2="469.375" stroke-width="3" stroke="white" fill="white" stroke-linecap="round" />
<line x1="575.625" y1="469.375" x2="595.625" y2="478.125" stroke-width="3" stroke="white" fill="white" stroke-linecap="round" />
<line x1="595.625" y1="478.125" x2="615.625" y2="469.375" stroke-width="3" stroke="white" fill="white" stroke-linecap="round" />
<line x1="615.625" y1="469.375" x2="755.625" y2="469.375" stroke-width="3" stroke="white" fill="white" stroke-linecap="round" />
<path d="M755.625 469.375 Q775.625 474.375 755.625 479.375" stroke-width="3" stroke="white" fill="none" stroke-linecap="round" />


<!-- renderSideComponent: tail -->


<!-- renderPart: cone -->
<path d="M763.075 480 L771.925 480.625 L771.925 519.375 L763.075 520 Z" stroke-width="0" stroke="none" stroke-linejoin="round" fill="white" fill-opacity="1"/>
<path d="M763.125 480 L771.875 480.625 M771.875 519.375 L763.125 520" stroke-width="0.5" stroke="black" stroke-linejoin="round" fill="white" fill-opacity="1"/>
<!-- !right !both --><path d="M771.875 480.625 L771.875 519.375" stroke-width="0.5" stroke="black" stroke-linejoin="round" fill="white" fill-opacity="1"/>
<!-- !left !both --><path d="M763.125 480 L763.125 520" stroke-width="0.5" stroke="black" stroke-linejoin="round" fill="white" fill-opacity="1"/>


<!-- renderPart: cylinder -->
<path d="M771.825 480.625 L780.675 480.625 L780.675 519.375 L771.825 519.375 Z" stroke-width="0" stroke="none" stroke-linejoin="round" fill="white" fill-opacity="1"/>
<path d="M771.875 480.625 L780.625 480.625 M780.625 519.375 L771.875 519.375" stroke-width="0.5" stroke="black" stroke-linejoin="round" fill="white" fill-opacity="1"/>
<!-- !right !both --><path d="M780.625 480.625 L780.625 519.375" stroke-width="0.5" stroke="black" stroke-linejoin="round" fill="white" fill-opacity="1"/>
<!-- !left !both --><path d="M771.875 480.625 L771.875 519.375" stroke-width="0.5" stroke="black" stroke-linejoin="round" fill="white" fill-opacity="1"/>


<!-- renderSideComponent: cap -->


<!-- renderPart: cylinder -->
<path d="M780.575 485 L801.925 485 L801.925 515 L780.575 515 Z" stroke-width="0" stroke="none" stroke-linejoin="round" fill="white" fill-opacity="1"/>
<path d="M780.625 485 L801.875 485 M801.875 515 L780.625 515" stroke-width="0.5" stroke="black" stroke-linejoin="round" fill="white" fill-opacity="1"/>
<!-- !right !both --><path d="M801.875 485 L801.875 515" stroke-width="0.5" stroke="black" stroke-linejoin="round" fill="white" fill-opacity="1"/>
<!-- !left !both --><path d="M780.625 485 L780.625 515" stroke-width="0.5" stroke="black" stroke-linejoin="round" fill="white" fill-opacity="1"/>


<!-- renderPart: octagonal -->
<path d="M801.825 480 L848.175 480 L848.175 520 L801.825 520 Z" stroke-width="0" stroke="none" stroke-linejoin="round" fill="white" fill-opacity="1"/>
<path d="M801.875 480 L848.125 480 M848.125 520 L801.875 520" stroke-width="0.5" stroke="black" stroke-linejoin="round" fill="white" fill-opacity="1"/>
<!-- !right !both --><path d="M848.125 480 L848.125 520" stroke-width="0.5" stroke="black" stroke-linejoin="round" fill="white" fill-opacity="1"/>
<!-- !left !both --><path d="M801.875 480 L801.875 520" stroke-width="0.5" stroke="black" stroke-linejoin="round" fill="white" fill-opacity="1"/>
<line x1="801.875" y1="488.57142857142856" x2="848.125" y2="488.57142857142856" stroke-width="1.5" stroke="gray" fill="gray" stroke-opacity="1.0"/>
<line x1="801.875" y1="488.57142857142856" x2="848.125" y2="488.57142857142856" stroke-width="0.5" stroke="black" fill="none" stroke-opacity="0.5"/>
<line x1="801.875" y1="511.42857142857144" x2="848.125" y2="511.42857142857144" stroke-width="1.5" stroke="gray" fill="gray" stroke-opacity="1.0"/>
<line x1="801.875" y1="511.42857142857144" x2="848.125" y2="511.42857142857144" stroke-width="0.5" stroke="black" fill="none" stroke-opacity="0.5"/>


<!-- renderPart: cylinder -->
<path d="M848.075 478.75 L854.425 478.75 L854.425 521.25 L848.075 521.25 Z" stroke-width="0" stroke="none" stroke-linejoin="round" fill="white" fill-opacity="1"/>
<path d="M848.125 478.75 L854.375 478.75 M854.375 521.25 L848.125 521.25" stroke-width="0.5" stroke="black" stroke-linejoin="round" fill="white" fill-opacity="1"/>
<!-- !right !both --><path d="M854.375 478.75 L854.375 521.25" stroke-width="0.5" stroke="black" stroke-linejoin="round" fill="white" fill-opacity="1"/>
<!-- !left !both --><path d="M848.125 478.75 L848.125 521.25" stroke-width="0.5" stroke="black" stroke-linejoin="round" fill="white" fill-opacity="1"/>


<!-- renderPart: convex -->
<path d="M854.375 478.75 Q861.875 500 854.375 521.25" stroke-width="0.5" stroke="black" stroke-linejoin="round" fill="white" fill-opacity="1"/>

<!-- TAPER START: hexagonal -->
<path d="M 240.525 480.25 L 245.625 480.25 C 239.375 485, 239.375 495, 245.625 500 C 239.375 505, 239.375 515, 245.625 519.75 L 240.525 519.75 Z" stroke-width="0" stroke="0" stroke-linecap="round" fill-opacity="1" fill="white" /><path d="M 245.625 480.5 C 239.375 485, 239.375 495, 245.625 500 C 239.375 505, 239.375 515, 245.625 519.45" stroke-width="1.5" stroke="gray" stroke-linecap="round" fill-opacity="0" fill="none" /><path d="M 245.625 480.5 C 239.375 485, 239.375 495, 245.625 500 C 239.375 505, 239.375 515, 245.625 519.5" stroke-width="0.5" stroke="black" stroke-opacity="0.5" stroke-linecap="round" fill-opacity="0" fill="none" /></g><text x="50%" y="960" font-size="1.1em" font-weight="bold" text-anchor="middle" dominant-baseline="middle">Copyright (c) // Synapticloop // The Mechanical Pencil Database (tmpdb)</text>
<text x="50%" y="980" font-size="1.1em" font-weight="bold" text-anchor="middle" dominant-baseline="middle">Licensed under Creative Commons Attribution-NonCommercial-ShareAlike 4.0 International</text>
<text x="990" y="990" font-size="0.5em" font-weight="bold" text-anchor="end" dominant-baseline="middle">SVGPencil45Renderer</text>
</svg>