<svg xmlns="http://www.w3.org/2000/svg" width="1400" height="800">
<pattern id="diagonalHatch" patternUnits="userSpaceOnUse" width="8" height="8">
<rect width="6" height="6" fill='none'/>
<path stroke="dimgray" stroke-linecap="round" stroke-width="1" d="M 4,4 L 8,8"/>
<path stroke="dimgray" stroke-linecap="round" stroke-width="1" d="M 4,4 L 0,8"/>
<path stroke="gray" stroke-linecap="round" stroke-width="1" d="M 4,4 L 8,0" />
<path stroke="gray" stroke-linecap="round" stroke-width="1" d="M 4,4 L 0,0" />
</pattern>
<rect x="0" y="0" width="1400" height="800" fill="white" stroke="black" stroke-width="4" />
<rect x="2" y="2" width="1396" height="796" fill="white" stroke="orange" stroke-width="1" />
<text x="30" y="50" font-size="2.0em" font-weight="bold"> Mitsubishi // uni (2.0mm)</text>
<text x="30" y="74" font-size="1.1em" font-weight="bold"> MITSUBISHI / uni /</text>
<line x1="40" y1="367.125" x2="1300" y2="367.125" stroke="#cfcfcf" stroke-width="1" />
<line x1="100" y1="378.375" x2="1300" y2="378.375" stroke="#cfcfcf" stroke-width="1" />
<line x1="1300" y1="376.875" x2="1300" y2="376.875" stroke="#cfcfcf" stroke-width="1" />
<line x1="40" y1="423.125" x2="1300" y2="423.125" stroke="#cfcfcf" stroke-width="1" />
<line x1="76.18430139592795" y1="443.125" x2="76.18430139592795" y2="400" stroke="#cfcfcf" stroke-width="1" />
<line x1="123.81569860407205" y1="443.125" x2="123.81569860407205" y2="400" stroke="#cfcfcf" stroke-width="1" />
<line x1="348.75" y1="288.875" x2="348.75" y2="543.125" stroke="#cfcfcf" stroke-width="1" />
<line x1="353.75" y1="288.875" x2="353.75" y2="543.125" stroke="#cfcfcf" stroke-width="1" />
<line x1="411.25" y1="288.875" x2="411.25" y2="543.125" stroke="#cfcfcf" stroke-width="1" />
<line x1="538.75" y1="288.875" x2="538.75" y2="543.125" stroke="#cfcfcf" stroke-width="1" />
<line x1="958.75" y1="288.875" x2="958.75" y2="543.125" stroke="#cfcfcf" stroke-width="1" />
<line x1="811.25" y1="332.875" x2="811.25" y2="520" stroke="#cfcfcf" stroke-width="1" />
<line x1="958.75" y1="332.875" x2="958.75" y2="520" stroke="#cfcfcf" stroke-width="1" />
<line x1="992.5" y1="288.875" x2="992.5" y2="543.125" stroke="#cfcfcf" stroke-width="1" />
<line x1="1051.25" y1="288.875" x2="1051.25" y2="523.125" stroke="#cfcfcf" stroke-width="1" />
<line x1="40" y1="367.125" x2="60" y2="367.125" stroke="black" stroke-width="1" />
<line x1="40" y1="423.125" x2="60" y2="423.125" stroke="black" stroke-width="1" />
<line x1="50" y1="367.125" x2="50" y2="423.125" stroke="black" stroke-width="1" />
<line x1="140" y1="367.125" x2="160" y2="367.125" stroke="black" stroke-width="1" />
<line x1="140" y1="378.375" x2="160" y2="378.375" stroke="black" stroke-width="1" />
<line x1="150" y1="367.125" x2="150" y2="378.375" stroke="black" stroke-width="1" />
<text x="164" y="372.75" font-size="1.2em" font-weight="bold" text-anchor="start" dominant-baseline="central">2.25 mm</text>
<text x="30" y="400" transform="rotate(-90, 30, 400)" font-size="1.2em" font-weight="bold" text-anchor="middle" dominant-baseline="central">11.50 mm</text>
<text x="100" y="740" font-size="1.8em" font-weight="bold" text-anchor="middle" dominant-baseline="central">Front</text>
<line x1="76.18430139592795" y1="453.125" x2="123.81569860407205" y2="453.125" stroke="black" stroke-width="1" />
<line x1="76.18430139592795" y1="443.125" x2="76.18430139592795" y2="463.125" stroke="black" stroke-width="1" />
<line x1="123.81569860407205" y1="443.125" x2="123.81569860407205" y2="463.125" stroke="black" stroke-width="1" />
<text x="100" y="473.125" font-size="1.2em" font-weight="bold" text-anchor="middle" dominant-baseline="central">9.53 mm</text>
<line x1="348.75" y1="299.875" x2="348.75" y2="277.875" stroke="black" stroke-width="1" />
<text x="351.25" y="274.875" transform="rotate(-90, 351.25, 274.875)" font-size="1.2em" font-weight="bold" dominant-baseline="middle">jaws (1.00 mm)</text>
<line x1="353.75" y1="299.875" x2="353.75" y2="277.875" stroke="black" stroke-width="1" />
<text x="382.5" y="274.875" transform="rotate(-90, 382.5, 274.875)" font-size="1.2em" font-weight="bold" dominant-baseline="middle">tip (11.50 mm)</text>
<line x1="411.25" y1="299.875" x2="411.25" y2="277.875" stroke="black" stroke-width="1" />
<text x="475" y="274.875" transform="rotate(-90, 475, 274.875)" font-size="1.2em" font-weight="bold" dominant-baseline="middle">grip (25.50 mm)</text>
<line x1="538.75" y1="299.875" x2="538.75" y2="277.875" stroke="black" stroke-width="1" />
<text x="748.75" y="274.875" transform="rotate(-90, 748.75, 274.875)" font-size="1.2em" font-weight="bold" dominant-baseline="middle">body (84.00 mm)</text>
<line x1="958.75" y1="299.875" x2="958.75" y2="277.875" stroke="black" stroke-width="1" />
<text x="975.625" y="274.875" transform="rotate(-90, 975.625, 274.875)" font-size="1.2em" font-weight="bold" dominant-baseline="middle">clip (6.75 mm)</text>
<line x1="811.25" y1="352.875" x2="811.25" y2="330.875" stroke="black" stroke-width="1" />
<line x1="811.25" y1="520" x2="811.25" y2="496" stroke="black" stroke-width="1" />
<line x1="958.75" y1="496" x2="958.75" y2="520" stroke="black" stroke-width="1" />
<line x1="958.75" y1="352.875" x2="958.75" y2="330.875" stroke="black" stroke-width="1" />
<line x1="811.25" y1="341.875" x2="958.75" y2="341.875" stroke="black" stroke-width="1" />
<line x1="811.25" y1="508.875" x2="958.75" y2="508.875" stroke="black" stroke-width="1" />
<text x="885" y="493.125" font-size="1.2em" font-weight="bold" text-anchor="middle" dominant-baseline="central">plastic</text>
<text x="885" y="330.875" font-size="1.2em" font-weight="bold" text-anchor="middle" dominant-baseline="central">clip (extra)</text>
<text x="885" y="350.875" font-size="1.2em" font-weight="bold" text-anchor="middle" dominant-baseline="central">(29.50 mm)</text>
<line x1="992.5" y1="299.875" x2="992.5" y2="277.875" stroke="black" stroke-width="1" />
<text x="1021.875" y="274.875" transform="rotate(-90, 1021.875, 274.875)" font-size="1.2em" font-weight="bold" dominant-baseline="middle">cap (11.75 mm)</text>
<line x1="1051.25" y1="299.875" x2="1051.25" y2="277.875" stroke="black" stroke-width="1" />
<line x1="348.75" y1="288.875" x2="1051.25" y2="288.875" stroke="black" stroke-width="1" />
<line x1="348.75" y1="453.125" x2="1051.25" y2="453.125" stroke="black" stroke-width="1" />
<line x1="348.75" y1="443.125" x2="348.75" y2="463.125" stroke="black" stroke-width="1" />
<line x1="1051.25" y1="443.125" x2="1051.25" y2="463.125" stroke="black" stroke-width="1" />
<text x="700" y="473.125" font-size="1.2em" font-weight="bold" text-anchor="middle" dominant-baseline="central">140.50 mm</text>
<text x="700" y="740" font-size="1.8em" font-weight="bold" text-anchor="middle" dominant-baseline="central">Side view</text>
<text x="1300" y="740" font-size="1.8em" font-weight="bold" text-anchor="middle" dominant-baseline="central">Back</text>
<line x1="348.75" y1="523.125" x2="348.75" y2="547.125" stroke="black" stroke-width="1" />
<text x="351.25" y="549.125" transform="rotate(-90, 351.25, 549.125)" font-size="1.2em" font-weight="bold" text-anchor="end" dominant-baseline="middle">metal</text>
<line x1="353.75" y1="523.125" x2="353.75" y2="547.125" stroke="black" stroke-width="1" />
<text x="382.5" y="549.125" transform="rotate(-90, 382.5, 549.125)" font-size="1.2em" font-weight="bold" text-anchor="end" dominant-baseline="middle">metal</text>
<line x1="411.25" y1="523.125" x2="411.25" y2="547.125" stroke="black" stroke-width="1" />
<text x="475" y="549.125" transform="rotate(-90, 475, 549.125)" font-size="1.2em" font-weight="bold" text-anchor="end" dominant-baseline="middle">plastic</text>
<line x1="538.75" y1="523.125" x2="538.75" y2="547.125" stroke="black" stroke-width="1" />
<text x="748.75" y="549.125" transform="rotate(-90, 748.75, 549.125)" font-size="1.2em" font-weight="bold" text-anchor="end" dominant-baseline="middle">plastic</text>
<line x1="958.75" y1="523.125" x2="958.75" y2="547.125" stroke="black" stroke-width="1" />
<text x="975.625" y="549.125" transform="rotate(-90, 975.625, 549.125)" font-size="1.2em" font-weight="bold" text-anchor="end" dominant-baseline="middle">plastic</text>
<line x1="992.5" y1="523.125" x2="992.5" y2="547.125" stroke="black" stroke-width="1" />
<text x="1021.875" y="549.125" transform="rotate(-90, 1021.875, 549.125)" font-size="1.2em" font-weight="bold" text-anchor="end" dominant-baseline="middle">plastic</text>
<line x1="1051.25" y1="523.125" x2="1051.25" y2="547.125" stroke="black" stroke-width="1" />
<line x1="348.75" y1="535.125" x2="1051.25" y2="535.125" stroke="black" stroke-width="1" />

<!-- RENDERING - component: jaws -->
<circle r="8.125" cx="1300" cy="400" stroke="dimgray" stroke-width="1" fill="white" />


<!-- RENDERING - component: tip -->
<circle r="18.75" cx="1300" cy="400" stroke="dimgray" stroke-width="1" fill="white" />
<circle r="13.125" cx="1300" cy="400" stroke="dimgray" stroke-width="1" fill="white" />


<!-- RENDERING - component: grip -->
<circle r="20" cx="1300" cy="400" stroke="dimgray" stroke-width="1" fill="white" />


<!-- RENDERING - component: body -->
<polygon points="1288.092150697964,379.375 1311.907849302036,379.375 1323.8156986040722,400 1311.907849302036,420.625 1288.092150697964,420.625 1276.1843013959278,400 " stroke="dimgray" stroke-width="1" fill="white"/>


<!-- RENDERING - component: clip -->
<circle r="23.125" cx="1300" cy="400" stroke="dimgray" stroke-width="1" fill="white" />

<!-- 4 0.25 --><rect x="1290" y="377.125" width="20" height="1.25" rx="1" ry="1" stroke-width="1.0" stroke="dimgray" fill="white"/>
<!-- 4 1 --><rect x="1290" y="373.375" width="20" height="5" rx="1" ry="1" stroke-width="1.0" stroke="dimgray" fill="white"/>
<!-- 4 0.6 --><rect x="1290" y="375.375" width="20" height="3" rx="1" ry="1" stroke-width="1.0" stroke="dimgray" fill="white"/>
<!-- 4 2.25 --><rect x="1290" y="367.125" width="20" height="11.25" rx="1" ry="1" stroke-width="1.0" stroke="dimgray" fill="white"/>


<!-- RENDERING - component: cap -->
<circle r="15" cx="1300" cy="400" stroke="dimgray" stroke-width="1" fill="white" />

<circle r="18.75" cx="1300" cy="400" stroke="dimgray" stroke-width="1" fill="white" />

<circle r="18.75" cx="100" cy="400" stroke="dimgray" stroke-width="1" fill="white" />

<circle r="15" cx="100" cy="400" stroke="dimgray" stroke-width="1" fill="white" />


<!-- RENDERING - component: cap -->
<!-- 4 2.25 --><rect x="90" y="367.125" width="20" height="11.25" rx="1" ry="1" stroke-width="1.0" stroke="dimgray" fill="white"/>
<!-- 4 0.6 --><rect x="90" y="375.375" width="20" height="3" rx="1" ry="1" stroke-width="1.0" stroke="dimgray" fill="white"/>
<!-- 4 1 --><rect x="90" y="373.375" width="20" height="5" rx="1" ry="1" stroke-width="1.0" stroke="dimgray" fill="white"/>
<!-- 4 0.25 --><rect x="90" y="377.125" width="20" height="1.25" rx="1" ry="1" stroke-width="1.0" stroke="dimgray" fill="white"/>

<circle r="23.125" cx="100" cy="400" stroke="dimgray" stroke-width="1" fill="white" />


<!-- RENDERING - component: clip -->
<polygon points="88.09215069796397,379.375 111.90784930203603,379.375 123.81569860407205,400 111.90784930203603,420.625 88.09215069796397,420.625 76.18430139592795,400 " stroke="dimgray" stroke-width="1" fill="white"/>


<!-- RENDERING - component: body -->
<circle r="20" cx="100" cy="400" stroke="dimgray" stroke-width="1" fill="white" />


<!-- RENDERING - component: grip -->
<circle r="13.125" cx="100" cy="400" stroke="dimgray" stroke-width="1" fill="white" />
<circle r="18.75" cx="100" cy="400" stroke="dimgray" stroke-width="1" fill="white" />


<!-- RENDERING - component: tip -->
<circle r="8.125" cx="100" cy="400" stroke="dimgray" stroke-width="1" fill="white" />


<!-- RENDERING - component: jaws -->

<!-- RENDERING - component: jaws -->
<!-- RENDERING - part: cylinder -->
<rect x="348.75" y="391.875" width="5" height="16.25" rx="1" ry="1" stroke-width="0.5" stroke="black" fill="white"/>


<!-- RENDERING - component: tip -->
<!-- RENDERING - part: cone -->
<path d="M353.75 386.875 L411.25 381.25 L411.25 418.75 L353.75 413.125 Z" stroke-width="0.5" stroke="black" fill="white" />


<!-- RENDERING - component: grip -->
<!-- RENDERING - part: cylinder -->
<rect x="411.25" y="380" width="127.5" height="40" rx="1" ry="1" stroke-width="0.5" stroke="black" fill="white"/>
<rect x="411.25" y="380" width="127.5" height="40" rx="1" ry="1" stroke-width="0.5" stroke="black" fill="url(#diagonalHatch)"/>


<!-- RENDERING - component: body -->
<!-- RENDERING - part: hexagonal -->
<rect x="538.75" y="379.375" width="420" height="41.25" rx="1" ry="1" stroke-width="0.5" stroke="black" fill="white"/>
<line x1="538.75" y1="400" x2="958.75" y2="400" stroke-width="1.5" stroke="black" fill="none" stroke-opacity="0.5"/>
<line x1="538.75" y1="400" x2="958.75" y2="400" stroke-width="0.5" stroke="gray" fill="none" stroke-opacity="0.5"/>


<!-- RENDERING - component: clip -->
<!-- RENDERING - part: cylinder -->
<rect x="958.75" y="376.875" width="33.75" height="46.25" rx="1" ry="1" stroke-width="0.5" stroke="black" fill="white"/>

<!-- RENDERING - part: extra -->
<path d="M853.75 370.875 Q831.25 383.375 818.75 372.125" stroke-width="4" stroke="black" fill="none" stroke-linecap="round" />
<path d="M818.75 372.125 Q811.25 368.375 818.75 367.125" stroke-width="4" stroke="black" fill="none" stroke-linecap="round" />
<line x1="818.75" y1="367.125" x2="953.75" y2="367.125" stroke-width="4.0" stroke="black" fill="dimgray" stroke-linecap="round" />
/><line x1="953.75" y1="367.125" x2="958.75" y2="378.375" stroke-width="4.0" stroke="black" fill="dimgray" stroke-linecap="round" />
/><path d="M853.75 370.875 Q831.25 383.375 818.75 372.125" stroke-width="3" stroke="white" fill="none" stroke-linecap="round" />
<path d="M818.75 372.125 Q811.25 368.375 818.75 367.125" stroke-width="3" stroke="white" fill="none" stroke-linecap="round" />
<line x1="818.75" y1="367.125" x2="953.75" y2="367.125" stroke-width="3" stroke="white" fill="white" stroke-linecap="round" />
/><line x1="953.75" y1="367.125" x2="958.75" y2="378.375" stroke-width="3" stroke="white" fill="white" stroke-linecap="round" />
/>

<!-- RENDERING - component: cap -->
<!-- RENDERING - part: cylinder -->
<rect x="992.5" y="385" width="48.75" height="30" rx="1" ry="1" stroke-width="0.5" stroke="dimgray" fill="white"/>

<!-- RENDERING - part: cylinder -->
<rect x="1041.25" y="381.25" width="10" height="37.5" rx="1" ry="1" stroke-width="0.5" stroke="dimgray" fill="white"/>

<rect x="1340" y="20" width="40" height="40" stroke="black" stroke-width="2" fill="maroon" />
<text x="1330" y="40" font-size="1.6em" font-weight="bold" text-anchor="end" dominant-baseline="central">Variants by body colour:</text>
<text x="1380" y="80" font-size="1.2em" font-weight="bold" text-anchor="end" dominant-baseline="central">Materials: metal</text>
<text x="1380" y="100" font-size="1.2em" font-weight="bold" text-anchor="end" dominant-baseline="central">plastic</text>
<text x="50%" y="780" font-size="1.1em" font-weight="bold" text-anchor="middle" dominant-baseline="middle">Copyright (c) // The Mechanical Pencil Database (tmpdb) // Licensed under Creative Commons Attribution-NonCommercial-ShareAlike 4.0 International</text>
</svg>
