<svg xmlns="http://www.w3.org/2000/svg" width="1500" height="600">
<pattern id="diagonalHatch" patternUnits="userSpaceOnUse" width="8" height="8">
<rect width="6" height="6" fill='none'/>
<path stroke="dimgray" stroke-linecap="round" stroke-width="1" d="M 4,4 L 8,8"/>
<path stroke="dimgray" stroke-linecap="round" stroke-width="1" d="M 4,4 L 0,8"/>
<path stroke="gray" stroke-linecap="round" stroke-width="1" d="M 4,4 L 8,0" />
<path stroke="gray" stroke-linecap="round" stroke-width="1" d="M 4,4 L 0,0" />
</pattern>
<rect x="0" y="0" width="1500" height="600" fill="white" stroke="black" stroke-width="4" />
<rect x="2" y="2" width="1496" height="596" fill="white" stroke="orange" stroke-width="1" />
<text x="30" y="50" font-size="2.0em" font-weight="bold"> STUDMARK // 3750 </text>
<text x="30" y="80" font-size="1.1em"> STUDMARK(R) 3750 2.0mm</text>
<line x1="100" y1="276.25" x2="1400" y2="276.25" stroke="#cfcfcf" stroke-width="1" />
<line x1="100" y1="323.75" x2="1400" y2="323.75" stroke="#cfcfcf" stroke-width="1" />
<line x1="136.18430139592795" y1="343.75" x2="136.18430139592795" y2="300" stroke="#cfcfcf" stroke-width="1" />
<line x1="183.81569860407205" y1="343.75" x2="183.81569860407205" y2="300" stroke="#cfcfcf" stroke-width="1" />
<line x1="385.625" y1="188.25" x2="385.625" y2="443.75" stroke="#cfcfcf" stroke-width="1" />
<line x1="480.625" y1="188.25" x2="480.625" y2="443.75" stroke="#cfcfcf" stroke-width="1" />
<line x1="609.375" y1="188.25" x2="609.375" y2="443.75" stroke="#cfcfcf" stroke-width="1" />
<line x1="939.375" y1="188.25" x2="939.375" y2="443.75" stroke="#cfcfcf" stroke-width="1" />
<line x1="969.375" y1="188.25" x2="969.375" y2="443.75" stroke="#cfcfcf" stroke-width="1" />
<line x1="991.875" y1="188.25" x2="991.875" y2="443.75" stroke="#cfcfcf" stroke-width="1" />
<line x1="995.625" y1="188.25" x2="995.625" y2="443.75" stroke="#cfcfcf" stroke-width="1" />
<line x1="1043.125" y1="188.25" x2="1043.125" y2="443.75" stroke="#cfcfcf" stroke-width="1" />
<line x1="1055.625" y1="188.25" x2="1055.625" y2="443.75" stroke="#cfcfcf" stroke-width="1" />
<line x1="1114.375" y1="188.25" x2="1114.375" y2="423.75" stroke="#cfcfcf" stroke-width="1" />
<line x1="100" y1="276.25" x2="120" y2="276.25" stroke="black" stroke-width="1" />
<line x1="100" y1="323.75" x2="120" y2="323.75" stroke="black" stroke-width="1" />
<line x1="110" y1="323.75" x2="110" y2="276.25" stroke="black" stroke-width="1" />
<text x="90" y="300" transform="rotate(-90, 90, 300)" font-size="1.2em" font-weight="bold" text-anchor="middle" dominant-baseline="central">9.50 mm</text>
<text x="160" y="540" font-size="1.8em" font-weight="bold" text-anchor="middle" dominant-baseline="central">Front</text>
<line x1="136.18430139592795" y1="353.75" x2="183.81569860407205" y2="353.75" stroke="black" stroke-width="1" />
<line x1="136.18430139592795" y1="343.75" x2="136.18430139592795" y2="363.75" stroke="black" stroke-width="1" />
<line x1="183.81569860407205" y1="343.75" x2="183.81569860407205" y2="363.75" stroke="black" stroke-width="1" />
<text x="160" y="373.75" font-size="1.2em" font-weight="bold" text-anchor="middle" dominant-baseline="central">9.53 mm</text>
<line x1="385.625" y1="177.25" x2="385.625" y2="199.25" stroke="black" stroke-width="1" /><text x="430.125" y="174.25" transform="rotate(-90, 430.125, 174.25)" font-size="1.2em" font-weight="bold" dominant-baseline="auto">19.00 mm</text>
<text x="436.125" y="174.25" transform="rotate(-90, 436.125, 174.25)" font-size="1.2em" font-weight="bold" dominant-baseline="hanging">tip</text>
<line x1="480.625" y1="177.25" x2="480.625" y2="199.25" stroke="black" stroke-width="1" /><text x="542" y="174.25" transform="rotate(-90, 542, 174.25)" font-size="1.2em" font-weight="bold" dominant-baseline="auto">25.75 mm</text>
<text x="548" y="174.25" transform="rotate(-90, 548, 174.25)" font-size="1.2em" font-weight="bold" dominant-baseline="hanging">grip</text>
<line x1="609.375" y1="177.25" x2="609.375" y2="199.25" stroke="black" stroke-width="1" /><text x="771.375" y="174.25" transform="rotate(-90, 771.375, 174.25)" font-size="1.2em" font-weight="bold" dominant-baseline="auto">66.00 mm</text>
<text x="777.375" y="174.25" transform="rotate(-90, 777.375, 174.25)" font-size="1.2em" font-weight="bold" dominant-baseline="hanging">body</text>
<line x1="939.375" y1="177.25" x2="939.375" y2="199.25" stroke="black" stroke-width="1" /><text x="954.375" y="174.25" transform="rotate(-90, 954.375, 174.25)" font-size="1.2em" font-weight="bold" dominant-baseline="middle">6.00 mm clip</text>
<line x1="969.375" y1="177.25" x2="969.375" y2="199.25" stroke="black" stroke-width="1" /><text x="980.625" y="174.25" transform="rotate(-90, 980.625, 174.25)" font-size="1.2em" font-weight="bold" dominant-baseline="middle">4.50 mm tail</text>
<line x1="991.875" y1="177.25" x2="991.875" y2="199.25" stroke="black" stroke-width="1" /><text x="993.75" y="174.25" transform="rotate(-90, 993.75, 174.25)" font-size="1.2em" font-weight="bold" dominant-baseline="middle">0.75 mm ring</text>
<line x1="995.625" y1="177.25" x2="995.625" y2="199.25" stroke="black" stroke-width="1" /><text x="1016.375" y="174.25" transform="rotate(-90, 1016.375, 174.25)" font-size="1.2em" font-weight="bold" dominant-baseline="auto">9.50 mm</text>
<text x="1022.375" y="174.25" transform="rotate(-90, 1022.375, 174.25)" font-size="1.2em" font-weight="bold" dominant-baseline="hanging">indicator</text>
<line x1="1043.125" y1="177.25" x2="1043.125" y2="199.25" stroke="black" stroke-width="1" /><text x="1049.375" y="174.25" transform="rotate(-90, 1049.375, 174.25)" font-size="1.2em" font-weight="bold" dominant-baseline="middle">2.50 mm foot</text>
<line x1="1055.625" y1="177.25" x2="1055.625" y2="199.25" stroke="black" stroke-width="1" /><text x="1082" y="174.25" transform="rotate(-90, 1082, 174.25)" font-size="1.2em" font-weight="bold" dominant-baseline="auto">11.75 mm</text>
<text x="1088" y="174.25" transform="rotate(-90, 1088, 174.25)" font-size="1.2em" font-weight="bold" dominant-baseline="hanging">cap</text>
<line x1="1114.375" y1="199.25" x2="1114.375" y2="177.25" stroke="black" stroke-width="1" />
<line x1="385.625" y1="188.25" x2="1114.375" y2="188.25" stroke="black" stroke-width="1" />
<line x1="385.625" y1="353.75" x2="1114.375" y2="353.75" stroke="black" stroke-width="1" />
<line x1="385.625" y1="343.75" x2="385.625" y2="363.75" stroke="black" stroke-width="1" />
<line x1="1114.375" y1="343.75" x2="1114.375" y2="363.75" stroke="black" stroke-width="1" />
<text x="750" y="373.75" font-size="1.2em" font-weight="bold" text-anchor="middle" dominant-baseline="central">145.75 mm</text>
<text x="750" y="540" font-size="1.8em" font-weight="bold" text-anchor="middle" dominant-baseline="central">Side view</text>
<text x="1400" y="540" font-size="1.8em" font-weight="bold" text-anchor="middle" dominant-baseline="central">Back</text>
<line x1="385.625" y1="423.75" x2="385.625" y2="447.75" stroke="black" stroke-width="1" />
<text x="433.125" y="449.75" transform="rotate(-90, 433.125, 449.75)" font-size="1.2em" text-anchor="end" dominant-baseline="middle">metal</text>
<line x1="480.625" y1="423.75" x2="480.625" y2="447.75" stroke="black" stroke-width="1" />
<text x="545" y="449.75" transform="rotate(-90, 545, 449.75)" font-size="1.2em" text-anchor="end" dominant-baseline="middle">metal</text>
<line x1="609.375" y1="423.75" x2="609.375" y2="447.75" stroke="black" stroke-width="1" />
<text x="774.375" y="449.75" transform="rotate(-90, 774.375, 449.75)" font-size="1.2em" text-anchor="end" dominant-baseline="middle">plastic</text>
<line x1="939.375" y1="423.75" x2="939.375" y2="447.75" stroke="black" stroke-width="1" />
<text x="954.375" y="449.75" transform="rotate(-90, 954.375, 449.75)" font-size="1.2em" text-anchor="end" dominant-baseline="middle">plastic</text>
<line x1="969.375" y1="423.75" x2="969.375" y2="447.75" stroke="black" stroke-width="1" />
<text x="980.625" y="449.75" transform="rotate(-90, 980.625, 449.75)" font-size="1.2em" text-anchor="end" dominant-baseline="middle">plastic</text>
<line x1="991.875" y1="423.75" x2="991.875" y2="447.75" stroke="black" stroke-width="1" />
<text x="993.75" y="449.75" transform="rotate(-90, 993.75, 449.75)" font-size="1.2em" text-anchor="end" dominant-baseline="middle">rubber</text>
<line x1="995.625" y1="423.75" x2="995.625" y2="447.75" stroke="black" stroke-width="1" />
<text x="1019.375" y="449.75" transform="rotate(-90, 1019.375, 449.75)" font-size="1.2em" text-anchor="end" dominant-baseline="middle">plastic</text>
<line x1="1043.125" y1="423.75" x2="1043.125" y2="447.75" stroke="black" stroke-width="1" />
<text x="1049.375" y="449.75" transform="rotate(-90, 1049.375, 449.75)" font-size="1.2em" text-anchor="end" dominant-baseline="middle">plastic</text>
<line x1="1055.625" y1="423.75" x2="1055.625" y2="447.75" stroke="black" stroke-width="1" />
<text x="1085" y="449.75" transform="rotate(-90, 1085, 449.75)" font-size="1.2em" text-anchor="end" dominant-baseline="middle">plastic</text>
<line x1="1114.375" y1="423.75" x2="1114.375" y2="447.75" stroke="black" stroke-width="1" />
<line x1="385.625" y1="435.75" x2="1114.375" y2="435.75" stroke="black" stroke-width="1" />

<!-- RENDERING - component: tip -->
<circle r="20" cx="1400" cy="300" stroke="dimgray" stroke-width="1" fill="silver" />
<circle r="8.125" cx="1400" cy="300" stroke="dimgray" stroke-width="1" fill="silver" />

<circle r="20.625" cx="1400" cy="300" stroke="dimgray" stroke-width="1" fill="silver" />


<!-- RENDERING - component: grip -->
<circle r="20.625" cx="1400" cy="300" stroke="dimgray" stroke-width="1" fill="silver" />


<!-- RENDERING - component: body -->
<polygon points="1388.092150697964,279.375 1411.907849302036,279.375 1423.8156986040722,300 1411.907849302036,320.625 1388.092150697964,320.625 1376.1843013959278,300 " stroke="dimgray" stroke-width="1" fill="royalblue"/>


<!-- RENDERING - component: clip -->
<circle r="23.75" cx="1400" cy="300" stroke="dimgray" stroke-width="1" fill="silver" />


<!-- RENDERING - component: tail -->
<circle r="20.625" cx="1400" cy="300" stroke="dimgray" stroke-width="1" fill="royalblue" />


<!-- RENDERING - component: ring -->
<circle r="20.625" cx="1400" cy="300" stroke="dimgray" stroke-width="1" fill="red" />


<!-- RENDERING - component: indicator -->
<circle r="20.625" cx="1400" cy="300" stroke="dimgray" stroke-width="1" fill="silver" />


<!-- RENDERING - component: foot -->
<circle r="20.625" cx="1400" cy="300" stroke="dimgray" stroke-width="1" fill="silver" />


<!-- RENDERING - component: cap -->
<circle r="13.75" cx="1400" cy="300" stroke="dimgray" stroke-width="1" fill="silver" />



<circle r="13.75" cx="160" cy="300" stroke="dimgray" stroke-width="1" fill="silver" />


<!-- RENDERING - component: cap -->
<circle r="20.625" cx="160" cy="300" stroke="dimgray" stroke-width="1" fill="silver" />


<!-- RENDERING - component: foot -->
<circle r="20.625" cx="160" cy="300" stroke="dimgray" stroke-width="1" fill="silver" />


<!-- RENDERING - component: indicator -->
<circle r="20.625" cx="160" cy="300" stroke="dimgray" stroke-width="1" fill="red" />


<!-- RENDERING - component: ring -->
<circle r="20.625" cx="160" cy="300" stroke="dimgray" stroke-width="1" fill="royalblue" />


<!-- RENDERING - component: tail -->
<circle r="23.75" cx="160" cy="300" stroke="dimgray" stroke-width="1" fill="silver" />


<!-- RENDERING - component: clip -->
<polygon points="148.09215069796397,279.375 171.90784930203603,279.375 183.81569860407205,300 171.90784930203603,320.625 148.09215069796397,320.625 136.18430139592795,300 " stroke="dimgray" stroke-width="1" fill="royalblue"/>


<!-- RENDERING - component: body -->
<circle r="20.625" cx="160" cy="300" stroke="dimgray" stroke-width="1" fill="silver" />


<!-- RENDERING - component: grip -->
<circle r="20.625" cx="160" cy="300" stroke="dimgray" stroke-width="1" fill="silver" />

<circle r="8.125" cx="160" cy="300" stroke="dimgray" stroke-width="1" fill="silver" />
<circle r="20" cx="160" cy="300" stroke="dimgray" stroke-width="1" fill="silver" />


<!-- RENDERING - component: tip -->

<!-- RENDERING - component: tip -->
<!-- RENDERING - part: cone -->
<path d="M385.625 291.875 L459.375 280 L459.375 320 L385.625 308.125 Z" stroke-width="0.5" stroke="black" fill="silver" />

<!-- RENDERING - part: cylinder -->
<rect x="459.375" y="279.375" width="21.25" height="41.25" rx="1" ry="1" stroke-width="0.5" stroke="black" fill="silver"/>


<!-- RENDERING - component: grip -->
<!-- RENDERING - part: cylinder -->
<rect x="480.625" y="279.375" width="128.75" height="41.25" rx="1" ry="1" stroke-width="0.5" stroke="black" fill="silver"/>
<rect x="480.625" y="279.375" width="128.75" height="41.25" rx="1" ry="1" stroke-width="0.5" stroke="black" fill="url(#diagonalHatch)"/>


<!-- RENDERING - component: body -->
<!-- RENDERING - part: hexagonal -->
<rect x="609.375" y="279.375" width="330" height="41.25" rx="1" ry="1" stroke-width="0.5" stroke="black" fill="royalblue"/>
<line x1="609.375" y1="300" x2="939.375" y2="300" stroke-width="1.5" stroke="black" fill="none" stroke-opacity="0.5"/>
<line x1="609.375" y1="300" x2="939.375" y2="300" stroke-width="0.5" stroke="gray" fill="none" stroke-opacity="0.5"/>


<!-- RENDERING - component: clip -->
<!-- RENDERING - part: cylinder -->
<rect x="939.375" y="276.25" width="30" height="47.5" rx="1" ry="1" stroke-width="0.5" stroke="black" fill="silver"/>


<!-- RENDERING - component: tail -->
<!-- RENDERING - part: cylinder -->
<rect x="969.375" y="279.375" width="22.5" height="41.25" rx="1" ry="1" stroke-width="0.5" stroke="black" fill="royalblue"/>


<!-- RENDERING - component: ring -->
<!-- RENDERING - part: cylinder -->
<rect x="991.875" y="279.375" width="3.75" height="41.25" rx="1" ry="1" stroke-width="0.5" stroke="black" fill="red"/>


<!-- RENDERING - component: indicator -->
<!-- RENDERING - part: cylinder -->
<rect x="995.625" y="279.375" width="47.5" height="41.25" rx="1" ry="1" stroke-width="0.5" stroke="black" fill="silver"/>
<rect x="995.625" y="279.375" width="47.5" height="41.25" rx="1" ry="1" stroke-width="0.5" stroke="black" fill="url(#diagonalHatch)"/>
<rect x="1005.625" y="289.6875" width="27.5" height="20.625" rx="1" ry="1" stroke-width="2" stroke="black" fill="silver"/>
<text x="1019.375" y="300" text-anchor="middle" dominant-baseline="central"><tspan stroke="dimgray" stroke-width="0.5" fill="black" textLength="{this.width * 5 - 24}" > HB</tspan></text>

<!-- RENDERING - component: foot -->
<!-- RENDERING - part: cylinder -->
<rect x="1043.125" y="279.375" width="12.5" height="41.25" rx="1" ry="1" stroke-width="0.5" stroke="black" fill="silver"/>


<!-- RENDERING - component: cap -->
<!-- RENDERING - part: cylinder -->
<rect x="1055.625" y="286.25" width="52.5" height="27.5" rx="1" ry="1" stroke-width="0.5" stroke="black" fill="silver"/>

<!-- RENDERING - part: convex -->
<path d="M1108.125 286.25 Q1119.375 300 1108.125 313.75" stroke-width="0.5" stroke="black" fill="silver"/>

<text x="1480" y="30" font-size="1.6em" font-weight="bold" text-anchor="end" dominant-baseline="central">'body' colour variants</text>
<rect x="1440" y="55" width="40" rx="50%" ry="50%" height="40" stroke="black" stroke-width="2" fill="royalblue" />
<text x="1460" y="100" transform="rotate(-90, 1460, 100)" font-size="1.2em" font-weight="bold" text-anchor="end" dominant-baseline="central">royalblue</text>
<text x="30" y="106" font-size="1.2em" font-weight="bold" text-anchor="start" dominant-baseline="central">Materials:</text>
<text x="50" y="126" font-size="1.2em" text-anchor="start" dominant-baseline="central"> - metal</text>
<text x="50" y="146" font-size="1.2em" text-anchor="start" dominant-baseline="central"> - plastic</text>
<text x="50" y="166" font-size="1.2em" text-anchor="start" dominant-baseline="central"> - rubber</text>
<text x="50%" y="580" font-size="1.1em" font-weight="bold" text-anchor="middle" dominant-baseline="middle">Copyright (c) // The Mechanical Pencil Database (tmpdb) // Licensed under Creative Commons Attribution-NonCommercial-ShareAlike 4.0 International</text>
</svg>
