<svg xmlns="http://www.w3.org/2000/svg" width="1400" height="320">
 <pattern id="knurled-large" patternUnits="userSpaceOnUse" width="12" height="12">
<path stroke="dimgray" stroke-linecap="round" stroke-width="1" d="M 6,6 L 12,12"/>
<path stroke="dimgray" stroke-linecap="round" stroke-width="1" d="M 6,6 L 0,12"/>
<path stroke="gray" stroke-linecap="round" stroke-width="1" d="M 6,6 L 12,0" />
<path stroke="gray" stroke-linecap="round" stroke-width="1" d="M 6,6 L 0,0" />
</pattern><pattern id="knurled-small" patternUnits="userSpaceOnUse" width="4" height="4">
<path stroke="dimgray" stroke-linecap="round" stroke-width="1" d="M 2,2 L 4,4"/>
<path stroke="dimgray" stroke-linecap="round" stroke-width="1" d="M 2,2 L 0,4"/>
<path stroke="gray" stroke-linecap="round" stroke-width="1" d="M 2,2 L 4,0" />
<path stroke="gray" stroke-linecap="round" stroke-width="1" d="M 2,2 L 0,0" />
</pattern><pattern id="knurled" patternUnits="userSpaceOnUse" width="8" height="8">
<path stroke="dimgray" stroke-linecap="round" stroke-width="1" d="M 4,4 L 8,8"/>
<path stroke="dimgray" stroke-linecap="round" stroke-width="1" d="M 4,4 L 0,8"/>
<path stroke="gray" stroke-linecap="round" stroke-width="1" d="M 4,4 L 8,0" />
<path stroke="gray" stroke-linecap="round" stroke-width="1" d="M 4,4 L 0,0" />
</pattern><pattern id="lined" patternUnits="userSpaceOnUse" width="3" height="3">
<path stroke="dimgray" stroke-linecap="round" stroke-width="1" d="M 0,0 L 3,0"/>
</pattern><pattern id="ridged" patternUnits="userSpaceOnUse" width="3" height="3">
<path stroke="dimgray" stroke-linecap="round" stroke-width="1" d="M 0,0 L 0,3"/>
</pattern><pattern id="spring" patternUnits="userSpaceOnUse" width="8" height="60">
<path stroke="dimgray" stroke-linecap="round" stroke-width="2" d="M 1,1 L 8,60"/>
<path stroke="white" stroke-linecap="round" stroke-width="1" d="M 1,1 L 8,60"/>
</pattern><rect x="0" y="0" width="1400" height="320" fill="white" stroke="black" stroke-width="4" />
<rect x="2" y="2" width="1396" height="316" fill="white" stroke="dimgray" stroke-width="1" />
<g transform="rotate(0 0 0)">
<text x="700" y="60" font-size="2.4em" font-weight="bold" text-anchor="middle" dominant-baseline="central">ito-ya Pencils</text>
<line x1="40" y1="160" x2="1360" y2="160" stroke-linecap="round" stroke="#5f5f5f" stroke-dasharray="2" stroke-width="1" />
<line x1="20" y1="160" x2="60" y2="160" stroke-linecap="round" stroke="#000000"  stroke-width="1" />
<line x1="40" y1="140" x2="40" y2="180" stroke="#000000" stroke-linecap="round"  stroke-width="1" />
<circle r="10" cx="40" cy="160" fill="white" fill-opacity="0" stroke="#000000" stroke-width="1"  />
<line x1="1340" y1="160" x2="1380" y2="160" stroke-linecap="round" stroke="#000000"  stroke-width="1" />
<line x1="1360" y1="140" x2="1360" y2="180" stroke="#000000" stroke-linecap="round"  stroke-width="1" />
<circle r="10" cx="1360" cy="160" fill="white" fill-opacity="0" stroke="#000000" stroke-width="1"  />


<!-- renderSideComponent: tip -->


<!-- renderPart: cylinder -->
<path d="M358.075 152.5 L371.925 152.5 L371.925 167.5 L358.075 167.5 L358.075 152.5" stroke-width="0" stroke="none" stroke-linejoin="round" fill="white" fill-opacity="1"/>
<path d="M358.075 152.5 L371.925 152.5 M371.925 167.5 L358.075 167.5" stroke-width="0.5" stroke="black" stroke-linejoin="round" fill="white" fill-opacity="1"/>
<!-- !right !both --><path d="M371.925 152.5 L371.925 167.5" stroke-width="0.5" stroke="black" stroke-linejoin="round" fill="white" fill-opacity="1"/>
<!-- !left !both --><path d="M358.075 152.5 L358.075 167.5" stroke-width="0.5" stroke="black" stroke-linejoin="round" fill="white" fill-opacity="1"/>


<!-- renderPart: cylinder -->
<path d="M371.825 150 L454.425 135.625 L454.425 184.375 L371.825 170 L371.825 150" stroke-width="0" stroke="none" stroke-linejoin="round" fill="white" fill-opacity="1"/>
<path d="M371.825 150 L454.425 135.625 M454.425 184.375 L371.825 170" stroke-width="0.5" stroke="black" stroke-linejoin="round" fill="white" fill-opacity="1"/>
<!-- !right !both --><path d="M454.425 135.625 L454.425 184.375" stroke-width="0.5" stroke="black" stroke-linejoin="round" fill="white" fill-opacity="1"/>
<!-- !left !both --><path d="M371.825 150 L371.825 170" stroke-width="0.5" stroke="black" stroke-linejoin="round" fill="white" fill-opacity="1"/>


<!-- renderSideComponent: body -->


<!-- renderPart: cylinder -->
<path d="M454.325 135 L965.675 135 L965.675 185 L454.325 185 L454.325 135" stroke-width="0" stroke="none" stroke-linejoin="round" fill="white" fill-opacity="1"/>
<path d="M454.325 135 L965.675 135 M965.675 185 L454.325 185" stroke-width="0.5" stroke="black" stroke-linejoin="round" fill="white" fill-opacity="1"/>
<!-- !right !both --><path d="M965.675 135 L965.675 185" stroke-width="0.5" stroke="black" stroke-linejoin="round" fill="white" fill-opacity="1"/>
<!-- !left !both --><path d="M454.325 135 L454.325 185" stroke-width="0.5" stroke="black" stroke-linejoin="round" fill="white" fill-opacity="1"/>


<!-- renderSideComponent: clip -->
<path d="M809.375 122.5 Q824.375 143.5 840.625 122.5 Z" stroke-width="4" stroke="black" fill="dimgray" stroke-linecap="round" />
<line x1="808.125" y1="121.25" x2="946.875" y2="121.25" stroke-width="4" stroke="black" fill="dimgray" stroke-linecap="round" />
<line x1="946.875" y1="121.25" x2="965.625" y2="133.5" stroke-width="4" stroke="black" fill="dimgray" stroke-linecap="round" />


<!-- renderPart: cylinder -->
<path d="M965.575 132.5 L1001.925 132.5 L1001.925 187.5 L965.575 187.5 L965.575 132.5" stroke-width="0" stroke="none" stroke-linejoin="round" fill="white" fill-opacity="1"/>
<path d="M965.575 132.5 L1001.925 132.5 M1001.925 187.5 L965.575 187.5" stroke-width="0.5" stroke="black" stroke-linejoin="round" fill="white" fill-opacity="1"/>
<!-- !right !both --><path d="M1001.925 132.5 L1001.925 187.5" stroke-width="0.5" stroke="black" stroke-linejoin="round" fill="white" fill-opacity="1"/>
<!-- !left !both --><path d="M965.575 132.5 L965.575 187.5" stroke-width="0.5" stroke="black" stroke-linejoin="round" fill="white" fill-opacity="1"/>
<path d="M809.375 122.5 Q824.375 142.5 840.625 122.5 Z" stroke-width="3" stroke="white" fill="white" stroke-linecap="round" />
<rect x="809.375" y="122.5" width="32.5" height="-10" stroke-width="3" stroke="white" fill="white" stroke-linecap="round" />
<line x1="808.125" y1="121.25" x2="946.875" y2="121.25" stroke-width="3" stroke="white" fill="white" stroke-linecap="round" />
<line x1="946.875" y1="121.25" x2="965.625" y2="133.5" stroke-width="3" stroke="white" fill="white" stroke-linecap="round" />


<!-- renderSideComponent: tail -->


<!-- renderPart: cylinder -->
<path d="M1001.825 135 L1016.925 135 L1016.925 185 L1001.825 185 L1001.825 135" stroke-width="0" stroke="none" stroke-linejoin="round" fill="white" fill-opacity="1"/>
<path d="M1001.825 135 L1016.925 135 M1016.925 185 L1001.825 185" stroke-width="0.5" stroke="black" stroke-linejoin="round" fill="white" fill-opacity="1"/>
<!-- !right !both --><path d="M1016.925 135 L1016.925 185" stroke-width="0.5" stroke="black" stroke-linejoin="round" fill="white" fill-opacity="1"/>
<!-- !left !both --><path d="M1001.825 135 L1001.825 185" stroke-width="0.5" stroke="black" stroke-linejoin="round" fill="white" fill-opacity="1"/>


<!-- renderSideComponent: cap -->


<!-- renderPart: cylinder -->
<path d="M1016.825 146.875 L1031.925 146.875 L1031.925 173.125 L1016.825 173.125 L1016.825 146.875" stroke-width="0" stroke="none" stroke-linejoin="round" fill="white" fill-opacity="1"/>
<path d="M1016.825 146.875 L1031.925 146.875 M1031.925 173.125 L1016.825 173.125" stroke-width="0.5" stroke="black" stroke-linejoin="round" fill="white" fill-opacity="1"/>
<!-- !right !both --><path d="M1031.925 146.875 L1031.925 173.125" stroke-width="0.5" stroke="black" stroke-linejoin="round" fill="white" fill-opacity="1"/>
<!-- !left !both --><path d="M1016.825 146.875 L1016.825 173.125" stroke-width="0.5" stroke="black" stroke-linejoin="round" fill="white" fill-opacity="1"/>


<!-- renderPart: cylinder -->
<path d="M1031.825 135.625 L1041.925 135.625 L1041.925 184.375 L1031.825 184.375 L1031.825 135.625" stroke-width="0" stroke="none" stroke-linejoin="round" fill="white" fill-opacity="1"/>
<path d="M1031.825 135.625 L1041.925 135.625 M1041.925 184.375 L1031.825 184.375" stroke-width="0.5" stroke="black" stroke-linejoin="round" fill="white" fill-opacity="1"/>
<!-- !right !both --><path d="M1041.925 135.625 L1041.925 184.375" stroke-width="0.5" stroke="black" stroke-linejoin="round" fill="white" fill-opacity="1"/>
<!-- !left !both --><path d="M1031.825 135.625 L1031.825 184.375" stroke-width="0.5" stroke="black" stroke-linejoin="round" fill="white" fill-opacity="1"/>
<text x="700" y="200" font-size="1.2em" font-weight="bold" text-anchor="middle" dominant-baseline="central">Wooden Sharp Pencil - WSP (2.0 mm)</text>
</g><text x="50%" y="280" font-size="1.1em" font-weight="bold" text-anchor="middle" dominant-baseline="middle">Copyright (c) // Synapticloop // The Mechanical Pencil Database (tmpdb)</text>
<text x="50%" y="300" font-size="1.1em" font-weight="bold" text-anchor="middle" dominant-baseline="middle">Licensed under Creative Commons Attribution-NonCommercial-ShareAlike 4.0 International</text>
<text x="1390" y="310" font-size="0.5em" font-weight="bold" text-anchor="end" dominant-baseline="middle">SVGBrandExampleRenderer</text>
</svg>